<?xml version="1.0" encoding="UTF-8"?>
<!--Generator: CustomSymbols by @serious_bret-->
<!DOCTYPE svg
        PUBLIC "-//W3C//DTD SVG 1.1//EN"
        "http://www.w3.org/Graphics/SVG/1.1/DTD/svg11.dtd">
<svg version="1.1" xmlns="http://www.w3.org/2000/svg" xmlns:xlink="http://www.w3.org/1999/xlink" width="2900" height="1500">
    <g transform="translate(-200 -200)">
    <!--template writer version: "8"-->
    <g id="Notes">
        <rect height="2200" id="artboard" style="fill:white;opacity:1" width="3300" x="0" y="0"/>
        <line id="" style="fill:none;stroke:black;opacity:1;stroke-width:0.5;" x1="263" x2="3036" y1="292" y2="292"/>
        <text id="reftext1" style="stroke:none;fill:black;font-family:-apple-system,&quot;SF Pro Display&quot;,&quot;SF Pro Text&quot;,Helvetica,sans-serif;font-weight:bold;" transform="matrix(1 0 0 1 263 322)">Weight/Scale Variations</text>
        <text id="reftext2" style="stroke:none;fill:black;font-family:-apple-system,&quot;SF Pro Display&quot;,&quot;SF Pro Text&quot;,Helvetica,sans-serif;text-anchor:middle;" transform="matrix(1 0 0 1 559.711 322)">Ultralight</text>
        <text style="stroke:none;fill:black;font-family:-apple-system,&quot;SF Pro Display&quot;,&quot;SF Pro Text&quot;,Helvetica,sans-serif;text-anchor:middle;" transform="matrix(1 0 0 1 856.422 322)">Thin</text>
        <text style="stroke:none;fill:black;font-family:-apple-system,&quot;SF Pro Display&quot;,&quot;SF Pro Text&quot;,Helvetica,sans-serif;text-anchor:middle;" transform="matrix(1 0 0 1 1153.13 322)">Light</text>
        <text style="stroke:none;fill:black;font-family:-apple-system,&quot;SF Pro Display&quot;,&quot;SF Pro Text&quot;,Helvetica,sans-serif;text-anchor:middle;" transform="matrix(1 0 0 1 1449.84 322)">Regular</text>
        <text style="stroke:none;fill:black;font-family:-apple-system,&quot;SF Pro Display&quot;,&quot;SF Pro Text&quot;,Helvetica,sans-serif;text-anchor:middle;" transform="matrix(1 0 0 1 1746.56 322)">Medium</text>
        <text style="stroke:none;fill:black;font-family:-apple-system,&quot;SF Pro Display&quot;,&quot;SF Pro Text&quot;,Helvetica,sans-serif;text-anchor:middle;" transform="matrix(1 0 0 1 2043.27 322)">Semibold</text>
        <text style="stroke:none;fill:black;font-family:-apple-system,&quot;SF Pro Display&quot;,&quot;SF Pro Text&quot;,Helvetica,sans-serif;text-anchor:middle;" transform="matrix(1 0 0 1 2339.98 322)">Bold</text>
        <text style="stroke:none;fill:black;font-family:-apple-system,&quot;SF Pro Display&quot;,&quot;SF Pro Text&quot;,Helvetica,sans-serif;text-anchor:middle;" transform="matrix(1 0 0 1 2636.69 322)">Heavy</text>
        <text style="stroke:none;fill:black;font-family:-apple-system,&quot;SF Pro Display&quot;,&quot;SF Pro Text&quot;,Helvetica,sans-serif;text-anchor:middle;" transform="matrix(1 0 0 1 2933.4 322)">Black</text>

        <text style="stroke:none;fill:black;font-family:-apple-system,&quot;SF Pro Display&quot;,&quot;SF Pro Text&quot;,Helvetica,sans-serif;" transform="matrix(1 0 0 1 263 726)">Small</text>
        <text style="stroke:none;fill:black;font-family:-apple-system,&quot;SF Pro Display&quot;,&quot;SF Pro Text&quot;,Helvetica,sans-serif;" transform="matrix(1 0 0 1 263 1156)">Medium</text>
        <text style="stroke:none;fill:black;font-family:-apple-system,&quot;SF Pro Display&quot;,&quot;SF Pro Text&quot;,Helvetica,sans-serif;" transform="matrix(1 0 0 1 263 1586)">Large</text>
    </g>
    <g id="Guides">
        <g id="H-reference" style="fill:#27AAE1;stroke:none;" transform="matrix(1 0 0 1 339 696)">
            <path d="M0.976562 0L3.66211 0L12.9883-24.4629L45.752-24.4629L55.127 0L57.7637 0L30.6152-70.459L28.125-70.459ZM29.3457-67.1387L29.4434-67.1387L44.873-26.709L13.8672-26.709Z"/>
        </g>
        <line id="Baseline-S" style="fill:none;stroke:#27AAE1;opacity:1;stroke-width:0.5;" x1="263" x2="3036" y1="696" y2="696"/>
        <line id="Capline-S" style="fill:none;stroke:#27AAE1;opacity:1;stroke-width:0.5;" x1="263" x2="3036" y1="625.541" y2="625.541"/>
        <g id="H-reference" style="fill:#27AAE1;stroke:none;" transform="matrix(1 0 0 1 339 1126)">
            <path d="M0.976562 0L3.66211 0L12.9883-24.4629L45.752-24.4629L55.127 0L57.7637 0L30.6152-70.459L28.125-70.459ZM29.3457-67.1387L29.4434-67.1387L44.873-26.709L13.8672-26.709Z"/>
        </g>
        <line id="Baseline-M" style="fill:none;stroke:#27AAE1;opacity:1;stroke-width:0.5;" x1="263" x2="3036" y1="1126" y2="1126"/>
        <line id="Capline-M" style="fill:none;stroke:#27AAE1;opacity:1;stroke-width:0.5;" x1="263" x2="3036" y1="1055.54" y2="1055.54"/>
        <g id="H-reference" style="fill:#27AAE1;stroke:none;" transform="matrix(1 0 0 1 339 1556)">
            <path d="M0.976562 0L3.66211 0L12.9883-24.4629L45.752-24.4629L55.127 0L57.7637 0L30.6152-70.459L28.125-70.459ZM29.3457-67.1387L29.4434-67.1387L44.873-26.709L13.8672-26.709Z"/>
        </g>
        <line id="Baseline-L" style="fill:none;stroke:#27AAE1;opacity:1;stroke-width:0.5;" x1="263" x2="3036" y1="1556" y2="1556"/>
        <line id="Capline-L" style="fill:none;stroke:#27AAE1;opacity:1;stroke-width:0.5;" x1="263" x2="3036" y1="1485.54" y2="1485.54"/>
        <line id="left-margin" x1="1417.3214020285482" x2="1417.3214020285482" y1="1030.79" y2="1150.12" style="fill:none;stroke:#00AEEF;stroke-width:0.5;opacity:1.0;"/>
        <line id="right-margin" x1="1484.9385979714516" x2="1484.9385979714516" y1="1030.79" y2="1150.12" style="fill:none;stroke:#00AEEF;stroke-width:0.5;opacity:1.0;"/>
    </g>
    <g id="Symbols">
        <g id="Black-L" transform="matrix(1.0,0.0,0.0,1.0,2869.1948778030437,1455.2848973342939)">  <path stroke-miterlimit="4" role="img" stroke-width="1px" fill-rule="nonzero" stroke-dasharray="none" stroke-opacity="1" fill-opacity="1" fill="#000000" stroke="none" stroke-linecap="butt" stroke-linejoin="miter" d="M121.529,105.786L9.441,105.786L9.441,34.625L121.529,34.625L121.529,96.334ZM31.482,86.893L31.482,62.336L44.077,78.08L56.666,62.336L56.666,86.893L69.261,86.893L69.261,44.082L56.666,44.082L44.077,59.826L31.482,44.082L18.882,44.082L18.882,86.904ZM115.865,65.485L103.265,65.485L103.265,44.077L90.675,44.077L90.675,65.485L78.08,65.485L96.967,87.526ZM115.865,65.485"/>
</g>
        <g id="Heavy-L" transform="matrix(1.0,0.0,0.0,1.0,2572.4848778030437,1455.2848973342939)">  <path stroke="none" fill-rule="nonzero" stroke-miterlimit="4" role="img" stroke-opacity="1" fill-opacity="1" stroke-linejoin="miter" stroke-width="1px" stroke-dasharray="none" fill="#000000" stroke-linecap="butt" d="M121.529,105.786L9.441,105.786L9.441,34.625L121.529,34.625L121.529,96.334ZM31.482,86.893L31.482,62.336L44.077,78.08L56.666,62.336L56.666,86.893L69.261,86.893L69.261,44.082L56.666,44.082L44.077,59.826L31.482,44.082L18.882,44.082L18.882,86.904ZM115.865,65.485L103.265,65.485L103.265,44.077L90.675,44.077L90.675,65.485L78.08,65.485L96.967,87.526ZM115.865,65.485"/>
</g>
        <g id="Bold-L" transform="matrix(1.0,0.0,0.0,1.0,2275.7748778030436,1455.2848973342939)">  <path stroke-linejoin="miter" stroke-dasharray="none" stroke-miterlimit="4" stroke-width="1px" fill="#000000" stroke="none" stroke-opacity="1" fill-rule="nonzero" role="img" stroke-linecap="butt" fill-opacity="1" d="M121.529,105.786L9.441,105.786L9.441,34.625L121.529,34.625L121.529,96.334ZM31.482,86.893L31.482,62.336L44.077,78.08L56.666,62.336L56.666,86.893L69.261,86.893L69.261,44.082L56.666,44.082L44.077,59.826L31.482,44.082L18.882,44.082L18.882,86.904ZM115.865,65.485L103.265,65.485L103.265,44.077L90.675,44.077L90.675,65.485L78.08,65.485L96.967,87.526ZM115.865,65.485"/>
</g>
        <g id="Semibold-L" transform="matrix(1.0,0.0,0.0,1.0,1979.0648778030438,1455.2848973342939)">  <path stroke-miterlimit="4" stroke-dasharray="none" stroke-width="1px" fill="#000000" stroke-linejoin="miter" stroke="none" stroke-linecap="butt" fill-rule="nonzero" stroke-opacity="1" fill-opacity="1" role="img" d="M121.529,105.786L9.441,105.786L9.441,34.625L121.529,34.625L121.529,96.334ZM31.482,86.893L31.482,62.336L44.077,78.08L56.666,62.336L56.666,86.893L69.261,86.893L69.261,44.082L56.666,44.082L44.077,59.826L31.482,44.082L18.882,44.082L18.882,86.904ZM115.865,65.485L103.265,65.485L103.265,44.077L90.675,44.077L90.675,65.485L78.08,65.485L96.967,87.526ZM115.865,65.485"/>
</g>
        <g id="Medium-L" transform="matrix(1.0,0.0,0.0,1.0,1682.3548778030438,1455.2848973342939)">  <path stroke-dasharray="none" stroke-linejoin="miter" stroke-miterlimit="4" fill-opacity="1" stroke-linecap="butt" role="img" fill="#000000" stroke-opacity="1" stroke-width="1px" fill-rule="nonzero" stroke="none" d="M121.529,105.786L9.441,105.786L9.441,34.625L121.529,34.625L121.529,96.334ZM31.482,86.893L31.482,62.336L44.077,78.08L56.666,62.336L56.666,86.893L69.261,86.893L69.261,44.082L56.666,44.082L44.077,59.826L31.482,44.082L18.882,44.082L18.882,86.904ZM115.865,65.485L103.265,65.485L103.265,44.077L90.675,44.077L90.675,65.485L78.08,65.485L96.967,87.526ZM115.865,65.485"/>
</g>
        <g id="Regular-L" transform="matrix(1.0,0.0,0.0,1.0,1385.6448778030438,1455.2848973342939)">  <path stroke-dasharray="none" role="img" fill-rule="nonzero" stroke-linecap="butt" stroke-linejoin="miter" stroke-width="1px" stroke-miterlimit="4" stroke="none" fill="#000000" fill-opacity="1" stroke-opacity="1" d="M121.529,105.786L9.441,105.786L9.441,34.625L121.529,34.625L121.529,96.334ZM31.482,86.893L31.482,62.336L44.077,78.08L56.666,62.336L56.666,86.893L69.261,86.893L69.261,44.082L56.666,44.082L44.077,59.826L31.482,44.082L18.882,44.082L18.882,86.904ZM115.865,65.485L103.265,65.485L103.265,44.077L90.675,44.077L90.675,65.485L78.08,65.485L96.967,87.526ZM115.865,65.485"/>
</g>
        <g id="Light-L" transform="matrix(1.0,0.0,0.0,1.0,1088.934877803044,1455.2848973342939)">  <path stroke-linecap="butt" stroke="none" stroke-opacity="1" fill-rule="nonzero" role="img" stroke-linejoin="miter" stroke-width="1px" fill="#000000" stroke-dasharray="none" stroke-miterlimit="4" fill-opacity="1" d="M121.529,105.786L9.441,105.786L9.441,34.625L121.529,34.625L121.529,96.334ZM31.482,86.893L31.482,62.336L44.077,78.08L56.666,62.336L56.666,86.893L69.261,86.893L69.261,44.082L56.666,44.082L44.077,59.826L31.482,44.082L18.882,44.082L18.882,86.904ZM115.865,65.485L103.265,65.485L103.265,44.077L90.675,44.077L90.675,65.485L78.08,65.485L96.967,87.526ZM115.865,65.485"/>
</g>
        <g id="Thin-L" transform="matrix(1.0,0.0,0.0,1.0,792.224877803044,1455.2848973342939)">  <path stroke-opacity="1" stroke-width="1px" role="img" stroke-linecap="butt" stroke="none" stroke-linejoin="miter" fill-rule="nonzero" stroke-dasharray="none" stroke-miterlimit="4" fill="#000000" fill-opacity="1" d="M121.529,105.786L9.441,105.786L9.441,34.625L121.529,34.625L121.529,96.334ZM31.482,86.893L31.482,62.336L44.077,78.08L56.666,62.336L56.666,86.893L69.261,86.893L69.261,44.082L56.666,44.082L44.077,59.826L31.482,44.082L18.882,44.082L18.882,86.904ZM115.865,65.485L103.265,65.485L103.265,44.077L90.675,44.077L90.675,65.485L78.08,65.485L96.967,87.526ZM115.865,65.485"/>
</g>
        <g id="Ultralight-L" transform="matrix(1.0,0.0,0.0,1.0,495.51487780304393,1455.2848973342939)">  <path role="img" stroke-opacity="1" fill-opacity="1" fill-rule="nonzero" fill="#000000" stroke-miterlimit="4" stroke-dasharray="none" stroke-linejoin="miter" stroke="none" stroke-linecap="butt" stroke-width="1px" d="M121.529,105.786L9.441,105.786L9.441,34.625L121.529,34.625L121.529,96.334ZM31.482,86.893L31.482,62.336L44.077,78.08L56.666,62.336L56.666,86.893L69.261,86.893L69.261,44.082L56.666,44.082L44.077,59.826L31.482,44.082L18.882,44.082L18.882,86.904ZM115.865,65.485L103.265,65.485L103.265,44.077L90.675,44.077L90.675,65.485L78.08,65.485L96.967,87.526ZM115.865,65.485"/>
</g>
        <g id="Black-M" transform="matrix(1.0,0.0,0.0,1.0,2883.9163393822046,1040.0063589134545)">  <path stroke-miterlimit="4" role="img" stroke-width="1px" fill-rule="nonzero" stroke-dasharray="none" stroke-opacity="1" fill-opacity="1" fill="#000000" stroke="none" stroke-linecap="butt" stroke-linejoin="miter" d="M94.209,82.004L7.318,82.004L7.318,26.841L94.209,26.841L94.209,74.678ZM24.405,67.359L24.405,48.323L34.168,60.527L43.927,48.323L43.927,67.359L53.691,67.359L53.691,34.172L43.927,34.172L34.168,46.377L24.405,34.172L14.637,34.172L14.637,67.368ZM89.818,50.764L80.05,50.764L80.05,34.168L70.291,34.168L70.291,50.764L60.527,50.764L75.168,67.85ZM89.818,50.764"/>
</g>
        <g id="Heavy-M" transform="matrix(1.0,0.0,0.0,1.0,2587.2063393822045,1040.0063589134545)">  <path stroke="none" fill-rule="nonzero" stroke-miterlimit="4" role="img" stroke-opacity="1" fill-opacity="1" stroke-linejoin="miter" stroke-width="1px" stroke-dasharray="none" fill="#000000" stroke-linecap="butt" d="M94.209,82.004L7.318,82.004L7.318,26.841L94.209,26.841L94.209,74.678ZM24.405,67.359L24.405,48.323L34.168,60.527L43.927,48.323L43.927,67.359L53.691,67.359L53.691,34.172L43.927,34.172L34.168,46.377L24.405,34.172L14.637,34.172L14.637,67.368ZM89.818,50.764L80.05,50.764L80.05,34.168L70.291,34.168L70.291,50.764L60.527,50.764L75.168,67.85ZM89.818,50.764"/>
</g>
        <g id="Bold-M" transform="matrix(1.0,0.0,0.0,1.0,2290.4963393822045,1040.0063589134545)">  <path stroke-linejoin="miter" stroke-dasharray="none" stroke-miterlimit="4" stroke-width="1px" fill="#000000" stroke="none" stroke-opacity="1" fill-rule="nonzero" role="img" stroke-linecap="butt" fill-opacity="1" d="M94.209,82.004L7.318,82.004L7.318,26.841L94.209,26.841L94.209,74.678ZM24.405,67.359L24.405,48.323L34.168,60.527L43.927,48.323L43.927,67.359L53.691,67.359L53.691,34.172L43.927,34.172L34.168,46.377L24.405,34.172L14.637,34.172L14.637,67.368ZM89.818,50.764L80.05,50.764L80.05,34.168L70.291,34.168L70.291,50.764L60.527,50.764L75.168,67.85ZM89.818,50.764"/>
</g>
        <g id="Semibold-M" transform="matrix(1.0,0.0,0.0,1.0,1993.7863393822045,1040.0063589134545)">  <path stroke-miterlimit="4" stroke-dasharray="none" stroke-width="1px" fill="#000000" stroke-linejoin="miter" stroke="none" stroke-linecap="butt" fill-rule="nonzero" stroke-opacity="1" fill-opacity="1" role="img" d="M94.209,82.004L7.318,82.004L7.318,26.841L94.209,26.841L94.209,74.678ZM24.405,67.359L24.405,48.323L34.168,60.527L43.927,48.323L43.927,67.359L53.691,67.359L53.691,34.172L43.927,34.172L34.168,46.377L24.405,34.172L14.637,34.172L14.637,67.368ZM89.818,50.764L80.05,50.764L80.05,34.168L70.291,34.168L70.291,50.764L60.527,50.764L75.168,67.85ZM89.818,50.764"/>
</g>
        <g id="Medium-M" transform="matrix(1.0,0.0,0.0,1.0,1697.0763393822044,1040.0063589134545)">  <path stroke-dasharray="none" stroke-linejoin="miter" stroke-miterlimit="4" fill-opacity="1" stroke-linecap="butt" role="img" fill="#000000" stroke-opacity="1" stroke-width="1px" fill-rule="nonzero" stroke="none" d="M94.209,82.004L7.318,82.004L7.318,26.841L94.209,26.841L94.209,74.678ZM24.405,67.359L24.405,48.323L34.168,60.527L43.927,48.323L43.927,67.359L53.691,67.359L53.691,34.172L43.927,34.172L34.168,46.377L24.405,34.172L14.637,34.172L14.637,67.368ZM89.818,50.764L80.05,50.764L80.05,34.168L70.291,34.168L70.291,50.764L60.527,50.764L75.168,67.85ZM89.818,50.764"/>
</g>
        <g id="Regular-M" transform="matrix(1.0,0.0,0.0,1.0,1400.3663393822044,1040.0063589134545)">  <path stroke-dasharray="none" role="img" fill-rule="nonzero" stroke-linecap="butt" stroke-linejoin="miter" stroke-width="1px" stroke-miterlimit="4" stroke="none" fill="#000000" fill-opacity="1" stroke-opacity="1" d="M94.209,82.004L7.318,82.004L7.318,26.841L94.209,26.841L94.209,74.678ZM24.405,67.359L24.405,48.323L34.168,60.527L43.927,48.323L43.927,67.359L53.691,67.359L53.691,34.172L43.927,34.172L34.168,46.377L24.405,34.172L14.637,34.172L14.637,67.368ZM89.818,50.764L80.05,50.764L80.05,34.168L70.291,34.168L70.291,50.764L60.527,50.764L75.168,67.85ZM89.818,50.764"/>
</g>
        <g id="Light-M" transform="matrix(1.0,0.0,0.0,1.0,1103.6563393822046,1040.0063589134545)">  <path stroke-linecap="butt" stroke="none" stroke-opacity="1" fill-rule="nonzero" role="img" stroke-linejoin="miter" stroke-width="1px" fill="#000000" stroke-dasharray="none" stroke-miterlimit="4" fill-opacity="1" d="M94.209,82.004L7.318,82.004L7.318,26.841L94.209,26.841L94.209,74.678ZM24.405,67.359L24.405,48.323L34.168,60.527L43.927,48.323L43.927,67.359L53.691,67.359L53.691,34.172L43.927,34.172L34.168,46.377L24.405,34.172L14.637,34.172L14.637,67.368ZM89.818,50.764L80.05,50.764L80.05,34.168L70.291,34.168L70.291,50.764L60.527,50.764L75.168,67.85ZM89.818,50.764"/>
</g>
        <g id="Thin-M" transform="matrix(1.0,0.0,0.0,1.0,806.9463393822047,1040.0063589134545)">  <path stroke-opacity="1" stroke-width="1px" role="img" stroke-linecap="butt" stroke="none" stroke-linejoin="miter" fill-rule="nonzero" stroke-dasharray="none" stroke-miterlimit="4" fill="#000000" fill-opacity="1" d="M94.209,82.004L7.318,82.004L7.318,26.841L94.209,26.841L94.209,74.678ZM24.405,67.359L24.405,48.323L34.168,60.527L43.927,48.323L43.927,67.359L53.691,67.359L53.691,34.172L43.927,34.172L34.168,46.377L24.405,34.172L14.637,34.172L14.637,67.368ZM89.818,50.764L80.05,50.764L80.05,34.168L70.291,34.168L70.291,50.764L60.527,50.764L75.168,67.85ZM89.818,50.764"/>
</g>
        <g id="Ultralight-M" transform="matrix(1.0,0.0,0.0,1.0,510.2363393822046,1040.0063589134545)">  <path role="img" stroke-opacity="1" fill-opacity="1" fill-rule="nonzero" fill="#000000" stroke-miterlimit="4" stroke-dasharray="none" stroke-linejoin="miter" stroke="none" stroke-linecap="butt" stroke-width="1px" d="M94.209,82.004L7.318,82.004L7.318,26.841L94.209,26.841L94.209,74.678ZM24.405,67.359L24.405,48.323L34.168,60.527L43.927,48.323L43.927,67.359L53.691,67.359L53.691,34.172L43.927,34.172L34.168,46.377L24.405,34.172L14.637,34.172L14.637,67.368ZM89.818,50.764L80.05,50.764L80.05,34.168L70.291,34.168L70.291,50.764L60.527,50.764L75.168,67.85ZM89.818,50.764"/>
</g>
        <g id="Black-S" transform="matrix(1.0,0.0,0.0,1.0,2894.932053736266,621.0220732675162)">  <path stroke-miterlimit="4" role="img" stroke-width="1px" fill-rule="nonzero" stroke-dasharray="none" stroke-opacity="1" fill-opacity="1" fill="#000000" stroke="none" stroke-linecap="butt" stroke-linejoin="miter" d="M73.766,64.209L5.73,64.209L5.73,21.017L73.766,21.017L73.766,58.473ZM19.109,52.742L19.109,37.837L26.754,47.393L34.395,37.837L34.395,52.742L42.04,52.742L42.04,26.757L34.395,26.757L26.754,36.313L19.109,26.757L11.461,26.757L11.461,52.749ZM70.327,39.748L62.679,39.748L62.679,26.754L55.038,26.754L55.038,39.748L47.393,39.748L58.857,53.126ZM70.327,39.748"/>
</g>
        <g id="Heavy-S" transform="matrix(1.0,0.0,0.0,1.0,2598.222053736266,621.0220732675162)">  <path stroke="none" fill-rule="nonzero" stroke-miterlimit="4" role="img" stroke-opacity="1" fill-opacity="1" stroke-linejoin="miter" stroke-width="1px" stroke-dasharray="none" fill="#000000" stroke-linecap="butt" d="M73.766,64.209L5.73,64.209L5.73,21.017L73.766,21.017L73.766,58.473ZM19.109,52.742L19.109,37.837L26.754,47.393L34.395,37.837L34.395,52.742L42.04,52.742L42.04,26.757L34.395,26.757L26.754,36.313L19.109,26.757L11.461,26.757L11.461,52.749ZM70.327,39.748L62.679,39.748L62.679,26.754L55.038,26.754L55.038,39.748L47.393,39.748L58.857,53.126ZM70.327,39.748"/>
</g>
        <g id="Bold-S" transform="matrix(1.0,0.0,0.0,1.0,2301.512053736266,621.0220732675162)">  <path stroke-linejoin="miter" stroke-dasharray="none" stroke-miterlimit="4" stroke-width="1px" fill="#000000" stroke="none" stroke-opacity="1" fill-rule="nonzero" role="img" stroke-linecap="butt" fill-opacity="1" d="M73.766,64.209L5.73,64.209L5.73,21.017L73.766,21.017L73.766,58.473ZM19.109,52.742L19.109,37.837L26.754,47.393L34.395,37.837L34.395,52.742L42.04,52.742L42.04,26.757L34.395,26.757L26.754,36.313L19.109,26.757L11.461,26.757L11.461,52.749ZM70.327,39.748L62.679,39.748L62.679,26.754L55.038,26.754L55.038,39.748L47.393,39.748L58.857,53.126ZM70.327,39.748"/>
</g>
        <g id="Semibold-S" transform="matrix(1.0,0.0,0.0,1.0,2004.802053736266,621.0220732675162)">  <path stroke-miterlimit="4" stroke-dasharray="none" stroke-width="1px" fill="#000000" stroke-linejoin="miter" stroke="none" stroke-linecap="butt" fill-rule="nonzero" stroke-opacity="1" fill-opacity="1" role="img" d="M73.766,64.209L5.73,64.209L5.73,21.017L73.766,21.017L73.766,58.473ZM19.109,52.742L19.109,37.837L26.754,47.393L34.395,37.837L34.395,52.742L42.04,52.742L42.04,26.757L34.395,26.757L26.754,36.313L19.109,26.757L11.461,26.757L11.461,52.749ZM70.327,39.748L62.679,39.748L62.679,26.754L55.038,26.754L55.038,39.748L47.393,39.748L58.857,53.126ZM70.327,39.748"/>
</g>
        <g id="Medium-S" transform="matrix(1.0,0.0,0.0,1.0,1708.092053736266,621.0220732675162)">  <path stroke-dasharray="none" stroke-linejoin="miter" stroke-miterlimit="4" fill-opacity="1" stroke-linecap="butt" role="img" fill="#000000" stroke-opacity="1" stroke-width="1px" fill-rule="nonzero" stroke="none" d="M73.766,64.209L5.73,64.209L5.73,21.017L73.766,21.017L73.766,58.473ZM19.109,52.742L19.109,37.837L26.754,47.393L34.395,37.837L34.395,52.742L42.04,52.742L42.04,26.757L34.395,26.757L26.754,36.313L19.109,26.757L11.461,26.757L11.461,52.749ZM70.327,39.748L62.679,39.748L62.679,26.754L55.038,26.754L55.038,39.748L47.393,39.748L58.857,53.126ZM70.327,39.748"/>
</g>
        <g id="Regular-S" transform="matrix(1.0,0.0,0.0,1.0,1411.382053736266,621.0220732675162)">  <path stroke-dasharray="none" role="img" fill-rule="nonzero" stroke-linecap="butt" stroke-linejoin="miter" stroke-width="1px" stroke-miterlimit="4" stroke="none" fill="#000000" fill-opacity="1" stroke-opacity="1" d="M73.766,64.209L5.73,64.209L5.73,21.017L73.766,21.017L73.766,58.473ZM19.109,52.742L19.109,37.837L26.754,47.393L34.395,37.837L34.395,52.742L42.04,52.742L42.04,26.757L34.395,26.757L26.754,36.313L19.109,26.757L11.461,26.757L11.461,52.749ZM70.327,39.748L62.679,39.748L62.679,26.754L55.038,26.754L55.038,39.748L47.393,39.748L58.857,53.126ZM70.327,39.748"/>
</g>
        <g id="Light-S" transform="matrix(1.0,0.0,0.0,1.0,1114.6720537362662,621.0220732675162)">  <path stroke-linecap="butt" stroke="none" stroke-opacity="1" fill-rule="nonzero" role="img" stroke-linejoin="miter" stroke-width="1px" fill="#000000" stroke-dasharray="none" stroke-miterlimit="4" fill-opacity="1" d="M73.766,64.209L5.73,64.209L5.73,21.017L73.766,21.017L73.766,58.473ZM19.109,52.742L19.109,37.837L26.754,47.393L34.395,37.837L34.395,52.742L42.04,52.742L42.04,26.757L34.395,26.757L26.754,36.313L19.109,26.757L11.461,26.757L11.461,52.749ZM70.327,39.748L62.679,39.748L62.679,26.754L55.038,26.754L55.038,39.748L47.393,39.748L58.857,53.126ZM70.327,39.748"/>
</g>
        <g id="Thin-S" transform="matrix(1.0,0.0,0.0,1.0,817.9620537362663,621.0220732675162)">  <path stroke-opacity="1" stroke-width="1px" role="img" stroke-linecap="butt" stroke="none" stroke-linejoin="miter" fill-rule="nonzero" stroke-dasharray="none" stroke-miterlimit="4" fill="#000000" fill-opacity="1" d="M73.766,64.209L5.73,64.209L5.73,21.017L73.766,21.017L73.766,58.473ZM19.109,52.742L19.109,37.837L26.754,47.393L34.395,37.837L34.395,52.742L42.04,52.742L42.04,26.757L34.395,26.757L26.754,36.313L19.109,26.757L11.461,26.757L11.461,52.749ZM70.327,39.748L62.679,39.748L62.679,26.754L55.038,26.754L55.038,39.748L47.393,39.748L58.857,53.126ZM70.327,39.748"/>
</g>
        <g id="Ultralight-S" transform="matrix(1.0,0.0,0.0,1.0,521.2520537362662,621.0220732675162)">  <path role="img" stroke-opacity="1" fill-opacity="1" fill-rule="nonzero" fill="#000000" stroke-miterlimit="4" stroke-dasharray="none" stroke-linejoin="miter" stroke="none" stroke-linecap="butt" stroke-width="1px" d="M73.766,64.209L5.73,64.209L5.73,21.017L73.766,21.017L73.766,58.473ZM19.109,52.742L19.109,37.837L26.754,47.393L34.395,37.837L34.395,52.742L42.04,52.742L42.04,26.757L34.395,26.757L26.754,36.313L19.109,26.757L11.461,26.757L11.461,52.749ZM70.327,39.748L62.679,39.748L62.679,26.754L55.038,26.754L55.038,39.748L47.393,39.748L58.857,53.126ZM70.327,39.748"/>
</g>
    </g>
    </g>
</svg>
