<?xml version="1.0" encoding="UTF-8"?>
<svg width="3300px" height="2200px" viewBox="0 0 3300 2200" version="1.1" xmlns="http://www.w3.org/2000/svg" xmlns:xlink="http://www.w3.org/1999/xlink">
    <title>fortran.SFSymbol</title>
    <g id="Page-1" stroke="none" stroke-width="1" fill="none" fill-rule="evenodd">
        <g id="fortran.SFSymbol">
            <g id="Notes">
                <rect id="artboard" fill="#FFFFFF" fill-rule="nonzero" x="0" y="0" width="3300" height="2200"></rect>
                <line x1="263" y1="292" x2="3036" y2="292" id="Path" stroke="#000000" stroke-width="0.5"></line>
                <text id="Weight/Scale-Variations" fill="#000000" fill-rule="nonzero" font-family="Helvetica" font-size="13" font-weight="normal">
                    <tspan x="263" y="322">Weight/Scale Variations</tspan>
                </text>
                <text id="Ultralight" fill="#000000" fill-rule="nonzero" font-family="Helvetica" font-size="13" font-weight="normal">
                    <tspan x="533.711" y="322">Ultralight</tspan>
                </text>
                <text id="Thin" fill="#000000" fill-rule="nonzero" font-family="Helvetica" font-size="13" font-weight="normal">
                    <tspan x="843.422" y="322">Thin</tspan>
                </text>
                <text id="Light" fill="#000000" fill-rule="nonzero" font-family="Helvetica" font-size="13" font-weight="normal">
                    <tspan x="1138.63" y="322">Light</tspan>
                </text>
                <text id="Regular" fill="#000000" fill-rule="nonzero" font-family="Helvetica" font-size="13" font-weight="normal">
                    <tspan x="1426.84" y="322">Regular</tspan>
                </text>
                <text id="Medium" fill="#000000" fill-rule="nonzero" font-family="Helvetica" font-size="13" font-weight="normal">
                    <tspan x="1723.06" y="322">Medium</tspan>
                </text>
                <text id="Semibold" fill="#000000" fill-rule="nonzero" font-family="Helvetica" font-size="13" font-weight="normal">
                    <tspan x="2015.77" y="322">Semibold</tspan>
                </text>
                <text id="Bold" fill="#000000" fill-rule="nonzero" font-family="Helvetica" font-size="13" font-weight="normal">
                    <tspan x="2326.48" y="322">Bold</tspan>
                </text>
                <text id="Heavy" fill="#000000" fill-rule="nonzero" font-family="Helvetica" font-size="13" font-weight="normal">
                    <tspan x="2618.19" y="322">Heavy</tspan>
                </text>
                <text id="Black" fill="#000000" fill-rule="nonzero" font-family="Helvetica" font-size="13" font-weight="normal">
                    <tspan x="2917.4" y="322">Black</tspan>
                </text>
                <line x1="263" y1="1903" x2="3036" y2="1903" id="Path" stroke="#000000" stroke-width="0.5"></line>
                <g id="Group" transform="translate(264.367190, 1918.068400)" fill="#000000" fill-rule="nonzero">
                    <path d="M7.88086,15.761678 C12.18751,15.761678 15.77151,12.18746 15.77151,7.88082 C15.77151,3.5742 12.17771,0 7.87109,0 C3.57422,0 -8.8817842e-16,3.5742 -8.8817842e-16,7.88082 C-8.8817842e-16,12.18746 3.58398,15.761678 7.88086,15.761678 Z M7.88086,14.277303 C4.33593,14.277303 1.5039,11.43551 1.5039,7.88082 C1.5039,4.3261 4.32617,1.4843 7.87109,1.4843 C11.42581,1.4843 14.27731,4.3261 14.27731,7.88082 C14.27731,11.43551 11.43551,14.277303 7.88086,14.277303 Z M4.28711,7.88082 C4.28711,8.31051 4.58984,8.60348 5.03906,8.60348 L7.13867,8.60348 L7.13867,10.72262 C7.13867,11.16207 7.43164,11.4648 7.86133,11.4648 C8.31054,11.4648 8.60351,11.16207 8.60351,10.72262 L8.60351,8.60348 L10.72261,8.60348 C11.16211,8.60348 11.46481,8.31051 11.46481,7.88082 C11.46481,7.44137 11.16211,7.13863 10.72261,7.13863 L8.60351,7.13863 L8.60351,5.02926 C8.60351,4.58 8.31054,4.2773 7.86133,4.2773 C7.43164,4.2773 7.13867,4.58 7.13867,5.02926 L7.13867,7.13863 L5.03906,7.13863 C4.58984,7.13863 4.28711,7.44137 4.28711,7.88082 Z" id="Shape"></path>
                </g>
                <g id="Group" transform="translate(283.615050, 1915.988300)" fill="#000000" fill-rule="nonzero">
                    <path d="M9.96095,19.92186 C15.41015,19.92186 19.92185,15.40037 19.92185,9.96092 C19.92185,4.5117 15.40035,0 9.95115,0 C4.51172,0 8.8817842e-16,4.5117 8.8817842e-16,9.96092 C8.8817842e-16,15.40037 4.52148,19.92186 9.96095,19.92186 Z M9.96095,18.2617 C5.35156,18.2617 1.66992,14.57029 1.66992,9.96092 C1.66992,5.3515 5.34179,1.6601 9.95115,1.6601 C14.56055,1.6601 18.26175,5.3515 18.26175,9.96092 C18.26175,14.57029 14.57035,18.2617 9.96095,18.2617 Z M5.42968,9.96092 C5.42968,10.43943 5.76172,10.7617 6.25976,10.7617 L9.13085,10.7617 L9.13085,13.64256 C9.13085,14.13084 9.46285,14.47264 9.94145,14.47264 C10.42965,14.47264 10.77145,14.14061 10.77145,13.64256 L10.77145,10.7617 L13.65235,10.7617 C14.14065,10.7617 14.48245,10.43943 14.48245,9.96092 C14.48245,9.47264 14.14065,9.13084 13.65235,9.13084 L10.77145,9.13084 L10.77145,6.2597 C10.77145,5.7617 10.42965,5.4199 9.94145,5.4199 C9.46285,5.4199 9.13085,5.7617 9.13085,6.2597 L9.13085,9.13084 L6.25976,9.13084 C5.76172,9.13084 5.42968,9.47264 5.42968,9.96092 Z" id="Shape"></path>
                </g>
                <g id="Group" transform="translate(307.901860, 1913.224600)" fill="#000000" fill-rule="nonzero">
                    <path d="M12.71484,25.43946 C19.67774,25.43946 25.43944,19.6777438 25.43944,12.72462 C25.43944,5.7617 19.66794,0 12.70504,0 C5.75195,0 0,5.7617 0,12.72462 C0,19.6777438 5.76172,25.43946 12.71484,25.43946 Z M12.71484,23.62306 C6.67969,23.62306 1.82617,18.75978 1.82617,12.72462 C1.82617,6.6797 6.66992,1.8262 12.70504,1.8262 C18.75004,1.8262 23.61324,6.6797 23.61324,12.72462 C23.61324,18.75978 18.75974,23.62306 12.71484,23.62306 Z M6.94336,12.72462 C6.94336,13.2422 7.31445,13.60352 7.86134,13.60352 L11.80664,13.60352 L11.80664,17.5586 C11.80664,18.09571 12.17774,18.47657 12.69534,18.47657 C13.23244,18.47657 13.60354,18.10548 13.60354,17.5586 L13.60354,13.60352 L17.55864,13.60352 C18.09574,13.60352 18.47654,13.2422 18.47654,12.72462 C18.47654,12.17774 18.10544,11.80665 17.55864,11.80665 L13.60354,11.80665 L13.60354,7.8613 C13.60354,7.3145 13.23244,6.9336 12.69534,6.9336 C12.17774,6.9336 11.80664,7.3145 11.80664,7.8613 L11.80664,11.80665 L7.86134,11.80665 C7.31445,11.80665 6.94336,12.17774 6.94336,12.72462 Z" id="Shape"></path>
                </g>
                <text id="Design-Variations" fill="#000000" fill-rule="nonzero" font-family="Helvetica" font-size="13" font-weight="normal">
                    <tspan x="263" y="1953">Design Variations</tspan>
                </text>
                <text id="Symbols-are-supported-in-up-to-nine-weights-and-three-scales." fill="#000000" fill-rule="nonzero" font-family="Helvetica" font-size="13" font-weight="normal">
                    <tspan x="263" y="1971">Symbols are supported in up to nine weights and three scales.</tspan>
                </text>
                <text id="For-optimal-layout-with-text-and-other-symbols,-vertically-align" fill="#000000" fill-rule="nonzero" font-family="Helvetica" font-size="13" font-weight="normal">
                    <tspan x="263" y="1989">For optimal layout with text and other symbols, vertically align</tspan>
                </text>
                <text id="symbols-with-the-adjacent-text." fill="#000000" fill-rule="nonzero" font-family="Helvetica" font-size="13" font-weight="normal">
                    <tspan x="263" y="2007">symbols with the adjacent text.</tspan>
                </text>
                <line x1="776" y1="1919" x2="776" y2="1933" id="Path" stroke="#00AEEF" stroke-width="0.5"></line>
                <g id="Group" transform="translate(778.490230, 1918.732400)" fill="#000000" fill-rule="nonzero">
                    <path d="M0.82032,14.42385 C1.33789,14.42385 1.5918,14.2285375 1.77735,13.681662 L3.03711,10.2344 L8.79887,10.2344 L10.05857,13.681662 C10.24417,14.2285375 10.49807,14.42385 11.00587,14.42385 C11.52347,14.42385 11.85547,14.11135 11.85547,13.623069 C11.85547,13.457053 11.82617,13.300803 11.74807,13.09572 L7.16797,0.8985 C6.94336,0.3028 6.54297,0 5.91797,0 C5.3125,0 4.90235,0.293 4.6875,0.8887 L0.10743,13.10549 C0.0293,13.310569 -4.4408921e-16,13.466819 -4.4408921e-16,13.632834 C-4.4408921e-16,14.121116 0.3125,14.42385 0.82032,14.42385 Z M3.51563,8.75002 L5.88868,2.1778 L5.9375,2.1778 L8.31057,8.75002 L3.51563,8.75002 Z" id="Shape"></path>
                </g>
                <line x1="793.197" y1="1919" x2="793.197" y2="1933" id="Path" stroke="#00AEEF" stroke-width="0.5"></line>
                <text id="Margins" fill="#000000" fill-rule="nonzero" font-family="Helvetica" font-size="13" font-weight="normal">
                    <tspan x="776" y="1953">Margins</tspan>
                </text>
                <text id="Leading-and-trailing-margins-on-the-left-and-right-side-of-each-symbol" fill="#000000" fill-rule="nonzero" font-family="Helvetica" font-size="13" font-weight="normal">
                    <tspan x="776" y="1971">Leading and trailing margins on the left and right side of each symbol</tspan>
                </text>
                <text id="can-be-adjusted-by-modifying-the-x-location-of-the-margin-guidelines." fill="#000000" fill-rule="nonzero" font-family="Helvetica" font-size="13" font-weight="normal">
                    <tspan x="776" y="1989">can be adjusted by modifying the x-location of the margin guidelines.</tspan>
                </text>
                <text id="Modifications-are-automatically-applied-proportionally-to-all" fill="#000000" fill-rule="nonzero" font-family="Helvetica" font-size="13" font-weight="normal">
                    <tspan x="776" y="2007">Modifications are automatically applied proportionally to all</tspan>
                </text>
                <text id="scales-and-weights." fill="#000000" fill-rule="nonzero" font-family="Helvetica" font-size="13" font-weight="normal">
                    <tspan x="776" y="2025">scales and weights.</tspan>
                </text>
                <g id="Group" transform="translate(1291.248126, 1914.517396)" fill="#000000" fill-rule="nonzero">
                    <path d="M0.593673634,20.347834 L2.29289363,22.056824 C3.15226363,22.925964 4.13859363,22.867374 5.06632363,21.841984 L15.7596736,10.054874 L14.7928736,9.07830404 L4.17765363,20.757994 C3.82609363,21.158384 3.49406363,21.256044 3.02531363,20.787294 L1.85343363,19.625184 C1.38468363,19.166198 1.49210363,18.824401 1.89249363,18.4630728 L13.3670736,7.66230404 L12.3905736,6.69550404 L0.798753634,17.584166 C-0.187576366,18.5021352 -0.265706366,19.478698 0.593673634,20.347834 Z M7.00968363,2.15450404 C6.58976363,2.56460404 6.56046363,3.14080404 6.79484363,3.53140404 C7.02921363,3.89280404 7.48820363,4.12710404 8.13277363,3.96110404 C9.59757363,3.61930404 11.1209736,3.56070404 12.5467736,4.49820404 L11.9608736,5.95330404 C11.6190736,6.78340404 11.7948736,7.36930404 12.3319736,7.91620404 L14.6268736,10.230654 C15.1151736,10.718934 15.5252736,10.738464 16.0916736,10.640804 L17.1561736,10.445494 L17.8202736,11.119324 L17.7811736,11.675964 C17.7420736,12.174014 17.8690736,12.554874 18.3573736,13.033384 L19.1190736,13.775574 C19.5975736,14.254084 20.2127736,14.283384 20.6815736,13.814634 L23.5916736,10.894714 C24.0604736,10.425964 24.0409736,9.83026404 23.5623736,9.35174404 L22.7909736,8.59002404 C22.3123736,8.11150404 21.9413736,7.95530404 21.4627736,7.99430404 L20.8866736,8.04310404 L20.2420736,7.40840404 L20.4862736,6.28530404 C20.6131736,5.71890404 20.4569736,5.27950404 19.8709736,4.69350404 L17.6737736,2.50600404 C14.3338736,-0.814295964 9.90027363,-0.736195964 7.00968363,2.15450404 Z M8.50387363,2.52560404 C10.9354736,0.748204036 14.2264736,1.05100404 16.4530736,3.27750404 L18.8846736,5.68960404 C19.1190736,5.92400404 19.1580736,6.10960404 19.0897736,6.45140404 L18.7674736,7.93570404 L20.2713736,9.42010404 L21.2577736,9.36151404 C21.5116736,9.35174404 21.5897736,9.37127404 21.7850736,9.56658404 L22.3612736,10.142764 L19.9198736,12.584164 L19.3436736,12.007994 C19.1483736,11.812684 19.1190736,11.734554 19.1288736,11.470884 L19.1971736,10.494324 L17.7030736,9.00994404 L16.1795736,9.26385404 C15.8573736,9.33221404 15.7108736,9.30291404 15.4666736,9.06854404 L13.4647736,7.06660404 C13.2108736,6.83220404 13.1815736,6.66620404 13.3377736,6.29510404 L14.2166736,4.20530404 C12.6541736,2.75020404 10.6229736,2.12520404 8.59167363,2.72090404 C8.43547363,2.75990404 8.37687363,2.63300404 8.50387363,2.52560404 Z" id="Shape"></path>
                </g>
                <text id="Exporting" fill="#000000" fill-rule="nonzero" font-family="Helvetica" font-size="13" font-weight="normal">
                    <tspan x="1289" y="1953">Exporting</tspan>
                </text>
                <text id="Symbols-should-be-outlined-when-exporting-to-ensure-the" fill="#000000" fill-rule="nonzero" font-family="Helvetica" font-size="13" font-weight="normal">
                    <tspan x="1289" y="1971">Symbols should be outlined when exporting to ensure the</tspan>
                </text>
                <text id="design-is-preserved-when-submitting-to-Xcode." fill="#000000" fill-rule="nonzero" font-family="Helvetica" font-size="13" font-weight="normal">
                    <tspan x="1289" y="1989">design is preserved when submitting to Xcode.</tspan>
                </text>
                <text id="template-version" fill="#000000" fill-rule="nonzero" font-family="Helvetica" font-size="13" font-weight="normal">
                    <tspan x="2952" y="1933">Template v.2.0</tspan>
                </text>
                <text id="Requires-Xcode-12-or-greater" fill="#000000" fill-rule="nonzero" font-family="Helvetica" font-size="13" font-weight="normal">
                    <tspan x="2865" y="1951">Requires Xcode 12 or greater</tspan>
                </text>
                <text id="descriptive-name" fill="#000000" fill-rule="nonzero" font-family="Helvetica" font-size="13" font-weight="normal">
                    <tspan x="2889" y="1969">Generated from unsplash</tspan>
                </text>
                <text id="Typeset-at-100-points" fill="#000000" fill-rule="nonzero" font-family="Helvetica" font-size="13" font-weight="normal">
                    <tspan x="2912" y="1987">Typeset at 100 points</tspan>
                </text>
                <text id="Small" fill="#000000" fill-rule="nonzero" font-family="Helvetica" font-size="13" font-weight="normal">
                    <tspan x="263" y="726">Small</tspan>
                </text>
                <text id="Medium" fill="#000000" fill-rule="nonzero" font-family="Helvetica" font-size="13" font-weight="normal">
                    <tspan x="263" y="1156">Medium</tspan>
                </text>
                <text id="Large" fill="#000000" fill-rule="nonzero" font-family="Helvetica" font-size="13" font-weight="normal">
                    <tspan x="263" y="1586">Large</tspan>
                </text>
            </g>
            <g id="Guides" transform="translate(263.000000, 625.041000)">
                <g id="H-reference" transform="translate(76.976562, 0.500000)" fill="#27AAE1" fill-rule="nonzero">
                    <path d="M-1.22124533e-15,70.459 L2.685548,70.459 L12.011738,45.9961 L44.775438,45.9961 L54.150438,70.459 L56.787138,70.459 L29.638638,0 L27.148438,0 L-1.22124533e-15,70.459 Z M28.369138,3.3203 L28.466838,3.3203 L43.896438,43.75 L12.890638,43.75 L28.369138,3.3203 Z" id="Shape"></path>
                </g>
                <line x1="0" y1="70.959" x2="2773" y2="70.959" id="Baseline-S" stroke="#27AAE1" stroke-width="0.5"></line>
                <line x1="0" y1="0.5" x2="2773" y2="0.5" id="Capline-S" stroke="#27AAE1" stroke-width="0.5"></line>
                <g id="H-reference" transform="translate(76.976562, 430.500000)" fill="#27AAE1" fill-rule="nonzero">
                    <path d="M-1.22124533e-15,70.459 L2.685548,70.459 L12.011738,45.9961 L44.775438,45.9961 L54.150438,70.459 L56.787138,70.459 L29.638638,0 L27.148438,0 L-1.22124533e-15,70.459 Z M28.369138,3.3203 L28.466838,3.3203 L43.896438,43.75 L12.890638,43.75 L28.369138,3.3203 Z" id="Shape"></path>
                </g>
                <line x1="0" y1="500.959" x2="2773" y2="500.959" id="Baseline-M" stroke="#27AAE1" stroke-width="0.5"></line>
                <line x1="0" y1="430.499" x2="2773" y2="430.499" id="Capline-M" stroke="#27AAE1" stroke-width="0.5"></line>
                <g id="H-reference" transform="translate(76.976562, 860.500000)" fill="#27AAE1" fill-rule="nonzero">
                    <path d="M-1.22124533e-15,70.459 L2.685548,70.459 L12.011738,45.9961 L44.775438,45.9961 L54.150438,70.459 L56.787138,70.459 L29.638638,0 L27.148438,0 L-1.22124533e-15,70.459 Z M28.369138,3.3203 L28.466838,3.3203 L43.896438,43.75 L12.890638,43.75 L28.369138,3.3203 Z" id="Shape"></path>
                </g>
                <line x1="0" y1="930.959" x2="2773" y2="930.959" id="Baseline-L" stroke="#27AAE1" stroke-width="0.5"></line>
                <line x1="0" y1="860.499" x2="2773" y2="860.499" id="Capline-L" stroke="#27AAE1" stroke-width="0.5"></line>
                <line x1="1152.80403" y1="405.749" x2="1152.80403" y2="525.079" id="left-margin" stroke="#00AEEF" stroke-width="0.5"></line>
                <line x1="1223.45597" y1="405.749" x2="1223.45597" y2="525.079" id="right-margin" stroke="#00AEEF" stroke-width="0.5"></line>
            </g>
            <g id="Symbols" transform="translate(499.083549, 623.188173)" fill="#000000" fill-rule="nonzero">
                <g id="Black-L" transform="translate(2373.680000, 835.665396)">
                    <path d="M100.8,0 L23.0330003,0 C16.9240003,0 11.0640003,2.42500031 6.74500031,6.74500031 C2.42500031,11.0640003 0,16.9240003 0,23.0330003 L0,100.805 C0,106.913 2.42700031,112.771 6.74600031,117.09 C11.0660003,121.409 16.9250003,123.833001 23.0330003,123.833001 L100.805,123.833001 C106.913,123.833001 112.771,121.406 117.09,117.086 C121.409,112.767 123.833001,106.908 123.833001,100.8 L123.833001,23.0330003 C123.833001,16.9240003 121.408,11.0640003 117.088,6.74500031 C112.768,2.42500031 106.909,0 100.8,0 Z M106.956,33.5020003 L106.956,53.4750003 L102.198,53.4490003 C99.5820003,53.4340003 97.1370003,53.3410003 96.7700003,53.2380003 C96.1100003,53.0520003 96.0940003,52.9800003 95.7800003,48.9090003 C95.3720003,43.6820003 95.0420003,41.3650003 94.2010003,37.8880003 C92.3850003,30.3700003 88.5460003,26.2780003 82.2870003,25.1790003 C79.6610003,24.7200003 68.1960003,24.2710003 58.7690003,24.2660003 L52.2680003,24.2510003 L52.2680003,54.2800003 L55.6840003,54.1100003 C59.5890003,53.9140003 62.6650003,53.4440003 64.1450003,52.8100003 C65.7240003,52.1340003 67.3910003,50.4260003 68.1750003,48.6870003 C68.9900003,46.8710003 69.5270003,44.4820003 69.9550003,40.7310003 C70.1260003,39.2550003 70.3160003,37.7790003 70.3840003,37.4490003 C70.5070003,36.8510003 70.5280003,36.8450003 75.7290003,36.8450003 L80.9510003,36.8450003 L80.9510003,84.8310003 L70.3110003,84.8310003 L70.1310003,82.0650003 C69.8060003,77.0550003 68.8300003,72.3080003 67.6590003,70.0380003 C66.0550003,66.9370003 62.9020003,65.5440003 56.5610003,65.1360003 C55.4120003,65.0680003 54.2670003,64.9670003 53.1240003,64.8320003 L52.2370003,64.6920003 L52.3400003,79.7900003 C52.4480003,95.7130003 52.4950003,96.3320003 53.7070003,97.6680003 C54.9510003,99.0410003 55.6730003,99.1330003 68.2940003,99.5670003 C68.5520003,99.5770003 68.6290003,100.836 68.6290003,104.938 L68.6290003,110.299 L16.8770003,110.299 L16.8770003,104.938 C16.8770003,100.016 16.9140003,99.5770003 17.3470003,99.5670003 C17.6050003,99.5620003 20.1490003,99.4480003 23.0070003,99.3140003 C27.6040003,99.0970003 28.3370003,98.9990003 29.4260003,98.4520003 C30.1960003,98.1090003 30.8240003,97.5120003 31.2060003,96.7600003 C31.7530003,95.6970003 31.7580003,95.4490003 31.7580003,61.7770003 C31.7580003,30.1330003 31.7270003,27.8060003 31.2940003,27.0160003 C30.6710003,25.9240003 29.6470003,25.1170003 28.4400003,24.7670003 C27.9040003,24.6010003 25.0860003,24.4050003 22.1710003,24.3230003 L16.8770003,24.1840003 L16.8770003,13.5290003 L106.956,13.5290003 L106.956,33.5020003 Z" id="Shape"></path>
                </g>
                <g id="Heavy-L" transform="translate(2076.970000, 835.665396)">
                    <path d="M100.8,0 L23.0330003,0 C16.9240003,0 11.0640003,2.42500031 6.74500031,6.74500031 C2.42500031,11.0640003 0,16.9240003 0,23.0330003 L0,100.805 C0,106.913 2.42700031,112.771 6.74600031,117.09 C11.0660003,121.409 16.9250003,123.833001 23.0330003,123.833001 L100.805,123.833001 C106.913,123.833001 112.771,121.406 117.09,117.086 C121.409,112.767 123.833001,106.908 123.833001,100.8 L123.833001,23.0330003 C123.833001,16.9240003 121.408,11.0640003 117.088,6.74500031 C112.768,2.42500031 106.909,0 100.8,0 Z M106.956,33.5020003 L106.956,53.4750003 L102.198,53.4490003 C99.5820003,53.4340003 97.1370003,53.3410003 96.7700003,53.2380003 C96.1100003,53.0520003 96.0940003,52.9800003 95.7800003,48.9090003 C95.3720003,43.6820003 95.0420003,41.3650003 94.2010003,37.8880003 C92.3850003,30.3700003 88.5460003,26.2780003 82.2870003,25.1790003 C79.6610003,24.7200003 68.1960003,24.2710003 58.7690003,24.2660003 L52.2680003,24.2510003 L52.2680003,54.2800003 L55.6840003,54.1100003 C59.5890003,53.9140003 62.6650003,53.4440003 64.1450003,52.8100003 C65.7240003,52.1340003 67.3910003,50.4260003 68.1750003,48.6870003 C68.9900003,46.8710003 69.5270003,44.4820003 69.9550003,40.7310003 C70.1260003,39.2550003 70.3160003,37.7790003 70.3840003,37.4490003 C70.5070003,36.8510003 70.5280003,36.8450003 75.7290003,36.8450003 L80.9510003,36.8450003 L80.9510003,84.8310003 L70.3110003,84.8310003 L70.1310003,82.0650003 C69.8060003,77.0550003 68.8300003,72.3080003 67.6590003,70.0380003 C66.0550003,66.9370003 62.9020003,65.5440003 56.5610003,65.1360003 C55.4120003,65.0680003 54.2670003,64.9670003 53.1240003,64.8320003 L52.2370003,64.6920003 L52.3400003,79.7900003 C52.4480003,95.7130003 52.4950003,96.3320003 53.7070003,97.6680003 C54.9510003,99.0410003 55.6730003,99.1330003 68.2940003,99.5670003 C68.5520003,99.5770003 68.6290003,100.836 68.6290003,104.938 L68.6290003,110.299 L16.8770003,110.299 L16.8770003,104.938 C16.8770003,100.016 16.9140003,99.5770003 17.3470003,99.5670003 C17.6050003,99.5620003 20.1490003,99.4480003 23.0070003,99.3140003 C27.6040003,99.0970003 28.3370003,98.9990003 29.4260003,98.4520003 C30.1960003,98.1090003 30.8240003,97.5120003 31.2060003,96.7600003 C31.7530003,95.6970003 31.7580003,95.4490003 31.7580003,61.7770003 C31.7580003,30.1330003 31.7270003,27.8060003 31.2940003,27.0160003 C30.6710003,25.9240003 29.6470003,25.1170003 28.4400003,24.7670003 C27.9040003,24.6010003 25.0860003,24.4050003 22.1710003,24.3230003 L16.8770003,24.1840003 L16.8770003,13.5290003 L106.956,13.5290003 L106.956,33.5020003 Z" id="Shape"></path>
                </g>
                <g id="Bold-L" transform="translate(1780.260000, 835.665396)">
                    <path d="M100.8,0 L23.0330003,0 C16.9240003,0 11.0640003,2.42500031 6.74500031,6.74500031 C2.42500031,11.0640003 0,16.9240003 0,23.0330003 L0,100.805 C0,106.913 2.42700031,112.771 6.74600031,117.09 C11.0660003,121.409 16.9250003,123.833001 23.0330003,123.833001 L100.805,123.833001 C106.913,123.833001 112.771,121.406 117.09,117.086 C121.409,112.767 123.833001,106.908 123.833001,100.8 L123.833001,23.0330003 C123.833001,16.9240003 121.408,11.0640003 117.088,6.74500031 C112.768,2.42500031 106.909,0 100.8,0 Z M106.956,33.5020003 L106.956,53.4750003 L102.198,53.4490003 C99.5820003,53.4340003 97.1370003,53.3410003 96.7700003,53.2380003 C96.1100003,53.0520003 96.0940003,52.9800003 95.7800003,48.9090003 C95.3720003,43.6820003 95.0420003,41.3650003 94.2010003,37.8880003 C92.3850003,30.3700003 88.5460003,26.2780003 82.2870003,25.1790003 C79.6610003,24.7200003 68.1960003,24.2710003 58.7690003,24.2660003 L52.2680003,24.2510003 L52.2680003,54.2800003 L55.6840003,54.1100003 C59.5890003,53.9140003 62.6650003,53.4440003 64.1450003,52.8100003 C65.7240003,52.1340003 67.3910003,50.4260003 68.1750003,48.6870003 C68.9900003,46.8710003 69.5270003,44.4820003 69.9550003,40.7310003 C70.1260003,39.2550003 70.3160003,37.7790003 70.3840003,37.4490003 C70.5070003,36.8510003 70.5280003,36.8450003 75.7290003,36.8450003 L80.9510003,36.8450003 L80.9510003,84.8310003 L70.3110003,84.8310003 L70.1310003,82.0650003 C69.8060003,77.0550003 68.8300003,72.3080003 67.6590003,70.0380003 C66.0550003,66.9370003 62.9020003,65.5440003 56.5610003,65.1360003 C55.4120003,65.0680003 54.2670003,64.9670003 53.1240003,64.8320003 L52.2370003,64.6920003 L52.3400003,79.7900003 C52.4480003,95.7130003 52.4950003,96.3320003 53.7070003,97.6680003 C54.9510003,99.0410003 55.6730003,99.1330003 68.2940003,99.5670003 C68.5520003,99.5770003 68.6290003,100.836 68.6290003,104.938 L68.6290003,110.299 L16.8770003,110.299 L16.8770003,104.938 C16.8770003,100.016 16.9140003,99.5770003 17.3470003,99.5670003 C17.6050003,99.5620003 20.1490003,99.4480003 23.0070003,99.3140003 C27.6040003,99.0970003 28.3370003,98.9990003 29.4260003,98.4520003 C30.1960003,98.1090003 30.8240003,97.5120003 31.2060003,96.7600003 C31.7530003,95.6970003 31.7580003,95.4490003 31.7580003,61.7770003 C31.7580003,30.1330003 31.7270003,27.8060003 31.2940003,27.0160003 C30.6710003,25.9240003 29.6470003,25.1170003 28.4400003,24.7670003 C27.9040003,24.6010003 25.0860003,24.4050003 22.1710003,24.3230003 L16.8770003,24.1840003 L16.8770003,13.5290003 L106.956,13.5290003 L106.956,33.5020003 Z" id="Shape"></path>
                </g>
                <g id="Semibold-L" transform="translate(1483.550000, 835.665396)">
                    <path d="M100.8,0 L23.0330003,0 C16.9240003,0 11.0640003,2.42500031 6.74500031,6.74500031 C2.42500031,11.0640003 0,16.9240003 0,23.0330003 L0,100.805 C0,106.913 2.42700031,112.771 6.74600031,117.09 C11.0660003,121.409 16.9250003,123.833001 23.0330003,123.833001 L100.805,123.833001 C106.913,123.833001 112.771,121.406 117.09,117.086 C121.409,112.767 123.833001,106.908 123.833001,100.8 L123.833001,23.0330003 C123.833001,16.9240003 121.408,11.0640003 117.088,6.74500031 C112.768,2.42500031 106.909,0 100.8,0 Z M106.956,33.5020003 L106.956,53.4750003 L102.198,53.4490003 C99.5820003,53.4340003 97.1370003,53.3410003 96.7700003,53.2380003 C96.1100003,53.0520003 96.0940003,52.9800003 95.7800003,48.9090003 C95.3720003,43.6820003 95.0420003,41.3650003 94.2010003,37.8880003 C92.3850003,30.3700003 88.5460003,26.2780003 82.2870003,25.1790003 C79.6610003,24.7200003 68.1960003,24.2710003 58.7690003,24.2660003 L52.2680003,24.2510003 L52.2680003,54.2800003 L55.6840003,54.1100003 C59.5890003,53.9140003 62.6650003,53.4440003 64.1450003,52.8100003 C65.7240003,52.1340003 67.3910003,50.4260003 68.1750003,48.6870003 C68.9900003,46.8710003 69.5270003,44.4820003 69.9550003,40.7310003 C70.1260003,39.2550003 70.3160003,37.7790003 70.3840003,37.4490003 C70.5070003,36.8510003 70.5280003,36.8450003 75.7290003,36.8450003 L80.9510003,36.8450003 L80.9510003,84.8310003 L70.3110003,84.8310003 L70.1310003,82.0650003 C69.8060003,77.0550003 68.8300003,72.3080003 67.6590003,70.0380003 C66.0550003,66.9370003 62.9020003,65.5440003 56.5610003,65.1360003 C55.4120003,65.0680003 54.2670003,64.9670003 53.1240003,64.8320003 L52.2370003,64.6920003 L52.3400003,79.7900003 C52.4480003,95.7130003 52.4950003,96.3320003 53.7070003,97.6680003 C54.9510003,99.0410003 55.6730003,99.1330003 68.2940003,99.5670003 C68.5520003,99.5770003 68.6290003,100.836 68.6290003,104.938 L68.6290003,110.299 L16.8770003,110.299 L16.8770003,104.938 C16.8770003,100.016 16.9140003,99.5770003 17.3470003,99.5670003 C17.6050003,99.5620003 20.1490003,99.4480003 23.0070003,99.3140003 C27.6040003,99.0970003 28.3370003,98.9990003 29.4260003,98.4520003 C30.1960003,98.1090003 30.8240003,97.5120003 31.2060003,96.7600003 C31.7530003,95.6970003 31.7580003,95.4490003 31.7580003,61.7770003 C31.7580003,30.1330003 31.7270003,27.8060003 31.2940003,27.0160003 C30.6710003,25.9240003 29.6470003,25.1170003 28.4400003,24.7670003 C27.9040003,24.6010003 25.0860003,24.4050003 22.1710003,24.3230003 L16.8770003,24.1840003 L16.8770003,13.5290003 L106.956,13.5290003 L106.956,33.5020003 Z" id="Shape"></path>
                </g>
                <g id="Medium-L" transform="translate(1186.840000, 835.665396)">
                    <path d="M100.8,0 L23.0330003,0 C16.9240003,0 11.0640003,2.42500031 6.74500031,6.74500031 C2.42500031,11.0640003 0,16.9240003 0,23.0330003 L0,100.805 C0,106.913 2.42700031,112.771 6.74600031,117.09 C11.0660003,121.409 16.9250003,123.833001 23.0330003,123.833001 L100.805,123.833001 C106.913,123.833001 112.771,121.406 117.09,117.086 C121.409,112.767 123.833001,106.908 123.833001,100.8 L123.833001,23.0330003 C123.833001,16.9240003 121.408,11.0640003 117.088,6.74500031 C112.768,2.42500031 106.909,0 100.8,0 Z M106.956,33.5020003 L106.956,53.4750003 L102.198,53.4490003 C99.5820003,53.4340003 97.1370003,53.3410003 96.7700003,53.2380003 C96.1100003,53.0520003 96.0940003,52.9800003 95.7800003,48.9090003 C95.3720003,43.6820003 95.0420003,41.3650003 94.2010003,37.8880003 C92.3850003,30.3700003 88.5460003,26.2780003 82.2870003,25.1790003 C79.6610003,24.7200003 68.1960003,24.2710003 58.7690003,24.2660003 L52.2680003,24.2510003 L52.2680003,54.2800003 L55.6840003,54.1100003 C59.5890003,53.9140003 62.6650003,53.4440003 64.1450003,52.8100003 C65.7240003,52.1340003 67.3910003,50.4260003 68.1750003,48.6870003 C68.9900003,46.8710003 69.5270003,44.4820003 69.9550003,40.7310003 C70.1260003,39.2550003 70.3160003,37.7790003 70.3840003,37.4490003 C70.5070003,36.8510003 70.5280003,36.8450003 75.7290003,36.8450003 L80.9510003,36.8450003 L80.9510003,84.8310003 L70.3110003,84.8310003 L70.1310003,82.0650003 C69.8060003,77.0550003 68.8300003,72.3080003 67.6590003,70.0380003 C66.0550003,66.9370003 62.9020003,65.5440003 56.5610003,65.1360003 C55.4120003,65.0680003 54.2670003,64.9670003 53.1240003,64.8320003 L52.2370003,64.6920003 L52.3400003,79.7900003 C52.4480003,95.7130003 52.4950003,96.3320003 53.7070003,97.6680003 C54.9510003,99.0410003 55.6730003,99.1330003 68.2940003,99.5670003 C68.5520003,99.5770003 68.6290003,100.836 68.6290003,104.938 L68.6290003,110.299 L16.8770003,110.299 L16.8770003,104.938 C16.8770003,100.016 16.9140003,99.5770003 17.3470003,99.5670003 C17.6050003,99.5620003 20.1490003,99.4480003 23.0070003,99.3140003 C27.6040003,99.0970003 28.3370003,98.9990003 29.4260003,98.4520003 C30.1960003,98.1090003 30.8240003,97.5120003 31.2060003,96.7600003 C31.7530003,95.6970003 31.7580003,95.4490003 31.7580003,61.7770003 C31.7580003,30.1330003 31.7270003,27.8060003 31.2940003,27.0160003 C30.6710003,25.9240003 29.6470003,25.1170003 28.4400003,24.7670003 C27.9040003,24.6010003 25.0860003,24.4050003 22.1710003,24.3230003 L16.8770003,24.1840003 L16.8770003,13.5290003 L106.956,13.5290003 L106.956,33.5020003 Z" id="Shape"></path>
                </g>
                <g id="Regular-L" transform="translate(890.130000, 835.665396)">
                    <path d="M100.8,0 L23.0330003,0 C16.9240003,0 11.0640003,2.42500031 6.74500031,6.74500031 C2.42500031,11.0640003 0,16.9240003 0,23.0330003 L0,100.805 C0,106.913 2.42700031,112.771 6.74600031,117.09 C11.0660003,121.409 16.9250003,123.833001 23.0330003,123.833001 L100.805,123.833001 C106.913,123.833001 112.771,121.406 117.09,117.086 C121.409,112.767 123.833001,106.908 123.833001,100.8 L123.833001,23.0330003 C123.833001,16.9240003 121.408,11.0640003 117.088,6.74500031 C112.768,2.42500031 106.909,0 100.8,0 Z M106.956,33.5020003 L106.956,53.4750003 L102.198,53.4490003 C99.5820003,53.4340003 97.1370003,53.3410003 96.7700003,53.2380003 C96.1100003,53.0520003 96.0940003,52.9800003 95.7800003,48.9090003 C95.3720003,43.6820003 95.0420003,41.3650003 94.2010003,37.8880003 C92.3850003,30.3700003 88.5460003,26.2780003 82.2870003,25.1790003 C79.6610003,24.7200003 68.1960003,24.2710003 58.7690003,24.2660003 L52.2680003,24.2510003 L52.2680003,54.2800003 L55.6840003,54.1100003 C59.5890003,53.9140003 62.6650003,53.4440003 64.1450003,52.8100003 C65.7240003,52.1340003 67.3910003,50.4260003 68.1750003,48.6870003 C68.9900003,46.8710003 69.5270003,44.4820003 69.9550003,40.7310003 C70.1260003,39.2550003 70.3160003,37.7790003 70.3840003,37.4490003 C70.5070003,36.8510003 70.5280003,36.8450003 75.7290003,36.8450003 L80.9510003,36.8450003 L80.9510003,84.8310003 L70.3110003,84.8310003 L70.1310003,82.0650003 C69.8060003,77.0550003 68.8300003,72.3080003 67.6590003,70.0380003 C66.0550003,66.9370003 62.9020003,65.5440003 56.5610003,65.1360003 C55.4120003,65.0680003 54.2670003,64.9670003 53.1240003,64.8320003 L52.2370003,64.6920003 L52.3400003,79.7900003 C52.4480003,95.7130003 52.4950003,96.3320003 53.7070003,97.6680003 C54.9510003,99.0410003 55.6730003,99.1330003 68.2940003,99.5670003 C68.5520003,99.5770003 68.6290003,100.836 68.6290003,104.938 L68.6290003,110.299 L16.8770003,110.299 L16.8770003,104.938 C16.8770003,100.016 16.9140003,99.5770003 17.3470003,99.5670003 C17.6050003,99.5620003 20.1490003,99.4480003 23.0070003,99.3140003 C27.6040003,99.0970003 28.3370003,98.9990003 29.4260003,98.4520003 C30.1960003,98.1090003 30.8240003,97.5120003 31.2060003,96.7600003 C31.7530003,95.6970003 31.7580003,95.4490003 31.7580003,61.7770003 C31.7580003,30.1330003 31.7270003,27.8060003 31.2940003,27.0160003 C30.6710003,25.9240003 29.6470003,25.1170003 28.4400003,24.7670003 C27.9040003,24.6010003 25.0860003,24.4050003 22.1710003,24.3230003 L16.8770003,24.1840003 L16.8770003,13.5290003 L106.956,13.5290003 L106.956,33.5020003 Z" id="Shape"></path>
                </g>
                <g id="Light-L" transform="translate(593.420000, 835.665396)">
                    <path d="M100.8,0 L23.0330003,0 C16.9240003,0 11.0640003,2.42500031 6.74500031,6.74500031 C2.42500031,11.0640003 0,16.9240003 0,23.0330003 L0,100.805 C0,106.913 2.42700031,112.771 6.74600031,117.09 C11.0660003,121.409 16.9250003,123.833001 23.0330003,123.833001 L100.805,123.833001 C106.913,123.833001 112.771,121.406 117.09,117.086 C121.409,112.767 123.833001,106.908 123.833001,100.8 L123.833001,23.0330003 C123.833001,16.9240003 121.408,11.0640003 117.088,6.74500031 C112.768,2.42500031 106.909,0 100.8,0 Z M106.956,33.5020003 L106.956,53.4750003 L102.198,53.4490003 C99.5820003,53.4340003 97.1370003,53.3410003 96.7700003,53.2380003 C96.1100003,53.0520003 96.0940003,52.9800003 95.7800003,48.9090003 C95.3720003,43.6820003 95.0420003,41.3650003 94.2010003,37.8880003 C92.3850003,30.3700003 88.5460003,26.2780003 82.2870003,25.1790003 C79.6610003,24.7200003 68.1960003,24.2710003 58.7690003,24.2660003 L52.2680003,24.2510003 L52.2680003,54.2800003 L55.6840003,54.1100003 C59.5890003,53.9140003 62.6650003,53.4440003 64.1450003,52.8100003 C65.7240003,52.1340003 67.3910003,50.4260003 68.1750003,48.6870003 C68.9900003,46.8710003 69.5270003,44.4820003 69.9550003,40.7310003 C70.1260003,39.2550003 70.3160003,37.7790003 70.3840003,37.4490003 C70.5070003,36.8510003 70.5280003,36.8450003 75.7290003,36.8450003 L80.9510003,36.8450003 L80.9510003,84.8310003 L70.3110003,84.8310003 L70.1310003,82.0650003 C69.8060003,77.0550003 68.8300003,72.3080003 67.6590003,70.0380003 C66.0550003,66.9370003 62.9020003,65.5440003 56.5610003,65.1360003 C55.4120003,65.0680003 54.2670003,64.9670003 53.1240003,64.8320003 L52.2370003,64.6920003 L52.3400003,79.7900003 C52.4480003,95.7130003 52.4950003,96.3320003 53.7070003,97.6680003 C54.9510003,99.0410003 55.6730003,99.1330003 68.2940003,99.5670003 C68.5520003,99.5770003 68.6290003,100.836 68.6290003,104.938 L68.6290003,110.299 L16.8770003,110.299 L16.8770003,104.938 C16.8770003,100.016 16.9140003,99.5770003 17.3470003,99.5670003 C17.6050003,99.5620003 20.1490003,99.4480003 23.0070003,99.3140003 C27.6040003,99.0970003 28.3370003,98.9990003 29.4260003,98.4520003 C30.1960003,98.1090003 30.8240003,97.5120003 31.2060003,96.7600003 C31.7530003,95.6970003 31.7580003,95.4490003 31.7580003,61.7770003 C31.7580003,30.1330003 31.7270003,27.8060003 31.2940003,27.0160003 C30.6710003,25.9240003 29.6470003,25.1170003 28.4400003,24.7670003 C27.9040003,24.6010003 25.0860003,24.4050003 22.1710003,24.3230003 L16.8770003,24.1840003 L16.8770003,13.5290003 L106.956,13.5290003 L106.956,33.5020003 Z" id="Shape"></path>
                </g>
                <g id="Thin-L" transform="translate(296.710000, 835.665396)">
                    <path d="M100.8,0 L23.0330003,0 C16.9240003,0 11.0640003,2.42500031 6.74500031,6.74500031 C2.42500031,11.0640003 0,16.9240003 0,23.0330003 L0,100.805 C0,106.913 2.42700031,112.771 6.74600031,117.09 C11.0660003,121.409 16.9250003,123.833001 23.0330003,123.833001 L100.805,123.833001 C106.913,123.833001 112.771,121.406 117.09,117.086 C121.409,112.767 123.833001,106.908 123.833001,100.8 L123.833001,23.0330003 C123.833001,16.9240003 121.408,11.0640003 117.088,6.74500031 C112.768,2.42500031 106.909,0 100.8,0 Z M106.956,33.5020003 L106.956,53.4750003 L102.198,53.4490003 C99.5820003,53.4340003 97.1370003,53.3410003 96.7700003,53.2380003 C96.1100003,53.0520003 96.0940003,52.9800003 95.7800003,48.9090003 C95.3720003,43.6820003 95.0420003,41.3650003 94.2010003,37.8880003 C92.3850003,30.3700003 88.5460003,26.2780003 82.2870003,25.1790003 C79.6610003,24.7200003 68.1960003,24.2710003 58.7690003,24.2660003 L52.2680003,24.2510003 L52.2680003,54.2800003 L55.6840003,54.1100003 C59.5890003,53.9140003 62.6650003,53.4440003 64.1450003,52.8100003 C65.7240003,52.1340003 67.3910003,50.4260003 68.1750003,48.6870003 C68.9900003,46.8710003 69.5270003,44.4820003 69.9550003,40.7310003 C70.1260003,39.2550003 70.3160003,37.7790003 70.3840003,37.4490003 C70.5070003,36.8510003 70.5280003,36.8450003 75.7290003,36.8450003 L80.9510003,36.8450003 L80.9510003,84.8310003 L70.3110003,84.8310003 L70.1310003,82.0650003 C69.8060003,77.0550003 68.8300003,72.3080003 67.6590003,70.0380003 C66.0550003,66.9370003 62.9020003,65.5440003 56.5610003,65.1360003 C55.4120003,65.0680003 54.2670003,64.9670003 53.1240003,64.8320003 L52.2370003,64.6920003 L52.3400003,79.7900003 C52.4480003,95.7130003 52.4950003,96.3320003 53.7070003,97.6680003 C54.9510003,99.0410003 55.6730003,99.1330003 68.2940003,99.5670003 C68.5520003,99.5770003 68.6290003,100.836 68.6290003,104.938 L68.6290003,110.299 L16.8770003,110.299 L16.8770003,104.938 C16.8770003,100.016 16.9140003,99.5770003 17.3470003,99.5670003 C17.6050003,99.5620003 20.1490003,99.4480003 23.0070003,99.3140003 C27.6040003,99.0970003 28.3370003,98.9990003 29.4260003,98.4520003 C30.1960003,98.1090003 30.8240003,97.5120003 31.2060003,96.7600003 C31.7530003,95.6970003 31.7580003,95.4490003 31.7580003,61.7770003 C31.7580003,30.1330003 31.7270003,27.8060003 31.2940003,27.0160003 C30.6710003,25.9240003 29.6470003,25.1170003 28.4400003,24.7670003 C27.9040003,24.6010003 25.0860003,24.4050003 22.1710003,24.3230003 L16.8770003,24.1840003 L16.8770003,13.5290003 L106.956,13.5290003 L106.956,33.5020003 Z" id="Shape"></path>
                </g>
                <g id="Ultralight-L" transform="translate(0.000000, 835.665396)">
                    <path d="M100.8,0 L23.0330003,0 C16.9240003,0 11.0640003,2.42500031 6.74500031,6.74500031 C2.42500031,11.0640003 0,16.9240003 0,23.0330003 L0,100.805 C0,106.913 2.42700031,112.771 6.74600031,117.09 C11.0660003,121.409 16.9250003,123.833001 23.0330003,123.833001 L100.805,123.833001 C106.913,123.833001 112.771,121.406 117.09,117.086 C121.409,112.767 123.833001,106.908 123.833001,100.8 L123.833001,23.0330003 C123.833001,16.9240003 121.408,11.0640003 117.088,6.74500031 C112.768,2.42500031 106.909,0 100.8,0 Z M106.956,33.5020003 L106.956,53.4750003 L102.198,53.4490003 C99.5820003,53.4340003 97.1370003,53.3410003 96.7700003,53.2380003 C96.1100003,53.0520003 96.0940003,52.9800003 95.7800003,48.9090003 C95.3720003,43.6820003 95.0420003,41.3650003 94.2010003,37.8880003 C92.3850003,30.3700003 88.5460003,26.2780003 82.2870003,25.1790003 C79.6610003,24.7200003 68.1960003,24.2710003 58.7690003,24.2660003 L52.2680003,24.2510003 L52.2680003,54.2800003 L55.6840003,54.1100003 C59.5890003,53.9140003 62.6650003,53.4440003 64.1450003,52.8100003 C65.7240003,52.1340003 67.3910003,50.4260003 68.1750003,48.6870003 C68.9900003,46.8710003 69.5270003,44.4820003 69.9550003,40.7310003 C70.1260003,39.2550003 70.3160003,37.7790003 70.3840003,37.4490003 C70.5070003,36.8510003 70.5280003,36.8450003 75.7290003,36.8450003 L80.9510003,36.8450003 L80.9510003,84.8310003 L70.3110003,84.8310003 L70.1310003,82.0650003 C69.8060003,77.0550003 68.8300003,72.3080003 67.6590003,70.0380003 C66.0550003,66.9370003 62.9020003,65.5440003 56.5610003,65.1360003 C55.4120003,65.0680003 54.2670003,64.9670003 53.1240003,64.8320003 L52.2370003,64.6920003 L52.3400003,79.7900003 C52.4480003,95.7130003 52.4950003,96.3320003 53.7070003,97.6680003 C54.9510003,99.0410003 55.6730003,99.1330003 68.2940003,99.5670003 C68.5520003,99.5770003 68.6290003,100.836 68.6290003,104.938 L68.6290003,110.299 L16.8770003,110.299 L16.8770003,104.938 C16.8770003,100.016 16.9140003,99.5770003 17.3470003,99.5670003 C17.6050003,99.5620003 20.1490003,99.4480003 23.0070003,99.3140003 C27.6040003,99.0970003 28.3370003,98.9990003 29.4260003,98.4520003 C30.1960003,98.1090003 30.8240003,97.5120003 31.2060003,96.7600003 C31.7530003,95.6970003 31.7580003,95.4490003 31.7580003,61.7770003 C31.7580003,30.1330003 31.7270003,27.8060003 31.2940003,27.0160003 C30.6710003,25.9240003 29.6470003,25.1170003 28.4400003,24.7670003 C27.9040003,24.6010003 25.0860003,24.4050003 22.1710003,24.3230003 L16.8770003,24.1840003 L16.8770003,13.5290003 L106.956,13.5290003 L106.956,33.5020003 Z" id="Shape"></path>
                </g>
                <g id="Black-M" transform="translate(2387.599202, 419.584597)">
                    <path d="M78.1400008,3.98202509e-07 L17.8550008,3.98202509e-07 C13.1190008,-0.000999203277 8.5770008,1.8800008 5.2280008,5.2280008 C1.8800008,8.5770008 -0.000999203277,13.1190008 3.98202509e-07,17.8550008 L3.98202509e-07,78.1440008 C3.98202509e-07,82.8790008 1.8810008,87.4200008 5.2300008,90.7670008 C8.5780008,94.1150008 13.1200008,95.9960008 17.8550008,95.9940024 L78.1440008,95.9940024 C82.8790008,95.9940024 87.4200008,94.1130008 90.7670008,90.7650008 C94.1150008,87.4160008 95.9960008,82.8750008 95.9940024,78.1400008 L95.9940024,17.8550008 C95.9960008,13.1190008 94.1150008,8.5770008 90.7660008,5.2280008 C87.4170008,1.8800008 82.8750008,-0.000999203277 78.1400008,3.98202509e-07 Z M82.9110008,25.9710008 L82.9110008,41.4540008 L79.2230008,41.4340008 C77.1960008,41.4220008 75.3000008,41.3500008 75.0160008,41.2700008 C74.5040008,41.1260008 74.4920008,41.0700008 74.2480008,37.9140008 C73.9320008,33.8620008 73.6760008,32.0660008 73.0240008,29.3700008 C71.6160008,23.5430008 68.6400008,20.3710008 63.7880008,19.5190008 C61.7520008,19.1630008 52.8650008,18.8150008 45.5570008,18.8110008 L40.5180008,18.7990008 L40.5180008,42.0780008 L43.1660008,41.9460008 C46.1930008,41.7940008 48.5770008,41.4300008 49.7250008,40.9380008 C50.9490008,40.4140008 52.2410008,39.0900008 52.8490008,37.7420008 C53.4810008,36.3340008 53.8970008,34.4820008 54.2290008,31.5740008 C54.3610008,30.4300008 54.5090008,29.2860008 54.5610008,29.0300008 C54.6570008,28.5660008 54.6730008,28.5620008 58.7050008,28.5620008 L62.7520008,28.5620008 L62.7520008,65.7600008 L54.5050008,65.7600008 L54.3650008,63.6160008 C54.1130008,59.7330008 53.3570008,56.0530008 52.4490008,54.2930008 C51.2050008,51.8890008 48.7610008,50.8090008 43.8450008,50.4930008 C42.9550008,50.4400008 42.0670008,50.3620008 41.1820008,50.2570008 L40.4940008,50.1490008 L40.5740008,61.8520008 C40.6580008,74.1960008 40.6940008,74.6760008 41.6340008,75.7120008 C42.5980008,76.7760008 43.1580008,76.8480008 52.9410008,77.1840008 C53.1410008,77.1920008 53.2010008,78.1680008 53.2010008,81.3470008 L53.2010008,85.5030008 L13.0830008,85.5030008 L13.0830008,81.3470008 C13.0830008,77.5320008 13.1110008,77.1920008 13.4470008,77.1840008 C13.6470008,77.1800008 15.6190008,77.0920008 17.8350008,76.9880008 C21.3990008,76.8200008 21.9670008,76.7440008 22.8110008,76.3200008 C23.4080008,76.0540008 23.8950008,75.5900008 24.1910008,75.0080008 C24.6150008,74.1840008 24.6190008,73.9920008 24.6190008,47.8890008 C24.6190008,23.3590008 24.5950008,21.5550008 24.2590008,20.9430008 C23.7760008,20.0960008 22.9830008,19.4710008 22.0470008,19.1990008 C21.6310008,19.0710008 19.4470008,18.9190008 17.1870008,18.8550008 L13.0830008,18.7470008 L13.0830008,10.4870008 L82.9110008,10.4870008 L82.9110008,25.9710008 Z" id="Shape"></path>
                </g>
                <g id="Heavy-M" transform="translate(2090.889202, 419.584597)">
                    <path d="M78.1400008,3.98202509e-07 L17.8550008,3.98202509e-07 C13.1190008,-0.000999203277 8.5770008,1.8800008 5.2280008,5.2280008 C1.8800008,8.5770008 -0.000999203277,13.1190008 3.98202509e-07,17.8550008 L3.98202509e-07,78.1440008 C3.98202509e-07,82.8790008 1.8810008,87.4200008 5.2300008,90.7670008 C8.5780008,94.1150008 13.1200008,95.9960008 17.8550008,95.9940024 L78.1440008,95.9940024 C82.8790008,95.9940024 87.4200008,94.1130008 90.7670008,90.7650008 C94.1150008,87.4160008 95.9960008,82.8750008 95.9940024,78.1400008 L95.9940024,17.8550008 C95.9960008,13.1190008 94.1150008,8.5770008 90.7660008,5.2280008 C87.4170008,1.8800008 82.8750008,-0.000999203277 78.1400008,3.98202509e-07 Z M82.9110008,25.9710008 L82.9110008,41.4540008 L79.2230008,41.4340008 C77.1960008,41.4220008 75.3000008,41.3500008 75.0160008,41.2700008 C74.5040008,41.1260008 74.4920008,41.0700008 74.2480008,37.9140008 C73.9320008,33.8620008 73.6760008,32.0660008 73.0240008,29.3700008 C71.6160008,23.5430008 68.6400008,20.3710008 63.7880008,19.5190008 C61.7520008,19.1630008 52.8650008,18.8150008 45.5570008,18.8110008 L40.5180008,18.7990008 L40.5180008,42.0780008 L43.1660008,41.9460008 C46.1930008,41.7940008 48.5770008,41.4300008 49.7250008,40.9380008 C50.9490008,40.4140008 52.2410008,39.0900008 52.8490008,37.7420008 C53.4810008,36.3340008 53.8970008,34.4820008 54.2290008,31.5740008 C54.3610008,30.4300008 54.5090008,29.2860008 54.5610008,29.0300008 C54.6570008,28.5660008 54.6730008,28.5620008 58.7050008,28.5620008 L62.7520008,28.5620008 L62.7520008,65.7600008 L54.5050008,65.7600008 L54.3650008,63.6160008 C54.1130008,59.7330008 53.3570008,56.0530008 52.4490008,54.2930008 C51.2050008,51.8890008 48.7610008,50.8090008 43.8450008,50.4930008 C42.9550008,50.4400008 42.0670008,50.3620008 41.1820008,50.2570008 L40.4940008,50.1490008 L40.5740008,61.8520008 C40.6580008,74.1960008 40.6940008,74.6760008 41.6340008,75.7120008 C42.5980008,76.7760008 43.1580008,76.8480008 52.9410008,77.1840008 C53.1410008,77.1920008 53.2010008,78.1680008 53.2010008,81.3470008 L53.2010008,85.5030008 L13.0830008,85.5030008 L13.0830008,81.3470008 C13.0830008,77.5320008 13.1110008,77.1920008 13.4470008,77.1840008 C13.6470008,77.1800008 15.6190008,77.0920008 17.8350008,76.9880008 C21.3990008,76.8200008 21.9670008,76.7440008 22.8110008,76.3200008 C23.4080008,76.0540008 23.8950008,75.5900008 24.1910008,75.0080008 C24.6150008,74.1840008 24.6190008,73.9920008 24.6190008,47.8890008 C24.6190008,23.3590008 24.5950008,21.5550008 24.2590008,20.9430008 C23.7760008,20.0960008 22.9830008,19.4710008 22.0470008,19.1990008 C21.6310008,19.0710008 19.4470008,18.9190008 17.1870008,18.8550008 L13.0830008,18.7470008 L13.0830008,10.4870008 L82.9110008,10.4870008 L82.9110008,25.9710008 Z" id="Shape"></path>
                </g>
                <g id="Bold-M" transform="translate(1794.179202, 419.584597)">
                    <path d="M78.1400008,3.98202509e-07 L17.8550008,3.98202509e-07 C13.1190008,-0.000999203277 8.5770008,1.8800008 5.2280008,5.2280008 C1.8800008,8.5770008 -0.000999203277,13.1190008 3.98202509e-07,17.8550008 L3.98202509e-07,78.1440008 C3.98202509e-07,82.8790008 1.8810008,87.4200008 5.2300008,90.7670008 C8.5780008,94.1150008 13.1200008,95.9960008 17.8550008,95.9940024 L78.1440008,95.9940024 C82.8790008,95.9940024 87.4200008,94.1130008 90.7670008,90.7650008 C94.1150008,87.4160008 95.9960008,82.8750008 95.9940024,78.1400008 L95.9940024,17.8550008 C95.9960008,13.1190008 94.1150008,8.5770008 90.7660008,5.2280008 C87.4170008,1.8800008 82.8750008,-0.000999203277 78.1400008,3.98202509e-07 Z M82.9110008,25.9710008 L82.9110008,41.4540008 L79.2230008,41.4340008 C77.1960008,41.4220008 75.3000008,41.3500008 75.0160008,41.2700008 C74.5040008,41.1260008 74.4920008,41.0700008 74.2480008,37.9140008 C73.9320008,33.8620008 73.6760008,32.0660008 73.0240008,29.3700008 C71.6160008,23.5430008 68.6400008,20.3710008 63.7880008,19.5190008 C61.7520008,19.1630008 52.8650008,18.8150008 45.5570008,18.8110008 L40.5180008,18.7990008 L40.5180008,42.0780008 L43.1660008,41.9460008 C46.1930008,41.7940008 48.5770008,41.4300008 49.7250008,40.9380008 C50.9490008,40.4140008 52.2410008,39.0900008 52.8490008,37.7420008 C53.4810008,36.3340008 53.8970008,34.4820008 54.2290008,31.5740008 C54.3610008,30.4300008 54.5090008,29.2860008 54.5610008,29.0300008 C54.6570008,28.5660008 54.6730008,28.5620008 58.7050008,28.5620008 L62.7520008,28.5620008 L62.7520008,65.7600008 L54.5050008,65.7600008 L54.3650008,63.6160008 C54.1130008,59.7330008 53.3570008,56.0530008 52.4490008,54.2930008 C51.2050008,51.8890008 48.7610008,50.8090008 43.8450008,50.4930008 C42.9550008,50.4400008 42.0670008,50.3620008 41.1820008,50.2570008 L40.4940008,50.1490008 L40.5740008,61.8520008 C40.6580008,74.1960008 40.6940008,74.6760008 41.6340008,75.7120008 C42.5980008,76.7760008 43.1580008,76.8480008 52.9410008,77.1840008 C53.1410008,77.1920008 53.2010008,78.1680008 53.2010008,81.3470008 L53.2010008,85.5030008 L13.0830008,85.5030008 L13.0830008,81.3470008 C13.0830008,77.5320008 13.1110008,77.1920008 13.4470008,77.1840008 C13.6470008,77.1800008 15.6190008,77.0920008 17.8350008,76.9880008 C21.3990008,76.8200008 21.9670008,76.7440008 22.8110008,76.3200008 C23.4080008,76.0540008 23.8950008,75.5900008 24.1910008,75.0080008 C24.6150008,74.1840008 24.6190008,73.9920008 24.6190008,47.8890008 C24.6190008,23.3590008 24.5950008,21.5550008 24.2590008,20.9430008 C23.7760008,20.0960008 22.9830008,19.4710008 22.0470008,19.1990008 C21.6310008,19.0710008 19.4470008,18.9190008 17.1870008,18.8550008 L13.0830008,18.7470008 L13.0830008,10.4870008 L82.9110008,10.4870008 L82.9110008,25.9710008 Z" id="Shape"></path>
                </g>
                <g id="Semibold-M" transform="translate(1497.469202, 419.584597)">
                    <path d="M78.1400008,3.98202509e-07 L17.8550008,3.98202509e-07 C13.1190008,-0.000999203277 8.5770008,1.8800008 5.2280008,5.2280008 C1.8800008,8.5770008 -0.000999203277,13.1190008 3.98202509e-07,17.8550008 L3.98202509e-07,78.1440008 C3.98202509e-07,82.8790008 1.8810008,87.4200008 5.2300008,90.7670008 C8.5780008,94.1150008 13.1200008,95.9960008 17.8550008,95.9940024 L78.1440008,95.9940024 C82.8790008,95.9940024 87.4200008,94.1130008 90.7670008,90.7650008 C94.1150008,87.4160008 95.9960008,82.8750008 95.9940024,78.1400008 L95.9940024,17.8550008 C95.9960008,13.1190008 94.1150008,8.5770008 90.7660008,5.2280008 C87.4170008,1.8800008 82.8750008,-0.000999203277 78.1400008,3.98202509e-07 Z M82.9110008,25.9710008 L82.9110008,41.4540008 L79.2230008,41.4340008 C77.1960008,41.4220008 75.3000008,41.3500008 75.0160008,41.2700008 C74.5040008,41.1260008 74.4920008,41.0700008 74.2480008,37.9140008 C73.9320008,33.8620008 73.6760008,32.0660008 73.0240008,29.3700008 C71.6160008,23.5430008 68.6400008,20.3710008 63.7880008,19.5190008 C61.7520008,19.1630008 52.8650008,18.8150008 45.5570008,18.8110008 L40.5180008,18.7990008 L40.5180008,42.0780008 L43.1660008,41.9460008 C46.1930008,41.7940008 48.5770008,41.4300008 49.7250008,40.9380008 C50.9490008,40.4140008 52.2410008,39.0900008 52.8490008,37.7420008 C53.4810008,36.3340008 53.8970008,34.4820008 54.2290008,31.5740008 C54.3610008,30.4300008 54.5090008,29.2860008 54.5610008,29.0300008 C54.6570008,28.5660008 54.6730008,28.5620008 58.7050008,28.5620008 L62.7520008,28.5620008 L62.7520008,65.7600008 L54.5050008,65.7600008 L54.3650008,63.6160008 C54.1130008,59.7330008 53.3570008,56.0530008 52.4490008,54.2930008 C51.2050008,51.8890008 48.7610008,50.8090008 43.8450008,50.4930008 C42.9550008,50.4400008 42.0670008,50.3620008 41.1820008,50.2570008 L40.4940008,50.1490008 L40.5740008,61.8520008 C40.6580008,74.1960008 40.6940008,74.6760008 41.6340008,75.7120008 C42.5980008,76.7760008 43.1580008,76.8480008 52.9410008,77.1840008 C53.1410008,77.1920008 53.2010008,78.1680008 53.2010008,81.3470008 L53.2010008,85.5030008 L13.0830008,85.5030008 L13.0830008,81.3470008 C13.0830008,77.5320008 13.1110008,77.1920008 13.4470008,77.1840008 C13.6470008,77.1800008 15.6190008,77.0920008 17.8350008,76.9880008 C21.3990008,76.8200008 21.9670008,76.7440008 22.8110008,76.3200008 C23.4080008,76.0540008 23.8950008,75.5900008 24.1910008,75.0080008 C24.6150008,74.1840008 24.6190008,73.9920008 24.6190008,47.8890008 C24.6190008,23.3590008 24.5950008,21.5550008 24.2590008,20.9430008 C23.7760008,20.0960008 22.9830008,19.4710008 22.0470008,19.1990008 C21.6310008,19.0710008 19.4470008,18.9190008 17.1870008,18.8550008 L13.0830008,18.7470008 L13.0830008,10.4870008 L82.9110008,10.4870008 L82.9110008,25.9710008 Z" id="Shape"></path>
                </g>
                <g id="Medium-M" transform="translate(1200.759202, 419.584597)">
                    <path d="M78.1400008,3.98202509e-07 L17.8550008,3.98202509e-07 C13.1190008,-0.000999203277 8.5770008,1.8800008 5.2280008,5.2280008 C1.8800008,8.5770008 -0.000999203277,13.1190008 3.98202509e-07,17.8550008 L3.98202509e-07,78.1440008 C3.98202509e-07,82.8790008 1.8810008,87.4200008 5.2300008,90.7670008 C8.5780008,94.1150008 13.1200008,95.9960008 17.8550008,95.9940024 L78.1440008,95.9940024 C82.8790008,95.9940024 87.4200008,94.1130008 90.7670008,90.7650008 C94.1150008,87.4160008 95.9960008,82.8750008 95.9940024,78.1400008 L95.9940024,17.8550008 C95.9960008,13.1190008 94.1150008,8.5770008 90.7660008,5.2280008 C87.4170008,1.8800008 82.8750008,-0.000999203277 78.1400008,3.98202509e-07 Z M82.9110008,25.9710008 L82.9110008,41.4540008 L79.2230008,41.4340008 C77.1960008,41.4220008 75.3000008,41.3500008 75.0160008,41.2700008 C74.5040008,41.1260008 74.4920008,41.0700008 74.2480008,37.9140008 C73.9320008,33.8620008 73.6760008,32.0660008 73.0240008,29.3700008 C71.6160008,23.5430008 68.6400008,20.3710008 63.7880008,19.5190008 C61.7520008,19.1630008 52.8650008,18.8150008 45.5570008,18.8110008 L40.5180008,18.7990008 L40.5180008,42.0780008 L43.1660008,41.9460008 C46.1930008,41.7940008 48.5770008,41.4300008 49.7250008,40.9380008 C50.9490008,40.4140008 52.2410008,39.0900008 52.8490008,37.7420008 C53.4810008,36.3340008 53.8970008,34.4820008 54.2290008,31.5740008 C54.3610008,30.4300008 54.5090008,29.2860008 54.5610008,29.0300008 C54.6570008,28.5660008 54.6730008,28.5620008 58.7050008,28.5620008 L62.7520008,28.5620008 L62.7520008,65.7600008 L54.5050008,65.7600008 L54.3650008,63.6160008 C54.1130008,59.7330008 53.3570008,56.0530008 52.4490008,54.2930008 C51.2050008,51.8890008 48.7610008,50.8090008 43.8450008,50.4930008 C42.9550008,50.4400008 42.0670008,50.3620008 41.1820008,50.2570008 L40.4940008,50.1490008 L40.5740008,61.8520008 C40.6580008,74.1960008 40.6940008,74.6760008 41.6340008,75.7120008 C42.5980008,76.7760008 43.1580008,76.8480008 52.9410008,77.1840008 C53.1410008,77.1920008 53.2010008,78.1680008 53.2010008,81.3470008 L53.2010008,85.5030008 L13.0830008,85.5030008 L13.0830008,81.3470008 C13.0830008,77.5320008 13.1110008,77.1920008 13.4470008,77.1840008 C13.6470008,77.1800008 15.6190008,77.0920008 17.8350008,76.9880008 C21.3990008,76.8200008 21.9670008,76.7440008 22.8110008,76.3200008 C23.4080008,76.0540008 23.8950008,75.5900008 24.1910008,75.0080008 C24.6150008,74.1840008 24.6190008,73.9920008 24.6190008,47.8890008 C24.6190008,23.3590008 24.5950008,21.5550008 24.2590008,20.9430008 C23.7760008,20.0960008 22.9830008,19.4710008 22.0470008,19.1990008 C21.6310008,19.0710008 19.4470008,18.9190008 17.1870008,18.8550008 L13.0830008,18.7470008 L13.0830008,10.4870008 L82.9110008,10.4870008 L82.9110008,25.9710008 Z" id="Shape"></path>
                </g>
                <g id="Regular-M" transform="translate(904.049202, 419.584597)">
                    <path d="M78.1400008,3.98202509e-07 L17.8550008,3.98202509e-07 C13.1190008,-0.000999203277 8.5770008,1.8800008 5.2280008,5.2280008 C1.8800008,8.5770008 -0.000999203277,13.1190008 3.98202509e-07,17.8550008 L3.98202509e-07,78.1440008 C3.98202509e-07,82.8790008 1.8810008,87.4200008 5.2300008,90.7670008 C8.5780008,94.1150008 13.1200008,95.9960008 17.8550008,95.9940024 L78.1440008,95.9940024 C82.8790008,95.9940024 87.4200008,94.1130008 90.7670008,90.7650008 C94.1150008,87.4160008 95.9960008,82.8750008 95.9940024,78.1400008 L95.9940024,17.8550008 C95.9960008,13.1190008 94.1150008,8.5770008 90.7660008,5.2280008 C87.4170008,1.8800008 82.8750008,-0.000999203277 78.1400008,3.98202509e-07 Z M82.9110008,25.9710008 L82.9110008,41.4540008 L79.2230008,41.4340008 C77.1960008,41.4220008 75.3000008,41.3500008 75.0160008,41.2700008 C74.5040008,41.1260008 74.4920008,41.0700008 74.2480008,37.9140008 C73.9320008,33.8620008 73.6760008,32.0660008 73.0240008,29.3700008 C71.6160008,23.5430008 68.6400008,20.3710008 63.7880008,19.5190008 C61.7520008,19.1630008 52.8650008,18.8150008 45.5570008,18.8110008 L40.5180008,18.7990008 L40.5180008,42.0780008 L43.1660008,41.9460008 C46.1930008,41.7940008 48.5770008,41.4300008 49.7250008,40.9380008 C50.9490008,40.4140008 52.2410008,39.0900008 52.8490008,37.7420008 C53.4810008,36.3340008 53.8970008,34.4820008 54.2290008,31.5740008 C54.3610008,30.4300008 54.5090008,29.2860008 54.5610008,29.0300008 C54.6570008,28.5660008 54.6730008,28.5620008 58.7050008,28.5620008 L62.7520008,28.5620008 L62.7520008,65.7600008 L54.5050008,65.7600008 L54.3650008,63.6160008 C54.1130008,59.7330008 53.3570008,56.0530008 52.4490008,54.2930008 C51.2050008,51.8890008 48.7610008,50.8090008 43.8450008,50.4930008 C42.9550008,50.4400008 42.0670008,50.3620008 41.1820008,50.2570008 L40.4940008,50.1490008 L40.5740008,61.8520008 C40.6580008,74.1960008 40.6940008,74.6760008 41.6340008,75.7120008 C42.5980008,76.7760008 43.1580008,76.8480008 52.9410008,77.1840008 C53.1410008,77.1920008 53.2010008,78.1680008 53.2010008,81.3470008 L53.2010008,85.5030008 L13.0830008,85.5030008 L13.0830008,81.3470008 C13.0830008,77.5320008 13.1110008,77.1920008 13.4470008,77.1840008 C13.6470008,77.1800008 15.6190008,77.0920008 17.8350008,76.9880008 C21.3990008,76.8200008 21.9670008,76.7440008 22.8110008,76.3200008 C23.4080008,76.0540008 23.8950008,75.5900008 24.1910008,75.0080008 C24.6150008,74.1840008 24.6190008,73.9920008 24.6190008,47.8890008 C24.6190008,23.3590008 24.5950008,21.5550008 24.2590008,20.9430008 C23.7760008,20.0960008 22.9830008,19.4710008 22.0470008,19.1990008 C21.6310008,19.0710008 19.4470008,18.9190008 17.1870008,18.8550008 L13.0830008,18.7470008 L13.0830008,10.4870008 L82.9110008,10.4870008 L82.9110008,25.9710008 Z" id="Shape"></path>
                </g>
                <g id="Light-M" transform="translate(607.339202, 419.584597)">
                    <path d="M78.1400008,3.98202509e-07 L17.8550008,3.98202509e-07 C13.1190008,-0.000999203277 8.5770008,1.8800008 5.2280008,5.2280008 C1.8800008,8.5770008 -0.000999203277,13.1190008 3.98202509e-07,17.8550008 L3.98202509e-07,78.1440008 C3.98202509e-07,82.8790008 1.8810008,87.4200008 5.2300008,90.7670008 C8.5780008,94.1150008 13.1200008,95.9960008 17.8550008,95.9940024 L78.1440008,95.9940024 C82.8790008,95.9940024 87.4200008,94.1130008 90.7670008,90.7650008 C94.1150008,87.4160008 95.9960008,82.8750008 95.9940024,78.1400008 L95.9940024,17.8550008 C95.9960008,13.1190008 94.1150008,8.5770008 90.7660008,5.2280008 C87.4170008,1.8800008 82.8750008,-0.000999203277 78.1400008,3.98202509e-07 Z M82.9110008,25.9710008 L82.9110008,41.4540008 L79.2230008,41.4340008 C77.1960008,41.4220008 75.3000008,41.3500008 75.0160008,41.2700008 C74.5040008,41.1260008 74.4920008,41.0700008 74.2480008,37.9140008 C73.9320008,33.8620008 73.6760008,32.0660008 73.0240008,29.3700008 C71.6160008,23.5430008 68.6400008,20.3710008 63.7880008,19.5190008 C61.7520008,19.1630008 52.8650008,18.8150008 45.5570008,18.8110008 L40.5180008,18.7990008 L40.5180008,42.0780008 L43.1660008,41.9460008 C46.1930008,41.7940008 48.5770008,41.4300008 49.7250008,40.9380008 C50.9490008,40.4140008 52.2410008,39.0900008 52.8490008,37.7420008 C53.4810008,36.3340008 53.8970008,34.4820008 54.2290008,31.5740008 C54.3610008,30.4300008 54.5090008,29.2860008 54.5610008,29.0300008 C54.6570008,28.5660008 54.6730008,28.5620008 58.7050008,28.5620008 L62.7520008,28.5620008 L62.7520008,65.7600008 L54.5050008,65.7600008 L54.3650008,63.6160008 C54.1130008,59.7330008 53.3570008,56.0530008 52.4490008,54.2930008 C51.2050008,51.8890008 48.7610008,50.8090008 43.8450008,50.4930008 C42.9550008,50.4400008 42.0670008,50.3620008 41.1820008,50.2570008 L40.4940008,50.1490008 L40.5740008,61.8520008 C40.6580008,74.1960008 40.6940008,74.6760008 41.6340008,75.7120008 C42.5980008,76.7760008 43.1580008,76.8480008 52.9410008,77.1840008 C53.1410008,77.1920008 53.2010008,78.1680008 53.2010008,81.3470008 L53.2010008,85.5030008 L13.0830008,85.5030008 L13.0830008,81.3470008 C13.0830008,77.5320008 13.1110008,77.1920008 13.4470008,77.1840008 C13.6470008,77.1800008 15.6190008,77.0920008 17.8350008,76.9880008 C21.3990008,76.8200008 21.9670008,76.7440008 22.8110008,76.3200008 C23.4080008,76.0540008 23.8950008,75.5900008 24.1910008,75.0080008 C24.6150008,74.1840008 24.6190008,73.9920008 24.6190008,47.8890008 C24.6190008,23.3590008 24.5950008,21.5550008 24.2590008,20.9430008 C23.7760008,20.0960008 22.9830008,19.4710008 22.0470008,19.1990008 C21.6310008,19.0710008 19.4470008,18.9190008 17.1870008,18.8550008 L13.0830008,18.7470008 L13.0830008,10.4870008 L82.9110008,10.4870008 L82.9110008,25.9710008 Z" id="Shape"></path>
                </g>
                <g id="Thin-M" transform="translate(310.629202, 419.584597)">
                    <path d="M78.1400008,3.98202509e-07 L17.8550008,3.98202509e-07 C13.1190008,-0.000999203277 8.5770008,1.8800008 5.2280008,5.2280008 C1.8800008,8.5770008 -0.000999203277,13.1190008 3.98202509e-07,17.8550008 L3.98202509e-07,78.1440008 C3.98202509e-07,82.8790008 1.8810008,87.4200008 5.2300008,90.7670008 C8.5780008,94.1150008 13.1200008,95.9960008 17.8550008,95.9940024 L78.1440008,95.9940024 C82.8790008,95.9940024 87.4200008,94.1130008 90.7670008,90.7650008 C94.1150008,87.4160008 95.9960008,82.8750008 95.9940024,78.1400008 L95.9940024,17.8550008 C95.9960008,13.1190008 94.1150008,8.5770008 90.7660008,5.2280008 C87.4170008,1.8800008 82.8750008,-0.000999203277 78.1400008,3.98202509e-07 Z M82.9110008,25.9710008 L82.9110008,41.4540008 L79.2230008,41.4340008 C77.1960008,41.4220008 75.3000008,41.3500008 75.0160008,41.2700008 C74.5040008,41.1260008 74.4920008,41.0700008 74.2480008,37.9140008 C73.9320008,33.8620008 73.6760008,32.0660008 73.0240008,29.3700008 C71.6160008,23.5430008 68.6400008,20.3710008 63.7880008,19.5190008 C61.7520008,19.1630008 52.8650008,18.8150008 45.5570008,18.8110008 L40.5180008,18.7990008 L40.5180008,42.0780008 L43.1660008,41.9460008 C46.1930008,41.7940008 48.5770008,41.4300008 49.7250008,40.9380008 C50.9490008,40.4140008 52.2410008,39.0900008 52.8490008,37.7420008 C53.4810008,36.3340008 53.8970008,34.4820008 54.2290008,31.5740008 C54.3610008,30.4300008 54.5090008,29.2860008 54.5610008,29.0300008 C54.6570008,28.5660008 54.6730008,28.5620008 58.7050008,28.5620008 L62.7520008,28.5620008 L62.7520008,65.7600008 L54.5050008,65.7600008 L54.3650008,63.6160008 C54.1130008,59.7330008 53.3570008,56.0530008 52.4490008,54.2930008 C51.2050008,51.8890008 48.7610008,50.8090008 43.8450008,50.4930008 C42.9550008,50.4400008 42.0670008,50.3620008 41.1820008,50.2570008 L40.4940008,50.1490008 L40.5740008,61.8520008 C40.6580008,74.1960008 40.6940008,74.6760008 41.6340008,75.7120008 C42.5980008,76.7760008 43.1580008,76.8480008 52.9410008,77.1840008 C53.1410008,77.1920008 53.2010008,78.1680008 53.2010008,81.3470008 L53.2010008,85.5030008 L13.0830008,85.5030008 L13.0830008,81.3470008 C13.0830008,77.5320008 13.1110008,77.1920008 13.4470008,77.1840008 C13.6470008,77.1800008 15.6190008,77.0920008 17.8350008,76.9880008 C21.3990008,76.8200008 21.9670008,76.7440008 22.8110008,76.3200008 C23.4080008,76.0540008 23.8950008,75.5900008 24.1910008,75.0080008 C24.6150008,74.1840008 24.6190008,73.9920008 24.6190008,47.8890008 C24.6190008,23.3590008 24.5950008,21.5550008 24.2590008,20.9430008 C23.7760008,20.0960008 22.9830008,19.4710008 22.0470008,19.1990008 C21.6310008,19.0710008 19.4470008,18.9190008 17.1870008,18.8550008 L13.0830008,18.7470008 L13.0830008,10.4870008 L82.9110008,10.4870008 L82.9110008,25.9710008 Z" id="Shape"></path>
                </g>
                <g id="Ultralight-M" transform="translate(13.919202, 419.584597)">
                    <path d="M78.1400008,3.98202509e-07 L17.8550008,3.98202509e-07 C13.1190008,-0.000999203277 8.5770008,1.8800008 5.2280008,5.2280008 C1.8800008,8.5770008 -0.000999203277,13.1190008 3.98202509e-07,17.8550008 L3.98202509e-07,78.1440008 C3.98202509e-07,82.8790008 1.8810008,87.4200008 5.2300008,90.7670008 C8.5780008,94.1150008 13.1200008,95.9960008 17.8550008,95.9940024 L78.1440008,95.9940024 C82.8790008,95.9940024 87.4200008,94.1130008 90.7670008,90.7650008 C94.1150008,87.4160008 95.9960008,82.8750008 95.9940024,78.1400008 L95.9940024,17.8550008 C95.9960008,13.1190008 94.1150008,8.5770008 90.7660008,5.2280008 C87.4170008,1.8800008 82.8750008,-0.000999203277 78.1400008,3.98202509e-07 Z M82.9110008,25.9710008 L82.9110008,41.4540008 L79.2230008,41.4340008 C77.1960008,41.4220008 75.3000008,41.3500008 75.0160008,41.2700008 C74.5040008,41.1260008 74.4920008,41.0700008 74.2480008,37.9140008 C73.9320008,33.8620008 73.6760008,32.0660008 73.0240008,29.3700008 C71.6160008,23.5430008 68.6400008,20.3710008 63.7880008,19.5190008 C61.7520008,19.1630008 52.8650008,18.8150008 45.5570008,18.8110008 L40.5180008,18.7990008 L40.5180008,42.0780008 L43.1660008,41.9460008 C46.1930008,41.7940008 48.5770008,41.4300008 49.7250008,40.9380008 C50.9490008,40.4140008 52.2410008,39.0900008 52.8490008,37.7420008 C53.4810008,36.3340008 53.8970008,34.4820008 54.2290008,31.5740008 C54.3610008,30.4300008 54.5090008,29.2860008 54.5610008,29.0300008 C54.6570008,28.5660008 54.6730008,28.5620008 58.7050008,28.5620008 L62.7520008,28.5620008 L62.7520008,65.7600008 L54.5050008,65.7600008 L54.3650008,63.6160008 C54.1130008,59.7330008 53.3570008,56.0530008 52.4490008,54.2930008 C51.2050008,51.8890008 48.7610008,50.8090008 43.8450008,50.4930008 C42.9550008,50.4400008 42.0670008,50.3620008 41.1820008,50.2570008 L40.4940008,50.1490008 L40.5740008,61.8520008 C40.6580008,74.1960008 40.6940008,74.6760008 41.6340008,75.7120008 C42.5980008,76.7760008 43.1580008,76.8480008 52.9410008,77.1840008 C53.1410008,77.1920008 53.2010008,78.1680008 53.2010008,81.3470008 L53.2010008,85.5030008 L13.0830008,85.5030008 L13.0830008,81.3470008 C13.0830008,77.5320008 13.1110008,77.1920008 13.4470008,77.1840008 C13.6470008,77.1800008 15.6190008,77.0920008 17.8350008,76.9880008 C21.3990008,76.8200008 21.9670008,76.7440008 22.8110008,76.3200008 C23.4080008,76.0540008 23.8950008,75.5900008 24.1910008,75.0080008 C24.6150008,74.1840008 24.6190008,73.9920008 24.6190008,47.8890008 C24.6190008,23.3590008 24.5950008,21.5550008 24.2590008,20.9430008 C23.7760008,20.0960008 22.9830008,19.4710008 22.0470008,19.1990008 C21.6310008,19.0710008 19.4470008,18.9190008 17.1870008,18.8550008 L13.0830008,18.7470008 L13.0830008,10.4870008 L82.9110008,10.4870008 L82.9110008,25.9710008 Z" id="Shape"></path>
                </g>
                <g id="Black-S" transform="translate(2398.014604, 0.000000)">
                    <path d="M61.183001,5.08314706e-07 L13.980001,5.08314706e-07 C10.272001,-0.000998982853 6.71600102,1.47200102 4.09400102,4.09400102 C1.47200102,6.71600102 -0.000998982853,10.272001 5.08314706e-07,13.980001 L5.08314706e-07,61.186001 C5.08314706e-07,64.894001 1.47300102,68.450001 4.09500102,71.071001 C6.71700102,73.692001 10.273001,75.165001 13.980001,75.1640015 L61.186001,75.1640015 C64.894001,75.1640015 68.450001,73.691001 71.071001,71.069001 C73.692001,68.447001 75.165001,64.891001 75.1640015,61.183001 L75.1640015,13.980001 C75.165001,10.272001 73.692001,6.71600102 71.070001,4.09400102 C68.448001,1.47200102 64.891001,-0.000998982853 61.183001,5.08314706e-07 Z M64.920001,20.335001 L64.920001,32.458001 L62.032001,32.443001 C60.444001,32.433001 58.960001,32.377001 58.737001,32.314001 C58.336001,32.201001 58.327001,32.158001 58.136001,29.687001 C57.889001,26.514001 57.688001,25.108001 57.178001,22.997001 C56.075001,18.434001 53.745001,15.950001 49.946001,15.283001 C48.352001,15.005001 41.393001,14.732001 35.671001,14.729001 L31.725001,14.720001 L31.725001,32.947001 L33.799001,32.843001 C36.169001,32.724001 38.036001,32.439001 38.935001,32.054001 C39.893001,31.644001 40.905001,30.607001 41.381001,29.552001 C41.876001,28.449001 42.201001,26.999001 42.461001,24.723001 C42.565001,23.827001 42.680001,22.931001 42.721001,22.731001 C42.796001,22.367001 42.809001,22.364001 45.966001,22.364001 L49.135001,22.364001 L49.135001,51.490001 L42.677001,51.490001 L42.568001,49.812001 C42.370001,46.771001 41.778001,43.889001 41.068001,42.511001 C40.094001,40.629001 38.180001,39.784001 34.331001,39.536001 C33.634001,39.495001 32.939001,39.433001 32.245001,39.351001 L31.707001,39.267001 L31.769001,48.430001 C31.835001,58.095001 31.863001,58.471001 32.599001,59.282001 C33.354001,60.115001 33.792001,60.172001 41.453001,60.435001 C41.609001,60.441001 41.656001,61.205001 41.656001,63.695001 L41.656001,66.949001 L10.244001,66.949001 L10.244001,63.695001 C10.244001,60.707001 10.266001,60.441001 10.529001,60.435001 C10.686001,60.432001 12.230001,60.363001 13.965001,60.281001 C16.755001,60.150001 17.200001,60.090001 17.861001,59.758001 C18.328001,59.550001 18.710001,59.187001 18.941001,58.731001 C19.273001,58.086001 19.276001,57.936001 19.276001,37.497001 C19.276001,18.290001 19.258001,16.877001 18.994001,16.398001 C18.616001,15.735001 17.995001,15.246001 17.263001,15.033001 C16.937001,14.933001 15.227001,14.814001 13.457001,14.763001 L10.244001,14.679001 L10.244001,8.21200102 L64.920001,8.21200102 L64.920001,20.335001 Z" id="Shape"></path>
                </g>
                <g id="Heavy-S" transform="translate(2101.304604, 0.000000)">
                    <path d="M61.183001,5.08314706e-07 L13.980001,5.08314706e-07 C10.272001,-0.000998982853 6.71600102,1.47200102 4.09400102,4.09400102 C1.47200102,6.71600102 -0.000998982853,10.272001 5.08314706e-07,13.980001 L5.08314706e-07,61.186001 C5.08314706e-07,64.894001 1.47300102,68.450001 4.09500102,71.071001 C6.71700102,73.692001 10.273001,75.165001 13.980001,75.1640015 L61.186001,75.1640015 C64.894001,75.1640015 68.450001,73.691001 71.071001,71.069001 C73.692001,68.447001 75.165001,64.891001 75.1640015,61.183001 L75.1640015,13.980001 C75.165001,10.272001 73.692001,6.71600102 71.070001,4.09400102 C68.448001,1.47200102 64.891001,-0.000998982853 61.183001,5.08314706e-07 Z M64.920001,20.335001 L64.920001,32.458001 L62.032001,32.443001 C60.444001,32.433001 58.960001,32.377001 58.737001,32.314001 C58.336001,32.201001 58.327001,32.158001 58.136001,29.687001 C57.889001,26.514001 57.688001,25.108001 57.178001,22.997001 C56.075001,18.434001 53.745001,15.950001 49.946001,15.283001 C48.352001,15.005001 41.393001,14.732001 35.671001,14.729001 L31.725001,14.720001 L31.725001,32.947001 L33.799001,32.843001 C36.169001,32.724001 38.036001,32.439001 38.935001,32.054001 C39.893001,31.644001 40.905001,30.607001 41.381001,29.552001 C41.876001,28.449001 42.201001,26.999001 42.461001,24.723001 C42.565001,23.827001 42.680001,22.931001 42.721001,22.731001 C42.796001,22.367001 42.809001,22.364001 45.966001,22.364001 L49.135001,22.364001 L49.135001,51.490001 L42.677001,51.490001 L42.568001,49.812001 C42.370001,46.771001 41.778001,43.889001 41.068001,42.511001 C40.094001,40.629001 38.180001,39.784001 34.331001,39.536001 C33.634001,39.495001 32.939001,39.433001 32.245001,39.351001 L31.707001,39.267001 L31.769001,48.430001 C31.835001,58.095001 31.863001,58.471001 32.599001,59.282001 C33.354001,60.115001 33.792001,60.172001 41.453001,60.435001 C41.609001,60.441001 41.656001,61.205001 41.656001,63.695001 L41.656001,66.949001 L10.244001,66.949001 L10.244001,63.695001 C10.244001,60.707001 10.266001,60.441001 10.529001,60.435001 C10.686001,60.432001 12.230001,60.363001 13.965001,60.281001 C16.755001,60.150001 17.200001,60.090001 17.861001,59.758001 C18.328001,59.550001 18.710001,59.187001 18.941001,58.731001 C19.273001,58.086001 19.276001,57.936001 19.276001,37.497001 C19.276001,18.290001 19.258001,16.877001 18.994001,16.398001 C18.616001,15.735001 17.995001,15.246001 17.263001,15.033001 C16.937001,14.933001 15.227001,14.814001 13.457001,14.763001 L10.244001,14.679001 L10.244001,8.21200102 L64.920001,8.21200102 L64.920001,20.335001 Z" id="Shape"></path>
                </g>
                <g id="Bold-S" transform="translate(1804.594604, 0.000000)">
                    <path d="M61.183001,5.08314706e-07 L13.980001,5.08314706e-07 C10.272001,-0.000998982853 6.71600102,1.47200102 4.09400102,4.09400102 C1.47200102,6.71600102 -0.000998982853,10.272001 5.08314706e-07,13.980001 L5.08314706e-07,61.186001 C5.08314706e-07,64.894001 1.47300102,68.450001 4.09500102,71.071001 C6.71700102,73.692001 10.273001,75.165001 13.980001,75.1640015 L61.186001,75.1640015 C64.894001,75.1640015 68.450001,73.691001 71.071001,71.069001 C73.692001,68.447001 75.165001,64.891001 75.1640015,61.183001 L75.1640015,13.980001 C75.165001,10.272001 73.692001,6.71600102 71.070001,4.09400102 C68.448001,1.47200102 64.891001,-0.000998982853 61.183001,5.08314706e-07 Z M64.920001,20.335001 L64.920001,32.458001 L62.032001,32.443001 C60.444001,32.433001 58.960001,32.377001 58.737001,32.314001 C58.336001,32.201001 58.327001,32.158001 58.136001,29.687001 C57.889001,26.514001 57.688001,25.108001 57.178001,22.997001 C56.075001,18.434001 53.745001,15.950001 49.946001,15.283001 C48.352001,15.005001 41.393001,14.732001 35.671001,14.729001 L31.725001,14.720001 L31.725001,32.947001 L33.799001,32.843001 C36.169001,32.724001 38.036001,32.439001 38.935001,32.054001 C39.893001,31.644001 40.905001,30.607001 41.381001,29.552001 C41.876001,28.449001 42.201001,26.999001 42.461001,24.723001 C42.565001,23.827001 42.680001,22.931001 42.721001,22.731001 C42.796001,22.367001 42.809001,22.364001 45.966001,22.364001 L49.135001,22.364001 L49.135001,51.490001 L42.677001,51.490001 L42.568001,49.812001 C42.370001,46.771001 41.778001,43.889001 41.068001,42.511001 C40.094001,40.629001 38.180001,39.784001 34.331001,39.536001 C33.634001,39.495001 32.939001,39.433001 32.245001,39.351001 L31.707001,39.267001 L31.769001,48.430001 C31.835001,58.095001 31.863001,58.471001 32.599001,59.282001 C33.354001,60.115001 33.792001,60.172001 41.453001,60.435001 C41.609001,60.441001 41.656001,61.205001 41.656001,63.695001 L41.656001,66.949001 L10.244001,66.949001 L10.244001,63.695001 C10.244001,60.707001 10.266001,60.441001 10.529001,60.435001 C10.686001,60.432001 12.230001,60.363001 13.965001,60.281001 C16.755001,60.150001 17.200001,60.090001 17.861001,59.758001 C18.328001,59.550001 18.710001,59.187001 18.941001,58.731001 C19.273001,58.086001 19.276001,57.936001 19.276001,37.497001 C19.276001,18.290001 19.258001,16.877001 18.994001,16.398001 C18.616001,15.735001 17.995001,15.246001 17.263001,15.033001 C16.937001,14.933001 15.227001,14.814001 13.457001,14.763001 L10.244001,14.679001 L10.244001,8.21200102 L64.920001,8.21200102 L64.920001,20.335001 Z" id="Shape"></path>
                </g>
                <g id="Semibold-S" transform="translate(1507.884604, 0.000000)">
                    <path d="M61.183001,5.08314706e-07 L13.980001,5.08314706e-07 C10.272001,-0.000998982853 6.71600102,1.47200102 4.09400102,4.09400102 C1.47200102,6.71600102 -0.000998982853,10.272001 5.08314706e-07,13.980001 L5.08314706e-07,61.186001 C5.08314706e-07,64.894001 1.47300102,68.450001 4.09500102,71.071001 C6.71700102,73.692001 10.273001,75.165001 13.980001,75.1640015 L61.186001,75.1640015 C64.894001,75.1640015 68.450001,73.691001 71.071001,71.069001 C73.692001,68.447001 75.165001,64.891001 75.1640015,61.183001 L75.1640015,13.980001 C75.165001,10.272001 73.692001,6.71600102 71.070001,4.09400102 C68.448001,1.47200102 64.891001,-0.000998982853 61.183001,5.08314706e-07 Z M64.920001,20.335001 L64.920001,32.458001 L62.032001,32.443001 C60.444001,32.433001 58.960001,32.377001 58.737001,32.314001 C58.336001,32.201001 58.327001,32.158001 58.136001,29.687001 C57.889001,26.514001 57.688001,25.108001 57.178001,22.997001 C56.075001,18.434001 53.745001,15.950001 49.946001,15.283001 C48.352001,15.005001 41.393001,14.732001 35.671001,14.729001 L31.725001,14.720001 L31.725001,32.947001 L33.799001,32.843001 C36.169001,32.724001 38.036001,32.439001 38.935001,32.054001 C39.893001,31.644001 40.905001,30.607001 41.381001,29.552001 C41.876001,28.449001 42.201001,26.999001 42.461001,24.723001 C42.565001,23.827001 42.680001,22.931001 42.721001,22.731001 C42.796001,22.367001 42.809001,22.364001 45.966001,22.364001 L49.135001,22.364001 L49.135001,51.490001 L42.677001,51.490001 L42.568001,49.812001 C42.370001,46.771001 41.778001,43.889001 41.068001,42.511001 C40.094001,40.629001 38.180001,39.784001 34.331001,39.536001 C33.634001,39.495001 32.939001,39.433001 32.245001,39.351001 L31.707001,39.267001 L31.769001,48.430001 C31.835001,58.095001 31.863001,58.471001 32.599001,59.282001 C33.354001,60.115001 33.792001,60.172001 41.453001,60.435001 C41.609001,60.441001 41.656001,61.205001 41.656001,63.695001 L41.656001,66.949001 L10.244001,66.949001 L10.244001,63.695001 C10.244001,60.707001 10.266001,60.441001 10.529001,60.435001 C10.686001,60.432001 12.230001,60.363001 13.965001,60.281001 C16.755001,60.150001 17.200001,60.090001 17.861001,59.758001 C18.328001,59.550001 18.710001,59.187001 18.941001,58.731001 C19.273001,58.086001 19.276001,57.936001 19.276001,37.497001 C19.276001,18.290001 19.258001,16.877001 18.994001,16.398001 C18.616001,15.735001 17.995001,15.246001 17.263001,15.033001 C16.937001,14.933001 15.227001,14.814001 13.457001,14.763001 L10.244001,14.679001 L10.244001,8.21200102 L64.920001,8.21200102 L64.920001,20.335001 Z" id="Shape"></path>
                </g>
                <g id="Medium-S" transform="translate(1211.174604, 0.000000)">
                    <path d="M61.183001,5.08314706e-07 L13.980001,5.08314706e-07 C10.272001,-0.000998982853 6.71600102,1.47200102 4.09400102,4.09400102 C1.47200102,6.71600102 -0.000998982853,10.272001 5.08314706e-07,13.980001 L5.08314706e-07,61.186001 C5.08314706e-07,64.894001 1.47300102,68.450001 4.09500102,71.071001 C6.71700102,73.692001 10.273001,75.165001 13.980001,75.1640015 L61.186001,75.1640015 C64.894001,75.1640015 68.450001,73.691001 71.071001,71.069001 C73.692001,68.447001 75.165001,64.891001 75.1640015,61.183001 L75.1640015,13.980001 C75.165001,10.272001 73.692001,6.71600102 71.070001,4.09400102 C68.448001,1.47200102 64.891001,-0.000998982853 61.183001,5.08314706e-07 Z M64.920001,20.335001 L64.920001,32.458001 L62.032001,32.443001 C60.444001,32.433001 58.960001,32.377001 58.737001,32.314001 C58.336001,32.201001 58.327001,32.158001 58.136001,29.687001 C57.889001,26.514001 57.688001,25.108001 57.178001,22.997001 C56.075001,18.434001 53.745001,15.950001 49.946001,15.283001 C48.352001,15.005001 41.393001,14.732001 35.671001,14.729001 L31.725001,14.720001 L31.725001,32.947001 L33.799001,32.843001 C36.169001,32.724001 38.036001,32.439001 38.935001,32.054001 C39.893001,31.644001 40.905001,30.607001 41.381001,29.552001 C41.876001,28.449001 42.201001,26.999001 42.461001,24.723001 C42.565001,23.827001 42.680001,22.931001 42.721001,22.731001 C42.796001,22.367001 42.809001,22.364001 45.966001,22.364001 L49.135001,22.364001 L49.135001,51.490001 L42.677001,51.490001 L42.568001,49.812001 C42.370001,46.771001 41.778001,43.889001 41.068001,42.511001 C40.094001,40.629001 38.180001,39.784001 34.331001,39.536001 C33.634001,39.495001 32.939001,39.433001 32.245001,39.351001 L31.707001,39.267001 L31.769001,48.430001 C31.835001,58.095001 31.863001,58.471001 32.599001,59.282001 C33.354001,60.115001 33.792001,60.172001 41.453001,60.435001 C41.609001,60.441001 41.656001,61.205001 41.656001,63.695001 L41.656001,66.949001 L10.244001,66.949001 L10.244001,63.695001 C10.244001,60.707001 10.266001,60.441001 10.529001,60.435001 C10.686001,60.432001 12.230001,60.363001 13.965001,60.281001 C16.755001,60.150001 17.200001,60.090001 17.861001,59.758001 C18.328001,59.550001 18.710001,59.187001 18.941001,58.731001 C19.273001,58.086001 19.276001,57.936001 19.276001,37.497001 C19.276001,18.290001 19.258001,16.877001 18.994001,16.398001 C18.616001,15.735001 17.995001,15.246001 17.263001,15.033001 C16.937001,14.933001 15.227001,14.814001 13.457001,14.763001 L10.244001,14.679001 L10.244001,8.21200102 L64.920001,8.21200102 L64.920001,20.335001 Z" id="Shape"></path>
                </g>
                <g id="Regular-S" transform="translate(914.464604, 0.000000)">
                    <path d="M61.183001,5.08314706e-07 L13.980001,5.08314706e-07 C10.272001,-0.000998982853 6.71600102,1.47200102 4.09400102,4.09400102 C1.47200102,6.71600102 -0.000998982853,10.272001 5.08314706e-07,13.980001 L5.08314706e-07,61.186001 C5.08314706e-07,64.894001 1.47300102,68.450001 4.09500102,71.071001 C6.71700102,73.692001 10.273001,75.165001 13.980001,75.1640015 L61.186001,75.1640015 C64.894001,75.1640015 68.450001,73.691001 71.071001,71.069001 C73.692001,68.447001 75.165001,64.891001 75.1640015,61.183001 L75.1640015,13.980001 C75.165001,10.272001 73.692001,6.71600102 71.070001,4.09400102 C68.448001,1.47200102 64.891001,-0.000998982853 61.183001,5.08314706e-07 Z M64.920001,20.335001 L64.920001,32.458001 L62.032001,32.443001 C60.444001,32.433001 58.960001,32.377001 58.737001,32.314001 C58.336001,32.201001 58.327001,32.158001 58.136001,29.687001 C57.889001,26.514001 57.688001,25.108001 57.178001,22.997001 C56.075001,18.434001 53.745001,15.950001 49.946001,15.283001 C48.352001,15.005001 41.393001,14.732001 35.671001,14.729001 L31.725001,14.720001 L31.725001,32.947001 L33.799001,32.843001 C36.169001,32.724001 38.036001,32.439001 38.935001,32.054001 C39.893001,31.644001 40.905001,30.607001 41.381001,29.552001 C41.876001,28.449001 42.201001,26.999001 42.461001,24.723001 C42.565001,23.827001 42.680001,22.931001 42.721001,22.731001 C42.796001,22.367001 42.809001,22.364001 45.966001,22.364001 L49.135001,22.364001 L49.135001,51.490001 L42.677001,51.490001 L42.568001,49.812001 C42.370001,46.771001 41.778001,43.889001 41.068001,42.511001 C40.094001,40.629001 38.180001,39.784001 34.331001,39.536001 C33.634001,39.495001 32.939001,39.433001 32.245001,39.351001 L31.707001,39.267001 L31.769001,48.430001 C31.835001,58.095001 31.863001,58.471001 32.599001,59.282001 C33.354001,60.115001 33.792001,60.172001 41.453001,60.435001 C41.609001,60.441001 41.656001,61.205001 41.656001,63.695001 L41.656001,66.949001 L10.244001,66.949001 L10.244001,63.695001 C10.244001,60.707001 10.266001,60.441001 10.529001,60.435001 C10.686001,60.432001 12.230001,60.363001 13.965001,60.281001 C16.755001,60.150001 17.200001,60.090001 17.861001,59.758001 C18.328001,59.550001 18.710001,59.187001 18.941001,58.731001 C19.273001,58.086001 19.276001,57.936001 19.276001,37.497001 C19.276001,18.290001 19.258001,16.877001 18.994001,16.398001 C18.616001,15.735001 17.995001,15.246001 17.263001,15.033001 C16.937001,14.933001 15.227001,14.814001 13.457001,14.763001 L10.244001,14.679001 L10.244001,8.21200102 L64.920001,8.21200102 L64.920001,20.335001 Z" id="Shape"></path>
                </g>
                <g id="Light-S" transform="translate(617.754604, 0.000000)">
                    <path d="M61.183001,5.08314706e-07 L13.980001,5.08314706e-07 C10.272001,-0.000998982853 6.71600102,1.47200102 4.09400102,4.09400102 C1.47200102,6.71600102 -0.000998982853,10.272001 5.08314706e-07,13.980001 L5.08314706e-07,61.186001 C5.08314706e-07,64.894001 1.47300102,68.450001 4.09500102,71.071001 C6.71700102,73.692001 10.273001,75.165001 13.980001,75.1640015 L61.186001,75.1640015 C64.894001,75.1640015 68.450001,73.691001 71.071001,71.069001 C73.692001,68.447001 75.165001,64.891001 75.1640015,61.183001 L75.1640015,13.980001 C75.165001,10.272001 73.692001,6.71600102 71.070001,4.09400102 C68.448001,1.47200102 64.891001,-0.000998982853 61.183001,5.08314706e-07 Z M64.920001,20.335001 L64.920001,32.458001 L62.032001,32.443001 C60.444001,32.433001 58.960001,32.377001 58.737001,32.314001 C58.336001,32.201001 58.327001,32.158001 58.136001,29.687001 C57.889001,26.514001 57.688001,25.108001 57.178001,22.997001 C56.075001,18.434001 53.745001,15.950001 49.946001,15.283001 C48.352001,15.005001 41.393001,14.732001 35.671001,14.729001 L31.725001,14.720001 L31.725001,32.947001 L33.799001,32.843001 C36.169001,32.724001 38.036001,32.439001 38.935001,32.054001 C39.893001,31.644001 40.905001,30.607001 41.381001,29.552001 C41.876001,28.449001 42.201001,26.999001 42.461001,24.723001 C42.565001,23.827001 42.680001,22.931001 42.721001,22.731001 C42.796001,22.367001 42.809001,22.364001 45.966001,22.364001 L49.135001,22.364001 L49.135001,51.490001 L42.677001,51.490001 L42.568001,49.812001 C42.370001,46.771001 41.778001,43.889001 41.068001,42.511001 C40.094001,40.629001 38.180001,39.784001 34.331001,39.536001 C33.634001,39.495001 32.939001,39.433001 32.245001,39.351001 L31.707001,39.267001 L31.769001,48.430001 C31.835001,58.095001 31.863001,58.471001 32.599001,59.282001 C33.354001,60.115001 33.792001,60.172001 41.453001,60.435001 C41.609001,60.441001 41.656001,61.205001 41.656001,63.695001 L41.656001,66.949001 L10.244001,66.949001 L10.244001,63.695001 C10.244001,60.707001 10.266001,60.441001 10.529001,60.435001 C10.686001,60.432001 12.230001,60.363001 13.965001,60.281001 C16.755001,60.150001 17.200001,60.090001 17.861001,59.758001 C18.328001,59.550001 18.710001,59.187001 18.941001,58.731001 C19.273001,58.086001 19.276001,57.936001 19.276001,37.497001 C19.276001,18.290001 19.258001,16.877001 18.994001,16.398001 C18.616001,15.735001 17.995001,15.246001 17.263001,15.033001 C16.937001,14.933001 15.227001,14.814001 13.457001,14.763001 L10.244001,14.679001 L10.244001,8.21200102 L64.920001,8.21200102 L64.920001,20.335001 Z" id="Shape"></path>
                </g>
                <g id="Thin-S" transform="translate(321.044604, 0.000000)">
                    <path d="M61.183001,5.08314706e-07 L13.980001,5.08314706e-07 C10.272001,-0.000998982853 6.71600102,1.47200102 4.09400102,4.09400102 C1.47200102,6.71600102 -0.000998982853,10.272001 5.08314706e-07,13.980001 L5.08314706e-07,61.186001 C5.08314706e-07,64.894001 1.47300102,68.450001 4.09500102,71.071001 C6.71700102,73.692001 10.273001,75.165001 13.980001,75.1640015 L61.186001,75.1640015 C64.894001,75.1640015 68.450001,73.691001 71.071001,71.069001 C73.692001,68.447001 75.165001,64.891001 75.1640015,61.183001 L75.1640015,13.980001 C75.165001,10.272001 73.692001,6.71600102 71.070001,4.09400102 C68.448001,1.47200102 64.891001,-0.000998982853 61.183001,5.08314706e-07 Z M64.920001,20.335001 L64.920001,32.458001 L62.032001,32.443001 C60.444001,32.433001 58.960001,32.377001 58.737001,32.314001 C58.336001,32.201001 58.327001,32.158001 58.136001,29.687001 C57.889001,26.514001 57.688001,25.108001 57.178001,22.997001 C56.075001,18.434001 53.745001,15.950001 49.946001,15.283001 C48.352001,15.005001 41.393001,14.732001 35.671001,14.729001 L31.725001,14.720001 L31.725001,32.947001 L33.799001,32.843001 C36.169001,32.724001 38.036001,32.439001 38.935001,32.054001 C39.893001,31.644001 40.905001,30.607001 41.381001,29.552001 C41.876001,28.449001 42.201001,26.999001 42.461001,24.723001 C42.565001,23.827001 42.680001,22.931001 42.721001,22.731001 C42.796001,22.367001 42.809001,22.364001 45.966001,22.364001 L49.135001,22.364001 L49.135001,51.490001 L42.677001,51.490001 L42.568001,49.812001 C42.370001,46.771001 41.778001,43.889001 41.068001,42.511001 C40.094001,40.629001 38.180001,39.784001 34.331001,39.536001 C33.634001,39.495001 32.939001,39.433001 32.245001,39.351001 L31.707001,39.267001 L31.769001,48.430001 C31.835001,58.095001 31.863001,58.471001 32.599001,59.282001 C33.354001,60.115001 33.792001,60.172001 41.453001,60.435001 C41.609001,60.441001 41.656001,61.205001 41.656001,63.695001 L41.656001,66.949001 L10.244001,66.949001 L10.244001,63.695001 C10.244001,60.707001 10.266001,60.441001 10.529001,60.435001 C10.686001,60.432001 12.230001,60.363001 13.965001,60.281001 C16.755001,60.150001 17.200001,60.090001 17.861001,59.758001 C18.328001,59.550001 18.710001,59.187001 18.941001,58.731001 C19.273001,58.086001 19.276001,57.936001 19.276001,37.497001 C19.276001,18.290001 19.258001,16.877001 18.994001,16.398001 C18.616001,15.735001 17.995001,15.246001 17.263001,15.033001 C16.937001,14.933001 15.227001,14.814001 13.457001,14.763001 L10.244001,14.679001 L10.244001,8.21200102 L64.920001,8.21200102 L64.920001,20.335001 Z" id="Shape"></path>
                </g>
                <g id="Ultralight-S" transform="translate(24.334604, 0.000000)">
                    <path d="M61.183001,5.08314706e-07 L13.980001,5.08314706e-07 C10.272001,-0.000998982853 6.71600102,1.47200102 4.09400102,4.09400102 C1.47200102,6.71600102 -0.000998982853,10.272001 5.08314706e-07,13.980001 L5.08314706e-07,61.186001 C5.08314706e-07,64.894001 1.47300102,68.450001 4.09500102,71.071001 C6.71700102,73.692001 10.273001,75.165001 13.980001,75.1640015 L61.186001,75.1640015 C64.894001,75.1640015 68.450001,73.691001 71.071001,71.069001 C73.692001,68.447001 75.165001,64.891001 75.1640015,61.183001 L75.1640015,13.980001 C75.165001,10.272001 73.692001,6.71600102 71.070001,4.09400102 C68.448001,1.47200102 64.891001,-0.000998982853 61.183001,5.08314706e-07 Z M64.920001,20.335001 L64.920001,32.458001 L62.032001,32.443001 C60.444001,32.433001 58.960001,32.377001 58.737001,32.314001 C58.336001,32.201001 58.327001,32.158001 58.136001,29.687001 C57.889001,26.514001 57.688001,25.108001 57.178001,22.997001 C56.075001,18.434001 53.745001,15.950001 49.946001,15.283001 C48.352001,15.005001 41.393001,14.732001 35.671001,14.729001 L31.725001,14.720001 L31.725001,32.947001 L33.799001,32.843001 C36.169001,32.724001 38.036001,32.439001 38.935001,32.054001 C39.893001,31.644001 40.905001,30.607001 41.381001,29.552001 C41.876001,28.449001 42.201001,26.999001 42.461001,24.723001 C42.565001,23.827001 42.680001,22.931001 42.721001,22.731001 C42.796001,22.367001 42.809001,22.364001 45.966001,22.364001 L49.135001,22.364001 L49.135001,51.490001 L42.677001,51.490001 L42.568001,49.812001 C42.370001,46.771001 41.778001,43.889001 41.068001,42.511001 C40.094001,40.629001 38.180001,39.784001 34.331001,39.536001 C33.634001,39.495001 32.939001,39.433001 32.245001,39.351001 L31.707001,39.267001 L31.769001,48.430001 C31.835001,58.095001 31.863001,58.471001 32.599001,59.282001 C33.354001,60.115001 33.792001,60.172001 41.453001,60.435001 C41.609001,60.441001 41.656001,61.205001 41.656001,63.695001 L41.656001,66.949001 L10.244001,66.949001 L10.244001,63.695001 C10.244001,60.707001 10.266001,60.441001 10.529001,60.435001 C10.686001,60.432001 12.230001,60.363001 13.965001,60.281001 C16.755001,60.150001 17.200001,60.090001 17.861001,59.758001 C18.328001,59.550001 18.710001,59.187001 18.941001,58.731001 C19.273001,58.086001 19.276001,57.936001 19.276001,37.497001 C19.276001,18.290001 19.258001,16.877001 18.994001,16.398001 C18.616001,15.735001 17.995001,15.246001 17.263001,15.033001 C16.937001,14.933001 15.227001,14.814001 13.457001,14.763001 L10.244001,14.679001 L10.244001,8.21200102 L64.920001,8.21200102 L64.920001,20.335001 Z" id="Shape"></path>
                </g>
            </g>
        </g>
    </g>
</svg>