<?xml version="1.0" encoding="UTF-8"?>
<svg width="3300px" height="2200px" viewBox="0 0 3300 2200" version="1.1" xmlns="http://www.w3.org/2000/svg" xmlns:xlink="http://www.w3.org/1999/xlink">
    <title>csharp.SFSymbol</title>
    <g id="Page-1" stroke="none" stroke-width="1" fill="none" fill-rule="evenodd">
        <g id="csharp.SFSymbol">
            <g id="Notes">
                <rect id="artboard" fill="#FFFFFF" fill-rule="nonzero" x="0" y="0" width="3300" height="2200"></rect>
                <line x1="263" y1="292" x2="3036" y2="292" id="Path" stroke="#000000" stroke-width="0.5"></line>
                <text id="Weight/Scale-Variations" fill="#000000" fill-rule="nonzero" font-family="Helvetica" font-size="13" font-weight="normal">
                    <tspan x="263" y="322">Weight/Scale Variations</tspan>
                </text>
                <text id="Ultralight" fill="#000000" fill-rule="nonzero" font-family="Helvetica" font-size="13" font-weight="normal">
                    <tspan x="533.711" y="322">Ultralight</tspan>
                </text>
                <text id="Thin" fill="#000000" fill-rule="nonzero" font-family="Helvetica" font-size="13" font-weight="normal">
                    <tspan x="843.422" y="322">Thin</tspan>
                </text>
                <text id="Light" fill="#000000" fill-rule="nonzero" font-family="Helvetica" font-size="13" font-weight="normal">
                    <tspan x="1138.63" y="322">Light</tspan>
                </text>
                <text id="Regular" fill="#000000" fill-rule="nonzero" font-family="Helvetica" font-size="13" font-weight="normal">
                    <tspan x="1426.84" y="322">Regular</tspan>
                </text>
                <text id="Medium" fill="#000000" fill-rule="nonzero" font-family="Helvetica" font-size="13" font-weight="normal">
                    <tspan x="1723.06" y="322">Medium</tspan>
                </text>
                <text id="Semibold" fill="#000000" fill-rule="nonzero" font-family="Helvetica" font-size="13" font-weight="normal">
                    <tspan x="2015.77" y="322">Semibold</tspan>
                </text>
                <text id="Bold" fill="#000000" fill-rule="nonzero" font-family="Helvetica" font-size="13" font-weight="normal">
                    <tspan x="2326.48" y="322">Bold</tspan>
                </text>
                <text id="Heavy" fill="#000000" fill-rule="nonzero" font-family="Helvetica" font-size="13" font-weight="normal">
                    <tspan x="2618.19" y="322">Heavy</tspan>
                </text>
                <text id="Black" fill="#000000" fill-rule="nonzero" font-family="Helvetica" font-size="13" font-weight="normal">
                    <tspan x="2917.4" y="322">Black</tspan>
                </text>
                <line x1="263" y1="1903" x2="3036" y2="1903" id="Path" stroke="#000000" stroke-width="0.5"></line>
                <g id="Group" transform="translate(264.367190, 1918.068400)" fill="#000000" fill-rule="nonzero">
                    <path d="M7.88086,15.761678 C12.18751,15.761678 15.77151,12.18746 15.77151,7.88082 C15.77151,3.5742 12.17771,0 7.87109,0 C3.57422,0 -8.8817842e-16,3.5742 -8.8817842e-16,7.88082 C-8.8817842e-16,12.18746 3.58398,15.761678 7.88086,15.761678 Z M7.88086,14.277303 C4.33593,14.277303 1.5039,11.43551 1.5039,7.88082 C1.5039,4.3261 4.32617,1.4843 7.87109,1.4843 C11.42581,1.4843 14.27731,4.3261 14.27731,7.88082 C14.27731,11.43551 11.43551,14.277303 7.88086,14.277303 Z M4.28711,7.88082 C4.28711,8.31051 4.58984,8.60348 5.03906,8.60348 L7.13867,8.60348 L7.13867,10.72262 C7.13867,11.16207 7.43164,11.4648 7.86133,11.4648 C8.31054,11.4648 8.60351,11.16207 8.60351,10.72262 L8.60351,8.60348 L10.72261,8.60348 C11.16211,8.60348 11.46481,8.31051 11.46481,7.88082 C11.46481,7.44137 11.16211,7.13863 10.72261,7.13863 L8.60351,7.13863 L8.60351,5.02926 C8.60351,4.58 8.31054,4.2773 7.86133,4.2773 C7.43164,4.2773 7.13867,4.58 7.13867,5.02926 L7.13867,7.13863 L5.03906,7.13863 C4.58984,7.13863 4.28711,7.44137 4.28711,7.88082 Z" id="Shape"></path>
                </g>
                <g id="Group" transform="translate(283.615050, 1915.988300)" fill="#000000" fill-rule="nonzero">
                    <path d="M9.96095,19.92186 C15.41015,19.92186 19.92185,15.40037 19.92185,9.96092 C19.92185,4.5117 15.40035,0 9.95115,0 C4.51172,0 8.8817842e-16,4.5117 8.8817842e-16,9.96092 C8.8817842e-16,15.40037 4.52148,19.92186 9.96095,19.92186 Z M9.96095,18.2617 C5.35156,18.2617 1.66992,14.57029 1.66992,9.96092 C1.66992,5.3515 5.34179,1.6601 9.95115,1.6601 C14.56055,1.6601 18.26175,5.3515 18.26175,9.96092 C18.26175,14.57029 14.57035,18.2617 9.96095,18.2617 Z M5.42968,9.96092 C5.42968,10.43943 5.76172,10.7617 6.25976,10.7617 L9.13085,10.7617 L9.13085,13.64256 C9.13085,14.13084 9.46285,14.47264 9.94145,14.47264 C10.42965,14.47264 10.77145,14.14061 10.77145,13.64256 L10.77145,10.7617 L13.65235,10.7617 C14.14065,10.7617 14.48245,10.43943 14.48245,9.96092 C14.48245,9.47264 14.14065,9.13084 13.65235,9.13084 L10.77145,9.13084 L10.77145,6.2597 C10.77145,5.7617 10.42965,5.4199 9.94145,5.4199 C9.46285,5.4199 9.13085,5.7617 9.13085,6.2597 L9.13085,9.13084 L6.25976,9.13084 C5.76172,9.13084 5.42968,9.47264 5.42968,9.96092 Z" id="Shape"></path>
                </g>
                <g id="Group" transform="translate(307.901860, 1913.224600)" fill="#000000" fill-rule="nonzero">
                    <path d="M12.71484,25.43946 C19.67774,25.43946 25.43944,19.6777438 25.43944,12.72462 C25.43944,5.7617 19.66794,0 12.70504,0 C5.75195,0 0,5.7617 0,12.72462 C0,19.6777438 5.76172,25.43946 12.71484,25.43946 Z M12.71484,23.62306 C6.67969,23.62306 1.82617,18.75978 1.82617,12.72462 C1.82617,6.6797 6.66992,1.8262 12.70504,1.8262 C18.75004,1.8262 23.61324,6.6797 23.61324,12.72462 C23.61324,18.75978 18.75974,23.62306 12.71484,23.62306 Z M6.94336,12.72462 C6.94336,13.2422 7.31445,13.60352 7.86134,13.60352 L11.80664,13.60352 L11.80664,17.5586 C11.80664,18.09571 12.17774,18.47657 12.69534,18.47657 C13.23244,18.47657 13.60354,18.10548 13.60354,17.5586 L13.60354,13.60352 L17.55864,13.60352 C18.09574,13.60352 18.47654,13.2422 18.47654,12.72462 C18.47654,12.17774 18.10544,11.80665 17.55864,11.80665 L13.60354,11.80665 L13.60354,7.8613 C13.60354,7.3145 13.23244,6.9336 12.69534,6.9336 C12.17774,6.9336 11.80664,7.3145 11.80664,7.8613 L11.80664,11.80665 L7.86134,11.80665 C7.31445,11.80665 6.94336,12.17774 6.94336,12.72462 Z" id="Shape"></path>
                </g>
                <text id="Design-Variations" fill="#000000" fill-rule="nonzero" font-family="Helvetica" font-size="13" font-weight="normal">
                    <tspan x="263" y="1953">Design Variations</tspan>
                </text>
                <text id="Symbols-are-supported-in-up-to-nine-weights-and-three-scales." fill="#000000" fill-rule="nonzero" font-family="Helvetica" font-size="13" font-weight="normal">
                    <tspan x="263" y="1971">Symbols are supported in up to nine weights and three scales.</tspan>
                </text>
                <text id="For-optimal-layout-with-text-and-other-symbols,-vertically-align" fill="#000000" fill-rule="nonzero" font-family="Helvetica" font-size="13" font-weight="normal">
                    <tspan x="263" y="1989">For optimal layout with text and other symbols, vertically align</tspan>
                </text>
                <text id="symbols-with-the-adjacent-text." fill="#000000" fill-rule="nonzero" font-family="Helvetica" font-size="13" font-weight="normal">
                    <tspan x="263" y="2007">symbols with the adjacent text.</tspan>
                </text>
                <line x1="776" y1="1919" x2="776" y2="1933" id="Path" stroke="#00AEEF" stroke-width="0.5"></line>
                <g id="Group" transform="translate(778.490230, 1918.732400)" fill="#000000" fill-rule="nonzero">
                    <path d="M0.82032,14.42385 C1.33789,14.42385 1.5918,14.2285375 1.77735,13.681662 L3.03711,10.2344 L8.79887,10.2344 L10.05857,13.681662 C10.24417,14.2285375 10.49807,14.42385 11.00587,14.42385 C11.52347,14.42385 11.85547,14.11135 11.85547,13.623069 C11.85547,13.457053 11.82617,13.300803 11.74807,13.09572 L7.16797,0.8985 C6.94336,0.3028 6.54297,0 5.91797,0 C5.3125,0 4.90235,0.293 4.6875,0.8887 L0.10743,13.10549 C0.0293,13.310569 -4.4408921e-16,13.466819 -4.4408921e-16,13.632834 C-4.4408921e-16,14.121116 0.3125,14.42385 0.82032,14.42385 Z M3.51563,8.75002 L5.88868,2.1778 L5.9375,2.1778 L8.31057,8.75002 L3.51563,8.75002 Z" id="Shape"></path>
                </g>
                <line x1="793.197" y1="1919" x2="793.197" y2="1933" id="Path" stroke="#00AEEF" stroke-width="0.5"></line>
                <text id="Margins" fill="#000000" fill-rule="nonzero" font-family="Helvetica" font-size="13" font-weight="normal">
                    <tspan x="776" y="1953">Margins</tspan>
                </text>
                <text id="Leading-and-trailing-margins-on-the-left-and-right-side-of-each-symbol" fill="#000000" fill-rule="nonzero" font-family="Helvetica" font-size="13" font-weight="normal">
                    <tspan x="776" y="1971">Leading and trailing margins on the left and right side of each symbol</tspan>
                </text>
                <text id="can-be-adjusted-by-modifying-the-x-location-of-the-margin-guidelines." fill="#000000" fill-rule="nonzero" font-family="Helvetica" font-size="13" font-weight="normal">
                    <tspan x="776" y="1989">can be adjusted by modifying the x-location of the margin guidelines.</tspan>
                </text>
                <text id="Modifications-are-automatically-applied-proportionally-to-all" fill="#000000" fill-rule="nonzero" font-family="Helvetica" font-size="13" font-weight="normal">
                    <tspan x="776" y="2007">Modifications are automatically applied proportionally to all</tspan>
                </text>
                <text id="scales-and-weights." fill="#000000" fill-rule="nonzero" font-family="Helvetica" font-size="13" font-weight="normal">
                    <tspan x="776" y="2025">scales and weights.</tspan>
                </text>
                <g id="Group" transform="translate(1291.248126, 1914.517396)" fill="#000000" fill-rule="nonzero">
                    <path d="M0.593673634,20.347834 L2.29289363,22.056824 C3.15226363,22.925964 4.13859363,22.867374 5.06632363,21.841984 L15.7596736,10.054874 L14.7928736,9.07830404 L4.17765363,20.757994 C3.82609363,21.158384 3.49406363,21.256044 3.02531363,20.787294 L1.85343363,19.625184 C1.38468363,19.166198 1.49210363,18.824401 1.89249363,18.4630728 L13.3670736,7.66230404 L12.3905736,6.69550404 L0.798753634,17.584166 C-0.187576366,18.5021352 -0.265706366,19.478698 0.593673634,20.347834 Z M7.00968363,2.15450404 C6.58976363,2.56460404 6.56046363,3.14080404 6.79484363,3.53140404 C7.02921363,3.89280404 7.48820363,4.12710404 8.13277363,3.96110404 C9.59757363,3.61930404 11.1209736,3.56070404 12.5467736,4.49820404 L11.9608736,5.95330404 C11.6190736,6.78340404 11.7948736,7.36930404 12.3319736,7.91620404 L14.6268736,10.230654 C15.1151736,10.718934 15.5252736,10.738464 16.0916736,10.640804 L17.1561736,10.445494 L17.8202736,11.119324 L17.7811736,11.675964 C17.7420736,12.174014 17.8690736,12.554874 18.3573736,13.033384 L19.1190736,13.775574 C19.5975736,14.254084 20.2127736,14.283384 20.6815736,13.814634 L23.5916736,10.894714 C24.0604736,10.425964 24.0409736,9.83026404 23.5623736,9.35174404 L22.7909736,8.59002404 C22.3123736,8.11150404 21.9413736,7.95530404 21.4627736,7.99430404 L20.8866736,8.04310404 L20.2420736,7.40840404 L20.4862736,6.28530404 C20.6131736,5.71890404 20.4569736,5.27950404 19.8709736,4.69350404 L17.6737736,2.50600404 C14.3338736,-0.814295964 9.90027363,-0.736195964 7.00968363,2.15450404 Z M8.50387363,2.52560404 C10.9354736,0.748204036 14.2264736,1.05100404 16.4530736,3.27750404 L18.8846736,5.68960404 C19.1190736,5.92400404 19.1580736,6.10960404 19.0897736,6.45140404 L18.7674736,7.93570404 L20.2713736,9.42010404 L21.2577736,9.36151404 C21.5116736,9.35174404 21.5897736,9.37127404 21.7850736,9.56658404 L22.3612736,10.142764 L19.9198736,12.584164 L19.3436736,12.007994 C19.1483736,11.812684 19.1190736,11.734554 19.1288736,11.470884 L19.1971736,10.494324 L17.7030736,9.00994404 L16.1795736,9.26385404 C15.8573736,9.33221404 15.7108736,9.30291404 15.4666736,9.06854404 L13.4647736,7.06660404 C13.2108736,6.83220404 13.1815736,6.66620404 13.3377736,6.29510404 L14.2166736,4.20530404 C12.6541736,2.75020404 10.6229736,2.12520404 8.59167363,2.72090404 C8.43547363,2.75990404 8.37687363,2.63300404 8.50387363,2.52560404 Z" id="Shape"></path>
                </g>
                <text id="Exporting" fill="#000000" fill-rule="nonzero" font-family="Helvetica" font-size="13" font-weight="normal">
                    <tspan x="1289" y="1953">Exporting</tspan>
                </text>
                <text id="Symbols-should-be-outlined-when-exporting-to-ensure-the" fill="#000000" fill-rule="nonzero" font-family="Helvetica" font-size="13" font-weight="normal">
                    <tspan x="1289" y="1971">Symbols should be outlined when exporting to ensure the</tspan>
                </text>
                <text id="design-is-preserved-when-submitting-to-Xcode." fill="#000000" fill-rule="nonzero" font-family="Helvetica" font-size="13" font-weight="normal">
                    <tspan x="1289" y="1989">design is preserved when submitting to Xcode.</tspan>
                </text>
                <text id="template-version" fill="#000000" fill-rule="nonzero" font-family="Helvetica" font-size="13" font-weight="normal">
                    <tspan x="2952" y="1933">Template v.2.0</tspan>
                </text>
                <text id="Requires-Xcode-12-or-greater" fill="#000000" fill-rule="nonzero" font-family="Helvetica" font-size="13" font-weight="normal">
                    <tspan x="2865" y="1951">Requires Xcode 12 or greater</tspan>
                </text>
                <text id="descriptive-name" fill="#000000" fill-rule="nonzero" font-family="Helvetica" font-size="13" font-weight="normal">
                    <tspan x="2889" y="1969">Generated from unsplash</tspan>
                </text>
                <text id="Typeset-at-100-points" fill="#000000" fill-rule="nonzero" font-family="Helvetica" font-size="13" font-weight="normal">
                    <tspan x="2912" y="1987">Typeset at 100 points</tspan>
                </text>
                <text id="Small" fill="#000000" fill-rule="nonzero" font-family="Helvetica" font-size="13" font-weight="normal">
                    <tspan x="263" y="726">Small</tspan>
                </text>
                <text id="Medium" fill="#000000" fill-rule="nonzero" font-family="Helvetica" font-size="13" font-weight="normal">
                    <tspan x="263" y="1156">Medium</tspan>
                </text>
                <text id="Large" fill="#000000" fill-rule="nonzero" font-family="Helvetica" font-size="13" font-weight="normal">
                    <tspan x="263" y="1586">Large</tspan>
                </text>
            </g>
            <g id="Guides" transform="translate(263.000000, 625.041000)">
                <g id="H-reference" transform="translate(76.976562, 0.500000)" fill="#27AAE1" fill-rule="nonzero">
                    <path d="M-1.22124533e-15,70.459 L2.685548,70.459 L12.011738,45.9961 L44.775438,45.9961 L54.150438,70.459 L56.787138,70.459 L29.638638,0 L27.148438,0 L-1.22124533e-15,70.459 Z M28.369138,3.3203 L28.466838,3.3203 L43.896438,43.75 L12.890638,43.75 L28.369138,3.3203 Z" id="Shape"></path>
                </g>
                <line x1="0" y1="70.959" x2="2773" y2="70.959" id="Baseline-S" stroke="#27AAE1" stroke-width="0.5"></line>
                <line x1="0" y1="0.5" x2="2773" y2="0.5" id="Capline-S" stroke="#27AAE1" stroke-width="0.5"></line>
                <g id="H-reference" transform="translate(76.976562, 430.500000)" fill="#27AAE1" fill-rule="nonzero">
                    <path d="M-1.22124533e-15,70.459 L2.685548,70.459 L12.011738,45.9961 L44.775438,45.9961 L54.150438,70.459 L56.787138,70.459 L29.638638,0 L27.148438,0 L-1.22124533e-15,70.459 Z M28.369138,3.3203 L28.466838,3.3203 L43.896438,43.75 L12.890638,43.75 L28.369138,3.3203 Z" id="Shape"></path>
                </g>
                <line x1="0" y1="500.959" x2="2773" y2="500.959" id="Baseline-M" stroke="#27AAE1" stroke-width="0.5"></line>
                <line x1="0" y1="430.499" x2="2773" y2="430.499" id="Capline-M" stroke="#27AAE1" stroke-width="0.5"></line>
                <g id="H-reference" transform="translate(76.976562, 860.500000)" fill="#27AAE1" fill-rule="nonzero">
                    <path d="M-1.22124533e-15,70.459 L2.685548,70.459 L12.011738,45.9961 L44.775438,45.9961 L54.150438,70.459 L56.787138,70.459 L29.638638,0 L27.148438,0 L-1.22124533e-15,70.459 Z M28.369138,3.3203 L28.466838,3.3203 L43.896438,43.75 L12.890638,43.75 L28.369138,3.3203 Z" id="Shape"></path>
                </g>
                <line x1="0" y1="930.959" x2="2773" y2="930.959" id="Baseline-L" stroke="#27AAE1" stroke-width="0.5"></line>
                <line x1="0" y1="860.499" x2="2773" y2="860.499" id="Capline-L" stroke="#27AAE1" stroke-width="0.5"></line>
                <line x1="1142.47093" y1="405.749" x2="1142.47093" y2="525.079" id="left-margin" stroke="#00AEEF" stroke-width="0.5"></line>
                <line x1="1233.78907" y1="405.749" x2="1233.78907" y2="525.079" id="right-margin" stroke="#00AEEF" stroke-width="0.5"></line>
            </g>
            <g id="Symbols" transform="translate(478.966291, 610.977466)" fill="#000000" fill-rule="nonzero">
                <g id="Black-L" transform="translate(2373.680000, 827.758845)">
                    <path d="M82.034,0 C36.728,0 0,36.728 0,82.034 C0,127.34 36.728,164.067 82.034,164.067 C127.34,164.067 164.067,127.34 164.067,82.034 C164.067,36.728 127.34,0 82.034,0 Z M64.437,48.673 C69.082,48.701 73.681,49.582 78.007,51.271 L78.007,59.345 C73.306,56.733 68.003,55.398 62.626,55.475 C55.853,55.25 49.312,57.959 44.681,62.906 C39.883,68.378 37.401,75.503 37.763,82.772 C37.405,89.646 39.72,96.392 44.223,101.599 C48.589,106.291 54.786,108.845 61.19,108.592 C67.099,108.739 72.931,107.238 78.035,104.258 L78.007,111.641 C72.427,114.356 66.264,115.659 60.062,115.435 C51.773,115.798 43.729,112.566 37.995,106.569 C32.295,100.181 29.321,91.816 29.71,83.264 C29.31,73.999 32.676,64.967 39.041,58.223 C45.265,51.853 53.883,48.399 62.783,48.708 C63.056,48.695 63.33,48.686 63.603,48.68 C63.881,48.677 64.159,48.677 64.437,48.68 L64.437,48.673 Z M104.518,49.733 L110.233,49.733 L106.439,67.862 L117.794,67.862 L121.67,49.733 L127.207,49.733 L123.413,67.862 L135.253,67.835 L134.228,72.6 L122.435,72.6 L119.619,86.135 L132.279,86.135 L131.076,90.907 L118.662,90.907 L114.697,108.852 L109.023,108.852 L112.899,90.907 L101.619,90.907 L97.825,108.852 L92.288,108.852 L96.082,90.907 L84.187,90.907 L85.083,86.135 L97.032,86.135 L99.774,72.627 L87.291,72.627 L88.234,67.862 L100.717,67.862 L104.518,49.733 Z M105.489,72.6 L102.542,86.135 L113.979,86.135 L116.871,72.6 L105.489,72.6 Z" id="Shape"></path>
                </g>
                <g id="Heavy-L" transform="translate(2076.970000, 827.758845)">
                    <path d="M82.034,0 C36.728,0 0,36.728 0,82.034 C0,127.34 36.728,164.067 82.034,164.067 C127.34,164.067 164.067,127.34 164.067,82.034 C164.067,36.728 127.34,0 82.034,0 Z M64.437,48.673 C69.082,48.701 73.681,49.582 78.007,51.271 L78.007,59.345 C73.306,56.733 68.003,55.398 62.626,55.475 C55.853,55.25 49.312,57.959 44.681,62.906 C39.883,68.378 37.401,75.503 37.763,82.772 C37.405,89.646 39.72,96.392 44.223,101.599 C48.589,106.291 54.786,108.845 61.19,108.592 C67.099,108.739 72.931,107.238 78.035,104.258 L78.007,111.641 C72.427,114.356 66.264,115.659 60.062,115.435 C51.773,115.798 43.729,112.566 37.995,106.569 C32.295,100.181 29.321,91.816 29.71,83.264 C29.31,73.999 32.676,64.967 39.041,58.223 C45.265,51.853 53.883,48.399 62.783,48.708 C63.056,48.695 63.33,48.686 63.603,48.68 C63.881,48.677 64.159,48.677 64.437,48.68 L64.437,48.673 Z M104.518,49.733 L110.233,49.733 L106.439,67.862 L117.794,67.862 L121.67,49.733 L127.207,49.733 L123.413,67.862 L135.253,67.835 L134.228,72.6 L122.435,72.6 L119.619,86.135 L132.279,86.135 L131.076,90.907 L118.662,90.907 L114.697,108.852 L109.023,108.852 L112.899,90.907 L101.619,90.907 L97.825,108.852 L92.288,108.852 L96.082,90.907 L84.187,90.907 L85.083,86.135 L97.032,86.135 L99.774,72.627 L87.291,72.627 L88.234,67.862 L100.717,67.862 L104.518,49.733 Z M105.489,72.6 L102.542,86.135 L113.979,86.135 L116.871,72.6 L105.489,72.6 Z" id="Shape"></path>
                </g>
                <g id="Bold-L" transform="translate(1780.260000, 827.758845)">
                    <path d="M82.034,0 C36.728,0 0,36.728 0,82.034 C0,127.34 36.728,164.067 82.034,164.067 C127.34,164.067 164.067,127.34 164.067,82.034 C164.067,36.728 127.34,0 82.034,0 Z M64.437,48.673 C69.082,48.701 73.681,49.582 78.007,51.271 L78.007,59.345 C73.306,56.733 68.003,55.398 62.626,55.475 C55.853,55.25 49.312,57.959 44.681,62.906 C39.883,68.378 37.401,75.503 37.763,82.772 C37.405,89.646 39.72,96.392 44.223,101.599 C48.589,106.291 54.786,108.845 61.19,108.592 C67.099,108.739 72.931,107.238 78.035,104.258 L78.007,111.641 C72.427,114.356 66.264,115.659 60.062,115.435 C51.773,115.798 43.729,112.566 37.995,106.569 C32.295,100.181 29.321,91.816 29.71,83.264 C29.31,73.999 32.676,64.967 39.041,58.223 C45.265,51.853 53.883,48.399 62.783,48.708 C63.056,48.695 63.33,48.686 63.603,48.68 C63.881,48.677 64.159,48.677 64.437,48.68 L64.437,48.673 Z M104.518,49.733 L110.233,49.733 L106.439,67.862 L117.794,67.862 L121.67,49.733 L127.207,49.733 L123.413,67.862 L135.253,67.835 L134.228,72.6 L122.435,72.6 L119.619,86.135 L132.279,86.135 L131.076,90.907 L118.662,90.907 L114.697,108.852 L109.023,108.852 L112.899,90.907 L101.619,90.907 L97.825,108.852 L92.288,108.852 L96.082,90.907 L84.187,90.907 L85.083,86.135 L97.032,86.135 L99.774,72.627 L87.291,72.627 L88.234,67.862 L100.717,67.862 L104.518,49.733 Z M105.489,72.6 L102.542,86.135 L113.979,86.135 L116.871,72.6 L105.489,72.6 Z" id="Shape"></path>
                </g>
                <g id="Semibold-L" transform="translate(1483.550000, 827.758845)">
                    <path d="M82.034,0 C36.728,0 0,36.728 0,82.034 C0,127.34 36.728,164.067 82.034,164.067 C127.34,164.067 164.067,127.34 164.067,82.034 C164.067,36.728 127.34,0 82.034,0 Z M64.437,48.673 C69.082,48.701 73.681,49.582 78.007,51.271 L78.007,59.345 C73.306,56.733 68.003,55.398 62.626,55.475 C55.853,55.25 49.312,57.959 44.681,62.906 C39.883,68.378 37.401,75.503 37.763,82.772 C37.405,89.646 39.72,96.392 44.223,101.599 C48.589,106.291 54.786,108.845 61.19,108.592 C67.099,108.739 72.931,107.238 78.035,104.258 L78.007,111.641 C72.427,114.356 66.264,115.659 60.062,115.435 C51.773,115.798 43.729,112.566 37.995,106.569 C32.295,100.181 29.321,91.816 29.71,83.264 C29.31,73.999 32.676,64.967 39.041,58.223 C45.265,51.853 53.883,48.399 62.783,48.708 C63.056,48.695 63.33,48.686 63.603,48.68 C63.881,48.677 64.159,48.677 64.437,48.68 L64.437,48.673 Z M104.518,49.733 L110.233,49.733 L106.439,67.862 L117.794,67.862 L121.67,49.733 L127.207,49.733 L123.413,67.862 L135.253,67.835 L134.228,72.6 L122.435,72.6 L119.619,86.135 L132.279,86.135 L131.076,90.907 L118.662,90.907 L114.697,108.852 L109.023,108.852 L112.899,90.907 L101.619,90.907 L97.825,108.852 L92.288,108.852 L96.082,90.907 L84.187,90.907 L85.083,86.135 L97.032,86.135 L99.774,72.627 L87.291,72.627 L88.234,67.862 L100.717,67.862 L104.518,49.733 Z M105.489,72.6 L102.542,86.135 L113.979,86.135 L116.871,72.6 L105.489,72.6 Z" id="Shape"></path>
                </g>
                <g id="Medium-L" transform="translate(1186.840000, 827.758845)">
                    <path d="M82.034,0 C36.728,0 0,36.728 0,82.034 C0,127.34 36.728,164.067 82.034,164.067 C127.34,164.067 164.067,127.34 164.067,82.034 C164.067,36.728 127.34,0 82.034,0 Z M64.437,48.673 C69.082,48.701 73.681,49.582 78.007,51.271 L78.007,59.345 C73.306,56.733 68.003,55.398 62.626,55.475 C55.853,55.25 49.312,57.959 44.681,62.906 C39.883,68.378 37.401,75.503 37.763,82.772 C37.405,89.646 39.72,96.392 44.223,101.599 C48.589,106.291 54.786,108.845 61.19,108.592 C67.099,108.739 72.931,107.238 78.035,104.258 L78.007,111.641 C72.427,114.356 66.264,115.659 60.062,115.435 C51.773,115.798 43.729,112.566 37.995,106.569 C32.295,100.181 29.321,91.816 29.71,83.264 C29.31,73.999 32.676,64.967 39.041,58.223 C45.265,51.853 53.883,48.399 62.783,48.708 C63.056,48.695 63.33,48.686 63.603,48.68 C63.881,48.677 64.159,48.677 64.437,48.68 L64.437,48.673 Z M104.518,49.733 L110.233,49.733 L106.439,67.862 L117.794,67.862 L121.67,49.733 L127.207,49.733 L123.413,67.862 L135.253,67.835 L134.228,72.6 L122.435,72.6 L119.619,86.135 L132.279,86.135 L131.076,90.907 L118.662,90.907 L114.697,108.852 L109.023,108.852 L112.899,90.907 L101.619,90.907 L97.825,108.852 L92.288,108.852 L96.082,90.907 L84.187,90.907 L85.083,86.135 L97.032,86.135 L99.774,72.627 L87.291,72.627 L88.234,67.862 L100.717,67.862 L104.518,49.733 Z M105.489,72.6 L102.542,86.135 L113.979,86.135 L116.871,72.6 L105.489,72.6 Z" id="Shape"></path>
                </g>
                <g id="Regular-L" transform="translate(890.130000, 827.758845)">
                    <path d="M82.034,0 C36.728,0 0,36.728 0,82.034 C0,127.34 36.728,164.067 82.034,164.067 C127.34,164.067 164.067,127.34 164.067,82.034 C164.067,36.728 127.34,0 82.034,0 Z M64.437,48.673 C69.082,48.701 73.681,49.582 78.007,51.271 L78.007,59.345 C73.306,56.733 68.003,55.398 62.626,55.475 C55.853,55.25 49.312,57.959 44.681,62.906 C39.883,68.378 37.401,75.503 37.763,82.772 C37.405,89.646 39.72,96.392 44.223,101.599 C48.589,106.291 54.786,108.845 61.19,108.592 C67.099,108.739 72.931,107.238 78.035,104.258 L78.007,111.641 C72.427,114.356 66.264,115.659 60.062,115.435 C51.773,115.798 43.729,112.566 37.995,106.569 C32.295,100.181 29.321,91.816 29.71,83.264 C29.31,73.999 32.676,64.967 39.041,58.223 C45.265,51.853 53.883,48.399 62.783,48.708 C63.056,48.695 63.33,48.686 63.603,48.68 C63.881,48.677 64.159,48.677 64.437,48.68 L64.437,48.673 Z M104.518,49.733 L110.233,49.733 L106.439,67.862 L117.794,67.862 L121.67,49.733 L127.207,49.733 L123.413,67.862 L135.253,67.835 L134.228,72.6 L122.435,72.6 L119.619,86.135 L132.279,86.135 L131.076,90.907 L118.662,90.907 L114.697,108.852 L109.023,108.852 L112.899,90.907 L101.619,90.907 L97.825,108.852 L92.288,108.852 L96.082,90.907 L84.187,90.907 L85.083,86.135 L97.032,86.135 L99.774,72.627 L87.291,72.627 L88.234,67.862 L100.717,67.862 L104.518,49.733 Z M105.489,72.6 L102.542,86.135 L113.979,86.135 L116.871,72.6 L105.489,72.6 Z" id="Shape"></path>
                </g>
                <g id="Light-L" transform="translate(593.420000, 827.758845)">
                    <path d="M82.034,0 C36.728,0 0,36.728 0,82.034 C0,127.34 36.728,164.067 82.034,164.067 C127.34,164.067 164.067,127.34 164.067,82.034 C164.067,36.728 127.34,0 82.034,0 Z M64.437,48.673 C69.082,48.701 73.681,49.582 78.007,51.271 L78.007,59.345 C73.306,56.733 68.003,55.398 62.626,55.475 C55.853,55.25 49.312,57.959 44.681,62.906 C39.883,68.378 37.401,75.503 37.763,82.772 C37.405,89.646 39.72,96.392 44.223,101.599 C48.589,106.291 54.786,108.845 61.19,108.592 C67.099,108.739 72.931,107.238 78.035,104.258 L78.007,111.641 C72.427,114.356 66.264,115.659 60.062,115.435 C51.773,115.798 43.729,112.566 37.995,106.569 C32.295,100.181 29.321,91.816 29.71,83.264 C29.31,73.999 32.676,64.967 39.041,58.223 C45.265,51.853 53.883,48.399 62.783,48.708 C63.056,48.695 63.33,48.686 63.603,48.68 C63.881,48.677 64.159,48.677 64.437,48.68 L64.437,48.673 Z M104.518,49.733 L110.233,49.733 L106.439,67.862 L117.794,67.862 L121.67,49.733 L127.207,49.733 L123.413,67.862 L135.253,67.835 L134.228,72.6 L122.435,72.6 L119.619,86.135 L132.279,86.135 L131.076,90.907 L118.662,90.907 L114.697,108.852 L109.023,108.852 L112.899,90.907 L101.619,90.907 L97.825,108.852 L92.288,108.852 L96.082,90.907 L84.187,90.907 L85.083,86.135 L97.032,86.135 L99.774,72.627 L87.291,72.627 L88.234,67.862 L100.717,67.862 L104.518,49.733 Z M105.489,72.6 L102.542,86.135 L113.979,86.135 L116.871,72.6 L105.489,72.6 Z" id="Shape"></path>
                </g>
                <g id="Thin-L" transform="translate(296.710000, 827.758845)">
                    <path d="M82.034,0 C36.728,0 0,36.728 0,82.034 C0,127.34 36.728,164.067 82.034,164.067 C127.34,164.067 164.067,127.34 164.067,82.034 C164.067,36.728 127.34,0 82.034,0 Z M64.437,48.673 C69.082,48.701 73.681,49.582 78.007,51.271 L78.007,59.345 C73.306,56.733 68.003,55.398 62.626,55.475 C55.853,55.25 49.312,57.959 44.681,62.906 C39.883,68.378 37.401,75.503 37.763,82.772 C37.405,89.646 39.72,96.392 44.223,101.599 C48.589,106.291 54.786,108.845 61.19,108.592 C67.099,108.739 72.931,107.238 78.035,104.258 L78.007,111.641 C72.427,114.356 66.264,115.659 60.062,115.435 C51.773,115.798 43.729,112.566 37.995,106.569 C32.295,100.181 29.321,91.816 29.71,83.264 C29.31,73.999 32.676,64.967 39.041,58.223 C45.265,51.853 53.883,48.399 62.783,48.708 C63.056,48.695 63.33,48.686 63.603,48.68 C63.881,48.677 64.159,48.677 64.437,48.68 L64.437,48.673 Z M104.518,49.733 L110.233,49.733 L106.439,67.862 L117.794,67.862 L121.67,49.733 L127.207,49.733 L123.413,67.862 L135.253,67.835 L134.228,72.6 L122.435,72.6 L119.619,86.135 L132.279,86.135 L131.076,90.907 L118.662,90.907 L114.697,108.852 L109.023,108.852 L112.899,90.907 L101.619,90.907 L97.825,108.852 L92.288,108.852 L96.082,90.907 L84.187,90.907 L85.083,86.135 L97.032,86.135 L99.774,72.627 L87.291,72.627 L88.234,67.862 L100.717,67.862 L104.518,49.733 Z M105.489,72.6 L102.542,86.135 L113.979,86.135 L116.871,72.6 L105.489,72.6 Z" id="Shape"></path>
                </g>
                <g id="Ultralight-L" transform="translate(-0.000000, 827.758845)">
                    <path d="M82.034,0 C36.728,0 0,36.728 0,82.034 C0,127.34 36.728,164.067 82.034,164.067 C127.34,164.067 164.067,127.34 164.067,82.034 C164.067,36.728 127.34,0 82.034,0 Z M64.437,48.673 C69.082,48.701 73.681,49.582 78.007,51.271 L78.007,59.345 C73.306,56.733 68.003,55.398 62.626,55.475 C55.853,55.25 49.312,57.959 44.681,62.906 C39.883,68.378 37.401,75.503 37.763,82.772 C37.405,89.646 39.72,96.392 44.223,101.599 C48.589,106.291 54.786,108.845 61.19,108.592 C67.099,108.739 72.931,107.238 78.035,104.258 L78.007,111.641 C72.427,114.356 66.264,115.659 60.062,115.435 C51.773,115.798 43.729,112.566 37.995,106.569 C32.295,100.181 29.321,91.816 29.71,83.264 C29.31,73.999 32.676,64.967 39.041,58.223 C45.265,51.853 53.883,48.399 62.783,48.708 C63.056,48.695 63.33,48.686 63.603,48.68 C63.881,48.677 64.159,48.677 64.437,48.68 L64.437,48.673 Z M104.518,49.733 L110.233,49.733 L106.439,67.862 L117.794,67.862 L121.67,49.733 L127.207,49.733 L123.413,67.862 L135.253,67.835 L134.228,72.6 L122.435,72.6 L119.619,86.135 L132.279,86.135 L131.076,90.907 L118.662,90.907 L114.697,108.852 L109.023,108.852 L112.899,90.907 L101.619,90.907 L97.825,108.852 L92.288,108.852 L96.082,90.907 L84.187,90.907 L85.083,86.135 L97.032,86.135 L99.774,72.627 L87.291,72.627 L88.234,67.862 L100.717,67.862 L104.518,49.733 Z M105.489,72.6 L102.542,86.135 L113.979,86.135 L116.871,72.6 L105.489,72.6 Z" id="Shape"></path>
                </g>
                <g id="Black-M" transform="translate(2392.121687, 416.200531)">
                    <path d="M63.592,0 C28.471,0 0,28.471 0,63.592 C0,98.713 28.471,127.184 63.592,127.184 C98.713,127.184 127.184,98.713 127.184,63.592 C127.184,28.471 98.713,0 63.592,0 Z M49.952,37.731 C53.552,37.753 57.117,38.436 60.471,39.745 L60.471,46.004 C56.827,43.979 52.716,42.945 48.547,43.004 C43.297,42.83 38.226,44.929 34.636,48.764 C30.917,53.007 28.993,58.529 29.274,64.164 C28.996,69.493 30.791,74.723 34.281,78.759 C37.666,82.396 42.47,84.376 47.434,84.18 C52.014,84.294 56.536,83.13 60.492,80.82 L60.471,86.543 C56.145,88.648 51.368,89.658 46.56,89.485 C40.134,89.766 33.899,87.261 29.454,82.611 C25.035,77.66 22.73,71.176 23.031,64.546 C22.721,57.364 25.33,50.362 30.265,45.134 C35.089,40.196 41.77,37.519 48.669,37.758 C48.881,37.748 49.093,37.741 49.305,37.737 C49.521,37.734 49.736,37.734 49.952,37.737 L49.952,37.731 Z M81.022,38.553 L85.452,38.553 L82.511,52.607 L91.313,52.607 L94.318,38.553 L98.61,38.553 L95.669,52.607 L104.847,52.585 L104.052,56.279 L94.911,56.279 L92.728,66.772 L102.542,66.772 L101.609,70.471 L91.986,70.471 L88.912,84.381 L84.514,84.381 L87.519,70.471 L78.775,70.471 L75.833,84.381 L71.541,84.381 L74.482,70.471 L65.261,70.471 L65.956,66.772 L75.219,66.772 L77.344,56.3 L67.667,56.3 L68.399,52.607 L78.075,52.607 L81.022,38.553 Z M81.774,56.279 L79.49,66.772 L88.356,66.772 L90.597,56.279 L81.774,56.279 Z" id="Shape"></path>
                </g>
                <g id="Heavy-M" transform="translate(2095.411687, 416.200531)">
                    <path d="M63.592,0 C28.471,0 0,28.471 0,63.592 C0,98.713 28.471,127.184 63.592,127.184 C98.713,127.184 127.184,98.713 127.184,63.592 C127.184,28.471 98.713,0 63.592,0 Z M49.952,37.731 C53.552,37.753 57.117,38.436 60.471,39.745 L60.471,46.004 C56.827,43.979 52.716,42.945 48.547,43.004 C43.297,42.83 38.226,44.929 34.636,48.764 C30.917,53.007 28.993,58.529 29.274,64.164 C28.996,69.493 30.791,74.723 34.281,78.759 C37.666,82.396 42.47,84.376 47.434,84.18 C52.014,84.294 56.536,83.13 60.492,80.82 L60.471,86.543 C56.145,88.648 51.368,89.658 46.56,89.485 C40.134,89.766 33.899,87.261 29.454,82.611 C25.035,77.66 22.73,71.176 23.031,64.546 C22.721,57.364 25.33,50.362 30.265,45.134 C35.089,40.196 41.77,37.519 48.669,37.758 C48.881,37.748 49.093,37.741 49.305,37.737 C49.521,37.734 49.736,37.734 49.952,37.737 L49.952,37.731 Z M81.022,38.553 L85.452,38.553 L82.511,52.607 L91.313,52.607 L94.318,38.553 L98.61,38.553 L95.669,52.607 L104.847,52.585 L104.052,56.279 L94.911,56.279 L92.728,66.772 L102.542,66.772 L101.609,70.471 L91.986,70.471 L88.912,84.381 L84.514,84.381 L87.519,70.471 L78.775,70.471 L75.833,84.381 L71.541,84.381 L74.482,70.471 L65.261,70.471 L65.956,66.772 L75.219,66.772 L77.344,56.3 L67.667,56.3 L68.399,52.607 L78.075,52.607 L81.022,38.553 Z M81.774,56.279 L79.49,66.772 L88.356,66.772 L90.597,56.279 L81.774,56.279 Z" id="Shape"></path>
                </g>
                <g id="Bold-M" transform="translate(1798.701687, 416.200531)">
                    <path d="M63.592,0 C28.471,0 0,28.471 0,63.592 C0,98.713 28.471,127.184 63.592,127.184 C98.713,127.184 127.184,98.713 127.184,63.592 C127.184,28.471 98.713,0 63.592,0 Z M49.952,37.731 C53.552,37.753 57.117,38.436 60.471,39.745 L60.471,46.004 C56.827,43.979 52.716,42.945 48.547,43.004 C43.297,42.83 38.226,44.929 34.636,48.764 C30.917,53.007 28.993,58.529 29.274,64.164 C28.996,69.493 30.791,74.723 34.281,78.759 C37.666,82.396 42.47,84.376 47.434,84.18 C52.014,84.294 56.536,83.13 60.492,80.82 L60.471,86.543 C56.145,88.648 51.368,89.658 46.56,89.485 C40.134,89.766 33.899,87.261 29.454,82.611 C25.035,77.66 22.73,71.176 23.031,64.546 C22.721,57.364 25.33,50.362 30.265,45.134 C35.089,40.196 41.77,37.519 48.669,37.758 C48.881,37.748 49.093,37.741 49.305,37.737 C49.521,37.734 49.736,37.734 49.952,37.737 L49.952,37.731 Z M81.022,38.553 L85.452,38.553 L82.511,52.607 L91.313,52.607 L94.318,38.553 L98.61,38.553 L95.669,52.607 L104.847,52.585 L104.052,56.279 L94.911,56.279 L92.728,66.772 L102.542,66.772 L101.609,70.471 L91.986,70.471 L88.912,84.381 L84.514,84.381 L87.519,70.471 L78.775,70.471 L75.833,84.381 L71.541,84.381 L74.482,70.471 L65.261,70.471 L65.956,66.772 L75.219,66.772 L77.344,56.3 L67.667,56.3 L68.399,52.607 L78.075,52.607 L81.022,38.553 Z M81.774,56.279 L79.49,66.772 L88.356,66.772 L90.597,56.279 L81.774,56.279 Z" id="Shape"></path>
                </g>
                <g id="Semibold-M" transform="translate(1501.991687, 416.200531)">
                    <path d="M63.592,0 C28.471,0 0,28.471 0,63.592 C0,98.713 28.471,127.184 63.592,127.184 C98.713,127.184 127.184,98.713 127.184,63.592 C127.184,28.471 98.713,0 63.592,0 Z M49.952,37.731 C53.552,37.753 57.117,38.436 60.471,39.745 L60.471,46.004 C56.827,43.979 52.716,42.945 48.547,43.004 C43.297,42.83 38.226,44.929 34.636,48.764 C30.917,53.007 28.993,58.529 29.274,64.164 C28.996,69.493 30.791,74.723 34.281,78.759 C37.666,82.396 42.47,84.376 47.434,84.18 C52.014,84.294 56.536,83.13 60.492,80.82 L60.471,86.543 C56.145,88.648 51.368,89.658 46.56,89.485 C40.134,89.766 33.899,87.261 29.454,82.611 C25.035,77.66 22.73,71.176 23.031,64.546 C22.721,57.364 25.33,50.362 30.265,45.134 C35.089,40.196 41.77,37.519 48.669,37.758 C48.881,37.748 49.093,37.741 49.305,37.737 C49.521,37.734 49.736,37.734 49.952,37.737 L49.952,37.731 Z M81.022,38.553 L85.452,38.553 L82.511,52.607 L91.313,52.607 L94.318,38.553 L98.61,38.553 L95.669,52.607 L104.847,52.585 L104.052,56.279 L94.911,56.279 L92.728,66.772 L102.542,66.772 L101.609,70.471 L91.986,70.471 L88.912,84.381 L84.514,84.381 L87.519,70.471 L78.775,70.471 L75.833,84.381 L71.541,84.381 L74.482,70.471 L65.261,70.471 L65.956,66.772 L75.219,66.772 L77.344,56.3 L67.667,56.3 L68.399,52.607 L78.075,52.607 L81.022,38.553 Z M81.774,56.279 L79.49,66.772 L88.356,66.772 L90.597,56.279 L81.774,56.279 Z" id="Shape"></path>
                </g>
                <g id="Medium-M" transform="translate(1205.281687, 416.200531)">
                    <path d="M63.592,0 C28.471,0 0,28.471 0,63.592 C0,98.713 28.471,127.184 63.592,127.184 C98.713,127.184 127.184,98.713 127.184,63.592 C127.184,28.471 98.713,0 63.592,0 Z M49.952,37.731 C53.552,37.753 57.117,38.436 60.471,39.745 L60.471,46.004 C56.827,43.979 52.716,42.945 48.547,43.004 C43.297,42.83 38.226,44.929 34.636,48.764 C30.917,53.007 28.993,58.529 29.274,64.164 C28.996,69.493 30.791,74.723 34.281,78.759 C37.666,82.396 42.47,84.376 47.434,84.18 C52.014,84.294 56.536,83.13 60.492,80.82 L60.471,86.543 C56.145,88.648 51.368,89.658 46.56,89.485 C40.134,89.766 33.899,87.261 29.454,82.611 C25.035,77.66 22.73,71.176 23.031,64.546 C22.721,57.364 25.33,50.362 30.265,45.134 C35.089,40.196 41.77,37.519 48.669,37.758 C48.881,37.748 49.093,37.741 49.305,37.737 C49.521,37.734 49.736,37.734 49.952,37.737 L49.952,37.731 Z M81.022,38.553 L85.452,38.553 L82.511,52.607 L91.313,52.607 L94.318,38.553 L98.61,38.553 L95.669,52.607 L104.847,52.585 L104.052,56.279 L94.911,56.279 L92.728,66.772 L102.542,66.772 L101.609,70.471 L91.986,70.471 L88.912,84.381 L84.514,84.381 L87.519,70.471 L78.775,70.471 L75.833,84.381 L71.541,84.381 L74.482,70.471 L65.261,70.471 L65.956,66.772 L75.219,66.772 L77.344,56.3 L67.667,56.3 L68.399,52.607 L78.075,52.607 L81.022,38.553 Z M81.774,56.279 L79.49,66.772 L88.356,66.772 L90.597,56.279 L81.774,56.279 Z" id="Shape"></path>
                </g>
                <g id="Regular-M" transform="translate(908.571687, 416.200531)">
                    <path d="M63.592,0 C28.471,0 0,28.471 0,63.592 C0,98.713 28.471,127.184 63.592,127.184 C98.713,127.184 127.184,98.713 127.184,63.592 C127.184,28.471 98.713,0 63.592,0 Z M49.952,37.731 C53.552,37.753 57.117,38.436 60.471,39.745 L60.471,46.004 C56.827,43.979 52.716,42.945 48.547,43.004 C43.297,42.83 38.226,44.929 34.636,48.764 C30.917,53.007 28.993,58.529 29.274,64.164 C28.996,69.493 30.791,74.723 34.281,78.759 C37.666,82.396 42.47,84.376 47.434,84.18 C52.014,84.294 56.536,83.13 60.492,80.82 L60.471,86.543 C56.145,88.648 51.368,89.658 46.56,89.485 C40.134,89.766 33.899,87.261 29.454,82.611 C25.035,77.66 22.73,71.176 23.031,64.546 C22.721,57.364 25.33,50.362 30.265,45.134 C35.089,40.196 41.77,37.519 48.669,37.758 C48.881,37.748 49.093,37.741 49.305,37.737 C49.521,37.734 49.736,37.734 49.952,37.737 L49.952,37.731 Z M81.022,38.553 L85.452,38.553 L82.511,52.607 L91.313,52.607 L94.318,38.553 L98.61,38.553 L95.669,52.607 L104.847,52.585 L104.052,56.279 L94.911,56.279 L92.728,66.772 L102.542,66.772 L101.609,70.471 L91.986,70.471 L88.912,84.381 L84.514,84.381 L87.519,70.471 L78.775,70.471 L75.833,84.381 L71.541,84.381 L74.482,70.471 L65.261,70.471 L65.956,66.772 L75.219,66.772 L77.344,56.3 L67.667,56.3 L68.399,52.607 L78.075,52.607 L81.022,38.553 Z M81.774,56.279 L79.49,66.772 L88.356,66.772 L90.597,56.279 L81.774,56.279 Z" id="Shape"></path>
                </g>
                <g id="Light-M" transform="translate(611.861687, 416.200531)">
                    <path d="M63.592,0 C28.471,0 0,28.471 0,63.592 C0,98.713 28.471,127.184 63.592,127.184 C98.713,127.184 127.184,98.713 127.184,63.592 C127.184,28.471 98.713,0 63.592,0 Z M49.952,37.731 C53.552,37.753 57.117,38.436 60.471,39.745 L60.471,46.004 C56.827,43.979 52.716,42.945 48.547,43.004 C43.297,42.83 38.226,44.929 34.636,48.764 C30.917,53.007 28.993,58.529 29.274,64.164 C28.996,69.493 30.791,74.723 34.281,78.759 C37.666,82.396 42.47,84.376 47.434,84.18 C52.014,84.294 56.536,83.13 60.492,80.82 L60.471,86.543 C56.145,88.648 51.368,89.658 46.56,89.485 C40.134,89.766 33.899,87.261 29.454,82.611 C25.035,77.66 22.73,71.176 23.031,64.546 C22.721,57.364 25.33,50.362 30.265,45.134 C35.089,40.196 41.77,37.519 48.669,37.758 C48.881,37.748 49.093,37.741 49.305,37.737 C49.521,37.734 49.736,37.734 49.952,37.737 L49.952,37.731 Z M81.022,38.553 L85.452,38.553 L82.511,52.607 L91.313,52.607 L94.318,38.553 L98.61,38.553 L95.669,52.607 L104.847,52.585 L104.052,56.279 L94.911,56.279 L92.728,66.772 L102.542,66.772 L101.609,70.471 L91.986,70.471 L88.912,84.381 L84.514,84.381 L87.519,70.471 L78.775,70.471 L75.833,84.381 L71.541,84.381 L74.482,70.471 L65.261,70.471 L65.956,66.772 L75.219,66.772 L77.344,56.3 L67.667,56.3 L68.399,52.607 L78.075,52.607 L81.022,38.553 Z M81.774,56.279 L79.49,66.772 L88.356,66.772 L90.597,56.279 L81.774,56.279 Z" id="Shape"></path>
                </g>
                <g id="Thin-M" transform="translate(315.151687, 416.200531)">
                    <path d="M63.592,0 C28.471,0 0,28.471 0,63.592 C0,98.713 28.471,127.184 63.592,127.184 C98.713,127.184 127.184,98.713 127.184,63.592 C127.184,28.471 98.713,0 63.592,0 Z M49.952,37.731 C53.552,37.753 57.117,38.436 60.471,39.745 L60.471,46.004 C56.827,43.979 52.716,42.945 48.547,43.004 C43.297,42.83 38.226,44.929 34.636,48.764 C30.917,53.007 28.993,58.529 29.274,64.164 C28.996,69.493 30.791,74.723 34.281,78.759 C37.666,82.396 42.47,84.376 47.434,84.18 C52.014,84.294 56.536,83.13 60.492,80.82 L60.471,86.543 C56.145,88.648 51.368,89.658 46.56,89.485 C40.134,89.766 33.899,87.261 29.454,82.611 C25.035,77.66 22.73,71.176 23.031,64.546 C22.721,57.364 25.33,50.362 30.265,45.134 C35.089,40.196 41.77,37.519 48.669,37.758 C48.881,37.748 49.093,37.741 49.305,37.737 C49.521,37.734 49.736,37.734 49.952,37.737 L49.952,37.731 Z M81.022,38.553 L85.452,38.553 L82.511,52.607 L91.313,52.607 L94.318,38.553 L98.61,38.553 L95.669,52.607 L104.847,52.585 L104.052,56.279 L94.911,56.279 L92.728,66.772 L102.542,66.772 L101.609,70.471 L91.986,70.471 L88.912,84.381 L84.514,84.381 L87.519,70.471 L78.775,70.471 L75.833,84.381 L71.541,84.381 L74.482,70.471 L65.261,70.471 L65.956,66.772 L75.219,66.772 L77.344,56.3 L67.667,56.3 L68.399,52.607 L78.075,52.607 L81.022,38.553 Z M81.774,56.279 L79.49,66.772 L88.356,66.772 L90.597,56.279 L81.774,56.279 Z" id="Shape"></path>
                </g>
                <g id="Ultralight-M" transform="translate(18.441687, 416.200531)">
                    <path d="M63.592,0 C28.471,0 0,28.471 0,63.592 C0,98.713 28.471,127.184 63.592,127.184 C98.713,127.184 127.184,98.713 127.184,63.592 C127.184,28.471 98.713,0 63.592,0 Z M49.952,37.731 C53.552,37.753 57.117,38.436 60.471,39.745 L60.471,46.004 C56.827,43.979 52.716,42.945 48.547,43.004 C43.297,42.83 38.226,44.929 34.636,48.764 C30.917,53.007 28.993,58.529 29.274,64.164 C28.996,69.493 30.791,74.723 34.281,78.759 C37.666,82.396 42.47,84.376 47.434,84.18 C52.014,84.294 56.536,83.13 60.492,80.82 L60.471,86.543 C56.145,88.648 51.368,89.658 46.56,89.485 C40.134,89.766 33.899,87.261 29.454,82.611 C25.035,77.66 22.73,71.176 23.031,64.546 C22.721,57.364 25.33,50.362 30.265,45.134 C35.089,40.196 41.77,37.519 48.669,37.758 C48.881,37.748 49.093,37.741 49.305,37.737 C49.521,37.734 49.736,37.734 49.952,37.737 L49.952,37.731 Z M81.022,38.553 L85.452,38.553 L82.511,52.607 L91.313,52.607 L94.318,38.553 L98.61,38.553 L95.669,52.607 L104.847,52.585 L104.052,56.279 L94.911,56.279 L92.728,66.772 L102.542,66.772 L101.609,70.471 L91.986,70.471 L88.912,84.381 L84.514,84.381 L87.519,70.471 L78.775,70.471 L75.833,84.381 L71.541,84.381 L74.482,70.471 L65.261,70.471 L65.956,66.772 L75.219,66.772 L77.344,56.3 L67.667,56.3 L68.399,52.607 L78.075,52.607 L81.022,38.553 Z M81.774,56.279 L79.49,66.772 L88.356,66.772 L90.597,56.279 L81.774,56.279 Z" id="Shape"></path>
                </g>
                <g id="Black-S" transform="translate(2405.921155, -0.000000)">
                    <path d="M49.793,0 C22.293,0 0,22.293 0,49.793 C0,77.292 22.293,99.585 49.793,99.585 C77.292,99.585 99.585,77.292 99.585,49.793 C99.585,22.293 77.292,0 49.793,0 Z M39.112,29.544 C41.931,29.561 44.723,30.095 47.349,31.12 L47.349,36.021 C44.495,34.435 41.276,33.626 38.012,33.672 C33.901,33.536 29.931,35.18 27.12,38.183 C24.208,41.504 22.702,45.829 22.921,50.241 C22.704,54.413 24.109,58.508 26.842,61.668 C29.493,64.516 33.254,66.066 37.141,65.913 C40.727,66.002 44.267,65.091 47.365,63.282 L47.349,67.764 C43.961,69.412 40.221,70.202 36.456,70.066 C31.425,70.287 26.543,68.325 23.062,64.685 C19.602,60.808 17.797,55.73 18.033,50.539 C17.79,44.916 19.833,39.434 23.697,35.34 C27.475,31.474 32.706,29.377 38.108,29.564 C38.274,29.557 38.44,29.551 38.606,29.548 C38.775,29.546 38.943,29.546 39.112,29.548 L39.112,29.544 Z M63.44,30.187 L66.909,30.187 L64.606,41.191 L71.498,41.191 L73.851,30.187 L77.212,30.187 L74.909,41.191 L82.095,41.174 L81.473,44.066 L74.315,44.066 L72.606,52.282 L80.29,52.282 L79.56,55.178 L72.025,55.178 L69.618,66.071 L66.174,66.071 L68.527,55.178 L61.681,55.178 L59.378,66.071 L56.017,66.071 L58.32,55.178 L51.1,55.178 L51.643,52.282 L58.896,52.282 L60.56,44.083 L52.983,44.083 L53.556,41.191 L61.133,41.191 L63.44,30.187 Z M64.029,44.066 L62.241,52.282 L69.183,52.282 L70.938,44.066 L64.029,44.066 Z" id="Shape"></path>
                </g>
                <g id="Heavy-S" transform="translate(2109.211155, -0.000000)">
                    <path d="M49.793,0 C22.293,0 0,22.293 0,49.793 C0,77.292 22.293,99.585 49.793,99.585 C77.292,99.585 99.585,77.292 99.585,49.793 C99.585,22.293 77.292,0 49.793,0 Z M39.112,29.544 C41.931,29.561 44.723,30.095 47.349,31.12 L47.349,36.021 C44.495,34.435 41.276,33.626 38.012,33.672 C33.901,33.536 29.931,35.18 27.12,38.183 C24.208,41.504 22.702,45.829 22.921,50.241 C22.704,54.413 24.109,58.508 26.842,61.668 C29.493,64.516 33.254,66.066 37.141,65.913 C40.727,66.002 44.267,65.091 47.365,63.282 L47.349,67.764 C43.961,69.412 40.221,70.202 36.456,70.066 C31.425,70.287 26.543,68.325 23.062,64.685 C19.602,60.808 17.797,55.73 18.033,50.539 C17.79,44.916 19.833,39.434 23.697,35.34 C27.475,31.474 32.706,29.377 38.108,29.564 C38.274,29.557 38.44,29.551 38.606,29.548 C38.775,29.546 38.943,29.546 39.112,29.548 L39.112,29.544 Z M63.44,30.187 L66.909,30.187 L64.606,41.191 L71.498,41.191 L73.851,30.187 L77.212,30.187 L74.909,41.191 L82.095,41.174 L81.473,44.066 L74.315,44.066 L72.606,52.282 L80.29,52.282 L79.56,55.178 L72.025,55.178 L69.618,66.071 L66.174,66.071 L68.527,55.178 L61.681,55.178 L59.378,66.071 L56.017,66.071 L58.32,55.178 L51.1,55.178 L51.643,52.282 L58.896,52.282 L60.56,44.083 L52.983,44.083 L53.556,41.191 L61.133,41.191 L63.44,30.187 Z M64.029,44.066 L62.241,52.282 L69.183,52.282 L70.938,44.066 L64.029,44.066 Z" id="Shape"></path>
                </g>
                <g id="Bold-S" transform="translate(1812.501155, -0.000000)">
                    <path d="M49.793,0 C22.293,0 0,22.293 0,49.793 C0,77.292 22.293,99.585 49.793,99.585 C77.292,99.585 99.585,77.292 99.585,49.793 C99.585,22.293 77.292,0 49.793,0 Z M39.112,29.544 C41.931,29.561 44.723,30.095 47.349,31.12 L47.349,36.021 C44.495,34.435 41.276,33.626 38.012,33.672 C33.901,33.536 29.931,35.18 27.12,38.183 C24.208,41.504 22.702,45.829 22.921,50.241 C22.704,54.413 24.109,58.508 26.842,61.668 C29.493,64.516 33.254,66.066 37.141,65.913 C40.727,66.002 44.267,65.091 47.365,63.282 L47.349,67.764 C43.961,69.412 40.221,70.202 36.456,70.066 C31.425,70.287 26.543,68.325 23.062,64.685 C19.602,60.808 17.797,55.73 18.033,50.539 C17.79,44.916 19.833,39.434 23.697,35.34 C27.475,31.474 32.706,29.377 38.108,29.564 C38.274,29.557 38.44,29.551 38.606,29.548 C38.775,29.546 38.943,29.546 39.112,29.548 L39.112,29.544 Z M63.44,30.187 L66.909,30.187 L64.606,41.191 L71.498,41.191 L73.851,30.187 L77.212,30.187 L74.909,41.191 L82.095,41.174 L81.473,44.066 L74.315,44.066 L72.606,52.282 L80.29,52.282 L79.56,55.178 L72.025,55.178 L69.618,66.071 L66.174,66.071 L68.527,55.178 L61.681,55.178 L59.378,66.071 L56.017,66.071 L58.32,55.178 L51.1,55.178 L51.643,52.282 L58.896,52.282 L60.56,44.083 L52.983,44.083 L53.556,41.191 L61.133,41.191 L63.44,30.187 Z M64.029,44.066 L62.241,52.282 L69.183,52.282 L70.938,44.066 L64.029,44.066 Z" id="Shape"></path>
                </g>
                <g id="Semibold-S" transform="translate(1515.791155, -0.000000)">
                    <path d="M49.793,0 C22.293,0 0,22.293 0,49.793 C0,77.292 22.293,99.585 49.793,99.585 C77.292,99.585 99.585,77.292 99.585,49.793 C99.585,22.293 77.292,0 49.793,0 Z M39.112,29.544 C41.931,29.561 44.723,30.095 47.349,31.12 L47.349,36.021 C44.495,34.435 41.276,33.626 38.012,33.672 C33.901,33.536 29.931,35.18 27.12,38.183 C24.208,41.504 22.702,45.829 22.921,50.241 C22.704,54.413 24.109,58.508 26.842,61.668 C29.493,64.516 33.254,66.066 37.141,65.913 C40.727,66.002 44.267,65.091 47.365,63.282 L47.349,67.764 C43.961,69.412 40.221,70.202 36.456,70.066 C31.425,70.287 26.543,68.325 23.062,64.685 C19.602,60.808 17.797,55.73 18.033,50.539 C17.79,44.916 19.833,39.434 23.697,35.34 C27.475,31.474 32.706,29.377 38.108,29.564 C38.274,29.557 38.44,29.551 38.606,29.548 C38.775,29.546 38.943,29.546 39.112,29.548 L39.112,29.544 Z M63.44,30.187 L66.909,30.187 L64.606,41.191 L71.498,41.191 L73.851,30.187 L77.212,30.187 L74.909,41.191 L82.095,41.174 L81.473,44.066 L74.315,44.066 L72.606,52.282 L80.29,52.282 L79.56,55.178 L72.025,55.178 L69.618,66.071 L66.174,66.071 L68.527,55.178 L61.681,55.178 L59.378,66.071 L56.017,66.071 L58.32,55.178 L51.1,55.178 L51.643,52.282 L58.896,52.282 L60.56,44.083 L52.983,44.083 L53.556,41.191 L61.133,41.191 L63.44,30.187 Z M64.029,44.066 L62.241,52.282 L69.183,52.282 L70.938,44.066 L64.029,44.066 Z" id="Shape"></path>
                </g>
                <g id="Medium-S" transform="translate(1219.081155, -0.000000)">
                    <path d="M49.793,0 C22.293,0 0,22.293 0,49.793 C0,77.292 22.293,99.585 49.793,99.585 C77.292,99.585 99.585,77.292 99.585,49.793 C99.585,22.293 77.292,0 49.793,0 Z M39.112,29.544 C41.931,29.561 44.723,30.095 47.349,31.12 L47.349,36.021 C44.495,34.435 41.276,33.626 38.012,33.672 C33.901,33.536 29.931,35.18 27.12,38.183 C24.208,41.504 22.702,45.829 22.921,50.241 C22.704,54.413 24.109,58.508 26.842,61.668 C29.493,64.516 33.254,66.066 37.141,65.913 C40.727,66.002 44.267,65.091 47.365,63.282 L47.349,67.764 C43.961,69.412 40.221,70.202 36.456,70.066 C31.425,70.287 26.543,68.325 23.062,64.685 C19.602,60.808 17.797,55.73 18.033,50.539 C17.79,44.916 19.833,39.434 23.697,35.34 C27.475,31.474 32.706,29.377 38.108,29.564 C38.274,29.557 38.44,29.551 38.606,29.548 C38.775,29.546 38.943,29.546 39.112,29.548 L39.112,29.544 Z M63.44,30.187 L66.909,30.187 L64.606,41.191 L71.498,41.191 L73.851,30.187 L77.212,30.187 L74.909,41.191 L82.095,41.174 L81.473,44.066 L74.315,44.066 L72.606,52.282 L80.29,52.282 L79.56,55.178 L72.025,55.178 L69.618,66.071 L66.174,66.071 L68.527,55.178 L61.681,55.178 L59.378,66.071 L56.017,66.071 L58.32,55.178 L51.1,55.178 L51.643,52.282 L58.896,52.282 L60.56,44.083 L52.983,44.083 L53.556,41.191 L61.133,41.191 L63.44,30.187 Z M64.029,44.066 L62.241,52.282 L69.183,52.282 L70.938,44.066 L64.029,44.066 Z" id="Shape"></path>
                </g>
                <g id="Regular-S" transform="translate(922.371155, -0.000000)">
                    <path d="M49.793,0 C22.293,0 0,22.293 0,49.793 C0,77.292 22.293,99.585 49.793,99.585 C77.292,99.585 99.585,77.292 99.585,49.793 C99.585,22.293 77.292,0 49.793,0 Z M39.112,29.544 C41.931,29.561 44.723,30.095 47.349,31.12 L47.349,36.021 C44.495,34.435 41.276,33.626 38.012,33.672 C33.901,33.536 29.931,35.18 27.12,38.183 C24.208,41.504 22.702,45.829 22.921,50.241 C22.704,54.413 24.109,58.508 26.842,61.668 C29.493,64.516 33.254,66.066 37.141,65.913 C40.727,66.002 44.267,65.091 47.365,63.282 L47.349,67.764 C43.961,69.412 40.221,70.202 36.456,70.066 C31.425,70.287 26.543,68.325 23.062,64.685 C19.602,60.808 17.797,55.73 18.033,50.539 C17.79,44.916 19.833,39.434 23.697,35.34 C27.475,31.474 32.706,29.377 38.108,29.564 C38.274,29.557 38.44,29.551 38.606,29.548 C38.775,29.546 38.943,29.546 39.112,29.548 L39.112,29.544 Z M63.44,30.187 L66.909,30.187 L64.606,41.191 L71.498,41.191 L73.851,30.187 L77.212,30.187 L74.909,41.191 L82.095,41.174 L81.473,44.066 L74.315,44.066 L72.606,52.282 L80.29,52.282 L79.56,55.178 L72.025,55.178 L69.618,66.071 L66.174,66.071 L68.527,55.178 L61.681,55.178 L59.378,66.071 L56.017,66.071 L58.32,55.178 L51.1,55.178 L51.643,52.282 L58.896,52.282 L60.56,44.083 L52.983,44.083 L53.556,41.191 L61.133,41.191 L63.44,30.187 Z M64.029,44.066 L62.241,52.282 L69.183,52.282 L70.938,44.066 L64.029,44.066 Z" id="Shape"></path>
                </g>
                <g id="Light-S" transform="translate(625.661155, -0.000000)">
                    <path d="M49.793,0 C22.293,0 0,22.293 0,49.793 C0,77.292 22.293,99.585 49.793,99.585 C77.292,99.585 99.585,77.292 99.585,49.793 C99.585,22.293 77.292,0 49.793,0 Z M39.112,29.544 C41.931,29.561 44.723,30.095 47.349,31.12 L47.349,36.021 C44.495,34.435 41.276,33.626 38.012,33.672 C33.901,33.536 29.931,35.18 27.12,38.183 C24.208,41.504 22.702,45.829 22.921,50.241 C22.704,54.413 24.109,58.508 26.842,61.668 C29.493,64.516 33.254,66.066 37.141,65.913 C40.727,66.002 44.267,65.091 47.365,63.282 L47.349,67.764 C43.961,69.412 40.221,70.202 36.456,70.066 C31.425,70.287 26.543,68.325 23.062,64.685 C19.602,60.808 17.797,55.73 18.033,50.539 C17.79,44.916 19.833,39.434 23.697,35.34 C27.475,31.474 32.706,29.377 38.108,29.564 C38.274,29.557 38.44,29.551 38.606,29.548 C38.775,29.546 38.943,29.546 39.112,29.548 L39.112,29.544 Z M63.44,30.187 L66.909,30.187 L64.606,41.191 L71.498,41.191 L73.851,30.187 L77.212,30.187 L74.909,41.191 L82.095,41.174 L81.473,44.066 L74.315,44.066 L72.606,52.282 L80.29,52.282 L79.56,55.178 L72.025,55.178 L69.618,66.071 L66.174,66.071 L68.527,55.178 L61.681,55.178 L59.378,66.071 L56.017,66.071 L58.32,55.178 L51.1,55.178 L51.643,52.282 L58.896,52.282 L60.56,44.083 L52.983,44.083 L53.556,41.191 L61.133,41.191 L63.44,30.187 Z M64.029,44.066 L62.241,52.282 L69.183,52.282 L70.938,44.066 L64.029,44.066 Z" id="Shape"></path>
                </g>
                <g id="Thin-S" transform="translate(328.951155, -0.000000)">
                    <path d="M49.793,0 C22.293,0 0,22.293 0,49.793 C0,77.292 22.293,99.585 49.793,99.585 C77.292,99.585 99.585,77.292 99.585,49.793 C99.585,22.293 77.292,0 49.793,0 Z M39.112,29.544 C41.931,29.561 44.723,30.095 47.349,31.12 L47.349,36.021 C44.495,34.435 41.276,33.626 38.012,33.672 C33.901,33.536 29.931,35.18 27.12,38.183 C24.208,41.504 22.702,45.829 22.921,50.241 C22.704,54.413 24.109,58.508 26.842,61.668 C29.493,64.516 33.254,66.066 37.141,65.913 C40.727,66.002 44.267,65.091 47.365,63.282 L47.349,67.764 C43.961,69.412 40.221,70.202 36.456,70.066 C31.425,70.287 26.543,68.325 23.062,64.685 C19.602,60.808 17.797,55.73 18.033,50.539 C17.79,44.916 19.833,39.434 23.697,35.34 C27.475,31.474 32.706,29.377 38.108,29.564 C38.274,29.557 38.44,29.551 38.606,29.548 C38.775,29.546 38.943,29.546 39.112,29.548 L39.112,29.544 Z M63.44,30.187 L66.909,30.187 L64.606,41.191 L71.498,41.191 L73.851,30.187 L77.212,30.187 L74.909,41.191 L82.095,41.174 L81.473,44.066 L74.315,44.066 L72.606,52.282 L80.29,52.282 L79.56,55.178 L72.025,55.178 L69.618,66.071 L66.174,66.071 L68.527,55.178 L61.681,55.178 L59.378,66.071 L56.017,66.071 L58.32,55.178 L51.1,55.178 L51.643,52.282 L58.896,52.282 L60.56,44.083 L52.983,44.083 L53.556,41.191 L61.133,41.191 L63.44,30.187 Z M64.029,44.066 L62.241,52.282 L69.183,52.282 L70.938,44.066 L64.029,44.066 Z" id="Shape"></path>
                </g>
                <g id="Ultralight-S" transform="translate(32.241155, -0.000000)">
                    <path d="M49.793,0 C22.293,0 0,22.293 0,49.793 C0,77.292 22.293,99.585 49.793,99.585 C77.292,99.585 99.585,77.292 99.585,49.793 C99.585,22.293 77.292,0 49.793,0 Z M39.112,29.544 C41.931,29.561 44.723,30.095 47.349,31.12 L47.349,36.021 C44.495,34.435 41.276,33.626 38.012,33.672 C33.901,33.536 29.931,35.18 27.12,38.183 C24.208,41.504 22.702,45.829 22.921,50.241 C22.704,54.413 24.109,58.508 26.842,61.668 C29.493,64.516 33.254,66.066 37.141,65.913 C40.727,66.002 44.267,65.091 47.365,63.282 L47.349,67.764 C43.961,69.412 40.221,70.202 36.456,70.066 C31.425,70.287 26.543,68.325 23.062,64.685 C19.602,60.808 17.797,55.73 18.033,50.539 C17.79,44.916 19.833,39.434 23.697,35.34 C27.475,31.474 32.706,29.377 38.108,29.564 C38.274,29.557 38.44,29.551 38.606,29.548 C38.775,29.546 38.943,29.546 39.112,29.548 L39.112,29.544 Z M63.44,30.187 L66.909,30.187 L64.606,41.191 L71.498,41.191 L73.851,30.187 L77.212,30.187 L74.909,41.191 L82.095,41.174 L81.473,44.066 L74.315,44.066 L72.606,52.282 L80.29,52.282 L79.56,55.178 L72.025,55.178 L69.618,66.071 L66.174,66.071 L68.527,55.178 L61.681,55.178 L59.378,66.071 L56.017,66.071 L58.32,55.178 L51.1,55.178 L51.643,52.282 L58.896,52.282 L60.56,44.083 L52.983,44.083 L53.556,41.191 L61.133,41.191 L63.44,30.187 Z M64.029,44.066 L62.241,52.282 L69.183,52.282 L70.938,44.066 L64.029,44.066 Z" id="Shape"></path>
                </g>
            </g>
        </g>
    </g>
</svg>