<?xml version="1.0" encoding="UTF-8"?>
<!--Generator: CustomSymbols by @serious_bret-->
<!DOCTYPE svg
        PUBLIC "-//W3C//DTD SVG 1.1//EN"
        "http://www.w3.org/Graphics/SVG/1.1/DTD/svg11.dtd">
<svg version="1.1" xmlns="http://www.w3.org/2000/svg" xmlns:xlink="http://www.w3.org/1999/xlink" width="2900" height="1500">
    <g transform="translate(-200 -200)">
    <!--template writer version: "8"-->
    <g id="Notes">
        <rect height="2200" id="artboard" style="fill:white;opacity:1" width="3300" x="0" y="0"/>
        <line id="" style="fill:none;stroke:black;opacity:1;stroke-width:0.5;" x1="263" x2="3036" y1="292" y2="292"/>
        <text id="reftext1" style="stroke:none;fill:black;font-family:-apple-system,&quot;SF Pro Display&quot;,&quot;SF Pro Text&quot;,Helvetica,sans-serif;font-weight:bold;" transform="matrix(1 0 0 1 263 322)">Weight/Scale Variations</text>
        <text id="reftext2" style="stroke:none;fill:black;font-family:-apple-system,&quot;SF Pro Display&quot;,&quot;SF Pro Text&quot;,Helvetica,sans-serif;text-anchor:middle;" transform="matrix(1 0 0 1 559.711 322)">Ultralight</text>
        <text style="stroke:none;fill:black;font-family:-apple-system,&quot;SF Pro Display&quot;,&quot;SF Pro Text&quot;,Helvetica,sans-serif;text-anchor:middle;" transform="matrix(1 0 0 1 856.422 322)">Thin</text>
        <text style="stroke:none;fill:black;font-family:-apple-system,&quot;SF Pro Display&quot;,&quot;SF Pro Text&quot;,Helvetica,sans-serif;text-anchor:middle;" transform="matrix(1 0 0 1 1153.13 322)">Light</text>
        <text style="stroke:none;fill:black;font-family:-apple-system,&quot;SF Pro Display&quot;,&quot;SF Pro Text&quot;,Helvetica,sans-serif;text-anchor:middle;" transform="matrix(1 0 0 1 1449.84 322)">Regular</text>
        <text style="stroke:none;fill:black;font-family:-apple-system,&quot;SF Pro Display&quot;,&quot;SF Pro Text&quot;,Helvetica,sans-serif;text-anchor:middle;" transform="matrix(1 0 0 1 1746.56 322)">Medium</text>
        <text style="stroke:none;fill:black;font-family:-apple-system,&quot;SF Pro Display&quot;,&quot;SF Pro Text&quot;,Helvetica,sans-serif;text-anchor:middle;" transform="matrix(1 0 0 1 2043.27 322)">Semibold</text>
        <text style="stroke:none;fill:black;font-family:-apple-system,&quot;SF Pro Display&quot;,&quot;SF Pro Text&quot;,Helvetica,sans-serif;text-anchor:middle;" transform="matrix(1 0 0 1 2339.98 322)">Bold</text>
        <text style="stroke:none;fill:black;font-family:-apple-system,&quot;SF Pro Display&quot;,&quot;SF Pro Text&quot;,Helvetica,sans-serif;text-anchor:middle;" transform="matrix(1 0 0 1 2636.69 322)">Heavy</text>
        <text style="stroke:none;fill:black;font-family:-apple-system,&quot;SF Pro Display&quot;,&quot;SF Pro Text&quot;,Helvetica,sans-serif;text-anchor:middle;" transform="matrix(1 0 0 1 2933.4 322)">Black</text>

        <text style="stroke:none;fill:black;font-family:-apple-system,&quot;SF Pro Display&quot;,&quot;SF Pro Text&quot;,Helvetica,sans-serif;" transform="matrix(1 0 0 1 263 726)">Small</text>
        <text style="stroke:none;fill:black;font-family:-apple-system,&quot;SF Pro Display&quot;,&quot;SF Pro Text&quot;,Helvetica,sans-serif;" transform="matrix(1 0 0 1 263 1156)">Medium</text>
        <text style="stroke:none;fill:black;font-family:-apple-system,&quot;SF Pro Display&quot;,&quot;SF Pro Text&quot;,Helvetica,sans-serif;" transform="matrix(1 0 0 1 263 1586)">Large</text>
    </g>
    <g id="Guides">
        <g id="H-reference" style="fill:#27AAE1;stroke:none;" transform="matrix(1 0 0 1 339 696)">
            <path d="M0.976562 0L3.66211 0L12.9883-24.4629L45.752-24.4629L55.127 0L57.7637 0L30.6152-70.459L28.125-70.459ZM29.3457-67.1387L29.4434-67.1387L44.873-26.709L13.8672-26.709Z"/>
        </g>
        <line id="Baseline-S" style="fill:none;stroke:#27AAE1;opacity:1;stroke-width:0.5;" x1="263" x2="3036" y1="696" y2="696"/>
        <line id="Capline-S" style="fill:none;stroke:#27AAE1;opacity:1;stroke-width:0.5;" x1="263" x2="3036" y1="625.541" y2="625.541"/>
        <g id="H-reference" style="fill:#27AAE1;stroke:none;" transform="matrix(1 0 0 1 339 1126)">
            <path d="M0.976562 0L3.66211 0L12.9883-24.4629L45.752-24.4629L55.127 0L57.7637 0L30.6152-70.459L28.125-70.459ZM29.3457-67.1387L29.4434-67.1387L44.873-26.709L13.8672-26.709Z"/>
        </g>
        <line id="Baseline-M" style="fill:none;stroke:#27AAE1;opacity:1;stroke-width:0.5;" x1="263" x2="3036" y1="1126" y2="1126"/>
        <line id="Capline-M" style="fill:none;stroke:#27AAE1;opacity:1;stroke-width:0.5;" x1="263" x2="3036" y1="1055.54" y2="1055.54"/>
        <g id="H-reference" style="fill:#27AAE1;stroke:none;" transform="matrix(1 0 0 1 339 1556)">
            <path d="M0.976562 0L3.66211 0L12.9883-24.4629L45.752-24.4629L55.127 0L57.7637 0L30.6152-70.459L28.125-70.459ZM29.3457-67.1387L29.4434-67.1387L44.873-26.709L13.8672-26.709Z"/>
        </g>
        <line id="Baseline-L" style="fill:none;stroke:#27AAE1;opacity:1;stroke-width:0.5;" x1="263" x2="3036" y1="1556" y2="1556"/>
        <line id="Capline-L" style="fill:none;stroke:#27AAE1;opacity:1;stroke-width:0.5;" x1="263" x2="3036" y1="1485.54" y2="1485.54"/>
        <line id="left-margin" x1="1417.3214020285482" x2="1417.3214020285482" y1="1030.79" y2="1150.12" style="fill:none;stroke:#00AEEF;stroke-width:0.5;opacity:1.0;"/>
        <line id="right-margin" x1="1484.9385979714516" x2="1484.9385979714516" y1="1030.79" y2="1150.12" style="fill:none;stroke:#00AEEF;stroke-width:0.5;opacity:1.0;"/>
    </g>
    <g id="Symbols">
        <g id="Black-L" transform="matrix(1.0,0.0,0.0,1.0,2869.1948778030437,1455.2848973342939)">  <path fill="#000000" stroke-width="1px" stroke="none" role="img" stroke-linecap="butt" fill-opacity="1" stroke-miterlimit="4" stroke-dasharray="none" stroke-opacity="1" fill-rule="nonzero" stroke-linejoin="miter" d="M77.764,0.982L82.675,2.074L86.659,3.493L89.878,5.13L92.334,6.876L94.189,8.731L95.554,10.587L96.427,12.388L96.973,14.025L97.191,15.444L97.3,16.535L97.245,17.244L97.245,46.385L96.973,49.823L96.263,52.825L95.117,55.335L93.698,57.409L92.061,59.1L90.26,60.465L88.35,61.501L86.44,62.265L84.64,62.811L83.002,63.193L81.584,63.411L80.438,63.521L47.859,63.521L44.093,63.793L40.874,64.557L38.145,65.758L35.908,67.231L34.107,68.978L32.633,70.888L31.542,72.852L30.723,74.871L30.178,76.781L29.796,78.528L29.577,80.001L29.468,81.147L29.468,97.846L17.299,97.846L16.153,97.682L14.625,97.3L12.879,96.645L10.969,95.663L9.004,94.244L7.04,92.279L5.13,89.769L3.383,86.55L1.855,82.566L0.709,77.764L-0.055,72.034L-0.327,65.321L0,58.664L0.873,52.988L2.183,48.241L3.929,44.366L5.894,41.256L8.076,38.855L10.368,37.054L12.66,35.744L14.843,34.871L16.808,34.325L18.554,34.052L19.864,33.998L20.737,33.998L21.064,34.052L65.594,34.052L65.594,29.523L33.725,29.523L33.67,14.516L33.561,12.497L33.834,10.641L34.434,8.95L35.362,7.422L36.726,6.003L38.418,4.748L40.492,3.656L42.893,2.674L45.676,1.855L48.841,1.201L52.334,0.655L56.208,0.327L60.41,0.109L64.994,0L71.924,0.273ZM43.384,11.787L42.129,13.588L41.692,15.826L42.129,18.063L43.384,19.918L45.185,21.119L47.422,21.61L49.66,21.119L51.46,19.918L52.716,18.063L53.152,15.826L52.716,13.588L51.46,11.787L49.66,10.587L47.422,10.096L45.185,10.587ZM114.817,33.343L116.345,33.67L118.092,34.325L120.001,35.307L121.966,36.781L123.931,38.691L125.841,41.256L127.587,44.475L129.115,48.459L130.261,53.261L131.025,58.937L131.298,65.649L130.97,72.361L130.097,78.036L128.787,82.73L127.041,86.604L125.077,89.715L122.894,92.17L120.602,93.971L118.31,95.281L116.127,96.154L114.162,96.645L112.416,96.918L111.106,97.027L110.233,96.973L65.376,96.973L65.376,101.447L97.245,101.447L97.3,116.509L97.409,118.474L97.136,120.329L96.536,122.021L95.608,123.603L94.244,124.967L92.552,126.277L90.479,127.369L88.077,128.296L85.294,129.115L82.129,129.824L78.637,130.315L74.762,130.697L70.56,130.916L65.976,130.97L59.046,130.752L53.207,129.988L48.295,128.897L44.312,127.532L41.092,125.895L38.636,124.094L36.781,122.239L35.417,120.383L34.543,118.583L33.998,116.946L33.779,115.581L33.67,114.49L33.725,113.78L33.725,84.64L33.998,81.147L34.707,78.2L35.853,75.69L37.272,73.616L38.909,71.87L40.71,70.56L42.62,69.469L44.53,68.705L46.331,68.159L47.968,67.832L49.387,67.613L50.533,67.504L51.242,67.45L83.112,67.45L86.877,67.177L90.097,66.413L92.825,65.267L95.063,63.739L96.863,61.993L98.337,60.083L99.428,58.118L100.247,56.153L100.793,54.244L101.175,52.497L101.393,50.969L101.502,49.823L101.502,33.125L112.907,33.125L113.671,33.179ZM79.51,111.106L78.255,112.907L77.818,115.145L78.255,117.382L79.51,119.183L81.311,120.438L83.548,120.875L85.786,120.438L87.586,119.183L88.841,117.382L89.278,115.145L88.841,112.907L87.586,111.106L85.786,109.851L83.548,109.415L81.311,109.851ZM79.51,111.106"/>
</g>
        <g id="Heavy-L" transform="matrix(1.0,0.0,0.0,1.0,2572.4848778030437,1455.2848973342939)">  <path stroke-opacity="1" fill="#000000" fill-opacity="1" stroke="none" stroke-miterlimit="4" stroke-linecap="butt" stroke-width="1px" fill-rule="nonzero" stroke-linejoin="miter" stroke-dasharray="none" role="img" d="M77.764,0.982L82.675,2.074L86.659,3.493L89.878,5.13L92.334,6.876L94.189,8.731L95.554,10.587L96.427,12.388L96.973,14.025L97.191,15.444L97.3,16.535L97.245,17.244L97.245,46.385L96.973,49.823L96.263,52.825L95.117,55.335L93.698,57.409L92.061,59.1L90.26,60.465L88.35,61.501L86.44,62.265L84.64,62.811L83.002,63.193L81.584,63.411L80.438,63.521L47.859,63.521L44.093,63.793L40.874,64.557L38.145,65.758L35.908,67.231L34.107,68.978L32.633,70.888L31.542,72.852L30.723,74.871L30.178,76.781L29.796,78.528L29.577,80.001L29.468,81.147L29.468,97.846L17.299,97.846L16.153,97.682L14.625,97.3L12.879,96.645L10.969,95.663L9.004,94.244L7.04,92.279L5.13,89.769L3.383,86.55L1.855,82.566L0.709,77.764L-0.055,72.034L-0.327,65.321L0,58.664L0.873,52.988L2.183,48.241L3.929,44.366L5.894,41.256L8.076,38.855L10.368,37.054L12.66,35.744L14.843,34.871L16.808,34.325L18.554,34.052L19.864,33.998L20.737,33.998L21.064,34.052L65.594,34.052L65.594,29.523L33.725,29.523L33.67,14.516L33.561,12.497L33.834,10.641L34.434,8.95L35.362,7.422L36.726,6.003L38.418,4.748L40.492,3.656L42.893,2.674L45.676,1.855L48.841,1.201L52.334,0.655L56.208,0.327L60.41,0.109L64.994,0L71.924,0.273ZM43.384,11.787L42.129,13.588L41.692,15.826L42.129,18.063L43.384,19.918L45.185,21.119L47.422,21.61L49.66,21.119L51.46,19.918L52.716,18.063L53.152,15.826L52.716,13.588L51.46,11.787L49.66,10.587L47.422,10.096L45.185,10.587ZM114.817,33.343L116.345,33.67L118.092,34.325L120.001,35.307L121.966,36.781L123.931,38.691L125.841,41.256L127.587,44.475L129.115,48.459L130.261,53.261L131.025,58.937L131.298,65.649L130.97,72.361L130.097,78.036L128.787,82.73L127.041,86.604L125.077,89.715L122.894,92.17L120.602,93.971L118.31,95.281L116.127,96.154L114.162,96.645L112.416,96.918L111.106,97.027L110.233,96.973L65.376,96.973L65.376,101.447L97.245,101.447L97.3,116.509L97.409,118.474L97.136,120.329L96.536,122.021L95.608,123.603L94.244,124.967L92.552,126.277L90.479,127.369L88.077,128.296L85.294,129.115L82.129,129.824L78.637,130.315L74.762,130.697L70.56,130.916L65.976,130.97L59.046,130.752L53.207,129.988L48.295,128.897L44.312,127.532L41.092,125.895L38.636,124.094L36.781,122.239L35.417,120.383L34.543,118.583L33.998,116.946L33.779,115.581L33.67,114.49L33.725,113.78L33.725,84.64L33.998,81.147L34.707,78.2L35.853,75.69L37.272,73.616L38.909,71.87L40.71,70.56L42.62,69.469L44.53,68.705L46.331,68.159L47.968,67.832L49.387,67.613L50.533,67.504L51.242,67.45L83.112,67.45L86.877,67.177L90.097,66.413L92.825,65.267L95.063,63.739L96.863,61.993L98.337,60.083L99.428,58.118L100.247,56.153L100.793,54.244L101.175,52.497L101.393,50.969L101.502,49.823L101.502,33.125L112.907,33.125L113.671,33.179ZM79.51,111.106L78.255,112.907L77.818,115.145L78.255,117.382L79.51,119.183L81.311,120.438L83.548,120.875L85.786,120.438L87.586,119.183L88.841,117.382L89.278,115.145L88.841,112.907L87.586,111.106L85.786,109.851L83.548,109.415L81.311,109.851ZM79.51,111.106"/>
</g>
        <g id="Bold-L" transform="matrix(1.0,0.0,0.0,1.0,2275.7748778030436,1455.2848973342939)">  <path stroke-opacity="1" fill-opacity="1" stroke-dasharray="none" stroke-linejoin="miter" stroke-width="1px" fill="#000000" stroke-linecap="butt" stroke="none" stroke-miterlimit="4" fill-rule="nonzero" role="img" d="M77.764,0.982L82.675,2.074L86.659,3.493L89.878,5.13L92.334,6.876L94.189,8.731L95.554,10.587L96.427,12.388L96.973,14.025L97.191,15.444L97.3,16.535L97.245,17.244L97.245,46.385L96.973,49.823L96.263,52.825L95.117,55.335L93.698,57.409L92.061,59.1L90.26,60.465L88.35,61.501L86.44,62.265L84.64,62.811L83.002,63.193L81.584,63.411L80.438,63.521L47.859,63.521L44.093,63.793L40.874,64.557L38.145,65.758L35.908,67.231L34.107,68.978L32.633,70.888L31.542,72.852L30.723,74.871L30.178,76.781L29.796,78.528L29.577,80.001L29.468,81.147L29.468,97.846L17.299,97.846L16.153,97.682L14.625,97.3L12.879,96.645L10.969,95.663L9.004,94.244L7.04,92.279L5.13,89.769L3.383,86.55L1.855,82.566L0.709,77.764L-0.055,72.034L-0.327,65.321L0,58.664L0.873,52.988L2.183,48.241L3.929,44.366L5.894,41.256L8.076,38.855L10.368,37.054L12.66,35.744L14.843,34.871L16.808,34.325L18.554,34.052L19.864,33.998L20.737,33.998L21.064,34.052L65.594,34.052L65.594,29.523L33.725,29.523L33.67,14.516L33.561,12.497L33.834,10.641L34.434,8.95L35.362,7.422L36.726,6.003L38.418,4.748L40.492,3.656L42.893,2.674L45.676,1.855L48.841,1.201L52.334,0.655L56.208,0.327L60.41,0.109L64.994,0L71.924,0.273ZM43.384,11.787L42.129,13.588L41.692,15.826L42.129,18.063L43.384,19.918L45.185,21.119L47.422,21.61L49.66,21.119L51.46,19.918L52.716,18.063L53.152,15.826L52.716,13.588L51.46,11.787L49.66,10.587L47.422,10.096L45.185,10.587ZM114.817,33.343L116.345,33.67L118.092,34.325L120.001,35.307L121.966,36.781L123.931,38.691L125.841,41.256L127.587,44.475L129.115,48.459L130.261,53.261L131.025,58.937L131.298,65.649L130.97,72.361L130.097,78.036L128.787,82.73L127.041,86.604L125.077,89.715L122.894,92.17L120.602,93.971L118.31,95.281L116.127,96.154L114.162,96.645L112.416,96.918L111.106,97.027L110.233,96.973L65.376,96.973L65.376,101.447L97.245,101.447L97.3,116.509L97.409,118.474L97.136,120.329L96.536,122.021L95.608,123.603L94.244,124.967L92.552,126.277L90.479,127.369L88.077,128.296L85.294,129.115L82.129,129.824L78.637,130.315L74.762,130.697L70.56,130.916L65.976,130.97L59.046,130.752L53.207,129.988L48.295,128.897L44.312,127.532L41.092,125.895L38.636,124.094L36.781,122.239L35.417,120.383L34.543,118.583L33.998,116.946L33.779,115.581L33.67,114.49L33.725,113.78L33.725,84.64L33.998,81.147L34.707,78.2L35.853,75.69L37.272,73.616L38.909,71.87L40.71,70.56L42.62,69.469L44.53,68.705L46.331,68.159L47.968,67.832L49.387,67.613L50.533,67.504L51.242,67.45L83.112,67.45L86.877,67.177L90.097,66.413L92.825,65.267L95.063,63.739L96.863,61.993L98.337,60.083L99.428,58.118L100.247,56.153L100.793,54.244L101.175,52.497L101.393,50.969L101.502,49.823L101.502,33.125L112.907,33.125L113.671,33.179ZM79.51,111.106L78.255,112.907L77.818,115.145L78.255,117.382L79.51,119.183L81.311,120.438L83.548,120.875L85.786,120.438L87.586,119.183L88.841,117.382L89.278,115.145L88.841,112.907L87.586,111.106L85.786,109.851L83.548,109.415L81.311,109.851ZM79.51,111.106"/>
</g>
        <g id="Semibold-L" transform="matrix(1.0,0.0,0.0,1.0,1979.0648778030438,1455.2848973342939)">  <path stroke-opacity="1" fill="#000000" stroke-width="1px" stroke="none" stroke-miterlimit="4" role="img" stroke-linejoin="miter" stroke-linecap="butt" stroke-dasharray="none" fill-opacity="1" fill-rule="nonzero" d="M77.764,0.982L82.675,2.074L86.659,3.493L89.878,5.13L92.334,6.876L94.189,8.731L95.554,10.587L96.427,12.388L96.973,14.025L97.191,15.444L97.3,16.535L97.245,17.244L97.245,46.385L96.973,49.823L96.263,52.825L95.117,55.335L93.698,57.409L92.061,59.1L90.26,60.465L88.35,61.501L86.44,62.265L84.64,62.811L83.002,63.193L81.584,63.411L80.438,63.521L47.859,63.521L44.093,63.793L40.874,64.557L38.145,65.758L35.908,67.231L34.107,68.978L32.633,70.888L31.542,72.852L30.723,74.871L30.178,76.781L29.796,78.528L29.577,80.001L29.468,81.147L29.468,97.846L17.299,97.846L16.153,97.682L14.625,97.3L12.879,96.645L10.969,95.663L9.004,94.244L7.04,92.279L5.13,89.769L3.383,86.55L1.855,82.566L0.709,77.764L-0.055,72.034L-0.327,65.321L0,58.664L0.873,52.988L2.183,48.241L3.929,44.366L5.894,41.256L8.076,38.855L10.368,37.054L12.66,35.744L14.843,34.871L16.808,34.325L18.554,34.052L19.864,33.998L20.737,33.998L21.064,34.052L65.594,34.052L65.594,29.523L33.725,29.523L33.67,14.516L33.561,12.497L33.834,10.641L34.434,8.95L35.362,7.422L36.726,6.003L38.418,4.748L40.492,3.656L42.893,2.674L45.676,1.855L48.841,1.201L52.334,0.655L56.208,0.327L60.41,0.109L64.994,0L71.924,0.273ZM43.384,11.787L42.129,13.588L41.692,15.826L42.129,18.063L43.384,19.918L45.185,21.119L47.422,21.61L49.66,21.119L51.46,19.918L52.716,18.063L53.152,15.826L52.716,13.588L51.46,11.787L49.66,10.587L47.422,10.096L45.185,10.587ZM114.817,33.343L116.345,33.67L118.092,34.325L120.001,35.307L121.966,36.781L123.931,38.691L125.841,41.256L127.587,44.475L129.115,48.459L130.261,53.261L131.025,58.937L131.298,65.649L130.97,72.361L130.097,78.036L128.787,82.73L127.041,86.604L125.077,89.715L122.894,92.17L120.602,93.971L118.31,95.281L116.127,96.154L114.162,96.645L112.416,96.918L111.106,97.027L110.233,96.973L65.376,96.973L65.376,101.447L97.245,101.447L97.3,116.509L97.409,118.474L97.136,120.329L96.536,122.021L95.608,123.603L94.244,124.967L92.552,126.277L90.479,127.369L88.077,128.296L85.294,129.115L82.129,129.824L78.637,130.315L74.762,130.697L70.56,130.916L65.976,130.97L59.046,130.752L53.207,129.988L48.295,128.897L44.312,127.532L41.092,125.895L38.636,124.094L36.781,122.239L35.417,120.383L34.543,118.583L33.998,116.946L33.779,115.581L33.67,114.49L33.725,113.78L33.725,84.64L33.998,81.147L34.707,78.2L35.853,75.69L37.272,73.616L38.909,71.87L40.71,70.56L42.62,69.469L44.53,68.705L46.331,68.159L47.968,67.832L49.387,67.613L50.533,67.504L51.242,67.45L83.112,67.45L86.877,67.177L90.097,66.413L92.825,65.267L95.063,63.739L96.863,61.993L98.337,60.083L99.428,58.118L100.247,56.153L100.793,54.244L101.175,52.497L101.393,50.969L101.502,49.823L101.502,33.125L112.907,33.125L113.671,33.179ZM79.51,111.106L78.255,112.907L77.818,115.145L78.255,117.382L79.51,119.183L81.311,120.438L83.548,120.875L85.786,120.438L87.586,119.183L88.841,117.382L89.278,115.145L88.841,112.907L87.586,111.106L85.786,109.851L83.548,109.415L81.311,109.851ZM79.51,111.106"/>
</g>
        <g id="Medium-L" transform="matrix(1.0,0.0,0.0,1.0,1682.3548778030438,1455.2848973342939)">  <path stroke-linecap="butt" stroke="none" stroke-opacity="1" fill-rule="nonzero" role="img" stroke-linejoin="miter" stroke-width="1px" fill="#000000" stroke-dasharray="none" stroke-miterlimit="4" fill-opacity="1" d="M77.764,0.982L82.675,2.074L86.659,3.493L89.878,5.13L92.334,6.876L94.189,8.731L95.554,10.587L96.427,12.388L96.973,14.025L97.191,15.444L97.3,16.535L97.245,17.244L97.245,46.385L96.973,49.823L96.263,52.825L95.117,55.335L93.698,57.409L92.061,59.1L90.26,60.465L88.35,61.501L86.44,62.265L84.64,62.811L83.002,63.193L81.584,63.411L80.438,63.521L47.859,63.521L44.093,63.793L40.874,64.557L38.145,65.758L35.908,67.231L34.107,68.978L32.633,70.888L31.542,72.852L30.723,74.871L30.178,76.781L29.796,78.528L29.577,80.001L29.468,81.147L29.468,97.846L17.299,97.846L16.153,97.682L14.625,97.3L12.879,96.645L10.969,95.663L9.004,94.244L7.04,92.279L5.13,89.769L3.383,86.55L1.855,82.566L0.709,77.764L-0.055,72.034L-0.327,65.321L0,58.664L0.873,52.988L2.183,48.241L3.929,44.366L5.894,41.256L8.076,38.855L10.368,37.054L12.66,35.744L14.843,34.871L16.808,34.325L18.554,34.052L19.864,33.998L20.737,33.998L21.064,34.052L65.594,34.052L65.594,29.523L33.725,29.523L33.67,14.516L33.561,12.497L33.834,10.641L34.434,8.95L35.362,7.422L36.726,6.003L38.418,4.748L40.492,3.656L42.893,2.674L45.676,1.855L48.841,1.201L52.334,0.655L56.208,0.327L60.41,0.109L64.994,0L71.924,0.273ZM43.384,11.787L42.129,13.588L41.692,15.826L42.129,18.063L43.384,19.918L45.185,21.119L47.422,21.61L49.66,21.119L51.46,19.918L52.716,18.063L53.152,15.826L52.716,13.588L51.46,11.787L49.66,10.587L47.422,10.096L45.185,10.587ZM114.817,33.343L116.345,33.67L118.092,34.325L120.001,35.307L121.966,36.781L123.931,38.691L125.841,41.256L127.587,44.475L129.115,48.459L130.261,53.261L131.025,58.937L131.298,65.649L130.97,72.361L130.097,78.036L128.787,82.73L127.041,86.604L125.077,89.715L122.894,92.17L120.602,93.971L118.31,95.281L116.127,96.154L114.162,96.645L112.416,96.918L111.106,97.027L110.233,96.973L65.376,96.973L65.376,101.447L97.245,101.447L97.3,116.509L97.409,118.474L97.136,120.329L96.536,122.021L95.608,123.603L94.244,124.967L92.552,126.277L90.479,127.369L88.077,128.296L85.294,129.115L82.129,129.824L78.637,130.315L74.762,130.697L70.56,130.916L65.976,130.97L59.046,130.752L53.207,129.988L48.295,128.897L44.312,127.532L41.092,125.895L38.636,124.094L36.781,122.239L35.417,120.383L34.543,118.583L33.998,116.946L33.779,115.581L33.67,114.49L33.725,113.78L33.725,84.64L33.998,81.147L34.707,78.2L35.853,75.69L37.272,73.616L38.909,71.87L40.71,70.56L42.62,69.469L44.53,68.705L46.331,68.159L47.968,67.832L49.387,67.613L50.533,67.504L51.242,67.45L83.112,67.45L86.877,67.177L90.097,66.413L92.825,65.267L95.063,63.739L96.863,61.993L98.337,60.083L99.428,58.118L100.247,56.153L100.793,54.244L101.175,52.497L101.393,50.969L101.502,49.823L101.502,33.125L112.907,33.125L113.671,33.179ZM79.51,111.106L78.255,112.907L77.818,115.145L78.255,117.382L79.51,119.183L81.311,120.438L83.548,120.875L85.786,120.438L87.586,119.183L88.841,117.382L89.278,115.145L88.841,112.907L87.586,111.106L85.786,109.851L83.548,109.415L81.311,109.851ZM79.51,111.106"/>
</g>
        <g id="Regular-L" transform="matrix(1.0,0.0,0.0,1.0,1385.6448778030438,1455.2848973342939)">  <path stroke="none" fill-opacity="1" stroke-miterlimit="4" stroke-linecap="butt" stroke-dasharray="none" stroke-linejoin="miter" fill-rule="nonzero" stroke-opacity="1" fill="#000000" role="img" stroke-width="1px" d="M77.764,0.982L82.675,2.074L86.659,3.493L89.878,5.13L92.334,6.876L94.189,8.731L95.554,10.587L96.427,12.388L96.973,14.025L97.191,15.444L97.3,16.535L97.245,17.244L97.245,46.385L96.973,49.823L96.263,52.825L95.117,55.335L93.698,57.409L92.061,59.1L90.26,60.465L88.35,61.501L86.44,62.265L84.64,62.811L83.002,63.193L81.584,63.411L80.438,63.521L47.859,63.521L44.093,63.793L40.874,64.557L38.145,65.758L35.908,67.231L34.107,68.978L32.633,70.888L31.542,72.852L30.723,74.871L30.178,76.781L29.796,78.528L29.577,80.001L29.468,81.147L29.468,97.846L17.299,97.846L16.153,97.682L14.625,97.3L12.879,96.645L10.969,95.663L9.004,94.244L7.04,92.279L5.13,89.769L3.383,86.55L1.855,82.566L0.709,77.764L-0.055,72.034L-0.327,65.321L0,58.664L0.873,52.988L2.183,48.241L3.929,44.366L5.894,41.256L8.076,38.855L10.368,37.054L12.66,35.744L14.843,34.871L16.808,34.325L18.554,34.052L19.864,33.998L20.737,33.998L21.064,34.052L65.594,34.052L65.594,29.523L33.725,29.523L33.67,14.516L33.561,12.497L33.834,10.641L34.434,8.95L35.362,7.422L36.726,6.003L38.418,4.748L40.492,3.656L42.893,2.674L45.676,1.855L48.841,1.201L52.334,0.655L56.208,0.327L60.41,0.109L64.994,0L71.924,0.273ZM43.384,11.787L42.129,13.588L41.692,15.826L42.129,18.063L43.384,19.918L45.185,21.119L47.422,21.61L49.66,21.119L51.46,19.918L52.716,18.063L53.152,15.826L52.716,13.588L51.46,11.787L49.66,10.587L47.422,10.096L45.185,10.587ZM114.817,33.343L116.345,33.67L118.092,34.325L120.001,35.307L121.966,36.781L123.931,38.691L125.841,41.256L127.587,44.475L129.115,48.459L130.261,53.261L131.025,58.937L131.298,65.649L130.97,72.361L130.097,78.036L128.787,82.73L127.041,86.604L125.077,89.715L122.894,92.17L120.602,93.971L118.31,95.281L116.127,96.154L114.162,96.645L112.416,96.918L111.106,97.027L110.233,96.973L65.376,96.973L65.376,101.447L97.245,101.447L97.3,116.509L97.409,118.474L97.136,120.329L96.536,122.021L95.608,123.603L94.244,124.967L92.552,126.277L90.479,127.369L88.077,128.296L85.294,129.115L82.129,129.824L78.637,130.315L74.762,130.697L70.56,130.916L65.976,130.97L59.046,130.752L53.207,129.988L48.295,128.897L44.312,127.532L41.092,125.895L38.636,124.094L36.781,122.239L35.417,120.383L34.543,118.583L33.998,116.946L33.779,115.581L33.67,114.49L33.725,113.78L33.725,84.64L33.998,81.147L34.707,78.2L35.853,75.69L37.272,73.616L38.909,71.87L40.71,70.56L42.62,69.469L44.53,68.705L46.331,68.159L47.968,67.832L49.387,67.613L50.533,67.504L51.242,67.45L83.112,67.45L86.877,67.177L90.097,66.413L92.825,65.267L95.063,63.739L96.863,61.993L98.337,60.083L99.428,58.118L100.247,56.153L100.793,54.244L101.175,52.497L101.393,50.969L101.502,49.823L101.502,33.125L112.907,33.125L113.671,33.179ZM79.51,111.106L78.255,112.907L77.818,115.145L78.255,117.382L79.51,119.183L81.311,120.438L83.548,120.875L85.786,120.438L87.586,119.183L88.841,117.382L89.278,115.145L88.841,112.907L87.586,111.106L85.786,109.851L83.548,109.415L81.311,109.851ZM79.51,111.106"/>
</g>
        <g id="Light-L" transform="matrix(1.0,0.0,0.0,1.0,1088.934877803044,1455.2848973342939)">  <path stroke-dasharray="none" stroke-linejoin="miter" stroke-linecap="butt" role="img" stroke="none" stroke-opacity="1" fill="#000000" stroke-miterlimit="4" fill-rule="nonzero" stroke-width="1px" fill-opacity="1" d="M77.764,0.982L82.675,2.074L86.659,3.493L89.878,5.13L92.334,6.876L94.189,8.731L95.554,10.587L96.427,12.388L96.973,14.025L97.191,15.444L97.3,16.535L97.245,17.244L97.245,46.385L96.973,49.823L96.263,52.825L95.117,55.335L93.698,57.409L92.061,59.1L90.26,60.465L88.35,61.501L86.44,62.265L84.64,62.811L83.002,63.193L81.584,63.411L80.438,63.521L47.859,63.521L44.093,63.793L40.874,64.557L38.145,65.758L35.908,67.231L34.107,68.978L32.633,70.888L31.542,72.852L30.723,74.871L30.178,76.781L29.796,78.528L29.577,80.001L29.468,81.147L29.468,97.846L17.299,97.846L16.153,97.682L14.625,97.3L12.879,96.645L10.969,95.663L9.004,94.244L7.04,92.279L5.13,89.769L3.383,86.55L1.855,82.566L0.709,77.764L-0.055,72.034L-0.327,65.321L0,58.664L0.873,52.988L2.183,48.241L3.929,44.366L5.894,41.256L8.076,38.855L10.368,37.054L12.66,35.744L14.843,34.871L16.808,34.325L18.554,34.052L19.864,33.998L20.737,33.998L21.064,34.052L65.594,34.052L65.594,29.523L33.725,29.523L33.67,14.516L33.561,12.497L33.834,10.641L34.434,8.95L35.362,7.422L36.726,6.003L38.418,4.748L40.492,3.656L42.893,2.674L45.676,1.855L48.841,1.201L52.334,0.655L56.208,0.327L60.41,0.109L64.994,0L71.924,0.273ZM43.384,11.787L42.129,13.588L41.692,15.826L42.129,18.063L43.384,19.918L45.185,21.119L47.422,21.61L49.66,21.119L51.46,19.918L52.716,18.063L53.152,15.826L52.716,13.588L51.46,11.787L49.66,10.587L47.422,10.096L45.185,10.587ZM114.817,33.343L116.345,33.67L118.092,34.325L120.001,35.307L121.966,36.781L123.931,38.691L125.841,41.256L127.587,44.475L129.115,48.459L130.261,53.261L131.025,58.937L131.298,65.649L130.97,72.361L130.097,78.036L128.787,82.73L127.041,86.604L125.077,89.715L122.894,92.17L120.602,93.971L118.31,95.281L116.127,96.154L114.162,96.645L112.416,96.918L111.106,97.027L110.233,96.973L65.376,96.973L65.376,101.447L97.245,101.447L97.3,116.509L97.409,118.474L97.136,120.329L96.536,122.021L95.608,123.603L94.244,124.967L92.552,126.277L90.479,127.369L88.077,128.296L85.294,129.115L82.129,129.824L78.637,130.315L74.762,130.697L70.56,130.916L65.976,130.97L59.046,130.752L53.207,129.988L48.295,128.897L44.312,127.532L41.092,125.895L38.636,124.094L36.781,122.239L35.417,120.383L34.543,118.583L33.998,116.946L33.779,115.581L33.67,114.49L33.725,113.78L33.725,84.64L33.998,81.147L34.707,78.2L35.853,75.69L37.272,73.616L38.909,71.87L40.71,70.56L42.62,69.469L44.53,68.705L46.331,68.159L47.968,67.832L49.387,67.613L50.533,67.504L51.242,67.45L83.112,67.45L86.877,67.177L90.097,66.413L92.825,65.267L95.063,63.739L96.863,61.993L98.337,60.083L99.428,58.118L100.247,56.153L100.793,54.244L101.175,52.497L101.393,50.969L101.502,49.823L101.502,33.125L112.907,33.125L113.671,33.179ZM79.51,111.106L78.255,112.907L77.818,115.145L78.255,117.382L79.51,119.183L81.311,120.438L83.548,120.875L85.786,120.438L87.586,119.183L88.841,117.382L89.278,115.145L88.841,112.907L87.586,111.106L85.786,109.851L83.548,109.415L81.311,109.851ZM79.51,111.106"/>
</g>
        <g id="Thin-L" transform="matrix(1.0,0.0,0.0,1.0,792.224877803044,1455.2848973342939)">  <path fill-opacity="1" stroke-linecap="butt" stroke-linejoin="miter" stroke-miterlimit="4" fill-rule="nonzero" stroke="none" stroke-dasharray="none" fill="#000000" stroke-opacity="1" role="img" stroke-width="1px" d="M77.764,0.982L82.675,2.074L86.659,3.493L89.878,5.13L92.334,6.876L94.189,8.731L95.554,10.587L96.427,12.388L96.973,14.025L97.191,15.444L97.3,16.535L97.245,17.244L97.245,46.385L96.973,49.823L96.263,52.825L95.117,55.335L93.698,57.409L92.061,59.1L90.26,60.465L88.35,61.501L86.44,62.265L84.64,62.811L83.002,63.193L81.584,63.411L80.438,63.521L47.859,63.521L44.093,63.793L40.874,64.557L38.145,65.758L35.908,67.231L34.107,68.978L32.633,70.888L31.542,72.852L30.723,74.871L30.178,76.781L29.796,78.528L29.577,80.001L29.468,81.147L29.468,97.846L17.299,97.846L16.153,97.682L14.625,97.3L12.879,96.645L10.969,95.663L9.004,94.244L7.04,92.279L5.13,89.769L3.383,86.55L1.855,82.566L0.709,77.764L-0.055,72.034L-0.327,65.321L0,58.664L0.873,52.988L2.183,48.241L3.929,44.366L5.894,41.256L8.076,38.855L10.368,37.054L12.66,35.744L14.843,34.871L16.808,34.325L18.554,34.052L19.864,33.998L20.737,33.998L21.064,34.052L65.594,34.052L65.594,29.523L33.725,29.523L33.67,14.516L33.561,12.497L33.834,10.641L34.434,8.95L35.362,7.422L36.726,6.003L38.418,4.748L40.492,3.656L42.893,2.674L45.676,1.855L48.841,1.201L52.334,0.655L56.208,0.327L60.41,0.109L64.994,0L71.924,0.273ZM43.384,11.787L42.129,13.588L41.692,15.826L42.129,18.063L43.384,19.918L45.185,21.119L47.422,21.61L49.66,21.119L51.46,19.918L52.716,18.063L53.152,15.826L52.716,13.588L51.46,11.787L49.66,10.587L47.422,10.096L45.185,10.587ZM114.817,33.343L116.345,33.67L118.092,34.325L120.001,35.307L121.966,36.781L123.931,38.691L125.841,41.256L127.587,44.475L129.115,48.459L130.261,53.261L131.025,58.937L131.298,65.649L130.97,72.361L130.097,78.036L128.787,82.73L127.041,86.604L125.077,89.715L122.894,92.17L120.602,93.971L118.31,95.281L116.127,96.154L114.162,96.645L112.416,96.918L111.106,97.027L110.233,96.973L65.376,96.973L65.376,101.447L97.245,101.447L97.3,116.509L97.409,118.474L97.136,120.329L96.536,122.021L95.608,123.603L94.244,124.967L92.552,126.277L90.479,127.369L88.077,128.296L85.294,129.115L82.129,129.824L78.637,130.315L74.762,130.697L70.56,130.916L65.976,130.97L59.046,130.752L53.207,129.988L48.295,128.897L44.312,127.532L41.092,125.895L38.636,124.094L36.781,122.239L35.417,120.383L34.543,118.583L33.998,116.946L33.779,115.581L33.67,114.49L33.725,113.78L33.725,84.64L33.998,81.147L34.707,78.2L35.853,75.69L37.272,73.616L38.909,71.87L40.71,70.56L42.62,69.469L44.53,68.705L46.331,68.159L47.968,67.832L49.387,67.613L50.533,67.504L51.242,67.45L83.112,67.45L86.877,67.177L90.097,66.413L92.825,65.267L95.063,63.739L96.863,61.993L98.337,60.083L99.428,58.118L100.247,56.153L100.793,54.244L101.175,52.497L101.393,50.969L101.502,49.823L101.502,33.125L112.907,33.125L113.671,33.179ZM79.51,111.106L78.255,112.907L77.818,115.145L78.255,117.382L79.51,119.183L81.311,120.438L83.548,120.875L85.786,120.438L87.586,119.183L88.841,117.382L89.278,115.145L88.841,112.907L87.586,111.106L85.786,109.851L83.548,109.415L81.311,109.851ZM79.51,111.106"/>
</g>
        <g id="Ultralight-L" transform="matrix(1.0,0.0,0.0,1.0,495.51487780304393,1455.2848973342939)">  <path stroke-dasharray="none" stroke-linejoin="miter" stroke-opacity="1" stroke-miterlimit="4" stroke="none" fill-rule="nonzero" stroke-linecap="butt" stroke-width="1px" fill-opacity="1" role="img" fill="#000000" d="M77.764,0.982L82.675,2.074L86.659,3.493L89.878,5.13L92.334,6.876L94.189,8.731L95.554,10.587L96.427,12.388L96.973,14.025L97.191,15.444L97.3,16.535L97.245,17.244L97.245,46.385L96.973,49.823L96.263,52.825L95.117,55.335L93.698,57.409L92.061,59.1L90.26,60.465L88.35,61.501L86.44,62.265L84.64,62.811L83.002,63.193L81.584,63.411L80.438,63.521L47.859,63.521L44.093,63.793L40.874,64.557L38.145,65.758L35.908,67.231L34.107,68.978L32.633,70.888L31.542,72.852L30.723,74.871L30.178,76.781L29.796,78.528L29.577,80.001L29.468,81.147L29.468,97.846L17.299,97.846L16.153,97.682L14.625,97.3L12.879,96.645L10.969,95.663L9.004,94.244L7.04,92.279L5.13,89.769L3.383,86.55L1.855,82.566L0.709,77.764L-0.055,72.034L-0.327,65.321L0,58.664L0.873,52.988L2.183,48.241L3.929,44.366L5.894,41.256L8.076,38.855L10.368,37.054L12.66,35.744L14.843,34.871L16.808,34.325L18.554,34.052L19.864,33.998L20.737,33.998L21.064,34.052L65.594,34.052L65.594,29.523L33.725,29.523L33.67,14.516L33.561,12.497L33.834,10.641L34.434,8.95L35.362,7.422L36.726,6.003L38.418,4.748L40.492,3.656L42.893,2.674L45.676,1.855L48.841,1.201L52.334,0.655L56.208,0.327L60.41,0.109L64.994,0L71.924,0.273ZM43.384,11.787L42.129,13.588L41.692,15.826L42.129,18.063L43.384,19.918L45.185,21.119L47.422,21.61L49.66,21.119L51.46,19.918L52.716,18.063L53.152,15.826L52.716,13.588L51.46,11.787L49.66,10.587L47.422,10.096L45.185,10.587ZM114.817,33.343L116.345,33.67L118.092,34.325L120.001,35.307L121.966,36.781L123.931,38.691L125.841,41.256L127.587,44.475L129.115,48.459L130.261,53.261L131.025,58.937L131.298,65.649L130.97,72.361L130.097,78.036L128.787,82.73L127.041,86.604L125.077,89.715L122.894,92.17L120.602,93.971L118.31,95.281L116.127,96.154L114.162,96.645L112.416,96.918L111.106,97.027L110.233,96.973L65.376,96.973L65.376,101.447L97.245,101.447L97.3,116.509L97.409,118.474L97.136,120.329L96.536,122.021L95.608,123.603L94.244,124.967L92.552,126.277L90.479,127.369L88.077,128.296L85.294,129.115L82.129,129.824L78.637,130.315L74.762,130.697L70.56,130.916L65.976,130.97L59.046,130.752L53.207,129.988L48.295,128.897L44.312,127.532L41.092,125.895L38.636,124.094L36.781,122.239L35.417,120.383L34.543,118.583L33.998,116.946L33.779,115.581L33.67,114.49L33.725,113.78L33.725,84.64L33.998,81.147L34.707,78.2L35.853,75.69L37.272,73.616L38.909,71.87L40.71,70.56L42.62,69.469L44.53,68.705L46.331,68.159L47.968,67.832L49.387,67.613L50.533,67.504L51.242,67.45L83.112,67.45L86.877,67.177L90.097,66.413L92.825,65.267L95.063,63.739L96.863,61.993L98.337,60.083L99.428,58.118L100.247,56.153L100.793,54.244L101.175,52.497L101.393,50.969L101.502,49.823L101.502,33.125L112.907,33.125L113.671,33.179ZM79.51,111.106L78.255,112.907L77.818,115.145L78.255,117.382L79.51,119.183L81.311,120.438L83.548,120.875L85.786,120.438L87.586,119.183L88.841,117.382L89.278,115.145L88.841,112.907L87.586,111.106L85.786,109.851L83.548,109.415L81.311,109.851ZM79.51,111.106"/>
</g>
        <g id="Black-M" transform="matrix(1.0,0.0,0.0,1.0,2883.9163393822046,1040.0063589134545)">  <path fill="#000000" stroke-width="1px" stroke="none" role="img" stroke-linecap="butt" fill-opacity="1" stroke-miterlimit="4" stroke-dasharray="none" stroke-opacity="1" fill-rule="nonzero" stroke-linejoin="miter" d="M60.282,0.761L64.089,1.608L67.177,2.707L69.673,3.976L71.577,5.33L73.015,6.768L74.073,8.207L74.749,9.603L75.173,10.872L75.342,11.972L75.426,12.818L75.384,13.368L75.384,35.958L75.173,38.623L74.623,40.949L73.734,42.895L72.634,44.503L71.365,45.814L69.969,46.872L68.489,47.676L67.008,48.268L65.612,48.691L64.343,48.987L63.243,49.156L62.355,49.241L37.1,49.241L34.181,49.452L31.685,50.045L29.57,50.975L27.835,52.117L26.439,53.471L25.297,54.952L24.451,56.475L23.817,58.04L23.394,59.52L23.097,60.874L22.928,62.016L22.844,62.905L22.844,75.849L13.41,75.849L12.522,75.722L11.337,75.426L9.984,74.919L8.503,74.157L6.98,73.057L5.457,71.534L3.976,69.589L2.623,67.093L1.438,64.005L0.55,60.282L-0.042,55.84L-0.254,50.637L0,45.476L0.677,41.076L1.692,37.396L3.046,34.392L4.569,31.981L6.261,30.12L8.038,28.724L9.814,27.708L11.506,27.032L13.029,26.609L14.383,26.397L15.398,26.355L16.075,26.355L16.329,26.397L50.848,26.397L50.848,22.886L26.143,22.886L26.101,11.253L26.016,9.687L26.228,8.249L26.693,6.938L27.412,5.753L28.47,4.653L29.781,3.68L31.389,2.834L33.25,2.073L35.408,1.438L37.861,0.931L40.569,0.508L43.572,0.254L46.829,0.085L50.383,0L55.755,0.212ZM33.631,9.137L32.658,10.533L32.32,12.268L32.658,14.002L33.631,15.441L35.027,16.371L36.761,16.752L38.496,16.371L39.892,15.441L40.865,14.002L41.203,12.268L40.865,10.533L39.892,9.137L38.496,8.207L36.761,7.826L35.027,8.207ZM89.006,25.847L90.19,26.101L91.544,26.609L93.024,27.37L94.547,28.512L96.07,29.993L97.551,31.981L98.905,34.477L100.089,37.565L100.977,41.288L101.57,45.687L101.781,50.891L101.527,56.094L100.85,60.493L99.835,64.131L98.482,67.135L96.959,69.546L95.266,71.45L93.49,72.846L91.713,73.861L90.021,74.538L88.498,74.919L87.144,75.13L86.129,75.215L85.452,75.173L50.679,75.173L50.679,78.641L75.384,78.641L75.426,90.317L75.511,91.84L75.299,93.278L74.834,94.59L74.115,95.816L73.057,96.874L71.746,97.889L70.138,98.735L68.277,99.454L66.12,100.089L63.666,100.639L60.959,101.02L57.955,101.316L54.698,101.485L51.144,101.527L45.772,101.358L41.245,100.766L37.438,99.92L34.35,98.862L31.854,97.593L29.951,96.197L28.512,94.759L27.455,93.321L26.778,91.925L26.355,90.655L26.186,89.598L26.101,88.752L26.143,88.202L26.143,65.612L26.355,62.905L26.905,60.62L27.793,58.674L28.893,57.067L30.162,55.713L31.558,54.698L33.039,53.852L34.519,53.26L35.915,52.837L37.184,52.583L38.284,52.413L39.173,52.329L39.723,52.287L64.428,52.287L67.346,52.075L69.842,51.483L71.957,50.594L73.692,49.41L75.088,48.056L76.23,46.576L77.076,45.053L77.711,43.53L78.134,42.049L78.43,40.696L78.599,39.511L78.684,38.623L78.684,25.678L87.525,25.678L88.117,25.72ZM61.636,86.129L60.663,87.525L60.324,89.259L60.663,90.994L61.636,92.39L63.032,93.363L64.766,93.701L66.5,93.363L67.896,92.39L68.869,90.994L69.208,89.259L68.869,87.525L67.896,86.129L66.5,85.156L64.766,84.818L63.032,85.156ZM61.636,86.129"/>
</g>
        <g id="Heavy-M" transform="matrix(1.0,0.0,0.0,1.0,2587.2063393822045,1040.0063589134545)">  <path stroke-opacity="1" fill="#000000" fill-opacity="1" stroke="none" stroke-miterlimit="4" stroke-linecap="butt" stroke-width="1px" fill-rule="nonzero" stroke-linejoin="miter" stroke-dasharray="none" role="img" d="M60.282,0.761L64.089,1.608L67.177,2.707L69.673,3.976L71.577,5.33L73.015,6.768L74.073,8.207L74.749,9.603L75.173,10.872L75.342,11.972L75.426,12.818L75.384,13.368L75.384,35.958L75.173,38.623L74.623,40.949L73.734,42.895L72.634,44.503L71.365,45.814L69.969,46.872L68.489,47.676L67.008,48.268L65.612,48.691L64.343,48.987L63.243,49.156L62.355,49.241L37.1,49.241L34.181,49.452L31.685,50.045L29.57,50.975L27.835,52.117L26.439,53.471L25.297,54.952L24.451,56.475L23.817,58.04L23.394,59.52L23.097,60.874L22.928,62.016L22.844,62.905L22.844,75.849L13.41,75.849L12.522,75.722L11.337,75.426L9.984,74.919L8.503,74.157L6.98,73.057L5.457,71.534L3.976,69.589L2.623,67.093L1.438,64.005L0.55,60.282L-0.042,55.84L-0.254,50.637L0,45.476L0.677,41.076L1.692,37.396L3.046,34.392L4.569,31.981L6.261,30.12L8.038,28.724L9.814,27.708L11.506,27.032L13.029,26.609L14.383,26.397L15.398,26.355L16.075,26.355L16.329,26.397L50.848,26.397L50.848,22.886L26.143,22.886L26.101,11.253L26.016,9.687L26.228,8.249L26.693,6.938L27.412,5.753L28.47,4.653L29.781,3.68L31.389,2.834L33.25,2.073L35.408,1.438L37.861,0.931L40.569,0.508L43.572,0.254L46.829,0.085L50.383,0L55.755,0.212ZM33.631,9.137L32.658,10.533L32.32,12.268L32.658,14.002L33.631,15.441L35.027,16.371L36.761,16.752L38.496,16.371L39.892,15.441L40.865,14.002L41.203,12.268L40.865,10.533L39.892,9.137L38.496,8.207L36.761,7.826L35.027,8.207ZM89.006,25.847L90.19,26.101L91.544,26.609L93.024,27.37L94.547,28.512L96.07,29.993L97.551,31.981L98.905,34.477L100.089,37.565L100.977,41.288L101.57,45.687L101.781,50.891L101.527,56.094L100.85,60.493L99.835,64.131L98.482,67.135L96.959,69.546L95.266,71.45L93.49,72.846L91.713,73.861L90.021,74.538L88.498,74.919L87.144,75.13L86.129,75.215L85.452,75.173L50.679,75.173L50.679,78.641L75.384,78.641L75.426,90.317L75.511,91.84L75.299,93.278L74.834,94.59L74.115,95.816L73.057,96.874L71.746,97.889L70.138,98.735L68.277,99.454L66.12,100.089L63.666,100.639L60.959,101.02L57.955,101.316L54.698,101.485L51.144,101.527L45.772,101.358L41.245,100.766L37.438,99.92L34.35,98.862L31.854,97.593L29.951,96.197L28.512,94.759L27.455,93.321L26.778,91.925L26.355,90.655L26.186,89.598L26.101,88.752L26.143,88.202L26.143,65.612L26.355,62.905L26.905,60.62L27.793,58.674L28.893,57.067L30.162,55.713L31.558,54.698L33.039,53.852L34.519,53.26L35.915,52.837L37.184,52.583L38.284,52.413L39.173,52.329L39.723,52.287L64.428,52.287L67.346,52.075L69.842,51.483L71.957,50.594L73.692,49.41L75.088,48.056L76.23,46.576L77.076,45.053L77.711,43.53L78.134,42.049L78.43,40.696L78.599,39.511L78.684,38.623L78.684,25.678L87.525,25.678L88.117,25.72ZM61.636,86.129L60.663,87.525L60.324,89.259L60.663,90.994L61.636,92.39L63.032,93.363L64.766,93.701L66.5,93.363L67.896,92.39L68.869,90.994L69.208,89.259L68.869,87.525L67.896,86.129L66.5,85.156L64.766,84.818L63.032,85.156ZM61.636,86.129"/>
</g>
        <g id="Bold-M" transform="matrix(1.0,0.0,0.0,1.0,2290.4963393822045,1040.0063589134545)">  <path stroke-opacity="1" fill-opacity="1" stroke-dasharray="none" stroke-linejoin="miter" stroke-width="1px" fill="#000000" stroke-linecap="butt" stroke="none" stroke-miterlimit="4" fill-rule="nonzero" role="img" d="M60.282,0.761L64.089,1.608L67.177,2.707L69.673,3.976L71.577,5.33L73.015,6.768L74.073,8.207L74.749,9.603L75.173,10.872L75.342,11.972L75.426,12.818L75.384,13.368L75.384,35.958L75.173,38.623L74.623,40.949L73.734,42.895L72.634,44.503L71.365,45.814L69.969,46.872L68.489,47.676L67.008,48.268L65.612,48.691L64.343,48.987L63.243,49.156L62.355,49.241L37.1,49.241L34.181,49.452L31.685,50.045L29.57,50.975L27.835,52.117L26.439,53.471L25.297,54.952L24.451,56.475L23.817,58.04L23.394,59.52L23.097,60.874L22.928,62.016L22.844,62.905L22.844,75.849L13.41,75.849L12.522,75.722L11.337,75.426L9.984,74.919L8.503,74.157L6.98,73.057L5.457,71.534L3.976,69.589L2.623,67.093L1.438,64.005L0.55,60.282L-0.042,55.84L-0.254,50.637L0,45.476L0.677,41.076L1.692,37.396L3.046,34.392L4.569,31.981L6.261,30.12L8.038,28.724L9.814,27.708L11.506,27.032L13.029,26.609L14.383,26.397L15.398,26.355L16.075,26.355L16.329,26.397L50.848,26.397L50.848,22.886L26.143,22.886L26.101,11.253L26.016,9.687L26.228,8.249L26.693,6.938L27.412,5.753L28.47,4.653L29.781,3.68L31.389,2.834L33.25,2.073L35.408,1.438L37.861,0.931L40.569,0.508L43.572,0.254L46.829,0.085L50.383,0L55.755,0.212ZM33.631,9.137L32.658,10.533L32.32,12.268L32.658,14.002L33.631,15.441L35.027,16.371L36.761,16.752L38.496,16.371L39.892,15.441L40.865,14.002L41.203,12.268L40.865,10.533L39.892,9.137L38.496,8.207L36.761,7.826L35.027,8.207ZM89.006,25.847L90.19,26.101L91.544,26.609L93.024,27.37L94.547,28.512L96.07,29.993L97.551,31.981L98.905,34.477L100.089,37.565L100.977,41.288L101.57,45.687L101.781,50.891L101.527,56.094L100.85,60.493L99.835,64.131L98.482,67.135L96.959,69.546L95.266,71.45L93.49,72.846L91.713,73.861L90.021,74.538L88.498,74.919L87.144,75.13L86.129,75.215L85.452,75.173L50.679,75.173L50.679,78.641L75.384,78.641L75.426,90.317L75.511,91.84L75.299,93.278L74.834,94.59L74.115,95.816L73.057,96.874L71.746,97.889L70.138,98.735L68.277,99.454L66.12,100.089L63.666,100.639L60.959,101.02L57.955,101.316L54.698,101.485L51.144,101.527L45.772,101.358L41.245,100.766L37.438,99.92L34.35,98.862L31.854,97.593L29.951,96.197L28.512,94.759L27.455,93.321L26.778,91.925L26.355,90.655L26.186,89.598L26.101,88.752L26.143,88.202L26.143,65.612L26.355,62.905L26.905,60.62L27.793,58.674L28.893,57.067L30.162,55.713L31.558,54.698L33.039,53.852L34.519,53.26L35.915,52.837L37.184,52.583L38.284,52.413L39.173,52.329L39.723,52.287L64.428,52.287L67.346,52.075L69.842,51.483L71.957,50.594L73.692,49.41L75.088,48.056L76.23,46.576L77.076,45.053L77.711,43.53L78.134,42.049L78.43,40.696L78.599,39.511L78.684,38.623L78.684,25.678L87.525,25.678L88.117,25.72ZM61.636,86.129L60.663,87.525L60.324,89.259L60.663,90.994L61.636,92.39L63.032,93.363L64.766,93.701L66.5,93.363L67.896,92.39L68.869,90.994L69.208,89.259L68.869,87.525L67.896,86.129L66.5,85.156L64.766,84.818L63.032,85.156ZM61.636,86.129"/>
</g>
        <g id="Semibold-M" transform="matrix(1.0,0.0,0.0,1.0,1993.7863393822045,1040.0063589134545)">  <path stroke-opacity="1" fill="#000000" stroke-width="1px" stroke="none" stroke-miterlimit="4" role="img" stroke-linejoin="miter" stroke-linecap="butt" stroke-dasharray="none" fill-opacity="1" fill-rule="nonzero" d="M60.282,0.761L64.089,1.608L67.177,2.707L69.673,3.976L71.577,5.33L73.015,6.768L74.073,8.207L74.749,9.603L75.173,10.872L75.342,11.972L75.426,12.818L75.384,13.368L75.384,35.958L75.173,38.623L74.623,40.949L73.734,42.895L72.634,44.503L71.365,45.814L69.969,46.872L68.489,47.676L67.008,48.268L65.612,48.691L64.343,48.987L63.243,49.156L62.355,49.241L37.1,49.241L34.181,49.452L31.685,50.045L29.57,50.975L27.835,52.117L26.439,53.471L25.297,54.952L24.451,56.475L23.817,58.04L23.394,59.52L23.097,60.874L22.928,62.016L22.844,62.905L22.844,75.849L13.41,75.849L12.522,75.722L11.337,75.426L9.984,74.919L8.503,74.157L6.98,73.057L5.457,71.534L3.976,69.589L2.623,67.093L1.438,64.005L0.55,60.282L-0.042,55.84L-0.254,50.637L0,45.476L0.677,41.076L1.692,37.396L3.046,34.392L4.569,31.981L6.261,30.12L8.038,28.724L9.814,27.708L11.506,27.032L13.029,26.609L14.383,26.397L15.398,26.355L16.075,26.355L16.329,26.397L50.848,26.397L50.848,22.886L26.143,22.886L26.101,11.253L26.016,9.687L26.228,8.249L26.693,6.938L27.412,5.753L28.47,4.653L29.781,3.68L31.389,2.834L33.25,2.073L35.408,1.438L37.861,0.931L40.569,0.508L43.572,0.254L46.829,0.085L50.383,0L55.755,0.212ZM33.631,9.137L32.658,10.533L32.32,12.268L32.658,14.002L33.631,15.441L35.027,16.371L36.761,16.752L38.496,16.371L39.892,15.441L40.865,14.002L41.203,12.268L40.865,10.533L39.892,9.137L38.496,8.207L36.761,7.826L35.027,8.207ZM89.006,25.847L90.19,26.101L91.544,26.609L93.024,27.37L94.547,28.512L96.07,29.993L97.551,31.981L98.905,34.477L100.089,37.565L100.977,41.288L101.57,45.687L101.781,50.891L101.527,56.094L100.85,60.493L99.835,64.131L98.482,67.135L96.959,69.546L95.266,71.45L93.49,72.846L91.713,73.861L90.021,74.538L88.498,74.919L87.144,75.13L86.129,75.215L85.452,75.173L50.679,75.173L50.679,78.641L75.384,78.641L75.426,90.317L75.511,91.84L75.299,93.278L74.834,94.59L74.115,95.816L73.057,96.874L71.746,97.889L70.138,98.735L68.277,99.454L66.12,100.089L63.666,100.639L60.959,101.02L57.955,101.316L54.698,101.485L51.144,101.527L45.772,101.358L41.245,100.766L37.438,99.92L34.35,98.862L31.854,97.593L29.951,96.197L28.512,94.759L27.455,93.321L26.778,91.925L26.355,90.655L26.186,89.598L26.101,88.752L26.143,88.202L26.143,65.612L26.355,62.905L26.905,60.62L27.793,58.674L28.893,57.067L30.162,55.713L31.558,54.698L33.039,53.852L34.519,53.26L35.915,52.837L37.184,52.583L38.284,52.413L39.173,52.329L39.723,52.287L64.428,52.287L67.346,52.075L69.842,51.483L71.957,50.594L73.692,49.41L75.088,48.056L76.23,46.576L77.076,45.053L77.711,43.53L78.134,42.049L78.43,40.696L78.599,39.511L78.684,38.623L78.684,25.678L87.525,25.678L88.117,25.72ZM61.636,86.129L60.663,87.525L60.324,89.259L60.663,90.994L61.636,92.39L63.032,93.363L64.766,93.701L66.5,93.363L67.896,92.39L68.869,90.994L69.208,89.259L68.869,87.525L67.896,86.129L66.5,85.156L64.766,84.818L63.032,85.156ZM61.636,86.129"/>
</g>
        <g id="Medium-M" transform="matrix(1.0,0.0,0.0,1.0,1697.0763393822044,1040.0063589134545)">  <path stroke-linecap="butt" stroke="none" stroke-opacity="1" fill-rule="nonzero" role="img" stroke-linejoin="miter" stroke-width="1px" fill="#000000" stroke-dasharray="none" stroke-miterlimit="4" fill-opacity="1" d="M60.282,0.761L64.089,1.608L67.177,2.707L69.673,3.976L71.577,5.33L73.015,6.768L74.073,8.207L74.749,9.603L75.173,10.872L75.342,11.972L75.426,12.818L75.384,13.368L75.384,35.958L75.173,38.623L74.623,40.949L73.734,42.895L72.634,44.503L71.365,45.814L69.969,46.872L68.489,47.676L67.008,48.268L65.612,48.691L64.343,48.987L63.243,49.156L62.355,49.241L37.1,49.241L34.181,49.452L31.685,50.045L29.57,50.975L27.835,52.117L26.439,53.471L25.297,54.952L24.451,56.475L23.817,58.04L23.394,59.52L23.097,60.874L22.928,62.016L22.844,62.905L22.844,75.849L13.41,75.849L12.522,75.722L11.337,75.426L9.984,74.919L8.503,74.157L6.98,73.057L5.457,71.534L3.976,69.589L2.623,67.093L1.438,64.005L0.55,60.282L-0.042,55.84L-0.254,50.637L0,45.476L0.677,41.076L1.692,37.396L3.046,34.392L4.569,31.981L6.261,30.12L8.038,28.724L9.814,27.708L11.506,27.032L13.029,26.609L14.383,26.397L15.398,26.355L16.075,26.355L16.329,26.397L50.848,26.397L50.848,22.886L26.143,22.886L26.101,11.253L26.016,9.687L26.228,8.249L26.693,6.938L27.412,5.753L28.47,4.653L29.781,3.68L31.389,2.834L33.25,2.073L35.408,1.438L37.861,0.931L40.569,0.508L43.572,0.254L46.829,0.085L50.383,0L55.755,0.212ZM33.631,9.137L32.658,10.533L32.32,12.268L32.658,14.002L33.631,15.441L35.027,16.371L36.761,16.752L38.496,16.371L39.892,15.441L40.865,14.002L41.203,12.268L40.865,10.533L39.892,9.137L38.496,8.207L36.761,7.826L35.027,8.207ZM89.006,25.847L90.19,26.101L91.544,26.609L93.024,27.37L94.547,28.512L96.07,29.993L97.551,31.981L98.905,34.477L100.089,37.565L100.977,41.288L101.57,45.687L101.781,50.891L101.527,56.094L100.85,60.493L99.835,64.131L98.482,67.135L96.959,69.546L95.266,71.45L93.49,72.846L91.713,73.861L90.021,74.538L88.498,74.919L87.144,75.13L86.129,75.215L85.452,75.173L50.679,75.173L50.679,78.641L75.384,78.641L75.426,90.317L75.511,91.84L75.299,93.278L74.834,94.59L74.115,95.816L73.057,96.874L71.746,97.889L70.138,98.735L68.277,99.454L66.12,100.089L63.666,100.639L60.959,101.02L57.955,101.316L54.698,101.485L51.144,101.527L45.772,101.358L41.245,100.766L37.438,99.92L34.35,98.862L31.854,97.593L29.951,96.197L28.512,94.759L27.455,93.321L26.778,91.925L26.355,90.655L26.186,89.598L26.101,88.752L26.143,88.202L26.143,65.612L26.355,62.905L26.905,60.62L27.793,58.674L28.893,57.067L30.162,55.713L31.558,54.698L33.039,53.852L34.519,53.26L35.915,52.837L37.184,52.583L38.284,52.413L39.173,52.329L39.723,52.287L64.428,52.287L67.346,52.075L69.842,51.483L71.957,50.594L73.692,49.41L75.088,48.056L76.23,46.576L77.076,45.053L77.711,43.53L78.134,42.049L78.43,40.696L78.599,39.511L78.684,38.623L78.684,25.678L87.525,25.678L88.117,25.72ZM61.636,86.129L60.663,87.525L60.324,89.259L60.663,90.994L61.636,92.39L63.032,93.363L64.766,93.701L66.5,93.363L67.896,92.39L68.869,90.994L69.208,89.259L68.869,87.525L67.896,86.129L66.5,85.156L64.766,84.818L63.032,85.156ZM61.636,86.129"/>
</g>
        <g id="Regular-M" transform="matrix(1.0,0.0,0.0,1.0,1400.3663393822044,1040.0063589134545)">  <path stroke="none" fill-opacity="1" stroke-miterlimit="4" stroke-linecap="butt" stroke-dasharray="none" stroke-linejoin="miter" fill-rule="nonzero" stroke-opacity="1" fill="#000000" role="img" stroke-width="1px" d="M60.282,0.761L64.089,1.608L67.177,2.707L69.673,3.976L71.577,5.33L73.015,6.768L74.073,8.207L74.749,9.603L75.173,10.872L75.342,11.972L75.426,12.818L75.384,13.368L75.384,35.958L75.173,38.623L74.623,40.949L73.734,42.895L72.634,44.503L71.365,45.814L69.969,46.872L68.489,47.676L67.008,48.268L65.612,48.691L64.343,48.987L63.243,49.156L62.355,49.241L37.1,49.241L34.181,49.452L31.685,50.045L29.57,50.975L27.835,52.117L26.439,53.471L25.297,54.952L24.451,56.475L23.817,58.04L23.394,59.52L23.097,60.874L22.928,62.016L22.844,62.905L22.844,75.849L13.41,75.849L12.522,75.722L11.337,75.426L9.984,74.919L8.503,74.157L6.98,73.057L5.457,71.534L3.976,69.589L2.623,67.093L1.438,64.005L0.55,60.282L-0.042,55.84L-0.254,50.637L0,45.476L0.677,41.076L1.692,37.396L3.046,34.392L4.569,31.981L6.261,30.12L8.038,28.724L9.814,27.708L11.506,27.032L13.029,26.609L14.383,26.397L15.398,26.355L16.075,26.355L16.329,26.397L50.848,26.397L50.848,22.886L26.143,22.886L26.101,11.253L26.016,9.687L26.228,8.249L26.693,6.938L27.412,5.753L28.47,4.653L29.781,3.68L31.389,2.834L33.25,2.073L35.408,1.438L37.861,0.931L40.569,0.508L43.572,0.254L46.829,0.085L50.383,0L55.755,0.212ZM33.631,9.137L32.658,10.533L32.32,12.268L32.658,14.002L33.631,15.441L35.027,16.371L36.761,16.752L38.496,16.371L39.892,15.441L40.865,14.002L41.203,12.268L40.865,10.533L39.892,9.137L38.496,8.207L36.761,7.826L35.027,8.207ZM89.006,25.847L90.19,26.101L91.544,26.609L93.024,27.37L94.547,28.512L96.07,29.993L97.551,31.981L98.905,34.477L100.089,37.565L100.977,41.288L101.57,45.687L101.781,50.891L101.527,56.094L100.85,60.493L99.835,64.131L98.482,67.135L96.959,69.546L95.266,71.45L93.49,72.846L91.713,73.861L90.021,74.538L88.498,74.919L87.144,75.13L86.129,75.215L85.452,75.173L50.679,75.173L50.679,78.641L75.384,78.641L75.426,90.317L75.511,91.84L75.299,93.278L74.834,94.59L74.115,95.816L73.057,96.874L71.746,97.889L70.138,98.735L68.277,99.454L66.12,100.089L63.666,100.639L60.959,101.02L57.955,101.316L54.698,101.485L51.144,101.527L45.772,101.358L41.245,100.766L37.438,99.92L34.35,98.862L31.854,97.593L29.951,96.197L28.512,94.759L27.455,93.321L26.778,91.925L26.355,90.655L26.186,89.598L26.101,88.752L26.143,88.202L26.143,65.612L26.355,62.905L26.905,60.62L27.793,58.674L28.893,57.067L30.162,55.713L31.558,54.698L33.039,53.852L34.519,53.26L35.915,52.837L37.184,52.583L38.284,52.413L39.173,52.329L39.723,52.287L64.428,52.287L67.346,52.075L69.842,51.483L71.957,50.594L73.692,49.41L75.088,48.056L76.23,46.576L77.076,45.053L77.711,43.53L78.134,42.049L78.43,40.696L78.599,39.511L78.684,38.623L78.684,25.678L87.525,25.678L88.117,25.72ZM61.636,86.129L60.663,87.525L60.324,89.259L60.663,90.994L61.636,92.39L63.032,93.363L64.766,93.701L66.5,93.363L67.896,92.39L68.869,90.994L69.208,89.259L68.869,87.525L67.896,86.129L66.5,85.156L64.766,84.818L63.032,85.156ZM61.636,86.129"/>
</g>
        <g id="Light-M" transform="matrix(1.0,0.0,0.0,1.0,1103.6563393822046,1040.0063589134545)">  <path stroke-dasharray="none" stroke-linejoin="miter" stroke-linecap="butt" role="img" stroke="none" stroke-opacity="1" fill="#000000" stroke-miterlimit="4" fill-rule="nonzero" stroke-width="1px" fill-opacity="1" d="M60.282,0.761L64.089,1.608L67.177,2.707L69.673,3.976L71.577,5.33L73.015,6.768L74.073,8.207L74.749,9.603L75.173,10.872L75.342,11.972L75.426,12.818L75.384,13.368L75.384,35.958L75.173,38.623L74.623,40.949L73.734,42.895L72.634,44.503L71.365,45.814L69.969,46.872L68.489,47.676L67.008,48.268L65.612,48.691L64.343,48.987L63.243,49.156L62.355,49.241L37.1,49.241L34.181,49.452L31.685,50.045L29.57,50.975L27.835,52.117L26.439,53.471L25.297,54.952L24.451,56.475L23.817,58.04L23.394,59.52L23.097,60.874L22.928,62.016L22.844,62.905L22.844,75.849L13.41,75.849L12.522,75.722L11.337,75.426L9.984,74.919L8.503,74.157L6.98,73.057L5.457,71.534L3.976,69.589L2.623,67.093L1.438,64.005L0.55,60.282L-0.042,55.84L-0.254,50.637L0,45.476L0.677,41.076L1.692,37.396L3.046,34.392L4.569,31.981L6.261,30.12L8.038,28.724L9.814,27.708L11.506,27.032L13.029,26.609L14.383,26.397L15.398,26.355L16.075,26.355L16.329,26.397L50.848,26.397L50.848,22.886L26.143,22.886L26.101,11.253L26.016,9.687L26.228,8.249L26.693,6.938L27.412,5.753L28.47,4.653L29.781,3.68L31.389,2.834L33.25,2.073L35.408,1.438L37.861,0.931L40.569,0.508L43.572,0.254L46.829,0.085L50.383,0L55.755,0.212ZM33.631,9.137L32.658,10.533L32.32,12.268L32.658,14.002L33.631,15.441L35.027,16.371L36.761,16.752L38.496,16.371L39.892,15.441L40.865,14.002L41.203,12.268L40.865,10.533L39.892,9.137L38.496,8.207L36.761,7.826L35.027,8.207ZM89.006,25.847L90.19,26.101L91.544,26.609L93.024,27.37L94.547,28.512L96.07,29.993L97.551,31.981L98.905,34.477L100.089,37.565L100.977,41.288L101.57,45.687L101.781,50.891L101.527,56.094L100.85,60.493L99.835,64.131L98.482,67.135L96.959,69.546L95.266,71.45L93.49,72.846L91.713,73.861L90.021,74.538L88.498,74.919L87.144,75.13L86.129,75.215L85.452,75.173L50.679,75.173L50.679,78.641L75.384,78.641L75.426,90.317L75.511,91.84L75.299,93.278L74.834,94.59L74.115,95.816L73.057,96.874L71.746,97.889L70.138,98.735L68.277,99.454L66.12,100.089L63.666,100.639L60.959,101.02L57.955,101.316L54.698,101.485L51.144,101.527L45.772,101.358L41.245,100.766L37.438,99.92L34.35,98.862L31.854,97.593L29.951,96.197L28.512,94.759L27.455,93.321L26.778,91.925L26.355,90.655L26.186,89.598L26.101,88.752L26.143,88.202L26.143,65.612L26.355,62.905L26.905,60.62L27.793,58.674L28.893,57.067L30.162,55.713L31.558,54.698L33.039,53.852L34.519,53.26L35.915,52.837L37.184,52.583L38.284,52.413L39.173,52.329L39.723,52.287L64.428,52.287L67.346,52.075L69.842,51.483L71.957,50.594L73.692,49.41L75.088,48.056L76.23,46.576L77.076,45.053L77.711,43.53L78.134,42.049L78.43,40.696L78.599,39.511L78.684,38.623L78.684,25.678L87.525,25.678L88.117,25.72ZM61.636,86.129L60.663,87.525L60.324,89.259L60.663,90.994L61.636,92.39L63.032,93.363L64.766,93.701L66.5,93.363L67.896,92.39L68.869,90.994L69.208,89.259L68.869,87.525L67.896,86.129L66.5,85.156L64.766,84.818L63.032,85.156ZM61.636,86.129"/>
</g>
        <g id="Thin-M" transform="matrix(1.0,0.0,0.0,1.0,806.9463393822047,1040.0063589134545)">  <path fill-opacity="1" stroke-linecap="butt" stroke-linejoin="miter" stroke-miterlimit="4" fill-rule="nonzero" stroke="none" stroke-dasharray="none" fill="#000000" stroke-opacity="1" role="img" stroke-width="1px" d="M60.282,0.761L64.089,1.608L67.177,2.707L69.673,3.976L71.577,5.33L73.015,6.768L74.073,8.207L74.749,9.603L75.173,10.872L75.342,11.972L75.426,12.818L75.384,13.368L75.384,35.958L75.173,38.623L74.623,40.949L73.734,42.895L72.634,44.503L71.365,45.814L69.969,46.872L68.489,47.676L67.008,48.268L65.612,48.691L64.343,48.987L63.243,49.156L62.355,49.241L37.1,49.241L34.181,49.452L31.685,50.045L29.57,50.975L27.835,52.117L26.439,53.471L25.297,54.952L24.451,56.475L23.817,58.04L23.394,59.52L23.097,60.874L22.928,62.016L22.844,62.905L22.844,75.849L13.41,75.849L12.522,75.722L11.337,75.426L9.984,74.919L8.503,74.157L6.98,73.057L5.457,71.534L3.976,69.589L2.623,67.093L1.438,64.005L0.55,60.282L-0.042,55.84L-0.254,50.637L0,45.476L0.677,41.076L1.692,37.396L3.046,34.392L4.569,31.981L6.261,30.12L8.038,28.724L9.814,27.708L11.506,27.032L13.029,26.609L14.383,26.397L15.398,26.355L16.075,26.355L16.329,26.397L50.848,26.397L50.848,22.886L26.143,22.886L26.101,11.253L26.016,9.687L26.228,8.249L26.693,6.938L27.412,5.753L28.47,4.653L29.781,3.68L31.389,2.834L33.25,2.073L35.408,1.438L37.861,0.931L40.569,0.508L43.572,0.254L46.829,0.085L50.383,0L55.755,0.212ZM33.631,9.137L32.658,10.533L32.32,12.268L32.658,14.002L33.631,15.441L35.027,16.371L36.761,16.752L38.496,16.371L39.892,15.441L40.865,14.002L41.203,12.268L40.865,10.533L39.892,9.137L38.496,8.207L36.761,7.826L35.027,8.207ZM89.006,25.847L90.19,26.101L91.544,26.609L93.024,27.37L94.547,28.512L96.07,29.993L97.551,31.981L98.905,34.477L100.089,37.565L100.977,41.288L101.57,45.687L101.781,50.891L101.527,56.094L100.85,60.493L99.835,64.131L98.482,67.135L96.959,69.546L95.266,71.45L93.49,72.846L91.713,73.861L90.021,74.538L88.498,74.919L87.144,75.13L86.129,75.215L85.452,75.173L50.679,75.173L50.679,78.641L75.384,78.641L75.426,90.317L75.511,91.84L75.299,93.278L74.834,94.59L74.115,95.816L73.057,96.874L71.746,97.889L70.138,98.735L68.277,99.454L66.12,100.089L63.666,100.639L60.959,101.02L57.955,101.316L54.698,101.485L51.144,101.527L45.772,101.358L41.245,100.766L37.438,99.92L34.35,98.862L31.854,97.593L29.951,96.197L28.512,94.759L27.455,93.321L26.778,91.925L26.355,90.655L26.186,89.598L26.101,88.752L26.143,88.202L26.143,65.612L26.355,62.905L26.905,60.62L27.793,58.674L28.893,57.067L30.162,55.713L31.558,54.698L33.039,53.852L34.519,53.26L35.915,52.837L37.184,52.583L38.284,52.413L39.173,52.329L39.723,52.287L64.428,52.287L67.346,52.075L69.842,51.483L71.957,50.594L73.692,49.41L75.088,48.056L76.23,46.576L77.076,45.053L77.711,43.53L78.134,42.049L78.43,40.696L78.599,39.511L78.684,38.623L78.684,25.678L87.525,25.678L88.117,25.72ZM61.636,86.129L60.663,87.525L60.324,89.259L60.663,90.994L61.636,92.39L63.032,93.363L64.766,93.701L66.5,93.363L67.896,92.39L68.869,90.994L69.208,89.259L68.869,87.525L67.896,86.129L66.5,85.156L64.766,84.818L63.032,85.156ZM61.636,86.129"/>
</g>
        <g id="Ultralight-M" transform="matrix(1.0,0.0,0.0,1.0,510.2363393822046,1040.0063589134545)">  <path stroke-dasharray="none" stroke-linejoin="miter" stroke-opacity="1" stroke-miterlimit="4" stroke="none" fill-rule="nonzero" stroke-linecap="butt" stroke-width="1px" fill-opacity="1" role="img" fill="#000000" d="M60.282,0.761L64.089,1.608L67.177,2.707L69.673,3.976L71.577,5.33L73.015,6.768L74.073,8.207L74.749,9.603L75.173,10.872L75.342,11.972L75.426,12.818L75.384,13.368L75.384,35.958L75.173,38.623L74.623,40.949L73.734,42.895L72.634,44.503L71.365,45.814L69.969,46.872L68.489,47.676L67.008,48.268L65.612,48.691L64.343,48.987L63.243,49.156L62.355,49.241L37.1,49.241L34.181,49.452L31.685,50.045L29.57,50.975L27.835,52.117L26.439,53.471L25.297,54.952L24.451,56.475L23.817,58.04L23.394,59.52L23.097,60.874L22.928,62.016L22.844,62.905L22.844,75.849L13.41,75.849L12.522,75.722L11.337,75.426L9.984,74.919L8.503,74.157L6.98,73.057L5.457,71.534L3.976,69.589L2.623,67.093L1.438,64.005L0.55,60.282L-0.042,55.84L-0.254,50.637L0,45.476L0.677,41.076L1.692,37.396L3.046,34.392L4.569,31.981L6.261,30.12L8.038,28.724L9.814,27.708L11.506,27.032L13.029,26.609L14.383,26.397L15.398,26.355L16.075,26.355L16.329,26.397L50.848,26.397L50.848,22.886L26.143,22.886L26.101,11.253L26.016,9.687L26.228,8.249L26.693,6.938L27.412,5.753L28.47,4.653L29.781,3.68L31.389,2.834L33.25,2.073L35.408,1.438L37.861,0.931L40.569,0.508L43.572,0.254L46.829,0.085L50.383,0L55.755,0.212ZM33.631,9.137L32.658,10.533L32.32,12.268L32.658,14.002L33.631,15.441L35.027,16.371L36.761,16.752L38.496,16.371L39.892,15.441L40.865,14.002L41.203,12.268L40.865,10.533L39.892,9.137L38.496,8.207L36.761,7.826L35.027,8.207ZM89.006,25.847L90.19,26.101L91.544,26.609L93.024,27.37L94.547,28.512L96.07,29.993L97.551,31.981L98.905,34.477L100.089,37.565L100.977,41.288L101.57,45.687L101.781,50.891L101.527,56.094L100.85,60.493L99.835,64.131L98.482,67.135L96.959,69.546L95.266,71.45L93.49,72.846L91.713,73.861L90.021,74.538L88.498,74.919L87.144,75.13L86.129,75.215L85.452,75.173L50.679,75.173L50.679,78.641L75.384,78.641L75.426,90.317L75.511,91.84L75.299,93.278L74.834,94.59L74.115,95.816L73.057,96.874L71.746,97.889L70.138,98.735L68.277,99.454L66.12,100.089L63.666,100.639L60.959,101.02L57.955,101.316L54.698,101.485L51.144,101.527L45.772,101.358L41.245,100.766L37.438,99.92L34.35,98.862L31.854,97.593L29.951,96.197L28.512,94.759L27.455,93.321L26.778,91.925L26.355,90.655L26.186,89.598L26.101,88.752L26.143,88.202L26.143,65.612L26.355,62.905L26.905,60.62L27.793,58.674L28.893,57.067L30.162,55.713L31.558,54.698L33.039,53.852L34.519,53.26L35.915,52.837L37.184,52.583L38.284,52.413L39.173,52.329L39.723,52.287L64.428,52.287L67.346,52.075L69.842,51.483L71.957,50.594L73.692,49.41L75.088,48.056L76.23,46.576L77.076,45.053L77.711,43.53L78.134,42.049L78.43,40.696L78.599,39.511L78.684,38.623L78.684,25.678L87.525,25.678L88.117,25.72ZM61.636,86.129L60.663,87.525L60.324,89.259L60.663,90.994L61.636,92.39L63.032,93.363L64.766,93.701L66.5,93.363L67.896,92.39L68.869,90.994L69.208,89.259L68.869,87.525L67.896,86.129L66.5,85.156L64.766,84.818L63.032,85.156ZM61.636,86.129"/>
</g>
        <g id="Black-S" transform="matrix(1.0,0.0,0.0,1.0,2894.932053736266,621.0220732675162)">  <path fill="#000000" stroke-width="1px" stroke="none" role="img" stroke-linecap="butt" fill-opacity="1" stroke-miterlimit="4" stroke-dasharray="none" stroke-opacity="1" fill-rule="nonzero" stroke-linejoin="miter" d="M47.201,0.596L50.182,1.259L52.6,2.12L54.554,3.114L56.045,4.174L57.171,5.3L57.999,6.426L58.529,7.519L58.86,8.513L58.993,9.374L59.059,10.036L59.026,10.467L59.026,28.155L58.86,30.242L58.429,32.063L57.734,33.587L56.873,34.846L55.879,35.873L54.786,36.701L53.627,37.33L52.467,37.794L51.374,38.125L50.381,38.357L49.519,38.489L48.824,38.556L29.049,38.556L26.764,38.721L24.809,39.185L23.153,39.914L21.795,40.808L20.702,41.868L19.808,43.027L19.145,44.22L18.648,45.445L18.317,46.604L18.085,47.664L17.953,48.559L17.887,49.254L17.887,59.39L10.5,59.39L9.804,59.291L8.877,59.059L7.817,58.661L6.658,58.065L5.465,57.204L4.273,56.011L3.114,54.488L2.054,52.534L1.126,50.116L0.431,47.201L-0.033,43.723L-0.199,39.649L0,35.608L0.53,32.163L1.325,29.281L2.385,26.929L3.577,25.041L4.902,23.584L6.293,22.491L7.685,21.696L9.01,21.166L10.202,20.835L11.262,20.669L12.057,20.636L12.587,20.636L12.786,20.669L39.814,20.669L39.814,17.92L20.47,17.92L20.437,8.811L20.371,7.585L20.536,6.459L20.901,5.432L21.464,4.505L22.292,3.644L23.319,2.882L24.577,2.219L26.035,1.623L27.724,1.126L29.645,0.729L31.765,0.397L34.117,0.199L36.667,0.066L39.45,0L43.656,0.166ZM26.333,7.155L25.571,8.248L25.306,9.606L25.571,10.964L26.333,12.09L27.426,12.819L28.784,13.117L30.142,12.819L31.235,12.09L31.997,10.964L32.262,9.606L31.997,8.248L31.235,7.155L30.142,6.426L28.784,6.128L27.426,6.426ZM69.691,20.238L70.619,20.437L71.679,20.835L72.838,21.431L74.031,22.325L75.223,23.484L76.382,25.041L77.442,26.995L78.37,29.413L79.065,32.328L79.529,35.773L79.695,39.847L79.496,43.921L78.966,47.366L78.171,50.215L77.111,52.567L75.919,54.455L74.594,55.945L73.202,57.038L71.811,57.833L70.486,58.363L69.294,58.661L68.234,58.827L67.439,58.893L66.909,58.86L39.682,58.86L39.682,61.576L59.026,61.576L59.059,70.718L59.125,71.911L58.959,73.037L58.595,74.064L58.032,75.024L57.204,75.852L56.177,76.647L54.918,77.31L53.461,77.873L51.772,78.37L49.851,78.8L47.731,79.098L45.379,79.33L42.828,79.463L40.046,79.496L35.839,79.363L32.295,78.9L29.314,78.237L26.896,77.409L24.942,76.415L23.451,75.322L22.325,74.196L21.497,73.07L20.967,71.977L20.636,70.983L20.503,70.155L20.437,69.493L20.47,69.062L20.47,51.374L20.636,49.254L21.066,47.466L21.762,45.942L22.623,44.683L23.617,43.623L24.71,42.828L25.869,42.166L27.029,41.702L28.122,41.371L29.115,41.172L29.977,41.04L30.672,40.974L31.103,40.94L50.447,40.94L52.732,40.775L54.687,40.311L56.343,39.615L57.701,38.688L58.794,37.628L59.688,36.469L60.351,35.276L60.847,34.084L61.179,32.925L61.411,31.865L61.543,30.937L61.609,30.242L61.609,20.106L68.532,20.106L68.996,20.139ZM48.261,67.439L47.499,68.532L47.234,69.89L47.499,71.248L48.261,72.341L49.354,73.103L50.712,73.368L52.07,73.103L53.163,72.341L53.925,71.248L54.19,69.89L53.925,68.532L53.163,67.439L52.07,66.677L50.712,66.412L49.354,66.677ZM48.261,67.439"/>
</g>
        <g id="Heavy-S" transform="matrix(1.0,0.0,0.0,1.0,2598.222053736266,621.0220732675162)">  <path stroke-opacity="1" fill="#000000" fill-opacity="1" stroke="none" stroke-miterlimit="4" stroke-linecap="butt" stroke-width="1px" fill-rule="nonzero" stroke-linejoin="miter" stroke-dasharray="none" role="img" d="M47.201,0.596L50.182,1.259L52.6,2.12L54.554,3.114L56.045,4.174L57.171,5.3L57.999,6.426L58.529,7.519L58.86,8.513L58.993,9.374L59.059,10.036L59.026,10.467L59.026,28.155L58.86,30.242L58.429,32.063L57.734,33.587L56.873,34.846L55.879,35.873L54.786,36.701L53.627,37.33L52.467,37.794L51.374,38.125L50.381,38.357L49.519,38.489L48.824,38.556L29.049,38.556L26.764,38.721L24.809,39.185L23.153,39.914L21.795,40.808L20.702,41.868L19.808,43.027L19.145,44.22L18.648,45.445L18.317,46.604L18.085,47.664L17.953,48.559L17.887,49.254L17.887,59.39L10.5,59.39L9.804,59.291L8.877,59.059L7.817,58.661L6.658,58.065L5.465,57.204L4.273,56.011L3.114,54.488L2.054,52.534L1.126,50.116L0.431,47.201L-0.033,43.723L-0.199,39.649L0,35.608L0.53,32.163L1.325,29.281L2.385,26.929L3.577,25.041L4.902,23.584L6.293,22.491L7.685,21.696L9.01,21.166L10.202,20.835L11.262,20.669L12.057,20.636L12.587,20.636L12.786,20.669L39.814,20.669L39.814,17.92L20.47,17.92L20.437,8.811L20.371,7.585L20.536,6.459L20.901,5.432L21.464,4.505L22.292,3.644L23.319,2.882L24.577,2.219L26.035,1.623L27.724,1.126L29.645,0.729L31.765,0.397L34.117,0.199L36.667,0.066L39.45,0L43.656,0.166ZM26.333,7.155L25.571,8.248L25.306,9.606L25.571,10.964L26.333,12.09L27.426,12.819L28.784,13.117L30.142,12.819L31.235,12.09L31.997,10.964L32.262,9.606L31.997,8.248L31.235,7.155L30.142,6.426L28.784,6.128L27.426,6.426ZM69.691,20.238L70.619,20.437L71.679,20.835L72.838,21.431L74.031,22.325L75.223,23.484L76.382,25.041L77.442,26.995L78.37,29.413L79.065,32.328L79.529,35.773L79.695,39.847L79.496,43.921L78.966,47.366L78.171,50.215L77.111,52.567L75.919,54.455L74.594,55.945L73.202,57.038L71.811,57.833L70.486,58.363L69.294,58.661L68.234,58.827L67.439,58.893L66.909,58.86L39.682,58.86L39.682,61.576L59.026,61.576L59.059,70.718L59.125,71.911L58.959,73.037L58.595,74.064L58.032,75.024L57.204,75.852L56.177,76.647L54.918,77.31L53.461,77.873L51.772,78.37L49.851,78.8L47.731,79.098L45.379,79.33L42.828,79.463L40.046,79.496L35.839,79.363L32.295,78.9L29.314,78.237L26.896,77.409L24.942,76.415L23.451,75.322L22.325,74.196L21.497,73.07L20.967,71.977L20.636,70.983L20.503,70.155L20.437,69.493L20.47,69.062L20.47,51.374L20.636,49.254L21.066,47.466L21.762,45.942L22.623,44.683L23.617,43.623L24.71,42.828L25.869,42.166L27.029,41.702L28.122,41.371L29.115,41.172L29.977,41.04L30.672,40.974L31.103,40.94L50.447,40.94L52.732,40.775L54.687,40.311L56.343,39.615L57.701,38.688L58.794,37.628L59.688,36.469L60.351,35.276L60.847,34.084L61.179,32.925L61.411,31.865L61.543,30.937L61.609,30.242L61.609,20.106L68.532,20.106L68.996,20.139ZM48.261,67.439L47.499,68.532L47.234,69.89L47.499,71.248L48.261,72.341L49.354,73.103L50.712,73.368L52.07,73.103L53.163,72.341L53.925,71.248L54.19,69.89L53.925,68.532L53.163,67.439L52.07,66.677L50.712,66.412L49.354,66.677ZM48.261,67.439"/>
</g>
        <g id="Bold-S" transform="matrix(1.0,0.0,0.0,1.0,2301.512053736266,621.0220732675162)">  <path stroke-opacity="1" fill-opacity="1" stroke-dasharray="none" stroke-linejoin="miter" stroke-width="1px" fill="#000000" stroke-linecap="butt" stroke="none" stroke-miterlimit="4" fill-rule="nonzero" role="img" d="M47.201,0.596L50.182,1.259L52.6,2.12L54.554,3.114L56.045,4.174L57.171,5.3L57.999,6.426L58.529,7.519L58.86,8.513L58.993,9.374L59.059,10.036L59.026,10.467L59.026,28.155L58.86,30.242L58.429,32.063L57.734,33.587L56.873,34.846L55.879,35.873L54.786,36.701L53.627,37.33L52.467,37.794L51.374,38.125L50.381,38.357L49.519,38.489L48.824,38.556L29.049,38.556L26.764,38.721L24.809,39.185L23.153,39.914L21.795,40.808L20.702,41.868L19.808,43.027L19.145,44.22L18.648,45.445L18.317,46.604L18.085,47.664L17.953,48.559L17.887,49.254L17.887,59.39L10.5,59.39L9.804,59.291L8.877,59.059L7.817,58.661L6.658,58.065L5.465,57.204L4.273,56.011L3.114,54.488L2.054,52.534L1.126,50.116L0.431,47.201L-0.033,43.723L-0.199,39.649L0,35.608L0.53,32.163L1.325,29.281L2.385,26.929L3.577,25.041L4.902,23.584L6.293,22.491L7.685,21.696L9.01,21.166L10.202,20.835L11.262,20.669L12.057,20.636L12.587,20.636L12.786,20.669L39.814,20.669L39.814,17.92L20.47,17.92L20.437,8.811L20.371,7.585L20.536,6.459L20.901,5.432L21.464,4.505L22.292,3.644L23.319,2.882L24.577,2.219L26.035,1.623L27.724,1.126L29.645,0.729L31.765,0.397L34.117,0.199L36.667,0.066L39.45,0L43.656,0.166ZM26.333,7.155L25.571,8.248L25.306,9.606L25.571,10.964L26.333,12.09L27.426,12.819L28.784,13.117L30.142,12.819L31.235,12.09L31.997,10.964L32.262,9.606L31.997,8.248L31.235,7.155L30.142,6.426L28.784,6.128L27.426,6.426ZM69.691,20.238L70.619,20.437L71.679,20.835L72.838,21.431L74.031,22.325L75.223,23.484L76.382,25.041L77.442,26.995L78.37,29.413L79.065,32.328L79.529,35.773L79.695,39.847L79.496,43.921L78.966,47.366L78.171,50.215L77.111,52.567L75.919,54.455L74.594,55.945L73.202,57.038L71.811,57.833L70.486,58.363L69.294,58.661L68.234,58.827L67.439,58.893L66.909,58.86L39.682,58.86L39.682,61.576L59.026,61.576L59.059,70.718L59.125,71.911L58.959,73.037L58.595,74.064L58.032,75.024L57.204,75.852L56.177,76.647L54.918,77.31L53.461,77.873L51.772,78.37L49.851,78.8L47.731,79.098L45.379,79.33L42.828,79.463L40.046,79.496L35.839,79.363L32.295,78.9L29.314,78.237L26.896,77.409L24.942,76.415L23.451,75.322L22.325,74.196L21.497,73.07L20.967,71.977L20.636,70.983L20.503,70.155L20.437,69.493L20.47,69.062L20.47,51.374L20.636,49.254L21.066,47.466L21.762,45.942L22.623,44.683L23.617,43.623L24.71,42.828L25.869,42.166L27.029,41.702L28.122,41.371L29.115,41.172L29.977,41.04L30.672,40.974L31.103,40.94L50.447,40.94L52.732,40.775L54.687,40.311L56.343,39.615L57.701,38.688L58.794,37.628L59.688,36.469L60.351,35.276L60.847,34.084L61.179,32.925L61.411,31.865L61.543,30.937L61.609,30.242L61.609,20.106L68.532,20.106L68.996,20.139ZM48.261,67.439L47.499,68.532L47.234,69.89L47.499,71.248L48.261,72.341L49.354,73.103L50.712,73.368L52.07,73.103L53.163,72.341L53.925,71.248L54.19,69.89L53.925,68.532L53.163,67.439L52.07,66.677L50.712,66.412L49.354,66.677ZM48.261,67.439"/>
</g>
        <g id="Semibold-S" transform="matrix(1.0,0.0,0.0,1.0,2004.802053736266,621.0220732675162)">  <path stroke-opacity="1" fill="#000000" stroke-width="1px" stroke="none" stroke-miterlimit="4" role="img" stroke-linejoin="miter" stroke-linecap="butt" stroke-dasharray="none" fill-opacity="1" fill-rule="nonzero" d="M47.201,0.596L50.182,1.259L52.6,2.12L54.554,3.114L56.045,4.174L57.171,5.3L57.999,6.426L58.529,7.519L58.86,8.513L58.993,9.374L59.059,10.036L59.026,10.467L59.026,28.155L58.86,30.242L58.429,32.063L57.734,33.587L56.873,34.846L55.879,35.873L54.786,36.701L53.627,37.33L52.467,37.794L51.374,38.125L50.381,38.357L49.519,38.489L48.824,38.556L29.049,38.556L26.764,38.721L24.809,39.185L23.153,39.914L21.795,40.808L20.702,41.868L19.808,43.027L19.145,44.22L18.648,45.445L18.317,46.604L18.085,47.664L17.953,48.559L17.887,49.254L17.887,59.39L10.5,59.39L9.804,59.291L8.877,59.059L7.817,58.661L6.658,58.065L5.465,57.204L4.273,56.011L3.114,54.488L2.054,52.534L1.126,50.116L0.431,47.201L-0.033,43.723L-0.199,39.649L0,35.608L0.53,32.163L1.325,29.281L2.385,26.929L3.577,25.041L4.902,23.584L6.293,22.491L7.685,21.696L9.01,21.166L10.202,20.835L11.262,20.669L12.057,20.636L12.587,20.636L12.786,20.669L39.814,20.669L39.814,17.92L20.47,17.92L20.437,8.811L20.371,7.585L20.536,6.459L20.901,5.432L21.464,4.505L22.292,3.644L23.319,2.882L24.577,2.219L26.035,1.623L27.724,1.126L29.645,0.729L31.765,0.397L34.117,0.199L36.667,0.066L39.45,0L43.656,0.166ZM26.333,7.155L25.571,8.248L25.306,9.606L25.571,10.964L26.333,12.09L27.426,12.819L28.784,13.117L30.142,12.819L31.235,12.09L31.997,10.964L32.262,9.606L31.997,8.248L31.235,7.155L30.142,6.426L28.784,6.128L27.426,6.426ZM69.691,20.238L70.619,20.437L71.679,20.835L72.838,21.431L74.031,22.325L75.223,23.484L76.382,25.041L77.442,26.995L78.37,29.413L79.065,32.328L79.529,35.773L79.695,39.847L79.496,43.921L78.966,47.366L78.171,50.215L77.111,52.567L75.919,54.455L74.594,55.945L73.202,57.038L71.811,57.833L70.486,58.363L69.294,58.661L68.234,58.827L67.439,58.893L66.909,58.86L39.682,58.86L39.682,61.576L59.026,61.576L59.059,70.718L59.125,71.911L58.959,73.037L58.595,74.064L58.032,75.024L57.204,75.852L56.177,76.647L54.918,77.31L53.461,77.873L51.772,78.37L49.851,78.8L47.731,79.098L45.379,79.33L42.828,79.463L40.046,79.496L35.839,79.363L32.295,78.9L29.314,78.237L26.896,77.409L24.942,76.415L23.451,75.322L22.325,74.196L21.497,73.07L20.967,71.977L20.636,70.983L20.503,70.155L20.437,69.493L20.47,69.062L20.47,51.374L20.636,49.254L21.066,47.466L21.762,45.942L22.623,44.683L23.617,43.623L24.71,42.828L25.869,42.166L27.029,41.702L28.122,41.371L29.115,41.172L29.977,41.04L30.672,40.974L31.103,40.94L50.447,40.94L52.732,40.775L54.687,40.311L56.343,39.615L57.701,38.688L58.794,37.628L59.688,36.469L60.351,35.276L60.847,34.084L61.179,32.925L61.411,31.865L61.543,30.937L61.609,30.242L61.609,20.106L68.532,20.106L68.996,20.139ZM48.261,67.439L47.499,68.532L47.234,69.89L47.499,71.248L48.261,72.341L49.354,73.103L50.712,73.368L52.07,73.103L53.163,72.341L53.925,71.248L54.19,69.89L53.925,68.532L53.163,67.439L52.07,66.677L50.712,66.412L49.354,66.677ZM48.261,67.439"/>
</g>
        <g id="Medium-S" transform="matrix(1.0,0.0,0.0,1.0,1708.092053736266,621.0220732675162)">  <path stroke-linecap="butt" stroke="none" stroke-opacity="1" fill-rule="nonzero" role="img" stroke-linejoin="miter" stroke-width="1px" fill="#000000" stroke-dasharray="none" stroke-miterlimit="4" fill-opacity="1" d="M47.201,0.596L50.182,1.259L52.6,2.12L54.554,3.114L56.045,4.174L57.171,5.3L57.999,6.426L58.529,7.519L58.86,8.513L58.993,9.374L59.059,10.036L59.026,10.467L59.026,28.155L58.86,30.242L58.429,32.063L57.734,33.587L56.873,34.846L55.879,35.873L54.786,36.701L53.627,37.33L52.467,37.794L51.374,38.125L50.381,38.357L49.519,38.489L48.824,38.556L29.049,38.556L26.764,38.721L24.809,39.185L23.153,39.914L21.795,40.808L20.702,41.868L19.808,43.027L19.145,44.22L18.648,45.445L18.317,46.604L18.085,47.664L17.953,48.559L17.887,49.254L17.887,59.39L10.5,59.39L9.804,59.291L8.877,59.059L7.817,58.661L6.658,58.065L5.465,57.204L4.273,56.011L3.114,54.488L2.054,52.534L1.126,50.116L0.431,47.201L-0.033,43.723L-0.199,39.649L0,35.608L0.53,32.163L1.325,29.281L2.385,26.929L3.577,25.041L4.902,23.584L6.293,22.491L7.685,21.696L9.01,21.166L10.202,20.835L11.262,20.669L12.057,20.636L12.587,20.636L12.786,20.669L39.814,20.669L39.814,17.92L20.47,17.92L20.437,8.811L20.371,7.585L20.536,6.459L20.901,5.432L21.464,4.505L22.292,3.644L23.319,2.882L24.577,2.219L26.035,1.623L27.724,1.126L29.645,0.729L31.765,0.397L34.117,0.199L36.667,0.066L39.45,0L43.656,0.166ZM26.333,7.155L25.571,8.248L25.306,9.606L25.571,10.964L26.333,12.09L27.426,12.819L28.784,13.117L30.142,12.819L31.235,12.09L31.997,10.964L32.262,9.606L31.997,8.248L31.235,7.155L30.142,6.426L28.784,6.128L27.426,6.426ZM69.691,20.238L70.619,20.437L71.679,20.835L72.838,21.431L74.031,22.325L75.223,23.484L76.382,25.041L77.442,26.995L78.37,29.413L79.065,32.328L79.529,35.773L79.695,39.847L79.496,43.921L78.966,47.366L78.171,50.215L77.111,52.567L75.919,54.455L74.594,55.945L73.202,57.038L71.811,57.833L70.486,58.363L69.294,58.661L68.234,58.827L67.439,58.893L66.909,58.86L39.682,58.86L39.682,61.576L59.026,61.576L59.059,70.718L59.125,71.911L58.959,73.037L58.595,74.064L58.032,75.024L57.204,75.852L56.177,76.647L54.918,77.31L53.461,77.873L51.772,78.37L49.851,78.8L47.731,79.098L45.379,79.33L42.828,79.463L40.046,79.496L35.839,79.363L32.295,78.9L29.314,78.237L26.896,77.409L24.942,76.415L23.451,75.322L22.325,74.196L21.497,73.07L20.967,71.977L20.636,70.983L20.503,70.155L20.437,69.493L20.47,69.062L20.47,51.374L20.636,49.254L21.066,47.466L21.762,45.942L22.623,44.683L23.617,43.623L24.71,42.828L25.869,42.166L27.029,41.702L28.122,41.371L29.115,41.172L29.977,41.04L30.672,40.974L31.103,40.94L50.447,40.94L52.732,40.775L54.687,40.311L56.343,39.615L57.701,38.688L58.794,37.628L59.688,36.469L60.351,35.276L60.847,34.084L61.179,32.925L61.411,31.865L61.543,30.937L61.609,30.242L61.609,20.106L68.532,20.106L68.996,20.139ZM48.261,67.439L47.499,68.532L47.234,69.89L47.499,71.248L48.261,72.341L49.354,73.103L50.712,73.368L52.07,73.103L53.163,72.341L53.925,71.248L54.19,69.89L53.925,68.532L53.163,67.439L52.07,66.677L50.712,66.412L49.354,66.677ZM48.261,67.439"/>
</g>
        <g id="Regular-S" transform="matrix(1.0,0.0,0.0,1.0,1411.382053736266,621.0220732675162)">  <path stroke="none" fill-opacity="1" stroke-miterlimit="4" stroke-linecap="butt" stroke-dasharray="none" stroke-linejoin="miter" fill-rule="nonzero" stroke-opacity="1" fill="#000000" role="img" stroke-width="1px" d="M47.201,0.596L50.182,1.259L52.6,2.12L54.554,3.114L56.045,4.174L57.171,5.3L57.999,6.426L58.529,7.519L58.86,8.513L58.993,9.374L59.059,10.036L59.026,10.467L59.026,28.155L58.86,30.242L58.429,32.063L57.734,33.587L56.873,34.846L55.879,35.873L54.786,36.701L53.627,37.33L52.467,37.794L51.374,38.125L50.381,38.357L49.519,38.489L48.824,38.556L29.049,38.556L26.764,38.721L24.809,39.185L23.153,39.914L21.795,40.808L20.702,41.868L19.808,43.027L19.145,44.22L18.648,45.445L18.317,46.604L18.085,47.664L17.953,48.559L17.887,49.254L17.887,59.39L10.5,59.39L9.804,59.291L8.877,59.059L7.817,58.661L6.658,58.065L5.465,57.204L4.273,56.011L3.114,54.488L2.054,52.534L1.126,50.116L0.431,47.201L-0.033,43.723L-0.199,39.649L0,35.608L0.53,32.163L1.325,29.281L2.385,26.929L3.577,25.041L4.902,23.584L6.293,22.491L7.685,21.696L9.01,21.166L10.202,20.835L11.262,20.669L12.057,20.636L12.587,20.636L12.786,20.669L39.814,20.669L39.814,17.92L20.47,17.92L20.437,8.811L20.371,7.585L20.536,6.459L20.901,5.432L21.464,4.505L22.292,3.644L23.319,2.882L24.577,2.219L26.035,1.623L27.724,1.126L29.645,0.729L31.765,0.397L34.117,0.199L36.667,0.066L39.45,0L43.656,0.166ZM26.333,7.155L25.571,8.248L25.306,9.606L25.571,10.964L26.333,12.09L27.426,12.819L28.784,13.117L30.142,12.819L31.235,12.09L31.997,10.964L32.262,9.606L31.997,8.248L31.235,7.155L30.142,6.426L28.784,6.128L27.426,6.426ZM69.691,20.238L70.619,20.437L71.679,20.835L72.838,21.431L74.031,22.325L75.223,23.484L76.382,25.041L77.442,26.995L78.37,29.413L79.065,32.328L79.529,35.773L79.695,39.847L79.496,43.921L78.966,47.366L78.171,50.215L77.111,52.567L75.919,54.455L74.594,55.945L73.202,57.038L71.811,57.833L70.486,58.363L69.294,58.661L68.234,58.827L67.439,58.893L66.909,58.86L39.682,58.86L39.682,61.576L59.026,61.576L59.059,70.718L59.125,71.911L58.959,73.037L58.595,74.064L58.032,75.024L57.204,75.852L56.177,76.647L54.918,77.31L53.461,77.873L51.772,78.37L49.851,78.8L47.731,79.098L45.379,79.33L42.828,79.463L40.046,79.496L35.839,79.363L32.295,78.9L29.314,78.237L26.896,77.409L24.942,76.415L23.451,75.322L22.325,74.196L21.497,73.07L20.967,71.977L20.636,70.983L20.503,70.155L20.437,69.493L20.47,69.062L20.47,51.374L20.636,49.254L21.066,47.466L21.762,45.942L22.623,44.683L23.617,43.623L24.71,42.828L25.869,42.166L27.029,41.702L28.122,41.371L29.115,41.172L29.977,41.04L30.672,40.974L31.103,40.94L50.447,40.94L52.732,40.775L54.687,40.311L56.343,39.615L57.701,38.688L58.794,37.628L59.688,36.469L60.351,35.276L60.847,34.084L61.179,32.925L61.411,31.865L61.543,30.937L61.609,30.242L61.609,20.106L68.532,20.106L68.996,20.139ZM48.261,67.439L47.499,68.532L47.234,69.89L47.499,71.248L48.261,72.341L49.354,73.103L50.712,73.368L52.07,73.103L53.163,72.341L53.925,71.248L54.19,69.89L53.925,68.532L53.163,67.439L52.07,66.677L50.712,66.412L49.354,66.677ZM48.261,67.439"/>
</g>
        <g id="Light-S" transform="matrix(1.0,0.0,0.0,1.0,1114.6720537362662,621.0220732675162)">  <path stroke-dasharray="none" stroke-linejoin="miter" stroke-linecap="butt" role="img" stroke="none" stroke-opacity="1" fill="#000000" stroke-miterlimit="4" fill-rule="nonzero" stroke-width="1px" fill-opacity="1" d="M47.201,0.596L50.182,1.259L52.6,2.12L54.554,3.114L56.045,4.174L57.171,5.3L57.999,6.426L58.529,7.519L58.86,8.513L58.993,9.374L59.059,10.036L59.026,10.467L59.026,28.155L58.86,30.242L58.429,32.063L57.734,33.587L56.873,34.846L55.879,35.873L54.786,36.701L53.627,37.33L52.467,37.794L51.374,38.125L50.381,38.357L49.519,38.489L48.824,38.556L29.049,38.556L26.764,38.721L24.809,39.185L23.153,39.914L21.795,40.808L20.702,41.868L19.808,43.027L19.145,44.22L18.648,45.445L18.317,46.604L18.085,47.664L17.953,48.559L17.887,49.254L17.887,59.39L10.5,59.39L9.804,59.291L8.877,59.059L7.817,58.661L6.658,58.065L5.465,57.204L4.273,56.011L3.114,54.488L2.054,52.534L1.126,50.116L0.431,47.201L-0.033,43.723L-0.199,39.649L0,35.608L0.53,32.163L1.325,29.281L2.385,26.929L3.577,25.041L4.902,23.584L6.293,22.491L7.685,21.696L9.01,21.166L10.202,20.835L11.262,20.669L12.057,20.636L12.587,20.636L12.786,20.669L39.814,20.669L39.814,17.92L20.47,17.92L20.437,8.811L20.371,7.585L20.536,6.459L20.901,5.432L21.464,4.505L22.292,3.644L23.319,2.882L24.577,2.219L26.035,1.623L27.724,1.126L29.645,0.729L31.765,0.397L34.117,0.199L36.667,0.066L39.45,0L43.656,0.166ZM26.333,7.155L25.571,8.248L25.306,9.606L25.571,10.964L26.333,12.09L27.426,12.819L28.784,13.117L30.142,12.819L31.235,12.09L31.997,10.964L32.262,9.606L31.997,8.248L31.235,7.155L30.142,6.426L28.784,6.128L27.426,6.426ZM69.691,20.238L70.619,20.437L71.679,20.835L72.838,21.431L74.031,22.325L75.223,23.484L76.382,25.041L77.442,26.995L78.37,29.413L79.065,32.328L79.529,35.773L79.695,39.847L79.496,43.921L78.966,47.366L78.171,50.215L77.111,52.567L75.919,54.455L74.594,55.945L73.202,57.038L71.811,57.833L70.486,58.363L69.294,58.661L68.234,58.827L67.439,58.893L66.909,58.86L39.682,58.86L39.682,61.576L59.026,61.576L59.059,70.718L59.125,71.911L58.959,73.037L58.595,74.064L58.032,75.024L57.204,75.852L56.177,76.647L54.918,77.31L53.461,77.873L51.772,78.37L49.851,78.8L47.731,79.098L45.379,79.33L42.828,79.463L40.046,79.496L35.839,79.363L32.295,78.9L29.314,78.237L26.896,77.409L24.942,76.415L23.451,75.322L22.325,74.196L21.497,73.07L20.967,71.977L20.636,70.983L20.503,70.155L20.437,69.493L20.47,69.062L20.47,51.374L20.636,49.254L21.066,47.466L21.762,45.942L22.623,44.683L23.617,43.623L24.71,42.828L25.869,42.166L27.029,41.702L28.122,41.371L29.115,41.172L29.977,41.04L30.672,40.974L31.103,40.94L50.447,40.94L52.732,40.775L54.687,40.311L56.343,39.615L57.701,38.688L58.794,37.628L59.688,36.469L60.351,35.276L60.847,34.084L61.179,32.925L61.411,31.865L61.543,30.937L61.609,30.242L61.609,20.106L68.532,20.106L68.996,20.139ZM48.261,67.439L47.499,68.532L47.234,69.89L47.499,71.248L48.261,72.341L49.354,73.103L50.712,73.368L52.07,73.103L53.163,72.341L53.925,71.248L54.19,69.89L53.925,68.532L53.163,67.439L52.07,66.677L50.712,66.412L49.354,66.677ZM48.261,67.439"/>
</g>
        <g id="Thin-S" transform="matrix(1.0,0.0,0.0,1.0,817.9620537362663,621.0220732675162)">  <path fill-opacity="1" stroke-linecap="butt" stroke-linejoin="miter" stroke-miterlimit="4" fill-rule="nonzero" stroke="none" stroke-dasharray="none" fill="#000000" stroke-opacity="1" role="img" stroke-width="1px" d="M47.201,0.596L50.182,1.259L52.6,2.12L54.554,3.114L56.045,4.174L57.171,5.3L57.999,6.426L58.529,7.519L58.86,8.513L58.993,9.374L59.059,10.036L59.026,10.467L59.026,28.155L58.86,30.242L58.429,32.063L57.734,33.587L56.873,34.846L55.879,35.873L54.786,36.701L53.627,37.33L52.467,37.794L51.374,38.125L50.381,38.357L49.519,38.489L48.824,38.556L29.049,38.556L26.764,38.721L24.809,39.185L23.153,39.914L21.795,40.808L20.702,41.868L19.808,43.027L19.145,44.22L18.648,45.445L18.317,46.604L18.085,47.664L17.953,48.559L17.887,49.254L17.887,59.39L10.5,59.39L9.804,59.291L8.877,59.059L7.817,58.661L6.658,58.065L5.465,57.204L4.273,56.011L3.114,54.488L2.054,52.534L1.126,50.116L0.431,47.201L-0.033,43.723L-0.199,39.649L0,35.608L0.53,32.163L1.325,29.281L2.385,26.929L3.577,25.041L4.902,23.584L6.293,22.491L7.685,21.696L9.01,21.166L10.202,20.835L11.262,20.669L12.057,20.636L12.587,20.636L12.786,20.669L39.814,20.669L39.814,17.92L20.47,17.92L20.437,8.811L20.371,7.585L20.536,6.459L20.901,5.432L21.464,4.505L22.292,3.644L23.319,2.882L24.577,2.219L26.035,1.623L27.724,1.126L29.645,0.729L31.765,0.397L34.117,0.199L36.667,0.066L39.45,0L43.656,0.166ZM26.333,7.155L25.571,8.248L25.306,9.606L25.571,10.964L26.333,12.09L27.426,12.819L28.784,13.117L30.142,12.819L31.235,12.09L31.997,10.964L32.262,9.606L31.997,8.248L31.235,7.155L30.142,6.426L28.784,6.128L27.426,6.426ZM69.691,20.238L70.619,20.437L71.679,20.835L72.838,21.431L74.031,22.325L75.223,23.484L76.382,25.041L77.442,26.995L78.37,29.413L79.065,32.328L79.529,35.773L79.695,39.847L79.496,43.921L78.966,47.366L78.171,50.215L77.111,52.567L75.919,54.455L74.594,55.945L73.202,57.038L71.811,57.833L70.486,58.363L69.294,58.661L68.234,58.827L67.439,58.893L66.909,58.86L39.682,58.86L39.682,61.576L59.026,61.576L59.059,70.718L59.125,71.911L58.959,73.037L58.595,74.064L58.032,75.024L57.204,75.852L56.177,76.647L54.918,77.31L53.461,77.873L51.772,78.37L49.851,78.8L47.731,79.098L45.379,79.33L42.828,79.463L40.046,79.496L35.839,79.363L32.295,78.9L29.314,78.237L26.896,77.409L24.942,76.415L23.451,75.322L22.325,74.196L21.497,73.07L20.967,71.977L20.636,70.983L20.503,70.155L20.437,69.493L20.47,69.062L20.47,51.374L20.636,49.254L21.066,47.466L21.762,45.942L22.623,44.683L23.617,43.623L24.71,42.828L25.869,42.166L27.029,41.702L28.122,41.371L29.115,41.172L29.977,41.04L30.672,40.974L31.103,40.94L50.447,40.94L52.732,40.775L54.687,40.311L56.343,39.615L57.701,38.688L58.794,37.628L59.688,36.469L60.351,35.276L60.847,34.084L61.179,32.925L61.411,31.865L61.543,30.937L61.609,30.242L61.609,20.106L68.532,20.106L68.996,20.139ZM48.261,67.439L47.499,68.532L47.234,69.89L47.499,71.248L48.261,72.341L49.354,73.103L50.712,73.368L52.07,73.103L53.163,72.341L53.925,71.248L54.19,69.89L53.925,68.532L53.163,67.439L52.07,66.677L50.712,66.412L49.354,66.677ZM48.261,67.439"/>
</g>
        <g id="Ultralight-S" transform="matrix(1.0,0.0,0.0,1.0,521.2520537362662,621.0220732675162)">  <path stroke-dasharray="none" stroke-linejoin="miter" stroke-opacity="1" stroke-miterlimit="4" stroke="none" fill-rule="nonzero" stroke-linecap="butt" stroke-width="1px" fill-opacity="1" role="img" fill="#000000" d="M47.201,0.596L50.182,1.259L52.6,2.12L54.554,3.114L56.045,4.174L57.171,5.3L57.999,6.426L58.529,7.519L58.86,8.513L58.993,9.374L59.059,10.036L59.026,10.467L59.026,28.155L58.86,30.242L58.429,32.063L57.734,33.587L56.873,34.846L55.879,35.873L54.786,36.701L53.627,37.33L52.467,37.794L51.374,38.125L50.381,38.357L49.519,38.489L48.824,38.556L29.049,38.556L26.764,38.721L24.809,39.185L23.153,39.914L21.795,40.808L20.702,41.868L19.808,43.027L19.145,44.22L18.648,45.445L18.317,46.604L18.085,47.664L17.953,48.559L17.887,49.254L17.887,59.39L10.5,59.39L9.804,59.291L8.877,59.059L7.817,58.661L6.658,58.065L5.465,57.204L4.273,56.011L3.114,54.488L2.054,52.534L1.126,50.116L0.431,47.201L-0.033,43.723L-0.199,39.649L0,35.608L0.53,32.163L1.325,29.281L2.385,26.929L3.577,25.041L4.902,23.584L6.293,22.491L7.685,21.696L9.01,21.166L10.202,20.835L11.262,20.669L12.057,20.636L12.587,20.636L12.786,20.669L39.814,20.669L39.814,17.92L20.47,17.92L20.437,8.811L20.371,7.585L20.536,6.459L20.901,5.432L21.464,4.505L22.292,3.644L23.319,2.882L24.577,2.219L26.035,1.623L27.724,1.126L29.645,0.729L31.765,0.397L34.117,0.199L36.667,0.066L39.45,0L43.656,0.166ZM26.333,7.155L25.571,8.248L25.306,9.606L25.571,10.964L26.333,12.09L27.426,12.819L28.784,13.117L30.142,12.819L31.235,12.09L31.997,10.964L32.262,9.606L31.997,8.248L31.235,7.155L30.142,6.426L28.784,6.128L27.426,6.426ZM69.691,20.238L70.619,20.437L71.679,20.835L72.838,21.431L74.031,22.325L75.223,23.484L76.382,25.041L77.442,26.995L78.37,29.413L79.065,32.328L79.529,35.773L79.695,39.847L79.496,43.921L78.966,47.366L78.171,50.215L77.111,52.567L75.919,54.455L74.594,55.945L73.202,57.038L71.811,57.833L70.486,58.363L69.294,58.661L68.234,58.827L67.439,58.893L66.909,58.86L39.682,58.86L39.682,61.576L59.026,61.576L59.059,70.718L59.125,71.911L58.959,73.037L58.595,74.064L58.032,75.024L57.204,75.852L56.177,76.647L54.918,77.31L53.461,77.873L51.772,78.37L49.851,78.8L47.731,79.098L45.379,79.33L42.828,79.463L40.046,79.496L35.839,79.363L32.295,78.9L29.314,78.237L26.896,77.409L24.942,76.415L23.451,75.322L22.325,74.196L21.497,73.07L20.967,71.977L20.636,70.983L20.503,70.155L20.437,69.493L20.47,69.062L20.47,51.374L20.636,49.254L21.066,47.466L21.762,45.942L22.623,44.683L23.617,43.623L24.71,42.828L25.869,42.166L27.029,41.702L28.122,41.371L29.115,41.172L29.977,41.04L30.672,40.974L31.103,40.94L50.447,40.94L52.732,40.775L54.687,40.311L56.343,39.615L57.701,38.688L58.794,37.628L59.688,36.469L60.351,35.276L60.847,34.084L61.179,32.925L61.411,31.865L61.543,30.937L61.609,30.242L61.609,20.106L68.532,20.106L68.996,20.139ZM48.261,67.439L47.499,68.532L47.234,69.89L47.499,71.248L48.261,72.341L49.354,73.103L50.712,73.368L52.07,73.103L53.163,72.341L53.925,71.248L54.19,69.89L53.925,68.532L53.163,67.439L52.07,66.677L50.712,66.412L49.354,66.677ZM48.261,67.439"/>
</g>
    </g>
    </g>
</svg>
