<?xml version="1.0" encoding="UTF-8"?>
<!--Generator: CustomSymbols by @serious_bret-->
<!DOCTYPE svg
        PUBLIC "-//W3C//DTD SVG 1.1//EN"
        "http://www.w3.org/Graphics/SVG/1.1/DTD/svg11.dtd">
<svg version="1.1" xmlns="http://www.w3.org/2000/svg" xmlns:xlink="http://www.w3.org/1999/xlink" width="2900" height="1500">
    <g transform="translate(-200 -200)">
    <!--template writer version: "8"-->
    <g id="Notes">
        <rect height="2200" id="artboard" style="fill:white;opacity:1" width="3300" x="0" y="0"/>
        <line id="" style="fill:none;stroke:black;opacity:1;stroke-width:0.5;" x1="263" x2="3036" y1="292" y2="292"/>
        <text id="reftext1" style="stroke:none;fill:black;font-family:-apple-system,&quot;SF Pro Display&quot;,&quot;SF Pro Text&quot;,Helvetica,sans-serif;font-weight:bold;" transform="matrix(1 0 0 1 263 322)">Weight/Scale Variations</text>
        <text id="reftext2" style="stroke:none;fill:black;font-family:-apple-system,&quot;SF Pro Display&quot;,&quot;SF Pro Text&quot;,Helvetica,sans-serif;text-anchor:middle;" transform="matrix(1 0 0 1 559.711 322)">Ultralight</text>
        <text style="stroke:none;fill:black;font-family:-apple-system,&quot;SF Pro Display&quot;,&quot;SF Pro Text&quot;,Helvetica,sans-serif;text-anchor:middle;" transform="matrix(1 0 0 1 856.422 322)">Thin</text>
        <text style="stroke:none;fill:black;font-family:-apple-system,&quot;SF Pro Display&quot;,&quot;SF Pro Text&quot;,Helvetica,sans-serif;text-anchor:middle;" transform="matrix(1 0 0 1 1153.13 322)">Light</text>
        <text style="stroke:none;fill:black;font-family:-apple-system,&quot;SF Pro Display&quot;,&quot;SF Pro Text&quot;,Helvetica,sans-serif;text-anchor:middle;" transform="matrix(1 0 0 1 1449.84 322)">Regular</text>
        <text style="stroke:none;fill:black;font-family:-apple-system,&quot;SF Pro Display&quot;,&quot;SF Pro Text&quot;,Helvetica,sans-serif;text-anchor:middle;" transform="matrix(1 0 0 1 1746.56 322)">Medium</text>
        <text style="stroke:none;fill:black;font-family:-apple-system,&quot;SF Pro Display&quot;,&quot;SF Pro Text&quot;,Helvetica,sans-serif;text-anchor:middle;" transform="matrix(1 0 0 1 2043.27 322)">Semibold</text>
        <text style="stroke:none;fill:black;font-family:-apple-system,&quot;SF Pro Display&quot;,&quot;SF Pro Text&quot;,Helvetica,sans-serif;text-anchor:middle;" transform="matrix(1 0 0 1 2339.98 322)">Bold</text>
        <text style="stroke:none;fill:black;font-family:-apple-system,&quot;SF Pro Display&quot;,&quot;SF Pro Text&quot;,Helvetica,sans-serif;text-anchor:middle;" transform="matrix(1 0 0 1 2636.69 322)">Heavy</text>
        <text style="stroke:none;fill:black;font-family:-apple-system,&quot;SF Pro Display&quot;,&quot;SF Pro Text&quot;,Helvetica,sans-serif;text-anchor:middle;" transform="matrix(1 0 0 1 2933.4 322)">Black</text>

        <text style="stroke:none;fill:black;font-family:-apple-system,&quot;SF Pro Display&quot;,&quot;SF Pro Text&quot;,Helvetica,sans-serif;" transform="matrix(1 0 0 1 263 726)">Small</text>
        <text style="stroke:none;fill:black;font-family:-apple-system,&quot;SF Pro Display&quot;,&quot;SF Pro Text&quot;,Helvetica,sans-serif;" transform="matrix(1 0 0 1 263 1156)">Medium</text>
        <text style="stroke:none;fill:black;font-family:-apple-system,&quot;SF Pro Display&quot;,&quot;SF Pro Text&quot;,Helvetica,sans-serif;" transform="matrix(1 0 0 1 263 1586)">Large</text>
    </g>
    <g id="Guides">
        <g id="H-reference" style="fill:#27AAE1;stroke:none;" transform="matrix(1 0 0 1 339 696)">
            <path d="M0.976562 0L3.66211 0L12.9883-24.4629L45.752-24.4629L55.127 0L57.7637 0L30.6152-70.459L28.125-70.459ZM29.3457-67.1387L29.4434-67.1387L44.873-26.709L13.8672-26.709Z"/>
        </g>
        <line id="Baseline-S" style="fill:none;stroke:#27AAE1;opacity:1;stroke-width:0.5;" x1="263" x2="3036" y1="696" y2="696"/>
        <line id="Capline-S" style="fill:none;stroke:#27AAE1;opacity:1;stroke-width:0.5;" x1="263" x2="3036" y1="625.541" y2="625.541"/>
        <g id="H-reference" style="fill:#27AAE1;stroke:none;" transform="matrix(1 0 0 1 339 1126)">
            <path d="M0.976562 0L3.66211 0L12.9883-24.4629L45.752-24.4629L55.127 0L57.7637 0L30.6152-70.459L28.125-70.459ZM29.3457-67.1387L29.4434-67.1387L44.873-26.709L13.8672-26.709Z"/>
        </g>
        <line id="Baseline-M" style="fill:none;stroke:#27AAE1;opacity:1;stroke-width:0.5;" x1="263" x2="3036" y1="1126" y2="1126"/>
        <line id="Capline-M" style="fill:none;stroke:#27AAE1;opacity:1;stroke-width:0.5;" x1="263" x2="3036" y1="1055.54" y2="1055.54"/>
        <g id="H-reference" style="fill:#27AAE1;stroke:none;" transform="matrix(1 0 0 1 339 1556)">
            <path d="M0.976562 0L3.66211 0L12.9883-24.4629L45.752-24.4629L55.127 0L57.7637 0L30.6152-70.459L28.125-70.459ZM29.3457-67.1387L29.4434-67.1387L44.873-26.709L13.8672-26.709Z"/>
        </g>
        <line id="Baseline-L" style="fill:none;stroke:#27AAE1;opacity:1;stroke-width:0.5;" x1="263" x2="3036" y1="1556" y2="1556"/>
        <line id="Capline-L" style="fill:none;stroke:#27AAE1;opacity:1;stroke-width:0.5;" x1="263" x2="3036" y1="1485.54" y2="1485.54"/>
        <line id="left-margin" x1="1417.3214020285482" x2="1417.3214020285482" y1="1030.79" y2="1150.12" style="fill:none;stroke:#00AEEF;stroke-width:0.5;opacity:1.0;"/>
        <line id="right-margin" x1="1484.9385979714516" x2="1484.9385979714516" y1="1030.79" y2="1150.12" style="fill:none;stroke:#00AEEF;stroke-width:0.5;opacity:1.0;"/>
    </g>
    <g id="Symbols">
        <g id="Black-L" transform="matrix(1.0,0.0,0.0,1.0,2869.1948778030437,1455.2848973342939)">  <path stroke-miterlimit="4" stroke="none" fill="#000000" stroke-opacity="1" stroke-dasharray="none" fill-rule="nonzero" role="img" stroke-linecap="butt" fill-opacity="1" stroke-width="1px" stroke-linejoin="miter" d="M38.254,55.701L33.103,55.701L30.292,70.151L34.865,70.151C37.9,70.151,40.159,69.578,41.643,68.437C43.127,67.291,44.126,65.387,44.644,62.713C45.147,60.148,44.917,58.336,43.968,57.283C43.013,56.23,41.114,55.701,38.254,55.701ZM65.485,31.04C29.321,31.04,0,46.462,0,65.485C0,84.509,29.321,99.936,65.485,99.936C101.649,99.936,130.97,84.509,130.97,65.485C130.97,46.462,101.649,31.04,65.485,31.04ZM47.695,71.701C46.271,73.065,44.557,74.091,42.691,74.708C40.857,75.297,38.516,75.603,35.678,75.603L29.234,75.603L27.449,84.776L19.929,84.776L26.642,50.254L41.103,50.254C45.452,50.254,48.623,51.395,50.62,53.681C52.617,55.962,53.218,59.149,52.421,63.242C52.116,64.862,51.554,66.422,50.756,67.864C49.976,69.256,48.956,70.538,47.695,71.701ZM69.654,75.603L72.618,60.328C72.961,58.593,72.83,57.403,72.246,56.776C71.663,56.143,70.413,55.826,68.497,55.826L62.538,55.826L58.696,75.608L51.231,75.608L57.943,41.081L65.403,41.081L63.619,50.26L70.266,50.26C74.451,50.26,77.332,50.991,78.92,52.448C80.508,53.905,80.983,56.268,80.356,59.537L77.234,75.603L69.654,75.603ZM111.112,63.242C110.812,64.863,110.25,66.424,109.447,67.864C108.667,69.256,107.647,70.538,106.386,71.701C104.961,73.061,103.252,74.088,101.382,74.708C99.548,75.297,97.207,75.603,94.364,75.603L87.925,75.603L86.14,84.781L78.62,84.781L85.333,50.26L99.788,50.26C104.138,50.26,107.308,51.4,109.306,53.687C111.303,55.962,111.909,59.149,111.112,63.242ZM96.951,55.701L91.805,55.701L88.989,70.151L93.562,70.151C96.601,70.151,98.861,69.578,100.34,68.437C101.824,67.291,102.823,65.387,103.346,62.713C103.848,60.148,103.614,58.336,102.664,57.283C101.715,56.23,99.805,55.701,96.951,55.701ZM96.951,55.701"/>
</g>
        <g id="Heavy-L" transform="matrix(1.0,0.0,0.0,1.0,2572.4848778030437,1455.2848973342939)">  <path stroke-linejoin="miter" stroke-linecap="butt" stroke-width="1px" stroke-miterlimit="4" fill-rule="nonzero" fill-opacity="1" stroke-dasharray="none" stroke="none" role="img" stroke-opacity="1" fill="#000000" d="M38.254,55.701L33.103,55.701L30.292,70.151L34.865,70.151C37.9,70.151,40.159,69.578,41.643,68.437C43.127,67.291,44.126,65.387,44.644,62.713C45.147,60.148,44.917,58.336,43.968,57.283C43.013,56.23,41.114,55.701,38.254,55.701ZM65.485,31.04C29.321,31.04,0,46.462,0,65.485C0,84.509,29.321,99.936,65.485,99.936C101.649,99.936,130.97,84.509,130.97,65.485C130.97,46.462,101.649,31.04,65.485,31.04ZM47.695,71.701C46.271,73.065,44.557,74.091,42.691,74.708C40.857,75.297,38.516,75.603,35.678,75.603L29.234,75.603L27.449,84.776L19.929,84.776L26.642,50.254L41.103,50.254C45.452,50.254,48.623,51.395,50.62,53.681C52.617,55.962,53.218,59.149,52.421,63.242C52.116,64.862,51.554,66.422,50.756,67.864C49.976,69.256,48.956,70.538,47.695,71.701ZM69.654,75.603L72.618,60.328C72.961,58.593,72.83,57.403,72.246,56.776C71.663,56.143,70.413,55.826,68.497,55.826L62.538,55.826L58.696,75.608L51.231,75.608L57.943,41.081L65.403,41.081L63.619,50.26L70.266,50.26C74.451,50.26,77.332,50.991,78.92,52.448C80.508,53.905,80.983,56.268,80.356,59.537L77.234,75.603L69.654,75.603ZM111.112,63.242C110.812,64.863,110.25,66.424,109.447,67.864C108.667,69.256,107.647,70.538,106.386,71.701C104.961,73.061,103.252,74.088,101.382,74.708C99.548,75.297,97.207,75.603,94.364,75.603L87.925,75.603L86.14,84.781L78.62,84.781L85.333,50.26L99.788,50.26C104.138,50.26,107.308,51.4,109.306,53.687C111.303,55.962,111.909,59.149,111.112,63.242ZM96.951,55.701L91.805,55.701L88.989,70.151L93.562,70.151C96.601,70.151,98.861,69.578,100.34,68.437C101.824,67.291,102.823,65.387,103.346,62.713C103.848,60.148,103.614,58.336,102.664,57.283C101.715,56.23,99.805,55.701,96.951,55.701ZM96.951,55.701"/>
</g>
        <g id="Bold-L" transform="matrix(1.0,0.0,0.0,1.0,2275.7748778030436,1455.2848973342939)">  <path role="img" fill="#000000" stroke-opacity="1" stroke-dasharray="none" fill-opacity="1" stroke-linecap="butt" stroke-width="1px" stroke="none" fill-rule="nonzero" stroke-miterlimit="4" stroke-linejoin="miter" d="M38.254,55.701L33.103,55.701L30.292,70.151L34.865,70.151C37.9,70.151,40.159,69.578,41.643,68.437C43.127,67.291,44.126,65.387,44.644,62.713C45.147,60.148,44.917,58.336,43.968,57.283C43.013,56.23,41.114,55.701,38.254,55.701ZM65.485,31.04C29.321,31.04,0,46.462,0,65.485C0,84.509,29.321,99.936,65.485,99.936C101.649,99.936,130.97,84.509,130.97,65.485C130.97,46.462,101.649,31.04,65.485,31.04ZM47.695,71.701C46.271,73.065,44.557,74.091,42.691,74.708C40.857,75.297,38.516,75.603,35.678,75.603L29.234,75.603L27.449,84.776L19.929,84.776L26.642,50.254L41.103,50.254C45.452,50.254,48.623,51.395,50.62,53.681C52.617,55.962,53.218,59.149,52.421,63.242C52.116,64.862,51.554,66.422,50.756,67.864C49.976,69.256,48.956,70.538,47.695,71.701ZM69.654,75.603L72.618,60.328C72.961,58.593,72.83,57.403,72.246,56.776C71.663,56.143,70.413,55.826,68.497,55.826L62.538,55.826L58.696,75.608L51.231,75.608L57.943,41.081L65.403,41.081L63.619,50.26L70.266,50.26C74.451,50.26,77.332,50.991,78.92,52.448C80.508,53.905,80.983,56.268,80.356,59.537L77.234,75.603L69.654,75.603ZM111.112,63.242C110.812,64.863,110.25,66.424,109.447,67.864C108.667,69.256,107.647,70.538,106.386,71.701C104.961,73.061,103.252,74.088,101.382,74.708C99.548,75.297,97.207,75.603,94.364,75.603L87.925,75.603L86.14,84.781L78.62,84.781L85.333,50.26L99.788,50.26C104.138,50.26,107.308,51.4,109.306,53.687C111.303,55.962,111.909,59.149,111.112,63.242ZM96.951,55.701L91.805,55.701L88.989,70.151L93.562,70.151C96.601,70.151,98.861,69.578,100.34,68.437C101.824,67.291,102.823,65.387,103.346,62.713C103.848,60.148,103.614,58.336,102.664,57.283C101.715,56.23,99.805,55.701,96.951,55.701ZM96.951,55.701"/>
</g>
        <g id="Semibold-L" transform="matrix(1.0,0.0,0.0,1.0,1979.0648778030438,1455.2848973342939)">  <path stroke-dasharray="none" stroke-width="1px" stroke-linecap="butt" stroke-miterlimit="4" fill-rule="nonzero" fill-opacity="1" stroke-linejoin="miter" stroke-opacity="1" fill="#000000" stroke="none" role="img" d="M38.254,55.701L33.103,55.701L30.292,70.151L34.865,70.151C37.9,70.151,40.159,69.578,41.643,68.437C43.127,67.291,44.126,65.387,44.644,62.713C45.147,60.148,44.917,58.336,43.968,57.283C43.013,56.23,41.114,55.701,38.254,55.701ZM65.485,31.04C29.321,31.04,0,46.462,0,65.485C0,84.509,29.321,99.936,65.485,99.936C101.649,99.936,130.97,84.509,130.97,65.485C130.97,46.462,101.649,31.04,65.485,31.04ZM47.695,71.701C46.271,73.065,44.557,74.091,42.691,74.708C40.857,75.297,38.516,75.603,35.678,75.603L29.234,75.603L27.449,84.776L19.929,84.776L26.642,50.254L41.103,50.254C45.452,50.254,48.623,51.395,50.62,53.681C52.617,55.962,53.218,59.149,52.421,63.242C52.116,64.862,51.554,66.422,50.756,67.864C49.976,69.256,48.956,70.538,47.695,71.701ZM69.654,75.603L72.618,60.328C72.961,58.593,72.83,57.403,72.246,56.776C71.663,56.143,70.413,55.826,68.497,55.826L62.538,55.826L58.696,75.608L51.231,75.608L57.943,41.081L65.403,41.081L63.619,50.26L70.266,50.26C74.451,50.26,77.332,50.991,78.92,52.448C80.508,53.905,80.983,56.268,80.356,59.537L77.234,75.603L69.654,75.603ZM111.112,63.242C110.812,64.863,110.25,66.424,109.447,67.864C108.667,69.256,107.647,70.538,106.386,71.701C104.961,73.061,103.252,74.088,101.382,74.708C99.548,75.297,97.207,75.603,94.364,75.603L87.925,75.603L86.14,84.781L78.62,84.781L85.333,50.26L99.788,50.26C104.138,50.26,107.308,51.4,109.306,53.687C111.303,55.962,111.909,59.149,111.112,63.242ZM96.951,55.701L91.805,55.701L88.989,70.151L93.562,70.151C96.601,70.151,98.861,69.578,100.34,68.437C101.824,67.291,102.823,65.387,103.346,62.713C103.848,60.148,103.614,58.336,102.664,57.283C101.715,56.23,99.805,55.701,96.951,55.701ZM96.951,55.701"/>
</g>
        <g id="Medium-L" transform="matrix(1.0,0.0,0.0,1.0,1682.3548778030438,1455.2848973342939)">  <path stroke-linecap="butt" fill-rule="nonzero" stroke-width="1px" role="img" stroke="none" stroke-opacity="1" stroke-linejoin="miter" fill="#000000" stroke-dasharray="none" fill-opacity="1" stroke-miterlimit="4" d="M38.254,55.701L33.103,55.701L30.292,70.151L34.865,70.151C37.9,70.151,40.159,69.578,41.643,68.437C43.127,67.291,44.126,65.387,44.644,62.713C45.147,60.148,44.917,58.336,43.968,57.283C43.013,56.23,41.114,55.701,38.254,55.701ZM65.485,31.04C29.321,31.04,0,46.462,0,65.485C0,84.509,29.321,99.936,65.485,99.936C101.649,99.936,130.97,84.509,130.97,65.485C130.97,46.462,101.649,31.04,65.485,31.04ZM47.695,71.701C46.271,73.065,44.557,74.091,42.691,74.708C40.857,75.297,38.516,75.603,35.678,75.603L29.234,75.603L27.449,84.776L19.929,84.776L26.642,50.254L41.103,50.254C45.452,50.254,48.623,51.395,50.62,53.681C52.617,55.962,53.218,59.149,52.421,63.242C52.116,64.862,51.554,66.422,50.756,67.864C49.976,69.256,48.956,70.538,47.695,71.701ZM69.654,75.603L72.618,60.328C72.961,58.593,72.83,57.403,72.246,56.776C71.663,56.143,70.413,55.826,68.497,55.826L62.538,55.826L58.696,75.608L51.231,75.608L57.943,41.081L65.403,41.081L63.619,50.26L70.266,50.26C74.451,50.26,77.332,50.991,78.92,52.448C80.508,53.905,80.983,56.268,80.356,59.537L77.234,75.603L69.654,75.603ZM111.112,63.242C110.812,64.863,110.25,66.424,109.447,67.864C108.667,69.256,107.647,70.538,106.386,71.701C104.961,73.061,103.252,74.088,101.382,74.708C99.548,75.297,97.207,75.603,94.364,75.603L87.925,75.603L86.14,84.781L78.62,84.781L85.333,50.26L99.788,50.26C104.138,50.26,107.308,51.4,109.306,53.687C111.303,55.962,111.909,59.149,111.112,63.242ZM96.951,55.701L91.805,55.701L88.989,70.151L93.562,70.151C96.601,70.151,98.861,69.578,100.34,68.437C101.824,67.291,102.823,65.387,103.346,62.713C103.848,60.148,103.614,58.336,102.664,57.283C101.715,56.23,99.805,55.701,96.951,55.701ZM96.951,55.701"/>
</g>
        <g id="Regular-L" transform="matrix(1.0,0.0,0.0,1.0,1385.6448778030438,1455.2848973342939)">  <path fill-rule="nonzero" fill="#000000" fill-opacity="1" stroke-dasharray="none" stroke-linejoin="miter" stroke-width="1px" stroke-miterlimit="4" role="img" stroke-opacity="1" stroke-linecap="butt" stroke="none" d="M38.254,55.701L33.103,55.701L30.292,70.151L34.865,70.151C37.9,70.151,40.159,69.578,41.643,68.437C43.127,67.291,44.126,65.387,44.644,62.713C45.147,60.148,44.917,58.336,43.968,57.283C43.013,56.23,41.114,55.701,38.254,55.701ZM65.485,31.04C29.321,31.04,0,46.462,0,65.485C0,84.509,29.321,99.936,65.485,99.936C101.649,99.936,130.97,84.509,130.97,65.485C130.97,46.462,101.649,31.04,65.485,31.04ZM47.695,71.701C46.271,73.065,44.557,74.091,42.691,74.708C40.857,75.297,38.516,75.603,35.678,75.603L29.234,75.603L27.449,84.776L19.929,84.776L26.642,50.254L41.103,50.254C45.452,50.254,48.623,51.395,50.62,53.681C52.617,55.962,53.218,59.149,52.421,63.242C52.116,64.862,51.554,66.422,50.756,67.864C49.976,69.256,48.956,70.538,47.695,71.701ZM69.654,75.603L72.618,60.328C72.961,58.593,72.83,57.403,72.246,56.776C71.663,56.143,70.413,55.826,68.497,55.826L62.538,55.826L58.696,75.608L51.231,75.608L57.943,41.081L65.403,41.081L63.619,50.26L70.266,50.26C74.451,50.26,77.332,50.991,78.92,52.448C80.508,53.905,80.983,56.268,80.356,59.537L77.234,75.603L69.654,75.603ZM111.112,63.242C110.812,64.863,110.25,66.424,109.447,67.864C108.667,69.256,107.647,70.538,106.386,71.701C104.961,73.061,103.252,74.088,101.382,74.708C99.548,75.297,97.207,75.603,94.364,75.603L87.925,75.603L86.14,84.781L78.62,84.781L85.333,50.26L99.788,50.26C104.138,50.26,107.308,51.4,109.306,53.687C111.303,55.962,111.909,59.149,111.112,63.242ZM96.951,55.701L91.805,55.701L88.989,70.151L93.562,70.151C96.601,70.151,98.861,69.578,100.34,68.437C101.824,67.291,102.823,65.387,103.346,62.713C103.848,60.148,103.614,58.336,102.664,57.283C101.715,56.23,99.805,55.701,96.951,55.701ZM96.951,55.701"/>
</g>
        <g id="Light-L" transform="matrix(1.0,0.0,0.0,1.0,1088.934877803044,1455.2848973342939)">  <path fill-opacity="1" stroke-linejoin="miter" fill-rule="nonzero" stroke="none" role="img" stroke-linecap="butt" stroke-width="1px" fill="#000000" stroke-miterlimit="4" stroke-dasharray="none" stroke-opacity="1" d="M38.254,55.701L33.103,55.701L30.292,70.151L34.865,70.151C37.9,70.151,40.159,69.578,41.643,68.437C43.127,67.291,44.126,65.387,44.644,62.713C45.147,60.148,44.917,58.336,43.968,57.283C43.013,56.23,41.114,55.701,38.254,55.701ZM65.485,31.04C29.321,31.04,0,46.462,0,65.485C0,84.509,29.321,99.936,65.485,99.936C101.649,99.936,130.97,84.509,130.97,65.485C130.97,46.462,101.649,31.04,65.485,31.04ZM47.695,71.701C46.271,73.065,44.557,74.091,42.691,74.708C40.857,75.297,38.516,75.603,35.678,75.603L29.234,75.603L27.449,84.776L19.929,84.776L26.642,50.254L41.103,50.254C45.452,50.254,48.623,51.395,50.62,53.681C52.617,55.962,53.218,59.149,52.421,63.242C52.116,64.862,51.554,66.422,50.756,67.864C49.976,69.256,48.956,70.538,47.695,71.701ZM69.654,75.603L72.618,60.328C72.961,58.593,72.83,57.403,72.246,56.776C71.663,56.143,70.413,55.826,68.497,55.826L62.538,55.826L58.696,75.608L51.231,75.608L57.943,41.081L65.403,41.081L63.619,50.26L70.266,50.26C74.451,50.26,77.332,50.991,78.92,52.448C80.508,53.905,80.983,56.268,80.356,59.537L77.234,75.603L69.654,75.603ZM111.112,63.242C110.812,64.863,110.25,66.424,109.447,67.864C108.667,69.256,107.647,70.538,106.386,71.701C104.961,73.061,103.252,74.088,101.382,74.708C99.548,75.297,97.207,75.603,94.364,75.603L87.925,75.603L86.14,84.781L78.62,84.781L85.333,50.26L99.788,50.26C104.138,50.26,107.308,51.4,109.306,53.687C111.303,55.962,111.909,59.149,111.112,63.242ZM96.951,55.701L91.805,55.701L88.989,70.151L93.562,70.151C96.601,70.151,98.861,69.578,100.34,68.437C101.824,67.291,102.823,65.387,103.346,62.713C103.848,60.148,103.614,58.336,102.664,57.283C101.715,56.23,99.805,55.701,96.951,55.701ZM96.951,55.701"/>
</g>
        <g id="Thin-L" transform="matrix(1.0,0.0,0.0,1.0,792.224877803044,1455.2848973342939)">  <path stroke-linejoin="miter" role="img" stroke-linecap="butt" stroke-width="1px" fill-opacity="1" fill="#000000" stroke-miterlimit="4" stroke-opacity="1" fill-rule="nonzero" stroke-dasharray="none" stroke="none" d="M38.254,55.701L33.103,55.701L30.292,70.151L34.865,70.151C37.9,70.151,40.159,69.578,41.643,68.437C43.127,67.291,44.126,65.387,44.644,62.713C45.147,60.148,44.917,58.336,43.968,57.283C43.013,56.23,41.114,55.701,38.254,55.701ZM65.485,31.04C29.321,31.04,0,46.462,0,65.485C0,84.509,29.321,99.936,65.485,99.936C101.649,99.936,130.97,84.509,130.97,65.485C130.97,46.462,101.649,31.04,65.485,31.04ZM47.695,71.701C46.271,73.065,44.557,74.091,42.691,74.708C40.857,75.297,38.516,75.603,35.678,75.603L29.234,75.603L27.449,84.776L19.929,84.776L26.642,50.254L41.103,50.254C45.452,50.254,48.623,51.395,50.62,53.681C52.617,55.962,53.218,59.149,52.421,63.242C52.116,64.862,51.554,66.422,50.756,67.864C49.976,69.256,48.956,70.538,47.695,71.701ZM69.654,75.603L72.618,60.328C72.961,58.593,72.83,57.403,72.246,56.776C71.663,56.143,70.413,55.826,68.497,55.826L62.538,55.826L58.696,75.608L51.231,75.608L57.943,41.081L65.403,41.081L63.619,50.26L70.266,50.26C74.451,50.26,77.332,50.991,78.92,52.448C80.508,53.905,80.983,56.268,80.356,59.537L77.234,75.603L69.654,75.603ZM111.112,63.242C110.812,64.863,110.25,66.424,109.447,67.864C108.667,69.256,107.647,70.538,106.386,71.701C104.961,73.061,103.252,74.088,101.382,74.708C99.548,75.297,97.207,75.603,94.364,75.603L87.925,75.603L86.14,84.781L78.62,84.781L85.333,50.26L99.788,50.26C104.138,50.26,107.308,51.4,109.306,53.687C111.303,55.962,111.909,59.149,111.112,63.242ZM96.951,55.701L91.805,55.701L88.989,70.151L93.562,70.151C96.601,70.151,98.861,69.578,100.34,68.437C101.824,67.291,102.823,65.387,103.346,62.713C103.848,60.148,103.614,58.336,102.664,57.283C101.715,56.23,99.805,55.701,96.951,55.701ZM96.951,55.701"/>
</g>
        <g id="Ultralight-L" transform="matrix(1.0,0.0,0.0,1.0,495.51487780304393,1455.2848973342939)">  <path stroke-opacity="1" stroke="none" fill="#000000" stroke-dasharray="none" role="img" fill-rule="nonzero" stroke-linecap="butt" stroke-width="1px" fill-opacity="1" stroke-miterlimit="4" stroke-linejoin="miter" d="M38.254,55.701L33.103,55.701L30.292,70.151L34.865,70.151C37.9,70.151,40.159,69.578,41.643,68.437C43.127,67.291,44.126,65.387,44.644,62.713C45.147,60.148,44.917,58.336,43.968,57.283C43.013,56.23,41.114,55.701,38.254,55.701ZM65.485,31.04C29.321,31.04,0,46.462,0,65.485C0,84.509,29.321,99.936,65.485,99.936C101.649,99.936,130.97,84.509,130.97,65.485C130.97,46.462,101.649,31.04,65.485,31.04ZM47.695,71.701C46.271,73.065,44.557,74.091,42.691,74.708C40.857,75.297,38.516,75.603,35.678,75.603L29.234,75.603L27.449,84.776L19.929,84.776L26.642,50.254L41.103,50.254C45.452,50.254,48.623,51.395,50.62,53.681C52.617,55.962,53.218,59.149,52.421,63.242C52.116,64.862,51.554,66.422,50.756,67.864C49.976,69.256,48.956,70.538,47.695,71.701ZM69.654,75.603L72.618,60.328C72.961,58.593,72.83,57.403,72.246,56.776C71.663,56.143,70.413,55.826,68.497,55.826L62.538,55.826L58.696,75.608L51.231,75.608L57.943,41.081L65.403,41.081L63.619,50.26L70.266,50.26C74.451,50.26,77.332,50.991,78.92,52.448C80.508,53.905,80.983,56.268,80.356,59.537L77.234,75.603L69.654,75.603ZM111.112,63.242C110.812,64.863,110.25,66.424,109.447,67.864C108.667,69.256,107.647,70.538,106.386,71.701C104.961,73.061,103.252,74.088,101.382,74.708C99.548,75.297,97.207,75.603,94.364,75.603L87.925,75.603L86.14,84.781L78.62,84.781L85.333,50.26L99.788,50.26C104.138,50.26,107.308,51.4,109.306,53.687C111.303,55.962,111.909,59.149,111.112,63.242ZM96.951,55.701L91.805,55.701L88.989,70.151L93.562,70.151C96.601,70.151,98.861,69.578,100.34,68.437C101.824,67.291,102.823,65.387,103.346,62.713C103.848,60.148,103.614,58.336,102.664,57.283C101.715,56.23,99.805,55.701,96.951,55.701ZM96.951,55.701"/>
</g>
        <g id="Black-M" transform="matrix(1.0,0.0,0.0,1.0,2883.9163393822046,1040.0063589134545)">  <path stroke-miterlimit="4" stroke="none" fill="#000000" stroke-opacity="1" stroke-dasharray="none" fill-rule="nonzero" role="img" stroke-linecap="butt" fill-opacity="1" stroke-width="1px" stroke-linejoin="miter" d="M29.654,43.179L25.661,43.179L23.482,54.381L27.027,54.381C29.379,54.381,31.131,53.936,32.281,53.052C33.432,52.164,34.206,50.688,34.608,48.615C34.997,46.626,34.82,45.222,34.084,44.406C33.343,43.589,31.871,43.179,29.654,43.179ZM50.764,24.062C22.729,24.062,0,36.017,0,50.764C0,65.511,22.729,77.47,50.764,77.47C78.798,77.47,101.527,65.511,101.527,50.764C101.527,36.017,78.798,24.062,50.764,24.062ZM36.973,55.582C35.869,56.64,34.54,57.435,33.094,57.913C31.672,58.37,29.857,58.607,27.658,58.607L22.662,58.607L21.278,65.718L15.449,65.718L20.652,38.957L31.863,38.957C35.234,38.957,37.692,39.841,39.24,41.614C40.789,43.382,41.254,45.852,40.636,49.025C40.4,50.28,39.964,51.49,39.346,52.608C38.741,53.687,37.95,54.681,36.973,55.582ZM53.996,58.607L56.293,46.766C56.559,45.421,56.458,44.499,56.005,44.012C55.552,43.521,54.584,43.276,53.099,43.276L48.479,43.276L45.501,58.611L39.714,58.611L44.917,31.846L50.7,31.846L49.317,38.961L54.469,38.961C57.714,38.961,59.948,39.528,61.179,40.657C62.41,41.787,62.778,43.619,62.291,46.153L59.872,58.607L53.996,58.607ZM86.133,49.025C85.901,50.281,85.465,51.492,84.843,52.608C84.238,53.687,83.447,54.681,82.47,55.582C81.365,56.636,80.04,57.432,78.591,57.913C77.169,58.37,75.354,58.607,73.15,58.607L68.159,58.607L66.775,65.722L60.946,65.722L66.149,38.961L77.355,38.961C80.727,38.961,83.185,39.845,84.733,41.618C86.281,43.382,86.751,45.852,86.133,49.025ZM75.156,43.179L71.166,43.179L68.984,54.381L72.529,54.381C74.885,54.381,76.636,53.936,77.783,53.052C78.933,52.164,79.707,50.688,80.114,48.615C80.503,46.626,80.321,45.222,79.585,44.406C78.849,43.589,77.368,43.179,75.156,43.179ZM75.156,43.179"/>
</g>
        <g id="Heavy-M" transform="matrix(1.0,0.0,0.0,1.0,2587.2063393822045,1040.0063589134545)">  <path stroke-linejoin="miter" stroke-linecap="butt" stroke-width="1px" stroke-miterlimit="4" fill-rule="nonzero" fill-opacity="1" stroke-dasharray="none" stroke="none" role="img" stroke-opacity="1" fill="#000000" d="M29.654,43.179L25.661,43.179L23.482,54.381L27.027,54.381C29.379,54.381,31.131,53.936,32.281,53.052C33.432,52.164,34.206,50.688,34.608,48.615C34.997,46.626,34.82,45.222,34.084,44.406C33.343,43.589,31.871,43.179,29.654,43.179ZM50.764,24.062C22.729,24.062,0,36.017,0,50.764C0,65.511,22.729,77.47,50.764,77.47C78.798,77.47,101.527,65.511,101.527,50.764C101.527,36.017,78.798,24.062,50.764,24.062ZM36.973,55.582C35.869,56.64,34.54,57.435,33.094,57.913C31.672,58.37,29.857,58.607,27.658,58.607L22.662,58.607L21.278,65.718L15.449,65.718L20.652,38.957L31.863,38.957C35.234,38.957,37.692,39.841,39.24,41.614C40.789,43.382,41.254,45.852,40.636,49.025C40.4,50.28,39.964,51.49,39.346,52.608C38.741,53.687,37.95,54.681,36.973,55.582ZM53.996,58.607L56.293,46.766C56.559,45.421,56.458,44.499,56.005,44.012C55.552,43.521,54.584,43.276,53.099,43.276L48.479,43.276L45.501,58.611L39.714,58.611L44.917,31.846L50.7,31.846L49.317,38.961L54.469,38.961C57.714,38.961,59.948,39.528,61.179,40.657C62.41,41.787,62.778,43.619,62.291,46.153L59.872,58.607L53.996,58.607ZM86.133,49.025C85.901,50.281,85.465,51.492,84.843,52.608C84.238,53.687,83.447,54.681,82.47,55.582C81.365,56.636,80.04,57.432,78.591,57.913C77.169,58.37,75.354,58.607,73.15,58.607L68.159,58.607L66.775,65.722L60.946,65.722L66.149,38.961L77.355,38.961C80.727,38.961,83.185,39.845,84.733,41.618C86.281,43.382,86.751,45.852,86.133,49.025ZM75.156,43.179L71.166,43.179L68.984,54.381L72.529,54.381C74.885,54.381,76.636,53.936,77.783,53.052C78.933,52.164,79.707,50.688,80.114,48.615C80.503,46.626,80.321,45.222,79.585,44.406C78.849,43.589,77.368,43.179,75.156,43.179ZM75.156,43.179"/>
</g>
        <g id="Bold-M" transform="matrix(1.0,0.0,0.0,1.0,2290.4963393822045,1040.0063589134545)">  <path role="img" fill="#000000" stroke-opacity="1" stroke-dasharray="none" fill-opacity="1" stroke-linecap="butt" stroke-width="1px" stroke="none" fill-rule="nonzero" stroke-miterlimit="4" stroke-linejoin="miter" d="M29.654,43.179L25.661,43.179L23.482,54.381L27.027,54.381C29.379,54.381,31.131,53.936,32.281,53.052C33.432,52.164,34.206,50.688,34.608,48.615C34.997,46.626,34.82,45.222,34.084,44.406C33.343,43.589,31.871,43.179,29.654,43.179ZM50.764,24.062C22.729,24.062,0,36.017,0,50.764C0,65.511,22.729,77.47,50.764,77.47C78.798,77.47,101.527,65.511,101.527,50.764C101.527,36.017,78.798,24.062,50.764,24.062ZM36.973,55.582C35.869,56.64,34.54,57.435,33.094,57.913C31.672,58.37,29.857,58.607,27.658,58.607L22.662,58.607L21.278,65.718L15.449,65.718L20.652,38.957L31.863,38.957C35.234,38.957,37.692,39.841,39.24,41.614C40.789,43.382,41.254,45.852,40.636,49.025C40.4,50.28,39.964,51.49,39.346,52.608C38.741,53.687,37.95,54.681,36.973,55.582ZM53.996,58.607L56.293,46.766C56.559,45.421,56.458,44.499,56.005,44.012C55.552,43.521,54.584,43.276,53.099,43.276L48.479,43.276L45.501,58.611L39.714,58.611L44.917,31.846L50.7,31.846L49.317,38.961L54.469,38.961C57.714,38.961,59.948,39.528,61.179,40.657C62.41,41.787,62.778,43.619,62.291,46.153L59.872,58.607L53.996,58.607ZM86.133,49.025C85.901,50.281,85.465,51.492,84.843,52.608C84.238,53.687,83.447,54.681,82.47,55.582C81.365,56.636,80.04,57.432,78.591,57.913C77.169,58.37,75.354,58.607,73.15,58.607L68.159,58.607L66.775,65.722L60.946,65.722L66.149,38.961L77.355,38.961C80.727,38.961,83.185,39.845,84.733,41.618C86.281,43.382,86.751,45.852,86.133,49.025ZM75.156,43.179L71.166,43.179L68.984,54.381L72.529,54.381C74.885,54.381,76.636,53.936,77.783,53.052C78.933,52.164,79.707,50.688,80.114,48.615C80.503,46.626,80.321,45.222,79.585,44.406C78.849,43.589,77.368,43.179,75.156,43.179ZM75.156,43.179"/>
</g>
        <g id="Semibold-M" transform="matrix(1.0,0.0,0.0,1.0,1993.7863393822045,1040.0063589134545)">  <path stroke-dasharray="none" stroke-width="1px" stroke-linecap="butt" stroke-miterlimit="4" fill-rule="nonzero" fill-opacity="1" stroke-linejoin="miter" stroke-opacity="1" fill="#000000" stroke="none" role="img" d="M29.654,43.179L25.661,43.179L23.482,54.381L27.027,54.381C29.379,54.381,31.131,53.936,32.281,53.052C33.432,52.164,34.206,50.688,34.608,48.615C34.997,46.626,34.82,45.222,34.084,44.406C33.343,43.589,31.871,43.179,29.654,43.179ZM50.764,24.062C22.729,24.062,0,36.017,0,50.764C0,65.511,22.729,77.47,50.764,77.47C78.798,77.47,101.527,65.511,101.527,50.764C101.527,36.017,78.798,24.062,50.764,24.062ZM36.973,55.582C35.869,56.64,34.54,57.435,33.094,57.913C31.672,58.37,29.857,58.607,27.658,58.607L22.662,58.607L21.278,65.718L15.449,65.718L20.652,38.957L31.863,38.957C35.234,38.957,37.692,39.841,39.24,41.614C40.789,43.382,41.254,45.852,40.636,49.025C40.4,50.28,39.964,51.49,39.346,52.608C38.741,53.687,37.95,54.681,36.973,55.582ZM53.996,58.607L56.293,46.766C56.559,45.421,56.458,44.499,56.005,44.012C55.552,43.521,54.584,43.276,53.099,43.276L48.479,43.276L45.501,58.611L39.714,58.611L44.917,31.846L50.7,31.846L49.317,38.961L54.469,38.961C57.714,38.961,59.948,39.528,61.179,40.657C62.41,41.787,62.778,43.619,62.291,46.153L59.872,58.607L53.996,58.607ZM86.133,49.025C85.901,50.281,85.465,51.492,84.843,52.608C84.238,53.687,83.447,54.681,82.47,55.582C81.365,56.636,80.04,57.432,78.591,57.913C77.169,58.37,75.354,58.607,73.15,58.607L68.159,58.607L66.775,65.722L60.946,65.722L66.149,38.961L77.355,38.961C80.727,38.961,83.185,39.845,84.733,41.618C86.281,43.382,86.751,45.852,86.133,49.025ZM75.156,43.179L71.166,43.179L68.984,54.381L72.529,54.381C74.885,54.381,76.636,53.936,77.783,53.052C78.933,52.164,79.707,50.688,80.114,48.615C80.503,46.626,80.321,45.222,79.585,44.406C78.849,43.589,77.368,43.179,75.156,43.179ZM75.156,43.179"/>
</g>
        <g id="Medium-M" transform="matrix(1.0,0.0,0.0,1.0,1697.0763393822044,1040.0063589134545)">  <path stroke-linecap="butt" fill-rule="nonzero" stroke-width="1px" role="img" stroke="none" stroke-opacity="1" stroke-linejoin="miter" fill="#000000" stroke-dasharray="none" fill-opacity="1" stroke-miterlimit="4" d="M29.654,43.179L25.661,43.179L23.482,54.381L27.027,54.381C29.379,54.381,31.131,53.936,32.281,53.052C33.432,52.164,34.206,50.688,34.608,48.615C34.997,46.626,34.82,45.222,34.084,44.406C33.343,43.589,31.871,43.179,29.654,43.179ZM50.764,24.062C22.729,24.062,0,36.017,0,50.764C0,65.511,22.729,77.47,50.764,77.47C78.798,77.47,101.527,65.511,101.527,50.764C101.527,36.017,78.798,24.062,50.764,24.062ZM36.973,55.582C35.869,56.64,34.54,57.435,33.094,57.913C31.672,58.37,29.857,58.607,27.658,58.607L22.662,58.607L21.278,65.718L15.449,65.718L20.652,38.957L31.863,38.957C35.234,38.957,37.692,39.841,39.24,41.614C40.789,43.382,41.254,45.852,40.636,49.025C40.4,50.28,39.964,51.49,39.346,52.608C38.741,53.687,37.95,54.681,36.973,55.582ZM53.996,58.607L56.293,46.766C56.559,45.421,56.458,44.499,56.005,44.012C55.552,43.521,54.584,43.276,53.099,43.276L48.479,43.276L45.501,58.611L39.714,58.611L44.917,31.846L50.7,31.846L49.317,38.961L54.469,38.961C57.714,38.961,59.948,39.528,61.179,40.657C62.41,41.787,62.778,43.619,62.291,46.153L59.872,58.607L53.996,58.607ZM86.133,49.025C85.901,50.281,85.465,51.492,84.843,52.608C84.238,53.687,83.447,54.681,82.47,55.582C81.365,56.636,80.04,57.432,78.591,57.913C77.169,58.37,75.354,58.607,73.15,58.607L68.159,58.607L66.775,65.722L60.946,65.722L66.149,38.961L77.355,38.961C80.727,38.961,83.185,39.845,84.733,41.618C86.281,43.382,86.751,45.852,86.133,49.025ZM75.156,43.179L71.166,43.179L68.984,54.381L72.529,54.381C74.885,54.381,76.636,53.936,77.783,53.052C78.933,52.164,79.707,50.688,80.114,48.615C80.503,46.626,80.321,45.222,79.585,44.406C78.849,43.589,77.368,43.179,75.156,43.179ZM75.156,43.179"/>
</g>
        <g id="Regular-M" transform="matrix(1.0,0.0,0.0,1.0,1400.3663393822044,1040.0063589134545)">  <path fill-rule="nonzero" fill="#000000" fill-opacity="1" stroke-dasharray="none" stroke-linejoin="miter" stroke-width="1px" stroke-miterlimit="4" role="img" stroke-opacity="1" stroke-linecap="butt" stroke="none" d="M29.654,43.179L25.661,43.179L23.482,54.381L27.027,54.381C29.379,54.381,31.131,53.936,32.281,53.052C33.432,52.164,34.206,50.688,34.608,48.615C34.997,46.626,34.82,45.222,34.084,44.406C33.343,43.589,31.871,43.179,29.654,43.179ZM50.764,24.062C22.729,24.062,0,36.017,0,50.764C0,65.511,22.729,77.47,50.764,77.47C78.798,77.47,101.527,65.511,101.527,50.764C101.527,36.017,78.798,24.062,50.764,24.062ZM36.973,55.582C35.869,56.64,34.54,57.435,33.094,57.913C31.672,58.37,29.857,58.607,27.658,58.607L22.662,58.607L21.278,65.718L15.449,65.718L20.652,38.957L31.863,38.957C35.234,38.957,37.692,39.841,39.24,41.614C40.789,43.382,41.254,45.852,40.636,49.025C40.4,50.28,39.964,51.49,39.346,52.608C38.741,53.687,37.95,54.681,36.973,55.582ZM53.996,58.607L56.293,46.766C56.559,45.421,56.458,44.499,56.005,44.012C55.552,43.521,54.584,43.276,53.099,43.276L48.479,43.276L45.501,58.611L39.714,58.611L44.917,31.846L50.7,31.846L49.317,38.961L54.469,38.961C57.714,38.961,59.948,39.528,61.179,40.657C62.41,41.787,62.778,43.619,62.291,46.153L59.872,58.607L53.996,58.607ZM86.133,49.025C85.901,50.281,85.465,51.492,84.843,52.608C84.238,53.687,83.447,54.681,82.47,55.582C81.365,56.636,80.04,57.432,78.591,57.913C77.169,58.37,75.354,58.607,73.15,58.607L68.159,58.607L66.775,65.722L60.946,65.722L66.149,38.961L77.355,38.961C80.727,38.961,83.185,39.845,84.733,41.618C86.281,43.382,86.751,45.852,86.133,49.025ZM75.156,43.179L71.166,43.179L68.984,54.381L72.529,54.381C74.885,54.381,76.636,53.936,77.783,53.052C78.933,52.164,79.707,50.688,80.114,48.615C80.503,46.626,80.321,45.222,79.585,44.406C78.849,43.589,77.368,43.179,75.156,43.179ZM75.156,43.179"/>
</g>
        <g id="Light-M" transform="matrix(1.0,0.0,0.0,1.0,1103.6563393822046,1040.0063589134545)">  <path fill-opacity="1" stroke-linejoin="miter" fill-rule="nonzero" stroke="none" role="img" stroke-linecap="butt" stroke-width="1px" fill="#000000" stroke-miterlimit="4" stroke-dasharray="none" stroke-opacity="1" d="M29.654,43.179L25.661,43.179L23.482,54.381L27.027,54.381C29.379,54.381,31.131,53.936,32.281,53.052C33.432,52.164,34.206,50.688,34.608,48.615C34.997,46.626,34.82,45.222,34.084,44.406C33.343,43.589,31.871,43.179,29.654,43.179ZM50.764,24.062C22.729,24.062,0,36.017,0,50.764C0,65.511,22.729,77.47,50.764,77.47C78.798,77.47,101.527,65.511,101.527,50.764C101.527,36.017,78.798,24.062,50.764,24.062ZM36.973,55.582C35.869,56.64,34.54,57.435,33.094,57.913C31.672,58.37,29.857,58.607,27.658,58.607L22.662,58.607L21.278,65.718L15.449,65.718L20.652,38.957L31.863,38.957C35.234,38.957,37.692,39.841,39.24,41.614C40.789,43.382,41.254,45.852,40.636,49.025C40.4,50.28,39.964,51.49,39.346,52.608C38.741,53.687,37.95,54.681,36.973,55.582ZM53.996,58.607L56.293,46.766C56.559,45.421,56.458,44.499,56.005,44.012C55.552,43.521,54.584,43.276,53.099,43.276L48.479,43.276L45.501,58.611L39.714,58.611L44.917,31.846L50.7,31.846L49.317,38.961L54.469,38.961C57.714,38.961,59.948,39.528,61.179,40.657C62.41,41.787,62.778,43.619,62.291,46.153L59.872,58.607L53.996,58.607ZM86.133,49.025C85.901,50.281,85.465,51.492,84.843,52.608C84.238,53.687,83.447,54.681,82.47,55.582C81.365,56.636,80.04,57.432,78.591,57.913C77.169,58.37,75.354,58.607,73.15,58.607L68.159,58.607L66.775,65.722L60.946,65.722L66.149,38.961L77.355,38.961C80.727,38.961,83.185,39.845,84.733,41.618C86.281,43.382,86.751,45.852,86.133,49.025ZM75.156,43.179L71.166,43.179L68.984,54.381L72.529,54.381C74.885,54.381,76.636,53.936,77.783,53.052C78.933,52.164,79.707,50.688,80.114,48.615C80.503,46.626,80.321,45.222,79.585,44.406C78.849,43.589,77.368,43.179,75.156,43.179ZM75.156,43.179"/>
</g>
        <g id="Thin-M" transform="matrix(1.0,0.0,0.0,1.0,806.9463393822047,1040.0063589134545)">  <path stroke-linejoin="miter" role="img" stroke-linecap="butt" stroke-width="1px" fill-opacity="1" fill="#000000" stroke-miterlimit="4" stroke-opacity="1" fill-rule="nonzero" stroke-dasharray="none" stroke="none" d="M29.654,43.179L25.661,43.179L23.482,54.381L27.027,54.381C29.379,54.381,31.131,53.936,32.281,53.052C33.432,52.164,34.206,50.688,34.608,48.615C34.997,46.626,34.82,45.222,34.084,44.406C33.343,43.589,31.871,43.179,29.654,43.179ZM50.764,24.062C22.729,24.062,0,36.017,0,50.764C0,65.511,22.729,77.47,50.764,77.47C78.798,77.47,101.527,65.511,101.527,50.764C101.527,36.017,78.798,24.062,50.764,24.062ZM36.973,55.582C35.869,56.64,34.54,57.435,33.094,57.913C31.672,58.37,29.857,58.607,27.658,58.607L22.662,58.607L21.278,65.718L15.449,65.718L20.652,38.957L31.863,38.957C35.234,38.957,37.692,39.841,39.24,41.614C40.789,43.382,41.254,45.852,40.636,49.025C40.4,50.28,39.964,51.49,39.346,52.608C38.741,53.687,37.95,54.681,36.973,55.582ZM53.996,58.607L56.293,46.766C56.559,45.421,56.458,44.499,56.005,44.012C55.552,43.521,54.584,43.276,53.099,43.276L48.479,43.276L45.501,58.611L39.714,58.611L44.917,31.846L50.7,31.846L49.317,38.961L54.469,38.961C57.714,38.961,59.948,39.528,61.179,40.657C62.41,41.787,62.778,43.619,62.291,46.153L59.872,58.607L53.996,58.607ZM86.133,49.025C85.901,50.281,85.465,51.492,84.843,52.608C84.238,53.687,83.447,54.681,82.47,55.582C81.365,56.636,80.04,57.432,78.591,57.913C77.169,58.37,75.354,58.607,73.15,58.607L68.159,58.607L66.775,65.722L60.946,65.722L66.149,38.961L77.355,38.961C80.727,38.961,83.185,39.845,84.733,41.618C86.281,43.382,86.751,45.852,86.133,49.025ZM75.156,43.179L71.166,43.179L68.984,54.381L72.529,54.381C74.885,54.381,76.636,53.936,77.783,53.052C78.933,52.164,79.707,50.688,80.114,48.615C80.503,46.626,80.321,45.222,79.585,44.406C78.849,43.589,77.368,43.179,75.156,43.179ZM75.156,43.179"/>
</g>
        <g id="Ultralight-M" transform="matrix(1.0,0.0,0.0,1.0,510.2363393822046,1040.0063589134545)">  <path stroke-opacity="1" stroke="none" fill="#000000" stroke-dasharray="none" role="img" fill-rule="nonzero" stroke-linecap="butt" stroke-width="1px" fill-opacity="1" stroke-miterlimit="4" stroke-linejoin="miter" d="M29.654,43.179L25.661,43.179L23.482,54.381L27.027,54.381C29.379,54.381,31.131,53.936,32.281,53.052C33.432,52.164,34.206,50.688,34.608,48.615C34.997,46.626,34.82,45.222,34.084,44.406C33.343,43.589,31.871,43.179,29.654,43.179ZM50.764,24.062C22.729,24.062,0,36.017,0,50.764C0,65.511,22.729,77.47,50.764,77.47C78.798,77.47,101.527,65.511,101.527,50.764C101.527,36.017,78.798,24.062,50.764,24.062ZM36.973,55.582C35.869,56.64,34.54,57.435,33.094,57.913C31.672,58.37,29.857,58.607,27.658,58.607L22.662,58.607L21.278,65.718L15.449,65.718L20.652,38.957L31.863,38.957C35.234,38.957,37.692,39.841,39.24,41.614C40.789,43.382,41.254,45.852,40.636,49.025C40.4,50.28,39.964,51.49,39.346,52.608C38.741,53.687,37.95,54.681,36.973,55.582ZM53.996,58.607L56.293,46.766C56.559,45.421,56.458,44.499,56.005,44.012C55.552,43.521,54.584,43.276,53.099,43.276L48.479,43.276L45.501,58.611L39.714,58.611L44.917,31.846L50.7,31.846L49.317,38.961L54.469,38.961C57.714,38.961,59.948,39.528,61.179,40.657C62.41,41.787,62.778,43.619,62.291,46.153L59.872,58.607L53.996,58.607ZM86.133,49.025C85.901,50.281,85.465,51.492,84.843,52.608C84.238,53.687,83.447,54.681,82.47,55.582C81.365,56.636,80.04,57.432,78.591,57.913C77.169,58.37,75.354,58.607,73.15,58.607L68.159,58.607L66.775,65.722L60.946,65.722L66.149,38.961L77.355,38.961C80.727,38.961,83.185,39.845,84.733,41.618C86.281,43.382,86.751,45.852,86.133,49.025ZM75.156,43.179L71.166,43.179L68.984,54.381L72.529,54.381C74.885,54.381,76.636,53.936,77.783,53.052C78.933,52.164,79.707,50.688,80.114,48.615C80.503,46.626,80.321,45.222,79.585,44.406C78.849,43.589,77.368,43.179,75.156,43.179ZM75.156,43.179"/>
</g>
        <g id="Black-S" transform="matrix(1.0,0.0,0.0,1.0,2894.932053736266,621.0220732675162)">  <path stroke-miterlimit="4" stroke="none" fill="#000000" stroke-opacity="1" stroke-dasharray="none" fill-rule="nonzero" role="img" stroke-linecap="butt" fill-opacity="1" stroke-width="1px" stroke-linejoin="miter" d="M23.219,33.809L20.093,33.809L18.387,42.58L21.162,42.58C23.004,42.58,24.375,42.232,25.276,41.54C26.177,40.844,26.783,39.688,27.098,38.065C27.403,36.508,27.264,35.409,26.687,34.77C26.108,34.13,24.955,33.809,23.219,33.809ZM39.748,18.841C17.797,18.841,0,28.201,0,39.748C0,51.295,17.797,60.659,39.748,60.659C61.699,60.659,79.496,51.295,79.496,39.748C79.496,28.201,61.699,18.841,39.748,18.841ZM28.95,43.521C28.085,44.349,27.045,44.971,25.912,45.346C24.799,45.704,23.378,45.889,21.656,45.889L17.744,45.889L16.661,51.457L12.097,51.457L16.171,30.503L24.948,30.503C27.588,30.503,29.513,31.196,30.725,32.583C31.937,33.968,32.302,35.902,31.818,38.387C31.633,39.37,31.292,40.317,30.808,41.192C30.334,42.037,29.715,42.815,28.95,43.521ZM42.279,45.889L44.077,36.618C44.286,35.564,44.206,34.842,43.852,34.461C43.498,34.077,42.739,33.885,41.576,33.885L37.959,33.885L35.627,45.892L31.096,45.892L35.17,24.935L39.698,24.935L38.615,30.507L42.65,30.507C45.19,30.507,46.939,30.95,47.903,31.835C48.867,32.719,49.155,34.153,48.774,36.138L46.879,45.889L42.279,45.889ZM67.442,38.387C67.26,39.37,66.919,40.318,66.432,41.192C65.958,42.037,65.339,42.815,64.574,43.521C63.709,44.346,62.671,44.97,61.536,45.346C60.424,45.704,59.003,45.889,57.277,45.889L53.368,45.889L52.285,51.46L47.721,51.46L51.795,30.507L60.569,30.507C63.209,30.507,65.134,31.199,66.346,32.587C67.558,33.968,67.926,35.902,67.442,38.387ZM58.847,33.809L55.723,33.809L54.014,42.58L56.79,42.58C58.635,42.58,60.006,42.232,60.904,41.54C61.805,40.844,62.411,39.688,62.729,38.065C63.034,36.508,62.891,35.409,62.315,34.77C61.738,34.13,60.579,33.809,58.847,33.809ZM58.847,33.809"/>
</g>
        <g id="Heavy-S" transform="matrix(1.0,0.0,0.0,1.0,2598.222053736266,621.0220732675162)">  <path stroke-linejoin="miter" stroke-linecap="butt" stroke-width="1px" stroke-miterlimit="4" fill-rule="nonzero" fill-opacity="1" stroke-dasharray="none" stroke="none" role="img" stroke-opacity="1" fill="#000000" d="M23.219,33.809L20.093,33.809L18.387,42.58L21.162,42.58C23.004,42.58,24.375,42.232,25.276,41.54C26.177,40.844,26.783,39.688,27.098,38.065C27.403,36.508,27.264,35.409,26.687,34.77C26.108,34.13,24.955,33.809,23.219,33.809ZM39.748,18.841C17.797,18.841,0,28.201,0,39.748C0,51.295,17.797,60.659,39.748,60.659C61.699,60.659,79.496,51.295,79.496,39.748C79.496,28.201,61.699,18.841,39.748,18.841ZM28.95,43.521C28.085,44.349,27.045,44.971,25.912,45.346C24.799,45.704,23.378,45.889,21.656,45.889L17.744,45.889L16.661,51.457L12.097,51.457L16.171,30.503L24.948,30.503C27.588,30.503,29.513,31.196,30.725,32.583C31.937,33.968,32.302,35.902,31.818,38.387C31.633,39.37,31.292,40.317,30.808,41.192C30.334,42.037,29.715,42.815,28.95,43.521ZM42.279,45.889L44.077,36.618C44.286,35.564,44.206,34.842,43.852,34.461C43.498,34.077,42.739,33.885,41.576,33.885L37.959,33.885L35.627,45.892L31.096,45.892L35.17,24.935L39.698,24.935L38.615,30.507L42.65,30.507C45.19,30.507,46.939,30.95,47.903,31.835C48.867,32.719,49.155,34.153,48.774,36.138L46.879,45.889L42.279,45.889ZM67.442,38.387C67.26,39.37,66.919,40.318,66.432,41.192C65.958,42.037,65.339,42.815,64.574,43.521C63.709,44.346,62.671,44.97,61.536,45.346C60.424,45.704,59.003,45.889,57.277,45.889L53.368,45.889L52.285,51.46L47.721,51.46L51.795,30.507L60.569,30.507C63.209,30.507,65.134,31.199,66.346,32.587C67.558,33.968,67.926,35.902,67.442,38.387ZM58.847,33.809L55.723,33.809L54.014,42.58L56.79,42.58C58.635,42.58,60.006,42.232,60.904,41.54C61.805,40.844,62.411,39.688,62.729,38.065C63.034,36.508,62.891,35.409,62.315,34.77C61.738,34.13,60.579,33.809,58.847,33.809ZM58.847,33.809"/>
</g>
        <g id="Bold-S" transform="matrix(1.0,0.0,0.0,1.0,2301.512053736266,621.0220732675162)">  <path role="img" fill="#000000" stroke-opacity="1" stroke-dasharray="none" fill-opacity="1" stroke-linecap="butt" stroke-width="1px" stroke="none" fill-rule="nonzero" stroke-miterlimit="4" stroke-linejoin="miter" d="M23.219,33.809L20.093,33.809L18.387,42.58L21.162,42.58C23.004,42.58,24.375,42.232,25.276,41.54C26.177,40.844,26.783,39.688,27.098,38.065C27.403,36.508,27.264,35.409,26.687,34.77C26.108,34.13,24.955,33.809,23.219,33.809ZM39.748,18.841C17.797,18.841,0,28.201,0,39.748C0,51.295,17.797,60.659,39.748,60.659C61.699,60.659,79.496,51.295,79.496,39.748C79.496,28.201,61.699,18.841,39.748,18.841ZM28.95,43.521C28.085,44.349,27.045,44.971,25.912,45.346C24.799,45.704,23.378,45.889,21.656,45.889L17.744,45.889L16.661,51.457L12.097,51.457L16.171,30.503L24.948,30.503C27.588,30.503,29.513,31.196,30.725,32.583C31.937,33.968,32.302,35.902,31.818,38.387C31.633,39.37,31.292,40.317,30.808,41.192C30.334,42.037,29.715,42.815,28.95,43.521ZM42.279,45.889L44.077,36.618C44.286,35.564,44.206,34.842,43.852,34.461C43.498,34.077,42.739,33.885,41.576,33.885L37.959,33.885L35.627,45.892L31.096,45.892L35.17,24.935L39.698,24.935L38.615,30.507L42.65,30.507C45.19,30.507,46.939,30.95,47.903,31.835C48.867,32.719,49.155,34.153,48.774,36.138L46.879,45.889L42.279,45.889ZM67.442,38.387C67.26,39.37,66.919,40.318,66.432,41.192C65.958,42.037,65.339,42.815,64.574,43.521C63.709,44.346,62.671,44.97,61.536,45.346C60.424,45.704,59.003,45.889,57.277,45.889L53.368,45.889L52.285,51.46L47.721,51.46L51.795,30.507L60.569,30.507C63.209,30.507,65.134,31.199,66.346,32.587C67.558,33.968,67.926,35.902,67.442,38.387ZM58.847,33.809L55.723,33.809L54.014,42.58L56.79,42.58C58.635,42.58,60.006,42.232,60.904,41.54C61.805,40.844,62.411,39.688,62.729,38.065C63.034,36.508,62.891,35.409,62.315,34.77C61.738,34.13,60.579,33.809,58.847,33.809ZM58.847,33.809"/>
</g>
        <g id="Semibold-S" transform="matrix(1.0,0.0,0.0,1.0,2004.802053736266,621.0220732675162)">  <path stroke-dasharray="none" stroke-width="1px" stroke-linecap="butt" stroke-miterlimit="4" fill-rule="nonzero" fill-opacity="1" stroke-linejoin="miter" stroke-opacity="1" fill="#000000" stroke="none" role="img" d="M23.219,33.809L20.093,33.809L18.387,42.58L21.162,42.58C23.004,42.58,24.375,42.232,25.276,41.54C26.177,40.844,26.783,39.688,27.098,38.065C27.403,36.508,27.264,35.409,26.687,34.77C26.108,34.13,24.955,33.809,23.219,33.809ZM39.748,18.841C17.797,18.841,0,28.201,0,39.748C0,51.295,17.797,60.659,39.748,60.659C61.699,60.659,79.496,51.295,79.496,39.748C79.496,28.201,61.699,18.841,39.748,18.841ZM28.95,43.521C28.085,44.349,27.045,44.971,25.912,45.346C24.799,45.704,23.378,45.889,21.656,45.889L17.744,45.889L16.661,51.457L12.097,51.457L16.171,30.503L24.948,30.503C27.588,30.503,29.513,31.196,30.725,32.583C31.937,33.968,32.302,35.902,31.818,38.387C31.633,39.37,31.292,40.317,30.808,41.192C30.334,42.037,29.715,42.815,28.95,43.521ZM42.279,45.889L44.077,36.618C44.286,35.564,44.206,34.842,43.852,34.461C43.498,34.077,42.739,33.885,41.576,33.885L37.959,33.885L35.627,45.892L31.096,45.892L35.17,24.935L39.698,24.935L38.615,30.507L42.65,30.507C45.19,30.507,46.939,30.95,47.903,31.835C48.867,32.719,49.155,34.153,48.774,36.138L46.879,45.889L42.279,45.889ZM67.442,38.387C67.26,39.37,66.919,40.318,66.432,41.192C65.958,42.037,65.339,42.815,64.574,43.521C63.709,44.346,62.671,44.97,61.536,45.346C60.424,45.704,59.003,45.889,57.277,45.889L53.368,45.889L52.285,51.46L47.721,51.46L51.795,30.507L60.569,30.507C63.209,30.507,65.134,31.199,66.346,32.587C67.558,33.968,67.926,35.902,67.442,38.387ZM58.847,33.809L55.723,33.809L54.014,42.58L56.79,42.58C58.635,42.58,60.006,42.232,60.904,41.54C61.805,40.844,62.411,39.688,62.729,38.065C63.034,36.508,62.891,35.409,62.315,34.77C61.738,34.13,60.579,33.809,58.847,33.809ZM58.847,33.809"/>
</g>
        <g id="Medium-S" transform="matrix(1.0,0.0,0.0,1.0,1708.092053736266,621.0220732675162)">  <path stroke-linecap="butt" fill-rule="nonzero" stroke-width="1px" role="img" stroke="none" stroke-opacity="1" stroke-linejoin="miter" fill="#000000" stroke-dasharray="none" fill-opacity="1" stroke-miterlimit="4" d="M23.219,33.809L20.093,33.809L18.387,42.58L21.162,42.58C23.004,42.58,24.375,42.232,25.276,41.54C26.177,40.844,26.783,39.688,27.098,38.065C27.403,36.508,27.264,35.409,26.687,34.77C26.108,34.13,24.955,33.809,23.219,33.809ZM39.748,18.841C17.797,18.841,0,28.201,0,39.748C0,51.295,17.797,60.659,39.748,60.659C61.699,60.659,79.496,51.295,79.496,39.748C79.496,28.201,61.699,18.841,39.748,18.841ZM28.95,43.521C28.085,44.349,27.045,44.971,25.912,45.346C24.799,45.704,23.378,45.889,21.656,45.889L17.744,45.889L16.661,51.457L12.097,51.457L16.171,30.503L24.948,30.503C27.588,30.503,29.513,31.196,30.725,32.583C31.937,33.968,32.302,35.902,31.818,38.387C31.633,39.37,31.292,40.317,30.808,41.192C30.334,42.037,29.715,42.815,28.95,43.521ZM42.279,45.889L44.077,36.618C44.286,35.564,44.206,34.842,43.852,34.461C43.498,34.077,42.739,33.885,41.576,33.885L37.959,33.885L35.627,45.892L31.096,45.892L35.17,24.935L39.698,24.935L38.615,30.507L42.65,30.507C45.19,30.507,46.939,30.95,47.903,31.835C48.867,32.719,49.155,34.153,48.774,36.138L46.879,45.889L42.279,45.889ZM67.442,38.387C67.26,39.37,66.919,40.318,66.432,41.192C65.958,42.037,65.339,42.815,64.574,43.521C63.709,44.346,62.671,44.97,61.536,45.346C60.424,45.704,59.003,45.889,57.277,45.889L53.368,45.889L52.285,51.46L47.721,51.46L51.795,30.507L60.569,30.507C63.209,30.507,65.134,31.199,66.346,32.587C67.558,33.968,67.926,35.902,67.442,38.387ZM58.847,33.809L55.723,33.809L54.014,42.58L56.79,42.58C58.635,42.58,60.006,42.232,60.904,41.54C61.805,40.844,62.411,39.688,62.729,38.065C63.034,36.508,62.891,35.409,62.315,34.77C61.738,34.13,60.579,33.809,58.847,33.809ZM58.847,33.809"/>
</g>
        <g id="Regular-S" transform="matrix(1.0,0.0,0.0,1.0,1411.382053736266,621.0220732675162)">  <path fill-rule="nonzero" fill="#000000" fill-opacity="1" stroke-dasharray="none" stroke-linejoin="miter" stroke-width="1px" stroke-miterlimit="4" role="img" stroke-opacity="1" stroke-linecap="butt" stroke="none" d="M23.219,33.809L20.093,33.809L18.387,42.58L21.162,42.58C23.004,42.58,24.375,42.232,25.276,41.54C26.177,40.844,26.783,39.688,27.098,38.065C27.403,36.508,27.264,35.409,26.687,34.77C26.108,34.13,24.955,33.809,23.219,33.809ZM39.748,18.841C17.797,18.841,0,28.201,0,39.748C0,51.295,17.797,60.659,39.748,60.659C61.699,60.659,79.496,51.295,79.496,39.748C79.496,28.201,61.699,18.841,39.748,18.841ZM28.95,43.521C28.085,44.349,27.045,44.971,25.912,45.346C24.799,45.704,23.378,45.889,21.656,45.889L17.744,45.889L16.661,51.457L12.097,51.457L16.171,30.503L24.948,30.503C27.588,30.503,29.513,31.196,30.725,32.583C31.937,33.968,32.302,35.902,31.818,38.387C31.633,39.37,31.292,40.317,30.808,41.192C30.334,42.037,29.715,42.815,28.95,43.521ZM42.279,45.889L44.077,36.618C44.286,35.564,44.206,34.842,43.852,34.461C43.498,34.077,42.739,33.885,41.576,33.885L37.959,33.885L35.627,45.892L31.096,45.892L35.17,24.935L39.698,24.935L38.615,30.507L42.65,30.507C45.19,30.507,46.939,30.95,47.903,31.835C48.867,32.719,49.155,34.153,48.774,36.138L46.879,45.889L42.279,45.889ZM67.442,38.387C67.26,39.37,66.919,40.318,66.432,41.192C65.958,42.037,65.339,42.815,64.574,43.521C63.709,44.346,62.671,44.97,61.536,45.346C60.424,45.704,59.003,45.889,57.277,45.889L53.368,45.889L52.285,51.46L47.721,51.46L51.795,30.507L60.569,30.507C63.209,30.507,65.134,31.199,66.346,32.587C67.558,33.968,67.926,35.902,67.442,38.387ZM58.847,33.809L55.723,33.809L54.014,42.58L56.79,42.58C58.635,42.58,60.006,42.232,60.904,41.54C61.805,40.844,62.411,39.688,62.729,38.065C63.034,36.508,62.891,35.409,62.315,34.77C61.738,34.13,60.579,33.809,58.847,33.809ZM58.847,33.809"/>
</g>
        <g id="Light-S" transform="matrix(1.0,0.0,0.0,1.0,1114.6720537362662,621.0220732675162)">  <path fill-opacity="1" stroke-linejoin="miter" fill-rule="nonzero" stroke="none" role="img" stroke-linecap="butt" stroke-width="1px" fill="#000000" stroke-miterlimit="4" stroke-dasharray="none" stroke-opacity="1" d="M23.219,33.809L20.093,33.809L18.387,42.58L21.162,42.58C23.004,42.58,24.375,42.232,25.276,41.54C26.177,40.844,26.783,39.688,27.098,38.065C27.403,36.508,27.264,35.409,26.687,34.77C26.108,34.13,24.955,33.809,23.219,33.809ZM39.748,18.841C17.797,18.841,0,28.201,0,39.748C0,51.295,17.797,60.659,39.748,60.659C61.699,60.659,79.496,51.295,79.496,39.748C79.496,28.201,61.699,18.841,39.748,18.841ZM28.95,43.521C28.085,44.349,27.045,44.971,25.912,45.346C24.799,45.704,23.378,45.889,21.656,45.889L17.744,45.889L16.661,51.457L12.097,51.457L16.171,30.503L24.948,30.503C27.588,30.503,29.513,31.196,30.725,32.583C31.937,33.968,32.302,35.902,31.818,38.387C31.633,39.37,31.292,40.317,30.808,41.192C30.334,42.037,29.715,42.815,28.95,43.521ZM42.279,45.889L44.077,36.618C44.286,35.564,44.206,34.842,43.852,34.461C43.498,34.077,42.739,33.885,41.576,33.885L37.959,33.885L35.627,45.892L31.096,45.892L35.17,24.935L39.698,24.935L38.615,30.507L42.65,30.507C45.19,30.507,46.939,30.95,47.903,31.835C48.867,32.719,49.155,34.153,48.774,36.138L46.879,45.889L42.279,45.889ZM67.442,38.387C67.26,39.37,66.919,40.318,66.432,41.192C65.958,42.037,65.339,42.815,64.574,43.521C63.709,44.346,62.671,44.97,61.536,45.346C60.424,45.704,59.003,45.889,57.277,45.889L53.368,45.889L52.285,51.46L47.721,51.46L51.795,30.507L60.569,30.507C63.209,30.507,65.134,31.199,66.346,32.587C67.558,33.968,67.926,35.902,67.442,38.387ZM58.847,33.809L55.723,33.809L54.014,42.58L56.79,42.58C58.635,42.58,60.006,42.232,60.904,41.54C61.805,40.844,62.411,39.688,62.729,38.065C63.034,36.508,62.891,35.409,62.315,34.77C61.738,34.13,60.579,33.809,58.847,33.809ZM58.847,33.809"/>
</g>
        <g id="Thin-S" transform="matrix(1.0,0.0,0.0,1.0,817.9620537362663,621.0220732675162)">  <path stroke-linejoin="miter" role="img" stroke-linecap="butt" stroke-width="1px" fill-opacity="1" fill="#000000" stroke-miterlimit="4" stroke-opacity="1" fill-rule="nonzero" stroke-dasharray="none" stroke="none" d="M23.219,33.809L20.093,33.809L18.387,42.58L21.162,42.58C23.004,42.58,24.375,42.232,25.276,41.54C26.177,40.844,26.783,39.688,27.098,38.065C27.403,36.508,27.264,35.409,26.687,34.77C26.108,34.13,24.955,33.809,23.219,33.809ZM39.748,18.841C17.797,18.841,0,28.201,0,39.748C0,51.295,17.797,60.659,39.748,60.659C61.699,60.659,79.496,51.295,79.496,39.748C79.496,28.201,61.699,18.841,39.748,18.841ZM28.95,43.521C28.085,44.349,27.045,44.971,25.912,45.346C24.799,45.704,23.378,45.889,21.656,45.889L17.744,45.889L16.661,51.457L12.097,51.457L16.171,30.503L24.948,30.503C27.588,30.503,29.513,31.196,30.725,32.583C31.937,33.968,32.302,35.902,31.818,38.387C31.633,39.37,31.292,40.317,30.808,41.192C30.334,42.037,29.715,42.815,28.95,43.521ZM42.279,45.889L44.077,36.618C44.286,35.564,44.206,34.842,43.852,34.461C43.498,34.077,42.739,33.885,41.576,33.885L37.959,33.885L35.627,45.892L31.096,45.892L35.17,24.935L39.698,24.935L38.615,30.507L42.65,30.507C45.19,30.507,46.939,30.95,47.903,31.835C48.867,32.719,49.155,34.153,48.774,36.138L46.879,45.889L42.279,45.889ZM67.442,38.387C67.26,39.37,66.919,40.318,66.432,41.192C65.958,42.037,65.339,42.815,64.574,43.521C63.709,44.346,62.671,44.97,61.536,45.346C60.424,45.704,59.003,45.889,57.277,45.889L53.368,45.889L52.285,51.46L47.721,51.46L51.795,30.507L60.569,30.507C63.209,30.507,65.134,31.199,66.346,32.587C67.558,33.968,67.926,35.902,67.442,38.387ZM58.847,33.809L55.723,33.809L54.014,42.58L56.79,42.58C58.635,42.58,60.006,42.232,60.904,41.54C61.805,40.844,62.411,39.688,62.729,38.065C63.034,36.508,62.891,35.409,62.315,34.77C61.738,34.13,60.579,33.809,58.847,33.809ZM58.847,33.809"/>
</g>
        <g id="Ultralight-S" transform="matrix(1.0,0.0,0.0,1.0,521.2520537362662,621.0220732675162)">  <path stroke-opacity="1" stroke="none" fill="#000000" stroke-dasharray="none" role="img" fill-rule="nonzero" stroke-linecap="butt" stroke-width="1px" fill-opacity="1" stroke-miterlimit="4" stroke-linejoin="miter" d="M23.219,33.809L20.093,33.809L18.387,42.58L21.162,42.58C23.004,42.58,24.375,42.232,25.276,41.54C26.177,40.844,26.783,39.688,27.098,38.065C27.403,36.508,27.264,35.409,26.687,34.77C26.108,34.13,24.955,33.809,23.219,33.809ZM39.748,18.841C17.797,18.841,0,28.201,0,39.748C0,51.295,17.797,60.659,39.748,60.659C61.699,60.659,79.496,51.295,79.496,39.748C79.496,28.201,61.699,18.841,39.748,18.841ZM28.95,43.521C28.085,44.349,27.045,44.971,25.912,45.346C24.799,45.704,23.378,45.889,21.656,45.889L17.744,45.889L16.661,51.457L12.097,51.457L16.171,30.503L24.948,30.503C27.588,30.503,29.513,31.196,30.725,32.583C31.937,33.968,32.302,35.902,31.818,38.387C31.633,39.37,31.292,40.317,30.808,41.192C30.334,42.037,29.715,42.815,28.95,43.521ZM42.279,45.889L44.077,36.618C44.286,35.564,44.206,34.842,43.852,34.461C43.498,34.077,42.739,33.885,41.576,33.885L37.959,33.885L35.627,45.892L31.096,45.892L35.17,24.935L39.698,24.935L38.615,30.507L42.65,30.507C45.19,30.507,46.939,30.95,47.903,31.835C48.867,32.719,49.155,34.153,48.774,36.138L46.879,45.889L42.279,45.889ZM67.442,38.387C67.26,39.37,66.919,40.318,66.432,41.192C65.958,42.037,65.339,42.815,64.574,43.521C63.709,44.346,62.671,44.97,61.536,45.346C60.424,45.704,59.003,45.889,57.277,45.889L53.368,45.889L52.285,51.46L47.721,51.46L51.795,30.507L60.569,30.507C63.209,30.507,65.134,31.199,66.346,32.587C67.558,33.968,67.926,35.902,67.442,38.387ZM58.847,33.809L55.723,33.809L54.014,42.58L56.79,42.58C58.635,42.58,60.006,42.232,60.904,41.54C61.805,40.844,62.411,39.688,62.729,38.065C63.034,36.508,62.891,35.409,62.315,34.77C61.738,34.13,60.579,33.809,58.847,33.809ZM58.847,33.809"/>
</g>
    </g>
    </g>
</svg>
