<?xml version="1.0" encoding="UTF-8"?>
<!--Generator: CustomSymbols by @serious_bret-->
<!DOCTYPE svg
        PUBLIC "-//W3C//DTD SVG 1.1//EN"
        "http://www.w3.org/Graphics/SVG/1.1/DTD/svg11.dtd">
<svg version="1.1" xmlns="http://www.w3.org/2000/svg" xmlns:xlink="http://www.w3.org/1999/xlink" width="2900" height="1500">
    <g transform="translate(-200 -200)">
    <!--template writer version: "8"-->
    <g id="Notes">
        <rect height="2200" id="artboard" style="fill:white;opacity:1" width="3300" x="0" y="0"/>
        <line id="" style="fill:none;stroke:black;opacity:1;stroke-width:0.5;" x1="263" x2="3036" y1="292" y2="292"/>
        <text id="reftext1" style="stroke:none;fill:black;font-family:-apple-system,&quot;SF Pro Display&quot;,&quot;SF Pro Text&quot;,Helvetica,sans-serif;font-weight:bold;" transform="matrix(1 0 0 1 263 322)">Weight/Scale Variations</text>
        <text id="reftext2" style="stroke:none;fill:black;font-family:-apple-system,&quot;SF Pro Display&quot;,&quot;SF Pro Text&quot;,Helvetica,sans-serif;text-anchor:middle;" transform="matrix(1 0 0 1 559.711 322)">Ultralight</text>
        <text style="stroke:none;fill:black;font-family:-apple-system,&quot;SF Pro Display&quot;,&quot;SF Pro Text&quot;,Helvetica,sans-serif;text-anchor:middle;" transform="matrix(1 0 0 1 856.422 322)">Thin</text>
        <text style="stroke:none;fill:black;font-family:-apple-system,&quot;SF Pro Display&quot;,&quot;SF Pro Text&quot;,Helvetica,sans-serif;text-anchor:middle;" transform="matrix(1 0 0 1 1153.13 322)">Light</text>
        <text style="stroke:none;fill:black;font-family:-apple-system,&quot;SF Pro Display&quot;,&quot;SF Pro Text&quot;,Helvetica,sans-serif;text-anchor:middle;" transform="matrix(1 0 0 1 1449.84 322)">Regular</text>
        <text style="stroke:none;fill:black;font-family:-apple-system,&quot;SF Pro Display&quot;,&quot;SF Pro Text&quot;,Helvetica,sans-serif;text-anchor:middle;" transform="matrix(1 0 0 1 1746.56 322)">Medium</text>
        <text style="stroke:none;fill:black;font-family:-apple-system,&quot;SF Pro Display&quot;,&quot;SF Pro Text&quot;,Helvetica,sans-serif;text-anchor:middle;" transform="matrix(1 0 0 1 2043.27 322)">Semibold</text>
        <text style="stroke:none;fill:black;font-family:-apple-system,&quot;SF Pro Display&quot;,&quot;SF Pro Text&quot;,Helvetica,sans-serif;text-anchor:middle;" transform="matrix(1 0 0 1 2339.98 322)">Bold</text>
        <text style="stroke:none;fill:black;font-family:-apple-system,&quot;SF Pro Display&quot;,&quot;SF Pro Text&quot;,Helvetica,sans-serif;text-anchor:middle;" transform="matrix(1 0 0 1 2636.69 322)">Heavy</text>
        <text style="stroke:none;fill:black;font-family:-apple-system,&quot;SF Pro Display&quot;,&quot;SF Pro Text&quot;,Helvetica,sans-serif;text-anchor:middle;" transform="matrix(1 0 0 1 2933.4 322)">Black</text>

        <text style="stroke:none;fill:black;font-family:-apple-system,&quot;SF Pro Display&quot;,&quot;SF Pro Text&quot;,Helvetica,sans-serif;" transform="matrix(1 0 0 1 263 726)">Small</text>
        <text style="stroke:none;fill:black;font-family:-apple-system,&quot;SF Pro Display&quot;,&quot;SF Pro Text&quot;,Helvetica,sans-serif;" transform="matrix(1 0 0 1 263 1156)">Medium</text>
        <text style="stroke:none;fill:black;font-family:-apple-system,&quot;SF Pro Display&quot;,&quot;SF Pro Text&quot;,Helvetica,sans-serif;" transform="matrix(1 0 0 1 263 1586)">Large</text>
    </g>
    <g id="Guides">
        <g id="H-reference" style="fill:#27AAE1;stroke:none;" transform="matrix(1 0 0 1 339 696)">
            <path d="M0.976562 0L3.66211 0L12.9883-24.4629L45.752-24.4629L55.127 0L57.7637 0L30.6152-70.459L28.125-70.459ZM29.3457-67.1387L29.4434-67.1387L44.873-26.709L13.8672-26.709Z"/>
        </g>
        <line id="Baseline-S" style="fill:none;stroke:#27AAE1;opacity:1;stroke-width:0.5;" x1="263" x2="3036" y1="696" y2="696"/>
        <line id="Capline-S" style="fill:none;stroke:#27AAE1;opacity:1;stroke-width:0.5;" x1="263" x2="3036" y1="625.541" y2="625.541"/>
        <g id="H-reference" style="fill:#27AAE1;stroke:none;" transform="matrix(1 0 0 1 339 1126)">
            <path d="M0.976562 0L3.66211 0L12.9883-24.4629L45.752-24.4629L55.127 0L57.7637 0L30.6152-70.459L28.125-70.459ZM29.3457-67.1387L29.4434-67.1387L44.873-26.709L13.8672-26.709Z"/>
        </g>
        <line id="Baseline-M" style="fill:none;stroke:#27AAE1;opacity:1;stroke-width:0.5;" x1="263" x2="3036" y1="1126" y2="1126"/>
        <line id="Capline-M" style="fill:none;stroke:#27AAE1;opacity:1;stroke-width:0.5;" x1="263" x2="3036" y1="1055.54" y2="1055.54"/>
        <g id="H-reference" style="fill:#27AAE1;stroke:none;" transform="matrix(1 0 0 1 339 1556)">
            <path d="M0.976562 0L3.66211 0L12.9883-24.4629L45.752-24.4629L55.127 0L57.7637 0L30.6152-70.459L28.125-70.459ZM29.3457-67.1387L29.4434-67.1387L44.873-26.709L13.8672-26.709Z"/>
        </g>
        <line id="Baseline-L" style="fill:none;stroke:#27AAE1;opacity:1;stroke-width:0.5;" x1="263" x2="3036" y1="1556" y2="1556"/>
        <line id="Capline-L" style="fill:none;stroke:#27AAE1;opacity:1;stroke-width:0.5;" x1="263" x2="3036" y1="1485.54" y2="1485.54"/>
        <line id="left-margin" x1="1417.3214020285482" x2="1417.3214020285482" y1="1030.79" y2="1150.12" style="fill:none;stroke:#00AEEF;stroke-width:0.5;opacity:1.0;"/>
        <line id="right-margin" x1="1484.9385979714516" x2="1484.9385979714516" y1="1030.79" y2="1150.12" style="fill:none;stroke:#00AEEF;stroke-width:0.5;opacity:1.0;"/>
    </g>
    <g id="Symbols">
        <g id="Black-L" transform="matrix(1.0,0.0,0.0,1.0,2869.1948778030437,1455.2848973342939)">  <path stroke-width="1px" fill="#000000" stroke-linejoin="miter" stroke-linecap="butt" stroke-miterlimit="4" fill-opacity="1" stroke-opacity="1" stroke="none" role="img" stroke-dasharray="none" fill-rule="nonzero" d="M118.381,17.255L18.172,17.255L0,35.417L0,113.715L112.804,113.715L130.97,95.554L130.97,17.255ZM69.769,100.411L61.245,104.383L53.878,92.285C52.808,92.596,51.155,92.776,48.836,92.776C40.219,92.776,34.194,90.457,30.8,85.813C27.406,81.174,25.714,73.807,25.714,63.804C25.714,53.763,27.455,46.309,30.893,41.441C34.331,36.573,40.312,34.123,48.836,34.123C57.36,34.123,63.34,36.53,66.735,41.398C70.173,46.216,71.864,53.676,71.864,63.761C71.864,70.413,71.155,75.766,69.769,79.832C68.345,83.936,66.064,87.062,62.849,89.207ZM95.614,91.75C90.932,91.75,87.717,90.681,85.977,88.53C84.23,86.391,83.341,82.331,83.341,76.35L83.341,57.065L77,57.065L77,49.392L83.341,49.392L83.341,37.343L92.312,37.343L92.312,49.387L103.739,49.387L103.739,57.108L92.312,57.108L92.312,75.368C92.312,78.762,92.585,80.989,93.076,82.064C93.567,83.177,94.855,83.717,96.869,83.717L103.652,83.444L104.05,90.681C100.394,91.39,97.578,91.75,95.614,91.75ZM48.792,42.2C43.608,42.2,40.039,43.897,38.08,47.329C36.159,50.767,35.176,56.219,35.176,63.761C35.176,71.259,36.115,76.661,37.987,79.875C39.864,83.09,43.477,84.743,48.792,84.743C54.102,84.743,57.676,83.133,59.548,79.963C61.376,76.798,62.315,71.395,62.315,63.848C62.315,56.263,61.376,50.773,59.46,47.335C57.54,43.897,53.971,42.205,48.792,42.205ZM48.792,42.2"/>
</g>
        <g id="Heavy-L" transform="matrix(1.0,0.0,0.0,1.0,2572.4848778030437,1455.2848973342939)">  <path role="img" fill-rule="nonzero" fill-opacity="1" stroke-linecap="butt" stroke-opacity="1" stroke-width="1px" stroke="none" fill="#000000" stroke-linejoin="miter" stroke-miterlimit="4" stroke-dasharray="none" d="M118.381,17.255L18.172,17.255L0,35.417L0,113.715L112.804,113.715L130.97,95.554L130.97,17.255ZM69.769,100.411L61.245,104.383L53.878,92.285C52.808,92.596,51.155,92.776,48.836,92.776C40.219,92.776,34.194,90.457,30.8,85.813C27.406,81.174,25.714,73.807,25.714,63.804C25.714,53.763,27.455,46.309,30.893,41.441C34.331,36.573,40.312,34.123,48.836,34.123C57.36,34.123,63.34,36.53,66.735,41.398C70.173,46.216,71.864,53.676,71.864,63.761C71.864,70.413,71.155,75.766,69.769,79.832C68.345,83.936,66.064,87.062,62.849,89.207ZM95.614,91.75C90.932,91.75,87.717,90.681,85.977,88.53C84.23,86.391,83.341,82.331,83.341,76.35L83.341,57.065L77,57.065L77,49.392L83.341,49.392L83.341,37.343L92.312,37.343L92.312,49.387L103.739,49.387L103.739,57.108L92.312,57.108L92.312,75.368C92.312,78.762,92.585,80.989,93.076,82.064C93.567,83.177,94.855,83.717,96.869,83.717L103.652,83.444L104.05,90.681C100.394,91.39,97.578,91.75,95.614,91.75ZM48.792,42.2C43.608,42.2,40.039,43.897,38.08,47.329C36.159,50.767,35.176,56.219,35.176,63.761C35.176,71.259,36.115,76.661,37.987,79.875C39.864,83.09,43.477,84.743,48.792,84.743C54.102,84.743,57.676,83.133,59.548,79.963C61.376,76.798,62.315,71.395,62.315,63.848C62.315,56.263,61.376,50.773,59.46,47.335C57.54,43.897,53.971,42.205,48.792,42.205ZM48.792,42.2"/>
</g>
        <g id="Bold-L" transform="matrix(1.0,0.0,0.0,1.0,2275.7748778030436,1455.2848973342939)">  <path stroke-opacity="1" fill="#000000" fill-opacity="1" stroke="none" stroke-miterlimit="4" stroke-linecap="butt" stroke-width="1px" fill-rule="nonzero" stroke-linejoin="miter" stroke-dasharray="none" role="img" d="M118.381,17.255L18.172,17.255L0,35.417L0,113.715L112.804,113.715L130.97,95.554L130.97,17.255ZM69.769,100.411L61.245,104.383L53.878,92.285C52.808,92.596,51.155,92.776,48.836,92.776C40.219,92.776,34.194,90.457,30.8,85.813C27.406,81.174,25.714,73.807,25.714,63.804C25.714,53.763,27.455,46.309,30.893,41.441C34.331,36.573,40.312,34.123,48.836,34.123C57.36,34.123,63.34,36.53,66.735,41.398C70.173,46.216,71.864,53.676,71.864,63.761C71.864,70.413,71.155,75.766,69.769,79.832C68.345,83.936,66.064,87.062,62.849,89.207ZM95.614,91.75C90.932,91.75,87.717,90.681,85.977,88.53C84.23,86.391,83.341,82.331,83.341,76.35L83.341,57.065L77,57.065L77,49.392L83.341,49.392L83.341,37.343L92.312,37.343L92.312,49.387L103.739,49.387L103.739,57.108L92.312,57.108L92.312,75.368C92.312,78.762,92.585,80.989,93.076,82.064C93.567,83.177,94.855,83.717,96.869,83.717L103.652,83.444L104.05,90.681C100.394,91.39,97.578,91.75,95.614,91.75ZM48.792,42.2C43.608,42.2,40.039,43.897,38.08,47.329C36.159,50.767,35.176,56.219,35.176,63.761C35.176,71.259,36.115,76.661,37.987,79.875C39.864,83.09,43.477,84.743,48.792,84.743C54.102,84.743,57.676,83.133,59.548,79.963C61.376,76.798,62.315,71.395,62.315,63.848C62.315,56.263,61.376,50.773,59.46,47.335C57.54,43.897,53.971,42.205,48.792,42.205ZM48.792,42.2"/>
</g>
        <g id="Semibold-L" transform="matrix(1.0,0.0,0.0,1.0,1979.0648778030438,1455.2848973342939)">  <path role="img" stroke-dasharray="none" stroke-width="1px" fill-opacity="1" fill-rule="nonzero" stroke-linecap="butt" stroke-miterlimit="4" fill="#000000" stroke="none" stroke-opacity="1" stroke-linejoin="miter" d="M118.381,17.255L18.172,17.255L0,35.417L0,113.715L112.804,113.715L130.97,95.554L130.97,17.255ZM69.769,100.411L61.245,104.383L53.878,92.285C52.808,92.596,51.155,92.776,48.836,92.776C40.219,92.776,34.194,90.457,30.8,85.813C27.406,81.174,25.714,73.807,25.714,63.804C25.714,53.763,27.455,46.309,30.893,41.441C34.331,36.573,40.312,34.123,48.836,34.123C57.36,34.123,63.34,36.53,66.735,41.398C70.173,46.216,71.864,53.676,71.864,63.761C71.864,70.413,71.155,75.766,69.769,79.832C68.345,83.936,66.064,87.062,62.849,89.207ZM95.614,91.75C90.932,91.75,87.717,90.681,85.977,88.53C84.23,86.391,83.341,82.331,83.341,76.35L83.341,57.065L77,57.065L77,49.392L83.341,49.392L83.341,37.343L92.312,37.343L92.312,49.387L103.739,49.387L103.739,57.108L92.312,57.108L92.312,75.368C92.312,78.762,92.585,80.989,93.076,82.064C93.567,83.177,94.855,83.717,96.869,83.717L103.652,83.444L104.05,90.681C100.394,91.39,97.578,91.75,95.614,91.75ZM48.792,42.2C43.608,42.2,40.039,43.897,38.08,47.329C36.159,50.767,35.176,56.219,35.176,63.761C35.176,71.259,36.115,76.661,37.987,79.875C39.864,83.09,43.477,84.743,48.792,84.743C54.102,84.743,57.676,83.133,59.548,79.963C61.376,76.798,62.315,71.395,62.315,63.848C62.315,56.263,61.376,50.773,59.46,47.335C57.54,43.897,53.971,42.205,48.792,42.205ZM48.792,42.2"/>
</g>
        <g id="Medium-L" transform="matrix(1.0,0.0,0.0,1.0,1682.3548778030438,1455.2848973342939)">  <path fill-rule="nonzero" stroke-linecap="butt" stroke-width="1px" role="img" stroke-linejoin="miter" stroke-dasharray="none" stroke-opacity="1" stroke-miterlimit="4" fill="#000000" fill-opacity="1" stroke="none" d="M118.381,17.255L18.172,17.255L0,35.417L0,113.715L112.804,113.715L130.97,95.554L130.97,17.255ZM69.769,100.411L61.245,104.383L53.878,92.285C52.808,92.596,51.155,92.776,48.836,92.776C40.219,92.776,34.194,90.457,30.8,85.813C27.406,81.174,25.714,73.807,25.714,63.804C25.714,53.763,27.455,46.309,30.893,41.441C34.331,36.573,40.312,34.123,48.836,34.123C57.36,34.123,63.34,36.53,66.735,41.398C70.173,46.216,71.864,53.676,71.864,63.761C71.864,70.413,71.155,75.766,69.769,79.832C68.345,83.936,66.064,87.062,62.849,89.207ZM95.614,91.75C90.932,91.75,87.717,90.681,85.977,88.53C84.23,86.391,83.341,82.331,83.341,76.35L83.341,57.065L77,57.065L77,49.392L83.341,49.392L83.341,37.343L92.312,37.343L92.312,49.387L103.739,49.387L103.739,57.108L92.312,57.108L92.312,75.368C92.312,78.762,92.585,80.989,93.076,82.064C93.567,83.177,94.855,83.717,96.869,83.717L103.652,83.444L104.05,90.681C100.394,91.39,97.578,91.75,95.614,91.75ZM48.792,42.2C43.608,42.2,40.039,43.897,38.08,47.329C36.159,50.767,35.176,56.219,35.176,63.761C35.176,71.259,36.115,76.661,37.987,79.875C39.864,83.09,43.477,84.743,48.792,84.743C54.102,84.743,57.676,83.133,59.548,79.963C61.376,76.798,62.315,71.395,62.315,63.848C62.315,56.263,61.376,50.773,59.46,47.335C57.54,43.897,53.971,42.205,48.792,42.205ZM48.792,42.2"/>
</g>
        <g id="Regular-L" transform="matrix(1.0,0.0,0.0,1.0,1385.6448778030438,1455.2848973342939)">  <path stroke-linejoin="miter" fill-rule="nonzero" role="img" stroke="none" stroke-linecap="butt" stroke-dasharray="none" stroke-opacity="1" stroke-miterlimit="4" fill="#000000" fill-opacity="1" stroke-width="1px" d="M118.381,17.255L18.172,17.255L0,35.417L0,113.715L112.804,113.715L130.97,95.554L130.97,17.255ZM69.769,100.411L61.245,104.383L53.878,92.285C52.808,92.596,51.155,92.776,48.836,92.776C40.219,92.776,34.194,90.457,30.8,85.813C27.406,81.174,25.714,73.807,25.714,63.804C25.714,53.763,27.455,46.309,30.893,41.441C34.331,36.573,40.312,34.123,48.836,34.123C57.36,34.123,63.34,36.53,66.735,41.398C70.173,46.216,71.864,53.676,71.864,63.761C71.864,70.413,71.155,75.766,69.769,79.832C68.345,83.936,66.064,87.062,62.849,89.207ZM95.614,91.75C90.932,91.75,87.717,90.681,85.977,88.53C84.23,86.391,83.341,82.331,83.341,76.35L83.341,57.065L77,57.065L77,49.392L83.341,49.392L83.341,37.343L92.312,37.343L92.312,49.387L103.739,49.387L103.739,57.108L92.312,57.108L92.312,75.368C92.312,78.762,92.585,80.989,93.076,82.064C93.567,83.177,94.855,83.717,96.869,83.717L103.652,83.444L104.05,90.681C100.394,91.39,97.578,91.75,95.614,91.75ZM48.792,42.2C43.608,42.2,40.039,43.897,38.08,47.329C36.159,50.767,35.176,56.219,35.176,63.761C35.176,71.259,36.115,76.661,37.987,79.875C39.864,83.09,43.477,84.743,48.792,84.743C54.102,84.743,57.676,83.133,59.548,79.963C61.376,76.798,62.315,71.395,62.315,63.848C62.315,56.263,61.376,50.773,59.46,47.335C57.54,43.897,53.971,42.205,48.792,42.205ZM48.792,42.2"/>
</g>
        <g id="Light-L" transform="matrix(1.0,0.0,0.0,1.0,1088.934877803044,1455.2848973342939)">  <path fill-opacity="1" stroke-dasharray="none" fill-rule="nonzero" stroke-linecap="butt" stroke-linejoin="miter" stroke-width="1px" stroke-opacity="1" role="img" fill="#000000" stroke="none" stroke-miterlimit="4" d="M118.381,17.255L18.172,17.255L0,35.417L0,113.715L112.804,113.715L130.97,95.554L130.97,17.255ZM69.769,100.411L61.245,104.383L53.878,92.285C52.808,92.596,51.155,92.776,48.836,92.776C40.219,92.776,34.194,90.457,30.8,85.813C27.406,81.174,25.714,73.807,25.714,63.804C25.714,53.763,27.455,46.309,30.893,41.441C34.331,36.573,40.312,34.123,48.836,34.123C57.36,34.123,63.34,36.53,66.735,41.398C70.173,46.216,71.864,53.676,71.864,63.761C71.864,70.413,71.155,75.766,69.769,79.832C68.345,83.936,66.064,87.062,62.849,89.207ZM95.614,91.75C90.932,91.75,87.717,90.681,85.977,88.53C84.23,86.391,83.341,82.331,83.341,76.35L83.341,57.065L77,57.065L77,49.392L83.341,49.392L83.341,37.343L92.312,37.343L92.312,49.387L103.739,49.387L103.739,57.108L92.312,57.108L92.312,75.368C92.312,78.762,92.585,80.989,93.076,82.064C93.567,83.177,94.855,83.717,96.869,83.717L103.652,83.444L104.05,90.681C100.394,91.39,97.578,91.75,95.614,91.75ZM48.792,42.2C43.608,42.2,40.039,43.897,38.08,47.329C36.159,50.767,35.176,56.219,35.176,63.761C35.176,71.259,36.115,76.661,37.987,79.875C39.864,83.09,43.477,84.743,48.792,84.743C54.102,84.743,57.676,83.133,59.548,79.963C61.376,76.798,62.315,71.395,62.315,63.848C62.315,56.263,61.376,50.773,59.46,47.335C57.54,43.897,53.971,42.205,48.792,42.205ZM48.792,42.2"/>
</g>
        <g id="Thin-L" transform="matrix(1.0,0.0,0.0,1.0,792.224877803044,1455.2848973342939)">  <path stroke="none" stroke-width="1px" fill-opacity="1" role="img" stroke-opacity="1" stroke-linecap="butt" stroke-linejoin="miter" stroke-dasharray="none" stroke-miterlimit="4" fill="#000000" fill-rule="nonzero" d="M118.381,17.255L18.172,17.255L0,35.417L0,113.715L112.804,113.715L130.97,95.554L130.97,17.255ZM69.769,100.411L61.245,104.383L53.878,92.285C52.808,92.596,51.155,92.776,48.836,92.776C40.219,92.776,34.194,90.457,30.8,85.813C27.406,81.174,25.714,73.807,25.714,63.804C25.714,53.763,27.455,46.309,30.893,41.441C34.331,36.573,40.312,34.123,48.836,34.123C57.36,34.123,63.34,36.53,66.735,41.398C70.173,46.216,71.864,53.676,71.864,63.761C71.864,70.413,71.155,75.766,69.769,79.832C68.345,83.936,66.064,87.062,62.849,89.207ZM95.614,91.75C90.932,91.75,87.717,90.681,85.977,88.53C84.23,86.391,83.341,82.331,83.341,76.35L83.341,57.065L77,57.065L77,49.392L83.341,49.392L83.341,37.343L92.312,37.343L92.312,49.387L103.739,49.387L103.739,57.108L92.312,57.108L92.312,75.368C92.312,78.762,92.585,80.989,93.076,82.064C93.567,83.177,94.855,83.717,96.869,83.717L103.652,83.444L104.05,90.681C100.394,91.39,97.578,91.75,95.614,91.75ZM48.792,42.2C43.608,42.2,40.039,43.897,38.08,47.329C36.159,50.767,35.176,56.219,35.176,63.761C35.176,71.259,36.115,76.661,37.987,79.875C39.864,83.09,43.477,84.743,48.792,84.743C54.102,84.743,57.676,83.133,59.548,79.963C61.376,76.798,62.315,71.395,62.315,63.848C62.315,56.263,61.376,50.773,59.46,47.335C57.54,43.897,53.971,42.205,48.792,42.205ZM48.792,42.2"/>
</g>
        <g id="Ultralight-L" transform="matrix(1.0,0.0,0.0,1.0,495.51487780304393,1455.2848973342939)">  <path role="img" fill="#000000" stroke-opacity="1" stroke-dasharray="none" fill-opacity="1" stroke-linecap="butt" stroke-width="1px" stroke="none" fill-rule="nonzero" stroke-miterlimit="4" stroke-linejoin="miter" d="M118.381,17.255L18.172,17.255L0,35.417L0,113.715L112.804,113.715L130.97,95.554L130.97,17.255ZM69.769,100.411L61.245,104.383L53.878,92.285C52.808,92.596,51.155,92.776,48.836,92.776C40.219,92.776,34.194,90.457,30.8,85.813C27.406,81.174,25.714,73.807,25.714,63.804C25.714,53.763,27.455,46.309,30.893,41.441C34.331,36.573,40.312,34.123,48.836,34.123C57.36,34.123,63.34,36.53,66.735,41.398C70.173,46.216,71.864,53.676,71.864,63.761C71.864,70.413,71.155,75.766,69.769,79.832C68.345,83.936,66.064,87.062,62.849,89.207ZM95.614,91.75C90.932,91.75,87.717,90.681,85.977,88.53C84.23,86.391,83.341,82.331,83.341,76.35L83.341,57.065L77,57.065L77,49.392L83.341,49.392L83.341,37.343L92.312,37.343L92.312,49.387L103.739,49.387L103.739,57.108L92.312,57.108L92.312,75.368C92.312,78.762,92.585,80.989,93.076,82.064C93.567,83.177,94.855,83.717,96.869,83.717L103.652,83.444L104.05,90.681C100.394,91.39,97.578,91.75,95.614,91.75ZM48.792,42.2C43.608,42.2,40.039,43.897,38.08,47.329C36.159,50.767,35.176,56.219,35.176,63.761C35.176,71.259,36.115,76.661,37.987,79.875C39.864,83.09,43.477,84.743,48.792,84.743C54.102,84.743,57.676,83.133,59.548,79.963C61.376,76.798,62.315,71.395,62.315,63.848C62.315,56.263,61.376,50.773,59.46,47.335C57.54,43.897,53.971,42.205,48.792,42.205ZM48.792,42.2"/>
</g>
        <g id="Black-M" transform="matrix(1.0,0.0,0.0,1.0,2883.9163393822046,1040.0063589134545)">  <path stroke-width="1px" fill="#000000" stroke-linejoin="miter" stroke-linecap="butt" stroke-miterlimit="4" fill-opacity="1" stroke-opacity="1" stroke="none" role="img" stroke-dasharray="none" fill-rule="nonzero" d="M91.768,13.376L14.087,13.376L0,27.455L0,88.151L87.445,88.151L101.527,74.073L101.527,13.376ZM54.084,77.838L47.477,80.917L41.766,71.539C40.937,71.78,39.655,71.919,37.857,71.919C31.177,71.919,26.507,70.122,23.876,66.522C21.245,62.926,19.933,57.215,19.933,49.461C19.933,41.677,21.283,35.898,23.948,32.125C26.613,28.352,31.249,26.452,37.857,26.452C44.465,26.452,49.101,28.318,51.732,32.091C54.397,35.826,55.709,41.609,55.709,49.427C55.709,54.584,55.159,58.734,54.084,61.885C52.98,65.066,51.212,67.49,48.72,69.153ZM74.119,71.124C70.49,71.124,67.998,70.295,66.648,68.628C65.295,66.97,64.605,63.823,64.605,59.186L64.605,44.236L59.69,44.236L59.69,38.288L64.605,38.288L64.605,28.948L71.56,28.948L71.56,38.284L80.418,38.284L80.418,44.27L71.56,44.27L71.56,58.425C71.56,61.056,71.771,62.782,72.152,63.615C72.533,64.478,73.531,64.897,75.092,64.897L80.35,64.686L80.659,70.295C77.825,70.845,75.642,71.124,74.119,71.124ZM37.823,32.713C33.804,32.713,31.038,34.029,29.519,36.689C28.03,39.355,27.269,43.581,27.269,49.427C27.269,55.239,27.996,59.427,29.447,61.919C30.902,64.411,33.703,65.692,37.823,65.692C41.939,65.692,44.71,64.444,46.161,61.987C47.578,59.533,48.306,55.345,48.306,49.495C48.306,43.614,47.578,39.359,46.093,36.694C44.604,34.029,41.838,32.717,37.823,32.717ZM37.823,32.713"/>
</g>
        <g id="Heavy-M" transform="matrix(1.0,0.0,0.0,1.0,2587.2063393822045,1040.0063589134545)">  <path role="img" fill-rule="nonzero" fill-opacity="1" stroke-linecap="butt" stroke-opacity="1" stroke-width="1px" stroke="none" fill="#000000" stroke-linejoin="miter" stroke-miterlimit="4" stroke-dasharray="none" d="M91.768,13.376L14.087,13.376L0,27.455L0,88.151L87.445,88.151L101.527,74.073L101.527,13.376ZM54.084,77.838L47.477,80.917L41.766,71.539C40.937,71.78,39.655,71.919,37.857,71.919C31.177,71.919,26.507,70.122,23.876,66.522C21.245,62.926,19.933,57.215,19.933,49.461C19.933,41.677,21.283,35.898,23.948,32.125C26.613,28.352,31.249,26.452,37.857,26.452C44.465,26.452,49.101,28.318,51.732,32.091C54.397,35.826,55.709,41.609,55.709,49.427C55.709,54.584,55.159,58.734,54.084,61.885C52.98,65.066,51.212,67.49,48.72,69.153ZM74.119,71.124C70.49,71.124,67.998,70.295,66.648,68.628C65.295,66.97,64.605,63.823,64.605,59.186L64.605,44.236L59.69,44.236L59.69,38.288L64.605,38.288L64.605,28.948L71.56,28.948L71.56,38.284L80.418,38.284L80.418,44.27L71.56,44.27L71.56,58.425C71.56,61.056,71.771,62.782,72.152,63.615C72.533,64.478,73.531,64.897,75.092,64.897L80.35,64.686L80.659,70.295C77.825,70.845,75.642,71.124,74.119,71.124ZM37.823,32.713C33.804,32.713,31.038,34.029,29.519,36.689C28.03,39.355,27.269,43.581,27.269,49.427C27.269,55.239,27.996,59.427,29.447,61.919C30.902,64.411,33.703,65.692,37.823,65.692C41.939,65.692,44.71,64.444,46.161,61.987C47.578,59.533,48.306,55.345,48.306,49.495C48.306,43.614,47.578,39.359,46.093,36.694C44.604,34.029,41.838,32.717,37.823,32.717ZM37.823,32.713"/>
</g>
        <g id="Bold-M" transform="matrix(1.0,0.0,0.0,1.0,2290.4963393822045,1040.0063589134545)">  <path stroke-opacity="1" fill="#000000" fill-opacity="1" stroke="none" stroke-miterlimit="4" stroke-linecap="butt" stroke-width="1px" fill-rule="nonzero" stroke-linejoin="miter" stroke-dasharray="none" role="img" d="M91.768,13.376L14.087,13.376L0,27.455L0,88.151L87.445,88.151L101.527,74.073L101.527,13.376ZM54.084,77.838L47.477,80.917L41.766,71.539C40.937,71.78,39.655,71.919,37.857,71.919C31.177,71.919,26.507,70.122,23.876,66.522C21.245,62.926,19.933,57.215,19.933,49.461C19.933,41.677,21.283,35.898,23.948,32.125C26.613,28.352,31.249,26.452,37.857,26.452C44.465,26.452,49.101,28.318,51.732,32.091C54.397,35.826,55.709,41.609,55.709,49.427C55.709,54.584,55.159,58.734,54.084,61.885C52.98,65.066,51.212,67.49,48.72,69.153ZM74.119,71.124C70.49,71.124,67.998,70.295,66.648,68.628C65.295,66.97,64.605,63.823,64.605,59.186L64.605,44.236L59.69,44.236L59.69,38.288L64.605,38.288L64.605,28.948L71.56,28.948L71.56,38.284L80.418,38.284L80.418,44.27L71.56,44.27L71.56,58.425C71.56,61.056,71.771,62.782,72.152,63.615C72.533,64.478,73.531,64.897,75.092,64.897L80.35,64.686L80.659,70.295C77.825,70.845,75.642,71.124,74.119,71.124ZM37.823,32.713C33.804,32.713,31.038,34.029,29.519,36.689C28.03,39.355,27.269,43.581,27.269,49.427C27.269,55.239,27.996,59.427,29.447,61.919C30.902,64.411,33.703,65.692,37.823,65.692C41.939,65.692,44.71,64.444,46.161,61.987C47.578,59.533,48.306,55.345,48.306,49.495C48.306,43.614,47.578,39.359,46.093,36.694C44.604,34.029,41.838,32.717,37.823,32.717ZM37.823,32.713"/>
</g>
        <g id="Semibold-M" transform="matrix(1.0,0.0,0.0,1.0,1993.7863393822045,1040.0063589134545)">  <path role="img" stroke-dasharray="none" stroke-width="1px" fill-opacity="1" fill-rule="nonzero" stroke-linecap="butt" stroke-miterlimit="4" fill="#000000" stroke="none" stroke-opacity="1" stroke-linejoin="miter" d="M91.768,13.376L14.087,13.376L0,27.455L0,88.151L87.445,88.151L101.527,74.073L101.527,13.376ZM54.084,77.838L47.477,80.917L41.766,71.539C40.937,71.78,39.655,71.919,37.857,71.919C31.177,71.919,26.507,70.122,23.876,66.522C21.245,62.926,19.933,57.215,19.933,49.461C19.933,41.677,21.283,35.898,23.948,32.125C26.613,28.352,31.249,26.452,37.857,26.452C44.465,26.452,49.101,28.318,51.732,32.091C54.397,35.826,55.709,41.609,55.709,49.427C55.709,54.584,55.159,58.734,54.084,61.885C52.98,65.066,51.212,67.49,48.72,69.153ZM74.119,71.124C70.49,71.124,67.998,70.295,66.648,68.628C65.295,66.97,64.605,63.823,64.605,59.186L64.605,44.236L59.69,44.236L59.69,38.288L64.605,38.288L64.605,28.948L71.56,28.948L71.56,38.284L80.418,38.284L80.418,44.27L71.56,44.27L71.56,58.425C71.56,61.056,71.771,62.782,72.152,63.615C72.533,64.478,73.531,64.897,75.092,64.897L80.35,64.686L80.659,70.295C77.825,70.845,75.642,71.124,74.119,71.124ZM37.823,32.713C33.804,32.713,31.038,34.029,29.519,36.689C28.03,39.355,27.269,43.581,27.269,49.427C27.269,55.239,27.996,59.427,29.447,61.919C30.902,64.411,33.703,65.692,37.823,65.692C41.939,65.692,44.71,64.444,46.161,61.987C47.578,59.533,48.306,55.345,48.306,49.495C48.306,43.614,47.578,39.359,46.093,36.694C44.604,34.029,41.838,32.717,37.823,32.717ZM37.823,32.713"/>
</g>
        <g id="Medium-M" transform="matrix(1.0,0.0,0.0,1.0,1697.0763393822044,1040.0063589134545)">  <path fill-rule="nonzero" stroke-linecap="butt" stroke-width="1px" role="img" stroke-linejoin="miter" stroke-dasharray="none" stroke-opacity="1" stroke-miterlimit="4" fill="#000000" fill-opacity="1" stroke="none" d="M91.768,13.376L14.087,13.376L0,27.455L0,88.151L87.445,88.151L101.527,74.073L101.527,13.376ZM54.084,77.838L47.477,80.917L41.766,71.539C40.937,71.78,39.655,71.919,37.857,71.919C31.177,71.919,26.507,70.122,23.876,66.522C21.245,62.926,19.933,57.215,19.933,49.461C19.933,41.677,21.283,35.898,23.948,32.125C26.613,28.352,31.249,26.452,37.857,26.452C44.465,26.452,49.101,28.318,51.732,32.091C54.397,35.826,55.709,41.609,55.709,49.427C55.709,54.584,55.159,58.734,54.084,61.885C52.98,65.066,51.212,67.49,48.72,69.153ZM74.119,71.124C70.49,71.124,67.998,70.295,66.648,68.628C65.295,66.97,64.605,63.823,64.605,59.186L64.605,44.236L59.69,44.236L59.69,38.288L64.605,38.288L64.605,28.948L71.56,28.948L71.56,38.284L80.418,38.284L80.418,44.27L71.56,44.27L71.56,58.425C71.56,61.056,71.771,62.782,72.152,63.615C72.533,64.478,73.531,64.897,75.092,64.897L80.35,64.686L80.659,70.295C77.825,70.845,75.642,71.124,74.119,71.124ZM37.823,32.713C33.804,32.713,31.038,34.029,29.519,36.689C28.03,39.355,27.269,43.581,27.269,49.427C27.269,55.239,27.996,59.427,29.447,61.919C30.902,64.411,33.703,65.692,37.823,65.692C41.939,65.692,44.71,64.444,46.161,61.987C47.578,59.533,48.306,55.345,48.306,49.495C48.306,43.614,47.578,39.359,46.093,36.694C44.604,34.029,41.838,32.717,37.823,32.717ZM37.823,32.713"/>
</g>
        <g id="Regular-M" transform="matrix(1.0,0.0,0.0,1.0,1400.3663393822044,1040.0063589134545)">  <path stroke-linejoin="miter" fill-rule="nonzero" role="img" stroke="none" stroke-linecap="butt" stroke-dasharray="none" stroke-opacity="1" stroke-miterlimit="4" fill="#000000" fill-opacity="1" stroke-width="1px" d="M91.768,13.376L14.087,13.376L0,27.455L0,88.151L87.445,88.151L101.527,74.073L101.527,13.376ZM54.084,77.838L47.477,80.917L41.766,71.539C40.937,71.78,39.655,71.919,37.857,71.919C31.177,71.919,26.507,70.122,23.876,66.522C21.245,62.926,19.933,57.215,19.933,49.461C19.933,41.677,21.283,35.898,23.948,32.125C26.613,28.352,31.249,26.452,37.857,26.452C44.465,26.452,49.101,28.318,51.732,32.091C54.397,35.826,55.709,41.609,55.709,49.427C55.709,54.584,55.159,58.734,54.084,61.885C52.98,65.066,51.212,67.49,48.72,69.153ZM74.119,71.124C70.49,71.124,67.998,70.295,66.648,68.628C65.295,66.97,64.605,63.823,64.605,59.186L64.605,44.236L59.69,44.236L59.69,38.288L64.605,38.288L64.605,28.948L71.56,28.948L71.56,38.284L80.418,38.284L80.418,44.27L71.56,44.27L71.56,58.425C71.56,61.056,71.771,62.782,72.152,63.615C72.533,64.478,73.531,64.897,75.092,64.897L80.35,64.686L80.659,70.295C77.825,70.845,75.642,71.124,74.119,71.124ZM37.823,32.713C33.804,32.713,31.038,34.029,29.519,36.689C28.03,39.355,27.269,43.581,27.269,49.427C27.269,55.239,27.996,59.427,29.447,61.919C30.902,64.411,33.703,65.692,37.823,65.692C41.939,65.692,44.71,64.444,46.161,61.987C47.578,59.533,48.306,55.345,48.306,49.495C48.306,43.614,47.578,39.359,46.093,36.694C44.604,34.029,41.838,32.717,37.823,32.717ZM37.823,32.713"/>
</g>
        <g id="Light-M" transform="matrix(1.0,0.0,0.0,1.0,1103.6563393822046,1040.0063589134545)">  <path fill-opacity="1" stroke-dasharray="none" fill-rule="nonzero" stroke-linecap="butt" stroke-linejoin="miter" stroke-width="1px" stroke-opacity="1" role="img" fill="#000000" stroke="none" stroke-miterlimit="4" d="M91.768,13.376L14.087,13.376L0,27.455L0,88.151L87.445,88.151L101.527,74.073L101.527,13.376ZM54.084,77.838L47.477,80.917L41.766,71.539C40.937,71.78,39.655,71.919,37.857,71.919C31.177,71.919,26.507,70.122,23.876,66.522C21.245,62.926,19.933,57.215,19.933,49.461C19.933,41.677,21.283,35.898,23.948,32.125C26.613,28.352,31.249,26.452,37.857,26.452C44.465,26.452,49.101,28.318,51.732,32.091C54.397,35.826,55.709,41.609,55.709,49.427C55.709,54.584,55.159,58.734,54.084,61.885C52.98,65.066,51.212,67.49,48.72,69.153ZM74.119,71.124C70.49,71.124,67.998,70.295,66.648,68.628C65.295,66.97,64.605,63.823,64.605,59.186L64.605,44.236L59.69,44.236L59.69,38.288L64.605,38.288L64.605,28.948L71.56,28.948L71.56,38.284L80.418,38.284L80.418,44.27L71.56,44.27L71.56,58.425C71.56,61.056,71.771,62.782,72.152,63.615C72.533,64.478,73.531,64.897,75.092,64.897L80.35,64.686L80.659,70.295C77.825,70.845,75.642,71.124,74.119,71.124ZM37.823,32.713C33.804,32.713,31.038,34.029,29.519,36.689C28.03,39.355,27.269,43.581,27.269,49.427C27.269,55.239,27.996,59.427,29.447,61.919C30.902,64.411,33.703,65.692,37.823,65.692C41.939,65.692,44.71,64.444,46.161,61.987C47.578,59.533,48.306,55.345,48.306,49.495C48.306,43.614,47.578,39.359,46.093,36.694C44.604,34.029,41.838,32.717,37.823,32.717ZM37.823,32.713"/>
</g>
        <g id="Thin-M" transform="matrix(1.0,0.0,0.0,1.0,806.9463393822047,1040.0063589134545)">  <path stroke="none" stroke-width="1px" fill-opacity="1" role="img" stroke-opacity="1" stroke-linecap="butt" stroke-linejoin="miter" stroke-dasharray="none" stroke-miterlimit="4" fill="#000000" fill-rule="nonzero" d="M91.768,13.376L14.087,13.376L0,27.455L0,88.151L87.445,88.151L101.527,74.073L101.527,13.376ZM54.084,77.838L47.477,80.917L41.766,71.539C40.937,71.78,39.655,71.919,37.857,71.919C31.177,71.919,26.507,70.122,23.876,66.522C21.245,62.926,19.933,57.215,19.933,49.461C19.933,41.677,21.283,35.898,23.948,32.125C26.613,28.352,31.249,26.452,37.857,26.452C44.465,26.452,49.101,28.318,51.732,32.091C54.397,35.826,55.709,41.609,55.709,49.427C55.709,54.584,55.159,58.734,54.084,61.885C52.98,65.066,51.212,67.49,48.72,69.153ZM74.119,71.124C70.49,71.124,67.998,70.295,66.648,68.628C65.295,66.97,64.605,63.823,64.605,59.186L64.605,44.236L59.69,44.236L59.69,38.288L64.605,38.288L64.605,28.948L71.56,28.948L71.56,38.284L80.418,38.284L80.418,44.27L71.56,44.27L71.56,58.425C71.56,61.056,71.771,62.782,72.152,63.615C72.533,64.478,73.531,64.897,75.092,64.897L80.35,64.686L80.659,70.295C77.825,70.845,75.642,71.124,74.119,71.124ZM37.823,32.713C33.804,32.713,31.038,34.029,29.519,36.689C28.03,39.355,27.269,43.581,27.269,49.427C27.269,55.239,27.996,59.427,29.447,61.919C30.902,64.411,33.703,65.692,37.823,65.692C41.939,65.692,44.71,64.444,46.161,61.987C47.578,59.533,48.306,55.345,48.306,49.495C48.306,43.614,47.578,39.359,46.093,36.694C44.604,34.029,41.838,32.717,37.823,32.717ZM37.823,32.713"/>
</g>
        <g id="Ultralight-M" transform="matrix(1.0,0.0,0.0,1.0,510.2363393822046,1040.0063589134545)">  <path role="img" fill="#000000" stroke-opacity="1" stroke-dasharray="none" fill-opacity="1" stroke-linecap="butt" stroke-width="1px" stroke="none" fill-rule="nonzero" stroke-miterlimit="4" stroke-linejoin="miter" d="M91.768,13.376L14.087,13.376L0,27.455L0,88.151L87.445,88.151L101.527,74.073L101.527,13.376ZM54.084,77.838L47.477,80.917L41.766,71.539C40.937,71.78,39.655,71.919,37.857,71.919C31.177,71.919,26.507,70.122,23.876,66.522C21.245,62.926,19.933,57.215,19.933,49.461C19.933,41.677,21.283,35.898,23.948,32.125C26.613,28.352,31.249,26.452,37.857,26.452C44.465,26.452,49.101,28.318,51.732,32.091C54.397,35.826,55.709,41.609,55.709,49.427C55.709,54.584,55.159,58.734,54.084,61.885C52.98,65.066,51.212,67.49,48.72,69.153ZM74.119,71.124C70.49,71.124,67.998,70.295,66.648,68.628C65.295,66.97,64.605,63.823,64.605,59.186L64.605,44.236L59.69,44.236L59.69,38.288L64.605,38.288L64.605,28.948L71.56,28.948L71.56,38.284L80.418,38.284L80.418,44.27L71.56,44.27L71.56,58.425C71.56,61.056,71.771,62.782,72.152,63.615C72.533,64.478,73.531,64.897,75.092,64.897L80.35,64.686L80.659,70.295C77.825,70.845,75.642,71.124,74.119,71.124ZM37.823,32.713C33.804,32.713,31.038,34.029,29.519,36.689C28.03,39.355,27.269,43.581,27.269,49.427C27.269,55.239,27.996,59.427,29.447,61.919C30.902,64.411,33.703,65.692,37.823,65.692C41.939,65.692,44.71,64.444,46.161,61.987C47.578,59.533,48.306,55.345,48.306,49.495C48.306,43.614,47.578,39.359,46.093,36.694C44.604,34.029,41.838,32.717,37.823,32.717ZM37.823,32.713"/>
</g>
        <g id="Black-S" transform="matrix(1.0,0.0,0.0,1.0,2894.932053736266,621.0220732675162)">  <path stroke-width="1px" fill="#000000" stroke-linejoin="miter" stroke-linecap="butt" stroke-miterlimit="4" fill-opacity="1" stroke-opacity="1" stroke="none" role="img" stroke-dasharray="none" fill-rule="nonzero" d="M71.854,10.474L11.03,10.474L0,21.497L0,69.022L68.469,69.022L79.496,57.999L79.496,10.474ZM42.348,60.947L37.174,63.358L32.703,56.015C32.053,56.204,31.05,56.313,29.642,56.313C24.412,56.313,20.755,54.905,18.695,52.086C16.635,49.271,15.608,44.799,15.608,38.728C15.608,32.633,16.664,28.108,18.751,25.154C20.838,22.199,24.468,20.712,29.642,20.712C34.816,20.712,38.446,22.173,40.506,25.127C42.593,28.052,43.62,32.58,43.62,38.701C43.62,42.739,43.189,45.988,42.348,48.456C41.484,50.947,40.099,52.845,38.148,54.147ZM58.035,55.69C55.193,55.69,53.242,55.041,52.186,53.736C51.126,52.437,50.586,49.973,50.586,46.343L50.586,34.637L46.737,34.637L46.737,29.98L50.586,29.98L50.586,22.666L56.031,22.666L56.031,29.977L62.967,29.977L62.967,34.664L56.031,34.664L56.031,45.747C56.031,47.807,56.197,49.158,56.495,49.811C56.793,50.487,57.575,50.814,58.797,50.814L62.914,50.649L63.156,55.041C60.937,55.472,59.228,55.69,58.035,55.69ZM29.616,25.614C26.469,25.614,24.303,26.644,23.113,28.728C21.947,30.815,21.351,34.124,21.351,38.701C21.351,43.252,21.921,46.532,23.057,48.483C24.197,50.434,26.389,51.437,29.616,51.437C32.838,51.437,35.008,50.46,36.144,48.536C37.254,46.614,37.823,43.335,37.823,38.754C37.823,34.15,37.254,30.818,36.091,28.731C34.925,26.644,32.759,25.618,29.616,25.618ZM29.616,25.614"/>
</g>
        <g id="Heavy-S" transform="matrix(1.0,0.0,0.0,1.0,2598.222053736266,621.0220732675162)">  <path role="img" fill-rule="nonzero" fill-opacity="1" stroke-linecap="butt" stroke-opacity="1" stroke-width="1px" stroke="none" fill="#000000" stroke-linejoin="miter" stroke-miterlimit="4" stroke-dasharray="none" d="M71.854,10.474L11.03,10.474L0,21.497L0,69.022L68.469,69.022L79.496,57.999L79.496,10.474ZM42.348,60.947L37.174,63.358L32.703,56.015C32.053,56.204,31.05,56.313,29.642,56.313C24.412,56.313,20.755,54.905,18.695,52.086C16.635,49.271,15.608,44.799,15.608,38.728C15.608,32.633,16.664,28.108,18.751,25.154C20.838,22.199,24.468,20.712,29.642,20.712C34.816,20.712,38.446,22.173,40.506,25.127C42.593,28.052,43.62,32.58,43.62,38.701C43.62,42.739,43.189,45.988,42.348,48.456C41.484,50.947,40.099,52.845,38.148,54.147ZM58.035,55.69C55.193,55.69,53.242,55.041,52.186,53.736C51.126,52.437,50.586,49.973,50.586,46.343L50.586,34.637L46.737,34.637L46.737,29.98L50.586,29.98L50.586,22.666L56.031,22.666L56.031,29.977L62.967,29.977L62.967,34.664L56.031,34.664L56.031,45.747C56.031,47.807,56.197,49.158,56.495,49.811C56.793,50.487,57.575,50.814,58.797,50.814L62.914,50.649L63.156,55.041C60.937,55.472,59.228,55.69,58.035,55.69ZM29.616,25.614C26.469,25.614,24.303,26.644,23.113,28.728C21.947,30.815,21.351,34.124,21.351,38.701C21.351,43.252,21.921,46.532,23.057,48.483C24.197,50.434,26.389,51.437,29.616,51.437C32.838,51.437,35.008,50.46,36.144,48.536C37.254,46.614,37.823,43.335,37.823,38.754C37.823,34.15,37.254,30.818,36.091,28.731C34.925,26.644,32.759,25.618,29.616,25.618ZM29.616,25.614"/>
</g>
        <g id="Bold-S" transform="matrix(1.0,0.0,0.0,1.0,2301.512053736266,621.0220732675162)">  <path stroke-opacity="1" fill="#000000" fill-opacity="1" stroke="none" stroke-miterlimit="4" stroke-linecap="butt" stroke-width="1px" fill-rule="nonzero" stroke-linejoin="miter" stroke-dasharray="none" role="img" d="M71.854,10.474L11.03,10.474L0,21.497L0,69.022L68.469,69.022L79.496,57.999L79.496,10.474ZM42.348,60.947L37.174,63.358L32.703,56.015C32.053,56.204,31.05,56.313,29.642,56.313C24.412,56.313,20.755,54.905,18.695,52.086C16.635,49.271,15.608,44.799,15.608,38.728C15.608,32.633,16.664,28.108,18.751,25.154C20.838,22.199,24.468,20.712,29.642,20.712C34.816,20.712,38.446,22.173,40.506,25.127C42.593,28.052,43.62,32.58,43.62,38.701C43.62,42.739,43.189,45.988,42.348,48.456C41.484,50.947,40.099,52.845,38.148,54.147ZM58.035,55.69C55.193,55.69,53.242,55.041,52.186,53.736C51.126,52.437,50.586,49.973,50.586,46.343L50.586,34.637L46.737,34.637L46.737,29.98L50.586,29.98L50.586,22.666L56.031,22.666L56.031,29.977L62.967,29.977L62.967,34.664L56.031,34.664L56.031,45.747C56.031,47.807,56.197,49.158,56.495,49.811C56.793,50.487,57.575,50.814,58.797,50.814L62.914,50.649L63.156,55.041C60.937,55.472,59.228,55.69,58.035,55.69ZM29.616,25.614C26.469,25.614,24.303,26.644,23.113,28.728C21.947,30.815,21.351,34.124,21.351,38.701C21.351,43.252,21.921,46.532,23.057,48.483C24.197,50.434,26.389,51.437,29.616,51.437C32.838,51.437,35.008,50.46,36.144,48.536C37.254,46.614,37.823,43.335,37.823,38.754C37.823,34.15,37.254,30.818,36.091,28.731C34.925,26.644,32.759,25.618,29.616,25.618ZM29.616,25.614"/>
</g>
        <g id="Semibold-S" transform="matrix(1.0,0.0,0.0,1.0,2004.802053736266,621.0220732675162)">  <path role="img" stroke-dasharray="none" stroke-width="1px" fill-opacity="1" fill-rule="nonzero" stroke-linecap="butt" stroke-miterlimit="4" fill="#000000" stroke="none" stroke-opacity="1" stroke-linejoin="miter" d="M71.854,10.474L11.03,10.474L0,21.497L0,69.022L68.469,69.022L79.496,57.999L79.496,10.474ZM42.348,60.947L37.174,63.358L32.703,56.015C32.053,56.204,31.05,56.313,29.642,56.313C24.412,56.313,20.755,54.905,18.695,52.086C16.635,49.271,15.608,44.799,15.608,38.728C15.608,32.633,16.664,28.108,18.751,25.154C20.838,22.199,24.468,20.712,29.642,20.712C34.816,20.712,38.446,22.173,40.506,25.127C42.593,28.052,43.62,32.58,43.62,38.701C43.62,42.739,43.189,45.988,42.348,48.456C41.484,50.947,40.099,52.845,38.148,54.147ZM58.035,55.69C55.193,55.69,53.242,55.041,52.186,53.736C51.126,52.437,50.586,49.973,50.586,46.343L50.586,34.637L46.737,34.637L46.737,29.98L50.586,29.98L50.586,22.666L56.031,22.666L56.031,29.977L62.967,29.977L62.967,34.664L56.031,34.664L56.031,45.747C56.031,47.807,56.197,49.158,56.495,49.811C56.793,50.487,57.575,50.814,58.797,50.814L62.914,50.649L63.156,55.041C60.937,55.472,59.228,55.69,58.035,55.69ZM29.616,25.614C26.469,25.614,24.303,26.644,23.113,28.728C21.947,30.815,21.351,34.124,21.351,38.701C21.351,43.252,21.921,46.532,23.057,48.483C24.197,50.434,26.389,51.437,29.616,51.437C32.838,51.437,35.008,50.46,36.144,48.536C37.254,46.614,37.823,43.335,37.823,38.754C37.823,34.15,37.254,30.818,36.091,28.731C34.925,26.644,32.759,25.618,29.616,25.618ZM29.616,25.614"/>
</g>
        <g id="Medium-S" transform="matrix(1.0,0.0,0.0,1.0,1708.092053736266,621.0220732675162)">  <path fill-rule="nonzero" stroke-linecap="butt" stroke-width="1px" role="img" stroke-linejoin="miter" stroke-dasharray="none" stroke-opacity="1" stroke-miterlimit="4" fill="#000000" fill-opacity="1" stroke="none" d="M71.854,10.474L11.03,10.474L0,21.497L0,69.022L68.469,69.022L79.496,57.999L79.496,10.474ZM42.348,60.947L37.174,63.358L32.703,56.015C32.053,56.204,31.05,56.313,29.642,56.313C24.412,56.313,20.755,54.905,18.695,52.086C16.635,49.271,15.608,44.799,15.608,38.728C15.608,32.633,16.664,28.108,18.751,25.154C20.838,22.199,24.468,20.712,29.642,20.712C34.816,20.712,38.446,22.173,40.506,25.127C42.593,28.052,43.62,32.58,43.62,38.701C43.62,42.739,43.189,45.988,42.348,48.456C41.484,50.947,40.099,52.845,38.148,54.147ZM58.035,55.69C55.193,55.69,53.242,55.041,52.186,53.736C51.126,52.437,50.586,49.973,50.586,46.343L50.586,34.637L46.737,34.637L46.737,29.98L50.586,29.98L50.586,22.666L56.031,22.666L56.031,29.977L62.967,29.977L62.967,34.664L56.031,34.664L56.031,45.747C56.031,47.807,56.197,49.158,56.495,49.811C56.793,50.487,57.575,50.814,58.797,50.814L62.914,50.649L63.156,55.041C60.937,55.472,59.228,55.69,58.035,55.69ZM29.616,25.614C26.469,25.614,24.303,26.644,23.113,28.728C21.947,30.815,21.351,34.124,21.351,38.701C21.351,43.252,21.921,46.532,23.057,48.483C24.197,50.434,26.389,51.437,29.616,51.437C32.838,51.437,35.008,50.46,36.144,48.536C37.254,46.614,37.823,43.335,37.823,38.754C37.823,34.15,37.254,30.818,36.091,28.731C34.925,26.644,32.759,25.618,29.616,25.618ZM29.616,25.614"/>
</g>
        <g id="Regular-S" transform="matrix(1.0,0.0,0.0,1.0,1411.382053736266,621.0220732675162)">  <path stroke-linejoin="miter" fill-rule="nonzero" role="img" stroke="none" stroke-linecap="butt" stroke-dasharray="none" stroke-opacity="1" stroke-miterlimit="4" fill="#000000" fill-opacity="1" stroke-width="1px" d="M71.854,10.474L11.03,10.474L0,21.497L0,69.022L68.469,69.022L79.496,57.999L79.496,10.474ZM42.348,60.947L37.174,63.358L32.703,56.015C32.053,56.204,31.05,56.313,29.642,56.313C24.412,56.313,20.755,54.905,18.695,52.086C16.635,49.271,15.608,44.799,15.608,38.728C15.608,32.633,16.664,28.108,18.751,25.154C20.838,22.199,24.468,20.712,29.642,20.712C34.816,20.712,38.446,22.173,40.506,25.127C42.593,28.052,43.62,32.58,43.62,38.701C43.62,42.739,43.189,45.988,42.348,48.456C41.484,50.947,40.099,52.845,38.148,54.147ZM58.035,55.69C55.193,55.69,53.242,55.041,52.186,53.736C51.126,52.437,50.586,49.973,50.586,46.343L50.586,34.637L46.737,34.637L46.737,29.98L50.586,29.98L50.586,22.666L56.031,22.666L56.031,29.977L62.967,29.977L62.967,34.664L56.031,34.664L56.031,45.747C56.031,47.807,56.197,49.158,56.495,49.811C56.793,50.487,57.575,50.814,58.797,50.814L62.914,50.649L63.156,55.041C60.937,55.472,59.228,55.69,58.035,55.69ZM29.616,25.614C26.469,25.614,24.303,26.644,23.113,28.728C21.947,30.815,21.351,34.124,21.351,38.701C21.351,43.252,21.921,46.532,23.057,48.483C24.197,50.434,26.389,51.437,29.616,51.437C32.838,51.437,35.008,50.46,36.144,48.536C37.254,46.614,37.823,43.335,37.823,38.754C37.823,34.15,37.254,30.818,36.091,28.731C34.925,26.644,32.759,25.618,29.616,25.618ZM29.616,25.614"/>
</g>
        <g id="Light-S" transform="matrix(1.0,0.0,0.0,1.0,1114.6720537362662,621.0220732675162)">  <path fill-opacity="1" stroke-dasharray="none" fill-rule="nonzero" stroke-linecap="butt" stroke-linejoin="miter" stroke-width="1px" stroke-opacity="1" role="img" fill="#000000" stroke="none" stroke-miterlimit="4" d="M71.854,10.474L11.03,10.474L0,21.497L0,69.022L68.469,69.022L79.496,57.999L79.496,10.474ZM42.348,60.947L37.174,63.358L32.703,56.015C32.053,56.204,31.05,56.313,29.642,56.313C24.412,56.313,20.755,54.905,18.695,52.086C16.635,49.271,15.608,44.799,15.608,38.728C15.608,32.633,16.664,28.108,18.751,25.154C20.838,22.199,24.468,20.712,29.642,20.712C34.816,20.712,38.446,22.173,40.506,25.127C42.593,28.052,43.62,32.58,43.62,38.701C43.62,42.739,43.189,45.988,42.348,48.456C41.484,50.947,40.099,52.845,38.148,54.147ZM58.035,55.69C55.193,55.69,53.242,55.041,52.186,53.736C51.126,52.437,50.586,49.973,50.586,46.343L50.586,34.637L46.737,34.637L46.737,29.98L50.586,29.98L50.586,22.666L56.031,22.666L56.031,29.977L62.967,29.977L62.967,34.664L56.031,34.664L56.031,45.747C56.031,47.807,56.197,49.158,56.495,49.811C56.793,50.487,57.575,50.814,58.797,50.814L62.914,50.649L63.156,55.041C60.937,55.472,59.228,55.69,58.035,55.69ZM29.616,25.614C26.469,25.614,24.303,26.644,23.113,28.728C21.947,30.815,21.351,34.124,21.351,38.701C21.351,43.252,21.921,46.532,23.057,48.483C24.197,50.434,26.389,51.437,29.616,51.437C32.838,51.437,35.008,50.46,36.144,48.536C37.254,46.614,37.823,43.335,37.823,38.754C37.823,34.15,37.254,30.818,36.091,28.731C34.925,26.644,32.759,25.618,29.616,25.618ZM29.616,25.614"/>
</g>
        <g id="Thin-S" transform="matrix(1.0,0.0,0.0,1.0,817.9620537362663,621.0220732675162)">  <path stroke="none" stroke-width="1px" fill-opacity="1" role="img" stroke-opacity="1" stroke-linecap="butt" stroke-linejoin="miter" stroke-dasharray="none" stroke-miterlimit="4" fill="#000000" fill-rule="nonzero" d="M71.854,10.474L11.03,10.474L0,21.497L0,69.022L68.469,69.022L79.496,57.999L79.496,10.474ZM42.348,60.947L37.174,63.358L32.703,56.015C32.053,56.204,31.05,56.313,29.642,56.313C24.412,56.313,20.755,54.905,18.695,52.086C16.635,49.271,15.608,44.799,15.608,38.728C15.608,32.633,16.664,28.108,18.751,25.154C20.838,22.199,24.468,20.712,29.642,20.712C34.816,20.712,38.446,22.173,40.506,25.127C42.593,28.052,43.62,32.58,43.62,38.701C43.62,42.739,43.189,45.988,42.348,48.456C41.484,50.947,40.099,52.845,38.148,54.147ZM58.035,55.69C55.193,55.69,53.242,55.041,52.186,53.736C51.126,52.437,50.586,49.973,50.586,46.343L50.586,34.637L46.737,34.637L46.737,29.98L50.586,29.98L50.586,22.666L56.031,22.666L56.031,29.977L62.967,29.977L62.967,34.664L56.031,34.664L56.031,45.747C56.031,47.807,56.197,49.158,56.495,49.811C56.793,50.487,57.575,50.814,58.797,50.814L62.914,50.649L63.156,55.041C60.937,55.472,59.228,55.69,58.035,55.69ZM29.616,25.614C26.469,25.614,24.303,26.644,23.113,28.728C21.947,30.815,21.351,34.124,21.351,38.701C21.351,43.252,21.921,46.532,23.057,48.483C24.197,50.434,26.389,51.437,29.616,51.437C32.838,51.437,35.008,50.46,36.144,48.536C37.254,46.614,37.823,43.335,37.823,38.754C37.823,34.15,37.254,30.818,36.091,28.731C34.925,26.644,32.759,25.618,29.616,25.618ZM29.616,25.614"/>
</g>
        <g id="Ultralight-S" transform="matrix(1.0,0.0,0.0,1.0,521.2520537362662,621.0220732675162)">  <path role="img" fill="#000000" stroke-opacity="1" stroke-dasharray="none" fill-opacity="1" stroke-linecap="butt" stroke-width="1px" stroke="none" fill-rule="nonzero" stroke-miterlimit="4" stroke-linejoin="miter" d="M71.854,10.474L11.03,10.474L0,21.497L0,69.022L68.469,69.022L79.496,57.999L79.496,10.474ZM42.348,60.947L37.174,63.358L32.703,56.015C32.053,56.204,31.05,56.313,29.642,56.313C24.412,56.313,20.755,54.905,18.695,52.086C16.635,49.271,15.608,44.799,15.608,38.728C15.608,32.633,16.664,28.108,18.751,25.154C20.838,22.199,24.468,20.712,29.642,20.712C34.816,20.712,38.446,22.173,40.506,25.127C42.593,28.052,43.62,32.58,43.62,38.701C43.62,42.739,43.189,45.988,42.348,48.456C41.484,50.947,40.099,52.845,38.148,54.147ZM58.035,55.69C55.193,55.69,53.242,55.041,52.186,53.736C51.126,52.437,50.586,49.973,50.586,46.343L50.586,34.637L46.737,34.637L46.737,29.98L50.586,29.98L50.586,22.666L56.031,22.666L56.031,29.977L62.967,29.977L62.967,34.664L56.031,34.664L56.031,45.747C56.031,47.807,56.197,49.158,56.495,49.811C56.793,50.487,57.575,50.814,58.797,50.814L62.914,50.649L63.156,55.041C60.937,55.472,59.228,55.69,58.035,55.69ZM29.616,25.614C26.469,25.614,24.303,26.644,23.113,28.728C21.947,30.815,21.351,34.124,21.351,38.701C21.351,43.252,21.921,46.532,23.057,48.483C24.197,50.434,26.389,51.437,29.616,51.437C32.838,51.437,35.008,50.46,36.144,48.536C37.254,46.614,37.823,43.335,37.823,38.754C37.823,34.15,37.254,30.818,36.091,28.731C34.925,26.644,32.759,25.618,29.616,25.618ZM29.616,25.614"/>
</g>
    </g>
    </g>
</svg>
