<?xml version="1.0" encoding="UTF-8"?>
<!--Generator: CustomSymbols by @serious_bret-->
<!DOCTYPE svg
        PUBLIC "-//W3C//DTD SVG 1.1//EN"
        "http://www.w3.org/Graphics/SVG/1.1/DTD/svg11.dtd">
<svg version="1.1" xmlns="http://www.w3.org/2000/svg" xmlns:xlink="http://www.w3.org/1999/xlink" width="2900" height="1500">
    <g transform="translate(-200 -200)">
    <!--template writer version: "8"-->
    <g id="Notes">
        <rect height="2200" id="artboard" style="fill:white;opacity:1" width="3300" x="0" y="0"/>
        <line id="" style="fill:none;stroke:black;opacity:1;stroke-width:0.5;" x1="263" x2="3036" y1="292" y2="292"/>
        <text id="reftext1" style="stroke:none;fill:black;font-family:-apple-system,&quot;SF Pro Display&quot;,&quot;SF Pro Text&quot;,Helvetica,sans-serif;font-weight:bold;" transform="matrix(1 0 0 1 263 322)">Weight/Scale Variations</text>
        <text id="reftext2" style="stroke:none;fill:black;font-family:-apple-system,&quot;SF Pro Display&quot;,&quot;SF Pro Text&quot;,Helvetica,sans-serif;text-anchor:middle;" transform="matrix(1 0 0 1 559.711 322)">Ultralight</text>
        <text style="stroke:none;fill:black;font-family:-apple-system,&quot;SF Pro Display&quot;,&quot;SF Pro Text&quot;,Helvetica,sans-serif;text-anchor:middle;" transform="matrix(1 0 0 1 856.422 322)">Thin</text>
        <text style="stroke:none;fill:black;font-family:-apple-system,&quot;SF Pro Display&quot;,&quot;SF Pro Text&quot;,Helvetica,sans-serif;text-anchor:middle;" transform="matrix(1 0 0 1 1153.13 322)">Light</text>
        <text style="stroke:none;fill:black;font-family:-apple-system,&quot;SF Pro Display&quot;,&quot;SF Pro Text&quot;,Helvetica,sans-serif;text-anchor:middle;" transform="matrix(1 0 0 1 1449.84 322)">Regular</text>
        <text style="stroke:none;fill:black;font-family:-apple-system,&quot;SF Pro Display&quot;,&quot;SF Pro Text&quot;,Helvetica,sans-serif;text-anchor:middle;" transform="matrix(1 0 0 1 1746.56 322)">Medium</text>
        <text style="stroke:none;fill:black;font-family:-apple-system,&quot;SF Pro Display&quot;,&quot;SF Pro Text&quot;,Helvetica,sans-serif;text-anchor:middle;" transform="matrix(1 0 0 1 2043.27 322)">Semibold</text>
        <text style="stroke:none;fill:black;font-family:-apple-system,&quot;SF Pro Display&quot;,&quot;SF Pro Text&quot;,Helvetica,sans-serif;text-anchor:middle;" transform="matrix(1 0 0 1 2339.98 322)">Bold</text>
        <text style="stroke:none;fill:black;font-family:-apple-system,&quot;SF Pro Display&quot;,&quot;SF Pro Text&quot;,Helvetica,sans-serif;text-anchor:middle;" transform="matrix(1 0 0 1 2636.69 322)">Heavy</text>
        <text style="stroke:none;fill:black;font-family:-apple-system,&quot;SF Pro Display&quot;,&quot;SF Pro Text&quot;,Helvetica,sans-serif;text-anchor:middle;" transform="matrix(1 0 0 1 2933.4 322)">Black</text>

        <text style="stroke:none;fill:black;font-family:-apple-system,&quot;SF Pro Display&quot;,&quot;SF Pro Text&quot;,Helvetica,sans-serif;" transform="matrix(1 0 0 1 263 726)">Small</text>
        <text style="stroke:none;fill:black;font-family:-apple-system,&quot;SF Pro Display&quot;,&quot;SF Pro Text&quot;,Helvetica,sans-serif;" transform="matrix(1 0 0 1 263 1156)">Medium</text>
        <text style="stroke:none;fill:black;font-family:-apple-system,&quot;SF Pro Display&quot;,&quot;SF Pro Text&quot;,Helvetica,sans-serif;" transform="matrix(1 0 0 1 263 1586)">Large</text>
    </g>
    <g id="Guides">
        <g id="H-reference" style="fill:#27AAE1;stroke:none;" transform="matrix(1 0 0 1 339 696)">
            <path d="M0.976562 0L3.66211 0L12.9883-24.4629L45.752-24.4629L55.127 0L57.7637 0L30.6152-70.459L28.125-70.459ZM29.3457-67.1387L29.4434-67.1387L44.873-26.709L13.8672-26.709Z"/>
        </g>
        <line id="Baseline-S" style="fill:none;stroke:#27AAE1;opacity:1;stroke-width:0.5;" x1="263" x2="3036" y1="696" y2="696"/>
        <line id="Capline-S" style="fill:none;stroke:#27AAE1;opacity:1;stroke-width:0.5;" x1="263" x2="3036" y1="625.541" y2="625.541"/>
        <g id="H-reference" style="fill:#27AAE1;stroke:none;" transform="matrix(1 0 0 1 339 1126)">
            <path d="M0.976562 0L3.66211 0L12.9883-24.4629L45.752-24.4629L55.127 0L57.7637 0L30.6152-70.459L28.125-70.459ZM29.3457-67.1387L29.4434-67.1387L44.873-26.709L13.8672-26.709Z"/>
        </g>
        <line id="Baseline-M" style="fill:none;stroke:#27AAE1;opacity:1;stroke-width:0.5;" x1="263" x2="3036" y1="1126" y2="1126"/>
        <line id="Capline-M" style="fill:none;stroke:#27AAE1;opacity:1;stroke-width:0.5;" x1="263" x2="3036" y1="1055.54" y2="1055.54"/>
        <g id="H-reference" style="fill:#27AAE1;stroke:none;" transform="matrix(1 0 0 1 339 1556)">
            <path d="M0.976562 0L3.66211 0L12.9883-24.4629L45.752-24.4629L55.127 0L57.7637 0L30.6152-70.459L28.125-70.459ZM29.3457-67.1387L29.4434-67.1387L44.873-26.709L13.8672-26.709Z"/>
        </g>
        <line id="Baseline-L" style="fill:none;stroke:#27AAE1;opacity:1;stroke-width:0.5;" x1="263" x2="3036" y1="1556" y2="1556"/>
        <line id="Capline-L" style="fill:none;stroke:#27AAE1;opacity:1;stroke-width:0.5;" x1="263" x2="3036" y1="1485.54" y2="1485.54"/>
        <line id="left-margin" x1="1417.3214020285482" x2="1417.3214020285482" y1="1030.79" y2="1150.12" style="fill:none;stroke:#00AEEF;stroke-width:0.5;opacity:1.0;"/>
        <line id="right-margin" x1="1484.9385979714516" x2="1484.9385979714516" y1="1030.79" y2="1150.12" style="fill:none;stroke:#00AEEF;stroke-width:0.5;opacity:1.0;"/>
    </g>
    <g id="Symbols">
        <g id="Black-L" transform="matrix(1.0,0.0,0.0,1.0,2869.1948778030437,1455.2848973342939)">  <path stroke-linecap="butt" stroke="none" stroke-dasharray="none" stroke-width="1px" stroke-opacity="1" stroke-miterlimit="4" fill-rule="nonzero" version="1.1" stroke-linejoin="miter" fill-opacity="1" fill="#000000" d="M126.84,94.034C119.427,75.315,113.273,56.116,106.191,37.273C103.062,29.251,100.001,21.161,95.737,13.655C94.044,10.96,92.423,7.997,89.645,6.273C88.944,5.827,88.154,5.638,87.374,5.653C86.073,5.678,84.78,6.26,83.786,7.099C80.059,10.052,77.849,14.347,75.371,18.301C70.993,25.642,66.378,33.329,59.058,38.099C55.62,40.525,51.118,40.789,47.804,43.39C43.271,46.808,40.189,51.655,36.472,55.858C35.626,56.869,34.315,57.272,33.168,57.819C22.08,62.342,10.986,66.854,0,71.603C9.303,78.799,19.214,85.201,28.703,92.149C31.305,91.633,33.917,90.565,36.601,91.039C40.855,92.371,43.349,96.45,45.3,100.177C49.265,108.303,52.13,116.882,55.341,125.318C60.71,124.936,65.542,122.169,69.692,118.916C77.684,112.443,83.77,104.08,90.471,96.357C93.682,92.98,96.955,88.959,101.777,88.019C106.65,86.842,111.869,88.587,115.483,91.943C120.552,96.475,125.044,101.715,130.97,105.184C130.175,101.261,128.265,97.74,126.84,94.034ZM43.958,80.844C39.281,83.611,34.315,85.887,29.451,88.303C21.821,83.193,14.388,77.777,6.892,72.481C17,68.051,27.263,63.937,37.505,59.807C42.358,63.596,47.365,67.194,52.218,70.983C49.936,74.628,47.19,78.015,43.958,80.844ZM54.36,68.144C49.538,64.52,44.655,60.994,39.905,57.277C42.951,53.127,46.286,49.116,50.282,45.843C52.925,44.149,56.157,43.679,58.903,42.151C65.418,38.899,69.863,32.931,74.106,27.232C68.665,41.356,62.857,55.538,54.36,68.144ZM54.36,68.144"/>
</g>
        <g id="Heavy-L" transform="matrix(1.0,0.0,0.0,1.0,2572.4848778030437,1455.2848973342939)">  <path stroke-dasharray="none" stroke="none" stroke-linecap="butt" stroke-width="1px" fill-rule="nonzero" fill-opacity="1" stroke-miterlimit="4" version="1.1" stroke-linejoin="miter" fill="#000000" stroke-opacity="1" d="M126.84,94.034C119.427,75.315,113.273,56.116,106.191,37.273C103.062,29.251,100.001,21.161,95.737,13.655C94.044,10.96,92.423,7.997,89.645,6.273C88.944,5.827,88.154,5.638,87.374,5.653C86.073,5.678,84.78,6.26,83.786,7.099C80.059,10.052,77.849,14.347,75.371,18.301C70.993,25.642,66.378,33.329,59.058,38.099C55.62,40.525,51.118,40.789,47.804,43.39C43.271,46.808,40.189,51.655,36.472,55.858C35.626,56.869,34.315,57.272,33.168,57.819C22.08,62.342,10.986,66.854,0,71.603C9.303,78.799,19.214,85.201,28.703,92.149C31.305,91.633,33.917,90.565,36.601,91.039C40.855,92.371,43.349,96.45,45.3,100.177C49.265,108.303,52.13,116.882,55.341,125.318C60.71,124.936,65.542,122.169,69.692,118.916C77.684,112.443,83.77,104.08,90.471,96.357C93.682,92.98,96.955,88.959,101.777,88.019C106.65,86.842,111.869,88.587,115.483,91.943C120.552,96.475,125.044,101.715,130.97,105.184C130.175,101.261,128.265,97.74,126.84,94.034ZM43.958,80.844C39.281,83.611,34.315,85.887,29.451,88.303C21.821,83.193,14.388,77.777,6.892,72.481C17,68.051,27.263,63.937,37.505,59.807C42.358,63.596,47.365,67.194,52.218,70.983C49.936,74.628,47.19,78.015,43.958,80.844ZM54.36,68.144C49.538,64.52,44.655,60.994,39.905,57.277C42.951,53.127,46.286,49.116,50.282,45.843C52.925,44.149,56.157,43.679,58.903,42.151C65.418,38.899,69.863,32.931,74.106,27.232C68.665,41.356,62.857,55.538,54.36,68.144ZM54.36,68.144"/>
</g>
        <g id="Bold-L" transform="matrix(1.0,0.0,0.0,1.0,2275.7748778030436,1455.2848973342939)">  <path stroke-opacity="1" stroke-dasharray="none" stroke-linecap="butt" version="1.1" stroke-linejoin="miter" fill-opacity="1" fill-rule="nonzero" stroke-width="1px" fill="#000000" stroke-miterlimit="4" stroke="none" d="M126.84,94.034C119.427,75.315,113.273,56.116,106.191,37.273C103.062,29.251,100.001,21.161,95.737,13.655C94.044,10.96,92.423,7.997,89.645,6.273C88.944,5.827,88.154,5.638,87.374,5.653C86.073,5.678,84.78,6.26,83.786,7.099C80.059,10.052,77.849,14.347,75.371,18.301C70.993,25.642,66.378,33.329,59.058,38.099C55.62,40.525,51.118,40.789,47.804,43.39C43.271,46.808,40.189,51.655,36.472,55.858C35.626,56.869,34.315,57.272,33.168,57.819C22.08,62.342,10.986,66.854,0,71.603C9.303,78.799,19.214,85.201,28.703,92.149C31.305,91.633,33.917,90.565,36.601,91.039C40.855,92.371,43.349,96.45,45.3,100.177C49.265,108.303,52.13,116.882,55.341,125.318C60.71,124.936,65.542,122.169,69.692,118.916C77.684,112.443,83.77,104.08,90.471,96.357C93.682,92.98,96.955,88.959,101.777,88.019C106.65,86.842,111.869,88.587,115.483,91.943C120.552,96.475,125.044,101.715,130.97,105.184C130.175,101.261,128.265,97.74,126.84,94.034ZM43.958,80.844C39.281,83.611,34.315,85.887,29.451,88.303C21.821,83.193,14.388,77.777,6.892,72.481C17,68.051,27.263,63.937,37.505,59.807C42.358,63.596,47.365,67.194,52.218,70.983C49.936,74.628,47.19,78.015,43.958,80.844ZM54.36,68.144C49.538,64.52,44.655,60.994,39.905,57.277C42.951,53.127,46.286,49.116,50.282,45.843C52.925,44.149,56.157,43.679,58.903,42.151C65.418,38.899,69.863,32.931,74.106,27.232C68.665,41.356,62.857,55.538,54.36,68.144ZM54.36,68.144"/>
</g>
        <g id="Semibold-L" transform="matrix(1.0,0.0,0.0,1.0,1979.0648778030438,1455.2848973342939)">  <path fill="#000000" stroke-opacity="1" stroke-miterlimit="4" stroke-width="1px" fill-opacity="1" stroke-dasharray="none" stroke-linecap="butt" stroke="none" version="1.1" stroke-linejoin="miter" fill-rule="nonzero" d="M126.84,94.034C119.427,75.315,113.273,56.116,106.191,37.273C103.062,29.251,100.001,21.161,95.737,13.655C94.044,10.96,92.423,7.997,89.645,6.273C88.944,5.827,88.154,5.638,87.374,5.653C86.073,5.678,84.78,6.26,83.786,7.099C80.059,10.052,77.849,14.347,75.371,18.301C70.993,25.642,66.378,33.329,59.058,38.099C55.62,40.525,51.118,40.789,47.804,43.39C43.271,46.808,40.189,51.655,36.472,55.858C35.626,56.869,34.315,57.272,33.168,57.819C22.08,62.342,10.986,66.854,0,71.603C9.303,78.799,19.214,85.201,28.703,92.149C31.305,91.633,33.917,90.565,36.601,91.039C40.855,92.371,43.349,96.45,45.3,100.177C49.265,108.303,52.13,116.882,55.341,125.318C60.71,124.936,65.542,122.169,69.692,118.916C77.684,112.443,83.77,104.08,90.471,96.357C93.682,92.98,96.955,88.959,101.777,88.019C106.65,86.842,111.869,88.587,115.483,91.943C120.552,96.475,125.044,101.715,130.97,105.184C130.175,101.261,128.265,97.74,126.84,94.034ZM43.958,80.844C39.281,83.611,34.315,85.887,29.451,88.303C21.821,83.193,14.388,77.777,6.892,72.481C17,68.051,27.263,63.937,37.505,59.807C42.358,63.596,47.365,67.194,52.218,70.983C49.936,74.628,47.19,78.015,43.958,80.844ZM54.36,68.144C49.538,64.52,44.655,60.994,39.905,57.277C42.951,53.127,46.286,49.116,50.282,45.843C52.925,44.149,56.157,43.679,58.903,42.151C65.418,38.899,69.863,32.931,74.106,27.232C68.665,41.356,62.857,55.538,54.36,68.144ZM54.36,68.144"/>
</g>
        <g id="Medium-L" transform="matrix(1.0,0.0,0.0,1.0,1682.3548778030438,1455.2848973342939)">  <path stroke="none" fill-opacity="1" stroke-opacity="1" stroke-linecap="butt" fill="#000000" stroke-miterlimit="4" fill-rule="nonzero" stroke-width="1px" stroke-linejoin="miter" stroke-dasharray="none" version="1.1" d="M126.84,94.034C119.427,75.315,113.273,56.116,106.191,37.273C103.062,29.251,100.001,21.161,95.737,13.655C94.044,10.96,92.423,7.997,89.645,6.273C88.944,5.827,88.154,5.638,87.374,5.653C86.073,5.678,84.78,6.26,83.786,7.099C80.059,10.052,77.849,14.347,75.371,18.301C70.993,25.642,66.378,33.329,59.058,38.099C55.62,40.525,51.118,40.789,47.804,43.39C43.271,46.808,40.189,51.655,36.472,55.858C35.626,56.869,34.315,57.272,33.168,57.819C22.08,62.342,10.986,66.854,0,71.603C9.303,78.799,19.214,85.201,28.703,92.149C31.305,91.633,33.917,90.565,36.601,91.039C40.855,92.371,43.349,96.45,45.3,100.177C49.265,108.303,52.13,116.882,55.341,125.318C60.71,124.936,65.542,122.169,69.692,118.916C77.684,112.443,83.77,104.08,90.471,96.357C93.682,92.98,96.955,88.959,101.777,88.019C106.65,86.842,111.869,88.587,115.483,91.943C120.552,96.475,125.044,101.715,130.97,105.184C130.175,101.261,128.265,97.74,126.84,94.034ZM43.958,80.844C39.281,83.611,34.315,85.887,29.451,88.303C21.821,83.193,14.388,77.777,6.892,72.481C17,68.051,27.263,63.937,37.505,59.807C42.358,63.596,47.365,67.194,52.218,70.983C49.936,74.628,47.19,78.015,43.958,80.844ZM54.36,68.144C49.538,64.52,44.655,60.994,39.905,57.277C42.951,53.127,46.286,49.116,50.282,45.843C52.925,44.149,56.157,43.679,58.903,42.151C65.418,38.899,69.863,32.931,74.106,27.232C68.665,41.356,62.857,55.538,54.36,68.144ZM54.36,68.144"/>
</g>
        <g id="Regular-L" transform="matrix(1.0,0.0,0.0,1.0,1385.6448778030438,1455.2848973342939)">  <path stroke-miterlimit="4" stroke-linecap="butt" stroke-width="1px" stroke-dasharray="none" fill-rule="nonzero" fill-opacity="1" version="1.1" fill="#000000" stroke-linejoin="miter" stroke-opacity="1" stroke="none" d="M126.84,94.034C119.427,75.315,113.273,56.116,106.191,37.273C103.062,29.251,100.001,21.161,95.737,13.655C94.044,10.96,92.423,7.997,89.645,6.273C88.944,5.827,88.154,5.638,87.374,5.653C86.073,5.678,84.78,6.26,83.786,7.099C80.059,10.052,77.849,14.347,75.371,18.301C70.993,25.642,66.378,33.329,59.058,38.099C55.62,40.525,51.118,40.789,47.804,43.39C43.271,46.808,40.189,51.655,36.472,55.858C35.626,56.869,34.315,57.272,33.168,57.819C22.08,62.342,10.986,66.854,0,71.603C9.303,78.799,19.214,85.201,28.703,92.149C31.305,91.633,33.917,90.565,36.601,91.039C40.855,92.371,43.349,96.45,45.3,100.177C49.265,108.303,52.13,116.882,55.341,125.318C60.71,124.936,65.542,122.169,69.692,118.916C77.684,112.443,83.77,104.08,90.471,96.357C93.682,92.98,96.955,88.959,101.777,88.019C106.65,86.842,111.869,88.587,115.483,91.943C120.552,96.475,125.044,101.715,130.97,105.184C130.175,101.261,128.265,97.74,126.84,94.034ZM43.958,80.844C39.281,83.611,34.315,85.887,29.451,88.303C21.821,83.193,14.388,77.777,6.892,72.481C17,68.051,27.263,63.937,37.505,59.807C42.358,63.596,47.365,67.194,52.218,70.983C49.936,74.628,47.19,78.015,43.958,80.844ZM54.36,68.144C49.538,64.52,44.655,60.994,39.905,57.277C42.951,53.127,46.286,49.116,50.282,45.843C52.925,44.149,56.157,43.679,58.903,42.151C65.418,38.899,69.863,32.931,74.106,27.232C68.665,41.356,62.857,55.538,54.36,68.144ZM54.36,68.144"/>
</g>
        <g id="Light-L" transform="matrix(1.0,0.0,0.0,1.0,1088.934877803044,1455.2848973342939)">  <path stroke-dasharray="none" stroke-width="1px" stroke-linejoin="miter" version="1.1" stroke="none" fill-opacity="1" stroke-miterlimit="4" fill-rule="nonzero" fill="#000000" stroke-linecap="butt" stroke-opacity="1" d="M126.84,94.034C119.427,75.315,113.273,56.116,106.191,37.273C103.062,29.251,100.001,21.161,95.737,13.655C94.044,10.96,92.423,7.997,89.645,6.273C88.944,5.827,88.154,5.638,87.374,5.653C86.073,5.678,84.78,6.26,83.786,7.099C80.059,10.052,77.849,14.347,75.371,18.301C70.993,25.642,66.378,33.329,59.058,38.099C55.62,40.525,51.118,40.789,47.804,43.39C43.271,46.808,40.189,51.655,36.472,55.858C35.626,56.869,34.315,57.272,33.168,57.819C22.08,62.342,10.986,66.854,0,71.603C9.303,78.799,19.214,85.201,28.703,92.149C31.305,91.633,33.917,90.565,36.601,91.039C40.855,92.371,43.349,96.45,45.3,100.177C49.265,108.303,52.13,116.882,55.341,125.318C60.71,124.936,65.542,122.169,69.692,118.916C77.684,112.443,83.77,104.08,90.471,96.357C93.682,92.98,96.955,88.959,101.777,88.019C106.65,86.842,111.869,88.587,115.483,91.943C120.552,96.475,125.044,101.715,130.97,105.184C130.175,101.261,128.265,97.74,126.84,94.034ZM43.958,80.844C39.281,83.611,34.315,85.887,29.451,88.303C21.821,83.193,14.388,77.777,6.892,72.481C17,68.051,27.263,63.937,37.505,59.807C42.358,63.596,47.365,67.194,52.218,70.983C49.936,74.628,47.19,78.015,43.958,80.844ZM54.36,68.144C49.538,64.52,44.655,60.994,39.905,57.277C42.951,53.127,46.286,49.116,50.282,45.843C52.925,44.149,56.157,43.679,58.903,42.151C65.418,38.899,69.863,32.931,74.106,27.232C68.665,41.356,62.857,55.538,54.36,68.144ZM54.36,68.144"/>
</g>
        <g id="Thin-L" transform="matrix(1.0,0.0,0.0,1.0,792.224877803044,1455.2848973342939)">  <path stroke-dasharray="none" stroke="none" fill-rule="nonzero" stroke-width="1px" stroke-linejoin="miter" version="1.1" stroke-opacity="1" fill-opacity="1" stroke-miterlimit="4" stroke-linecap="butt" fill="#000000" d="M126.84,94.034C119.427,75.315,113.273,56.116,106.191,37.273C103.062,29.251,100.001,21.161,95.737,13.655C94.044,10.96,92.423,7.997,89.645,6.273C88.944,5.827,88.154,5.638,87.374,5.653C86.073,5.678,84.78,6.26,83.786,7.099C80.059,10.052,77.849,14.347,75.371,18.301C70.993,25.642,66.378,33.329,59.058,38.099C55.62,40.525,51.118,40.789,47.804,43.39C43.271,46.808,40.189,51.655,36.472,55.858C35.626,56.869,34.315,57.272,33.168,57.819C22.08,62.342,10.986,66.854,0,71.603C9.303,78.799,19.214,85.201,28.703,92.149C31.305,91.633,33.917,90.565,36.601,91.039C40.855,92.371,43.349,96.45,45.3,100.177C49.265,108.303,52.13,116.882,55.341,125.318C60.71,124.936,65.542,122.169,69.692,118.916C77.684,112.443,83.77,104.08,90.471,96.357C93.682,92.98,96.955,88.959,101.777,88.019C106.65,86.842,111.869,88.587,115.483,91.943C120.552,96.475,125.044,101.715,130.97,105.184C130.175,101.261,128.265,97.74,126.84,94.034ZM43.958,80.844C39.281,83.611,34.315,85.887,29.451,88.303C21.821,83.193,14.388,77.777,6.892,72.481C17,68.051,27.263,63.937,37.505,59.807C42.358,63.596,47.365,67.194,52.218,70.983C49.936,74.628,47.19,78.015,43.958,80.844ZM54.36,68.144C49.538,64.52,44.655,60.994,39.905,57.277C42.951,53.127,46.286,49.116,50.282,45.843C52.925,44.149,56.157,43.679,58.903,42.151C65.418,38.899,69.863,32.931,74.106,27.232C68.665,41.356,62.857,55.538,54.36,68.144ZM54.36,68.144"/>
</g>
        <g id="Ultralight-L" transform="matrix(1.0,0.0,0.0,1.0,495.51487780304393,1455.2848973342939)">  <path stroke-linejoin="miter" stroke-opacity="1" stroke-dasharray="none" stroke-miterlimit="4" fill-rule="nonzero" fill="#000000" stroke-linecap="butt" stroke-width="1px" stroke="none" fill-opacity="1" version="1.1" d="M126.84,94.034C119.427,75.315,113.273,56.116,106.191,37.273C103.062,29.251,100.001,21.161,95.737,13.655C94.044,10.96,92.423,7.997,89.645,6.273C88.944,5.827,88.154,5.638,87.374,5.653C86.073,5.678,84.78,6.26,83.786,7.099C80.059,10.052,77.849,14.347,75.371,18.301C70.993,25.642,66.378,33.329,59.058,38.099C55.62,40.525,51.118,40.789,47.804,43.39C43.271,46.808,40.189,51.655,36.472,55.858C35.626,56.869,34.315,57.272,33.168,57.819C22.08,62.342,10.986,66.854,0,71.603C9.303,78.799,19.214,85.201,28.703,92.149C31.305,91.633,33.917,90.565,36.601,91.039C40.855,92.371,43.349,96.45,45.3,100.177C49.265,108.303,52.13,116.882,55.341,125.318C60.71,124.936,65.542,122.169,69.692,118.916C77.684,112.443,83.77,104.08,90.471,96.357C93.682,92.98,96.955,88.959,101.777,88.019C106.65,86.842,111.869,88.587,115.483,91.943C120.552,96.475,125.044,101.715,130.97,105.184C130.175,101.261,128.265,97.74,126.84,94.034ZM43.958,80.844C39.281,83.611,34.315,85.887,29.451,88.303C21.821,83.193,14.388,77.777,6.892,72.481C17,68.051,27.263,63.937,37.505,59.807C42.358,63.596,47.365,67.194,52.218,70.983C49.936,74.628,47.19,78.015,43.958,80.844ZM54.36,68.144C49.538,64.52,44.655,60.994,39.905,57.277C42.951,53.127,46.286,49.116,50.282,45.843C52.925,44.149,56.157,43.679,58.903,42.151C65.418,38.899,69.863,32.931,74.106,27.232C68.665,41.356,62.857,55.538,54.36,68.144ZM54.36,68.144"/>
</g>
        <g id="Black-M" transform="matrix(1.0,0.0,0.0,1.0,2883.9163393822046,1040.0063589134545)">  <path stroke-linecap="butt" stroke="none" stroke-dasharray="none" stroke-width="1px" stroke-opacity="1" stroke-miterlimit="4" fill-rule="nonzero" version="1.1" stroke-linejoin="miter" fill-opacity="1" fill="#000000" d="M98.326,72.894C92.579,58.384,87.809,43.501,82.318,28.894C79.893,22.675,77.52,16.404,74.215,10.585C72.902,8.496,71.645,6.199,69.492,4.863C68.949,4.517,68.337,4.371,67.732,4.382C66.723,4.402,65.721,4.853,64.95,5.503C62.061,7.792,60.348,11.121,58.427,14.187C55.034,19.878,51.456,25.836,45.781,29.534C43.116,31.415,39.626,31.619,37.057,33.636C33.544,36.285,31.155,40.043,28.273,43.301C27.617,44.085,26.6,44.397,25.712,44.821C17.116,48.327,8.516,51.824,0,55.506C7.211,61.085,14.895,66.047,22.25,71.434C24.267,71.033,26.292,70.205,28.373,70.573C31.671,71.606,33.604,74.767,35.116,77.657C38.19,83.955,40.411,90.607,42.9,97.146C47.062,96.849,50.808,94.704,54.025,92.183C60.22,87.165,64.938,80.682,70.133,74.695C72.622,72.078,75.159,68.96,78.897,68.232C82.675,67.32,86.72,68.672,89.522,71.274C93.452,74.787,96.933,78.849,101.527,81.538C100.911,78.497,99.43,75.768,98.326,72.894ZM34.076,62.67C30.45,64.815,26.6,66.579,22.831,68.452C16.916,64.49,11.153,60.292,5.342,56.187C13.178,52.753,21.134,49.563,29.074,46.362C32.835,49.299,36.717,52.089,40.479,55.026C38.71,57.851,36.581,60.476,34.076,62.67ZM42.14,52.825C38.402,50.016,34.616,47.282,30.934,44.401C33.296,41.184,35.881,38.074,38.978,35.537C41.027,34.224,43.532,33.86,45.661,32.676C50.712,30.154,54.157,25.528,57.447,21.11C53.229,32.059,48.727,43.052,42.14,52.825ZM42.14,52.825"/>
</g>
        <g id="Heavy-M" transform="matrix(1.0,0.0,0.0,1.0,2587.2063393822045,1040.0063589134545)">  <path stroke-dasharray="none" stroke="none" stroke-linecap="butt" stroke-width="1px" fill-rule="nonzero" fill-opacity="1" stroke-miterlimit="4" version="1.1" stroke-linejoin="miter" fill="#000000" stroke-opacity="1" d="M98.326,72.894C92.579,58.384,87.809,43.501,82.318,28.894C79.893,22.675,77.52,16.404,74.215,10.585C72.902,8.496,71.645,6.199,69.492,4.863C68.949,4.517,68.337,4.371,67.732,4.382C66.723,4.402,65.721,4.853,64.95,5.503C62.061,7.792,60.348,11.121,58.427,14.187C55.034,19.878,51.456,25.836,45.781,29.534C43.116,31.415,39.626,31.619,37.057,33.636C33.544,36.285,31.155,40.043,28.273,43.301C27.617,44.085,26.6,44.397,25.712,44.821C17.116,48.327,8.516,51.824,0,55.506C7.211,61.085,14.895,66.047,22.25,71.434C24.267,71.033,26.292,70.205,28.373,70.573C31.671,71.606,33.604,74.767,35.116,77.657C38.19,83.955,40.411,90.607,42.9,97.146C47.062,96.849,50.808,94.704,54.025,92.183C60.22,87.165,64.938,80.682,70.133,74.695C72.622,72.078,75.159,68.96,78.897,68.232C82.675,67.32,86.72,68.672,89.522,71.274C93.452,74.787,96.933,78.849,101.527,81.538C100.911,78.497,99.43,75.768,98.326,72.894ZM34.076,62.67C30.45,64.815,26.6,66.579,22.831,68.452C16.916,64.49,11.153,60.292,5.342,56.187C13.178,52.753,21.134,49.563,29.074,46.362C32.835,49.299,36.717,52.089,40.479,55.026C38.71,57.851,36.581,60.476,34.076,62.67ZM42.14,52.825C38.402,50.016,34.616,47.282,30.934,44.401C33.296,41.184,35.881,38.074,38.978,35.537C41.027,34.224,43.532,33.86,45.661,32.676C50.712,30.154,54.157,25.528,57.447,21.11C53.229,32.059,48.727,43.052,42.14,52.825ZM42.14,52.825"/>
</g>
        <g id="Bold-M" transform="matrix(1.0,0.0,0.0,1.0,2290.4963393822045,1040.0063589134545)">  <path stroke-opacity="1" stroke-dasharray="none" stroke-linecap="butt" version="1.1" stroke-linejoin="miter" fill-opacity="1" fill-rule="nonzero" stroke-width="1px" fill="#000000" stroke-miterlimit="4" stroke="none" d="M98.326,72.894C92.579,58.384,87.809,43.501,82.318,28.894C79.893,22.675,77.52,16.404,74.215,10.585C72.902,8.496,71.645,6.199,69.492,4.863C68.949,4.517,68.337,4.371,67.732,4.382C66.723,4.402,65.721,4.853,64.95,5.503C62.061,7.792,60.348,11.121,58.427,14.187C55.034,19.878,51.456,25.836,45.781,29.534C43.116,31.415,39.626,31.619,37.057,33.636C33.544,36.285,31.155,40.043,28.273,43.301C27.617,44.085,26.6,44.397,25.712,44.821C17.116,48.327,8.516,51.824,0,55.506C7.211,61.085,14.895,66.047,22.25,71.434C24.267,71.033,26.292,70.205,28.373,70.573C31.671,71.606,33.604,74.767,35.116,77.657C38.19,83.955,40.411,90.607,42.9,97.146C47.062,96.849,50.808,94.704,54.025,92.183C60.22,87.165,64.938,80.682,70.133,74.695C72.622,72.078,75.159,68.96,78.897,68.232C82.675,67.32,86.72,68.672,89.522,71.274C93.452,74.787,96.933,78.849,101.527,81.538C100.911,78.497,99.43,75.768,98.326,72.894ZM34.076,62.67C30.45,64.815,26.6,66.579,22.831,68.452C16.916,64.49,11.153,60.292,5.342,56.187C13.178,52.753,21.134,49.563,29.074,46.362C32.835,49.299,36.717,52.089,40.479,55.026C38.71,57.851,36.581,60.476,34.076,62.67ZM42.14,52.825C38.402,50.016,34.616,47.282,30.934,44.401C33.296,41.184,35.881,38.074,38.978,35.537C41.027,34.224,43.532,33.86,45.661,32.676C50.712,30.154,54.157,25.528,57.447,21.11C53.229,32.059,48.727,43.052,42.14,52.825ZM42.14,52.825"/>
</g>
        <g id="Semibold-M" transform="matrix(1.0,0.0,0.0,1.0,1993.7863393822045,1040.0063589134545)">  <path fill="#000000" stroke-opacity="1" stroke-miterlimit="4" stroke-width="1px" fill-opacity="1" stroke-dasharray="none" stroke-linecap="butt" stroke="none" version="1.1" stroke-linejoin="miter" fill-rule="nonzero" d="M98.326,72.894C92.579,58.384,87.809,43.501,82.318,28.894C79.893,22.675,77.52,16.404,74.215,10.585C72.902,8.496,71.645,6.199,69.492,4.863C68.949,4.517,68.337,4.371,67.732,4.382C66.723,4.402,65.721,4.853,64.95,5.503C62.061,7.792,60.348,11.121,58.427,14.187C55.034,19.878,51.456,25.836,45.781,29.534C43.116,31.415,39.626,31.619,37.057,33.636C33.544,36.285,31.155,40.043,28.273,43.301C27.617,44.085,26.6,44.397,25.712,44.821C17.116,48.327,8.516,51.824,0,55.506C7.211,61.085,14.895,66.047,22.25,71.434C24.267,71.033,26.292,70.205,28.373,70.573C31.671,71.606,33.604,74.767,35.116,77.657C38.19,83.955,40.411,90.607,42.9,97.146C47.062,96.849,50.808,94.704,54.025,92.183C60.22,87.165,64.938,80.682,70.133,74.695C72.622,72.078,75.159,68.96,78.897,68.232C82.675,67.32,86.72,68.672,89.522,71.274C93.452,74.787,96.933,78.849,101.527,81.538C100.911,78.497,99.43,75.768,98.326,72.894ZM34.076,62.67C30.45,64.815,26.6,66.579,22.831,68.452C16.916,64.49,11.153,60.292,5.342,56.187C13.178,52.753,21.134,49.563,29.074,46.362C32.835,49.299,36.717,52.089,40.479,55.026C38.71,57.851,36.581,60.476,34.076,62.67ZM42.14,52.825C38.402,50.016,34.616,47.282,30.934,44.401C33.296,41.184,35.881,38.074,38.978,35.537C41.027,34.224,43.532,33.86,45.661,32.676C50.712,30.154,54.157,25.528,57.447,21.11C53.229,32.059,48.727,43.052,42.14,52.825ZM42.14,52.825"/>
</g>
        <g id="Medium-M" transform="matrix(1.0,0.0,0.0,1.0,1697.0763393822044,1040.0063589134545)">  <path stroke="none" fill-opacity="1" stroke-opacity="1" stroke-linecap="butt" fill="#000000" stroke-miterlimit="4" fill-rule="nonzero" stroke-width="1px" stroke-linejoin="miter" stroke-dasharray="none" version="1.1" d="M98.326,72.894C92.579,58.384,87.809,43.501,82.318,28.894C79.893,22.675,77.52,16.404,74.215,10.585C72.902,8.496,71.645,6.199,69.492,4.863C68.949,4.517,68.337,4.371,67.732,4.382C66.723,4.402,65.721,4.853,64.95,5.503C62.061,7.792,60.348,11.121,58.427,14.187C55.034,19.878,51.456,25.836,45.781,29.534C43.116,31.415,39.626,31.619,37.057,33.636C33.544,36.285,31.155,40.043,28.273,43.301C27.617,44.085,26.6,44.397,25.712,44.821C17.116,48.327,8.516,51.824,0,55.506C7.211,61.085,14.895,66.047,22.25,71.434C24.267,71.033,26.292,70.205,28.373,70.573C31.671,71.606,33.604,74.767,35.116,77.657C38.19,83.955,40.411,90.607,42.9,97.146C47.062,96.849,50.808,94.704,54.025,92.183C60.22,87.165,64.938,80.682,70.133,74.695C72.622,72.078,75.159,68.96,78.897,68.232C82.675,67.32,86.72,68.672,89.522,71.274C93.452,74.787,96.933,78.849,101.527,81.538C100.911,78.497,99.43,75.768,98.326,72.894ZM34.076,62.67C30.45,64.815,26.6,66.579,22.831,68.452C16.916,64.49,11.153,60.292,5.342,56.187C13.178,52.753,21.134,49.563,29.074,46.362C32.835,49.299,36.717,52.089,40.479,55.026C38.71,57.851,36.581,60.476,34.076,62.67ZM42.14,52.825C38.402,50.016,34.616,47.282,30.934,44.401C33.296,41.184,35.881,38.074,38.978,35.537C41.027,34.224,43.532,33.86,45.661,32.676C50.712,30.154,54.157,25.528,57.447,21.11C53.229,32.059,48.727,43.052,42.14,52.825ZM42.14,52.825"/>
</g>
        <g id="Regular-M" transform="matrix(1.0,0.0,0.0,1.0,1400.3663393822044,1040.0063589134545)">  <path stroke-miterlimit="4" stroke-linecap="butt" stroke-width="1px" stroke-dasharray="none" fill-rule="nonzero" fill-opacity="1" version="1.1" fill="#000000" stroke-linejoin="miter" stroke-opacity="1" stroke="none" d="M98.326,72.894C92.579,58.384,87.809,43.501,82.318,28.894C79.893,22.675,77.52,16.404,74.215,10.585C72.902,8.496,71.645,6.199,69.492,4.863C68.949,4.517,68.337,4.371,67.732,4.382C66.723,4.402,65.721,4.853,64.95,5.503C62.061,7.792,60.348,11.121,58.427,14.187C55.034,19.878,51.456,25.836,45.781,29.534C43.116,31.415,39.626,31.619,37.057,33.636C33.544,36.285,31.155,40.043,28.273,43.301C27.617,44.085,26.6,44.397,25.712,44.821C17.116,48.327,8.516,51.824,0,55.506C7.211,61.085,14.895,66.047,22.25,71.434C24.267,71.033,26.292,70.205,28.373,70.573C31.671,71.606,33.604,74.767,35.116,77.657C38.19,83.955,40.411,90.607,42.9,97.146C47.062,96.849,50.808,94.704,54.025,92.183C60.22,87.165,64.938,80.682,70.133,74.695C72.622,72.078,75.159,68.96,78.897,68.232C82.675,67.32,86.72,68.672,89.522,71.274C93.452,74.787,96.933,78.849,101.527,81.538C100.911,78.497,99.43,75.768,98.326,72.894ZM34.076,62.67C30.45,64.815,26.6,66.579,22.831,68.452C16.916,64.49,11.153,60.292,5.342,56.187C13.178,52.753,21.134,49.563,29.074,46.362C32.835,49.299,36.717,52.089,40.479,55.026C38.71,57.851,36.581,60.476,34.076,62.67ZM42.14,52.825C38.402,50.016,34.616,47.282,30.934,44.401C33.296,41.184,35.881,38.074,38.978,35.537C41.027,34.224,43.532,33.86,45.661,32.676C50.712,30.154,54.157,25.528,57.447,21.11C53.229,32.059,48.727,43.052,42.14,52.825ZM42.14,52.825"/>
</g>
        <g id="Light-M" transform="matrix(1.0,0.0,0.0,1.0,1103.6563393822046,1040.0063589134545)">  <path stroke-dasharray="none" stroke-width="1px" stroke-linejoin="miter" version="1.1" stroke="none" fill-opacity="1" stroke-miterlimit="4" fill-rule="nonzero" fill="#000000" stroke-linecap="butt" stroke-opacity="1" d="M98.326,72.894C92.579,58.384,87.809,43.501,82.318,28.894C79.893,22.675,77.52,16.404,74.215,10.585C72.902,8.496,71.645,6.199,69.492,4.863C68.949,4.517,68.337,4.371,67.732,4.382C66.723,4.402,65.721,4.853,64.95,5.503C62.061,7.792,60.348,11.121,58.427,14.187C55.034,19.878,51.456,25.836,45.781,29.534C43.116,31.415,39.626,31.619,37.057,33.636C33.544,36.285,31.155,40.043,28.273,43.301C27.617,44.085,26.6,44.397,25.712,44.821C17.116,48.327,8.516,51.824,0,55.506C7.211,61.085,14.895,66.047,22.25,71.434C24.267,71.033,26.292,70.205,28.373,70.573C31.671,71.606,33.604,74.767,35.116,77.657C38.19,83.955,40.411,90.607,42.9,97.146C47.062,96.849,50.808,94.704,54.025,92.183C60.22,87.165,64.938,80.682,70.133,74.695C72.622,72.078,75.159,68.96,78.897,68.232C82.675,67.32,86.72,68.672,89.522,71.274C93.452,74.787,96.933,78.849,101.527,81.538C100.911,78.497,99.43,75.768,98.326,72.894ZM34.076,62.67C30.45,64.815,26.6,66.579,22.831,68.452C16.916,64.49,11.153,60.292,5.342,56.187C13.178,52.753,21.134,49.563,29.074,46.362C32.835,49.299,36.717,52.089,40.479,55.026C38.71,57.851,36.581,60.476,34.076,62.67ZM42.14,52.825C38.402,50.016,34.616,47.282,30.934,44.401C33.296,41.184,35.881,38.074,38.978,35.537C41.027,34.224,43.532,33.86,45.661,32.676C50.712,30.154,54.157,25.528,57.447,21.11C53.229,32.059,48.727,43.052,42.14,52.825ZM42.14,52.825"/>
</g>
        <g id="Thin-M" transform="matrix(1.0,0.0,0.0,1.0,806.9463393822047,1040.0063589134545)">  <path stroke-dasharray="none" stroke="none" fill-rule="nonzero" stroke-width="1px" stroke-linejoin="miter" version="1.1" stroke-opacity="1" fill-opacity="1" stroke-miterlimit="4" stroke-linecap="butt" fill="#000000" d="M98.326,72.894C92.579,58.384,87.809,43.501,82.318,28.894C79.893,22.675,77.52,16.404,74.215,10.585C72.902,8.496,71.645,6.199,69.492,4.863C68.949,4.517,68.337,4.371,67.732,4.382C66.723,4.402,65.721,4.853,64.95,5.503C62.061,7.792,60.348,11.121,58.427,14.187C55.034,19.878,51.456,25.836,45.781,29.534C43.116,31.415,39.626,31.619,37.057,33.636C33.544,36.285,31.155,40.043,28.273,43.301C27.617,44.085,26.6,44.397,25.712,44.821C17.116,48.327,8.516,51.824,0,55.506C7.211,61.085,14.895,66.047,22.25,71.434C24.267,71.033,26.292,70.205,28.373,70.573C31.671,71.606,33.604,74.767,35.116,77.657C38.19,83.955,40.411,90.607,42.9,97.146C47.062,96.849,50.808,94.704,54.025,92.183C60.22,87.165,64.938,80.682,70.133,74.695C72.622,72.078,75.159,68.96,78.897,68.232C82.675,67.32,86.72,68.672,89.522,71.274C93.452,74.787,96.933,78.849,101.527,81.538C100.911,78.497,99.43,75.768,98.326,72.894ZM34.076,62.67C30.45,64.815,26.6,66.579,22.831,68.452C16.916,64.49,11.153,60.292,5.342,56.187C13.178,52.753,21.134,49.563,29.074,46.362C32.835,49.299,36.717,52.089,40.479,55.026C38.71,57.851,36.581,60.476,34.076,62.67ZM42.14,52.825C38.402,50.016,34.616,47.282,30.934,44.401C33.296,41.184,35.881,38.074,38.978,35.537C41.027,34.224,43.532,33.86,45.661,32.676C50.712,30.154,54.157,25.528,57.447,21.11C53.229,32.059,48.727,43.052,42.14,52.825ZM42.14,52.825"/>
</g>
        <g id="Ultralight-M" transform="matrix(1.0,0.0,0.0,1.0,510.2363393822046,1040.0063589134545)">  <path stroke-linejoin="miter" stroke-opacity="1" stroke-dasharray="none" stroke-miterlimit="4" fill-rule="nonzero" fill="#000000" stroke-linecap="butt" stroke-width="1px" stroke="none" fill-opacity="1" version="1.1" d="M98.326,72.894C92.579,58.384,87.809,43.501,82.318,28.894C79.893,22.675,77.52,16.404,74.215,10.585C72.902,8.496,71.645,6.199,69.492,4.863C68.949,4.517,68.337,4.371,67.732,4.382C66.723,4.402,65.721,4.853,64.95,5.503C62.061,7.792,60.348,11.121,58.427,14.187C55.034,19.878,51.456,25.836,45.781,29.534C43.116,31.415,39.626,31.619,37.057,33.636C33.544,36.285,31.155,40.043,28.273,43.301C27.617,44.085,26.6,44.397,25.712,44.821C17.116,48.327,8.516,51.824,0,55.506C7.211,61.085,14.895,66.047,22.25,71.434C24.267,71.033,26.292,70.205,28.373,70.573C31.671,71.606,33.604,74.767,35.116,77.657C38.19,83.955,40.411,90.607,42.9,97.146C47.062,96.849,50.808,94.704,54.025,92.183C60.22,87.165,64.938,80.682,70.133,74.695C72.622,72.078,75.159,68.96,78.897,68.232C82.675,67.32,86.72,68.672,89.522,71.274C93.452,74.787,96.933,78.849,101.527,81.538C100.911,78.497,99.43,75.768,98.326,72.894ZM34.076,62.67C30.45,64.815,26.6,66.579,22.831,68.452C16.916,64.49,11.153,60.292,5.342,56.187C13.178,52.753,21.134,49.563,29.074,46.362C32.835,49.299,36.717,52.089,40.479,55.026C38.71,57.851,36.581,60.476,34.076,62.67ZM42.14,52.825C38.402,50.016,34.616,47.282,30.934,44.401C33.296,41.184,35.881,38.074,38.978,35.537C41.027,34.224,43.532,33.86,45.661,32.676C50.712,30.154,54.157,25.528,57.447,21.11C53.229,32.059,48.727,43.052,42.14,52.825ZM42.14,52.825"/>
</g>
        <g id="Black-S" transform="matrix(1.0,0.0,0.0,1.0,2894.932053736266,621.0220732675162)">  <path stroke-linecap="butt" stroke="none" stroke-dasharray="none" stroke-width="1px" stroke-opacity="1" stroke-miterlimit="4" fill-rule="nonzero" version="1.1" stroke-linejoin="miter" fill-opacity="1" fill="#000000" d="M76.989,57.076C72.489,45.714,68.754,34.061,64.455,22.624C62.556,17.754,60.698,12.844,58.11,8.288C57.082,6.653,56.098,4.854,54.413,3.807C53.987,3.537,53.508,3.422,53.034,3.431C52.244,3.446,51.459,3.8,50.856,4.309C48.594,6.101,47.253,8.708,45.749,11.108C43.091,15.564,40.29,20.23,35.847,23.125C33.76,24.598,31.027,24.758,29.016,26.337C26.265,28.411,24.394,31.354,22.138,33.904C21.624,34.518,20.828,34.763,20.132,35.095C13.402,37.84,6.668,40.579,0,43.461C5.646,47.829,11.663,51.715,17.422,55.933C19.001,55.619,20.587,54.971,22.216,55.259C24.798,56.067,26.312,58.543,27.496,60.805C29.903,65.737,31.642,70.945,33.591,76.065C36.849,75.833,39.782,74.154,42.302,72.179C47.152,68.25,50.847,63.174,54.914,58.486C56.863,56.437,58.85,53.996,61.776,53.426C64.734,52.711,67.902,53.77,70.096,55.807C73.173,58.558,75.899,61.739,79.496,63.844C79.013,61.463,77.854,59.326,76.989,57.076ZM26.681,49.07C23.842,50.75,20.828,52.132,17.876,53.598C13.245,50.496,8.733,47.209,4.183,43.994C10.318,41.306,16.548,38.808,22.765,36.301C25.71,38.601,28.75,40.785,31.695,43.085C30.31,45.298,28.643,47.353,26.681,49.07ZM32.995,41.362C30.069,39.162,27.104,37.022,24.222,34.766C26.07,32.247,28.095,29.812,30.52,27.825C32.124,26.798,34.086,26.512,35.753,25.585C39.707,23.611,42.405,19.989,44.981,16.529C41.678,25.102,38.153,33.71,32.995,41.362ZM32.995,41.362"/>
</g>
        <g id="Heavy-S" transform="matrix(1.0,0.0,0.0,1.0,2598.222053736266,621.0220732675162)">  <path stroke-dasharray="none" stroke="none" stroke-linecap="butt" stroke-width="1px" fill-rule="nonzero" fill-opacity="1" stroke-miterlimit="4" version="1.1" stroke-linejoin="miter" fill="#000000" stroke-opacity="1" d="M76.989,57.076C72.489,45.714,68.754,34.061,64.455,22.624C62.556,17.754,60.698,12.844,58.11,8.288C57.082,6.653,56.098,4.854,54.413,3.807C53.987,3.537,53.508,3.422,53.034,3.431C52.244,3.446,51.459,3.8,50.856,4.309C48.594,6.101,47.253,8.708,45.749,11.108C43.091,15.564,40.29,20.23,35.847,23.125C33.76,24.598,31.027,24.758,29.016,26.337C26.265,28.411,24.394,31.354,22.138,33.904C21.624,34.518,20.828,34.763,20.132,35.095C13.402,37.84,6.668,40.579,0,43.461C5.646,47.829,11.663,51.715,17.422,55.933C19.001,55.619,20.587,54.971,22.216,55.259C24.798,56.067,26.312,58.543,27.496,60.805C29.903,65.737,31.642,70.945,33.591,76.065C36.849,75.833,39.782,74.154,42.302,72.179C47.152,68.25,50.847,63.174,54.914,58.486C56.863,56.437,58.85,53.996,61.776,53.426C64.734,52.711,67.902,53.77,70.096,55.807C73.173,58.558,75.899,61.739,79.496,63.844C79.013,61.463,77.854,59.326,76.989,57.076ZM26.681,49.07C23.842,50.75,20.828,52.132,17.876,53.598C13.245,50.496,8.733,47.209,4.183,43.994C10.318,41.306,16.548,38.808,22.765,36.301C25.71,38.601,28.75,40.785,31.695,43.085C30.31,45.298,28.643,47.353,26.681,49.07ZM32.995,41.362C30.069,39.162,27.104,37.022,24.222,34.766C26.07,32.247,28.095,29.812,30.52,27.825C32.124,26.798,34.086,26.512,35.753,25.585C39.707,23.611,42.405,19.989,44.981,16.529C41.678,25.102,38.153,33.71,32.995,41.362ZM32.995,41.362"/>
</g>
        <g id="Bold-S" transform="matrix(1.0,0.0,0.0,1.0,2301.512053736266,621.0220732675162)">  <path stroke-opacity="1" stroke-dasharray="none" stroke-linecap="butt" version="1.1" stroke-linejoin="miter" fill-opacity="1" fill-rule="nonzero" stroke-width="1px" fill="#000000" stroke-miterlimit="4" stroke="none" d="M76.989,57.076C72.489,45.714,68.754,34.061,64.455,22.624C62.556,17.754,60.698,12.844,58.11,8.288C57.082,6.653,56.098,4.854,54.413,3.807C53.987,3.537,53.508,3.422,53.034,3.431C52.244,3.446,51.459,3.8,50.856,4.309C48.594,6.101,47.253,8.708,45.749,11.108C43.091,15.564,40.29,20.23,35.847,23.125C33.76,24.598,31.027,24.758,29.016,26.337C26.265,28.411,24.394,31.354,22.138,33.904C21.624,34.518,20.828,34.763,20.132,35.095C13.402,37.84,6.668,40.579,0,43.461C5.646,47.829,11.663,51.715,17.422,55.933C19.001,55.619,20.587,54.971,22.216,55.259C24.798,56.067,26.312,58.543,27.496,60.805C29.903,65.737,31.642,70.945,33.591,76.065C36.849,75.833,39.782,74.154,42.302,72.179C47.152,68.25,50.847,63.174,54.914,58.486C56.863,56.437,58.85,53.996,61.776,53.426C64.734,52.711,67.902,53.77,70.096,55.807C73.173,58.558,75.899,61.739,79.496,63.844C79.013,61.463,77.854,59.326,76.989,57.076ZM26.681,49.07C23.842,50.75,20.828,52.132,17.876,53.598C13.245,50.496,8.733,47.209,4.183,43.994C10.318,41.306,16.548,38.808,22.765,36.301C25.71,38.601,28.75,40.785,31.695,43.085C30.31,45.298,28.643,47.353,26.681,49.07ZM32.995,41.362C30.069,39.162,27.104,37.022,24.222,34.766C26.07,32.247,28.095,29.812,30.52,27.825C32.124,26.798,34.086,26.512,35.753,25.585C39.707,23.611,42.405,19.989,44.981,16.529C41.678,25.102,38.153,33.71,32.995,41.362ZM32.995,41.362"/>
</g>
        <g id="Semibold-S" transform="matrix(1.0,0.0,0.0,1.0,2004.802053736266,621.0220732675162)">  <path fill="#000000" stroke-opacity="1" stroke-miterlimit="4" stroke-width="1px" fill-opacity="1" stroke-dasharray="none" stroke-linecap="butt" stroke="none" version="1.1" stroke-linejoin="miter" fill-rule="nonzero" d="M76.989,57.076C72.489,45.714,68.754,34.061,64.455,22.624C62.556,17.754,60.698,12.844,58.11,8.288C57.082,6.653,56.098,4.854,54.413,3.807C53.987,3.537,53.508,3.422,53.034,3.431C52.244,3.446,51.459,3.8,50.856,4.309C48.594,6.101,47.253,8.708,45.749,11.108C43.091,15.564,40.29,20.23,35.847,23.125C33.76,24.598,31.027,24.758,29.016,26.337C26.265,28.411,24.394,31.354,22.138,33.904C21.624,34.518,20.828,34.763,20.132,35.095C13.402,37.84,6.668,40.579,0,43.461C5.646,47.829,11.663,51.715,17.422,55.933C19.001,55.619,20.587,54.971,22.216,55.259C24.798,56.067,26.312,58.543,27.496,60.805C29.903,65.737,31.642,70.945,33.591,76.065C36.849,75.833,39.782,74.154,42.302,72.179C47.152,68.25,50.847,63.174,54.914,58.486C56.863,56.437,58.85,53.996,61.776,53.426C64.734,52.711,67.902,53.77,70.096,55.807C73.173,58.558,75.899,61.739,79.496,63.844C79.013,61.463,77.854,59.326,76.989,57.076ZM26.681,49.07C23.842,50.75,20.828,52.132,17.876,53.598C13.245,50.496,8.733,47.209,4.183,43.994C10.318,41.306,16.548,38.808,22.765,36.301C25.71,38.601,28.75,40.785,31.695,43.085C30.31,45.298,28.643,47.353,26.681,49.07ZM32.995,41.362C30.069,39.162,27.104,37.022,24.222,34.766C26.07,32.247,28.095,29.812,30.52,27.825C32.124,26.798,34.086,26.512,35.753,25.585C39.707,23.611,42.405,19.989,44.981,16.529C41.678,25.102,38.153,33.71,32.995,41.362ZM32.995,41.362"/>
</g>
        <g id="Medium-S" transform="matrix(1.0,0.0,0.0,1.0,1708.092053736266,621.0220732675162)">  <path stroke="none" fill-opacity="1" stroke-opacity="1" stroke-linecap="butt" fill="#000000" stroke-miterlimit="4" fill-rule="nonzero" stroke-width="1px" stroke-linejoin="miter" stroke-dasharray="none" version="1.1" d="M76.989,57.076C72.489,45.714,68.754,34.061,64.455,22.624C62.556,17.754,60.698,12.844,58.11,8.288C57.082,6.653,56.098,4.854,54.413,3.807C53.987,3.537,53.508,3.422,53.034,3.431C52.244,3.446,51.459,3.8,50.856,4.309C48.594,6.101,47.253,8.708,45.749,11.108C43.091,15.564,40.29,20.23,35.847,23.125C33.76,24.598,31.027,24.758,29.016,26.337C26.265,28.411,24.394,31.354,22.138,33.904C21.624,34.518,20.828,34.763,20.132,35.095C13.402,37.84,6.668,40.579,0,43.461C5.646,47.829,11.663,51.715,17.422,55.933C19.001,55.619,20.587,54.971,22.216,55.259C24.798,56.067,26.312,58.543,27.496,60.805C29.903,65.737,31.642,70.945,33.591,76.065C36.849,75.833,39.782,74.154,42.302,72.179C47.152,68.25,50.847,63.174,54.914,58.486C56.863,56.437,58.85,53.996,61.776,53.426C64.734,52.711,67.902,53.77,70.096,55.807C73.173,58.558,75.899,61.739,79.496,63.844C79.013,61.463,77.854,59.326,76.989,57.076ZM26.681,49.07C23.842,50.75,20.828,52.132,17.876,53.598C13.245,50.496,8.733,47.209,4.183,43.994C10.318,41.306,16.548,38.808,22.765,36.301C25.71,38.601,28.75,40.785,31.695,43.085C30.31,45.298,28.643,47.353,26.681,49.07ZM32.995,41.362C30.069,39.162,27.104,37.022,24.222,34.766C26.07,32.247,28.095,29.812,30.52,27.825C32.124,26.798,34.086,26.512,35.753,25.585C39.707,23.611,42.405,19.989,44.981,16.529C41.678,25.102,38.153,33.71,32.995,41.362ZM32.995,41.362"/>
</g>
        <g id="Regular-S" transform="matrix(1.0,0.0,0.0,1.0,1411.382053736266,621.0220732675162)">  <path stroke-miterlimit="4" stroke-linecap="butt" stroke-width="1px" stroke-dasharray="none" fill-rule="nonzero" fill-opacity="1" version="1.1" fill="#000000" stroke-linejoin="miter" stroke-opacity="1" stroke="none" d="M76.989,57.076C72.489,45.714,68.754,34.061,64.455,22.624C62.556,17.754,60.698,12.844,58.11,8.288C57.082,6.653,56.098,4.854,54.413,3.807C53.987,3.537,53.508,3.422,53.034,3.431C52.244,3.446,51.459,3.8,50.856,4.309C48.594,6.101,47.253,8.708,45.749,11.108C43.091,15.564,40.29,20.23,35.847,23.125C33.76,24.598,31.027,24.758,29.016,26.337C26.265,28.411,24.394,31.354,22.138,33.904C21.624,34.518,20.828,34.763,20.132,35.095C13.402,37.84,6.668,40.579,0,43.461C5.646,47.829,11.663,51.715,17.422,55.933C19.001,55.619,20.587,54.971,22.216,55.259C24.798,56.067,26.312,58.543,27.496,60.805C29.903,65.737,31.642,70.945,33.591,76.065C36.849,75.833,39.782,74.154,42.302,72.179C47.152,68.25,50.847,63.174,54.914,58.486C56.863,56.437,58.85,53.996,61.776,53.426C64.734,52.711,67.902,53.77,70.096,55.807C73.173,58.558,75.899,61.739,79.496,63.844C79.013,61.463,77.854,59.326,76.989,57.076ZM26.681,49.07C23.842,50.75,20.828,52.132,17.876,53.598C13.245,50.496,8.733,47.209,4.183,43.994C10.318,41.306,16.548,38.808,22.765,36.301C25.71,38.601,28.75,40.785,31.695,43.085C30.31,45.298,28.643,47.353,26.681,49.07ZM32.995,41.362C30.069,39.162,27.104,37.022,24.222,34.766C26.07,32.247,28.095,29.812,30.52,27.825C32.124,26.798,34.086,26.512,35.753,25.585C39.707,23.611,42.405,19.989,44.981,16.529C41.678,25.102,38.153,33.71,32.995,41.362ZM32.995,41.362"/>
</g>
        <g id="Light-S" transform="matrix(1.0,0.0,0.0,1.0,1114.6720537362662,621.0220732675162)">  <path stroke-dasharray="none" stroke-width="1px" stroke-linejoin="miter" version="1.1" stroke="none" fill-opacity="1" stroke-miterlimit="4" fill-rule="nonzero" fill="#000000" stroke-linecap="butt" stroke-opacity="1" d="M76.989,57.076C72.489,45.714,68.754,34.061,64.455,22.624C62.556,17.754,60.698,12.844,58.11,8.288C57.082,6.653,56.098,4.854,54.413,3.807C53.987,3.537,53.508,3.422,53.034,3.431C52.244,3.446,51.459,3.8,50.856,4.309C48.594,6.101,47.253,8.708,45.749,11.108C43.091,15.564,40.29,20.23,35.847,23.125C33.76,24.598,31.027,24.758,29.016,26.337C26.265,28.411,24.394,31.354,22.138,33.904C21.624,34.518,20.828,34.763,20.132,35.095C13.402,37.84,6.668,40.579,0,43.461C5.646,47.829,11.663,51.715,17.422,55.933C19.001,55.619,20.587,54.971,22.216,55.259C24.798,56.067,26.312,58.543,27.496,60.805C29.903,65.737,31.642,70.945,33.591,76.065C36.849,75.833,39.782,74.154,42.302,72.179C47.152,68.25,50.847,63.174,54.914,58.486C56.863,56.437,58.85,53.996,61.776,53.426C64.734,52.711,67.902,53.77,70.096,55.807C73.173,58.558,75.899,61.739,79.496,63.844C79.013,61.463,77.854,59.326,76.989,57.076ZM26.681,49.07C23.842,50.75,20.828,52.132,17.876,53.598C13.245,50.496,8.733,47.209,4.183,43.994C10.318,41.306,16.548,38.808,22.765,36.301C25.71,38.601,28.75,40.785,31.695,43.085C30.31,45.298,28.643,47.353,26.681,49.07ZM32.995,41.362C30.069,39.162,27.104,37.022,24.222,34.766C26.07,32.247,28.095,29.812,30.52,27.825C32.124,26.798,34.086,26.512,35.753,25.585C39.707,23.611,42.405,19.989,44.981,16.529C41.678,25.102,38.153,33.71,32.995,41.362ZM32.995,41.362"/>
</g>
        <g id="Thin-S" transform="matrix(1.0,0.0,0.0,1.0,817.9620537362663,621.0220732675162)">  <path stroke-dasharray="none" stroke="none" fill-rule="nonzero" stroke-width="1px" stroke-linejoin="miter" version="1.1" stroke-opacity="1" fill-opacity="1" stroke-miterlimit="4" stroke-linecap="butt" fill="#000000" d="M76.989,57.076C72.489,45.714,68.754,34.061,64.455,22.624C62.556,17.754,60.698,12.844,58.11,8.288C57.082,6.653,56.098,4.854,54.413,3.807C53.987,3.537,53.508,3.422,53.034,3.431C52.244,3.446,51.459,3.8,50.856,4.309C48.594,6.101,47.253,8.708,45.749,11.108C43.091,15.564,40.29,20.23,35.847,23.125C33.76,24.598,31.027,24.758,29.016,26.337C26.265,28.411,24.394,31.354,22.138,33.904C21.624,34.518,20.828,34.763,20.132,35.095C13.402,37.84,6.668,40.579,0,43.461C5.646,47.829,11.663,51.715,17.422,55.933C19.001,55.619,20.587,54.971,22.216,55.259C24.798,56.067,26.312,58.543,27.496,60.805C29.903,65.737,31.642,70.945,33.591,76.065C36.849,75.833,39.782,74.154,42.302,72.179C47.152,68.25,50.847,63.174,54.914,58.486C56.863,56.437,58.85,53.996,61.776,53.426C64.734,52.711,67.902,53.77,70.096,55.807C73.173,58.558,75.899,61.739,79.496,63.844C79.013,61.463,77.854,59.326,76.989,57.076ZM26.681,49.07C23.842,50.75,20.828,52.132,17.876,53.598C13.245,50.496,8.733,47.209,4.183,43.994C10.318,41.306,16.548,38.808,22.765,36.301C25.71,38.601,28.75,40.785,31.695,43.085C30.31,45.298,28.643,47.353,26.681,49.07ZM32.995,41.362C30.069,39.162,27.104,37.022,24.222,34.766C26.07,32.247,28.095,29.812,30.52,27.825C32.124,26.798,34.086,26.512,35.753,25.585C39.707,23.611,42.405,19.989,44.981,16.529C41.678,25.102,38.153,33.71,32.995,41.362ZM32.995,41.362"/>
</g>
        <g id="Ultralight-S" transform="matrix(1.0,0.0,0.0,1.0,521.2520537362662,621.0220732675162)">  <path stroke-linejoin="miter" stroke-opacity="1" stroke-dasharray="none" stroke-miterlimit="4" fill-rule="nonzero" fill="#000000" stroke-linecap="butt" stroke-width="1px" stroke="none" fill-opacity="1" version="1.1" d="M76.989,57.076C72.489,45.714,68.754,34.061,64.455,22.624C62.556,17.754,60.698,12.844,58.11,8.288C57.082,6.653,56.098,4.854,54.413,3.807C53.987,3.537,53.508,3.422,53.034,3.431C52.244,3.446,51.459,3.8,50.856,4.309C48.594,6.101,47.253,8.708,45.749,11.108C43.091,15.564,40.29,20.23,35.847,23.125C33.76,24.598,31.027,24.758,29.016,26.337C26.265,28.411,24.394,31.354,22.138,33.904C21.624,34.518,20.828,34.763,20.132,35.095C13.402,37.84,6.668,40.579,0,43.461C5.646,47.829,11.663,51.715,17.422,55.933C19.001,55.619,20.587,54.971,22.216,55.259C24.798,56.067,26.312,58.543,27.496,60.805C29.903,65.737,31.642,70.945,33.591,76.065C36.849,75.833,39.782,74.154,42.302,72.179C47.152,68.25,50.847,63.174,54.914,58.486C56.863,56.437,58.85,53.996,61.776,53.426C64.734,52.711,67.902,53.77,70.096,55.807C73.173,58.558,75.899,61.739,79.496,63.844C79.013,61.463,77.854,59.326,76.989,57.076ZM26.681,49.07C23.842,50.75,20.828,52.132,17.876,53.598C13.245,50.496,8.733,47.209,4.183,43.994C10.318,41.306,16.548,38.808,22.765,36.301C25.71,38.601,28.75,40.785,31.695,43.085C30.31,45.298,28.643,47.353,26.681,49.07ZM32.995,41.362C30.069,39.162,27.104,37.022,24.222,34.766C26.07,32.247,28.095,29.812,30.52,27.825C32.124,26.798,34.086,26.512,35.753,25.585C39.707,23.611,42.405,19.989,44.981,16.529C41.678,25.102,38.153,33.71,32.995,41.362ZM32.995,41.362"/>
</g>
    </g>
    </g>
</svg>
