<?xml version="1.0" encoding="UTF-8"?>
<!--Generator: CustomSymbols by @serious_bret-->
<!DOCTYPE svg
        PUBLIC "-//W3C//DTD SVG 1.1//EN"
        "http://www.w3.org/Graphics/SVG/1.1/DTD/svg11.dtd">
<svg version="1.1" xmlns="http://www.w3.org/2000/svg" xmlns:xlink="http://www.w3.org/1999/xlink" width="2900" height="1500">
    <g transform="translate(-200 -200)">
    <!--template writer version: "8"-->
    <g id="Notes">
        <rect height="2200" id="artboard" style="fill:white;opacity:1" width="3300" x="0" y="0"/>
        <line id="" style="fill:none;stroke:black;opacity:1;stroke-width:0.5;" x1="263" x2="3036" y1="292" y2="292"/>
        <text id="reftext1" style="stroke:none;fill:black;font-family:-apple-system,&quot;SF Pro Display&quot;,&quot;SF Pro Text&quot;,Helvetica,sans-serif;font-weight:bold;" transform="matrix(1 0 0 1 263 322)">Weight/Scale Variations</text>
        <text id="reftext2" style="stroke:none;fill:black;font-family:-apple-system,&quot;SF Pro Display&quot;,&quot;SF Pro Text&quot;,Helvetica,sans-serif;text-anchor:middle;" transform="matrix(1 0 0 1 559.711 322)">Ultralight</text>
        <text style="stroke:none;fill:black;font-family:-apple-system,&quot;SF Pro Display&quot;,&quot;SF Pro Text&quot;,Helvetica,sans-serif;text-anchor:middle;" transform="matrix(1 0 0 1 856.422 322)">Thin</text>
        <text style="stroke:none;fill:black;font-family:-apple-system,&quot;SF Pro Display&quot;,&quot;SF Pro Text&quot;,Helvetica,sans-serif;text-anchor:middle;" transform="matrix(1 0 0 1 1153.13 322)">Light</text>
        <text style="stroke:none;fill:black;font-family:-apple-system,&quot;SF Pro Display&quot;,&quot;SF Pro Text&quot;,Helvetica,sans-serif;text-anchor:middle;" transform="matrix(1 0 0 1 1449.84 322)">Regular</text>
        <text style="stroke:none;fill:black;font-family:-apple-system,&quot;SF Pro Display&quot;,&quot;SF Pro Text&quot;,Helvetica,sans-serif;text-anchor:middle;" transform="matrix(1 0 0 1 1746.56 322)">Medium</text>
        <text style="stroke:none;fill:black;font-family:-apple-system,&quot;SF Pro Display&quot;,&quot;SF Pro Text&quot;,Helvetica,sans-serif;text-anchor:middle;" transform="matrix(1 0 0 1 2043.27 322)">Semibold</text>
        <text style="stroke:none;fill:black;font-family:-apple-system,&quot;SF Pro Display&quot;,&quot;SF Pro Text&quot;,Helvetica,sans-serif;text-anchor:middle;" transform="matrix(1 0 0 1 2339.98 322)">Bold</text>
        <text style="stroke:none;fill:black;font-family:-apple-system,&quot;SF Pro Display&quot;,&quot;SF Pro Text&quot;,Helvetica,sans-serif;text-anchor:middle;" transform="matrix(1 0 0 1 2636.69 322)">Heavy</text>
        <text style="stroke:none;fill:black;font-family:-apple-system,&quot;SF Pro Display&quot;,&quot;SF Pro Text&quot;,Helvetica,sans-serif;text-anchor:middle;" transform="matrix(1 0 0 1 2933.4 322)">Black</text>

        <text style="stroke:none;fill:black;font-family:-apple-system,&quot;SF Pro Display&quot;,&quot;SF Pro Text&quot;,Helvetica,sans-serif;" transform="matrix(1 0 0 1 263 726)">Small</text>
        <text style="stroke:none;fill:black;font-family:-apple-system,&quot;SF Pro Display&quot;,&quot;SF Pro Text&quot;,Helvetica,sans-serif;" transform="matrix(1 0 0 1 263 1156)">Medium</text>
        <text style="stroke:none;fill:black;font-family:-apple-system,&quot;SF Pro Display&quot;,&quot;SF Pro Text&quot;,Helvetica,sans-serif;" transform="matrix(1 0 0 1 263 1586)">Large</text>
    </g>
    <g id="Guides">
        <g id="H-reference" style="fill:#27AAE1;stroke:none;" transform="matrix(1 0 0 1 339 696)">
            <path d="M0.976562 0L3.66211 0L12.9883-24.4629L45.752-24.4629L55.127 0L57.7637 0L30.6152-70.459L28.125-70.459ZM29.3457-67.1387L29.4434-67.1387L44.873-26.709L13.8672-26.709Z"/>
        </g>
        <line id="Baseline-S" style="fill:none;stroke:#27AAE1;opacity:1;stroke-width:0.5;" x1="263" x2="3036" y1="696" y2="696"/>
        <line id="Capline-S" style="fill:none;stroke:#27AAE1;opacity:1;stroke-width:0.5;" x1="263" x2="3036" y1="625.541" y2="625.541"/>
        <g id="H-reference" style="fill:#27AAE1;stroke:none;" transform="matrix(1 0 0 1 339 1126)">
            <path d="M0.976562 0L3.66211 0L12.9883-24.4629L45.752-24.4629L55.127 0L57.7637 0L30.6152-70.459L28.125-70.459ZM29.3457-67.1387L29.4434-67.1387L44.873-26.709L13.8672-26.709Z"/>
        </g>
        <line id="Baseline-M" style="fill:none;stroke:#27AAE1;opacity:1;stroke-width:0.5;" x1="263" x2="3036" y1="1126" y2="1126"/>
        <line id="Capline-M" style="fill:none;stroke:#27AAE1;opacity:1;stroke-width:0.5;" x1="263" x2="3036" y1="1055.54" y2="1055.54"/>
        <g id="H-reference" style="fill:#27AAE1;stroke:none;" transform="matrix(1 0 0 1 339 1556)">
            <path d="M0.976562 0L3.66211 0L12.9883-24.4629L45.752-24.4629L55.127 0L57.7637 0L30.6152-70.459L28.125-70.459ZM29.3457-67.1387L29.4434-67.1387L44.873-26.709L13.8672-26.709Z"/>
        </g>
        <line id="Baseline-L" style="fill:none;stroke:#27AAE1;opacity:1;stroke-width:0.5;" x1="263" x2="3036" y1="1556" y2="1556"/>
        <line id="Capline-L" style="fill:none;stroke:#27AAE1;opacity:1;stroke-width:0.5;" x1="263" x2="3036" y1="1485.54" y2="1485.54"/>
        <line id="left-margin" x1="1417.3214020285482" x2="1417.3214020285482" y1="1030.79" y2="1150.12" style="fill:none;stroke:#00AEEF;stroke-width:0.5;opacity:1.0;"/>
        <line id="right-margin" x1="1484.9385979714516" x2="1484.9385979714516" y1="1030.79" y2="1150.12" style="fill:none;stroke:#00AEEF;stroke-width:0.5;opacity:1.0;"/>
    </g>
    <g id="Symbols">
        <g id="Black-L" transform="matrix(1.0,0.0,0.0,1.0,2869.1948778030437,1455.2848973342939)">  <path stroke-opacity="1" fill-rule="nonzero" stroke="none" stroke-dasharray="none" stroke-miterlimit="4" fill="#000000" stroke-width="1px" stroke-linecap="butt" role="img" fill-opacity="1" stroke-linejoin="miter" d="M6.139,0C2.739,0,0,2.739,0,6.139L0,124.831C0,128.231,2.739,130.97,6.139,130.97L124.831,130.97C128.231,130.97,130.97,128.231,130.97,124.831L130.97,6.139C130.97,2.739,128.231,0,124.831,0ZM100.891,53.207C104.23,53.207,107.188,53.409,109.769,53.812C112.204,54.177,114.593,54.799,116.896,55.668L116.896,69.081C115.791,68.317,114.616,67.657,113.387,67.111C112.121,66.541,110.813,66.067,109.475,65.692C106.94,64.986,104.324,64.619,101.693,64.601C100.056,64.601,98.566,64.754,97.224,65.07C96.027,65.326,94.879,65.772,93.824,66.391C92.896,66.959,92.187,67.641,91.679,68.432C91.169,69.229,90.903,70.159,90.915,71.106C90.915,72.176,91.204,73.141,91.766,73.993C92.334,74.844,93.142,75.652,94.184,76.416C95.226,77.18,96.492,77.922,97.982,78.653C99.472,79.39,101.158,80.148,103.035,80.923C105.6,81.998,107.903,83.144,109.944,84.35C111.985,85.562,113.737,86.931,115.199,88.459C116.662,89.982,117.775,91.723,118.55,93.682C119.325,95.641,119.718,97.917,119.718,100.52C119.718,104.105,119.036,107.123,117.682,109.557C116.36,111.957,114.462,113.992,112.16,115.478C109.678,117.051,106.927,118.154,104.045,118.73C100.956,119.385,97.698,119.712,94.277,119.712C90.909,119.727,87.548,119.427,84.236,118.817C81.37,118.322,78.591,117.416,75.985,116.127L75.985,101.775C80.917,105.972,87.173,108.291,93.649,108.323C95.466,108.323,97.054,108.16,98.408,107.832C99.767,107.505,100.896,107.046,101.808,106.468C102.713,105.879,103.39,105.191,103.843,104.394C104.865,102.501,104.708,100.189,103.439,98.451C102.628,97.378,101.637,96.455,100.509,95.723C99.11,94.796,97.637,93.985,96.105,93.3C94.289,92.471,92.457,91.677,90.61,90.921C85.6,88.831,81.867,86.271,79.406,83.253C76.95,80.236,75.717,76.585,75.717,72.312C75.717,68.961,76.388,66.085,77.731,63.679C79.073,61.272,80.896,59.291,83.21,57.736C85.657,56.122,88.374,54.959,91.232,54.304C94.397,53.557,97.639,53.189,100.891,53.207ZM18.418,54.233L70.604,54.233L70.604,66.053L51.875,66.053L51.875,118.692L37.048,118.692L37.048,66.053L18.418,66.053ZM18.418,54.233"/>
</g>
        <g id="Heavy-L" transform="matrix(1.0,0.0,0.0,1.0,2572.4848778030437,1455.2848973342939)">  <path stroke-width="1px" stroke="none" stroke-dasharray="none" fill-rule="nonzero" stroke-linecap="butt" fill-opacity="1" stroke-opacity="1" stroke-miterlimit="4" role="img" stroke-linejoin="miter" fill="#000000" d="M6.139,0C2.739,0,0,2.739,0,6.139L0,124.831C0,128.231,2.739,130.97,6.139,130.97L124.831,130.97C128.231,130.97,130.97,128.231,130.97,124.831L130.97,6.139C130.97,2.739,128.231,0,124.831,0ZM100.891,53.207C104.23,53.207,107.188,53.409,109.769,53.812C112.204,54.177,114.593,54.799,116.896,55.668L116.896,69.081C115.791,68.317,114.616,67.657,113.387,67.111C112.121,66.541,110.813,66.067,109.475,65.692C106.94,64.986,104.324,64.619,101.693,64.601C100.056,64.601,98.566,64.754,97.224,65.07C96.027,65.326,94.879,65.772,93.824,66.391C92.896,66.959,92.187,67.641,91.679,68.432C91.169,69.229,90.903,70.159,90.915,71.106C90.915,72.176,91.204,73.141,91.766,73.993C92.334,74.844,93.142,75.652,94.184,76.416C95.226,77.18,96.492,77.922,97.982,78.653C99.472,79.39,101.158,80.148,103.035,80.923C105.6,81.998,107.903,83.144,109.944,84.35C111.985,85.562,113.737,86.931,115.199,88.459C116.662,89.982,117.775,91.723,118.55,93.682C119.325,95.641,119.718,97.917,119.718,100.52C119.718,104.105,119.036,107.123,117.682,109.557C116.36,111.957,114.462,113.992,112.16,115.478C109.678,117.051,106.927,118.154,104.045,118.73C100.956,119.385,97.698,119.712,94.277,119.712C90.909,119.727,87.548,119.427,84.236,118.817C81.37,118.322,78.591,117.416,75.985,116.127L75.985,101.775C80.917,105.972,87.173,108.291,93.649,108.323C95.466,108.323,97.054,108.16,98.408,107.832C99.767,107.505,100.896,107.046,101.808,106.468C102.713,105.879,103.39,105.191,103.843,104.394C104.865,102.501,104.708,100.189,103.439,98.451C102.628,97.378,101.637,96.455,100.509,95.723C99.11,94.796,97.637,93.985,96.105,93.3C94.289,92.471,92.457,91.677,90.61,90.921C85.6,88.831,81.867,86.271,79.406,83.253C76.95,80.236,75.717,76.585,75.717,72.312C75.717,68.961,76.388,66.085,77.731,63.679C79.073,61.272,80.896,59.291,83.21,57.736C85.657,56.122,88.374,54.959,91.232,54.304C94.397,53.557,97.639,53.189,100.891,53.207ZM18.418,54.233L70.604,54.233L70.604,66.053L51.875,66.053L51.875,118.692L37.048,118.692L37.048,66.053L18.418,66.053ZM18.418,54.233"/>
</g>
        <g id="Bold-L" transform="matrix(1.0,0.0,0.0,1.0,2275.7748778030436,1455.2848973342939)">  <path fill-rule="nonzero" stroke="none" stroke-miterlimit="4" role="img" stroke-linejoin="miter" stroke-linecap="butt" stroke-opacity="1" stroke-width="1px" fill="#000000" fill-opacity="1" stroke-dasharray="none" d="M6.139,0C2.739,0,0,2.739,0,6.139L0,124.831C0,128.231,2.739,130.97,6.139,130.97L124.831,130.97C128.231,130.97,130.97,128.231,130.97,124.831L130.97,6.139C130.97,2.739,128.231,0,124.831,0ZM100.891,53.207C104.23,53.207,107.188,53.409,109.769,53.812C112.204,54.177,114.593,54.799,116.896,55.668L116.896,69.081C115.791,68.317,114.616,67.657,113.387,67.111C112.121,66.541,110.813,66.067,109.475,65.692C106.94,64.986,104.324,64.619,101.693,64.601C100.056,64.601,98.566,64.754,97.224,65.07C96.027,65.326,94.879,65.772,93.824,66.391C92.896,66.959,92.187,67.641,91.679,68.432C91.169,69.229,90.903,70.159,90.915,71.106C90.915,72.176,91.204,73.141,91.766,73.993C92.334,74.844,93.142,75.652,94.184,76.416C95.226,77.18,96.492,77.922,97.982,78.653C99.472,79.39,101.158,80.148,103.035,80.923C105.6,81.998,107.903,83.144,109.944,84.35C111.985,85.562,113.737,86.931,115.199,88.459C116.662,89.982,117.775,91.723,118.55,93.682C119.325,95.641,119.718,97.917,119.718,100.52C119.718,104.105,119.036,107.123,117.682,109.557C116.36,111.957,114.462,113.992,112.16,115.478C109.678,117.051,106.927,118.154,104.045,118.73C100.956,119.385,97.698,119.712,94.277,119.712C90.909,119.727,87.548,119.427,84.236,118.817C81.37,118.322,78.591,117.416,75.985,116.127L75.985,101.775C80.917,105.972,87.173,108.291,93.649,108.323C95.466,108.323,97.054,108.16,98.408,107.832C99.767,107.505,100.896,107.046,101.808,106.468C102.713,105.879,103.39,105.191,103.843,104.394C104.865,102.501,104.708,100.189,103.439,98.451C102.628,97.378,101.637,96.455,100.509,95.723C99.11,94.796,97.637,93.985,96.105,93.3C94.289,92.471,92.457,91.677,90.61,90.921C85.6,88.831,81.867,86.271,79.406,83.253C76.95,80.236,75.717,76.585,75.717,72.312C75.717,68.961,76.388,66.085,77.731,63.679C79.073,61.272,80.896,59.291,83.21,57.736C85.657,56.122,88.374,54.959,91.232,54.304C94.397,53.557,97.639,53.189,100.891,53.207ZM18.418,54.233L70.604,54.233L70.604,66.053L51.875,66.053L51.875,118.692L37.048,118.692L37.048,66.053L18.418,66.053ZM18.418,54.233"/>
</g>
        <g id="Semibold-L" transform="matrix(1.0,0.0,0.0,1.0,1979.0648778030438,1455.2848973342939)">  <path stroke-linejoin="miter" role="img" fill="#000000" stroke-width="1px" stroke-dasharray="none" stroke="none" stroke-linecap="butt" fill-opacity="1" stroke-miterlimit="4" stroke-opacity="1" fill-rule="nonzero" d="M6.139,0C2.739,0,0,2.739,0,6.139L0,124.831C0,128.231,2.739,130.97,6.139,130.97L124.831,130.97C128.231,130.97,130.97,128.231,130.97,124.831L130.97,6.139C130.97,2.739,128.231,0,124.831,0ZM100.891,53.207C104.23,53.207,107.188,53.409,109.769,53.812C112.204,54.177,114.593,54.799,116.896,55.668L116.896,69.081C115.791,68.317,114.616,67.657,113.387,67.111C112.121,66.541,110.813,66.067,109.475,65.692C106.94,64.986,104.324,64.619,101.693,64.601C100.056,64.601,98.566,64.754,97.224,65.07C96.027,65.326,94.879,65.772,93.824,66.391C92.896,66.959,92.187,67.641,91.679,68.432C91.169,69.229,90.903,70.159,90.915,71.106C90.915,72.176,91.204,73.141,91.766,73.993C92.334,74.844,93.142,75.652,94.184,76.416C95.226,77.18,96.492,77.922,97.982,78.653C99.472,79.39,101.158,80.148,103.035,80.923C105.6,81.998,107.903,83.144,109.944,84.35C111.985,85.562,113.737,86.931,115.199,88.459C116.662,89.982,117.775,91.723,118.55,93.682C119.325,95.641,119.718,97.917,119.718,100.52C119.718,104.105,119.036,107.123,117.682,109.557C116.36,111.957,114.462,113.992,112.16,115.478C109.678,117.051,106.927,118.154,104.045,118.73C100.956,119.385,97.698,119.712,94.277,119.712C90.909,119.727,87.548,119.427,84.236,118.817C81.37,118.322,78.591,117.416,75.985,116.127L75.985,101.775C80.917,105.972,87.173,108.291,93.649,108.323C95.466,108.323,97.054,108.16,98.408,107.832C99.767,107.505,100.896,107.046,101.808,106.468C102.713,105.879,103.39,105.191,103.843,104.394C104.865,102.501,104.708,100.189,103.439,98.451C102.628,97.378,101.637,96.455,100.509,95.723C99.11,94.796,97.637,93.985,96.105,93.3C94.289,92.471,92.457,91.677,90.61,90.921C85.6,88.831,81.867,86.271,79.406,83.253C76.95,80.236,75.717,76.585,75.717,72.312C75.717,68.961,76.388,66.085,77.731,63.679C79.073,61.272,80.896,59.291,83.21,57.736C85.657,56.122,88.374,54.959,91.232,54.304C94.397,53.557,97.639,53.189,100.891,53.207ZM18.418,54.233L70.604,54.233L70.604,66.053L51.875,66.053L51.875,118.692L37.048,118.692L37.048,66.053L18.418,66.053ZM18.418,54.233"/>
</g>
        <g id="Medium-L" transform="matrix(1.0,0.0,0.0,1.0,1682.3548778030438,1455.2848973342939)">  <path role="img" fill="#000000" stroke-linejoin="miter" stroke-opacity="1" stroke="none" stroke-linecap="butt" stroke-dasharray="none" fill-rule="nonzero" stroke-width="1px" fill-opacity="1" stroke-miterlimit="4" d="M6.139,0C2.739,0,0,2.739,0,6.139L0,124.831C0,128.231,2.739,130.97,6.139,130.97L124.831,130.97C128.231,130.97,130.97,128.231,130.97,124.831L130.97,6.139C130.97,2.739,128.231,0,124.831,0ZM100.891,53.207C104.23,53.207,107.188,53.409,109.769,53.812C112.204,54.177,114.593,54.799,116.896,55.668L116.896,69.081C115.791,68.317,114.616,67.657,113.387,67.111C112.121,66.541,110.813,66.067,109.475,65.692C106.94,64.986,104.324,64.619,101.693,64.601C100.056,64.601,98.566,64.754,97.224,65.07C96.027,65.326,94.879,65.772,93.824,66.391C92.896,66.959,92.187,67.641,91.679,68.432C91.169,69.229,90.903,70.159,90.915,71.106C90.915,72.176,91.204,73.141,91.766,73.993C92.334,74.844,93.142,75.652,94.184,76.416C95.226,77.18,96.492,77.922,97.982,78.653C99.472,79.39,101.158,80.148,103.035,80.923C105.6,81.998,107.903,83.144,109.944,84.35C111.985,85.562,113.737,86.931,115.199,88.459C116.662,89.982,117.775,91.723,118.55,93.682C119.325,95.641,119.718,97.917,119.718,100.52C119.718,104.105,119.036,107.123,117.682,109.557C116.36,111.957,114.462,113.992,112.16,115.478C109.678,117.051,106.927,118.154,104.045,118.73C100.956,119.385,97.698,119.712,94.277,119.712C90.909,119.727,87.548,119.427,84.236,118.817C81.37,118.322,78.591,117.416,75.985,116.127L75.985,101.775C80.917,105.972,87.173,108.291,93.649,108.323C95.466,108.323,97.054,108.16,98.408,107.832C99.767,107.505,100.896,107.046,101.808,106.468C102.713,105.879,103.39,105.191,103.843,104.394C104.865,102.501,104.708,100.189,103.439,98.451C102.628,97.378,101.637,96.455,100.509,95.723C99.11,94.796,97.637,93.985,96.105,93.3C94.289,92.471,92.457,91.677,90.61,90.921C85.6,88.831,81.867,86.271,79.406,83.253C76.95,80.236,75.717,76.585,75.717,72.312C75.717,68.961,76.388,66.085,77.731,63.679C79.073,61.272,80.896,59.291,83.21,57.736C85.657,56.122,88.374,54.959,91.232,54.304C94.397,53.557,97.639,53.189,100.891,53.207ZM18.418,54.233L70.604,54.233L70.604,66.053L51.875,66.053L51.875,118.692L37.048,118.692L37.048,66.053L18.418,66.053ZM18.418,54.233"/>
</g>
        <g id="Regular-L" transform="matrix(1.0,0.0,0.0,1.0,1385.6448778030438,1455.2848973342939)">  <path role="img" stroke-width="1px" stroke-opacity="1" stroke-dasharray="none" stroke-linejoin="miter" fill-rule="nonzero" stroke="none" fill-opacity="1" fill="#000000" stroke-miterlimit="4" stroke-linecap="butt" d="M6.139,0C2.739,0,0,2.739,0,6.139L0,124.831C0,128.231,2.739,130.97,6.139,130.97L124.831,130.97C128.231,130.97,130.97,128.231,130.97,124.831L130.97,6.139C130.97,2.739,128.231,0,124.831,0ZM100.891,53.207C104.23,53.207,107.188,53.409,109.769,53.812C112.204,54.177,114.593,54.799,116.896,55.668L116.896,69.081C115.791,68.317,114.616,67.657,113.387,67.111C112.121,66.541,110.813,66.067,109.475,65.692C106.94,64.986,104.324,64.619,101.693,64.601C100.056,64.601,98.566,64.754,97.224,65.07C96.027,65.326,94.879,65.772,93.824,66.391C92.896,66.959,92.187,67.641,91.679,68.432C91.169,69.229,90.903,70.159,90.915,71.106C90.915,72.176,91.204,73.141,91.766,73.993C92.334,74.844,93.142,75.652,94.184,76.416C95.226,77.18,96.492,77.922,97.982,78.653C99.472,79.39,101.158,80.148,103.035,80.923C105.6,81.998,107.903,83.144,109.944,84.35C111.985,85.562,113.737,86.931,115.199,88.459C116.662,89.982,117.775,91.723,118.55,93.682C119.325,95.641,119.718,97.917,119.718,100.52C119.718,104.105,119.036,107.123,117.682,109.557C116.36,111.957,114.462,113.992,112.16,115.478C109.678,117.051,106.927,118.154,104.045,118.73C100.956,119.385,97.698,119.712,94.277,119.712C90.909,119.727,87.548,119.427,84.236,118.817C81.37,118.322,78.591,117.416,75.985,116.127L75.985,101.775C80.917,105.972,87.173,108.291,93.649,108.323C95.466,108.323,97.054,108.16,98.408,107.832C99.767,107.505,100.896,107.046,101.808,106.468C102.713,105.879,103.39,105.191,103.843,104.394C104.865,102.501,104.708,100.189,103.439,98.451C102.628,97.378,101.637,96.455,100.509,95.723C99.11,94.796,97.637,93.985,96.105,93.3C94.289,92.471,92.457,91.677,90.61,90.921C85.6,88.831,81.867,86.271,79.406,83.253C76.95,80.236,75.717,76.585,75.717,72.312C75.717,68.961,76.388,66.085,77.731,63.679C79.073,61.272,80.896,59.291,83.21,57.736C85.657,56.122,88.374,54.959,91.232,54.304C94.397,53.557,97.639,53.189,100.891,53.207ZM18.418,54.233L70.604,54.233L70.604,66.053L51.875,66.053L51.875,118.692L37.048,118.692L37.048,66.053L18.418,66.053ZM18.418,54.233"/>
</g>
        <g id="Light-L" transform="matrix(1.0,0.0,0.0,1.0,1088.934877803044,1455.2848973342939)">  <path fill-opacity="1" stroke-width="1px" stroke-linecap="butt" fill="#000000" stroke="none" stroke-opacity="1" stroke-linejoin="miter" fill-rule="nonzero" stroke-miterlimit="4" stroke-dasharray="none" role="img" d="M6.139,0C2.739,0,0,2.739,0,6.139L0,124.831C0,128.231,2.739,130.97,6.139,130.97L124.831,130.97C128.231,130.97,130.97,128.231,130.97,124.831L130.97,6.139C130.97,2.739,128.231,0,124.831,0ZM100.891,53.207C104.23,53.207,107.188,53.409,109.769,53.812C112.204,54.177,114.593,54.799,116.896,55.668L116.896,69.081C115.791,68.317,114.616,67.657,113.387,67.111C112.121,66.541,110.813,66.067,109.475,65.692C106.94,64.986,104.324,64.619,101.693,64.601C100.056,64.601,98.566,64.754,97.224,65.07C96.027,65.326,94.879,65.772,93.824,66.391C92.896,66.959,92.187,67.641,91.679,68.432C91.169,69.229,90.903,70.159,90.915,71.106C90.915,72.176,91.204,73.141,91.766,73.993C92.334,74.844,93.142,75.652,94.184,76.416C95.226,77.18,96.492,77.922,97.982,78.653C99.472,79.39,101.158,80.148,103.035,80.923C105.6,81.998,107.903,83.144,109.944,84.35C111.985,85.562,113.737,86.931,115.199,88.459C116.662,89.982,117.775,91.723,118.55,93.682C119.325,95.641,119.718,97.917,119.718,100.52C119.718,104.105,119.036,107.123,117.682,109.557C116.36,111.957,114.462,113.992,112.16,115.478C109.678,117.051,106.927,118.154,104.045,118.73C100.956,119.385,97.698,119.712,94.277,119.712C90.909,119.727,87.548,119.427,84.236,118.817C81.37,118.322,78.591,117.416,75.985,116.127L75.985,101.775C80.917,105.972,87.173,108.291,93.649,108.323C95.466,108.323,97.054,108.16,98.408,107.832C99.767,107.505,100.896,107.046,101.808,106.468C102.713,105.879,103.39,105.191,103.843,104.394C104.865,102.501,104.708,100.189,103.439,98.451C102.628,97.378,101.637,96.455,100.509,95.723C99.11,94.796,97.637,93.985,96.105,93.3C94.289,92.471,92.457,91.677,90.61,90.921C85.6,88.831,81.867,86.271,79.406,83.253C76.95,80.236,75.717,76.585,75.717,72.312C75.717,68.961,76.388,66.085,77.731,63.679C79.073,61.272,80.896,59.291,83.21,57.736C85.657,56.122,88.374,54.959,91.232,54.304C94.397,53.557,97.639,53.189,100.891,53.207ZM18.418,54.233L70.604,54.233L70.604,66.053L51.875,66.053L51.875,118.692L37.048,118.692L37.048,66.053L18.418,66.053ZM18.418,54.233"/>
</g>
        <g id="Thin-L" transform="matrix(1.0,0.0,0.0,1.0,792.224877803044,1455.2848973342939)">  <path fill-opacity="1" stroke-linecap="butt" stroke-miterlimit="4" fill="#000000" stroke-dasharray="none" role="img" fill-rule="nonzero" stroke="none" stroke-width="1px" stroke-linejoin="miter" stroke-opacity="1" d="M6.139,0C2.739,0,0,2.739,0,6.139L0,124.831C0,128.231,2.739,130.97,6.139,130.97L124.831,130.97C128.231,130.97,130.97,128.231,130.97,124.831L130.97,6.139C130.97,2.739,128.231,0,124.831,0ZM100.891,53.207C104.23,53.207,107.188,53.409,109.769,53.812C112.204,54.177,114.593,54.799,116.896,55.668L116.896,69.081C115.791,68.317,114.616,67.657,113.387,67.111C112.121,66.541,110.813,66.067,109.475,65.692C106.94,64.986,104.324,64.619,101.693,64.601C100.056,64.601,98.566,64.754,97.224,65.07C96.027,65.326,94.879,65.772,93.824,66.391C92.896,66.959,92.187,67.641,91.679,68.432C91.169,69.229,90.903,70.159,90.915,71.106C90.915,72.176,91.204,73.141,91.766,73.993C92.334,74.844,93.142,75.652,94.184,76.416C95.226,77.18,96.492,77.922,97.982,78.653C99.472,79.39,101.158,80.148,103.035,80.923C105.6,81.998,107.903,83.144,109.944,84.35C111.985,85.562,113.737,86.931,115.199,88.459C116.662,89.982,117.775,91.723,118.55,93.682C119.325,95.641,119.718,97.917,119.718,100.52C119.718,104.105,119.036,107.123,117.682,109.557C116.36,111.957,114.462,113.992,112.16,115.478C109.678,117.051,106.927,118.154,104.045,118.73C100.956,119.385,97.698,119.712,94.277,119.712C90.909,119.727,87.548,119.427,84.236,118.817C81.37,118.322,78.591,117.416,75.985,116.127L75.985,101.775C80.917,105.972,87.173,108.291,93.649,108.323C95.466,108.323,97.054,108.16,98.408,107.832C99.767,107.505,100.896,107.046,101.808,106.468C102.713,105.879,103.39,105.191,103.843,104.394C104.865,102.501,104.708,100.189,103.439,98.451C102.628,97.378,101.637,96.455,100.509,95.723C99.11,94.796,97.637,93.985,96.105,93.3C94.289,92.471,92.457,91.677,90.61,90.921C85.6,88.831,81.867,86.271,79.406,83.253C76.95,80.236,75.717,76.585,75.717,72.312C75.717,68.961,76.388,66.085,77.731,63.679C79.073,61.272,80.896,59.291,83.21,57.736C85.657,56.122,88.374,54.959,91.232,54.304C94.397,53.557,97.639,53.189,100.891,53.207ZM18.418,54.233L70.604,54.233L70.604,66.053L51.875,66.053L51.875,118.692L37.048,118.692L37.048,66.053L18.418,66.053ZM18.418,54.233"/>
</g>
        <g id="Ultralight-L" transform="matrix(1.0,0.0,0.0,1.0,495.51487780304393,1455.2848973342939)">  <path stroke-linecap="butt" fill-opacity="1" stroke-linejoin="miter" stroke-width="1px" role="img" stroke-opacity="1" fill-rule="nonzero" stroke="none" stroke-miterlimit="4" stroke-dasharray="none" fill="#000000" d="M6.139,0C2.739,0,0,2.739,0,6.139L0,124.831C0,128.231,2.739,130.97,6.139,130.97L124.831,130.97C128.231,130.97,130.97,128.231,130.97,124.831L130.97,6.139C130.97,2.739,128.231,0,124.831,0ZM100.891,53.207C104.23,53.207,107.188,53.409,109.769,53.812C112.204,54.177,114.593,54.799,116.896,55.668L116.896,69.081C115.791,68.317,114.616,67.657,113.387,67.111C112.121,66.541,110.813,66.067,109.475,65.692C106.94,64.986,104.324,64.619,101.693,64.601C100.056,64.601,98.566,64.754,97.224,65.07C96.027,65.326,94.879,65.772,93.824,66.391C92.896,66.959,92.187,67.641,91.679,68.432C91.169,69.229,90.903,70.159,90.915,71.106C90.915,72.176,91.204,73.141,91.766,73.993C92.334,74.844,93.142,75.652,94.184,76.416C95.226,77.18,96.492,77.922,97.982,78.653C99.472,79.39,101.158,80.148,103.035,80.923C105.6,81.998,107.903,83.144,109.944,84.35C111.985,85.562,113.737,86.931,115.199,88.459C116.662,89.982,117.775,91.723,118.55,93.682C119.325,95.641,119.718,97.917,119.718,100.52C119.718,104.105,119.036,107.123,117.682,109.557C116.36,111.957,114.462,113.992,112.16,115.478C109.678,117.051,106.927,118.154,104.045,118.73C100.956,119.385,97.698,119.712,94.277,119.712C90.909,119.727,87.548,119.427,84.236,118.817C81.37,118.322,78.591,117.416,75.985,116.127L75.985,101.775C80.917,105.972,87.173,108.291,93.649,108.323C95.466,108.323,97.054,108.16,98.408,107.832C99.767,107.505,100.896,107.046,101.808,106.468C102.713,105.879,103.39,105.191,103.843,104.394C104.865,102.501,104.708,100.189,103.439,98.451C102.628,97.378,101.637,96.455,100.509,95.723C99.11,94.796,97.637,93.985,96.105,93.3C94.289,92.471,92.457,91.677,90.61,90.921C85.6,88.831,81.867,86.271,79.406,83.253C76.95,80.236,75.717,76.585,75.717,72.312C75.717,68.961,76.388,66.085,77.731,63.679C79.073,61.272,80.896,59.291,83.21,57.736C85.657,56.122,88.374,54.959,91.232,54.304C94.397,53.557,97.639,53.189,100.891,53.207ZM18.418,54.233L70.604,54.233L70.604,66.053L51.875,66.053L51.875,118.692L37.048,118.692L37.048,66.053L18.418,66.053ZM18.418,54.233"/>
</g>
        <g id="Black-M" transform="matrix(1.0,0.0,0.0,1.0,2883.9163393822046,1040.0063589134545)">  <path stroke-opacity="1" fill-rule="nonzero" stroke="none" stroke-dasharray="none" stroke-miterlimit="4" fill="#000000" stroke-width="1px" stroke-linecap="butt" role="img" fill-opacity="1" stroke-linejoin="miter" d="M4.759,0C2.124,0,0,2.124,0,4.759L0,96.768C0,99.404,2.124,101.527,4.759,101.527L96.768,101.527C99.404,101.527,101.527,99.404,101.527,96.768L101.527,4.759C101.527,2.124,99.404,0,96.768,0ZM78.21,41.245C80.799,41.245,83.092,41.402,85.093,41.715C86.98,41.998,88.832,42.48,90.617,43.153L90.617,53.551C89.76,52.959,88.85,52.447,87.897,52.024C86.915,51.582,85.901,51.215,84.864,50.924C82.9,50.377,80.871,50.092,78.832,50.078C77.563,50.078,76.408,50.197,75.367,50.442C74.44,50.641,73.55,50.986,72.732,51.466C72.012,51.906,71.463,52.435,71.069,53.048C70.673,53.666,70.468,54.387,70.477,55.121C70.477,55.95,70.701,56.699,71.137,57.359C71.577,58.019,72.203,58.645,73.011,59.237C73.819,59.829,74.8,60.405,75.955,60.971C77.11,61.542,78.417,62.13,79.872,62.731C81.861,63.565,83.646,64.453,85.228,65.388C86.81,66.327,88.168,67.389,89.302,68.573C90.435,69.754,91.298,71.103,91.899,72.622C92.5,74.14,92.804,75.904,92.804,77.922C92.804,80.702,92.276,83.041,91.227,84.928C90.202,86.788,88.73,88.366,86.945,89.517C85.021,90.737,82.889,91.592,80.655,92.039C78.261,92.546,75.735,92.8,73.083,92.8C70.472,92.812,67.866,92.579,65.299,92.106C63.078,91.722,60.924,91.02,58.903,90.021L58.903,78.895C62.726,82.149,67.576,83.947,72.596,83.972C74.005,83.972,75.236,83.845,76.285,83.591C77.338,83.337,78.214,82.982,78.921,82.533C79.623,82.076,80.147,81.543,80.498,80.926C81.291,79.458,81.169,77.666,80.185,76.319C79.557,75.487,78.788,74.771,77.914,74.204C76.829,73.485,75.688,72.857,74.5,72.326C73.092,71.683,71.672,71.068,70.24,70.481C66.357,68.861,63.463,66.877,61.555,64.538C59.652,62.198,58.695,59.368,58.695,56.056C58.695,53.458,59.216,51.229,60.256,49.363C61.297,47.498,62.71,45.962,64.504,44.757C66.401,43.505,68.507,42.604,70.722,42.096C73.176,41.517,75.689,41.232,78.21,41.245ZM14.277,42.041L54.732,42.041L54.732,51.204L40.213,51.204L40.213,92.009L28.72,92.009L28.72,51.204L14.277,51.204ZM14.277,42.041"/>
</g>
        <g id="Heavy-M" transform="matrix(1.0,0.0,0.0,1.0,2587.2063393822045,1040.0063589134545)">  <path stroke-width="1px" stroke="none" stroke-dasharray="none" fill-rule="nonzero" stroke-linecap="butt" fill-opacity="1" stroke-opacity="1" stroke-miterlimit="4" role="img" stroke-linejoin="miter" fill="#000000" d="M4.759,0C2.124,0,0,2.124,0,4.759L0,96.768C0,99.404,2.124,101.527,4.759,101.527L96.768,101.527C99.404,101.527,101.527,99.404,101.527,96.768L101.527,4.759C101.527,2.124,99.404,0,96.768,0ZM78.21,41.245C80.799,41.245,83.092,41.402,85.093,41.715C86.98,41.998,88.832,42.48,90.617,43.153L90.617,53.551C89.76,52.959,88.85,52.447,87.897,52.024C86.915,51.582,85.901,51.215,84.864,50.924C82.9,50.377,80.871,50.092,78.832,50.078C77.563,50.078,76.408,50.197,75.367,50.442C74.44,50.641,73.55,50.986,72.732,51.466C72.012,51.906,71.463,52.435,71.069,53.048C70.673,53.666,70.468,54.387,70.477,55.121C70.477,55.95,70.701,56.699,71.137,57.359C71.577,58.019,72.203,58.645,73.011,59.237C73.819,59.829,74.8,60.405,75.955,60.971C77.11,61.542,78.417,62.13,79.872,62.731C81.861,63.565,83.646,64.453,85.228,65.388C86.81,66.327,88.168,67.389,89.302,68.573C90.435,69.754,91.298,71.103,91.899,72.622C92.5,74.14,92.804,75.904,92.804,77.922C92.804,80.702,92.276,83.041,91.227,84.928C90.202,86.788,88.73,88.366,86.945,89.517C85.021,90.737,82.889,91.592,80.655,92.039C78.261,92.546,75.735,92.8,73.083,92.8C70.472,92.812,67.866,92.579,65.299,92.106C63.078,91.722,60.924,91.02,58.903,90.021L58.903,78.895C62.726,82.149,67.576,83.947,72.596,83.972C74.005,83.972,75.236,83.845,76.285,83.591C77.338,83.337,78.214,82.982,78.921,82.533C79.623,82.076,80.147,81.543,80.498,80.926C81.291,79.458,81.169,77.666,80.185,76.319C79.557,75.487,78.788,74.771,77.914,74.204C76.829,73.485,75.688,72.857,74.5,72.326C73.092,71.683,71.672,71.068,70.24,70.481C66.357,68.861,63.463,66.877,61.555,64.538C59.652,62.198,58.695,59.368,58.695,56.056C58.695,53.458,59.216,51.229,60.256,49.363C61.297,47.498,62.71,45.962,64.504,44.757C66.401,43.505,68.507,42.604,70.722,42.096C73.176,41.517,75.689,41.232,78.21,41.245ZM14.277,42.041L54.732,42.041L54.732,51.204L40.213,51.204L40.213,92.009L28.72,92.009L28.72,51.204L14.277,51.204ZM14.277,42.041"/>
</g>
        <g id="Bold-M" transform="matrix(1.0,0.0,0.0,1.0,2290.4963393822045,1040.0063589134545)">  <path fill-rule="nonzero" stroke="none" stroke-miterlimit="4" role="img" stroke-linejoin="miter" stroke-linecap="butt" stroke-opacity="1" stroke-width="1px" fill="#000000" fill-opacity="1" stroke-dasharray="none" d="M4.759,0C2.124,0,0,2.124,0,4.759L0,96.768C0,99.404,2.124,101.527,4.759,101.527L96.768,101.527C99.404,101.527,101.527,99.404,101.527,96.768L101.527,4.759C101.527,2.124,99.404,0,96.768,0ZM78.21,41.245C80.799,41.245,83.092,41.402,85.093,41.715C86.98,41.998,88.832,42.48,90.617,43.153L90.617,53.551C89.76,52.959,88.85,52.447,87.897,52.024C86.915,51.582,85.901,51.215,84.864,50.924C82.9,50.377,80.871,50.092,78.832,50.078C77.563,50.078,76.408,50.197,75.367,50.442C74.44,50.641,73.55,50.986,72.732,51.466C72.012,51.906,71.463,52.435,71.069,53.048C70.673,53.666,70.468,54.387,70.477,55.121C70.477,55.95,70.701,56.699,71.137,57.359C71.577,58.019,72.203,58.645,73.011,59.237C73.819,59.829,74.8,60.405,75.955,60.971C77.11,61.542,78.417,62.13,79.872,62.731C81.861,63.565,83.646,64.453,85.228,65.388C86.81,66.327,88.168,67.389,89.302,68.573C90.435,69.754,91.298,71.103,91.899,72.622C92.5,74.14,92.804,75.904,92.804,77.922C92.804,80.702,92.276,83.041,91.227,84.928C90.202,86.788,88.73,88.366,86.945,89.517C85.021,90.737,82.889,91.592,80.655,92.039C78.261,92.546,75.735,92.8,73.083,92.8C70.472,92.812,67.866,92.579,65.299,92.106C63.078,91.722,60.924,91.02,58.903,90.021L58.903,78.895C62.726,82.149,67.576,83.947,72.596,83.972C74.005,83.972,75.236,83.845,76.285,83.591C77.338,83.337,78.214,82.982,78.921,82.533C79.623,82.076,80.147,81.543,80.498,80.926C81.291,79.458,81.169,77.666,80.185,76.319C79.557,75.487,78.788,74.771,77.914,74.204C76.829,73.485,75.688,72.857,74.5,72.326C73.092,71.683,71.672,71.068,70.24,70.481C66.357,68.861,63.463,66.877,61.555,64.538C59.652,62.198,58.695,59.368,58.695,56.056C58.695,53.458,59.216,51.229,60.256,49.363C61.297,47.498,62.71,45.962,64.504,44.757C66.401,43.505,68.507,42.604,70.722,42.096C73.176,41.517,75.689,41.232,78.21,41.245ZM14.277,42.041L54.732,42.041L54.732,51.204L40.213,51.204L40.213,92.009L28.72,92.009L28.72,51.204L14.277,51.204ZM14.277,42.041"/>
</g>
        <g id="Semibold-M" transform="matrix(1.0,0.0,0.0,1.0,1993.7863393822045,1040.0063589134545)">  <path stroke-linejoin="miter" role="img" fill="#000000" stroke-width="1px" stroke-dasharray="none" stroke="none" stroke-linecap="butt" fill-opacity="1" stroke-miterlimit="4" stroke-opacity="1" fill-rule="nonzero" d="M4.759,0C2.124,0,0,2.124,0,4.759L0,96.768C0,99.404,2.124,101.527,4.759,101.527L96.768,101.527C99.404,101.527,101.527,99.404,101.527,96.768L101.527,4.759C101.527,2.124,99.404,0,96.768,0ZM78.21,41.245C80.799,41.245,83.092,41.402,85.093,41.715C86.98,41.998,88.832,42.48,90.617,43.153L90.617,53.551C89.76,52.959,88.85,52.447,87.897,52.024C86.915,51.582,85.901,51.215,84.864,50.924C82.9,50.377,80.871,50.092,78.832,50.078C77.563,50.078,76.408,50.197,75.367,50.442C74.44,50.641,73.55,50.986,72.732,51.466C72.012,51.906,71.463,52.435,71.069,53.048C70.673,53.666,70.468,54.387,70.477,55.121C70.477,55.95,70.701,56.699,71.137,57.359C71.577,58.019,72.203,58.645,73.011,59.237C73.819,59.829,74.8,60.405,75.955,60.971C77.11,61.542,78.417,62.13,79.872,62.731C81.861,63.565,83.646,64.453,85.228,65.388C86.81,66.327,88.168,67.389,89.302,68.573C90.435,69.754,91.298,71.103,91.899,72.622C92.5,74.14,92.804,75.904,92.804,77.922C92.804,80.702,92.276,83.041,91.227,84.928C90.202,86.788,88.73,88.366,86.945,89.517C85.021,90.737,82.889,91.592,80.655,92.039C78.261,92.546,75.735,92.8,73.083,92.8C70.472,92.812,67.866,92.579,65.299,92.106C63.078,91.722,60.924,91.02,58.903,90.021L58.903,78.895C62.726,82.149,67.576,83.947,72.596,83.972C74.005,83.972,75.236,83.845,76.285,83.591C77.338,83.337,78.214,82.982,78.921,82.533C79.623,82.076,80.147,81.543,80.498,80.926C81.291,79.458,81.169,77.666,80.185,76.319C79.557,75.487,78.788,74.771,77.914,74.204C76.829,73.485,75.688,72.857,74.5,72.326C73.092,71.683,71.672,71.068,70.24,70.481C66.357,68.861,63.463,66.877,61.555,64.538C59.652,62.198,58.695,59.368,58.695,56.056C58.695,53.458,59.216,51.229,60.256,49.363C61.297,47.498,62.71,45.962,64.504,44.757C66.401,43.505,68.507,42.604,70.722,42.096C73.176,41.517,75.689,41.232,78.21,41.245ZM14.277,42.041L54.732,42.041L54.732,51.204L40.213,51.204L40.213,92.009L28.72,92.009L28.72,51.204L14.277,51.204ZM14.277,42.041"/>
</g>
        <g id="Medium-M" transform="matrix(1.0,0.0,0.0,1.0,1697.0763393822044,1040.0063589134545)">  <path role="img" fill="#000000" stroke-linejoin="miter" stroke-opacity="1" stroke="none" stroke-linecap="butt" stroke-dasharray="none" fill-rule="nonzero" stroke-width="1px" fill-opacity="1" stroke-miterlimit="4" d="M4.759,0C2.124,0,0,2.124,0,4.759L0,96.768C0,99.404,2.124,101.527,4.759,101.527L96.768,101.527C99.404,101.527,101.527,99.404,101.527,96.768L101.527,4.759C101.527,2.124,99.404,0,96.768,0ZM78.21,41.245C80.799,41.245,83.092,41.402,85.093,41.715C86.98,41.998,88.832,42.48,90.617,43.153L90.617,53.551C89.76,52.959,88.85,52.447,87.897,52.024C86.915,51.582,85.901,51.215,84.864,50.924C82.9,50.377,80.871,50.092,78.832,50.078C77.563,50.078,76.408,50.197,75.367,50.442C74.44,50.641,73.55,50.986,72.732,51.466C72.012,51.906,71.463,52.435,71.069,53.048C70.673,53.666,70.468,54.387,70.477,55.121C70.477,55.95,70.701,56.699,71.137,57.359C71.577,58.019,72.203,58.645,73.011,59.237C73.819,59.829,74.8,60.405,75.955,60.971C77.11,61.542,78.417,62.13,79.872,62.731C81.861,63.565,83.646,64.453,85.228,65.388C86.81,66.327,88.168,67.389,89.302,68.573C90.435,69.754,91.298,71.103,91.899,72.622C92.5,74.14,92.804,75.904,92.804,77.922C92.804,80.702,92.276,83.041,91.227,84.928C90.202,86.788,88.73,88.366,86.945,89.517C85.021,90.737,82.889,91.592,80.655,92.039C78.261,92.546,75.735,92.8,73.083,92.8C70.472,92.812,67.866,92.579,65.299,92.106C63.078,91.722,60.924,91.02,58.903,90.021L58.903,78.895C62.726,82.149,67.576,83.947,72.596,83.972C74.005,83.972,75.236,83.845,76.285,83.591C77.338,83.337,78.214,82.982,78.921,82.533C79.623,82.076,80.147,81.543,80.498,80.926C81.291,79.458,81.169,77.666,80.185,76.319C79.557,75.487,78.788,74.771,77.914,74.204C76.829,73.485,75.688,72.857,74.5,72.326C73.092,71.683,71.672,71.068,70.24,70.481C66.357,68.861,63.463,66.877,61.555,64.538C59.652,62.198,58.695,59.368,58.695,56.056C58.695,53.458,59.216,51.229,60.256,49.363C61.297,47.498,62.71,45.962,64.504,44.757C66.401,43.505,68.507,42.604,70.722,42.096C73.176,41.517,75.689,41.232,78.21,41.245ZM14.277,42.041L54.732,42.041L54.732,51.204L40.213,51.204L40.213,92.009L28.72,92.009L28.72,51.204L14.277,51.204ZM14.277,42.041"/>
</g>
        <g id="Regular-M" transform="matrix(1.0,0.0,0.0,1.0,1400.3663393822044,1040.0063589134545)">  <path role="img" stroke-width="1px" stroke-opacity="1" stroke-dasharray="none" stroke-linejoin="miter" fill-rule="nonzero" stroke="none" fill-opacity="1" fill="#000000" stroke-miterlimit="4" stroke-linecap="butt" d="M4.759,0C2.124,0,0,2.124,0,4.759L0,96.768C0,99.404,2.124,101.527,4.759,101.527L96.768,101.527C99.404,101.527,101.527,99.404,101.527,96.768L101.527,4.759C101.527,2.124,99.404,0,96.768,0ZM78.21,41.245C80.799,41.245,83.092,41.402,85.093,41.715C86.98,41.998,88.832,42.48,90.617,43.153L90.617,53.551C89.76,52.959,88.85,52.447,87.897,52.024C86.915,51.582,85.901,51.215,84.864,50.924C82.9,50.377,80.871,50.092,78.832,50.078C77.563,50.078,76.408,50.197,75.367,50.442C74.44,50.641,73.55,50.986,72.732,51.466C72.012,51.906,71.463,52.435,71.069,53.048C70.673,53.666,70.468,54.387,70.477,55.121C70.477,55.95,70.701,56.699,71.137,57.359C71.577,58.019,72.203,58.645,73.011,59.237C73.819,59.829,74.8,60.405,75.955,60.971C77.11,61.542,78.417,62.13,79.872,62.731C81.861,63.565,83.646,64.453,85.228,65.388C86.81,66.327,88.168,67.389,89.302,68.573C90.435,69.754,91.298,71.103,91.899,72.622C92.5,74.14,92.804,75.904,92.804,77.922C92.804,80.702,92.276,83.041,91.227,84.928C90.202,86.788,88.73,88.366,86.945,89.517C85.021,90.737,82.889,91.592,80.655,92.039C78.261,92.546,75.735,92.8,73.083,92.8C70.472,92.812,67.866,92.579,65.299,92.106C63.078,91.722,60.924,91.02,58.903,90.021L58.903,78.895C62.726,82.149,67.576,83.947,72.596,83.972C74.005,83.972,75.236,83.845,76.285,83.591C77.338,83.337,78.214,82.982,78.921,82.533C79.623,82.076,80.147,81.543,80.498,80.926C81.291,79.458,81.169,77.666,80.185,76.319C79.557,75.487,78.788,74.771,77.914,74.204C76.829,73.485,75.688,72.857,74.5,72.326C73.092,71.683,71.672,71.068,70.24,70.481C66.357,68.861,63.463,66.877,61.555,64.538C59.652,62.198,58.695,59.368,58.695,56.056C58.695,53.458,59.216,51.229,60.256,49.363C61.297,47.498,62.71,45.962,64.504,44.757C66.401,43.505,68.507,42.604,70.722,42.096C73.176,41.517,75.689,41.232,78.21,41.245ZM14.277,42.041L54.732,42.041L54.732,51.204L40.213,51.204L40.213,92.009L28.72,92.009L28.72,51.204L14.277,51.204ZM14.277,42.041"/>
</g>
        <g id="Light-M" transform="matrix(1.0,0.0,0.0,1.0,1103.6563393822046,1040.0063589134545)">  <path fill-opacity="1" stroke-width="1px" stroke-linecap="butt" fill="#000000" stroke="none" stroke-opacity="1" stroke-linejoin="miter" fill-rule="nonzero" stroke-miterlimit="4" stroke-dasharray="none" role="img" d="M4.759,0C2.124,0,0,2.124,0,4.759L0,96.768C0,99.404,2.124,101.527,4.759,101.527L96.768,101.527C99.404,101.527,101.527,99.404,101.527,96.768L101.527,4.759C101.527,2.124,99.404,0,96.768,0ZM78.21,41.245C80.799,41.245,83.092,41.402,85.093,41.715C86.98,41.998,88.832,42.48,90.617,43.153L90.617,53.551C89.76,52.959,88.85,52.447,87.897,52.024C86.915,51.582,85.901,51.215,84.864,50.924C82.9,50.377,80.871,50.092,78.832,50.078C77.563,50.078,76.408,50.197,75.367,50.442C74.44,50.641,73.55,50.986,72.732,51.466C72.012,51.906,71.463,52.435,71.069,53.048C70.673,53.666,70.468,54.387,70.477,55.121C70.477,55.95,70.701,56.699,71.137,57.359C71.577,58.019,72.203,58.645,73.011,59.237C73.819,59.829,74.8,60.405,75.955,60.971C77.11,61.542,78.417,62.13,79.872,62.731C81.861,63.565,83.646,64.453,85.228,65.388C86.81,66.327,88.168,67.389,89.302,68.573C90.435,69.754,91.298,71.103,91.899,72.622C92.5,74.14,92.804,75.904,92.804,77.922C92.804,80.702,92.276,83.041,91.227,84.928C90.202,86.788,88.73,88.366,86.945,89.517C85.021,90.737,82.889,91.592,80.655,92.039C78.261,92.546,75.735,92.8,73.083,92.8C70.472,92.812,67.866,92.579,65.299,92.106C63.078,91.722,60.924,91.02,58.903,90.021L58.903,78.895C62.726,82.149,67.576,83.947,72.596,83.972C74.005,83.972,75.236,83.845,76.285,83.591C77.338,83.337,78.214,82.982,78.921,82.533C79.623,82.076,80.147,81.543,80.498,80.926C81.291,79.458,81.169,77.666,80.185,76.319C79.557,75.487,78.788,74.771,77.914,74.204C76.829,73.485,75.688,72.857,74.5,72.326C73.092,71.683,71.672,71.068,70.24,70.481C66.357,68.861,63.463,66.877,61.555,64.538C59.652,62.198,58.695,59.368,58.695,56.056C58.695,53.458,59.216,51.229,60.256,49.363C61.297,47.498,62.71,45.962,64.504,44.757C66.401,43.505,68.507,42.604,70.722,42.096C73.176,41.517,75.689,41.232,78.21,41.245ZM14.277,42.041L54.732,42.041L54.732,51.204L40.213,51.204L40.213,92.009L28.72,92.009L28.72,51.204L14.277,51.204ZM14.277,42.041"/>
</g>
        <g id="Thin-M" transform="matrix(1.0,0.0,0.0,1.0,806.9463393822047,1040.0063589134545)">  <path fill-opacity="1" stroke-linecap="butt" stroke-miterlimit="4" fill="#000000" stroke-dasharray="none" role="img" fill-rule="nonzero" stroke="none" stroke-width="1px" stroke-linejoin="miter" stroke-opacity="1" d="M4.759,0C2.124,0,0,2.124,0,4.759L0,96.768C0,99.404,2.124,101.527,4.759,101.527L96.768,101.527C99.404,101.527,101.527,99.404,101.527,96.768L101.527,4.759C101.527,2.124,99.404,0,96.768,0ZM78.21,41.245C80.799,41.245,83.092,41.402,85.093,41.715C86.98,41.998,88.832,42.48,90.617,43.153L90.617,53.551C89.76,52.959,88.85,52.447,87.897,52.024C86.915,51.582,85.901,51.215,84.864,50.924C82.9,50.377,80.871,50.092,78.832,50.078C77.563,50.078,76.408,50.197,75.367,50.442C74.44,50.641,73.55,50.986,72.732,51.466C72.012,51.906,71.463,52.435,71.069,53.048C70.673,53.666,70.468,54.387,70.477,55.121C70.477,55.95,70.701,56.699,71.137,57.359C71.577,58.019,72.203,58.645,73.011,59.237C73.819,59.829,74.8,60.405,75.955,60.971C77.11,61.542,78.417,62.13,79.872,62.731C81.861,63.565,83.646,64.453,85.228,65.388C86.81,66.327,88.168,67.389,89.302,68.573C90.435,69.754,91.298,71.103,91.899,72.622C92.5,74.14,92.804,75.904,92.804,77.922C92.804,80.702,92.276,83.041,91.227,84.928C90.202,86.788,88.73,88.366,86.945,89.517C85.021,90.737,82.889,91.592,80.655,92.039C78.261,92.546,75.735,92.8,73.083,92.8C70.472,92.812,67.866,92.579,65.299,92.106C63.078,91.722,60.924,91.02,58.903,90.021L58.903,78.895C62.726,82.149,67.576,83.947,72.596,83.972C74.005,83.972,75.236,83.845,76.285,83.591C77.338,83.337,78.214,82.982,78.921,82.533C79.623,82.076,80.147,81.543,80.498,80.926C81.291,79.458,81.169,77.666,80.185,76.319C79.557,75.487,78.788,74.771,77.914,74.204C76.829,73.485,75.688,72.857,74.5,72.326C73.092,71.683,71.672,71.068,70.24,70.481C66.357,68.861,63.463,66.877,61.555,64.538C59.652,62.198,58.695,59.368,58.695,56.056C58.695,53.458,59.216,51.229,60.256,49.363C61.297,47.498,62.71,45.962,64.504,44.757C66.401,43.505,68.507,42.604,70.722,42.096C73.176,41.517,75.689,41.232,78.21,41.245ZM14.277,42.041L54.732,42.041L54.732,51.204L40.213,51.204L40.213,92.009L28.72,92.009L28.72,51.204L14.277,51.204ZM14.277,42.041"/>
</g>
        <g id="Ultralight-M" transform="matrix(1.0,0.0,0.0,1.0,510.2363393822046,1040.0063589134545)">  <path stroke-linecap="butt" fill-opacity="1" stroke-linejoin="miter" stroke-width="1px" role="img" stroke-opacity="1" fill-rule="nonzero" stroke="none" stroke-miterlimit="4" stroke-dasharray="none" fill="#000000" d="M4.759,0C2.124,0,0,2.124,0,4.759L0,96.768C0,99.404,2.124,101.527,4.759,101.527L96.768,101.527C99.404,101.527,101.527,99.404,101.527,96.768L101.527,4.759C101.527,2.124,99.404,0,96.768,0ZM78.21,41.245C80.799,41.245,83.092,41.402,85.093,41.715C86.98,41.998,88.832,42.48,90.617,43.153L90.617,53.551C89.76,52.959,88.85,52.447,87.897,52.024C86.915,51.582,85.901,51.215,84.864,50.924C82.9,50.377,80.871,50.092,78.832,50.078C77.563,50.078,76.408,50.197,75.367,50.442C74.44,50.641,73.55,50.986,72.732,51.466C72.012,51.906,71.463,52.435,71.069,53.048C70.673,53.666,70.468,54.387,70.477,55.121C70.477,55.95,70.701,56.699,71.137,57.359C71.577,58.019,72.203,58.645,73.011,59.237C73.819,59.829,74.8,60.405,75.955,60.971C77.11,61.542,78.417,62.13,79.872,62.731C81.861,63.565,83.646,64.453,85.228,65.388C86.81,66.327,88.168,67.389,89.302,68.573C90.435,69.754,91.298,71.103,91.899,72.622C92.5,74.14,92.804,75.904,92.804,77.922C92.804,80.702,92.276,83.041,91.227,84.928C90.202,86.788,88.73,88.366,86.945,89.517C85.021,90.737,82.889,91.592,80.655,92.039C78.261,92.546,75.735,92.8,73.083,92.8C70.472,92.812,67.866,92.579,65.299,92.106C63.078,91.722,60.924,91.02,58.903,90.021L58.903,78.895C62.726,82.149,67.576,83.947,72.596,83.972C74.005,83.972,75.236,83.845,76.285,83.591C77.338,83.337,78.214,82.982,78.921,82.533C79.623,82.076,80.147,81.543,80.498,80.926C81.291,79.458,81.169,77.666,80.185,76.319C79.557,75.487,78.788,74.771,77.914,74.204C76.829,73.485,75.688,72.857,74.5,72.326C73.092,71.683,71.672,71.068,70.24,70.481C66.357,68.861,63.463,66.877,61.555,64.538C59.652,62.198,58.695,59.368,58.695,56.056C58.695,53.458,59.216,51.229,60.256,49.363C61.297,47.498,62.71,45.962,64.504,44.757C66.401,43.505,68.507,42.604,70.722,42.096C73.176,41.517,75.689,41.232,78.21,41.245ZM14.277,42.041L54.732,42.041L54.732,51.204L40.213,51.204L40.213,92.009L28.72,92.009L28.72,51.204L14.277,51.204ZM14.277,42.041"/>
</g>
        <g id="Black-S" transform="matrix(1.0,0.0,0.0,1.0,2894.932053736266,621.0220732675162)">  <path stroke-opacity="1" fill-rule="nonzero" stroke="none" stroke-dasharray="none" stroke-miterlimit="4" fill="#000000" stroke-width="1px" stroke-linecap="butt" role="img" fill-opacity="1" stroke-linejoin="miter" d="M3.726,0C1.663,0,0,1.663,0,3.726L0,75.77C0,77.833,1.663,79.496,3.726,79.496L75.77,79.496C77.833,79.496,79.496,77.833,79.496,75.77L79.496,3.726C79.496,1.663,77.833,0,75.77,0ZM61.238,32.295C63.265,32.295,65.061,32.418,66.627,32.663C68.105,32.884,69.555,33.262,70.953,33.789L70.953,41.931C70.282,41.467,69.569,41.066,68.824,40.735C68.055,40.389,67.261,40.101,66.449,39.874C64.91,39.445,63.322,39.222,61.725,39.211C60.732,39.211,59.827,39.304,59.012,39.496C58.286,39.652,57.59,39.922,56.949,40.298C56.386,40.642,55.955,41.056,55.647,41.537C55.337,42.021,55.176,42.585,55.183,43.16C55.183,43.809,55.359,44.395,55.7,44.912C56.045,45.429,56.535,45.919,57.167,46.383C57.8,46.846,58.569,47.297,59.473,47.741C60.377,48.188,61.401,48.648,62.54,49.119C64.097,49.771,65.495,50.467,66.733,51.199C67.972,51.934,69.036,52.765,69.923,53.693C70.811,54.617,71.487,55.674,71.957,56.863C72.427,58.052,72.666,59.433,72.666,61.013C72.666,63.189,72.252,65.021,71.43,66.498C70.628,67.955,69.476,69.19,68.078,70.092C66.572,71.047,64.902,71.717,63.153,72.066C61.278,72.464,59.301,72.663,57.224,72.663C55.18,72.672,53.139,72.49,51.129,72.119C49.39,71.819,47.703,71.269,46.121,70.486L46.121,61.775C49.114,64.323,52.912,65.73,56.843,65.75C57.946,65.75,58.91,65.65,59.731,65.452C60.556,65.253,61.242,64.975,61.795,64.624C62.345,64.266,62.755,63.848,63.03,63.365C63.65,62.216,63.555,60.812,62.785,59.758C62.293,59.106,61.691,58.546,61.006,58.102C60.157,57.539,59.263,57.047,58.333,56.631C57.231,56.128,56.119,55.646,54.998,55.187C51.957,53.918,49.692,52.365,48.198,50.533C46.707,48.701,45.959,46.485,45.959,43.892C45.959,41.858,46.366,40.112,47.181,38.652C47.996,37.191,49.102,35.988,50.506,35.044C51.992,34.064,53.641,33.359,55.376,32.961C57.297,32.508,59.265,32.285,61.238,32.295ZM11.179,32.918L42.855,32.918L42.855,40.092L31.487,40.092L31.487,72.043L22.487,72.043L22.487,40.092L11.179,40.092ZM11.179,32.918"/>
</g>
        <g id="Heavy-S" transform="matrix(1.0,0.0,0.0,1.0,2598.222053736266,621.0220732675162)">  <path stroke-width="1px" stroke="none" stroke-dasharray="none" fill-rule="nonzero" stroke-linecap="butt" fill-opacity="1" stroke-opacity="1" stroke-miterlimit="4" role="img" stroke-linejoin="miter" fill="#000000" d="M3.726,0C1.663,0,0,1.663,0,3.726L0,75.77C0,77.833,1.663,79.496,3.726,79.496L75.77,79.496C77.833,79.496,79.496,77.833,79.496,75.77L79.496,3.726C79.496,1.663,77.833,0,75.77,0ZM61.238,32.295C63.265,32.295,65.061,32.418,66.627,32.663C68.105,32.884,69.555,33.262,70.953,33.789L70.953,41.931C70.282,41.467,69.569,41.066,68.824,40.735C68.055,40.389,67.261,40.101,66.449,39.874C64.91,39.445,63.322,39.222,61.725,39.211C60.732,39.211,59.827,39.304,59.012,39.496C58.286,39.652,57.59,39.922,56.949,40.298C56.386,40.642,55.955,41.056,55.647,41.537C55.337,42.021,55.176,42.585,55.183,43.16C55.183,43.809,55.359,44.395,55.7,44.912C56.045,45.429,56.535,45.919,57.167,46.383C57.8,46.846,58.569,47.297,59.473,47.741C60.377,48.188,61.401,48.648,62.54,49.119C64.097,49.771,65.495,50.467,66.733,51.199C67.972,51.934,69.036,52.765,69.923,53.693C70.811,54.617,71.487,55.674,71.957,56.863C72.427,58.052,72.666,59.433,72.666,61.013C72.666,63.189,72.252,65.021,71.43,66.498C70.628,67.955,69.476,69.19,68.078,70.092C66.572,71.047,64.902,71.717,63.153,72.066C61.278,72.464,59.301,72.663,57.224,72.663C55.18,72.672,53.139,72.49,51.129,72.119C49.39,71.819,47.703,71.269,46.121,70.486L46.121,61.775C49.114,64.323,52.912,65.73,56.843,65.75C57.946,65.75,58.91,65.65,59.731,65.452C60.556,65.253,61.242,64.975,61.795,64.624C62.345,64.266,62.755,63.848,63.03,63.365C63.65,62.216,63.555,60.812,62.785,59.758C62.293,59.106,61.691,58.546,61.006,58.102C60.157,57.539,59.263,57.047,58.333,56.631C57.231,56.128,56.119,55.646,54.998,55.187C51.957,53.918,49.692,52.365,48.198,50.533C46.707,48.701,45.959,46.485,45.959,43.892C45.959,41.858,46.366,40.112,47.181,38.652C47.996,37.191,49.102,35.988,50.506,35.044C51.992,34.064,53.641,33.359,55.376,32.961C57.297,32.508,59.265,32.285,61.238,32.295ZM11.179,32.918L42.855,32.918L42.855,40.092L31.487,40.092L31.487,72.043L22.487,72.043L22.487,40.092L11.179,40.092ZM11.179,32.918"/>
</g>
        <g id="Bold-S" transform="matrix(1.0,0.0,0.0,1.0,2301.512053736266,621.0220732675162)">  <path fill-rule="nonzero" stroke="none" stroke-miterlimit="4" role="img" stroke-linejoin="miter" stroke-linecap="butt" stroke-opacity="1" stroke-width="1px" fill="#000000" fill-opacity="1" stroke-dasharray="none" d="M3.726,0C1.663,0,0,1.663,0,3.726L0,75.77C0,77.833,1.663,79.496,3.726,79.496L75.77,79.496C77.833,79.496,79.496,77.833,79.496,75.77L79.496,3.726C79.496,1.663,77.833,0,75.77,0ZM61.238,32.295C63.265,32.295,65.061,32.418,66.627,32.663C68.105,32.884,69.555,33.262,70.953,33.789L70.953,41.931C70.282,41.467,69.569,41.066,68.824,40.735C68.055,40.389,67.261,40.101,66.449,39.874C64.91,39.445,63.322,39.222,61.725,39.211C60.732,39.211,59.827,39.304,59.012,39.496C58.286,39.652,57.59,39.922,56.949,40.298C56.386,40.642,55.955,41.056,55.647,41.537C55.337,42.021,55.176,42.585,55.183,43.16C55.183,43.809,55.359,44.395,55.7,44.912C56.045,45.429,56.535,45.919,57.167,46.383C57.8,46.846,58.569,47.297,59.473,47.741C60.377,48.188,61.401,48.648,62.54,49.119C64.097,49.771,65.495,50.467,66.733,51.199C67.972,51.934,69.036,52.765,69.923,53.693C70.811,54.617,71.487,55.674,71.957,56.863C72.427,58.052,72.666,59.433,72.666,61.013C72.666,63.189,72.252,65.021,71.43,66.498C70.628,67.955,69.476,69.19,68.078,70.092C66.572,71.047,64.902,71.717,63.153,72.066C61.278,72.464,59.301,72.663,57.224,72.663C55.18,72.672,53.139,72.49,51.129,72.119C49.39,71.819,47.703,71.269,46.121,70.486L46.121,61.775C49.114,64.323,52.912,65.73,56.843,65.75C57.946,65.75,58.91,65.65,59.731,65.452C60.556,65.253,61.242,64.975,61.795,64.624C62.345,64.266,62.755,63.848,63.03,63.365C63.65,62.216,63.555,60.812,62.785,59.758C62.293,59.106,61.691,58.546,61.006,58.102C60.157,57.539,59.263,57.047,58.333,56.631C57.231,56.128,56.119,55.646,54.998,55.187C51.957,53.918,49.692,52.365,48.198,50.533C46.707,48.701,45.959,46.485,45.959,43.892C45.959,41.858,46.366,40.112,47.181,38.652C47.996,37.191,49.102,35.988,50.506,35.044C51.992,34.064,53.641,33.359,55.376,32.961C57.297,32.508,59.265,32.285,61.238,32.295ZM11.179,32.918L42.855,32.918L42.855,40.092L31.487,40.092L31.487,72.043L22.487,72.043L22.487,40.092L11.179,40.092ZM11.179,32.918"/>
</g>
        <g id="Semibold-S" transform="matrix(1.0,0.0,0.0,1.0,2004.802053736266,621.0220732675162)">  <path stroke-linejoin="miter" role="img" fill="#000000" stroke-width="1px" stroke-dasharray="none" stroke="none" stroke-linecap="butt" fill-opacity="1" stroke-miterlimit="4" stroke-opacity="1" fill-rule="nonzero" d="M3.726,0C1.663,0,0,1.663,0,3.726L0,75.77C0,77.833,1.663,79.496,3.726,79.496L75.77,79.496C77.833,79.496,79.496,77.833,79.496,75.77L79.496,3.726C79.496,1.663,77.833,0,75.77,0ZM61.238,32.295C63.265,32.295,65.061,32.418,66.627,32.663C68.105,32.884,69.555,33.262,70.953,33.789L70.953,41.931C70.282,41.467,69.569,41.066,68.824,40.735C68.055,40.389,67.261,40.101,66.449,39.874C64.91,39.445,63.322,39.222,61.725,39.211C60.732,39.211,59.827,39.304,59.012,39.496C58.286,39.652,57.59,39.922,56.949,40.298C56.386,40.642,55.955,41.056,55.647,41.537C55.337,42.021,55.176,42.585,55.183,43.16C55.183,43.809,55.359,44.395,55.7,44.912C56.045,45.429,56.535,45.919,57.167,46.383C57.8,46.846,58.569,47.297,59.473,47.741C60.377,48.188,61.401,48.648,62.54,49.119C64.097,49.771,65.495,50.467,66.733,51.199C67.972,51.934,69.036,52.765,69.923,53.693C70.811,54.617,71.487,55.674,71.957,56.863C72.427,58.052,72.666,59.433,72.666,61.013C72.666,63.189,72.252,65.021,71.43,66.498C70.628,67.955,69.476,69.19,68.078,70.092C66.572,71.047,64.902,71.717,63.153,72.066C61.278,72.464,59.301,72.663,57.224,72.663C55.18,72.672,53.139,72.49,51.129,72.119C49.39,71.819,47.703,71.269,46.121,70.486L46.121,61.775C49.114,64.323,52.912,65.73,56.843,65.75C57.946,65.75,58.91,65.65,59.731,65.452C60.556,65.253,61.242,64.975,61.795,64.624C62.345,64.266,62.755,63.848,63.03,63.365C63.65,62.216,63.555,60.812,62.785,59.758C62.293,59.106,61.691,58.546,61.006,58.102C60.157,57.539,59.263,57.047,58.333,56.631C57.231,56.128,56.119,55.646,54.998,55.187C51.957,53.918,49.692,52.365,48.198,50.533C46.707,48.701,45.959,46.485,45.959,43.892C45.959,41.858,46.366,40.112,47.181,38.652C47.996,37.191,49.102,35.988,50.506,35.044C51.992,34.064,53.641,33.359,55.376,32.961C57.297,32.508,59.265,32.285,61.238,32.295ZM11.179,32.918L42.855,32.918L42.855,40.092L31.487,40.092L31.487,72.043L22.487,72.043L22.487,40.092L11.179,40.092ZM11.179,32.918"/>
</g>
        <g id="Medium-S" transform="matrix(1.0,0.0,0.0,1.0,1708.092053736266,621.0220732675162)">  <path role="img" fill="#000000" stroke-linejoin="miter" stroke-opacity="1" stroke="none" stroke-linecap="butt" stroke-dasharray="none" fill-rule="nonzero" stroke-width="1px" fill-opacity="1" stroke-miterlimit="4" d="M3.726,0C1.663,0,0,1.663,0,3.726L0,75.77C0,77.833,1.663,79.496,3.726,79.496L75.77,79.496C77.833,79.496,79.496,77.833,79.496,75.77L79.496,3.726C79.496,1.663,77.833,0,75.77,0ZM61.238,32.295C63.265,32.295,65.061,32.418,66.627,32.663C68.105,32.884,69.555,33.262,70.953,33.789L70.953,41.931C70.282,41.467,69.569,41.066,68.824,40.735C68.055,40.389,67.261,40.101,66.449,39.874C64.91,39.445,63.322,39.222,61.725,39.211C60.732,39.211,59.827,39.304,59.012,39.496C58.286,39.652,57.59,39.922,56.949,40.298C56.386,40.642,55.955,41.056,55.647,41.537C55.337,42.021,55.176,42.585,55.183,43.16C55.183,43.809,55.359,44.395,55.7,44.912C56.045,45.429,56.535,45.919,57.167,46.383C57.8,46.846,58.569,47.297,59.473,47.741C60.377,48.188,61.401,48.648,62.54,49.119C64.097,49.771,65.495,50.467,66.733,51.199C67.972,51.934,69.036,52.765,69.923,53.693C70.811,54.617,71.487,55.674,71.957,56.863C72.427,58.052,72.666,59.433,72.666,61.013C72.666,63.189,72.252,65.021,71.43,66.498C70.628,67.955,69.476,69.19,68.078,70.092C66.572,71.047,64.902,71.717,63.153,72.066C61.278,72.464,59.301,72.663,57.224,72.663C55.18,72.672,53.139,72.49,51.129,72.119C49.39,71.819,47.703,71.269,46.121,70.486L46.121,61.775C49.114,64.323,52.912,65.73,56.843,65.75C57.946,65.75,58.91,65.65,59.731,65.452C60.556,65.253,61.242,64.975,61.795,64.624C62.345,64.266,62.755,63.848,63.03,63.365C63.65,62.216,63.555,60.812,62.785,59.758C62.293,59.106,61.691,58.546,61.006,58.102C60.157,57.539,59.263,57.047,58.333,56.631C57.231,56.128,56.119,55.646,54.998,55.187C51.957,53.918,49.692,52.365,48.198,50.533C46.707,48.701,45.959,46.485,45.959,43.892C45.959,41.858,46.366,40.112,47.181,38.652C47.996,37.191,49.102,35.988,50.506,35.044C51.992,34.064,53.641,33.359,55.376,32.961C57.297,32.508,59.265,32.285,61.238,32.295ZM11.179,32.918L42.855,32.918L42.855,40.092L31.487,40.092L31.487,72.043L22.487,72.043L22.487,40.092L11.179,40.092ZM11.179,32.918"/>
</g>
        <g id="Regular-S" transform="matrix(1.0,0.0,0.0,1.0,1411.382053736266,621.0220732675162)">  <path role="img" stroke-width="1px" stroke-opacity="1" stroke-dasharray="none" stroke-linejoin="miter" fill-rule="nonzero" stroke="none" fill-opacity="1" fill="#000000" stroke-miterlimit="4" stroke-linecap="butt" d="M3.726,0C1.663,0,0,1.663,0,3.726L0,75.77C0,77.833,1.663,79.496,3.726,79.496L75.77,79.496C77.833,79.496,79.496,77.833,79.496,75.77L79.496,3.726C79.496,1.663,77.833,0,75.77,0ZM61.238,32.295C63.265,32.295,65.061,32.418,66.627,32.663C68.105,32.884,69.555,33.262,70.953,33.789L70.953,41.931C70.282,41.467,69.569,41.066,68.824,40.735C68.055,40.389,67.261,40.101,66.449,39.874C64.91,39.445,63.322,39.222,61.725,39.211C60.732,39.211,59.827,39.304,59.012,39.496C58.286,39.652,57.59,39.922,56.949,40.298C56.386,40.642,55.955,41.056,55.647,41.537C55.337,42.021,55.176,42.585,55.183,43.16C55.183,43.809,55.359,44.395,55.7,44.912C56.045,45.429,56.535,45.919,57.167,46.383C57.8,46.846,58.569,47.297,59.473,47.741C60.377,48.188,61.401,48.648,62.54,49.119C64.097,49.771,65.495,50.467,66.733,51.199C67.972,51.934,69.036,52.765,69.923,53.693C70.811,54.617,71.487,55.674,71.957,56.863C72.427,58.052,72.666,59.433,72.666,61.013C72.666,63.189,72.252,65.021,71.43,66.498C70.628,67.955,69.476,69.19,68.078,70.092C66.572,71.047,64.902,71.717,63.153,72.066C61.278,72.464,59.301,72.663,57.224,72.663C55.18,72.672,53.139,72.49,51.129,72.119C49.39,71.819,47.703,71.269,46.121,70.486L46.121,61.775C49.114,64.323,52.912,65.73,56.843,65.75C57.946,65.75,58.91,65.65,59.731,65.452C60.556,65.253,61.242,64.975,61.795,64.624C62.345,64.266,62.755,63.848,63.03,63.365C63.65,62.216,63.555,60.812,62.785,59.758C62.293,59.106,61.691,58.546,61.006,58.102C60.157,57.539,59.263,57.047,58.333,56.631C57.231,56.128,56.119,55.646,54.998,55.187C51.957,53.918,49.692,52.365,48.198,50.533C46.707,48.701,45.959,46.485,45.959,43.892C45.959,41.858,46.366,40.112,47.181,38.652C47.996,37.191,49.102,35.988,50.506,35.044C51.992,34.064,53.641,33.359,55.376,32.961C57.297,32.508,59.265,32.285,61.238,32.295ZM11.179,32.918L42.855,32.918L42.855,40.092L31.487,40.092L31.487,72.043L22.487,72.043L22.487,40.092L11.179,40.092ZM11.179,32.918"/>
</g>
        <g id="Light-S" transform="matrix(1.0,0.0,0.0,1.0,1114.6720537362662,621.0220732675162)">  <path fill-opacity="1" stroke-width="1px" stroke-linecap="butt" fill="#000000" stroke="none" stroke-opacity="1" stroke-linejoin="miter" fill-rule="nonzero" stroke-miterlimit="4" stroke-dasharray="none" role="img" d="M3.726,0C1.663,0,0,1.663,0,3.726L0,75.77C0,77.833,1.663,79.496,3.726,79.496L75.77,79.496C77.833,79.496,79.496,77.833,79.496,75.77L79.496,3.726C79.496,1.663,77.833,0,75.77,0ZM61.238,32.295C63.265,32.295,65.061,32.418,66.627,32.663C68.105,32.884,69.555,33.262,70.953,33.789L70.953,41.931C70.282,41.467,69.569,41.066,68.824,40.735C68.055,40.389,67.261,40.101,66.449,39.874C64.91,39.445,63.322,39.222,61.725,39.211C60.732,39.211,59.827,39.304,59.012,39.496C58.286,39.652,57.59,39.922,56.949,40.298C56.386,40.642,55.955,41.056,55.647,41.537C55.337,42.021,55.176,42.585,55.183,43.16C55.183,43.809,55.359,44.395,55.7,44.912C56.045,45.429,56.535,45.919,57.167,46.383C57.8,46.846,58.569,47.297,59.473,47.741C60.377,48.188,61.401,48.648,62.54,49.119C64.097,49.771,65.495,50.467,66.733,51.199C67.972,51.934,69.036,52.765,69.923,53.693C70.811,54.617,71.487,55.674,71.957,56.863C72.427,58.052,72.666,59.433,72.666,61.013C72.666,63.189,72.252,65.021,71.43,66.498C70.628,67.955,69.476,69.19,68.078,70.092C66.572,71.047,64.902,71.717,63.153,72.066C61.278,72.464,59.301,72.663,57.224,72.663C55.18,72.672,53.139,72.49,51.129,72.119C49.39,71.819,47.703,71.269,46.121,70.486L46.121,61.775C49.114,64.323,52.912,65.73,56.843,65.75C57.946,65.75,58.91,65.65,59.731,65.452C60.556,65.253,61.242,64.975,61.795,64.624C62.345,64.266,62.755,63.848,63.03,63.365C63.65,62.216,63.555,60.812,62.785,59.758C62.293,59.106,61.691,58.546,61.006,58.102C60.157,57.539,59.263,57.047,58.333,56.631C57.231,56.128,56.119,55.646,54.998,55.187C51.957,53.918,49.692,52.365,48.198,50.533C46.707,48.701,45.959,46.485,45.959,43.892C45.959,41.858,46.366,40.112,47.181,38.652C47.996,37.191,49.102,35.988,50.506,35.044C51.992,34.064,53.641,33.359,55.376,32.961C57.297,32.508,59.265,32.285,61.238,32.295ZM11.179,32.918L42.855,32.918L42.855,40.092L31.487,40.092L31.487,72.043L22.487,72.043L22.487,40.092L11.179,40.092ZM11.179,32.918"/>
</g>
        <g id="Thin-S" transform="matrix(1.0,0.0,0.0,1.0,817.9620537362663,621.0220732675162)">  <path fill-opacity="1" stroke-linecap="butt" stroke-miterlimit="4" fill="#000000" stroke-dasharray="none" role="img" fill-rule="nonzero" stroke="none" stroke-width="1px" stroke-linejoin="miter" stroke-opacity="1" d="M3.726,0C1.663,0,0,1.663,0,3.726L0,75.77C0,77.833,1.663,79.496,3.726,79.496L75.77,79.496C77.833,79.496,79.496,77.833,79.496,75.77L79.496,3.726C79.496,1.663,77.833,0,75.77,0ZM61.238,32.295C63.265,32.295,65.061,32.418,66.627,32.663C68.105,32.884,69.555,33.262,70.953,33.789L70.953,41.931C70.282,41.467,69.569,41.066,68.824,40.735C68.055,40.389,67.261,40.101,66.449,39.874C64.91,39.445,63.322,39.222,61.725,39.211C60.732,39.211,59.827,39.304,59.012,39.496C58.286,39.652,57.59,39.922,56.949,40.298C56.386,40.642,55.955,41.056,55.647,41.537C55.337,42.021,55.176,42.585,55.183,43.16C55.183,43.809,55.359,44.395,55.7,44.912C56.045,45.429,56.535,45.919,57.167,46.383C57.8,46.846,58.569,47.297,59.473,47.741C60.377,48.188,61.401,48.648,62.54,49.119C64.097,49.771,65.495,50.467,66.733,51.199C67.972,51.934,69.036,52.765,69.923,53.693C70.811,54.617,71.487,55.674,71.957,56.863C72.427,58.052,72.666,59.433,72.666,61.013C72.666,63.189,72.252,65.021,71.43,66.498C70.628,67.955,69.476,69.19,68.078,70.092C66.572,71.047,64.902,71.717,63.153,72.066C61.278,72.464,59.301,72.663,57.224,72.663C55.18,72.672,53.139,72.49,51.129,72.119C49.39,71.819,47.703,71.269,46.121,70.486L46.121,61.775C49.114,64.323,52.912,65.73,56.843,65.75C57.946,65.75,58.91,65.65,59.731,65.452C60.556,65.253,61.242,64.975,61.795,64.624C62.345,64.266,62.755,63.848,63.03,63.365C63.65,62.216,63.555,60.812,62.785,59.758C62.293,59.106,61.691,58.546,61.006,58.102C60.157,57.539,59.263,57.047,58.333,56.631C57.231,56.128,56.119,55.646,54.998,55.187C51.957,53.918,49.692,52.365,48.198,50.533C46.707,48.701,45.959,46.485,45.959,43.892C45.959,41.858,46.366,40.112,47.181,38.652C47.996,37.191,49.102,35.988,50.506,35.044C51.992,34.064,53.641,33.359,55.376,32.961C57.297,32.508,59.265,32.285,61.238,32.295ZM11.179,32.918L42.855,32.918L42.855,40.092L31.487,40.092L31.487,72.043L22.487,72.043L22.487,40.092L11.179,40.092ZM11.179,32.918"/>
</g>
        <g id="Ultralight-S" transform="matrix(1.0,0.0,0.0,1.0,521.2520537362662,621.0220732675162)">  <path stroke-linecap="butt" fill-opacity="1" stroke-linejoin="miter" stroke-width="1px" role="img" stroke-opacity="1" fill-rule="nonzero" stroke="none" stroke-miterlimit="4" stroke-dasharray="none" fill="#000000" d="M3.726,0C1.663,0,0,1.663,0,3.726L0,75.77C0,77.833,1.663,79.496,3.726,79.496L75.77,79.496C77.833,79.496,79.496,77.833,79.496,75.77L79.496,3.726C79.496,1.663,77.833,0,75.77,0ZM61.238,32.295C63.265,32.295,65.061,32.418,66.627,32.663C68.105,32.884,69.555,33.262,70.953,33.789L70.953,41.931C70.282,41.467,69.569,41.066,68.824,40.735C68.055,40.389,67.261,40.101,66.449,39.874C64.91,39.445,63.322,39.222,61.725,39.211C60.732,39.211,59.827,39.304,59.012,39.496C58.286,39.652,57.59,39.922,56.949,40.298C56.386,40.642,55.955,41.056,55.647,41.537C55.337,42.021,55.176,42.585,55.183,43.16C55.183,43.809,55.359,44.395,55.7,44.912C56.045,45.429,56.535,45.919,57.167,46.383C57.8,46.846,58.569,47.297,59.473,47.741C60.377,48.188,61.401,48.648,62.54,49.119C64.097,49.771,65.495,50.467,66.733,51.199C67.972,51.934,69.036,52.765,69.923,53.693C70.811,54.617,71.487,55.674,71.957,56.863C72.427,58.052,72.666,59.433,72.666,61.013C72.666,63.189,72.252,65.021,71.43,66.498C70.628,67.955,69.476,69.19,68.078,70.092C66.572,71.047,64.902,71.717,63.153,72.066C61.278,72.464,59.301,72.663,57.224,72.663C55.18,72.672,53.139,72.49,51.129,72.119C49.39,71.819,47.703,71.269,46.121,70.486L46.121,61.775C49.114,64.323,52.912,65.73,56.843,65.75C57.946,65.75,58.91,65.65,59.731,65.452C60.556,65.253,61.242,64.975,61.795,64.624C62.345,64.266,62.755,63.848,63.03,63.365C63.65,62.216,63.555,60.812,62.785,59.758C62.293,59.106,61.691,58.546,61.006,58.102C60.157,57.539,59.263,57.047,58.333,56.631C57.231,56.128,56.119,55.646,54.998,55.187C51.957,53.918,49.692,52.365,48.198,50.533C46.707,48.701,45.959,46.485,45.959,43.892C45.959,41.858,46.366,40.112,47.181,38.652C47.996,37.191,49.102,35.988,50.506,35.044C51.992,34.064,53.641,33.359,55.376,32.961C57.297,32.508,59.265,32.285,61.238,32.295ZM11.179,32.918L42.855,32.918L42.855,40.092L31.487,40.092L31.487,72.043L22.487,72.043L22.487,40.092L11.179,40.092ZM11.179,32.918"/>
</g>
    </g>
    </g>
</svg>
