<?xml version="1.0" encoding="UTF-8"?>
<!--Generator: CustomSymbols by @serious_bret-->
<!DOCTYPE svg
        PUBLIC "-//W3C//DTD SVG 1.1//EN"
        "http://www.w3.org/Graphics/SVG/1.1/DTD/svg11.dtd">
<svg version="1.1" xmlns="http://www.w3.org/2000/svg" xmlns:xlink="http://www.w3.org/1999/xlink" width="2900" height="1500">
    <g transform="translate(-200 -200)">
    <!--template writer version: "8"-->
    <g id="Notes">
        <rect height="2200" id="artboard" style="fill:white;opacity:1" width="3300" x="0" y="0"/>
        <line id="" style="fill:none;stroke:black;opacity:1;stroke-width:0.5;" x1="263" x2="3036" y1="292" y2="292"/>
        <text id="reftext1" style="stroke:none;fill:black;font-family:-apple-system,&quot;SF Pro Display&quot;,&quot;SF Pro Text&quot;,Helvetica,sans-serif;font-weight:bold;" transform="matrix(1 0 0 1 263 322)">Weight/Scale Variations</text>
        <text id="reftext2" style="stroke:none;fill:black;font-family:-apple-system,&quot;SF Pro Display&quot;,&quot;SF Pro Text&quot;,Helvetica,sans-serif;text-anchor:middle;" transform="matrix(1 0 0 1 559.711 322)">Ultralight</text>
        <text style="stroke:none;fill:black;font-family:-apple-system,&quot;SF Pro Display&quot;,&quot;SF Pro Text&quot;,Helvetica,sans-serif;text-anchor:middle;" transform="matrix(1 0 0 1 856.422 322)">Thin</text>
        <text style="stroke:none;fill:black;font-family:-apple-system,&quot;SF Pro Display&quot;,&quot;SF Pro Text&quot;,Helvetica,sans-serif;text-anchor:middle;" transform="matrix(1 0 0 1 1153.13 322)">Light</text>
        <text style="stroke:none;fill:black;font-family:-apple-system,&quot;SF Pro Display&quot;,&quot;SF Pro Text&quot;,Helvetica,sans-serif;text-anchor:middle;" transform="matrix(1 0 0 1 1449.84 322)">Regular</text>
        <text style="stroke:none;fill:black;font-family:-apple-system,&quot;SF Pro Display&quot;,&quot;SF Pro Text&quot;,Helvetica,sans-serif;text-anchor:middle;" transform="matrix(1 0 0 1 1746.56 322)">Medium</text>
        <text style="stroke:none;fill:black;font-family:-apple-system,&quot;SF Pro Display&quot;,&quot;SF Pro Text&quot;,Helvetica,sans-serif;text-anchor:middle;" transform="matrix(1 0 0 1 2043.27 322)">Semibold</text>
        <text style="stroke:none;fill:black;font-family:-apple-system,&quot;SF Pro Display&quot;,&quot;SF Pro Text&quot;,Helvetica,sans-serif;text-anchor:middle;" transform="matrix(1 0 0 1 2339.98 322)">Bold</text>
        <text style="stroke:none;fill:black;font-family:-apple-system,&quot;SF Pro Display&quot;,&quot;SF Pro Text&quot;,Helvetica,sans-serif;text-anchor:middle;" transform="matrix(1 0 0 1 2636.69 322)">Heavy</text>
        <text style="stroke:none;fill:black;font-family:-apple-system,&quot;SF Pro Display&quot;,&quot;SF Pro Text&quot;,Helvetica,sans-serif;text-anchor:middle;" transform="matrix(1 0 0 1 2933.4 322)">Black</text>

        <text style="stroke:none;fill:black;font-family:-apple-system,&quot;SF Pro Display&quot;,&quot;SF Pro Text&quot;,Helvetica,sans-serif;" transform="matrix(1 0 0 1 263 726)">Small</text>
        <text style="stroke:none;fill:black;font-family:-apple-system,&quot;SF Pro Display&quot;,&quot;SF Pro Text&quot;,Helvetica,sans-serif;" transform="matrix(1 0 0 1 263 1156)">Medium</text>
        <text style="stroke:none;fill:black;font-family:-apple-system,&quot;SF Pro Display&quot;,&quot;SF Pro Text&quot;,Helvetica,sans-serif;" transform="matrix(1 0 0 1 263 1586)">Large</text>
    </g>
    <g id="Guides">
        <g id="H-reference" style="fill:#27AAE1;stroke:none;" transform="matrix(1 0 0 1 339 696)">
            <path d="M0.976562 0L3.66211 0L12.9883-24.4629L45.752-24.4629L55.127 0L57.7637 0L30.6152-70.459L28.125-70.459ZM29.3457-67.1387L29.4434-67.1387L44.873-26.709L13.8672-26.709Z"/>
        </g>
        <line id="Baseline-S" style="fill:none;stroke:#27AAE1;opacity:1;stroke-width:0.5;" x1="263" x2="3036" y1="696" y2="696"/>
        <line id="Capline-S" style="fill:none;stroke:#27AAE1;opacity:1;stroke-width:0.5;" x1="263" x2="3036" y1="625.541" y2="625.541"/>
        <g id="H-reference" style="fill:#27AAE1;stroke:none;" transform="matrix(1 0 0 1 339 1126)">
            <path d="M0.976562 0L3.66211 0L12.9883-24.4629L45.752-24.4629L55.127 0L57.7637 0L30.6152-70.459L28.125-70.459ZM29.3457-67.1387L29.4434-67.1387L44.873-26.709L13.8672-26.709Z"/>
        </g>
        <line id="Baseline-M" style="fill:none;stroke:#27AAE1;opacity:1;stroke-width:0.5;" x1="263" x2="3036" y1="1126" y2="1126"/>
        <line id="Capline-M" style="fill:none;stroke:#27AAE1;opacity:1;stroke-width:0.5;" x1="263" x2="3036" y1="1055.54" y2="1055.54"/>
        <g id="H-reference" style="fill:#27AAE1;stroke:none;" transform="matrix(1 0 0 1 339 1556)">
            <path d="M0.976562 0L3.66211 0L12.9883-24.4629L45.752-24.4629L55.127 0L57.7637 0L30.6152-70.459L28.125-70.459ZM29.3457-67.1387L29.4434-67.1387L44.873-26.709L13.8672-26.709Z"/>
        </g>
        <line id="Baseline-L" style="fill:none;stroke:#27AAE1;opacity:1;stroke-width:0.5;" x1="263" x2="3036" y1="1556" y2="1556"/>
        <line id="Capline-L" style="fill:none;stroke:#27AAE1;opacity:1;stroke-width:0.5;" x1="263" x2="3036" y1="1485.54" y2="1485.54"/>
        <line id="left-margin" x1="1417.3214020285482" x2="1417.3214020285482" y1="1030.79" y2="1150.12" style="fill:none;stroke:#00AEEF;stroke-width:0.5;opacity:1.0;"/>
        <line id="right-margin" x1="1484.9385979714516" x2="1484.9385979714516" y1="1030.79" y2="1150.12" style="fill:none;stroke:#00AEEF;stroke-width:0.5;opacity:1.0;"/>
    </g>
    <g id="Symbols">
        <g id="Black-L" transform="matrix(1.0,0.0,0.0,1.0,2869.1948778030437,1455.2848973342939)">  <path role="img" stroke-miterlimit="4" stroke-width="1px" stroke="none" stroke-linecap="butt" fill-opacity="1" fill-rule="nonzero" stroke-opacity="1" stroke-dasharray="none" stroke-linejoin="miter" fill="#000000" d="M109.993,0.453C126.545,3.318,131.238,14.63,130.888,26.483L130.97,26.314L123.521,123.931L26.685,130.566L26.773,130.566C18.734,130.228,0.819,129.491,0,104.443L8.977,88.072L24.36,124.012L27.105,130.408L42.413,80.509L42.249,80.547L42.336,80.383L92.842,96.514L85.223,66.877L79.821,45.594L127.952,42.489L124.596,39.706L90.042,11.536L110.01,0.398L109.993,0.453ZM0,104.17ZM27.995,27.684C47.428,8.404,72.508,-2.99,82.14,6.729C91.756,16.426,81.567,40.044,62.096,59.313C42.653,78.588,17.877,90.604,8.267,80.907C-1.37,71.21,8.513,46.98,27.979,27.7L27.995,27.684ZM27.995,27.684"/>
</g>
        <g id="Heavy-L" transform="matrix(1.0,0.0,0.0,1.0,2572.4848778030437,1455.2848973342939)">  <path role="img" fill-rule="nonzero" fill-opacity="1" stroke-linecap="butt" stroke-opacity="1" stroke-width="1px" stroke="none" fill="#000000" stroke-linejoin="miter" stroke-miterlimit="4" stroke-dasharray="none" d="M109.993,0.453C126.545,3.318,131.238,14.63,130.888,26.483L130.97,26.314L123.521,123.931L26.685,130.566L26.773,130.566C18.734,130.228,0.819,129.491,0,104.443L8.977,88.072L24.36,124.012L27.105,130.408L42.413,80.509L42.249,80.547L42.336,80.383L92.842,96.514L85.223,66.877L79.821,45.594L127.952,42.489L124.596,39.706L90.042,11.536L110.01,0.398L109.993,0.453ZM0,104.17ZM27.995,27.684C47.428,8.404,72.508,-2.99,82.14,6.729C91.756,16.426,81.567,40.044,62.096,59.313C42.653,78.588,17.877,90.604,8.267,80.907C-1.37,71.21,8.513,46.98,27.979,27.7L27.995,27.684ZM27.995,27.684"/>
</g>
        <g id="Bold-L" transform="matrix(1.0,0.0,0.0,1.0,2275.7748778030436,1455.2848973342939)">  <path fill="#000000" stroke-width="1px" stroke-linejoin="miter" stroke-opacity="1" fill-opacity="1" role="img" stroke-miterlimit="4" stroke-linecap="butt" stroke-dasharray="none" fill-rule="nonzero" stroke="none" d="M109.993,0.453C126.545,3.318,131.238,14.63,130.888,26.483L130.97,26.314L123.521,123.931L26.685,130.566L26.773,130.566C18.734,130.228,0.819,129.491,0,104.443L8.977,88.072L24.36,124.012L27.105,130.408L42.413,80.509L42.249,80.547L42.336,80.383L92.842,96.514L85.223,66.877L79.821,45.594L127.952,42.489L124.596,39.706L90.042,11.536L110.01,0.398L109.993,0.453ZM0,104.17ZM27.995,27.684C47.428,8.404,72.508,-2.99,82.14,6.729C91.756,16.426,81.567,40.044,62.096,59.313C42.653,78.588,17.877,90.604,8.267,80.907C-1.37,71.21,8.513,46.98,27.979,27.7L27.995,27.684ZM27.995,27.684"/>
</g>
        <g id="Semibold-L" transform="matrix(1.0,0.0,0.0,1.0,1979.0648778030438,1455.2848973342939)">  <path stroke-opacity="1" fill="#000000" fill-opacity="1" stroke="none" stroke-miterlimit="4" stroke-linecap="butt" stroke-width="1px" fill-rule="nonzero" stroke-linejoin="miter" stroke-dasharray="none" role="img" d="M109.993,0.453C126.545,3.318,131.238,14.63,130.888,26.483L130.97,26.314L123.521,123.931L26.685,130.566L26.773,130.566C18.734,130.228,0.819,129.491,0,104.443L8.977,88.072L24.36,124.012L27.105,130.408L42.413,80.509L42.249,80.547L42.336,80.383L92.842,96.514L85.223,66.877L79.821,45.594L127.952,42.489L124.596,39.706L90.042,11.536L110.01,0.398L109.993,0.453ZM0,104.17ZM27.995,27.684C47.428,8.404,72.508,-2.99,82.14,6.729C91.756,16.426,81.567,40.044,62.096,59.313C42.653,78.588,17.877,90.604,8.267,80.907C-1.37,71.21,8.513,46.98,27.979,27.7L27.995,27.684ZM27.995,27.684"/>
</g>
        <g id="Medium-L" transform="matrix(1.0,0.0,0.0,1.0,1682.3548778030438,1455.2848973342939)">  <path stroke-dasharray="none" stroke-linejoin="miter" stroke-linecap="butt" stroke-width="1px" stroke="none" fill-rule="nonzero" stroke-miterlimit="4" stroke-opacity="1" fill-opacity="1" role="img" fill="#000000" d="M109.993,0.453C126.545,3.318,131.238,14.63,130.888,26.483L130.97,26.314L123.521,123.931L26.685,130.566L26.773,130.566C18.734,130.228,0.819,129.491,0,104.443L8.977,88.072L24.36,124.012L27.105,130.408L42.413,80.509L42.249,80.547L42.336,80.383L92.842,96.514L85.223,66.877L79.821,45.594L127.952,42.489L124.596,39.706L90.042,11.536L110.01,0.398L109.993,0.453ZM0,104.17ZM27.995,27.684C47.428,8.404,72.508,-2.99,82.14,6.729C91.756,16.426,81.567,40.044,62.096,59.313C42.653,78.588,17.877,90.604,8.267,80.907C-1.37,71.21,8.513,46.98,27.979,27.7L27.995,27.684ZM27.995,27.684"/>
</g>
        <g id="Regular-L" transform="matrix(1.0,0.0,0.0,1.0,1385.6448778030438,1455.2848973342939)">  <path fill-rule="nonzero" stroke="none" fill="#000000" stroke-linecap="butt" stroke-opacity="1" stroke-dasharray="none" fill-opacity="1" role="img" stroke-linejoin="miter" stroke-width="1px" stroke-miterlimit="4" d="M109.993,0.453C126.545,3.318,131.238,14.63,130.888,26.483L130.97,26.314L123.521,123.931L26.685,130.566L26.773,130.566C18.734,130.228,0.819,129.491,0,104.443L8.977,88.072L24.36,124.012L27.105,130.408L42.413,80.509L42.249,80.547L42.336,80.383L92.842,96.514L85.223,66.877L79.821,45.594L127.952,42.489L124.596,39.706L90.042,11.536L110.01,0.398L109.993,0.453ZM0,104.17ZM27.995,27.684C47.428,8.404,72.508,-2.99,82.14,6.729C91.756,16.426,81.567,40.044,62.096,59.313C42.653,78.588,17.877,90.604,8.267,80.907C-1.37,71.21,8.513,46.98,27.979,27.7L27.995,27.684ZM27.995,27.684"/>
</g>
        <g id="Light-L" transform="matrix(1.0,0.0,0.0,1.0,1088.934877803044,1455.2848973342939)">  <path stroke-dasharray="none" stroke-width="1px" stroke-miterlimit="4" stroke-opacity="1" role="img" fill-rule="nonzero" stroke-linejoin="miter" stroke-linecap="butt" fill="#000000" stroke="none" fill-opacity="1" d="M109.993,0.453C126.545,3.318,131.238,14.63,130.888,26.483L130.97,26.314L123.521,123.931L26.685,130.566L26.773,130.566C18.734,130.228,0.819,129.491,0,104.443L8.977,88.072L24.36,124.012L27.105,130.408L42.413,80.509L42.249,80.547L42.336,80.383L92.842,96.514L85.223,66.877L79.821,45.594L127.952,42.489L124.596,39.706L90.042,11.536L110.01,0.398L109.993,0.453ZM0,104.17ZM27.995,27.684C47.428,8.404,72.508,-2.99,82.14,6.729C91.756,16.426,81.567,40.044,62.096,59.313C42.653,78.588,17.877,90.604,8.267,80.907C-1.37,71.21,8.513,46.98,27.979,27.7L27.995,27.684ZM27.995,27.684"/>
</g>
        <g id="Thin-L" transform="matrix(1.0,0.0,0.0,1.0,792.224877803044,1455.2848973342939)">  <path role="img" fill-rule="nonzero" stroke-linecap="butt" stroke-opacity="1" fill="#000000" stroke-dasharray="none" fill-opacity="1" stroke="none" stroke-linejoin="miter" stroke-width="1px" stroke-miterlimit="4" d="M109.993,0.453C126.545,3.318,131.238,14.63,130.888,26.483L130.97,26.314L123.521,123.931L26.685,130.566L26.773,130.566C18.734,130.228,0.819,129.491,0,104.443L8.977,88.072L24.36,124.012L27.105,130.408L42.413,80.509L42.249,80.547L42.336,80.383L92.842,96.514L85.223,66.877L79.821,45.594L127.952,42.489L124.596,39.706L90.042,11.536L110.01,0.398L109.993,0.453ZM0,104.17ZM27.995,27.684C47.428,8.404,72.508,-2.99,82.14,6.729C91.756,16.426,81.567,40.044,62.096,59.313C42.653,78.588,17.877,90.604,8.267,80.907C-1.37,71.21,8.513,46.98,27.979,27.7L27.995,27.684ZM27.995,27.684"/>
</g>
        <g id="Ultralight-L" transform="matrix(1.0,0.0,0.0,1.0,495.51487780304393,1455.2848973342939)">  <path stroke-opacity="1" stroke-width="1px" stroke-linecap="butt" stroke-dasharray="none" role="img" fill="#000000" stroke-miterlimit="4" fill-opacity="1" stroke-linejoin="miter" fill-rule="nonzero" stroke="none" d="M109.993,0.453C126.545,3.318,131.238,14.63,130.888,26.483L130.97,26.314L123.521,123.931L26.685,130.566L26.773,130.566C18.734,130.228,0.819,129.491,0,104.443L8.977,88.072L24.36,124.012L27.105,130.408L42.413,80.509L42.249,80.547L42.336,80.383L92.842,96.514L85.223,66.877L79.821,45.594L127.952,42.489L124.596,39.706L90.042,11.536L110.01,0.398L109.993,0.453ZM0,104.17ZM27.995,27.684C47.428,8.404,72.508,-2.99,82.14,6.729C91.756,16.426,81.567,40.044,62.096,59.313C42.653,78.588,17.877,90.604,8.267,80.907C-1.37,71.21,8.513,46.98,27.979,27.7L27.995,27.684ZM27.995,27.684"/>
</g>
        <g id="Black-M" transform="matrix(1.0,0.0,0.0,1.0,2883.9163393822046,1040.0063589134545)">  <path role="img" stroke-miterlimit="4" stroke-width="1px" stroke="none" stroke-linecap="butt" fill-opacity="1" fill-rule="nonzero" stroke-opacity="1" stroke-dasharray="none" stroke-linejoin="miter" fill="#000000" d="M85.266,0.351C98.097,2.572,101.735,11.341,101.464,20.53L101.527,20.399L95.753,96.07L20.686,101.214L20.754,101.214C14.523,100.952,0.635,100.381,0,80.964L6.959,68.273L18.884,96.134L21.012,101.092L32.878,62.41L32.751,62.439L32.819,62.312L71.97,74.817L66.065,51.842L61.877,35.344L99.188,32.937L96.586,30.78L69.8,8.943L85.279,0.309L85.266,0.351ZM0,80.752ZM21.701,21.46C36.766,6.515,56.208,-2.318,63.675,5.216C71.128,12.733,63.23,31.042,48.137,45.979C33.064,60.921,13.858,70.236,6.409,62.719C-1.062,55.201,6.599,36.419,21.689,21.473L21.701,21.46ZM21.701,21.46"/>
</g>
        <g id="Heavy-M" transform="matrix(1.0,0.0,0.0,1.0,2587.2063393822045,1040.0063589134545)">  <path role="img" fill-rule="nonzero" fill-opacity="1" stroke-linecap="butt" stroke-opacity="1" stroke-width="1px" stroke="none" fill="#000000" stroke-linejoin="miter" stroke-miterlimit="4" stroke-dasharray="none" d="M85.266,0.351C98.097,2.572,101.735,11.341,101.464,20.53L101.527,20.399L95.753,96.07L20.686,101.214L20.754,101.214C14.523,100.952,0.635,100.381,0,80.964L6.959,68.273L18.884,96.134L21.012,101.092L32.878,62.41L32.751,62.439L32.819,62.312L71.97,74.817L66.065,51.842L61.877,35.344L99.188,32.937L96.586,30.78L69.8,8.943L85.279,0.309L85.266,0.351ZM0,80.752ZM21.701,21.46C36.766,6.515,56.208,-2.318,63.675,5.216C71.128,12.733,63.23,31.042,48.137,45.979C33.064,60.921,13.858,70.236,6.409,62.719C-1.062,55.201,6.599,36.419,21.689,21.473L21.701,21.46ZM21.701,21.46"/>
</g>
        <g id="Bold-M" transform="matrix(1.0,0.0,0.0,1.0,2290.4963393822045,1040.0063589134545)">  <path fill="#000000" stroke-width="1px" stroke-linejoin="miter" stroke-opacity="1" fill-opacity="1" role="img" stroke-miterlimit="4" stroke-linecap="butt" stroke-dasharray="none" fill-rule="nonzero" stroke="none" d="M85.266,0.351C98.097,2.572,101.735,11.341,101.464,20.53L101.527,20.399L95.753,96.07L20.686,101.214L20.754,101.214C14.523,100.952,0.635,100.381,0,80.964L6.959,68.273L18.884,96.134L21.012,101.092L32.878,62.41L32.751,62.439L32.819,62.312L71.97,74.817L66.065,51.842L61.877,35.344L99.188,32.937L96.586,30.78L69.8,8.943L85.279,0.309L85.266,0.351ZM0,80.752ZM21.701,21.46C36.766,6.515,56.208,-2.318,63.675,5.216C71.128,12.733,63.23,31.042,48.137,45.979C33.064,60.921,13.858,70.236,6.409,62.719C-1.062,55.201,6.599,36.419,21.689,21.473L21.701,21.46ZM21.701,21.46"/>
</g>
        <g id="Semibold-M" transform="matrix(1.0,0.0,0.0,1.0,1993.7863393822045,1040.0063589134545)">  <path stroke-opacity="1" fill="#000000" fill-opacity="1" stroke="none" stroke-miterlimit="4" stroke-linecap="butt" stroke-width="1px" fill-rule="nonzero" stroke-linejoin="miter" stroke-dasharray="none" role="img" d="M85.266,0.351C98.097,2.572,101.735,11.341,101.464,20.53L101.527,20.399L95.753,96.07L20.686,101.214L20.754,101.214C14.523,100.952,0.635,100.381,0,80.964L6.959,68.273L18.884,96.134L21.012,101.092L32.878,62.41L32.751,62.439L32.819,62.312L71.97,74.817L66.065,51.842L61.877,35.344L99.188,32.937L96.586,30.78L69.8,8.943L85.279,0.309L85.266,0.351ZM0,80.752ZM21.701,21.46C36.766,6.515,56.208,-2.318,63.675,5.216C71.128,12.733,63.23,31.042,48.137,45.979C33.064,60.921,13.858,70.236,6.409,62.719C-1.062,55.201,6.599,36.419,21.689,21.473L21.701,21.46ZM21.701,21.46"/>
</g>
        <g id="Medium-M" transform="matrix(1.0,0.0,0.0,1.0,1697.0763393822044,1040.0063589134545)">  <path stroke-dasharray="none" stroke-linejoin="miter" stroke-linecap="butt" stroke-width="1px" stroke="none" fill-rule="nonzero" stroke-miterlimit="4" stroke-opacity="1" fill-opacity="1" role="img" fill="#000000" d="M85.266,0.351C98.097,2.572,101.735,11.341,101.464,20.53L101.527,20.399L95.753,96.07L20.686,101.214L20.754,101.214C14.523,100.952,0.635,100.381,0,80.964L6.959,68.273L18.884,96.134L21.012,101.092L32.878,62.41L32.751,62.439L32.819,62.312L71.97,74.817L66.065,51.842L61.877,35.344L99.188,32.937L96.586,30.78L69.8,8.943L85.279,0.309L85.266,0.351ZM0,80.752ZM21.701,21.46C36.766,6.515,56.208,-2.318,63.675,5.216C71.128,12.733,63.23,31.042,48.137,45.979C33.064,60.921,13.858,70.236,6.409,62.719C-1.062,55.201,6.599,36.419,21.689,21.473L21.701,21.46ZM21.701,21.46"/>
</g>
        <g id="Regular-M" transform="matrix(1.0,0.0,0.0,1.0,1400.3663393822044,1040.0063589134545)">  <path fill-rule="nonzero" stroke="none" fill="#000000" stroke-linecap="butt" stroke-opacity="1" stroke-dasharray="none" fill-opacity="1" role="img" stroke-linejoin="miter" stroke-width="1px" stroke-miterlimit="4" d="M85.266,0.351C98.097,2.572,101.735,11.341,101.464,20.53L101.527,20.399L95.753,96.07L20.686,101.214L20.754,101.214C14.523,100.952,0.635,100.381,0,80.964L6.959,68.273L18.884,96.134L21.012,101.092L32.878,62.41L32.751,62.439L32.819,62.312L71.97,74.817L66.065,51.842L61.877,35.344L99.188,32.937L96.586,30.78L69.8,8.943L85.279,0.309L85.266,0.351ZM0,80.752ZM21.701,21.46C36.766,6.515,56.208,-2.318,63.675,5.216C71.128,12.733,63.23,31.042,48.137,45.979C33.064,60.921,13.858,70.236,6.409,62.719C-1.062,55.201,6.599,36.419,21.689,21.473L21.701,21.46ZM21.701,21.46"/>
</g>
        <g id="Light-M" transform="matrix(1.0,0.0,0.0,1.0,1103.6563393822046,1040.0063589134545)">  <path stroke-dasharray="none" stroke-width="1px" stroke-miterlimit="4" stroke-opacity="1" role="img" fill-rule="nonzero" stroke-linejoin="miter" stroke-linecap="butt" fill="#000000" stroke="none" fill-opacity="1" d="M85.266,0.351C98.097,2.572,101.735,11.341,101.464,20.53L101.527,20.399L95.753,96.07L20.686,101.214L20.754,101.214C14.523,100.952,0.635,100.381,0,80.964L6.959,68.273L18.884,96.134L21.012,101.092L32.878,62.41L32.751,62.439L32.819,62.312L71.97,74.817L66.065,51.842L61.877,35.344L99.188,32.937L96.586,30.78L69.8,8.943L85.279,0.309L85.266,0.351ZM0,80.752ZM21.701,21.46C36.766,6.515,56.208,-2.318,63.675,5.216C71.128,12.733,63.23,31.042,48.137,45.979C33.064,60.921,13.858,70.236,6.409,62.719C-1.062,55.201,6.599,36.419,21.689,21.473L21.701,21.46ZM21.701,21.46"/>
</g>
        <g id="Thin-M" transform="matrix(1.0,0.0,0.0,1.0,806.9463393822047,1040.0063589134545)">  <path role="img" fill-rule="nonzero" stroke-linecap="butt" stroke-opacity="1" fill="#000000" stroke-dasharray="none" fill-opacity="1" stroke="none" stroke-linejoin="miter" stroke-width="1px" stroke-miterlimit="4" d="M85.266,0.351C98.097,2.572,101.735,11.341,101.464,20.53L101.527,20.399L95.753,96.07L20.686,101.214L20.754,101.214C14.523,100.952,0.635,100.381,0,80.964L6.959,68.273L18.884,96.134L21.012,101.092L32.878,62.41L32.751,62.439L32.819,62.312L71.97,74.817L66.065,51.842L61.877,35.344L99.188,32.937L96.586,30.78L69.8,8.943L85.279,0.309L85.266,0.351ZM0,80.752ZM21.701,21.46C36.766,6.515,56.208,-2.318,63.675,5.216C71.128,12.733,63.23,31.042,48.137,45.979C33.064,60.921,13.858,70.236,6.409,62.719C-1.062,55.201,6.599,36.419,21.689,21.473L21.701,21.46ZM21.701,21.46"/>
</g>
        <g id="Ultralight-M" transform="matrix(1.0,0.0,0.0,1.0,510.2363393822046,1040.0063589134545)">  <path stroke-opacity="1" stroke-width="1px" stroke-linecap="butt" stroke-dasharray="none" role="img" fill="#000000" stroke-miterlimit="4" fill-opacity="1" stroke-linejoin="miter" fill-rule="nonzero" stroke="none" d="M85.266,0.351C98.097,2.572,101.735,11.341,101.464,20.53L101.527,20.399L95.753,96.07L20.686,101.214L20.754,101.214C14.523,100.952,0.635,100.381,0,80.964L6.959,68.273L18.884,96.134L21.012,101.092L32.878,62.41L32.751,62.439L32.819,62.312L71.97,74.817L66.065,51.842L61.877,35.344L99.188,32.937L96.586,30.78L69.8,8.943L85.279,0.309L85.266,0.351ZM0,80.752ZM21.701,21.46C36.766,6.515,56.208,-2.318,63.675,5.216C71.128,12.733,63.23,31.042,48.137,45.979C33.064,60.921,13.858,70.236,6.409,62.719C-1.062,55.201,6.599,36.419,21.689,21.473L21.701,21.46ZM21.701,21.46"/>
</g>
        <g id="Black-S" transform="matrix(1.0,0.0,0.0,1.0,2894.932053736266,621.0220732675162)">  <path role="img" stroke-miterlimit="4" stroke-width="1px" stroke="none" stroke-linecap="butt" fill-opacity="1" fill-rule="nonzero" stroke-opacity="1" stroke-dasharray="none" stroke-linejoin="miter" fill="#000000" d="M66.763,0.275C76.81,2.014,79.658,8.88,79.446,16.075L79.496,15.972L74.975,75.223L16.197,79.251L16.25,79.251C11.371,79.045,0.497,78.598,0,63.395L5.449,53.458L14.786,75.273L16.452,79.155L25.743,48.867L25.644,48.89L25.697,48.791L56.353,58.582L51.729,40.593L48.449,27.675L77.664,25.79L75.627,24.101L54.653,7.002L66.773,0.242L66.763,0.275ZM0,63.229ZM16.992,16.803C28.787,5.101,44.011,-1.815,49.857,4.084C55.693,9.97,49.509,24.306,37.691,36.002C25.889,47.701,10.851,54.995,5.018,49.109C-0.831,43.223,5.167,28.516,16.982,16.813L16.992,16.803ZM16.992,16.803"/>
</g>
        <g id="Heavy-S" transform="matrix(1.0,0.0,0.0,1.0,2598.222053736266,621.0220732675162)">  <path role="img" fill-rule="nonzero" fill-opacity="1" stroke-linecap="butt" stroke-opacity="1" stroke-width="1px" stroke="none" fill="#000000" stroke-linejoin="miter" stroke-miterlimit="4" stroke-dasharray="none" d="M66.763,0.275C76.81,2.014,79.658,8.88,79.446,16.075L79.496,15.972L74.975,75.223L16.197,79.251L16.25,79.251C11.371,79.045,0.497,78.598,0,63.395L5.449,53.458L14.786,75.273L16.452,79.155L25.743,48.867L25.644,48.89L25.697,48.791L56.353,58.582L51.729,40.593L48.449,27.675L77.664,25.79L75.627,24.101L54.653,7.002L66.773,0.242L66.763,0.275ZM0,63.229ZM16.992,16.803C28.787,5.101,44.011,-1.815,49.857,4.084C55.693,9.97,49.509,24.306,37.691,36.002C25.889,47.701,10.851,54.995,5.018,49.109C-0.831,43.223,5.167,28.516,16.982,16.813L16.992,16.803ZM16.992,16.803"/>
</g>
        <g id="Bold-S" transform="matrix(1.0,0.0,0.0,1.0,2301.512053736266,621.0220732675162)">  <path fill="#000000" stroke-width="1px" stroke-linejoin="miter" stroke-opacity="1" fill-opacity="1" role="img" stroke-miterlimit="4" stroke-linecap="butt" stroke-dasharray="none" fill-rule="nonzero" stroke="none" d="M66.763,0.275C76.81,2.014,79.658,8.88,79.446,16.075L79.496,15.972L74.975,75.223L16.197,79.251L16.25,79.251C11.371,79.045,0.497,78.598,0,63.395L5.449,53.458L14.786,75.273L16.452,79.155L25.743,48.867L25.644,48.89L25.697,48.791L56.353,58.582L51.729,40.593L48.449,27.675L77.664,25.79L75.627,24.101L54.653,7.002L66.773,0.242L66.763,0.275ZM0,63.229ZM16.992,16.803C28.787,5.101,44.011,-1.815,49.857,4.084C55.693,9.97,49.509,24.306,37.691,36.002C25.889,47.701,10.851,54.995,5.018,49.109C-0.831,43.223,5.167,28.516,16.982,16.813L16.992,16.803ZM16.992,16.803"/>
</g>
        <g id="Semibold-S" transform="matrix(1.0,0.0,0.0,1.0,2004.802053736266,621.0220732675162)">  <path stroke-opacity="1" fill="#000000" fill-opacity="1" stroke="none" stroke-miterlimit="4" stroke-linecap="butt" stroke-width="1px" fill-rule="nonzero" stroke-linejoin="miter" stroke-dasharray="none" role="img" d="M66.763,0.275C76.81,2.014,79.658,8.88,79.446,16.075L79.496,15.972L74.975,75.223L16.197,79.251L16.25,79.251C11.371,79.045,0.497,78.598,0,63.395L5.449,53.458L14.786,75.273L16.452,79.155L25.743,48.867L25.644,48.89L25.697,48.791L56.353,58.582L51.729,40.593L48.449,27.675L77.664,25.79L75.627,24.101L54.653,7.002L66.773,0.242L66.763,0.275ZM0,63.229ZM16.992,16.803C28.787,5.101,44.011,-1.815,49.857,4.084C55.693,9.97,49.509,24.306,37.691,36.002C25.889,47.701,10.851,54.995,5.018,49.109C-0.831,43.223,5.167,28.516,16.982,16.813L16.992,16.803ZM16.992,16.803"/>
</g>
        <g id="Medium-S" transform="matrix(1.0,0.0,0.0,1.0,1708.092053736266,621.0220732675162)">  <path stroke-dasharray="none" stroke-linejoin="miter" stroke-linecap="butt" stroke-width="1px" stroke="none" fill-rule="nonzero" stroke-miterlimit="4" stroke-opacity="1" fill-opacity="1" role="img" fill="#000000" d="M66.763,0.275C76.81,2.014,79.658,8.88,79.446,16.075L79.496,15.972L74.975,75.223L16.197,79.251L16.25,79.251C11.371,79.045,0.497,78.598,0,63.395L5.449,53.458L14.786,75.273L16.452,79.155L25.743,48.867L25.644,48.89L25.697,48.791L56.353,58.582L51.729,40.593L48.449,27.675L77.664,25.79L75.627,24.101L54.653,7.002L66.773,0.242L66.763,0.275ZM0,63.229ZM16.992,16.803C28.787,5.101,44.011,-1.815,49.857,4.084C55.693,9.97,49.509,24.306,37.691,36.002C25.889,47.701,10.851,54.995,5.018,49.109C-0.831,43.223,5.167,28.516,16.982,16.813L16.992,16.803ZM16.992,16.803"/>
</g>
        <g id="Regular-S" transform="matrix(1.0,0.0,0.0,1.0,1411.382053736266,621.0220732675162)">  <path fill-rule="nonzero" stroke="none" fill="#000000" stroke-linecap="butt" stroke-opacity="1" stroke-dasharray="none" fill-opacity="1" role="img" stroke-linejoin="miter" stroke-width="1px" stroke-miterlimit="4" d="M66.763,0.275C76.81,2.014,79.658,8.88,79.446,16.075L79.496,15.972L74.975,75.223L16.197,79.251L16.25,79.251C11.371,79.045,0.497,78.598,0,63.395L5.449,53.458L14.786,75.273L16.452,79.155L25.743,48.867L25.644,48.89L25.697,48.791L56.353,58.582L51.729,40.593L48.449,27.675L77.664,25.79L75.627,24.101L54.653,7.002L66.773,0.242L66.763,0.275ZM0,63.229ZM16.992,16.803C28.787,5.101,44.011,-1.815,49.857,4.084C55.693,9.97,49.509,24.306,37.691,36.002C25.889,47.701,10.851,54.995,5.018,49.109C-0.831,43.223,5.167,28.516,16.982,16.813L16.992,16.803ZM16.992,16.803"/>
</g>
        <g id="Light-S" transform="matrix(1.0,0.0,0.0,1.0,1114.6720537362662,621.0220732675162)">  <path stroke-dasharray="none" stroke-width="1px" stroke-miterlimit="4" stroke-opacity="1" role="img" fill-rule="nonzero" stroke-linejoin="miter" stroke-linecap="butt" fill="#000000" stroke="none" fill-opacity="1" d="M66.763,0.275C76.81,2.014,79.658,8.88,79.446,16.075L79.496,15.972L74.975,75.223L16.197,79.251L16.25,79.251C11.371,79.045,0.497,78.598,0,63.395L5.449,53.458L14.786,75.273L16.452,79.155L25.743,48.867L25.644,48.89L25.697,48.791L56.353,58.582L51.729,40.593L48.449,27.675L77.664,25.79L75.627,24.101L54.653,7.002L66.773,0.242L66.763,0.275ZM0,63.229ZM16.992,16.803C28.787,5.101,44.011,-1.815,49.857,4.084C55.693,9.97,49.509,24.306,37.691,36.002C25.889,47.701,10.851,54.995,5.018,49.109C-0.831,43.223,5.167,28.516,16.982,16.813L16.992,16.803ZM16.992,16.803"/>
</g>
        <g id="Thin-S" transform="matrix(1.0,0.0,0.0,1.0,817.9620537362663,621.0220732675162)">  <path role="img" fill-rule="nonzero" stroke-linecap="butt" stroke-opacity="1" fill="#000000" stroke-dasharray="none" fill-opacity="1" stroke="none" stroke-linejoin="miter" stroke-width="1px" stroke-miterlimit="4" d="M66.763,0.275C76.81,2.014,79.658,8.88,79.446,16.075L79.496,15.972L74.975,75.223L16.197,79.251L16.25,79.251C11.371,79.045,0.497,78.598,0,63.395L5.449,53.458L14.786,75.273L16.452,79.155L25.743,48.867L25.644,48.89L25.697,48.791L56.353,58.582L51.729,40.593L48.449,27.675L77.664,25.79L75.627,24.101L54.653,7.002L66.773,0.242L66.763,0.275ZM0,63.229ZM16.992,16.803C28.787,5.101,44.011,-1.815,49.857,4.084C55.693,9.97,49.509,24.306,37.691,36.002C25.889,47.701,10.851,54.995,5.018,49.109C-0.831,43.223,5.167,28.516,16.982,16.813L16.992,16.803ZM16.992,16.803"/>
</g>
        <g id="Ultralight-S" transform="matrix(1.0,0.0,0.0,1.0,521.2520537362662,621.0220732675162)">  <path stroke-opacity="1" stroke-width="1px" stroke-linecap="butt" stroke-dasharray="none" role="img" fill="#000000" stroke-miterlimit="4" fill-opacity="1" stroke-linejoin="miter" fill-rule="nonzero" stroke="none" d="M66.763,0.275C76.81,2.014,79.658,8.88,79.446,16.075L79.496,15.972L74.975,75.223L16.197,79.251L16.25,79.251C11.371,79.045,0.497,78.598,0,63.395L5.449,53.458L14.786,75.273L16.452,79.155L25.743,48.867L25.644,48.89L25.697,48.791L56.353,58.582L51.729,40.593L48.449,27.675L77.664,25.79L75.627,24.101L54.653,7.002L66.773,0.242L66.763,0.275ZM0,63.229ZM16.992,16.803C28.787,5.101,44.011,-1.815,49.857,4.084C55.693,9.97,49.509,24.306,37.691,36.002C25.889,47.701,10.851,54.995,5.018,49.109C-0.831,43.223,5.167,28.516,16.982,16.813L16.992,16.803ZM16.992,16.803"/>
</g>
    </g>
    </g>
</svg>
