<?xml version="1.0" encoding="UTF-8"?>
<!--Generator: CustomSymbols by @serious_bret-->
<!DOCTYPE svg
        PUBLIC "-//W3C//DTD SVG 1.1//EN"
        "http://www.w3.org/Graphics/SVG/1.1/DTD/svg11.dtd">
<svg version="1.1" xmlns="http://www.w3.org/2000/svg" xmlns:xlink="http://www.w3.org/1999/xlink" width="2900" height="1500">
    <g transform="translate(-200 -200)">
    <!--template writer version: "8"-->
    <g id="Notes">
        <rect height="2200" id="artboard" style="fill:white;opacity:1" width="3300" x="0" y="0"/>
        <line id="" style="fill:none;stroke:black;opacity:1;stroke-width:0.5;" x1="263" x2="3036" y1="292" y2="292"/>
        <text id="reftext1" style="stroke:none;fill:black;font-family:-apple-system,&quot;SF Pro Display&quot;,&quot;SF Pro Text&quot;,Helvetica,sans-serif;font-weight:bold;" transform="matrix(1 0 0 1 263 322)">Weight/Scale Variations</text>
        <text id="reftext2" style="stroke:none;fill:black;font-family:-apple-system,&quot;SF Pro Display&quot;,&quot;SF Pro Text&quot;,Helvetica,sans-serif;text-anchor:middle;" transform="matrix(1 0 0 1 559.711 322)">Ultralight</text>
        <text style="stroke:none;fill:black;font-family:-apple-system,&quot;SF Pro Display&quot;,&quot;SF Pro Text&quot;,Helvetica,sans-serif;text-anchor:middle;" transform="matrix(1 0 0 1 856.422 322)">Thin</text>
        <text style="stroke:none;fill:black;font-family:-apple-system,&quot;SF Pro Display&quot;,&quot;SF Pro Text&quot;,Helvetica,sans-serif;text-anchor:middle;" transform="matrix(1 0 0 1 1153.13 322)">Light</text>
        <text style="stroke:none;fill:black;font-family:-apple-system,&quot;SF Pro Display&quot;,&quot;SF Pro Text&quot;,Helvetica,sans-serif;text-anchor:middle;" transform="matrix(1 0 0 1 1449.84 322)">Regular</text>
        <text style="stroke:none;fill:black;font-family:-apple-system,&quot;SF Pro Display&quot;,&quot;SF Pro Text&quot;,Helvetica,sans-serif;text-anchor:middle;" transform="matrix(1 0 0 1 1746.56 322)">Medium</text>
        <text style="stroke:none;fill:black;font-family:-apple-system,&quot;SF Pro Display&quot;,&quot;SF Pro Text&quot;,Helvetica,sans-serif;text-anchor:middle;" transform="matrix(1 0 0 1 2043.27 322)">Semibold</text>
        <text style="stroke:none;fill:black;font-family:-apple-system,&quot;SF Pro Display&quot;,&quot;SF Pro Text&quot;,Helvetica,sans-serif;text-anchor:middle;" transform="matrix(1 0 0 1 2339.98 322)">Bold</text>
        <text style="stroke:none;fill:black;font-family:-apple-system,&quot;SF Pro Display&quot;,&quot;SF Pro Text&quot;,Helvetica,sans-serif;text-anchor:middle;" transform="matrix(1 0 0 1 2636.69 322)">Heavy</text>
        <text style="stroke:none;fill:black;font-family:-apple-system,&quot;SF Pro Display&quot;,&quot;SF Pro Text&quot;,Helvetica,sans-serif;text-anchor:middle;" transform="matrix(1 0 0 1 2933.4 322)">Black</text>

        <text style="stroke:none;fill:black;font-family:-apple-system,&quot;SF Pro Display&quot;,&quot;SF Pro Text&quot;,Helvetica,sans-serif;" transform="matrix(1 0 0 1 263 726)">Small</text>
        <text style="stroke:none;fill:black;font-family:-apple-system,&quot;SF Pro Display&quot;,&quot;SF Pro Text&quot;,Helvetica,sans-serif;" transform="matrix(1 0 0 1 263 1156)">Medium</text>
        <text style="stroke:none;fill:black;font-family:-apple-system,&quot;SF Pro Display&quot;,&quot;SF Pro Text&quot;,Helvetica,sans-serif;" transform="matrix(1 0 0 1 263 1586)">Large</text>
    </g>
    <g id="Guides">
        <g id="H-reference" style="fill:#27AAE1;stroke:none;" transform="matrix(1 0 0 1 339 696)">
            <path d="M0.976562 0L3.66211 0L12.9883-24.4629L45.752-24.4629L55.127 0L57.7637 0L30.6152-70.459L28.125-70.459ZM29.3457-67.1387L29.4434-67.1387L44.873-26.709L13.8672-26.709Z"/>
        </g>
        <line id="Baseline-S" style="fill:none;stroke:#27AAE1;opacity:1;stroke-width:0.5;" x1="263" x2="3036" y1="696" y2="696"/>
        <line id="Capline-S" style="fill:none;stroke:#27AAE1;opacity:1;stroke-width:0.5;" x1="263" x2="3036" y1="625.541" y2="625.541"/>
        <g id="H-reference" style="fill:#27AAE1;stroke:none;" transform="matrix(1 0 0 1 339 1126)">
            <path d="M0.976562 0L3.66211 0L12.9883-24.4629L45.752-24.4629L55.127 0L57.7637 0L30.6152-70.459L28.125-70.459ZM29.3457-67.1387L29.4434-67.1387L44.873-26.709L13.8672-26.709Z"/>
        </g>
        <line id="Baseline-M" style="fill:none;stroke:#27AAE1;opacity:1;stroke-width:0.5;" x1="263" x2="3036" y1="1126" y2="1126"/>
        <line id="Capline-M" style="fill:none;stroke:#27AAE1;opacity:1;stroke-width:0.5;" x1="263" x2="3036" y1="1055.54" y2="1055.54"/>
        <g id="H-reference" style="fill:#27AAE1;stroke:none;" transform="matrix(1 0 0 1 339 1556)">
            <path d="M0.976562 0L3.66211 0L12.9883-24.4629L45.752-24.4629L55.127 0L57.7637 0L30.6152-70.459L28.125-70.459ZM29.3457-67.1387L29.4434-67.1387L44.873-26.709L13.8672-26.709Z"/>
        </g>
        <line id="Baseline-L" style="fill:none;stroke:#27AAE1;opacity:1;stroke-width:0.5;" x1="263" x2="3036" y1="1556" y2="1556"/>
        <line id="Capline-L" style="fill:none;stroke:#27AAE1;opacity:1;stroke-width:0.5;" x1="263" x2="3036" y1="1485.54" y2="1485.54"/>
        <line id="left-margin" x1="1417.3214020285482" x2="1417.3214020285482" y1="1030.79" y2="1150.12" style="fill:none;stroke:#00AEEF;stroke-width:0.5;opacity:1.0;"/>
        <line id="right-margin" x1="1484.9385979714516" x2="1484.9385979714516" y1="1030.79" y2="1150.12" style="fill:none;stroke:#00AEEF;stroke-width:0.5;opacity:1.0;"/>
    </g>
    <g id="Symbols">
        <g id="Black-L" transform="matrix(1.0,0.0,0.0,1.0,2869.1948778030437,1455.2848973342939)">  <path stroke-opacity="1" fill="#000000" stroke-width="1px" stroke="none" stroke-miterlimit="4" role="img" stroke-linejoin="miter" stroke-linecap="butt" stroke-dasharray="none" fill-opacity="1" fill-rule="nonzero" d="M126.501,16.229C129.601,16.229,131.538,18.756,130.823,21.877L110.855,109.093C110.146,112.214,107.052,114.741,103.952,114.741L4.469,114.741C1.37,114.741,-0.568,112.214,0.147,109.093L20.115,21.877C20.824,18.756,23.918,16.229,27.018,16.229ZM80.798,67.231C82.167,65.081,82.036,62.293,80.307,60.448L49.78,27.968C47.706,25.763,44.121,25.747,41.78,27.951C39.438,30.145,39.226,33.714,41.299,35.919L66.74,62.986L66.74,63.586L26.249,92.912C23.793,94.697,23.34,98.244,25.228,100.842C27.116,103.439,30.636,104.1,33.086,102.315L77.993,70.064C79.521,68.994,80.383,68.072,80.798,67.226ZM65.54,91.237C65.54,94.02,67.821,96.274,70.637,96.274L94.828,96.274ZM65.54,91.237"/>
</g>
        <g id="Heavy-L" transform="matrix(1.0,0.0,0.0,1.0,2572.4848778030437,1455.2848973342939)">  <path stroke-linejoin="miter" stroke-dasharray="none" stroke-miterlimit="4" role="img" stroke-width="1px" stroke-linecap="butt" fill-rule="nonzero" fill="#000000" fill-opacity="1" stroke="none" stroke-opacity="1" d="M126.501,16.229C129.601,16.229,131.538,18.756,130.823,21.877L110.855,109.093C110.146,112.214,107.052,114.741,103.952,114.741L4.469,114.741C1.37,114.741,-0.568,112.214,0.147,109.093L20.115,21.877C20.824,18.756,23.918,16.229,27.018,16.229ZM80.798,67.231C82.167,65.081,82.036,62.293,80.307,60.448L49.78,27.968C47.706,25.763,44.121,25.747,41.78,27.951C39.438,30.145,39.226,33.714,41.299,35.919L66.74,62.986L66.74,63.586L26.249,92.912C23.793,94.697,23.34,98.244,25.228,100.842C27.116,103.439,30.636,104.1,33.086,102.315L77.993,70.064C79.521,68.994,80.383,68.072,80.798,67.226ZM65.54,91.237C65.54,94.02,67.821,96.274,70.637,96.274L94.828,96.274ZM65.54,91.237"/>
</g>
        <g id="Bold-L" transform="matrix(1.0,0.0,0.0,1.0,2275.7748778030436,1455.2848973342939)">  <path stroke-opacity="1" fill-opacity="1" stroke-dasharray="none" stroke-linejoin="miter" stroke-width="1px" fill="#000000" stroke-linecap="butt" stroke="none" stroke-miterlimit="4" fill-rule="nonzero" role="img" d="M126.501,16.229C129.601,16.229,131.538,18.756,130.823,21.877L110.855,109.093C110.146,112.214,107.052,114.741,103.952,114.741L4.469,114.741C1.37,114.741,-0.568,112.214,0.147,109.093L20.115,21.877C20.824,18.756,23.918,16.229,27.018,16.229ZM80.798,67.231C82.167,65.081,82.036,62.293,80.307,60.448L49.78,27.968C47.706,25.763,44.121,25.747,41.78,27.951C39.438,30.145,39.226,33.714,41.299,35.919L66.74,62.986L66.74,63.586L26.249,92.912C23.793,94.697,23.34,98.244,25.228,100.842C27.116,103.439,30.636,104.1,33.086,102.315L77.993,70.064C79.521,68.994,80.383,68.072,80.798,67.226ZM65.54,91.237C65.54,94.02,67.821,96.274,70.637,96.274L94.828,96.274ZM65.54,91.237"/>
</g>
        <g id="Semibold-L" transform="matrix(1.0,0.0,0.0,1.0,1979.0648778030438,1455.2848973342939)">  <path fill-opacity="1" stroke-dasharray="none" role="img" stroke-width="1px" stroke-opacity="1" stroke-linecap="butt" stroke="none" stroke-miterlimit="4" fill="#000000" stroke-linejoin="miter" fill-rule="nonzero" d="M126.501,16.229C129.601,16.229,131.538,18.756,130.823,21.877L110.855,109.093C110.146,112.214,107.052,114.741,103.952,114.741L4.469,114.741C1.37,114.741,-0.568,112.214,0.147,109.093L20.115,21.877C20.824,18.756,23.918,16.229,27.018,16.229ZM80.798,67.231C82.167,65.081,82.036,62.293,80.307,60.448L49.78,27.968C47.706,25.763,44.121,25.747,41.78,27.951C39.438,30.145,39.226,33.714,41.299,35.919L66.74,62.986L66.74,63.586L26.249,92.912C23.793,94.697,23.34,98.244,25.228,100.842C27.116,103.439,30.636,104.1,33.086,102.315L77.993,70.064C79.521,68.994,80.383,68.072,80.798,67.226ZM65.54,91.237C65.54,94.02,67.821,96.274,70.637,96.274L94.828,96.274ZM65.54,91.237"/>
</g>
        <g id="Medium-L" transform="matrix(1.0,0.0,0.0,1.0,1682.3548778030438,1455.2848973342939)">  <path stroke-width="1px" stroke-linecap="butt" stroke-opacity="1" stroke-miterlimit="4" fill-opacity="1" role="img" stroke-linejoin="miter" stroke="none" fill-rule="nonzero" stroke-dasharray="none" fill="#000000" d="M126.501,16.229C129.601,16.229,131.538,18.756,130.823,21.877L110.855,109.093C110.146,112.214,107.052,114.741,103.952,114.741L4.469,114.741C1.37,114.741,-0.568,112.214,0.147,109.093L20.115,21.877C20.824,18.756,23.918,16.229,27.018,16.229ZM80.798,67.231C82.167,65.081,82.036,62.293,80.307,60.448L49.78,27.968C47.706,25.763,44.121,25.747,41.78,27.951C39.438,30.145,39.226,33.714,41.299,35.919L66.74,62.986L66.74,63.586L26.249,92.912C23.793,94.697,23.34,98.244,25.228,100.842C27.116,103.439,30.636,104.1,33.086,102.315L77.993,70.064C79.521,68.994,80.383,68.072,80.798,67.226ZM65.54,91.237C65.54,94.02,67.821,96.274,70.637,96.274L94.828,96.274ZM65.54,91.237"/>
</g>
        <g id="Regular-L" transform="matrix(1.0,0.0,0.0,1.0,1385.6448778030438,1455.2848973342939)">  <path stroke-linecap="butt" fill-rule="nonzero" stroke-width="1px" role="img" stroke="none" stroke-opacity="1" stroke-linejoin="miter" fill="#000000" stroke-dasharray="none" fill-opacity="1" stroke-miterlimit="4" d="M126.501,16.229C129.601,16.229,131.538,18.756,130.823,21.877L110.855,109.093C110.146,112.214,107.052,114.741,103.952,114.741L4.469,114.741C1.37,114.741,-0.568,112.214,0.147,109.093L20.115,21.877C20.824,18.756,23.918,16.229,27.018,16.229ZM80.798,67.231C82.167,65.081,82.036,62.293,80.307,60.448L49.78,27.968C47.706,25.763,44.121,25.747,41.78,27.951C39.438,30.145,39.226,33.714,41.299,35.919L66.74,62.986L66.74,63.586L26.249,92.912C23.793,94.697,23.34,98.244,25.228,100.842C27.116,103.439,30.636,104.1,33.086,102.315L77.993,70.064C79.521,68.994,80.383,68.072,80.798,67.226ZM65.54,91.237C65.54,94.02,67.821,96.274,70.637,96.274L94.828,96.274ZM65.54,91.237"/>
</g>
        <g id="Light-L" transform="matrix(1.0,0.0,0.0,1.0,1088.934877803044,1455.2848973342939)">  <path fill-rule="nonzero" stroke-dasharray="none" stroke-width="1px" fill-opacity="1" stroke-opacity="1" stroke-linecap="butt" stroke="none" stroke-miterlimit="4" fill="#000000" stroke-linejoin="miter" role="img" d="M126.501,16.229C129.601,16.229,131.538,18.756,130.823,21.877L110.855,109.093C110.146,112.214,107.052,114.741,103.952,114.741L4.469,114.741C1.37,114.741,-0.568,112.214,0.147,109.093L20.115,21.877C20.824,18.756,23.918,16.229,27.018,16.229ZM80.798,67.231C82.167,65.081,82.036,62.293,80.307,60.448L49.78,27.968C47.706,25.763,44.121,25.747,41.78,27.951C39.438,30.145,39.226,33.714,41.299,35.919L66.74,62.986L66.74,63.586L26.249,92.912C23.793,94.697,23.34,98.244,25.228,100.842C27.116,103.439,30.636,104.1,33.086,102.315L77.993,70.064C79.521,68.994,80.383,68.072,80.798,67.226ZM65.54,91.237C65.54,94.02,67.821,96.274,70.637,96.274L94.828,96.274ZM65.54,91.237"/>
</g>
        <g id="Thin-L" transform="matrix(1.0,0.0,0.0,1.0,792.224877803044,1455.2848973342939)">  <path role="img" fill="#000000" stroke-opacity="1" stroke-dasharray="none" fill-opacity="1" stroke-linecap="butt" stroke-width="1px" stroke="none" fill-rule="nonzero" stroke-miterlimit="4" stroke-linejoin="miter" d="M126.501,16.229C129.601,16.229,131.538,18.756,130.823,21.877L110.855,109.093C110.146,112.214,107.052,114.741,103.952,114.741L4.469,114.741C1.37,114.741,-0.568,112.214,0.147,109.093L20.115,21.877C20.824,18.756,23.918,16.229,27.018,16.229ZM80.798,67.231C82.167,65.081,82.036,62.293,80.307,60.448L49.78,27.968C47.706,25.763,44.121,25.747,41.78,27.951C39.438,30.145,39.226,33.714,41.299,35.919L66.74,62.986L66.74,63.586L26.249,92.912C23.793,94.697,23.34,98.244,25.228,100.842C27.116,103.439,30.636,104.1,33.086,102.315L77.993,70.064C79.521,68.994,80.383,68.072,80.798,67.226ZM65.54,91.237C65.54,94.02,67.821,96.274,70.637,96.274L94.828,96.274ZM65.54,91.237"/>
</g>
        <g id="Ultralight-L" transform="matrix(1.0,0.0,0.0,1.0,495.51487780304393,1455.2848973342939)">  <path fill-rule="nonzero" stroke-dasharray="none" stroke="none" fill="#000000" stroke-linejoin="miter" stroke-opacity="1" role="img" stroke-linecap="butt" stroke-miterlimit="4" fill-opacity="1" stroke-width="1px" d="M126.501,16.229C129.601,16.229,131.538,18.756,130.823,21.877L110.855,109.093C110.146,112.214,107.052,114.741,103.952,114.741L4.469,114.741C1.37,114.741,-0.568,112.214,0.147,109.093L20.115,21.877C20.824,18.756,23.918,16.229,27.018,16.229ZM80.798,67.231C82.167,65.081,82.036,62.293,80.307,60.448L49.78,27.968C47.706,25.763,44.121,25.747,41.78,27.951C39.438,30.145,39.226,33.714,41.299,35.919L66.74,62.986L66.74,63.586L26.249,92.912C23.793,94.697,23.34,98.244,25.228,100.842C27.116,103.439,30.636,104.1,33.086,102.315L77.993,70.064C79.521,68.994,80.383,68.072,80.798,67.226ZM65.54,91.237C65.54,94.02,67.821,96.274,70.637,96.274L94.828,96.274ZM65.54,91.237"/>
</g>
        <g id="Black-M" transform="matrix(1.0,0.0,0.0,1.0,2883.9163393822046,1040.0063589134545)">  <path stroke-opacity="1" fill="#000000" stroke-width="1px" stroke="none" stroke-miterlimit="4" role="img" stroke-linejoin="miter" stroke-linecap="butt" stroke-dasharray="none" fill-opacity="1" fill-rule="nonzero" d="M98.063,12.581C100.466,12.581,101.967,14.54,101.413,16.959L85.934,84.568C85.384,86.988,82.986,88.946,80.583,88.946L3.465,88.946C1.062,88.946,-0.44,86.988,0.114,84.568L15.593,16.959C16.143,14.54,18.541,12.581,20.944,12.581ZM62.634,52.117C63.696,50.451,63.594,48.289,62.253,46.859L38.589,21.68C36.981,19.971,34.202,19.959,32.387,21.668C30.572,23.368,30.407,26.135,32.015,27.844L51.737,48.826L51.737,49.292L20.348,72.025C18.444,73.408,18.093,76.158,19.557,78.172C21.02,80.185,23.749,80.697,25.648,79.314L60.46,54.313C61.644,53.484,62.312,52.769,62.634,52.113ZM50.806,70.726C50.806,72.884,52.574,74.631,54.757,74.631L73.51,74.631ZM50.806,70.726"/>
</g>
        <g id="Heavy-M" transform="matrix(1.0,0.0,0.0,1.0,2587.2063393822045,1040.0063589134545)">  <path stroke-linejoin="miter" stroke-dasharray="none" stroke-miterlimit="4" role="img" stroke-width="1px" stroke-linecap="butt" fill-rule="nonzero" fill="#000000" fill-opacity="1" stroke="none" stroke-opacity="1" d="M98.063,12.581C100.466,12.581,101.967,14.54,101.413,16.959L85.934,84.568C85.384,86.988,82.986,88.946,80.583,88.946L3.465,88.946C1.062,88.946,-0.44,86.988,0.114,84.568L15.593,16.959C16.143,14.54,18.541,12.581,20.944,12.581ZM62.634,52.117C63.696,50.451,63.594,48.289,62.253,46.859L38.589,21.68C36.981,19.971,34.202,19.959,32.387,21.668C30.572,23.368,30.407,26.135,32.015,27.844L51.737,48.826L51.737,49.292L20.348,72.025C18.444,73.408,18.093,76.158,19.557,78.172C21.02,80.185,23.749,80.697,25.648,79.314L60.46,54.313C61.644,53.484,62.312,52.769,62.634,52.113ZM50.806,70.726C50.806,72.884,52.574,74.631,54.757,74.631L73.51,74.631ZM50.806,70.726"/>
</g>
        <g id="Bold-M" transform="matrix(1.0,0.0,0.0,1.0,2290.4963393822045,1040.0063589134545)">  <path stroke-opacity="1" fill-opacity="1" stroke-dasharray="none" stroke-linejoin="miter" stroke-width="1px" fill="#000000" stroke-linecap="butt" stroke="none" stroke-miterlimit="4" fill-rule="nonzero" role="img" d="M98.063,12.581C100.466,12.581,101.967,14.54,101.413,16.959L85.934,84.568C85.384,86.988,82.986,88.946,80.583,88.946L3.465,88.946C1.062,88.946,-0.44,86.988,0.114,84.568L15.593,16.959C16.143,14.54,18.541,12.581,20.944,12.581ZM62.634,52.117C63.696,50.451,63.594,48.289,62.253,46.859L38.589,21.68C36.981,19.971,34.202,19.959,32.387,21.668C30.572,23.368,30.407,26.135,32.015,27.844L51.737,48.826L51.737,49.292L20.348,72.025C18.444,73.408,18.093,76.158,19.557,78.172C21.02,80.185,23.749,80.697,25.648,79.314L60.46,54.313C61.644,53.484,62.312,52.769,62.634,52.113ZM50.806,70.726C50.806,72.884,52.574,74.631,54.757,74.631L73.51,74.631ZM50.806,70.726"/>
</g>
        <g id="Semibold-M" transform="matrix(1.0,0.0,0.0,1.0,1993.7863393822045,1040.0063589134545)">  <path fill-opacity="1" stroke-dasharray="none" role="img" stroke-width="1px" stroke-opacity="1" stroke-linecap="butt" stroke="none" stroke-miterlimit="4" fill="#000000" stroke-linejoin="miter" fill-rule="nonzero" d="M98.063,12.581C100.466,12.581,101.967,14.54,101.413,16.959L85.934,84.568C85.384,86.988,82.986,88.946,80.583,88.946L3.465,88.946C1.062,88.946,-0.44,86.988,0.114,84.568L15.593,16.959C16.143,14.54,18.541,12.581,20.944,12.581ZM62.634,52.117C63.696,50.451,63.594,48.289,62.253,46.859L38.589,21.68C36.981,19.971,34.202,19.959,32.387,21.668C30.572,23.368,30.407,26.135,32.015,27.844L51.737,48.826L51.737,49.292L20.348,72.025C18.444,73.408,18.093,76.158,19.557,78.172C21.02,80.185,23.749,80.697,25.648,79.314L60.46,54.313C61.644,53.484,62.312,52.769,62.634,52.113ZM50.806,70.726C50.806,72.884,52.574,74.631,54.757,74.631L73.51,74.631ZM50.806,70.726"/>
</g>
        <g id="Medium-M" transform="matrix(1.0,0.0,0.0,1.0,1697.0763393822044,1040.0063589134545)">  <path stroke-width="1px" stroke-linecap="butt" stroke-opacity="1" stroke-miterlimit="4" fill-opacity="1" role="img" stroke-linejoin="miter" stroke="none" fill-rule="nonzero" stroke-dasharray="none" fill="#000000" d="M98.063,12.581C100.466,12.581,101.967,14.54,101.413,16.959L85.934,84.568C85.384,86.988,82.986,88.946,80.583,88.946L3.465,88.946C1.062,88.946,-0.44,86.988,0.114,84.568L15.593,16.959C16.143,14.54,18.541,12.581,20.944,12.581ZM62.634,52.117C63.696,50.451,63.594,48.289,62.253,46.859L38.589,21.68C36.981,19.971,34.202,19.959,32.387,21.668C30.572,23.368,30.407,26.135,32.015,27.844L51.737,48.826L51.737,49.292L20.348,72.025C18.444,73.408,18.093,76.158,19.557,78.172C21.02,80.185,23.749,80.697,25.648,79.314L60.46,54.313C61.644,53.484,62.312,52.769,62.634,52.113ZM50.806,70.726C50.806,72.884,52.574,74.631,54.757,74.631L73.51,74.631ZM50.806,70.726"/>
</g>
        <g id="Regular-M" transform="matrix(1.0,0.0,0.0,1.0,1400.3663393822044,1040.0063589134545)">  <path stroke-linecap="butt" fill-rule="nonzero" stroke-width="1px" role="img" stroke="none" stroke-opacity="1" stroke-linejoin="miter" fill="#000000" stroke-dasharray="none" fill-opacity="1" stroke-miterlimit="4" d="M98.063,12.581C100.466,12.581,101.967,14.54,101.413,16.959L85.934,84.568C85.384,86.988,82.986,88.946,80.583,88.946L3.465,88.946C1.062,88.946,-0.44,86.988,0.114,84.568L15.593,16.959C16.143,14.54,18.541,12.581,20.944,12.581ZM62.634,52.117C63.696,50.451,63.594,48.289,62.253,46.859L38.589,21.68C36.981,19.971,34.202,19.959,32.387,21.668C30.572,23.368,30.407,26.135,32.015,27.844L51.737,48.826L51.737,49.292L20.348,72.025C18.444,73.408,18.093,76.158,19.557,78.172C21.02,80.185,23.749,80.697,25.648,79.314L60.46,54.313C61.644,53.484,62.312,52.769,62.634,52.113ZM50.806,70.726C50.806,72.884,52.574,74.631,54.757,74.631L73.51,74.631ZM50.806,70.726"/>
</g>
        <g id="Light-M" transform="matrix(1.0,0.0,0.0,1.0,1103.6563393822046,1040.0063589134545)">  <path fill-rule="nonzero" stroke-dasharray="none" stroke-width="1px" fill-opacity="1" stroke-opacity="1" stroke-linecap="butt" stroke="none" stroke-miterlimit="4" fill="#000000" stroke-linejoin="miter" role="img" d="M98.063,12.581C100.466,12.581,101.967,14.54,101.413,16.959L85.934,84.568C85.384,86.988,82.986,88.946,80.583,88.946L3.465,88.946C1.062,88.946,-0.44,86.988,0.114,84.568L15.593,16.959C16.143,14.54,18.541,12.581,20.944,12.581ZM62.634,52.117C63.696,50.451,63.594,48.289,62.253,46.859L38.589,21.68C36.981,19.971,34.202,19.959,32.387,21.668C30.572,23.368,30.407,26.135,32.015,27.844L51.737,48.826L51.737,49.292L20.348,72.025C18.444,73.408,18.093,76.158,19.557,78.172C21.02,80.185,23.749,80.697,25.648,79.314L60.46,54.313C61.644,53.484,62.312,52.769,62.634,52.113ZM50.806,70.726C50.806,72.884,52.574,74.631,54.757,74.631L73.51,74.631ZM50.806,70.726"/>
</g>
        <g id="Thin-M" transform="matrix(1.0,0.0,0.0,1.0,806.9463393822047,1040.0063589134545)">  <path role="img" fill="#000000" stroke-opacity="1" stroke-dasharray="none" fill-opacity="1" stroke-linecap="butt" stroke-width="1px" stroke="none" fill-rule="nonzero" stroke-miterlimit="4" stroke-linejoin="miter" d="M98.063,12.581C100.466,12.581,101.967,14.54,101.413,16.959L85.934,84.568C85.384,86.988,82.986,88.946,80.583,88.946L3.465,88.946C1.062,88.946,-0.44,86.988,0.114,84.568L15.593,16.959C16.143,14.54,18.541,12.581,20.944,12.581ZM62.634,52.117C63.696,50.451,63.594,48.289,62.253,46.859L38.589,21.68C36.981,19.971,34.202,19.959,32.387,21.668C30.572,23.368,30.407,26.135,32.015,27.844L51.737,48.826L51.737,49.292L20.348,72.025C18.444,73.408,18.093,76.158,19.557,78.172C21.02,80.185,23.749,80.697,25.648,79.314L60.46,54.313C61.644,53.484,62.312,52.769,62.634,52.113ZM50.806,70.726C50.806,72.884,52.574,74.631,54.757,74.631L73.51,74.631ZM50.806,70.726"/>
</g>
        <g id="Ultralight-M" transform="matrix(1.0,0.0,0.0,1.0,510.2363393822046,1040.0063589134545)">  <path fill-rule="nonzero" stroke-dasharray="none" stroke="none" fill="#000000" stroke-linejoin="miter" stroke-opacity="1" role="img" stroke-linecap="butt" stroke-miterlimit="4" fill-opacity="1" stroke-width="1px" d="M98.063,12.581C100.466,12.581,101.967,14.54,101.413,16.959L85.934,84.568C85.384,86.988,82.986,88.946,80.583,88.946L3.465,88.946C1.062,88.946,-0.44,86.988,0.114,84.568L15.593,16.959C16.143,14.54,18.541,12.581,20.944,12.581ZM62.634,52.117C63.696,50.451,63.594,48.289,62.253,46.859L38.589,21.68C36.981,19.971,34.202,19.959,32.387,21.668C30.572,23.368,30.407,26.135,32.015,27.844L51.737,48.826L51.737,49.292L20.348,72.025C18.444,73.408,18.093,76.158,19.557,78.172C21.02,80.185,23.749,80.697,25.648,79.314L60.46,54.313C61.644,53.484,62.312,52.769,62.634,52.113ZM50.806,70.726C50.806,72.884,52.574,74.631,54.757,74.631L73.51,74.631ZM50.806,70.726"/>
</g>
        <g id="Black-S" transform="matrix(1.0,0.0,0.0,1.0,2894.932053736266,621.0220732675162)">  <path stroke-opacity="1" fill="#000000" stroke-width="1px" stroke="none" stroke-miterlimit="4" role="img" stroke-linejoin="miter" stroke-linecap="butt" stroke-dasharray="none" fill-opacity="1" fill-rule="nonzero" d="M76.783,9.851C78.664,9.851,79.84,11.384,79.406,13.279L67.287,66.217C66.856,68.111,64.978,69.645,63.097,69.645L2.713,69.645C0.831,69.645,-0.344,68.111,0.089,66.217L12.209,13.279C12.64,11.384,14.518,9.851,16.399,9.851ZM49.042,40.808C49.874,39.503,49.794,37.81,48.744,36.691L30.215,16.976C28.956,15.638,26.78,15.628,25.359,16.966C23.938,18.297,23.809,20.464,25.068,21.802L40.51,38.231L40.51,38.595L15.932,56.396C14.442,57.479,14.167,59.632,15.313,61.209C16.459,62.785,18.595,63.186,20.083,62.103L47.34,42.527C48.267,41.878,48.791,41.318,49.042,40.805ZM39.781,55.379C39.781,57.068,41.166,58.436,42.875,58.436L57.558,58.436ZM39.781,55.379"/>
</g>
        <g id="Heavy-S" transform="matrix(1.0,0.0,0.0,1.0,2598.222053736266,621.0220732675162)">  <path stroke-linejoin="miter" stroke-dasharray="none" stroke-miterlimit="4" role="img" stroke-width="1px" stroke-linecap="butt" fill-rule="nonzero" fill="#000000" fill-opacity="1" stroke="none" stroke-opacity="1" d="M76.783,9.851C78.664,9.851,79.84,11.384,79.406,13.279L67.287,66.217C66.856,68.111,64.978,69.645,63.097,69.645L2.713,69.645C0.831,69.645,-0.344,68.111,0.089,66.217L12.209,13.279C12.64,11.384,14.518,9.851,16.399,9.851ZM49.042,40.808C49.874,39.503,49.794,37.81,48.744,36.691L30.215,16.976C28.956,15.638,26.78,15.628,25.359,16.966C23.938,18.297,23.809,20.464,25.068,21.802L40.51,38.231L40.51,38.595L15.932,56.396C14.442,57.479,14.167,59.632,15.313,61.209C16.459,62.785,18.595,63.186,20.083,62.103L47.34,42.527C48.267,41.878,48.791,41.318,49.042,40.805ZM39.781,55.379C39.781,57.068,41.166,58.436,42.875,58.436L57.558,58.436ZM39.781,55.379"/>
</g>
        <g id="Bold-S" transform="matrix(1.0,0.0,0.0,1.0,2301.512053736266,621.0220732675162)">  <path stroke-opacity="1" fill-opacity="1" stroke-dasharray="none" stroke-linejoin="miter" stroke-width="1px" fill="#000000" stroke-linecap="butt" stroke="none" stroke-miterlimit="4" fill-rule="nonzero" role="img" d="M76.783,9.851C78.664,9.851,79.84,11.384,79.406,13.279L67.287,66.217C66.856,68.111,64.978,69.645,63.097,69.645L2.713,69.645C0.831,69.645,-0.344,68.111,0.089,66.217L12.209,13.279C12.64,11.384,14.518,9.851,16.399,9.851ZM49.042,40.808C49.874,39.503,49.794,37.81,48.744,36.691L30.215,16.976C28.956,15.638,26.78,15.628,25.359,16.966C23.938,18.297,23.809,20.464,25.068,21.802L40.51,38.231L40.51,38.595L15.932,56.396C14.442,57.479,14.167,59.632,15.313,61.209C16.459,62.785,18.595,63.186,20.083,62.103L47.34,42.527C48.267,41.878,48.791,41.318,49.042,40.805ZM39.781,55.379C39.781,57.068,41.166,58.436,42.875,58.436L57.558,58.436ZM39.781,55.379"/>
</g>
        <g id="Semibold-S" transform="matrix(1.0,0.0,0.0,1.0,2004.802053736266,621.0220732675162)">  <path fill-opacity="1" stroke-dasharray="none" role="img" stroke-width="1px" stroke-opacity="1" stroke-linecap="butt" stroke="none" stroke-miterlimit="4" fill="#000000" stroke-linejoin="miter" fill-rule="nonzero" d="M76.783,9.851C78.664,9.851,79.84,11.384,79.406,13.279L67.287,66.217C66.856,68.111,64.978,69.645,63.097,69.645L2.713,69.645C0.831,69.645,-0.344,68.111,0.089,66.217L12.209,13.279C12.64,11.384,14.518,9.851,16.399,9.851ZM49.042,40.808C49.874,39.503,49.794,37.81,48.744,36.691L30.215,16.976C28.956,15.638,26.78,15.628,25.359,16.966C23.938,18.297,23.809,20.464,25.068,21.802L40.51,38.231L40.51,38.595L15.932,56.396C14.442,57.479,14.167,59.632,15.313,61.209C16.459,62.785,18.595,63.186,20.083,62.103L47.34,42.527C48.267,41.878,48.791,41.318,49.042,40.805ZM39.781,55.379C39.781,57.068,41.166,58.436,42.875,58.436L57.558,58.436ZM39.781,55.379"/>
</g>
        <g id="Medium-S" transform="matrix(1.0,0.0,0.0,1.0,1708.092053736266,621.0220732675162)">  <path stroke-width="1px" stroke-linecap="butt" stroke-opacity="1" stroke-miterlimit="4" fill-opacity="1" role="img" stroke-linejoin="miter" stroke="none" fill-rule="nonzero" stroke-dasharray="none" fill="#000000" d="M76.783,9.851C78.664,9.851,79.84,11.384,79.406,13.279L67.287,66.217C66.856,68.111,64.978,69.645,63.097,69.645L2.713,69.645C0.831,69.645,-0.344,68.111,0.089,66.217L12.209,13.279C12.64,11.384,14.518,9.851,16.399,9.851ZM49.042,40.808C49.874,39.503,49.794,37.81,48.744,36.691L30.215,16.976C28.956,15.638,26.78,15.628,25.359,16.966C23.938,18.297,23.809,20.464,25.068,21.802L40.51,38.231L40.51,38.595L15.932,56.396C14.442,57.479,14.167,59.632,15.313,61.209C16.459,62.785,18.595,63.186,20.083,62.103L47.34,42.527C48.267,41.878,48.791,41.318,49.042,40.805ZM39.781,55.379C39.781,57.068,41.166,58.436,42.875,58.436L57.558,58.436ZM39.781,55.379"/>
</g>
        <g id="Regular-S" transform="matrix(1.0,0.0,0.0,1.0,1411.382053736266,621.0220732675162)">  <path stroke-linecap="butt" fill-rule="nonzero" stroke-width="1px" role="img" stroke="none" stroke-opacity="1" stroke-linejoin="miter" fill="#000000" stroke-dasharray="none" fill-opacity="1" stroke-miterlimit="4" d="M76.783,9.851C78.664,9.851,79.84,11.384,79.406,13.279L67.287,66.217C66.856,68.111,64.978,69.645,63.097,69.645L2.713,69.645C0.831,69.645,-0.344,68.111,0.089,66.217L12.209,13.279C12.64,11.384,14.518,9.851,16.399,9.851ZM49.042,40.808C49.874,39.503,49.794,37.81,48.744,36.691L30.215,16.976C28.956,15.638,26.78,15.628,25.359,16.966C23.938,18.297,23.809,20.464,25.068,21.802L40.51,38.231L40.51,38.595L15.932,56.396C14.442,57.479,14.167,59.632,15.313,61.209C16.459,62.785,18.595,63.186,20.083,62.103L47.34,42.527C48.267,41.878,48.791,41.318,49.042,40.805ZM39.781,55.379C39.781,57.068,41.166,58.436,42.875,58.436L57.558,58.436ZM39.781,55.379"/>
</g>
        <g id="Light-S" transform="matrix(1.0,0.0,0.0,1.0,1114.6720537362662,621.0220732675162)">  <path fill-rule="nonzero" stroke-dasharray="none" stroke-width="1px" fill-opacity="1" stroke-opacity="1" stroke-linecap="butt" stroke="none" stroke-miterlimit="4" fill="#000000" stroke-linejoin="miter" role="img" d="M76.783,9.851C78.664,9.851,79.84,11.384,79.406,13.279L67.287,66.217C66.856,68.111,64.978,69.645,63.097,69.645L2.713,69.645C0.831,69.645,-0.344,68.111,0.089,66.217L12.209,13.279C12.64,11.384,14.518,9.851,16.399,9.851ZM49.042,40.808C49.874,39.503,49.794,37.81,48.744,36.691L30.215,16.976C28.956,15.638,26.78,15.628,25.359,16.966C23.938,18.297,23.809,20.464,25.068,21.802L40.51,38.231L40.51,38.595L15.932,56.396C14.442,57.479,14.167,59.632,15.313,61.209C16.459,62.785,18.595,63.186,20.083,62.103L47.34,42.527C48.267,41.878,48.791,41.318,49.042,40.805ZM39.781,55.379C39.781,57.068,41.166,58.436,42.875,58.436L57.558,58.436ZM39.781,55.379"/>
</g>
        <g id="Thin-S" transform="matrix(1.0,0.0,0.0,1.0,817.9620537362663,621.0220732675162)">  <path role="img" fill="#000000" stroke-opacity="1" stroke-dasharray="none" fill-opacity="1" stroke-linecap="butt" stroke-width="1px" stroke="none" fill-rule="nonzero" stroke-miterlimit="4" stroke-linejoin="miter" d="M76.783,9.851C78.664,9.851,79.84,11.384,79.406,13.279L67.287,66.217C66.856,68.111,64.978,69.645,63.097,69.645L2.713,69.645C0.831,69.645,-0.344,68.111,0.089,66.217L12.209,13.279C12.64,11.384,14.518,9.851,16.399,9.851ZM49.042,40.808C49.874,39.503,49.794,37.81,48.744,36.691L30.215,16.976C28.956,15.638,26.78,15.628,25.359,16.966C23.938,18.297,23.809,20.464,25.068,21.802L40.51,38.231L40.51,38.595L15.932,56.396C14.442,57.479,14.167,59.632,15.313,61.209C16.459,62.785,18.595,63.186,20.083,62.103L47.34,42.527C48.267,41.878,48.791,41.318,49.042,40.805ZM39.781,55.379C39.781,57.068,41.166,58.436,42.875,58.436L57.558,58.436ZM39.781,55.379"/>
</g>
        <g id="Ultralight-S" transform="matrix(1.0,0.0,0.0,1.0,521.2520537362662,621.0220732675162)">  <path fill-rule="nonzero" stroke-dasharray="none" stroke="none" fill="#000000" stroke-linejoin="miter" stroke-opacity="1" role="img" stroke-linecap="butt" stroke-miterlimit="4" fill-opacity="1" stroke-width="1px" d="M76.783,9.851C78.664,9.851,79.84,11.384,79.406,13.279L67.287,66.217C66.856,68.111,64.978,69.645,63.097,69.645L2.713,69.645C0.831,69.645,-0.344,68.111,0.089,66.217L12.209,13.279C12.64,11.384,14.518,9.851,16.399,9.851ZM49.042,40.808C49.874,39.503,49.794,37.81,48.744,36.691L30.215,16.976C28.956,15.638,26.78,15.628,25.359,16.966C23.938,18.297,23.809,20.464,25.068,21.802L40.51,38.231L40.51,38.595L15.932,56.396C14.442,57.479,14.167,59.632,15.313,61.209C16.459,62.785,18.595,63.186,20.083,62.103L47.34,42.527C48.267,41.878,48.791,41.318,49.042,40.805ZM39.781,55.379C39.781,57.068,41.166,58.436,42.875,58.436L57.558,58.436ZM39.781,55.379"/>
</g>
    </g>
    </g>
</svg>
