<?xml version="1.0" encoding="UTF-8"?>
<!--Generator: Apple Native CoreSVG 175.5-->
<!DOCTYPE svg
PUBLIC "-//W3C//DTD SVG 1.1//EN"
       "http://www.w3.org/Graphics/SVG/1.1/DTD/svg11.dtd">
<svg version="1.1" xmlns="http://www.w3.org/2000/svg" xmlns:xlink="http://www.w3.org/1999/xlink" width="3300" height="2200">
 <!--glyph: "", point size: 100.0, font version: "18.0d12e2", template writer version: "101"-->
 <style>.monochrome-0 {fill:#000000}

.SFSymbolsPreview000000 {fill:#000000;opacity:1.0}
</style>
 <g id="Notes">
  <rect height="2200" id="artboard" style="fill:white;opacity:1" width="3300" x="0" y="0"/>
  <line style="fill:none;stroke:black;opacity:1;stroke-width:0.5;" x1="263" x2="3036" y1="292" y2="292"/>
  <text style="stroke:none;fill:black;font-family:sans-serif;font-size:13;font-weight:bold;" transform="matrix(1 0 0 1 263 322)">Weight/Scale Variations</text>
  <text style="stroke:none;fill:black;font-family:sans-serif;font-size:13;text-anchor:middle;" transform="matrix(1 0 0 1 559.711 322)">Ultralight</text>
  <text style="stroke:none;fill:black;font-family:sans-serif;font-size:13;text-anchor:middle;" transform="matrix(1 0 0 1 856.422 322)">Thin</text>
  <text style="stroke:none;fill:black;font-family:sans-serif;font-size:13;text-anchor:middle;" transform="matrix(1 0 0 1 1153.13 322)">Light</text>
  <text style="stroke:none;fill:black;font-family:sans-serif;font-size:13;text-anchor:middle;" transform="matrix(1 0 0 1 1449.84 322)">Regular</text>
  <text style="stroke:none;fill:black;font-family:sans-serif;font-size:13;text-anchor:middle;" transform="matrix(1 0 0 1 1746.56 322)">Medium</text>
  <text style="stroke:none;fill:black;font-family:sans-serif;font-size:13;text-anchor:middle;" transform="matrix(1 0 0 1 2043.27 322)">Semibold</text>
  <text style="stroke:none;fill:black;font-family:sans-serif;font-size:13;text-anchor:middle;" transform="matrix(1 0 0 1 2339.98 322)">Bold</text>
  <text style="stroke:none;fill:black;font-family:sans-serif;font-size:13;text-anchor:middle;" transform="matrix(1 0 0 1 2636.69 322)">Heavy</text>
  <text style="stroke:none;fill:black;font-family:sans-serif;font-size:13;text-anchor:middle;" transform="matrix(1 0 0 1 2933.4 322)">Black</text>
  <line style="fill:none;stroke:black;opacity:1;stroke-width:0.5;" x1="263" x2="3036" y1="1903" y2="1903"/>
  <g transform="matrix(1 0 0 1 263 1933)">
   <path d="M9.24805 0.830078C13.5547 0.830078 17.1387-2.74414 17.1387-7.05078C17.1387-11.3574 13.5449-14.9316 9.23828-14.9316C4.94141-14.9316 1.36719-11.3574 1.36719-7.05078C1.36719-2.74414 4.95117 0.830078 9.24805 0.830078ZM9.24805-0.654297C5.70312-0.654297 2.87109-3.49609 2.87109-7.05078C2.87109-10.6055 5.69336-13.4473 9.23828-13.4473C12.793-13.4473 15.6445-10.6055 15.6445-7.05078C15.6445-3.49609 12.8027-0.654297 9.24805-0.654297ZM5.6543-7.05078C5.6543-6.62109 5.95703-6.32812 6.40625-6.32812L8.50586-6.32812L8.50586-4.20898C8.50586-3.76953 8.79883-3.4668 9.22852-3.4668C9.67773-3.4668 9.9707-3.76953 9.9707-4.20898L9.9707-6.32812L12.0898-6.32812C12.5293-6.32812 12.832-6.62109 12.832-7.05078C12.832-7.49023 12.5293-7.79297 12.0898-7.79297L9.9707-7.79297L9.9707-9.90234C9.9707-10.3516 9.67773-10.6543 9.22852-10.6543C8.79883-10.6543 8.50586-10.3516 8.50586-9.90234L8.50586-7.79297L6.40625-7.79297C5.95703-7.79297 5.6543-7.49023 5.6543-7.05078Z"/>
  </g>
  <g transform="matrix(1 0 0 1 281.867 1933)">
   <path d="M11.709 2.91016C17.1582 2.91016 21.6699-1.61133 21.6699-7.05078C21.6699-12.5 17.1484-17.0117 11.6992-17.0117C6.25977-17.0117 1.74805-12.5 1.74805-7.05078C1.74805-1.61133 6.26953 2.91016 11.709 2.91016ZM11.709 1.25C7.09961 1.25 3.41797-2.44141 3.41797-7.05078C3.41797-11.6602 7.08984-15.3516 11.6992-15.3516C16.3086-15.3516 20.0098-11.6602 20.0098-7.05078C20.0098-2.44141 16.3184 1.25 11.709 1.25ZM7.17773-7.05078C7.17773-6.57227 7.50977-6.25 8.00781-6.25L10.8789-6.25L10.8789-3.36914C10.8789-2.88086 11.2109-2.53906 11.6895-2.53906C12.1777-2.53906 12.5195-2.87109 12.5195-3.36914L12.5195-6.25L15.4004-6.25C15.8887-6.25 16.2305-6.57227 16.2305-7.05078C16.2305-7.53906 15.8887-7.88086 15.4004-7.88086L12.5195-7.88086L12.5195-10.752C12.5195-11.25 12.1777-11.5918 11.6895-11.5918C11.2109-11.5918 10.8789-11.25 10.8789-10.752L10.8789-7.88086L8.00781-7.88086C7.50977-7.88086 7.17773-7.53906 7.17773-7.05078Z"/>
  </g>
  <g transform="matrix(1 0 0 1 305.646 1933)">
   <path d="M14.9707 5.66406C21.9336 5.66406 27.6953-0.0976562 27.6953-7.05078C27.6953-14.0137 21.9238-19.7754 14.9609-19.7754C8.00781-19.7754 2.25586-14.0137 2.25586-7.05078C2.25586-0.0976562 8.01758 5.66406 14.9707 5.66406ZM14.9707 3.84766C8.93555 3.84766 4.08203-1.01562 4.08203-7.05078C4.08203-13.0957 8.92578-17.9492 14.9609-17.9492C21.0059-17.9492 25.8691-13.0957 25.8691-7.05078C25.8691-1.01562 21.0156 3.84766 14.9707 3.84766ZM9.19922-7.05078C9.19922-6.5332 9.57031-6.17188 10.1172-6.17188L14.0625-6.17188L14.0625-2.2168C14.0625-1.67969 14.4336-1.29883 14.9512-1.29883C15.4883-1.29883 15.8594-1.66992 15.8594-2.2168L15.8594-6.17188L19.8145-6.17188C20.3516-6.17188 20.7324-6.5332 20.7324-7.05078C20.7324-7.59766 20.3613-7.96875 19.8145-7.96875L15.8594-7.96875L15.8594-11.9141C15.8594-12.4609 15.4883-12.8418 14.9512-12.8418C14.4336-12.8418 14.0625-12.4609 14.0625-11.9141L14.0625-7.96875L10.1172-7.96875C9.57031-7.96875 9.19922-7.59766 9.19922-7.05078Z"/>
  </g>
  <text style="stroke:none;fill:black;font-family:sans-serif;font-size:13;font-weight:bold;" transform="matrix(1 0 0 1 263 1953)">Design Variations</text>
  <text style="stroke:none;fill:black;font-family:sans-serif;font-size:13;" transform="matrix(1 0 0 1 263 1971)">Symbols are supported in up to nine weights and three scales.</text>
  <text style="stroke:none;fill:black;font-family:sans-serif;font-size:13;" transform="matrix(1 0 0 1 263 1989)">For optimal layout with text and other symbols, vertically align</text>
  <text style="stroke:none;fill:black;font-family:sans-serif;font-size:13;" transform="matrix(1 0 0 1 263 2007)">symbols with the adjacent text.</text>
  <line style="fill:none;stroke:#00AEEF;stroke-width:0.5;opacity:1.0;" x1="776" x2="776" y1="1919" y2="1933"/>
  <g transform="matrix(1 0 0 1 776 1933)">
   <path d="M3.31055 0.15625C3.82812 0.15625 4.08203-0.0390625 4.26758-0.585938L5.52734-4.0332L11.2891-4.0332L12.5488-0.585938C12.7344-0.0390625 12.9883 0.15625 13.4961 0.15625C14.0137 0.15625 14.3457-0.15625 14.3457-0.644531C14.3457-0.810547 14.3164-0.966797 14.2383-1.17188L9.6582-13.3691C9.43359-13.9648 9.0332-14.2676 8.4082-14.2676C7.80273-14.2676 7.39258-13.9746 7.17773-13.3789L2.59766-1.16211C2.51953-0.957031 2.49023-0.800781 2.49023-0.634766C2.49023-0.146484 2.80273 0.15625 3.31055 0.15625ZM6.00586-5.51758L8.37891-12.0898L8.42773-12.0898L10.8008-5.51758Z"/>
  </g>
  <line style="fill:none;stroke:#00AEEF;stroke-width:0.5;opacity:1.0;" x1="793.197" x2="793.197" y1="1919" y2="1933"/>
  <text style="stroke:none;fill:black;font-family:sans-serif;font-size:13;font-weight:bold;" transform="matrix(1 0 0 1 776 1953)">Margins</text>
  <text style="stroke:none;fill:black;font-family:sans-serif;font-size:13;" transform="matrix(1 0 0 1 776 1971)">Leading and trailing margins on the left and right side of each symbol</text>
  <text style="stroke:none;fill:black;font-family:sans-serif;font-size:13;" transform="matrix(1 0 0 1 776 1989)">can be adjusted by modifying the x-location of the margin guidelines.</text>
  <text style="stroke:none;fill:black;font-family:sans-serif;font-size:13;" transform="matrix(1 0 0 1 776 2007)">Modifications are automatically applied proportionally to all</text>
  <text style="stroke:none;fill:black;font-family:sans-serif;font-size:13;" transform="matrix(1 0 0 1 776 2025)">scales and weights.</text>
  <g transform="matrix(1 0 0 1 1289 1933)">
   <path d="M2.8418 1.86523L4.54102 3.57422C5.40039 4.44336 6.38672 4.38477 7.31445 3.35938L18.0078-8.42773L17.041-9.4043L6.42578 2.27539C6.07422 2.67578 5.74219 2.77344 5.27344 2.30469L4.10156 1.14258C3.63281 0.683594 3.74023 0.341797 4.14062-0.0195312L15.6152-10.8203L14.6387-11.7871L3.04688-0.898438C2.06055 0.0195312 1.98242 0.996094 2.8418 1.86523ZM9.25781-16.3281C8.83789-15.918 8.80859-15.3418 9.04297-14.9512C9.27734-14.5898 9.73633-14.3555 10.3809-14.5215C11.8457-14.8633 13.3691-14.9219 14.7949-13.9844L14.209-12.5293C13.8672-11.6992 14.043-11.1133 14.5801-10.5664L16.875-8.25195C17.3633-7.76367 17.7734-7.74414 18.3398-7.8418L19.4043-8.03711L20.0684-7.36328L20.0293-6.80664C19.9902-6.30859 20.1172-5.92773 20.6055-5.44922L21.3672-4.70703C21.8457-4.22852 22.4609-4.19922 22.9297-4.66797L25.8398-7.58789C26.3086-8.05664 26.2891-8.65234 25.8105-9.13086L25.0391-9.89258C24.5605-10.3711 24.1895-10.5273 23.7109-10.4883L23.1348-10.4395L22.4902-11.0742L22.7344-12.1973C22.8613-12.7637 22.7051-13.2031 22.1191-13.7891L19.9219-15.9766C16.582-19.2969 12.1484-19.2188 9.25781-16.3281ZM10.752-15.957C13.1836-17.7344 16.4746-17.4316 18.7012-15.2051L21.1328-12.793C21.3672-12.5586 21.4062-12.373 21.3379-12.0312L21.0156-10.5469L22.5195-9.0625L23.5059-9.12109C23.7598-9.13086 23.8379-9.11133 24.0332-8.91602L24.6094-8.33984L22.168-5.89844L21.5918-6.47461C21.3965-6.66992 21.3672-6.74805 21.377-7.01172L21.4453-7.98828L19.9512-9.47266L18.4277-9.21875C18.1055-9.15039 17.959-9.17969 17.7148-9.41406L15.7129-11.416C15.459-11.6504 15.4297-11.8164 15.5859-12.1875L16.4648-14.2773C14.9023-15.7324 12.8711-16.3574 10.8398-15.7617C10.6836-15.7227 10.625-15.8496 10.752-15.957Z"/>
  </g>
  <text style="stroke:none;fill:black;font-family:sans-serif;font-size:13;font-weight:bold;" transform="matrix(1 0 0 1 1289 1953)">Exporting</text>
  <text style="stroke:none;fill:black;font-family:sans-serif;font-size:13;" transform="matrix(1 0 0 1 1289 1971)">Symbols should be outlined when exporting to ensure the</text>
  <text style="stroke:none;fill:black;font-family:sans-serif;font-size:13;" transform="matrix(1 0 0 1 1289 1989)">design is preserved when submitting to Xcode.</text>
  <text id="template-version" style="stroke:none;fill:black;font-family:sans-serif;font-size:13;text-anchor:end;" transform="matrix(1 0 0 1 3036 1933)">Template v.4.0</text>
  <text style="stroke:none;fill:black;font-family:sans-serif;font-size:13;text-anchor:end;" transform="matrix(1 0 0 1 3036 1951)">Requires Xcode 14 or greater</text>
  <text id="descriptive-name" style="stroke:none;fill:black;font-family:sans-serif;font-size:13;text-anchor:end;" transform="matrix(1 0 0 1 3036 1969)">Generated from bash</text>
  <text style="stroke:none;fill:black;font-family:sans-serif;font-size:13;text-anchor:end;" transform="matrix(1 0 0 1 3036 1987)">Typeset at 100 points</text>
  <text style="stroke:none;fill:black;font-family:sans-serif;font-size:13;" transform="matrix(1 0 0 1 263 726)">Small</text>
  <text style="stroke:none;fill:black;font-family:sans-serif;font-size:13;" transform="matrix(1 0 0 1 263 1156)">Medium</text>
  <text style="stroke:none;fill:black;font-family:sans-serif;font-size:13;" transform="matrix(1 0 0 1 263 1586)">Large</text>
 </g>
 <g id="Guides">
  <g id="H-reference" style="fill:#27AAE1;stroke:none;" transform="matrix(1 0 0 1 339 696)">
   <path d="M0.993654 0L3.63775 0L29.3281-67.1323L30.0303-67.1323L30.0303-70.459L28.1226-70.459ZM11.6885-24.4799L46.9815-24.4799L46.2315-26.7285L12.4385-26.7285ZM55.1196 0L57.7637 0L30.6382-70.459L29.4326-70.459L29.4326-67.1323Z"/>
  </g>
  <line id="Baseline-S" style="fill:none;stroke:#27AAE1;opacity:1;stroke-width:0.5;" x1="263" x2="3036" y1="696" y2="696"/>
  <line id="Capline-S" style="fill:none;stroke:#27AAE1;opacity:1;stroke-width:0.5;" x1="263" x2="3036" y1="625.541" y2="625.541"/>
  <g id="H-reference" style="fill:#27AAE1;stroke:none;" transform="matrix(1 0 0 1 339 1126)">
   <path d="M0.993654 0L3.63775 0L29.3281-67.1323L30.0303-67.1323L30.0303-70.459L28.1226-70.459ZM11.6885-24.4799L46.9815-24.4799L46.2315-26.7285L12.4385-26.7285ZM55.1196 0L57.7637 0L30.6382-70.459L29.4326-70.459L29.4326-67.1323Z"/>
  </g>
  <line id="Baseline-M" style="fill:none;stroke:#27AAE1;opacity:1;stroke-width:0.5;" x1="263" x2="3036" y1="1126" y2="1126"/>
  <line id="Capline-M" style="fill:none;stroke:#27AAE1;opacity:1;stroke-width:0.5;" x1="263" x2="3036" y1="1055.54" y2="1055.54"/>
  <g id="H-reference" style="fill:#27AAE1;stroke:none;" transform="matrix(1 0 0 1 339 1556)">
   <path d="M0.993654 0L3.63775 0L29.3281-67.1323L30.0303-67.1323L30.0303-70.459L28.1226-70.459ZM11.6885-24.4799L46.9815-24.4799L46.2315-26.7285L12.4385-26.7285ZM55.1196 0L57.7637 0L30.6382-70.459L29.4326-70.459L29.4326-67.1323Z"/>
  </g>
  <line id="Baseline-L" style="fill:none;stroke:#27AAE1;opacity:1;stroke-width:0.5;" x1="263" x2="3036" y1="1556" y2="1556"/>
  <line id="Capline-L" style="fill:none;stroke:#27AAE1;opacity:1;stroke-width:0.5;" x1="263" x2="3036" y1="1485.54" y2="1485.54"/>
  <line id="left-margin-Regular-M" style="fill:none;stroke:#00AEEF;stroke-width:0.5;opacity:1.0;" x1="1402.05" x2="1402.05" y1="1030.79" y2="1150.12"/>
  <line id="right-margin-Regular-M" style="fill:none;stroke:#00AEEF;stroke-width:0.5;opacity:1.0;" x1="1497.64" x2="1497.64" y1="1030.79" y2="1150.12"/>
 </g>
 <g id="Symbols">
  <g id="Black-L" transform="matrix(1 0 0 1 2871.98 1556)">
   <path class="monochrome-0 SFSymbolsPreview000000" d="M113.603-76.2194L69.8585-102.187C67.2495-103.734 64.3395-104.508 61.4235-104.508C58.5085-104.508 55.5985-103.734 52.9835-102.181L9.23953-76.2194C4.02053-73.1194 0.805531-67.3924 0.805531-61.1924L0.805531-9.26245C0.805531-3.06745 4.02053 2.66555 9.24553 5.76555L52.9895 31.7276C55.5985 33.2746 58.5085 34.0486 61.4235 34.0486C64.3395 34.0486 67.2495 33.2746 69.8585 31.7276L113.603 5.76555C118.822 2.66555 122.043-3.06145 122.043-9.26245L122.043-61.1924C122.043-67.3924 118.827-73.1194 113.603-76.2194ZM110.26-65.2684L68.8775-39.7104C63.7155-36.6904 59.9115-33.3074 59.9115-27.0844L59.9115 23.9106C59.9115 27.6346 61.4125 30.0476 63.7215 30.7466C62.9655 30.8786 62.1975 30.9716 61.4235 30.9716C58.9995 30.9716 56.6145 30.3136 54.5135 29.0666L10.7695 3.10455C6.49153 0.563552 3.83653-4.17545 3.83653-9.26245L3.83653-61.1924C3.83653-66.2784 6.49153-71.0184 10.7695-73.5584L54.5135-99.5264C56.6095-100.773 58.9995-101.431 61.4235-101.431C63.8425-101.431 66.2335-100.773 68.3345-99.5264L112.079-73.5584C115.681-71.4164 118.117-67.7104 118.799-63.5594C117.344-66.6534 114.076-67.4964 110.26-65.2684ZM79.7255 4.87055L79.8005 8.60055C79.8055 9.05055 79.5115 9.56455 79.1595 9.74355L76.9485 11.0136C76.5955 11.1926 76.3075 10.9726 76.3015 10.5226L76.2615 6.85655C74.3675 7.64155 72.4505 7.83255 71.2265 7.34155C70.9955 7.24955 70.8975 6.90855 70.9905 6.52155L71.7925 3.15055C71.8565 2.88455 72.0005 2.61955 72.1905 2.45155C72.2605 2.38855 72.3295 2.33655 72.3985 2.30155C72.5255 2.23855 72.6475 2.22055 72.7565 2.26655C74.0785 2.71155 75.7645 2.50355 77.3865 1.68355C79.4475 0.638552 80.8275-1.46245 80.8045-3.55245C80.7875-5.44645 79.7595-6.23645 77.2655-6.25445C74.0905-6.24845 71.1225-6.87245 71.0765-11.5484C71.0365-15.3994 73.0395-19.4054 76.2095-21.9404L76.1685-25.7044C76.1625-26.1664 76.4455-26.6744 76.8095-26.8584L78.9455-28.2214C79.2975-28.4004 79.5865-28.1804 79.5925-27.7194L79.6265-23.9494C81.2025-24.5784 82.5765-24.7454 83.8185-24.4574C84.0895-24.3874 84.2055-24.0184 84.0955-23.5854L83.2645-20.2484C83.2005-19.9944 83.0565-19.7404 82.8885-19.5784C82.8195-19.5094 82.7445-19.4574 82.6695-19.4174C82.5595-19.3594 82.4495-19.3424 82.3405-19.3654C81.7745-19.4924 80.4235-19.7864 78.3045-18.7124C76.0825-17.5874 75.3025-15.6534 75.3205-14.2214C75.3375-12.5064 76.2145-11.9874 79.2515-11.9354C83.2925-11.8654 85.0425-10.0994 85.0825-6.02945C85.1225-2.05145 82.9925 2.24355 79.7255 4.87055ZM102.662-1.40445C102.662-1.05845 102.616-0.735448 102.328-0.567448L91.2655 6.15255C90.9775 6.31955 90.7465 6.17555 90.7465 5.82955L90.7465 2.97755C90.7465 2.63055 90.9595 2.44055 91.2485 2.27255L102.143-4.24545C102.432-4.41245 102.662-4.26845 102.662-3.92145L102.662-1.40445Z"/>
  </g>
  <g id="Heavy-L" transform="matrix(1 0 0 1 2575.26 1556)">
   <path class="monochrome-0 SFSymbolsPreview000000" d="M113.603-76.2194L69.8585-102.187C67.2495-103.734 64.3395-104.508 61.4235-104.508C58.5085-104.508 55.5985-103.734 52.9835-102.181L9.23953-76.2194C4.02053-73.1194 0.805531-67.3924 0.805531-61.1924L0.805531-9.26245C0.805531-3.06745 4.02053 2.66555 9.24553 5.76555L52.9895 31.7276C55.5985 33.2746 58.5085 34.0486 61.4235 34.0486C64.3395 34.0486 67.2495 33.2746 69.8585 31.7276L113.603 5.76555C118.822 2.66555 122.043-3.06145 122.043-9.26245L122.043-61.1924C122.043-67.3924 118.827-73.1194 113.603-76.2194ZM110.26-65.2684L68.8775-39.7104C63.7155-36.6904 59.9115-33.3074 59.9115-27.0844L59.9115 23.9106C59.9115 27.6346 61.4125 30.0476 63.7215 30.7466C62.9655 30.8786 62.1975 30.9716 61.4235 30.9716C58.9995 30.9716 56.6145 30.3136 54.5135 29.0666L10.7695 3.10455C6.49153 0.563552 3.83653-4.17545 3.83653-9.26245L3.83653-61.1924C3.83653-66.2784 6.49153-71.0184 10.7695-73.5584L54.5135-99.5264C56.6095-100.773 58.9995-101.431 61.4235-101.431C63.8425-101.431 66.2335-100.773 68.3345-99.5264L112.079-73.5584C115.681-71.4164 118.117-67.7104 118.799-63.5594C117.344-66.6534 114.076-67.4964 110.26-65.2684ZM79.7255 4.87055L79.8005 8.60055C79.8055 9.05055 79.5115 9.56455 79.1595 9.74355L76.9485 11.0136C76.5955 11.1926 76.3075 10.9726 76.3015 10.5226L76.2615 6.85655C74.3675 7.64155 72.4505 7.83255 71.2265 7.34155C70.9955 7.24955 70.8975 6.90855 70.9905 6.52155L71.7925 3.15055C71.8565 2.88455 72.0005 2.61955 72.1905 2.45155C72.2605 2.38855 72.3295 2.33655 72.3985 2.30155C72.5255 2.23855 72.6475 2.22055 72.7565 2.26655C74.0785 2.71155 75.7645 2.50355 77.3865 1.68355C79.4475 0.638552 80.8275-1.46245 80.8045-3.55245C80.7875-5.44645 79.7595-6.23645 77.2655-6.25445C74.0905-6.24845 71.1225-6.87245 71.0765-11.5484C71.0365-15.3994 73.0395-19.4054 76.2095-21.9404L76.1685-25.7044C76.1625-26.1664 76.4455-26.6744 76.8095-26.8584L78.9455-28.2214C79.2975-28.4004 79.5865-28.1804 79.5925-27.7194L79.6265-23.9494C81.2025-24.5784 82.5765-24.7454 83.8185-24.4574C84.0895-24.3874 84.2055-24.0184 84.0955-23.5854L83.2645-20.2484C83.2005-19.9944 83.0565-19.7404 82.8885-19.5784C82.8195-19.5094 82.7445-19.4574 82.6695-19.4174C82.5595-19.3594 82.4495-19.3424 82.3405-19.3654C81.7745-19.4924 80.4235-19.7864 78.3045-18.7124C76.0825-17.5874 75.3025-15.6534 75.3205-14.2214C75.3375-12.5064 76.2145-11.9874 79.2515-11.9354C83.2925-11.8654 85.0425-10.0994 85.0825-6.02945C85.1225-2.05145 82.9925 2.24355 79.7255 4.87055ZM102.662-1.40445C102.662-1.05845 102.616-0.735448 102.328-0.567448L91.2655 6.15255C90.9775 6.31955 90.7465 6.17555 90.7465 5.82955L90.7465 2.97755C90.7465 2.63055 90.9595 2.44055 91.2485 2.27255L102.143-4.24545C102.432-4.41245 102.662-4.26845 102.662-3.92145L102.662-1.40445Z"/>
  </g>
  <g id="Bold-L" transform="matrix(1 0 0 1 2278.55 1556)">
   <path class="monochrome-0 SFSymbolsPreview000000" d="M113.603-76.2194L69.8585-102.187C67.2495-103.734 64.3395-104.508 61.4235-104.508C58.5085-104.508 55.5985-103.734 52.9835-102.181L9.23953-76.2194C4.02053-73.1194 0.805531-67.3924 0.805531-61.1924L0.805531-9.26245C0.805531-3.06745 4.02053 2.66555 9.24553 5.76555L52.9895 31.7276C55.5985 33.2746 58.5085 34.0486 61.4235 34.0486C64.3395 34.0486 67.2495 33.2746 69.8585 31.7276L113.603 5.76555C118.822 2.66555 122.043-3.06145 122.043-9.26245L122.043-61.1924C122.043-67.3924 118.827-73.1194 113.603-76.2194ZM110.26-65.2684L68.8775-39.7104C63.7155-36.6904 59.9115-33.3074 59.9115-27.0844L59.9115 23.9106C59.9115 27.6346 61.4125 30.0476 63.7215 30.7466C62.9655 30.8786 62.1975 30.9716 61.4235 30.9716C58.9995 30.9716 56.6145 30.3136 54.5135 29.0666L10.7695 3.10455C6.49153 0.563552 3.83653-4.17545 3.83653-9.26245L3.83653-61.1924C3.83653-66.2784 6.49153-71.0184 10.7695-73.5584L54.5135-99.5264C56.6095-100.773 58.9995-101.431 61.4235-101.431C63.8425-101.431 66.2335-100.773 68.3345-99.5264L112.079-73.5584C115.681-71.4164 118.117-67.7104 118.799-63.5594C117.344-66.6534 114.076-67.4964 110.26-65.2684ZM79.7255 4.87055L79.8005 8.60055C79.8055 9.05055 79.5115 9.56455 79.1595 9.74355L76.9485 11.0136C76.5955 11.1926 76.3075 10.9726 76.3015 10.5226L76.2615 6.85655C74.3675 7.64155 72.4505 7.83255 71.2265 7.34155C70.9955 7.24955 70.8975 6.90855 70.9905 6.52155L71.7925 3.15055C71.8565 2.88455 72.0005 2.61955 72.1905 2.45155C72.2605 2.38855 72.3295 2.33655 72.3985 2.30155C72.5255 2.23855 72.6475 2.22055 72.7565 2.26655C74.0785 2.71155 75.7645 2.50355 77.3865 1.68355C79.4475 0.638552 80.8275-1.46245 80.8045-3.55245C80.7875-5.44645 79.7595-6.23645 77.2655-6.25445C74.0905-6.24845 71.1225-6.87245 71.0765-11.5484C71.0365-15.3994 73.0395-19.4054 76.2095-21.9404L76.1685-25.7044C76.1625-26.1664 76.4455-26.6744 76.8095-26.8584L78.9455-28.2214C79.2975-28.4004 79.5865-28.1804 79.5925-27.7194L79.6265-23.9494C81.2025-24.5784 82.5765-24.7454 83.8185-24.4574C84.0895-24.3874 84.2055-24.0184 84.0955-23.5854L83.2645-20.2484C83.2005-19.9944 83.0565-19.7404 82.8885-19.5784C82.8195-19.5094 82.7445-19.4574 82.6695-19.4174C82.5595-19.3594 82.4495-19.3424 82.3405-19.3654C81.7745-19.4924 80.4235-19.7864 78.3045-18.7124C76.0825-17.5874 75.3025-15.6534 75.3205-14.2214C75.3375-12.5064 76.2145-11.9874 79.2515-11.9354C83.2925-11.8654 85.0425-10.0994 85.0825-6.02945C85.1225-2.05145 82.9925 2.24355 79.7255 4.87055ZM102.662-1.40445C102.662-1.05845 102.616-0.735448 102.328-0.567448L91.2655 6.15255C90.9775 6.31955 90.7465 6.17555 90.7465 5.82955L90.7465 2.97755C90.7465 2.63055 90.9595 2.44055 91.2485 2.27255L102.143-4.24545C102.432-4.41245 102.662-4.26845 102.662-3.92145L102.662-1.40445Z"/>
  </g>
  <g id="Semibold-L" transform="matrix(1 0 0 1 1981.84 1556)">
   <path class="monochrome-0 SFSymbolsPreview000000" d="M113.603-76.2194L69.8585-102.187C67.2495-103.734 64.3395-104.508 61.4235-104.508C58.5085-104.508 55.5985-103.734 52.9835-102.181L9.23953-76.2194C4.02053-73.1194 0.805531-67.3924 0.805531-61.1924L0.805531-9.26245C0.805531-3.06745 4.02053 2.66555 9.24553 5.76555L52.9895 31.7276C55.5985 33.2746 58.5085 34.0486 61.4235 34.0486C64.3395 34.0486 67.2495 33.2746 69.8585 31.7276L113.603 5.76555C118.822 2.66555 122.043-3.06145 122.043-9.26245L122.043-61.1924C122.043-67.3924 118.827-73.1194 113.603-76.2194ZM110.26-65.2684L68.8775-39.7104C63.7155-36.6904 59.9115-33.3074 59.9115-27.0844L59.9115 23.9106C59.9115 27.6346 61.4125 30.0476 63.7215 30.7466C62.9655 30.8786 62.1975 30.9716 61.4235 30.9716C58.9995 30.9716 56.6145 30.3136 54.5135 29.0666L10.7695 3.10455C6.49153 0.563552 3.83653-4.17545 3.83653-9.26245L3.83653-61.1924C3.83653-66.2784 6.49153-71.0184 10.7695-73.5584L54.5135-99.5264C56.6095-100.773 58.9995-101.431 61.4235-101.431C63.8425-101.431 66.2335-100.773 68.3345-99.5264L112.079-73.5584C115.681-71.4164 118.117-67.7104 118.799-63.5594C117.344-66.6534 114.076-67.4964 110.26-65.2684ZM79.7255 4.87055L79.8005 8.60055C79.8055 9.05055 79.5115 9.56455 79.1595 9.74355L76.9485 11.0136C76.5955 11.1926 76.3075 10.9726 76.3015 10.5226L76.2615 6.85655C74.3675 7.64155 72.4505 7.83255 71.2265 7.34155C70.9955 7.24955 70.8975 6.90855 70.9905 6.52155L71.7925 3.15055C71.8565 2.88455 72.0005 2.61955 72.1905 2.45155C72.2605 2.38855 72.3295 2.33655 72.3985 2.30155C72.5255 2.23855 72.6475 2.22055 72.7565 2.26655C74.0785 2.71155 75.7645 2.50355 77.3865 1.68355C79.4475 0.638552 80.8275-1.46245 80.8045-3.55245C80.7875-5.44645 79.7595-6.23645 77.2655-6.25445C74.0905-6.24845 71.1225-6.87245 71.0765-11.5484C71.0365-15.3994 73.0395-19.4054 76.2095-21.9404L76.1685-25.7044C76.1625-26.1664 76.4455-26.6744 76.8095-26.8584L78.9455-28.2214C79.2975-28.4004 79.5865-28.1804 79.5925-27.7194L79.6265-23.9494C81.2025-24.5784 82.5765-24.7454 83.8185-24.4574C84.0895-24.3874 84.2055-24.0184 84.0955-23.5854L83.2645-20.2484C83.2005-19.9944 83.0565-19.7404 82.8885-19.5784C82.8195-19.5094 82.7445-19.4574 82.6695-19.4174C82.5595-19.3594 82.4495-19.3424 82.3405-19.3654C81.7745-19.4924 80.4235-19.7864 78.3045-18.7124C76.0825-17.5874 75.3025-15.6534 75.3205-14.2214C75.3375-12.5064 76.2145-11.9874 79.2515-11.9354C83.2925-11.8654 85.0425-10.0994 85.0825-6.02945C85.1225-2.05145 82.9925 2.24355 79.7255 4.87055ZM102.662-1.40445C102.662-1.05845 102.616-0.735448 102.328-0.567448L91.2655 6.15255C90.9775 6.31955 90.7465 6.17555 90.7465 5.82955L90.7465 2.97755C90.7465 2.63055 90.9595 2.44055 91.2485 2.27255L102.143-4.24545C102.432-4.41245 102.662-4.26845 102.662-3.92145L102.662-1.40445Z"/>
  </g>
  <g id="Medium-L" transform="matrix(1 0 0 1 1685.13 1556)">
   <path class="monochrome-0 SFSymbolsPreview000000" d="M113.603-76.2194L69.8585-102.187C67.2495-103.734 64.3395-104.508 61.4235-104.508C58.5085-104.508 55.5985-103.734 52.9835-102.181L9.23953-76.2194C4.02053-73.1194 0.805531-67.3924 0.805531-61.1924L0.805531-9.26245C0.805531-3.06745 4.02053 2.66555 9.24553 5.76555L52.9895 31.7276C55.5985 33.2746 58.5085 34.0486 61.4235 34.0486C64.3395 34.0486 67.2495 33.2746 69.8585 31.7276L113.603 5.76555C118.822 2.66555 122.043-3.06145 122.043-9.26245L122.043-61.1924C122.043-67.3924 118.827-73.1194 113.603-76.2194ZM110.26-65.2684L68.8775-39.7104C63.7155-36.6904 59.9115-33.3074 59.9115-27.0844L59.9115 23.9106C59.9115 27.6346 61.4125 30.0476 63.7215 30.7466C62.9655 30.8786 62.1975 30.9716 61.4235 30.9716C58.9995 30.9716 56.6145 30.3136 54.5135 29.0666L10.7695 3.10455C6.49153 0.563552 3.83653-4.17545 3.83653-9.26245L3.83653-61.1924C3.83653-66.2784 6.49153-71.0184 10.7695-73.5584L54.5135-99.5264C56.6095-100.773 58.9995-101.431 61.4235-101.431C63.8425-101.431 66.2335-100.773 68.3345-99.5264L112.079-73.5584C115.681-71.4164 118.117-67.7104 118.799-63.5594C117.344-66.6534 114.076-67.4964 110.26-65.2684ZM79.7255 4.87055L79.8005 8.60055C79.8055 9.05055 79.5115 9.56455 79.1595 9.74355L76.9485 11.0136C76.5955 11.1926 76.3075 10.9726 76.3015 10.5226L76.2615 6.85655C74.3675 7.64155 72.4505 7.83255 71.2265 7.34155C70.9955 7.24955 70.8975 6.90855 70.9905 6.52155L71.7925 3.15055C71.8565 2.88455 72.0005 2.61955 72.1905 2.45155C72.2605 2.38855 72.3295 2.33655 72.3985 2.30155C72.5255 2.23855 72.6475 2.22055 72.7565 2.26655C74.0785 2.71155 75.7645 2.50355 77.3865 1.68355C79.4475 0.638552 80.8275-1.46245 80.8045-3.55245C80.7875-5.44645 79.7595-6.23645 77.2655-6.25445C74.0905-6.24845 71.1225-6.87245 71.0765-11.5484C71.0365-15.3994 73.0395-19.4054 76.2095-21.9404L76.1685-25.7044C76.1625-26.1664 76.4455-26.6744 76.8095-26.8584L78.9455-28.2214C79.2975-28.4004 79.5865-28.1804 79.5925-27.7194L79.6265-23.9494C81.2025-24.5784 82.5765-24.7454 83.8185-24.4574C84.0895-24.3874 84.2055-24.0184 84.0955-23.5854L83.2645-20.2484C83.2005-19.9944 83.0565-19.7404 82.8885-19.5784C82.8195-19.5094 82.7445-19.4574 82.6695-19.4174C82.5595-19.3594 82.4495-19.3424 82.3405-19.3654C81.7745-19.4924 80.4235-19.7864 78.3045-18.7124C76.0825-17.5874 75.3025-15.6534 75.3205-14.2214C75.3375-12.5064 76.2145-11.9874 79.2515-11.9354C83.2925-11.8654 85.0425-10.0994 85.0825-6.02945C85.1225-2.05145 82.9925 2.24355 79.7255 4.87055ZM102.662-1.40445C102.662-1.05845 102.616-0.735448 102.328-0.567448L91.2655 6.15255C90.9775 6.31955 90.7465 6.17555 90.7465 5.82955L90.7465 2.97755C90.7465 2.63055 90.9595 2.44055 91.2485 2.27255L102.143-4.24545C102.432-4.41245 102.662-4.26845 102.662-3.92145L102.662-1.40445Z"/>
  </g>
  <g id="Regular-L" transform="matrix(1 0 0 1 1388.42 1556)">
   <path class="monochrome-0 SFSymbolsPreview000000" d="M113.603-76.2194L69.8585-102.187C67.2495-103.734 64.3395-104.508 61.4235-104.508C58.5085-104.508 55.5985-103.734 52.9835-102.181L9.23953-76.2194C4.02053-73.1194 0.805531-67.3924 0.805531-61.1924L0.805531-9.26245C0.805531-3.06745 4.02053 2.66555 9.24553 5.76555L52.9895 31.7276C55.5985 33.2746 58.5085 34.0486 61.4235 34.0486C64.3395 34.0486 67.2495 33.2746 69.8585 31.7276L113.603 5.76555C118.822 2.66555 122.043-3.06145 122.043-9.26245L122.043-61.1924C122.043-67.3924 118.827-73.1194 113.603-76.2194ZM110.26-65.2684L68.8775-39.7104C63.7155-36.6904 59.9115-33.3074 59.9115-27.0844L59.9115 23.9106C59.9115 27.6346 61.4125 30.0476 63.7215 30.7466C62.9655 30.8786 62.1975 30.9716 61.4235 30.9716C58.9995 30.9716 56.6145 30.3136 54.5135 29.0666L10.7695 3.10455C6.49153 0.563552 3.83653-4.17545 3.83653-9.26245L3.83653-61.1924C3.83653-66.2784 6.49153-71.0184 10.7695-73.5584L54.5135-99.5264C56.6095-100.773 58.9995-101.431 61.4235-101.431C63.8425-101.431 66.2335-100.773 68.3345-99.5264L112.079-73.5584C115.681-71.4164 118.117-67.7104 118.799-63.5594C117.344-66.6534 114.076-67.4964 110.26-65.2684ZM79.7255 4.87055L79.8005 8.60055C79.8055 9.05055 79.5115 9.56455 79.1595 9.74355L76.9485 11.0136C76.5955 11.1926 76.3075 10.9726 76.3015 10.5226L76.2615 6.85655C74.3675 7.64155 72.4505 7.83255 71.2265 7.34155C70.9955 7.24955 70.8975 6.90855 70.9905 6.52155L71.7925 3.15055C71.8565 2.88455 72.0005 2.61955 72.1905 2.45155C72.2605 2.38855 72.3295 2.33655 72.3985 2.30155C72.5255 2.23855 72.6475 2.22055 72.7565 2.26655C74.0785 2.71155 75.7645 2.50355 77.3865 1.68355C79.4475 0.638552 80.8275-1.46245 80.8045-3.55245C80.7875-5.44645 79.7595-6.23645 77.2655-6.25445C74.0905-6.24845 71.1225-6.87245 71.0765-11.5484C71.0365-15.3994 73.0395-19.4054 76.2095-21.9404L76.1685-25.7044C76.1625-26.1664 76.4455-26.6744 76.8095-26.8584L78.9455-28.2214C79.2975-28.4004 79.5865-28.1804 79.5925-27.7194L79.6265-23.9494C81.2025-24.5784 82.5765-24.7454 83.8185-24.4574C84.0895-24.3874 84.2055-24.0184 84.0955-23.5854L83.2645-20.2484C83.2005-19.9944 83.0565-19.7404 82.8885-19.5784C82.8195-19.5094 82.7445-19.4574 82.6695-19.4174C82.5595-19.3594 82.4495-19.3424 82.3405-19.3654C81.7745-19.4924 80.4235-19.7864 78.3045-18.7124C76.0825-17.5874 75.3025-15.6534 75.3205-14.2214C75.3375-12.5064 76.2145-11.9874 79.2515-11.9354C83.2925-11.8654 85.0425-10.0994 85.0825-6.02945C85.1225-2.05145 82.9925 2.24355 79.7255 4.87055ZM102.662-1.40445C102.662-1.05845 102.616-0.735448 102.328-0.567448L91.2655 6.15255C90.9775 6.31955 90.7465 6.17555 90.7465 5.82955L90.7465 2.97755C90.7465 2.63055 90.9595 2.44055 91.2485 2.27255L102.143-4.24545C102.432-4.41245 102.662-4.26845 102.662-3.92145L102.662-1.40445Z"/>
  </g>
  <g id="Light-L" transform="matrix(1 0 0 1 1091.71 1556)">
   <path class="monochrome-0 SFSymbolsPreview000000" d="M113.603-76.2194L69.8585-102.187C67.2495-103.734 64.3395-104.508 61.4235-104.508C58.5085-104.508 55.5985-103.734 52.9835-102.181L9.23953-76.2194C4.02053-73.1194 0.805531-67.3924 0.805531-61.1924L0.805531-9.26245C0.805531-3.06745 4.02053 2.66555 9.24553 5.76555L52.9895 31.7276C55.5985 33.2746 58.5085 34.0486 61.4235 34.0486C64.3395 34.0486 67.2495 33.2746 69.8585 31.7276L113.603 5.76555C118.822 2.66555 122.043-3.06145 122.043-9.26245L122.043-61.1924C122.043-67.3924 118.827-73.1194 113.603-76.2194ZM110.26-65.2684L68.8775-39.7104C63.7155-36.6904 59.9115-33.3074 59.9115-27.0844L59.9115 23.9106C59.9115 27.6346 61.4125 30.0476 63.7215 30.7466C62.9655 30.8786 62.1975 30.9716 61.4235 30.9716C58.9995 30.9716 56.6145 30.3136 54.5135 29.0666L10.7695 3.10455C6.49153 0.563552 3.83653-4.17545 3.83653-9.26245L3.83653-61.1924C3.83653-66.2784 6.49153-71.0184 10.7695-73.5584L54.5135-99.5264C56.6095-100.773 58.9995-101.431 61.4235-101.431C63.8425-101.431 66.2335-100.773 68.3345-99.5264L112.079-73.5584C115.681-71.4164 118.117-67.7104 118.799-63.5594C117.344-66.6534 114.076-67.4964 110.26-65.2684ZM79.7255 4.87055L79.8005 8.60055C79.8055 9.05055 79.5115 9.56455 79.1595 9.74355L76.9485 11.0136C76.5955 11.1926 76.3075 10.9726 76.3015 10.5226L76.2615 6.85655C74.3675 7.64155 72.4505 7.83255 71.2265 7.34155C70.9955 7.24955 70.8975 6.90855 70.9905 6.52155L71.7925 3.15055C71.8565 2.88455 72.0005 2.61955 72.1905 2.45155C72.2605 2.38855 72.3295 2.33655 72.3985 2.30155C72.5255 2.23855 72.6475 2.22055 72.7565 2.26655C74.0785 2.71155 75.7645 2.50355 77.3865 1.68355C79.4475 0.638552 80.8275-1.46245 80.8045-3.55245C80.7875-5.44645 79.7595-6.23645 77.2655-6.25445C74.0905-6.24845 71.1225-6.87245 71.0765-11.5484C71.0365-15.3994 73.0395-19.4054 76.2095-21.9404L76.1685-25.7044C76.1625-26.1664 76.4455-26.6744 76.8095-26.8584L78.9455-28.2214C79.2975-28.4004 79.5865-28.1804 79.5925-27.7194L79.6265-23.9494C81.2025-24.5784 82.5765-24.7454 83.8185-24.4574C84.0895-24.3874 84.2055-24.0184 84.0955-23.5854L83.2645-20.2484C83.2005-19.9944 83.0565-19.7404 82.8885-19.5784C82.8195-19.5094 82.7445-19.4574 82.6695-19.4174C82.5595-19.3594 82.4495-19.3424 82.3405-19.3654C81.7745-19.4924 80.4235-19.7864 78.3045-18.7124C76.0825-17.5874 75.3025-15.6534 75.3205-14.2214C75.3375-12.5064 76.2145-11.9874 79.2515-11.9354C83.2925-11.8654 85.0425-10.0994 85.0825-6.02945C85.1225-2.05145 82.9925 2.24355 79.7255 4.87055ZM102.662-1.40445C102.662-1.05845 102.616-0.735448 102.328-0.567448L91.2655 6.15255C90.9775 6.31955 90.7465 6.17555 90.7465 5.82955L90.7465 2.97755C90.7465 2.63055 90.9595 2.44055 91.2485 2.27255L102.143-4.24545C102.432-4.41245 102.662-4.26845 102.662-3.92145L102.662-1.40445Z"/>
  </g>
  <g id="Thin-L" transform="matrix(1 0 0 1 794.998 1556)">
   <path class="monochrome-0 SFSymbolsPreview000000" d="M113.603-76.2194L69.8585-102.187C67.2495-103.734 64.3395-104.508 61.4235-104.508C58.5085-104.508 55.5985-103.734 52.9835-102.181L9.23953-76.2194C4.02053-73.1194 0.805531-67.3924 0.805531-61.1924L0.805531-9.26245C0.805531-3.06745 4.02053 2.66555 9.24553 5.76555L52.9895 31.7276C55.5985 33.2746 58.5085 34.0486 61.4235 34.0486C64.3395 34.0486 67.2495 33.2746 69.8585 31.7276L113.603 5.76555C118.822 2.66555 122.043-3.06145 122.043-9.26245L122.043-61.1924C122.043-67.3924 118.827-73.1194 113.603-76.2194ZM110.26-65.2684L68.8775-39.7104C63.7155-36.6904 59.9115-33.3074 59.9115-27.0844L59.9115 23.9106C59.9115 27.6346 61.4125 30.0476 63.7215 30.7466C62.9655 30.8786 62.1975 30.9716 61.4235 30.9716C58.9995 30.9716 56.6145 30.3136 54.5135 29.0666L10.7695 3.10455C6.49153 0.563552 3.83653-4.17545 3.83653-9.26245L3.83653-61.1924C3.83653-66.2784 6.49153-71.0184 10.7695-73.5584L54.5135-99.5264C56.6095-100.773 58.9995-101.431 61.4235-101.431C63.8425-101.431 66.2335-100.773 68.3345-99.5264L112.079-73.5584C115.681-71.4164 118.117-67.7104 118.799-63.5594C117.344-66.6534 114.076-67.4964 110.26-65.2684ZM79.7255 4.87055L79.8005 8.60055C79.8055 9.05055 79.5115 9.56455 79.1595 9.74355L76.9485 11.0136C76.5955 11.1926 76.3075 10.9726 76.3015 10.5226L76.2615 6.85655C74.3675 7.64155 72.4505 7.83255 71.2265 7.34155C70.9955 7.24955 70.8975 6.90855 70.9905 6.52155L71.7925 3.15055C71.8565 2.88455 72.0005 2.61955 72.1905 2.45155C72.2605 2.38855 72.3295 2.33655 72.3985 2.30155C72.5255 2.23855 72.6475 2.22055 72.7565 2.26655C74.0785 2.71155 75.7645 2.50355 77.3865 1.68355C79.4475 0.638552 80.8275-1.46245 80.8045-3.55245C80.7875-5.44645 79.7595-6.23645 77.2655-6.25445C74.0905-6.24845 71.1225-6.87245 71.0765-11.5484C71.0365-15.3994 73.0395-19.4054 76.2095-21.9404L76.1685-25.7044C76.1625-26.1664 76.4455-26.6744 76.8095-26.8584L78.9455-28.2214C79.2975-28.4004 79.5865-28.1804 79.5925-27.7194L79.6265-23.9494C81.2025-24.5784 82.5765-24.7454 83.8185-24.4574C84.0895-24.3874 84.2055-24.0184 84.0955-23.5854L83.2645-20.2484C83.2005-19.9944 83.0565-19.7404 82.8885-19.5784C82.8195-19.5094 82.7445-19.4574 82.6695-19.4174C82.5595-19.3594 82.4495-19.3424 82.3405-19.3654C81.7745-19.4924 80.4235-19.7864 78.3045-18.7124C76.0825-17.5874 75.3025-15.6534 75.3205-14.2214C75.3375-12.5064 76.2145-11.9874 79.2515-11.9354C83.2925-11.8654 85.0425-10.0994 85.0825-6.02945C85.1225-2.05145 82.9925 2.24355 79.7255 4.87055ZM102.662-1.40445C102.662-1.05845 102.616-0.735448 102.328-0.567448L91.2655 6.15255C90.9775 6.31955 90.7465 6.17555 90.7465 5.82955L90.7465 2.97755C90.7465 2.63055 90.9595 2.44055 91.2485 2.27255L102.143-4.24545C102.432-4.41245 102.662-4.26845 102.662-3.92145L102.662-1.40445Z"/>
  </g>
  <g id="Ultralight-L" transform="matrix(1 0 0 1 498.287 1556)">
   <path class="monochrome-0 SFSymbolsPreview000000" d="M113.603-76.2194L69.8585-102.187C67.2495-103.734 64.3395-104.508 61.4235-104.508C58.5085-104.508 55.5985-103.734 52.9835-102.181L9.23953-76.2194C4.02053-73.1194 0.805531-67.3924 0.805531-61.1924L0.805531-9.26245C0.805531-3.06745 4.02053 2.66555 9.24553 5.76555L52.9895 31.7276C55.5985 33.2746 58.5085 34.0486 61.4235 34.0486C64.3395 34.0486 67.2495 33.2746 69.8585 31.7276L113.603 5.76555C118.822 2.66555 122.043-3.06145 122.043-9.26245L122.043-61.1924C122.043-67.3924 118.827-73.1194 113.603-76.2194ZM110.26-65.2684L68.8775-39.7104C63.7155-36.6904 59.9115-33.3074 59.9115-27.0844L59.9115 23.9106C59.9115 27.6346 61.4125 30.0476 63.7215 30.7466C62.9655 30.8786 62.1975 30.9716 61.4235 30.9716C58.9995 30.9716 56.6145 30.3136 54.5135 29.0666L10.7695 3.10455C6.49153 0.563552 3.83653-4.17545 3.83653-9.26245L3.83653-61.1924C3.83653-66.2784 6.49153-71.0184 10.7695-73.5584L54.5135-99.5264C56.6095-100.773 58.9995-101.431 61.4235-101.431C63.8425-101.431 66.2335-100.773 68.3345-99.5264L112.079-73.5584C115.681-71.4164 118.117-67.7104 118.799-63.5594C117.344-66.6534 114.076-67.4964 110.26-65.2684ZM79.7255 4.87055L79.8005 8.60055C79.8055 9.05055 79.5115 9.56455 79.1595 9.74355L76.9485 11.0136C76.5955 11.1926 76.3075 10.9726 76.3015 10.5226L76.2615 6.85655C74.3675 7.64155 72.4505 7.83255 71.2265 7.34155C70.9955 7.24955 70.8975 6.90855 70.9905 6.52155L71.7925 3.15055C71.8565 2.88455 72.0005 2.61955 72.1905 2.45155C72.2605 2.38855 72.3295 2.33655 72.3985 2.30155C72.5255 2.23855 72.6475 2.22055 72.7565 2.26655C74.0785 2.71155 75.7645 2.50355 77.3865 1.68355C79.4475 0.638552 80.8275-1.46245 80.8045-3.55245C80.7875-5.44645 79.7595-6.23645 77.2655-6.25445C74.0905-6.24845 71.1225-6.87245 71.0765-11.5484C71.0365-15.3994 73.0395-19.4054 76.2095-21.9404L76.1685-25.7044C76.1625-26.1664 76.4455-26.6744 76.8095-26.8584L78.9455-28.2214C79.2975-28.4004 79.5865-28.1804 79.5925-27.7194L79.6265-23.9494C81.2025-24.5784 82.5765-24.7454 83.8185-24.4574C84.0895-24.3874 84.2055-24.0184 84.0955-23.5854L83.2645-20.2484C83.2005-19.9944 83.0565-19.7404 82.8885-19.5784C82.8195-19.5094 82.7445-19.4574 82.6695-19.4174C82.5595-19.3594 82.4495-19.3424 82.3405-19.3654C81.7745-19.4924 80.4235-19.7864 78.3045-18.7124C76.0825-17.5874 75.3025-15.6534 75.3205-14.2214C75.3375-12.5064 76.2145-11.9874 79.2515-11.9354C83.2925-11.8654 85.0425-10.0994 85.0825-6.02945C85.1225-2.05145 82.9925 2.24355 79.7255 4.87055ZM102.662-1.40445C102.662-1.05845 102.616-0.735448 102.328-0.567448L91.2655 6.15255C90.9775 6.31955 90.7465 6.17555 90.7465 5.82955L90.7465 2.97755C90.7465 2.63055 90.9595 2.44055 91.2485 2.27255L102.143-4.24545C102.432-4.41245 102.662-4.26845 102.662-3.92145L102.662-1.40445Z"/>
  </g>
  <g id="Black-M" transform="matrix(1 0 0 1 2885.6 1126)">
   <path class="monochrome-0 SFSymbolsPreview000000" d="M88.2445-67.0052L54.3355-87.1352C52.3125-88.3342 50.0565-88.9342 47.7965-88.9342C45.5365-88.9342 43.2815-88.3342 41.2535-87.1302L7.34453-67.0052C3.29853-64.6022 0.805531-60.1622 0.805531-55.3552L0.805531-15.1002C0.805531-10.2982 3.29853-5.85422 7.34853-3.45022L41.2585 16.6748C43.2815 17.8748 45.5365 18.4738 47.7965 18.4738C50.0565 18.4738 52.3125 17.8748 54.3355 16.6748L88.2445-3.45022C92.2905-5.85422 94.7875-10.2932 94.7875-15.1002L94.7875-55.3552C94.7875-60.1622 92.2955-64.6022 88.2445-67.0052ZM85.6535-58.5152L53.5745-38.7032C49.5735-36.3622 46.6245-33.7392 46.6245-28.9152L46.6245 10.6158C46.6245 13.5018 47.7875 15.3728 49.5775 15.9148C48.9915 16.0178 48.3965 16.0888 47.7965 16.0888C45.9175 16.0888 44.0685 15.5788 42.4395 14.6118L8.52953-5.51322C5.21353-7.48322 3.15553-11.1572 3.15553-15.1002L3.15553-55.3552C3.15553-59.2982 5.21353-62.9722 8.52953-64.9422L42.4395-85.0722C44.0645-86.0382 45.9175-86.5492 47.7965-86.5492C49.6715-86.5492 51.5245-86.0382 53.1535-85.0722L87.0635-64.9422C89.8565-63.2812 91.7445-60.4082 92.2725-57.1902C91.1455-59.5892 88.6115-60.2432 85.6535-58.5152ZM61.9835-4.14422L62.0415-1.25322C62.0465-0.904219 61.8185-0.505219 61.5455-0.367219L59.8305 0.617781C59.5575 0.756781 59.3345 0.585781 59.3295 0.236781L59.2985-2.60422C57.8305-1.99622 56.3445-1.84822 55.3955-2.22922C55.2165-2.30022 55.1405-2.56422 55.2125-2.86422L55.8345-5.47822C55.8835-5.68322 55.9955-5.88922 56.1435-6.01922C56.1965-6.06822 56.2505-6.10922 56.3045-6.13522C56.4025-6.18522 56.4965-6.19822 56.5815-6.16222C57.6065-5.81822 58.9135-5.97922 60.1715-6.61422C61.7685-7.42422 62.8385-9.05322 62.8205-10.6732C62.8075-12.1412 62.0105-12.7552 60.0775-12.7682C57.6155-12.7632 55.3155-13.2472 55.2795-16.8722C55.2485-19.8572 56.8015-22.9632 59.2585-24.9272L59.2265-27.8452C59.2225-28.2032 59.4415-28.5972 59.7235-28.7402L61.3795-29.7972C61.6525-29.9352 61.8765-29.7652 61.8805-29.4072L61.9075-26.4852C63.1295-26.9732 64.1945-27.1032 65.1565-26.8792C65.3665-26.8252 65.4565-26.5392 65.3715-26.2032L64.7265-23.6162C64.6775-23.4192 64.5655-23.2222 64.4365-23.0972C64.3825-23.0432 64.3245-23.0032 64.2665-22.9722C64.1815-22.9272 64.0955-22.9142 64.0105-22.9312C63.5725-23.0302 62.5255-23.2582 60.8825-22.4262C59.1595-21.5532 58.5555-20.0542 58.5685-18.9442C58.5825-17.6152 59.2625-17.2122 61.6165-17.1722C64.7495-17.1182 66.1055-15.7492 66.1365-12.5932C66.1685-9.51022 64.5165-6.18022 61.9835-4.14422ZM79.7645-9.00922C79.7645-8.74022 79.7285-8.49022 79.5045-8.36022L70.9295-3.15022C70.7065-3.02122 70.5275-3.13322 70.5275-3.40122L70.5275-5.61222C70.5275-5.88022 70.6925-6.02822 70.9165-6.15822L79.3615-11.2112C79.5855-11.3402 79.7645-11.2282 79.7645-10.9602L79.7645-9.00922Z"/>
  </g>
  <g id="Heavy-M" transform="matrix(1 0 0 1 2588.89 1126)">
   <path class="monochrome-0 SFSymbolsPreview000000" d="M88.2445-67.0052L54.3355-87.1352C52.3125-88.3342 50.0565-88.9342 47.7965-88.9342C45.5365-88.9342 43.2815-88.3342 41.2535-87.1302L7.34453-67.0052C3.29853-64.6022 0.805531-60.1622 0.805531-55.3552L0.805531-15.1002C0.805531-10.2982 3.29853-5.85422 7.34853-3.45022L41.2585 16.6748C43.2815 17.8748 45.5365 18.4738 47.7965 18.4738C50.0565 18.4738 52.3125 17.8748 54.3355 16.6748L88.2445-3.45022C92.2905-5.85422 94.7875-10.2932 94.7875-15.1002L94.7875-55.3552C94.7875-60.1622 92.2955-64.6022 88.2445-67.0052ZM85.6535-58.5152L53.5745-38.7032C49.5735-36.3622 46.6245-33.7392 46.6245-28.9152L46.6245 10.6158C46.6245 13.5018 47.7875 15.3728 49.5775 15.9148C48.9915 16.0178 48.3965 16.0888 47.7965 16.0888C45.9175 16.0888 44.0685 15.5788 42.4395 14.6118L8.52953-5.51322C5.21353-7.48322 3.15553-11.1572 3.15553-15.1002L3.15553-55.3552C3.15553-59.2982 5.21353-62.9722 8.52953-64.9422L42.4395-85.0722C44.0645-86.0382 45.9175-86.5492 47.7965-86.5492C49.6715-86.5492 51.5245-86.0382 53.1535-85.0722L87.0635-64.9422C89.8565-63.2812 91.7445-60.4082 92.2725-57.1902C91.1455-59.5892 88.6115-60.2432 85.6535-58.5152ZM61.9835-4.14422L62.0415-1.25322C62.0465-0.904219 61.8185-0.505219 61.5455-0.367219L59.8305 0.617781C59.5575 0.756781 59.3345 0.585781 59.3295 0.236781L59.2985-2.60422C57.8305-1.99622 56.3445-1.84822 55.3955-2.22922C55.2165-2.30022 55.1405-2.56422 55.2125-2.86422L55.8345-5.47822C55.8835-5.68322 55.9955-5.88922 56.1435-6.01922C56.1965-6.06822 56.2505-6.10922 56.3045-6.13522C56.4025-6.18522 56.4965-6.19822 56.5815-6.16222C57.6065-5.81822 58.9135-5.97922 60.1715-6.61422C61.7685-7.42422 62.8385-9.05322 62.8205-10.6732C62.8075-12.1412 62.0105-12.7552 60.0775-12.7682C57.6155-12.7632 55.3155-13.2472 55.2795-16.8722C55.2485-19.8572 56.8015-22.9632 59.2585-24.9272L59.2265-27.8452C59.2225-28.2032 59.4415-28.5972 59.7235-28.7402L61.3795-29.7972C61.6525-29.9352 61.8765-29.7652 61.8805-29.4072L61.9075-26.4852C63.1295-26.9732 64.1945-27.1032 65.1565-26.8792C65.3665-26.8252 65.4565-26.5392 65.3715-26.2032L64.7265-23.6162C64.6775-23.4192 64.5655-23.2222 64.4365-23.0972C64.3825-23.0432 64.3245-23.0032 64.2665-22.9722C64.1815-22.9272 64.0955-22.9142 64.0105-22.9312C63.5725-23.0302 62.5255-23.2582 60.8825-22.4262C59.1595-21.5532 58.5555-20.0542 58.5685-18.9442C58.5825-17.6152 59.2625-17.2122 61.6165-17.1722C64.7495-17.1182 66.1055-15.7492 66.1365-12.5932C66.1685-9.51022 64.5165-6.18022 61.9835-4.14422ZM79.7645-9.00922C79.7645-8.74022 79.7285-8.49022 79.5045-8.36022L70.9295-3.15022C70.7065-3.02122 70.5275-3.13322 70.5275-3.40122L70.5275-5.61222C70.5275-5.88022 70.6925-6.02822 70.9165-6.15822L79.3615-11.2112C79.5855-11.3402 79.7645-11.2282 79.7645-10.9602L79.7645-9.00922Z"/>
  </g>
  <g id="Bold-M" transform="matrix(1 0 0 1 2292.18 1126)">
   <path class="monochrome-0 SFSymbolsPreview000000" d="M88.2445-67.0052L54.3355-87.1352C52.3125-88.3342 50.0565-88.9342 47.7965-88.9342C45.5365-88.9342 43.2815-88.3342 41.2535-87.1302L7.34453-67.0052C3.29853-64.6022 0.805531-60.1622 0.805531-55.3552L0.805531-15.1002C0.805531-10.2982 3.29853-5.85422 7.34853-3.45022L41.2585 16.6748C43.2815 17.8748 45.5365 18.4738 47.7965 18.4738C50.0565 18.4738 52.3125 17.8748 54.3355 16.6748L88.2445-3.45022C92.2905-5.85422 94.7875-10.2932 94.7875-15.1002L94.7875-55.3552C94.7875-60.1622 92.2955-64.6022 88.2445-67.0052ZM85.6535-58.5152L53.5745-38.7032C49.5735-36.3622 46.6245-33.7392 46.6245-28.9152L46.6245 10.6158C46.6245 13.5018 47.7875 15.3728 49.5775 15.9148C48.9915 16.0178 48.3965 16.0888 47.7965 16.0888C45.9175 16.0888 44.0685 15.5788 42.4395 14.6118L8.52953-5.51322C5.21353-7.48322 3.15553-11.1572 3.15553-15.1002L3.15553-55.3552C3.15553-59.2982 5.21353-62.9722 8.52953-64.9422L42.4395-85.0722C44.0645-86.0382 45.9175-86.5492 47.7965-86.5492C49.6715-86.5492 51.5245-86.0382 53.1535-85.0722L87.0635-64.9422C89.8565-63.2812 91.7445-60.4082 92.2725-57.1902C91.1455-59.5892 88.6115-60.2432 85.6535-58.5152ZM61.9835-4.14422L62.0415-1.25322C62.0465-0.904219 61.8185-0.505219 61.5455-0.367219L59.8305 0.617781C59.5575 0.756781 59.3345 0.585781 59.3295 0.236781L59.2985-2.60422C57.8305-1.99622 56.3445-1.84822 55.3955-2.22922C55.2165-2.30022 55.1405-2.56422 55.2125-2.86422L55.8345-5.47822C55.8835-5.68322 55.9955-5.88922 56.1435-6.01922C56.1965-6.06822 56.2505-6.10922 56.3045-6.13522C56.4025-6.18522 56.4965-6.19822 56.5815-6.16222C57.6065-5.81822 58.9135-5.97922 60.1715-6.61422C61.7685-7.42422 62.8385-9.05322 62.8205-10.6732C62.8075-12.1412 62.0105-12.7552 60.0775-12.7682C57.6155-12.7632 55.3155-13.2472 55.2795-16.8722C55.2485-19.8572 56.8015-22.9632 59.2585-24.9272L59.2265-27.8452C59.2225-28.2032 59.4415-28.5972 59.7235-28.7402L61.3795-29.7972C61.6525-29.9352 61.8765-29.7652 61.8805-29.4072L61.9075-26.4852C63.1295-26.9732 64.1945-27.1032 65.1565-26.8792C65.3665-26.8252 65.4565-26.5392 65.3715-26.2032L64.7265-23.6162C64.6775-23.4192 64.5655-23.2222 64.4365-23.0972C64.3825-23.0432 64.3245-23.0032 64.2665-22.9722C64.1815-22.9272 64.0955-22.9142 64.0105-22.9312C63.5725-23.0302 62.5255-23.2582 60.8825-22.4262C59.1595-21.5532 58.5555-20.0542 58.5685-18.9442C58.5825-17.6152 59.2625-17.2122 61.6165-17.1722C64.7495-17.1182 66.1055-15.7492 66.1365-12.5932C66.1685-9.51022 64.5165-6.18022 61.9835-4.14422ZM79.7645-9.00922C79.7645-8.74022 79.7285-8.49022 79.5045-8.36022L70.9295-3.15022C70.7065-3.02122 70.5275-3.13322 70.5275-3.40122L70.5275-5.61222C70.5275-5.88022 70.6925-6.02822 70.9165-6.15822L79.3615-11.2112C79.5855-11.3402 79.7645-11.2282 79.7645-10.9602L79.7645-9.00922Z"/>
  </g>
  <g id="Semibold-M" transform="matrix(1 0 0 1 1995.47 1126)">
   <path class="monochrome-0 SFSymbolsPreview000000" d="M88.2445-67.0052L54.3355-87.1352C52.3125-88.3342 50.0565-88.9342 47.7965-88.9342C45.5365-88.9342 43.2815-88.3342 41.2535-87.1302L7.34453-67.0052C3.29853-64.6022 0.805531-60.1622 0.805531-55.3552L0.805531-15.1002C0.805531-10.2982 3.29853-5.85422 7.34853-3.45022L41.2585 16.6748C43.2815 17.8748 45.5365 18.4738 47.7965 18.4738C50.0565 18.4738 52.3125 17.8748 54.3355 16.6748L88.2445-3.45022C92.2905-5.85422 94.7875-10.2932 94.7875-15.1002L94.7875-55.3552C94.7875-60.1622 92.2955-64.6022 88.2445-67.0052ZM85.6535-58.5152L53.5745-38.7032C49.5735-36.3622 46.6245-33.7392 46.6245-28.9152L46.6245 10.6158C46.6245 13.5018 47.7875 15.3728 49.5775 15.9148C48.9915 16.0178 48.3965 16.0888 47.7965 16.0888C45.9175 16.0888 44.0685 15.5788 42.4395 14.6118L8.52953-5.51322C5.21353-7.48322 3.15553-11.1572 3.15553-15.1002L3.15553-55.3552C3.15553-59.2982 5.21353-62.9722 8.52953-64.9422L42.4395-85.0722C44.0645-86.0382 45.9175-86.5492 47.7965-86.5492C49.6715-86.5492 51.5245-86.0382 53.1535-85.0722L87.0635-64.9422C89.8565-63.2812 91.7445-60.4082 92.2725-57.1902C91.1455-59.5892 88.6115-60.2432 85.6535-58.5152ZM61.9835-4.14422L62.0415-1.25322C62.0465-0.904219 61.8185-0.505219 61.5455-0.367219L59.8305 0.617781C59.5575 0.756781 59.3345 0.585781 59.3295 0.236781L59.2985-2.60422C57.8305-1.99622 56.3445-1.84822 55.3955-2.22922C55.2165-2.30022 55.1405-2.56422 55.2125-2.86422L55.8345-5.47822C55.8835-5.68322 55.9955-5.88922 56.1435-6.01922C56.1965-6.06822 56.2505-6.10922 56.3045-6.13522C56.4025-6.18522 56.4965-6.19822 56.5815-6.16222C57.6065-5.81822 58.9135-5.97922 60.1715-6.61422C61.7685-7.42422 62.8385-9.05322 62.8205-10.6732C62.8075-12.1412 62.0105-12.7552 60.0775-12.7682C57.6155-12.7632 55.3155-13.2472 55.2795-16.8722C55.2485-19.8572 56.8015-22.9632 59.2585-24.9272L59.2265-27.8452C59.2225-28.2032 59.4415-28.5972 59.7235-28.7402L61.3795-29.7972C61.6525-29.9352 61.8765-29.7652 61.8805-29.4072L61.9075-26.4852C63.1295-26.9732 64.1945-27.1032 65.1565-26.8792C65.3665-26.8252 65.4565-26.5392 65.3715-26.2032L64.7265-23.6162C64.6775-23.4192 64.5655-23.2222 64.4365-23.0972C64.3825-23.0432 64.3245-23.0032 64.2665-22.9722C64.1815-22.9272 64.0955-22.9142 64.0105-22.9312C63.5725-23.0302 62.5255-23.2582 60.8825-22.4262C59.1595-21.5532 58.5555-20.0542 58.5685-18.9442C58.5825-17.6152 59.2625-17.2122 61.6165-17.1722C64.7495-17.1182 66.1055-15.7492 66.1365-12.5932C66.1685-9.51022 64.5165-6.18022 61.9835-4.14422ZM79.7645-9.00922C79.7645-8.74022 79.7285-8.49022 79.5045-8.36022L70.9295-3.15022C70.7065-3.02122 70.5275-3.13322 70.5275-3.40122L70.5275-5.61222C70.5275-5.88022 70.6925-6.02822 70.9165-6.15822L79.3615-11.2112C79.5855-11.3402 79.7645-11.2282 79.7645-10.9602L79.7645-9.00922Z"/>
  </g>
  <g id="Medium-M" transform="matrix(1 0 0 1 1698.76 1126)">
   <path class="monochrome-0 SFSymbolsPreview000000" d="M88.2445-67.0052L54.3355-87.1352C52.3125-88.3342 50.0565-88.9342 47.7965-88.9342C45.5365-88.9342 43.2815-88.3342 41.2535-87.1302L7.34453-67.0052C3.29853-64.6022 0.805531-60.1622 0.805531-55.3552L0.805531-15.1002C0.805531-10.2982 3.29853-5.85422 7.34853-3.45022L41.2585 16.6748C43.2815 17.8748 45.5365 18.4738 47.7965 18.4738C50.0565 18.4738 52.3125 17.8748 54.3355 16.6748L88.2445-3.45022C92.2905-5.85422 94.7875-10.2932 94.7875-15.1002L94.7875-55.3552C94.7875-60.1622 92.2955-64.6022 88.2445-67.0052ZM85.6535-58.5152L53.5745-38.7032C49.5735-36.3622 46.6245-33.7392 46.6245-28.9152L46.6245 10.6158C46.6245 13.5018 47.7875 15.3728 49.5775 15.9148C48.9915 16.0178 48.3965 16.0888 47.7965 16.0888C45.9175 16.0888 44.0685 15.5788 42.4395 14.6118L8.52953-5.51322C5.21353-7.48322 3.15553-11.1572 3.15553-15.1002L3.15553-55.3552C3.15553-59.2982 5.21353-62.9722 8.52953-64.9422L42.4395-85.0722C44.0645-86.0382 45.9175-86.5492 47.7965-86.5492C49.6715-86.5492 51.5245-86.0382 53.1535-85.0722L87.0635-64.9422C89.8565-63.2812 91.7445-60.4082 92.2725-57.1902C91.1455-59.5892 88.6115-60.2432 85.6535-58.5152ZM61.9835-4.14422L62.0415-1.25322C62.0465-0.904219 61.8185-0.505219 61.5455-0.367219L59.8305 0.617781C59.5575 0.756781 59.3345 0.585781 59.3295 0.236781L59.2985-2.60422C57.8305-1.99622 56.3445-1.84822 55.3955-2.22922C55.2165-2.30022 55.1405-2.56422 55.2125-2.86422L55.8345-5.47822C55.8835-5.68322 55.9955-5.88922 56.1435-6.01922C56.1965-6.06822 56.2505-6.10922 56.3045-6.13522C56.4025-6.18522 56.4965-6.19822 56.5815-6.16222C57.6065-5.81822 58.9135-5.97922 60.1715-6.61422C61.7685-7.42422 62.8385-9.05322 62.8205-10.6732C62.8075-12.1412 62.0105-12.7552 60.0775-12.7682C57.6155-12.7632 55.3155-13.2472 55.2795-16.8722C55.2485-19.8572 56.8015-22.9632 59.2585-24.9272L59.2265-27.8452C59.2225-28.2032 59.4415-28.5972 59.7235-28.7402L61.3795-29.7972C61.6525-29.9352 61.8765-29.7652 61.8805-29.4072L61.9075-26.4852C63.1295-26.9732 64.1945-27.1032 65.1565-26.8792C65.3665-26.8252 65.4565-26.5392 65.3715-26.2032L64.7265-23.6162C64.6775-23.4192 64.5655-23.2222 64.4365-23.0972C64.3825-23.0432 64.3245-23.0032 64.2665-22.9722C64.1815-22.9272 64.0955-22.9142 64.0105-22.9312C63.5725-23.0302 62.5255-23.2582 60.8825-22.4262C59.1595-21.5532 58.5555-20.0542 58.5685-18.9442C58.5825-17.6152 59.2625-17.2122 61.6165-17.1722C64.7495-17.1182 66.1055-15.7492 66.1365-12.5932C66.1685-9.51022 64.5165-6.18022 61.9835-4.14422ZM79.7645-9.00922C79.7645-8.74022 79.7285-8.49022 79.5045-8.36022L70.9295-3.15022C70.7065-3.02122 70.5275-3.13322 70.5275-3.40122L70.5275-5.61222C70.5275-5.88022 70.6925-6.02822 70.9165-6.15822L79.3615-11.2112C79.5855-11.3402 79.7645-11.2282 79.7645-10.9602L79.7645-9.00922Z"/>
  </g>
  <g id="Regular-M" transform="matrix(1 0 0 1 1402.05 1126)">
   <path class="monochrome-0 SFSymbolsPreview000000" d="M88.2445-67.0052L54.3355-87.1352C52.3125-88.3342 50.0565-88.9342 47.7965-88.9342C45.5365-88.9342 43.2815-88.3342 41.2535-87.1302L7.34453-67.0052C3.29853-64.6022 0.805531-60.1622 0.805531-55.3552L0.805531-15.1002C0.805531-10.2982 3.29853-5.85422 7.34853-3.45022L41.2585 16.6748C43.2815 17.8748 45.5365 18.4738 47.7965 18.4738C50.0565 18.4738 52.3125 17.8748 54.3355 16.6748L88.2445-3.45022C92.2905-5.85422 94.7875-10.2932 94.7875-15.1002L94.7875-55.3552C94.7875-60.1622 92.2955-64.6022 88.2445-67.0052ZM85.6535-58.5152L53.5745-38.7032C49.5735-36.3622 46.6245-33.7392 46.6245-28.9152L46.6245 10.6158C46.6245 13.5018 47.7875 15.3728 49.5775 15.9148C48.9915 16.0178 48.3965 16.0888 47.7965 16.0888C45.9175 16.0888 44.0685 15.5788 42.4395 14.6118L8.52953-5.51322C5.21353-7.48322 3.15553-11.1572 3.15553-15.1002L3.15553-55.3552C3.15553-59.2982 5.21353-62.9722 8.52953-64.9422L42.4395-85.0722C44.0645-86.0382 45.9175-86.5492 47.7965-86.5492C49.6715-86.5492 51.5245-86.0382 53.1535-85.0722L87.0635-64.9422C89.8565-63.2812 91.7445-60.4082 92.2725-57.1902C91.1455-59.5892 88.6115-60.2432 85.6535-58.5152ZM61.9835-4.14422L62.0415-1.25322C62.0465-0.904219 61.8185-0.505219 61.5455-0.367219L59.8305 0.617781C59.5575 0.756781 59.3345 0.585781 59.3295 0.236781L59.2985-2.60422C57.8305-1.99622 56.3445-1.84822 55.3955-2.22922C55.2165-2.30022 55.1405-2.56422 55.2125-2.86422L55.8345-5.47822C55.8835-5.68322 55.9955-5.88922 56.1435-6.01922C56.1965-6.06822 56.2505-6.10922 56.3045-6.13522C56.4025-6.18522 56.4965-6.19822 56.5815-6.16222C57.6065-5.81822 58.9135-5.97922 60.1715-6.61422C61.7685-7.42422 62.8385-9.05322 62.8205-10.6732C62.8075-12.1412 62.0105-12.7552 60.0775-12.7682C57.6155-12.7632 55.3155-13.2472 55.2795-16.8722C55.2485-19.8572 56.8015-22.9632 59.2585-24.9272L59.2265-27.8452C59.2225-28.2032 59.4415-28.5972 59.7235-28.7402L61.3795-29.7972C61.6525-29.9352 61.8765-29.7652 61.8805-29.4072L61.9075-26.4852C63.1295-26.9732 64.1945-27.1032 65.1565-26.8792C65.3665-26.8252 65.4565-26.5392 65.3715-26.2032L64.7265-23.6162C64.6775-23.4192 64.5655-23.2222 64.4365-23.0972C64.3825-23.0432 64.3245-23.0032 64.2665-22.9722C64.1815-22.9272 64.0955-22.9142 64.0105-22.9312C63.5725-23.0302 62.5255-23.2582 60.8825-22.4262C59.1595-21.5532 58.5555-20.0542 58.5685-18.9442C58.5825-17.6152 59.2625-17.2122 61.6165-17.1722C64.7495-17.1182 66.1055-15.7492 66.1365-12.5932C66.1685-9.51022 64.5165-6.18022 61.9835-4.14422ZM79.7645-9.00922C79.7645-8.74022 79.7285-8.49022 79.5045-8.36022L70.9295-3.15022C70.7065-3.02122 70.5275-3.13322 70.5275-3.40122L70.5275-5.61222C70.5275-5.88022 70.6925-6.02822 70.9165-6.15822L79.3615-11.2112C79.5855-11.3402 79.7645-11.2282 79.7645-10.9602L79.7645-9.00922Z"/>
  </g>
  <g id="Light-M" transform="matrix(1 0 0 1 1105.34 1126)">
   <path class="monochrome-0 SFSymbolsPreview000000" d="M88.2445-67.0052L54.3355-87.1352C52.3125-88.3342 50.0565-88.9342 47.7965-88.9342C45.5365-88.9342 43.2815-88.3342 41.2535-87.1302L7.34453-67.0052C3.29853-64.6022 0.805531-60.1622 0.805531-55.3552L0.805531-15.1002C0.805531-10.2982 3.29853-5.85422 7.34853-3.45022L41.2585 16.6748C43.2815 17.8748 45.5365 18.4738 47.7965 18.4738C50.0565 18.4738 52.3125 17.8748 54.3355 16.6748L88.2445-3.45022C92.2905-5.85422 94.7875-10.2932 94.7875-15.1002L94.7875-55.3552C94.7875-60.1622 92.2955-64.6022 88.2445-67.0052ZM85.6535-58.5152L53.5745-38.7032C49.5735-36.3622 46.6245-33.7392 46.6245-28.9152L46.6245 10.6158C46.6245 13.5018 47.7875 15.3728 49.5775 15.9148C48.9915 16.0178 48.3965 16.0888 47.7965 16.0888C45.9175 16.0888 44.0685 15.5788 42.4395 14.6118L8.52953-5.51322C5.21353-7.48322 3.15553-11.1572 3.15553-15.1002L3.15553-55.3552C3.15553-59.2982 5.21353-62.9722 8.52953-64.9422L42.4395-85.0722C44.0645-86.0382 45.9175-86.5492 47.7965-86.5492C49.6715-86.5492 51.5245-86.0382 53.1535-85.0722L87.0635-64.9422C89.8565-63.2812 91.7445-60.4082 92.2725-57.1902C91.1455-59.5892 88.6115-60.2432 85.6535-58.5152ZM61.9835-4.14422L62.0415-1.25322C62.0465-0.904219 61.8185-0.505219 61.5455-0.367219L59.8305 0.617781C59.5575 0.756781 59.3345 0.585781 59.3295 0.236781L59.2985-2.60422C57.8305-1.99622 56.3445-1.84822 55.3955-2.22922C55.2165-2.30022 55.1405-2.56422 55.2125-2.86422L55.8345-5.47822C55.8835-5.68322 55.9955-5.88922 56.1435-6.01922C56.1965-6.06822 56.2505-6.10922 56.3045-6.13522C56.4025-6.18522 56.4965-6.19822 56.5815-6.16222C57.6065-5.81822 58.9135-5.97922 60.1715-6.61422C61.7685-7.42422 62.8385-9.05322 62.8205-10.6732C62.8075-12.1412 62.0105-12.7552 60.0775-12.7682C57.6155-12.7632 55.3155-13.2472 55.2795-16.8722C55.2485-19.8572 56.8015-22.9632 59.2585-24.9272L59.2265-27.8452C59.2225-28.2032 59.4415-28.5972 59.7235-28.7402L61.3795-29.7972C61.6525-29.9352 61.8765-29.7652 61.8805-29.4072L61.9075-26.4852C63.1295-26.9732 64.1945-27.1032 65.1565-26.8792C65.3665-26.8252 65.4565-26.5392 65.3715-26.2032L64.7265-23.6162C64.6775-23.4192 64.5655-23.2222 64.4365-23.0972C64.3825-23.0432 64.3245-23.0032 64.2665-22.9722C64.1815-22.9272 64.0955-22.9142 64.0105-22.9312C63.5725-23.0302 62.5255-23.2582 60.8825-22.4262C59.1595-21.5532 58.5555-20.0542 58.5685-18.9442C58.5825-17.6152 59.2625-17.2122 61.6165-17.1722C64.7495-17.1182 66.1055-15.7492 66.1365-12.5932C66.1685-9.51022 64.5165-6.18022 61.9835-4.14422ZM79.7645-9.00922C79.7645-8.74022 79.7285-8.49022 79.5045-8.36022L70.9295-3.15022C70.7065-3.02122 70.5275-3.13322 70.5275-3.40122L70.5275-5.61222C70.5275-5.88022 70.6925-6.02822 70.9165-6.15822L79.3615-11.2112C79.5855-11.3402 79.7645-11.2282 79.7645-10.9602L79.7645-9.00922Z"/>
  </g>
  <g id="Thin-M" transform="matrix(1 0 0 1 808.625 1126)">
   <path class="monochrome-0 SFSymbolsPreview000000" d="M88.2445-67.0052L54.3355-87.1352C52.3125-88.3342 50.0565-88.9342 47.7965-88.9342C45.5365-88.9342 43.2815-88.3342 41.2535-87.1302L7.34453-67.0052C3.29853-64.6022 0.805531-60.1622 0.805531-55.3552L0.805531-15.1002C0.805531-10.2982 3.29853-5.85422 7.34853-3.45022L41.2585 16.6748C43.2815 17.8748 45.5365 18.4738 47.7965 18.4738C50.0565 18.4738 52.3125 17.8748 54.3355 16.6748L88.2445-3.45022C92.2905-5.85422 94.7875-10.2932 94.7875-15.1002L94.7875-55.3552C94.7875-60.1622 92.2955-64.6022 88.2445-67.0052ZM85.6535-58.5152L53.5745-38.7032C49.5735-36.3622 46.6245-33.7392 46.6245-28.9152L46.6245 10.6158C46.6245 13.5018 47.7875 15.3728 49.5775 15.9148C48.9915 16.0178 48.3965 16.0888 47.7965 16.0888C45.9175 16.0888 44.0685 15.5788 42.4395 14.6118L8.52953-5.51322C5.21353-7.48322 3.15553-11.1572 3.15553-15.1002L3.15553-55.3552C3.15553-59.2982 5.21353-62.9722 8.52953-64.9422L42.4395-85.0722C44.0645-86.0382 45.9175-86.5492 47.7965-86.5492C49.6715-86.5492 51.5245-86.0382 53.1535-85.0722L87.0635-64.9422C89.8565-63.2812 91.7445-60.4082 92.2725-57.1902C91.1455-59.5892 88.6115-60.2432 85.6535-58.5152ZM61.9835-4.14422L62.0415-1.25322C62.0465-0.904219 61.8185-0.505219 61.5455-0.367219L59.8305 0.617781C59.5575 0.756781 59.3345 0.585781 59.3295 0.236781L59.2985-2.60422C57.8305-1.99622 56.3445-1.84822 55.3955-2.22922C55.2165-2.30022 55.1405-2.56422 55.2125-2.86422L55.8345-5.47822C55.8835-5.68322 55.9955-5.88922 56.1435-6.01922C56.1965-6.06822 56.2505-6.10922 56.3045-6.13522C56.4025-6.18522 56.4965-6.19822 56.5815-6.16222C57.6065-5.81822 58.9135-5.97922 60.1715-6.61422C61.7685-7.42422 62.8385-9.05322 62.8205-10.6732C62.8075-12.1412 62.0105-12.7552 60.0775-12.7682C57.6155-12.7632 55.3155-13.2472 55.2795-16.8722C55.2485-19.8572 56.8015-22.9632 59.2585-24.9272L59.2265-27.8452C59.2225-28.2032 59.4415-28.5972 59.7235-28.7402L61.3795-29.7972C61.6525-29.9352 61.8765-29.7652 61.8805-29.4072L61.9075-26.4852C63.1295-26.9732 64.1945-27.1032 65.1565-26.8792C65.3665-26.8252 65.4565-26.5392 65.3715-26.2032L64.7265-23.6162C64.6775-23.4192 64.5655-23.2222 64.4365-23.0972C64.3825-23.0432 64.3245-23.0032 64.2665-22.9722C64.1815-22.9272 64.0955-22.9142 64.0105-22.9312C63.5725-23.0302 62.5255-23.2582 60.8825-22.4262C59.1595-21.5532 58.5555-20.0542 58.5685-18.9442C58.5825-17.6152 59.2625-17.2122 61.6165-17.1722C64.7495-17.1182 66.1055-15.7492 66.1365-12.5932C66.1685-9.51022 64.5165-6.18022 61.9835-4.14422ZM79.7645-9.00922C79.7645-8.74022 79.7285-8.49022 79.5045-8.36022L70.9295-3.15022C70.7065-3.02122 70.5275-3.13322 70.5275-3.40122L70.5275-5.61222C70.5275-5.88022 70.6925-6.02822 70.9165-6.15822L79.3615-11.2112C79.5855-11.3402 79.7645-11.2282 79.7645-10.9602L79.7645-9.00922Z"/>
  </g>
  <g id="Ultralight-M" transform="matrix(1 0 0 1 511.914 1126)">
   <path class="monochrome-0 SFSymbolsPreview000000" d="M88.2445-67.0052L54.3355-87.1352C52.3125-88.3342 50.0565-88.9342 47.7965-88.9342C45.5365-88.9342 43.2815-88.3342 41.2535-87.1302L7.34453-67.0052C3.29853-64.6022 0.805531-60.1622 0.805531-55.3552L0.805531-15.1002C0.805531-10.2982 3.29853-5.85422 7.34853-3.45022L41.2585 16.6748C43.2815 17.8748 45.5365 18.4738 47.7965 18.4738C50.0565 18.4738 52.3125 17.8748 54.3355 16.6748L88.2445-3.45022C92.2905-5.85422 94.7875-10.2932 94.7875-15.1002L94.7875-55.3552C94.7875-60.1622 92.2955-64.6022 88.2445-67.0052ZM85.6535-58.5152L53.5745-38.7032C49.5735-36.3622 46.6245-33.7392 46.6245-28.9152L46.6245 10.6158C46.6245 13.5018 47.7875 15.3728 49.5775 15.9148C48.9915 16.0178 48.3965 16.0888 47.7965 16.0888C45.9175 16.0888 44.0685 15.5788 42.4395 14.6118L8.52953-5.51322C5.21353-7.48322 3.15553-11.1572 3.15553-15.1002L3.15553-55.3552C3.15553-59.2982 5.21353-62.9722 8.52953-64.9422L42.4395-85.0722C44.0645-86.0382 45.9175-86.5492 47.7965-86.5492C49.6715-86.5492 51.5245-86.0382 53.1535-85.0722L87.0635-64.9422C89.8565-63.2812 91.7445-60.4082 92.2725-57.1902C91.1455-59.5892 88.6115-60.2432 85.6535-58.5152ZM61.9835-4.14422L62.0415-1.25322C62.0465-0.904219 61.8185-0.505219 61.5455-0.367219L59.8305 0.617781C59.5575 0.756781 59.3345 0.585781 59.3295 0.236781L59.2985-2.60422C57.8305-1.99622 56.3445-1.84822 55.3955-2.22922C55.2165-2.30022 55.1405-2.56422 55.2125-2.86422L55.8345-5.47822C55.8835-5.68322 55.9955-5.88922 56.1435-6.01922C56.1965-6.06822 56.2505-6.10922 56.3045-6.13522C56.4025-6.18522 56.4965-6.19822 56.5815-6.16222C57.6065-5.81822 58.9135-5.97922 60.1715-6.61422C61.7685-7.42422 62.8385-9.05322 62.8205-10.6732C62.8075-12.1412 62.0105-12.7552 60.0775-12.7682C57.6155-12.7632 55.3155-13.2472 55.2795-16.8722C55.2485-19.8572 56.8015-22.9632 59.2585-24.9272L59.2265-27.8452C59.2225-28.2032 59.4415-28.5972 59.7235-28.7402L61.3795-29.7972C61.6525-29.9352 61.8765-29.7652 61.8805-29.4072L61.9075-26.4852C63.1295-26.9732 64.1945-27.1032 65.1565-26.8792C65.3665-26.8252 65.4565-26.5392 65.3715-26.2032L64.7265-23.6162C64.6775-23.4192 64.5655-23.2222 64.4365-23.0972C64.3825-23.0432 64.3245-23.0032 64.2665-22.9722C64.1815-22.9272 64.0955-22.9142 64.0105-22.9312C63.5725-23.0302 62.5255-23.2582 60.8825-22.4262C59.1595-21.5532 58.5555-20.0542 58.5685-18.9442C58.5825-17.6152 59.2625-17.2122 61.6165-17.1722C64.7495-17.1182 66.1055-15.7492 66.1365-12.5932C66.1685-9.51022 64.5165-6.18022 61.9835-4.14422ZM79.7645-9.00922C79.7645-8.74022 79.7285-8.49022 79.5045-8.36022L70.9295-3.15022C70.7065-3.02122 70.5275-3.13322 70.5275-3.40122L70.5275-5.61222C70.5275-5.88022 70.6925-6.02822 70.9165-6.15822L79.3615-11.2112C79.5855-11.3402 79.7645-11.2282 79.7645-10.9602L79.7645-9.00922Z"/>
  </g>
  <g id="Black-S" transform="matrix(1 0 0 1 2895.8 696)">
   <path class="monochrome-0 SFSymbolsPreview000000" d="M69.2705-60.1094L42.7195-75.8714C41.1355-76.8104 39.3695-77.2804 37.5995-77.2804C35.8305-77.2804 34.0645-76.8104 32.4765-75.8684L5.92553-60.1094C2.75753-58.2284 0.805531-54.7514 0.805531-50.9884L0.805531-19.4684C0.805531-15.7084 2.75753-12.2284 5.92853-10.3464L32.4805 5.4116C34.0645 6.3506 35.8305 6.8206 37.5995 6.8206C39.3695 6.8206 41.1355 6.3506 42.7195 5.4116L69.2705-10.3464C72.4385-12.2284 74.3945-15.7044 74.3945-19.4684L74.3945-50.9884C74.3945-54.7514 72.4425-58.2284 69.2705-60.1094ZM67.2415-53.4624L42.1235-37.9494C38.9915-36.1164 36.6815-34.0634 36.6815-30.2854L36.6815 0.666601C36.6815 2.9276 37.5925 4.3916 38.9945 4.8156C38.5355 4.8966 38.0695 4.9526 37.5995 4.9526C36.1285 4.9526 34.6805 4.5536 33.4055 3.7966L6.85453-11.9624C4.25753-13.5044 2.64553-16.3804 2.64553-19.4684L2.64553-50.9884C2.64553-54.0754 4.25753-56.9524 6.85453-58.4944L33.4055-74.2564C34.6775-75.0134 36.1285-75.4124 37.5995-75.4124C39.0685-75.4124 40.5185-75.0134 41.7945-74.2564L68.3455-58.4944C70.5325-57.1944 72.0115-54.9444 72.4245-52.4254C71.5415-54.3034 69.5585-54.8154 67.2415-53.4624ZM48.7085-10.8894L48.7535-8.6264C48.7575-8.3524 48.5785-8.0404 48.3645-7.9324L47.0225-7.1614C46.8085-7.0524 46.6335-7.1854 46.6305-7.4594L46.6055-9.6844C45.4565-9.2074 44.2925-9.0924 43.5505-9.3904C43.4095-9.4464 43.3505-9.6524 43.4065-9.8874L43.8935-11.9344C43.9325-12.0954 44.0195-12.2564 44.1355-12.3584C44.1775-12.3964 44.2195-12.4284 44.2615-12.4494C44.3385-12.4874 44.4125-12.4984 44.4785-12.4704C45.2815-12.2004 46.3045-12.3264 47.2895-12.8244C48.5405-13.4584 49.3775-14.7344 49.3635-16.0024C49.3535-17.1514 48.7295-17.6314 47.2155-17.6424C45.2885-17.6384 43.4865-18.0174 43.4585-20.8554C43.4345-23.1934 44.6505-25.6254 46.5745-27.1634L46.5495-29.4484C46.5465-29.7284 46.7175-30.0364 46.9385-30.1484L48.2355-30.9754C48.4485-31.0844 48.6245-30.9514 48.6275-30.6714L48.6485-28.3824C49.6055-28.7644 50.4395-28.8664 51.1925-28.6914C51.3575-28.6494 51.4275-28.4244 51.3605-28.1624L50.8565-26.1364C50.8175-25.9824 50.7305-25.8284 50.6285-25.7304C50.5865-25.6884 50.5405-25.6564 50.4955-25.6324C50.4285-25.5974 50.3625-25.5864 50.2955-25.6004C49.9525-25.6774 49.1325-25.8564 47.8465-25.2044C46.4975-24.5214 46.0245-23.3474 46.0345-22.4784C46.0455-21.4374 46.5775-21.1224 48.4205-21.0904C50.8735-21.0484 51.9355-19.9764 51.9605-17.5054C51.9845-15.0914 50.6915-12.4844 48.7085-10.8894ZM62.6305-14.6984C62.6305-14.4884 62.6025-14.2924 62.4275-14.1904L55.7135-10.1114C55.5375-10.0104 55.3975-10.0974 55.3975-10.3084L55.3975-12.0394C55.3975-12.2494 55.5275-12.3654 55.7025-12.4664L62.3155-16.4234C62.4905-16.5244 62.6305-16.4374 62.6305-16.2264L62.6305-14.6984Z"/>
  </g>
  <g id="Heavy-S" transform="matrix(1 0 0 1 2599.09 696)">
   <path class="monochrome-0 SFSymbolsPreview000000" d="M69.2705-60.1094L42.7195-75.8714C41.1355-76.8104 39.3695-77.2804 37.5995-77.2804C35.8305-77.2804 34.0645-76.8104 32.4765-75.8684L5.92553-60.1094C2.75753-58.2284 0.805531-54.7514 0.805531-50.9884L0.805531-19.4684C0.805531-15.7084 2.75753-12.2284 5.92853-10.3464L32.4805 5.4116C34.0645 6.3506 35.8305 6.8206 37.5995 6.8206C39.3695 6.8206 41.1355 6.3506 42.7195 5.4116L69.2705-10.3464C72.4385-12.2284 74.3945-15.7044 74.3945-19.4684L74.3945-50.9884C74.3945-54.7514 72.4425-58.2284 69.2705-60.1094ZM67.2415-53.4624L42.1235-37.9494C38.9915-36.1164 36.6815-34.0634 36.6815-30.2854L36.6815 0.666601C36.6815 2.9276 37.5925 4.3916 38.9945 4.8156C38.5355 4.8966 38.0695 4.9526 37.5995 4.9526C36.1285 4.9526 34.6805 4.5536 33.4055 3.7966L6.85453-11.9624C4.25753-13.5044 2.64553-16.3804 2.64553-19.4684L2.64553-50.9884C2.64553-54.0754 4.25753-56.9524 6.85453-58.4944L33.4055-74.2564C34.6775-75.0134 36.1285-75.4124 37.5995-75.4124C39.0685-75.4124 40.5185-75.0134 41.7945-74.2564L68.3455-58.4944C70.5325-57.1944 72.0115-54.9444 72.4245-52.4254C71.5415-54.3034 69.5585-54.8154 67.2415-53.4624ZM48.7085-10.8894L48.7535-8.6264C48.7575-8.3524 48.5785-8.0404 48.3645-7.9324L47.0225-7.1614C46.8085-7.0524 46.6335-7.1854 46.6305-7.4594L46.6055-9.6844C45.4565-9.2074 44.2925-9.0924 43.5505-9.3904C43.4095-9.4464 43.3505-9.6524 43.4065-9.8874L43.8935-11.9344C43.9325-12.0954 44.0195-12.2564 44.1355-12.3584C44.1775-12.3964 44.2195-12.4284 44.2615-12.4494C44.3385-12.4874 44.4125-12.4984 44.4785-12.4704C45.2815-12.2004 46.3045-12.3264 47.2895-12.8244C48.5405-13.4584 49.3775-14.7344 49.3635-16.0024C49.3535-17.1514 48.7295-17.6314 47.2155-17.6424C45.2885-17.6384 43.4865-18.0174 43.4585-20.8554C43.4345-23.1934 44.6505-25.6254 46.5745-27.1634L46.5495-29.4484C46.5465-29.7284 46.7175-30.0364 46.9385-30.1484L48.2355-30.9754C48.4485-31.0844 48.6245-30.9514 48.6275-30.6714L48.6485-28.3824C49.6055-28.7644 50.4395-28.8664 51.1925-28.6914C51.3575-28.6494 51.4275-28.4244 51.3605-28.1624L50.8565-26.1364C50.8175-25.9824 50.7305-25.8284 50.6285-25.7304C50.5865-25.6884 50.5405-25.6564 50.4955-25.6324C50.4285-25.5974 50.3625-25.5864 50.2955-25.6004C49.9525-25.6774 49.1325-25.8564 47.8465-25.2044C46.4975-24.5214 46.0245-23.3474 46.0345-22.4784C46.0455-21.4374 46.5775-21.1224 48.4205-21.0904C50.8735-21.0484 51.9355-19.9764 51.9605-17.5054C51.9845-15.0914 50.6915-12.4844 48.7085-10.8894ZM62.6305-14.6984C62.6305-14.4884 62.6025-14.2924 62.4275-14.1904L55.7135-10.1114C55.5375-10.0104 55.3975-10.0974 55.3975-10.3084L55.3975-12.0394C55.3975-12.2494 55.5275-12.3654 55.7025-12.4664L62.3155-16.4234C62.4905-16.5244 62.6305-16.4374 62.6305-16.2264L62.6305-14.6984Z"/>
  </g>
  <g id="Bold-S" transform="matrix(1 0 0 1 2302.38 696)">
   <path class="monochrome-0 SFSymbolsPreview000000" d="M69.2705-60.1094L42.7195-75.8714C41.1355-76.8104 39.3695-77.2804 37.5995-77.2804C35.8305-77.2804 34.0645-76.8104 32.4765-75.8684L5.92553-60.1094C2.75753-58.2284 0.805531-54.7514 0.805531-50.9884L0.805531-19.4684C0.805531-15.7084 2.75753-12.2284 5.92853-10.3464L32.4805 5.4116C34.0645 6.3506 35.8305 6.8206 37.5995 6.8206C39.3695 6.8206 41.1355 6.3506 42.7195 5.4116L69.2705-10.3464C72.4385-12.2284 74.3945-15.7044 74.3945-19.4684L74.3945-50.9884C74.3945-54.7514 72.4425-58.2284 69.2705-60.1094ZM67.2415-53.4624L42.1235-37.9494C38.9915-36.1164 36.6815-34.0634 36.6815-30.2854L36.6815 0.666601C36.6815 2.9276 37.5925 4.3916 38.9945 4.8156C38.5355 4.8966 38.0695 4.9526 37.5995 4.9526C36.1285 4.9526 34.6805 4.5536 33.4055 3.7966L6.85453-11.9624C4.25753-13.5044 2.64553-16.3804 2.64553-19.4684L2.64553-50.9884C2.64553-54.0754 4.25753-56.9524 6.85453-58.4944L33.4055-74.2564C34.6775-75.0134 36.1285-75.4124 37.5995-75.4124C39.0685-75.4124 40.5185-75.0134 41.7945-74.2564L68.3455-58.4944C70.5325-57.1944 72.0115-54.9444 72.4245-52.4254C71.5415-54.3034 69.5585-54.8154 67.2415-53.4624ZM48.7085-10.8894L48.7535-8.6264C48.7575-8.3524 48.5785-8.0404 48.3645-7.9324L47.0225-7.1614C46.8085-7.0524 46.6335-7.1854 46.6305-7.4594L46.6055-9.6844C45.4565-9.2074 44.2925-9.0924 43.5505-9.3904C43.4095-9.4464 43.3505-9.6524 43.4065-9.8874L43.8935-11.9344C43.9325-12.0954 44.0195-12.2564 44.1355-12.3584C44.1775-12.3964 44.2195-12.4284 44.2615-12.4494C44.3385-12.4874 44.4125-12.4984 44.4785-12.4704C45.2815-12.2004 46.3045-12.3264 47.2895-12.8244C48.5405-13.4584 49.3775-14.7344 49.3635-16.0024C49.3535-17.1514 48.7295-17.6314 47.2155-17.6424C45.2885-17.6384 43.4865-18.0174 43.4585-20.8554C43.4345-23.1934 44.6505-25.6254 46.5745-27.1634L46.5495-29.4484C46.5465-29.7284 46.7175-30.0364 46.9385-30.1484L48.2355-30.9754C48.4485-31.0844 48.6245-30.9514 48.6275-30.6714L48.6485-28.3824C49.6055-28.7644 50.4395-28.8664 51.1925-28.6914C51.3575-28.6494 51.4275-28.4244 51.3605-28.1624L50.8565-26.1364C50.8175-25.9824 50.7305-25.8284 50.6285-25.7304C50.5865-25.6884 50.5405-25.6564 50.4955-25.6324C50.4285-25.5974 50.3625-25.5864 50.2955-25.6004C49.9525-25.6774 49.1325-25.8564 47.8465-25.2044C46.4975-24.5214 46.0245-23.3474 46.0345-22.4784C46.0455-21.4374 46.5775-21.1224 48.4205-21.0904C50.8735-21.0484 51.9355-19.9764 51.9605-17.5054C51.9845-15.0914 50.6915-12.4844 48.7085-10.8894ZM62.6305-14.6984C62.6305-14.4884 62.6025-14.2924 62.4275-14.1904L55.7135-10.1114C55.5375-10.0104 55.3975-10.0974 55.3975-10.3084L55.3975-12.0394C55.3975-12.2494 55.5275-12.3654 55.7025-12.4664L62.3155-16.4234C62.4905-16.5244 62.6305-16.4374 62.6305-16.2264L62.6305-14.6984Z"/>
  </g>
  <g id="Semibold-S" transform="matrix(1 0 0 1 2005.67 696)">
   <path class="monochrome-0 SFSymbolsPreview000000" d="M69.2705-60.1094L42.7195-75.8714C41.1355-76.8104 39.3695-77.2804 37.5995-77.2804C35.8305-77.2804 34.0645-76.8104 32.4765-75.8684L5.92553-60.1094C2.75753-58.2284 0.805531-54.7514 0.805531-50.9884L0.805531-19.4684C0.805531-15.7084 2.75753-12.2284 5.92853-10.3464L32.4805 5.4116C34.0645 6.3506 35.8305 6.8206 37.5995 6.8206C39.3695 6.8206 41.1355 6.3506 42.7195 5.4116L69.2705-10.3464C72.4385-12.2284 74.3945-15.7044 74.3945-19.4684L74.3945-50.9884C74.3945-54.7514 72.4425-58.2284 69.2705-60.1094ZM67.2415-53.4624L42.1235-37.9494C38.9915-36.1164 36.6815-34.0634 36.6815-30.2854L36.6815 0.666601C36.6815 2.9276 37.5925 4.3916 38.9945 4.8156C38.5355 4.8966 38.0695 4.9526 37.5995 4.9526C36.1285 4.9526 34.6805 4.5536 33.4055 3.7966L6.85453-11.9624C4.25753-13.5044 2.64553-16.3804 2.64553-19.4684L2.64553-50.9884C2.64553-54.0754 4.25753-56.9524 6.85453-58.4944L33.4055-74.2564C34.6775-75.0134 36.1285-75.4124 37.5995-75.4124C39.0685-75.4124 40.5185-75.0134 41.7945-74.2564L68.3455-58.4944C70.5325-57.1944 72.0115-54.9444 72.4245-52.4254C71.5415-54.3034 69.5585-54.8154 67.2415-53.4624ZM48.7085-10.8894L48.7535-8.6264C48.7575-8.3524 48.5785-8.0404 48.3645-7.9324L47.0225-7.1614C46.8085-7.0524 46.6335-7.1854 46.6305-7.4594L46.6055-9.6844C45.4565-9.2074 44.2925-9.0924 43.5505-9.3904C43.4095-9.4464 43.3505-9.6524 43.4065-9.8874L43.8935-11.9344C43.9325-12.0954 44.0195-12.2564 44.1355-12.3584C44.1775-12.3964 44.2195-12.4284 44.2615-12.4494C44.3385-12.4874 44.4125-12.4984 44.4785-12.4704C45.2815-12.2004 46.3045-12.3264 47.2895-12.8244C48.5405-13.4584 49.3775-14.7344 49.3635-16.0024C49.3535-17.1514 48.7295-17.6314 47.2155-17.6424C45.2885-17.6384 43.4865-18.0174 43.4585-20.8554C43.4345-23.1934 44.6505-25.6254 46.5745-27.1634L46.5495-29.4484C46.5465-29.7284 46.7175-30.0364 46.9385-30.1484L48.2355-30.9754C48.4485-31.0844 48.6245-30.9514 48.6275-30.6714L48.6485-28.3824C49.6055-28.7644 50.4395-28.8664 51.1925-28.6914C51.3575-28.6494 51.4275-28.4244 51.3605-28.1624L50.8565-26.1364C50.8175-25.9824 50.7305-25.8284 50.6285-25.7304C50.5865-25.6884 50.5405-25.6564 50.4955-25.6324C50.4285-25.5974 50.3625-25.5864 50.2955-25.6004C49.9525-25.6774 49.1325-25.8564 47.8465-25.2044C46.4975-24.5214 46.0245-23.3474 46.0345-22.4784C46.0455-21.4374 46.5775-21.1224 48.4205-21.0904C50.8735-21.0484 51.9355-19.9764 51.9605-17.5054C51.9845-15.0914 50.6915-12.4844 48.7085-10.8894ZM62.6305-14.6984C62.6305-14.4884 62.6025-14.2924 62.4275-14.1904L55.7135-10.1114C55.5375-10.0104 55.3975-10.0974 55.3975-10.3084L55.3975-12.0394C55.3975-12.2494 55.5275-12.3654 55.7025-12.4664L62.3155-16.4234C62.4905-16.5244 62.6305-16.4374 62.6305-16.2264L62.6305-14.6984Z"/>
  </g>
  <g id="Medium-S" transform="matrix(1 0 0 1 1708.96 696)">
   <path class="monochrome-0 SFSymbolsPreview000000" d="M69.2705-60.1094L42.7195-75.8714C41.1355-76.8104 39.3695-77.2804 37.5995-77.2804C35.8305-77.2804 34.0645-76.8104 32.4765-75.8684L5.92553-60.1094C2.75753-58.2284 0.805531-54.7514 0.805531-50.9884L0.805531-19.4684C0.805531-15.7084 2.75753-12.2284 5.92853-10.3464L32.4805 5.4116C34.0645 6.3506 35.8305 6.8206 37.5995 6.8206C39.3695 6.8206 41.1355 6.3506 42.7195 5.4116L69.2705-10.3464C72.4385-12.2284 74.3945-15.7044 74.3945-19.4684L74.3945-50.9884C74.3945-54.7514 72.4425-58.2284 69.2705-60.1094ZM67.2415-53.4624L42.1235-37.9494C38.9915-36.1164 36.6815-34.0634 36.6815-30.2854L36.6815 0.666601C36.6815 2.9276 37.5925 4.3916 38.9945 4.8156C38.5355 4.8966 38.0695 4.9526 37.5995 4.9526C36.1285 4.9526 34.6805 4.5536 33.4055 3.7966L6.85453-11.9624C4.25753-13.5044 2.64553-16.3804 2.64553-19.4684L2.64553-50.9884C2.64553-54.0754 4.25753-56.9524 6.85453-58.4944L33.4055-74.2564C34.6775-75.0134 36.1285-75.4124 37.5995-75.4124C39.0685-75.4124 40.5185-75.0134 41.7945-74.2564L68.3455-58.4944C70.5325-57.1944 72.0115-54.9444 72.4245-52.4254C71.5415-54.3034 69.5585-54.8154 67.2415-53.4624ZM48.7085-10.8894L48.7535-8.6264C48.7575-8.3524 48.5785-8.0404 48.3645-7.9324L47.0225-7.1614C46.8085-7.0524 46.6335-7.1854 46.6305-7.4594L46.6055-9.6844C45.4565-9.2074 44.2925-9.0924 43.5505-9.3904C43.4095-9.4464 43.3505-9.6524 43.4065-9.8874L43.8935-11.9344C43.9325-12.0954 44.0195-12.2564 44.1355-12.3584C44.1775-12.3964 44.2195-12.4284 44.2615-12.4494C44.3385-12.4874 44.4125-12.4984 44.4785-12.4704C45.2815-12.2004 46.3045-12.3264 47.2895-12.8244C48.5405-13.4584 49.3775-14.7344 49.3635-16.0024C49.3535-17.1514 48.7295-17.6314 47.2155-17.6424C45.2885-17.6384 43.4865-18.0174 43.4585-20.8554C43.4345-23.1934 44.6505-25.6254 46.5745-27.1634L46.5495-29.4484C46.5465-29.7284 46.7175-30.0364 46.9385-30.1484L48.2355-30.9754C48.4485-31.0844 48.6245-30.9514 48.6275-30.6714L48.6485-28.3824C49.6055-28.7644 50.4395-28.8664 51.1925-28.6914C51.3575-28.6494 51.4275-28.4244 51.3605-28.1624L50.8565-26.1364C50.8175-25.9824 50.7305-25.8284 50.6285-25.7304C50.5865-25.6884 50.5405-25.6564 50.4955-25.6324C50.4285-25.5974 50.3625-25.5864 50.2955-25.6004C49.9525-25.6774 49.1325-25.8564 47.8465-25.2044C46.4975-24.5214 46.0245-23.3474 46.0345-22.4784C46.0455-21.4374 46.5775-21.1224 48.4205-21.0904C50.8735-21.0484 51.9355-19.9764 51.9605-17.5054C51.9845-15.0914 50.6915-12.4844 48.7085-10.8894ZM62.6305-14.6984C62.6305-14.4884 62.6025-14.2924 62.4275-14.1904L55.7135-10.1114C55.5375-10.0104 55.3975-10.0974 55.3975-10.3084L55.3975-12.0394C55.3975-12.2494 55.5275-12.3654 55.7025-12.4664L62.3155-16.4234C62.4905-16.5244 62.6305-16.4374 62.6305-16.2264L62.6305-14.6984Z"/>
  </g>
  <g id="Regular-S" transform="matrix(1 0 0 1 1412.24 696)">
   <path class="monochrome-0 SFSymbolsPreview000000" d="M69.2705-60.1094L42.7195-75.8714C41.1355-76.8104 39.3695-77.2804 37.5995-77.2804C35.8305-77.2804 34.0645-76.8104 32.4765-75.8684L5.92553-60.1094C2.75753-58.2284 0.805531-54.7514 0.805531-50.9884L0.805531-19.4684C0.805531-15.7084 2.75753-12.2284 5.92853-10.3464L32.4805 5.4116C34.0645 6.3506 35.8305 6.8206 37.5995 6.8206C39.3695 6.8206 41.1355 6.3506 42.7195 5.4116L69.2705-10.3464C72.4385-12.2284 74.3945-15.7044 74.3945-19.4684L74.3945-50.9884C74.3945-54.7514 72.4425-58.2284 69.2705-60.1094ZM67.2415-53.4624L42.1235-37.9494C38.9915-36.1164 36.6815-34.0634 36.6815-30.2854L36.6815 0.666601C36.6815 2.9276 37.5925 4.3916 38.9945 4.8156C38.5355 4.8966 38.0695 4.9526 37.5995 4.9526C36.1285 4.9526 34.6805 4.5536 33.4055 3.7966L6.85453-11.9624C4.25753-13.5044 2.64553-16.3804 2.64553-19.4684L2.64553-50.9884C2.64553-54.0754 4.25753-56.9524 6.85453-58.4944L33.4055-74.2564C34.6775-75.0134 36.1285-75.4124 37.5995-75.4124C39.0685-75.4124 40.5185-75.0134 41.7945-74.2564L68.3455-58.4944C70.5325-57.1944 72.0115-54.9444 72.4245-52.4254C71.5415-54.3034 69.5585-54.8154 67.2415-53.4624ZM48.7085-10.8894L48.7535-8.6264C48.7575-8.3524 48.5785-8.0404 48.3645-7.9324L47.0225-7.1614C46.8085-7.0524 46.6335-7.1854 46.6305-7.4594L46.6055-9.6844C45.4565-9.2074 44.2925-9.0924 43.5505-9.3904C43.4095-9.4464 43.3505-9.6524 43.4065-9.8874L43.8935-11.9344C43.9325-12.0954 44.0195-12.2564 44.1355-12.3584C44.1775-12.3964 44.2195-12.4284 44.2615-12.4494C44.3385-12.4874 44.4125-12.4984 44.4785-12.4704C45.2815-12.2004 46.3045-12.3264 47.2895-12.8244C48.5405-13.4584 49.3775-14.7344 49.3635-16.0024C49.3535-17.1514 48.7295-17.6314 47.2155-17.6424C45.2885-17.6384 43.4865-18.0174 43.4585-20.8554C43.4345-23.1934 44.6505-25.6254 46.5745-27.1634L46.5495-29.4484C46.5465-29.7284 46.7175-30.0364 46.9385-30.1484L48.2355-30.9754C48.4485-31.0844 48.6245-30.9514 48.6275-30.6714L48.6485-28.3824C49.6055-28.7644 50.4395-28.8664 51.1925-28.6914C51.3575-28.6494 51.4275-28.4244 51.3605-28.1624L50.8565-26.1364C50.8175-25.9824 50.7305-25.8284 50.6285-25.7304C50.5865-25.6884 50.5405-25.6564 50.4955-25.6324C50.4285-25.5974 50.3625-25.5864 50.2955-25.6004C49.9525-25.6774 49.1325-25.8564 47.8465-25.2044C46.4975-24.5214 46.0245-23.3474 46.0345-22.4784C46.0455-21.4374 46.5775-21.1224 48.4205-21.0904C50.8735-21.0484 51.9355-19.9764 51.9605-17.5054C51.9845-15.0914 50.6915-12.4844 48.7085-10.8894ZM62.6305-14.6984C62.6305-14.4884 62.6025-14.2924 62.4275-14.1904L55.7135-10.1114C55.5375-10.0104 55.3975-10.0974 55.3975-10.3084L55.3975-12.0394C55.3975-12.2494 55.5275-12.3654 55.7025-12.4664L62.3155-16.4234C62.4905-16.5244 62.6305-16.4374 62.6305-16.2264L62.6305-14.6984Z"/>
  </g>
  <g id="Light-S" transform="matrix(1 0 0 1 1115.53 696)">
   <path class="monochrome-0 SFSymbolsPreview000000" d="M69.2705-60.1094L42.7195-75.8714C41.1355-76.8104 39.3695-77.2804 37.5995-77.2804C35.8305-77.2804 34.0645-76.8104 32.4765-75.8684L5.92553-60.1094C2.75753-58.2284 0.805531-54.7514 0.805531-50.9884L0.805531-19.4684C0.805531-15.7084 2.75753-12.2284 5.92853-10.3464L32.4805 5.4116C34.0645 6.3506 35.8305 6.8206 37.5995 6.8206C39.3695 6.8206 41.1355 6.3506 42.7195 5.4116L69.2705-10.3464C72.4385-12.2284 74.3945-15.7044 74.3945-19.4684L74.3945-50.9884C74.3945-54.7514 72.4425-58.2284 69.2705-60.1094ZM67.2415-53.4624L42.1235-37.9494C38.9915-36.1164 36.6815-34.0634 36.6815-30.2854L36.6815 0.666601C36.6815 2.9276 37.5925 4.3916 38.9945 4.8156C38.5355 4.8966 38.0695 4.9526 37.5995 4.9526C36.1285 4.9526 34.6805 4.5536 33.4055 3.7966L6.85453-11.9624C4.25753-13.5044 2.64553-16.3804 2.64553-19.4684L2.64553-50.9884C2.64553-54.0754 4.25753-56.9524 6.85453-58.4944L33.4055-74.2564C34.6775-75.0134 36.1285-75.4124 37.5995-75.4124C39.0685-75.4124 40.5185-75.0134 41.7945-74.2564L68.3455-58.4944C70.5325-57.1944 72.0115-54.9444 72.4245-52.4254C71.5415-54.3034 69.5585-54.8154 67.2415-53.4624ZM48.7085-10.8894L48.7535-8.6264C48.7575-8.3524 48.5785-8.0404 48.3645-7.9324L47.0225-7.1614C46.8085-7.0524 46.6335-7.1854 46.6305-7.4594L46.6055-9.6844C45.4565-9.2074 44.2925-9.0924 43.5505-9.3904C43.4095-9.4464 43.3505-9.6524 43.4065-9.8874L43.8935-11.9344C43.9325-12.0954 44.0195-12.2564 44.1355-12.3584C44.1775-12.3964 44.2195-12.4284 44.2615-12.4494C44.3385-12.4874 44.4125-12.4984 44.4785-12.4704C45.2815-12.2004 46.3045-12.3264 47.2895-12.8244C48.5405-13.4584 49.3775-14.7344 49.3635-16.0024C49.3535-17.1514 48.7295-17.6314 47.2155-17.6424C45.2885-17.6384 43.4865-18.0174 43.4585-20.8554C43.4345-23.1934 44.6505-25.6254 46.5745-27.1634L46.5495-29.4484C46.5465-29.7284 46.7175-30.0364 46.9385-30.1484L48.2355-30.9754C48.4485-31.0844 48.6245-30.9514 48.6275-30.6714L48.6485-28.3824C49.6055-28.7644 50.4395-28.8664 51.1925-28.6914C51.3575-28.6494 51.4275-28.4244 51.3605-28.1624L50.8565-26.1364C50.8175-25.9824 50.7305-25.8284 50.6285-25.7304C50.5865-25.6884 50.5405-25.6564 50.4955-25.6324C50.4285-25.5974 50.3625-25.5864 50.2955-25.6004C49.9525-25.6774 49.1325-25.8564 47.8465-25.2044C46.4975-24.5214 46.0245-23.3474 46.0345-22.4784C46.0455-21.4374 46.5775-21.1224 48.4205-21.0904C50.8735-21.0484 51.9355-19.9764 51.9605-17.5054C51.9845-15.0914 50.6915-12.4844 48.7085-10.8894ZM62.6305-14.6984C62.6305-14.4884 62.6025-14.2924 62.4275-14.1904L55.7135-10.1114C55.5375-10.0104 55.3975-10.0974 55.3975-10.3084L55.3975-12.0394C55.3975-12.2494 55.5275-12.3654 55.7025-12.4664L62.3155-16.4234C62.4905-16.5244 62.6305-16.4374 62.6305-16.2264L62.6305-14.6984Z"/>
  </g>
  <g id="Thin-S" transform="matrix(1 0 0 1 818.822 696)">
   <path class="monochrome-0 SFSymbolsPreview000000" d="M69.2705-60.1094L42.7195-75.8714C41.1355-76.8104 39.3695-77.2804 37.5995-77.2804C35.8305-77.2804 34.0645-76.8104 32.4765-75.8684L5.92553-60.1094C2.75753-58.2284 0.805531-54.7514 0.805531-50.9884L0.805531-19.4684C0.805531-15.7084 2.75753-12.2284 5.92853-10.3464L32.4805 5.4116C34.0645 6.3506 35.8305 6.8206 37.5995 6.8206C39.3695 6.8206 41.1355 6.3506 42.7195 5.4116L69.2705-10.3464C72.4385-12.2284 74.3945-15.7044 74.3945-19.4684L74.3945-50.9884C74.3945-54.7514 72.4425-58.2284 69.2705-60.1094ZM67.2415-53.4624L42.1235-37.9494C38.9915-36.1164 36.6815-34.0634 36.6815-30.2854L36.6815 0.666601C36.6815 2.9276 37.5925 4.3916 38.9945 4.8156C38.5355 4.8966 38.0695 4.9526 37.5995 4.9526C36.1285 4.9526 34.6805 4.5536 33.4055 3.7966L6.85453-11.9624C4.25753-13.5044 2.64553-16.3804 2.64553-19.4684L2.64553-50.9884C2.64553-54.0754 4.25753-56.9524 6.85453-58.4944L33.4055-74.2564C34.6775-75.0134 36.1285-75.4124 37.5995-75.4124C39.0685-75.4124 40.5185-75.0134 41.7945-74.2564L68.3455-58.4944C70.5325-57.1944 72.0115-54.9444 72.4245-52.4254C71.5415-54.3034 69.5585-54.8154 67.2415-53.4624ZM48.7085-10.8894L48.7535-8.6264C48.7575-8.3524 48.5785-8.0404 48.3645-7.9324L47.0225-7.1614C46.8085-7.0524 46.6335-7.1854 46.6305-7.4594L46.6055-9.6844C45.4565-9.2074 44.2925-9.0924 43.5505-9.3904C43.4095-9.4464 43.3505-9.6524 43.4065-9.8874L43.8935-11.9344C43.9325-12.0954 44.0195-12.2564 44.1355-12.3584C44.1775-12.3964 44.2195-12.4284 44.2615-12.4494C44.3385-12.4874 44.4125-12.4984 44.4785-12.4704C45.2815-12.2004 46.3045-12.3264 47.2895-12.8244C48.5405-13.4584 49.3775-14.7344 49.3635-16.0024C49.3535-17.1514 48.7295-17.6314 47.2155-17.6424C45.2885-17.6384 43.4865-18.0174 43.4585-20.8554C43.4345-23.1934 44.6505-25.6254 46.5745-27.1634L46.5495-29.4484C46.5465-29.7284 46.7175-30.0364 46.9385-30.1484L48.2355-30.9754C48.4485-31.0844 48.6245-30.9514 48.6275-30.6714L48.6485-28.3824C49.6055-28.7644 50.4395-28.8664 51.1925-28.6914C51.3575-28.6494 51.4275-28.4244 51.3605-28.1624L50.8565-26.1364C50.8175-25.9824 50.7305-25.8284 50.6285-25.7304C50.5865-25.6884 50.5405-25.6564 50.4955-25.6324C50.4285-25.5974 50.3625-25.5864 50.2955-25.6004C49.9525-25.6774 49.1325-25.8564 47.8465-25.2044C46.4975-24.5214 46.0245-23.3474 46.0345-22.4784C46.0455-21.4374 46.5775-21.1224 48.4205-21.0904C50.8735-21.0484 51.9355-19.9764 51.9605-17.5054C51.9845-15.0914 50.6915-12.4844 48.7085-10.8894ZM62.6305-14.6984C62.6305-14.4884 62.6025-14.2924 62.4275-14.1904L55.7135-10.1114C55.5375-10.0104 55.3975-10.0974 55.3975-10.3084L55.3975-12.0394C55.3975-12.2494 55.5275-12.3654 55.7025-12.4664L62.3155-16.4234C62.4905-16.5244 62.6305-16.4374 62.6305-16.2264L62.6305-14.6984Z"/>
  </g>
  <g id="Ultralight-S" transform="matrix(1 0 0 1 522.111 696)">
   <path class="monochrome-0 SFSymbolsPreview000000" d="M69.2705-60.1094L42.7195-75.8714C41.1355-76.8104 39.3695-77.2804 37.5995-77.2804C35.8305-77.2804 34.0645-76.8104 32.4765-75.8684L5.92553-60.1094C2.75753-58.2284 0.805531-54.7514 0.805531-50.9884L0.805531-19.4684C0.805531-15.7084 2.75753-12.2284 5.92853-10.3464L32.4805 5.4116C34.0645 6.3506 35.8305 6.8206 37.5995 6.8206C39.3695 6.8206 41.1355 6.3506 42.7195 5.4116L69.2705-10.3464C72.4385-12.2284 74.3945-15.7044 74.3945-19.4684L74.3945-50.9884C74.3945-54.7514 72.4425-58.2284 69.2705-60.1094ZM67.2415-53.4624L42.1235-37.9494C38.9915-36.1164 36.6815-34.0634 36.6815-30.2854L36.6815 0.666601C36.6815 2.9276 37.5925 4.3916 38.9945 4.8156C38.5355 4.8966 38.0695 4.9526 37.5995 4.9526C36.1285 4.9526 34.6805 4.5536 33.4055 3.7966L6.85453-11.9624C4.25753-13.5044 2.64553-16.3804 2.64553-19.4684L2.64553-50.9884C2.64553-54.0754 4.25753-56.9524 6.85453-58.4944L33.4055-74.2564C34.6775-75.0134 36.1285-75.4124 37.5995-75.4124C39.0685-75.4124 40.5185-75.0134 41.7945-74.2564L68.3455-58.4944C70.5325-57.1944 72.0115-54.9444 72.4245-52.4254C71.5415-54.3034 69.5585-54.8154 67.2415-53.4624ZM48.7085-10.8894L48.7535-8.6264C48.7575-8.3524 48.5785-8.0404 48.3645-7.9324L47.0225-7.1614C46.8085-7.0524 46.6335-7.1854 46.6305-7.4594L46.6055-9.6844C45.4565-9.2074 44.2925-9.0924 43.5505-9.3904C43.4095-9.4464 43.3505-9.6524 43.4065-9.8874L43.8935-11.9344C43.9325-12.0954 44.0195-12.2564 44.1355-12.3584C44.1775-12.3964 44.2195-12.4284 44.2615-12.4494C44.3385-12.4874 44.4125-12.4984 44.4785-12.4704C45.2815-12.2004 46.3045-12.3264 47.2895-12.8244C48.5405-13.4584 49.3775-14.7344 49.3635-16.0024C49.3535-17.1514 48.7295-17.6314 47.2155-17.6424C45.2885-17.6384 43.4865-18.0174 43.4585-20.8554C43.4345-23.1934 44.6505-25.6254 46.5745-27.1634L46.5495-29.4484C46.5465-29.7284 46.7175-30.0364 46.9385-30.1484L48.2355-30.9754C48.4485-31.0844 48.6245-30.9514 48.6275-30.6714L48.6485-28.3824C49.6055-28.7644 50.4395-28.8664 51.1925-28.6914C51.3575-28.6494 51.4275-28.4244 51.3605-28.1624L50.8565-26.1364C50.8175-25.9824 50.7305-25.8284 50.6285-25.7304C50.5865-25.6884 50.5405-25.6564 50.4955-25.6324C50.4285-25.5974 50.3625-25.5864 50.2955-25.6004C49.9525-25.6774 49.1325-25.8564 47.8465-25.2044C46.4975-24.5214 46.0245-23.3474 46.0345-22.4784C46.0455-21.4374 46.5775-21.1224 48.4205-21.0904C50.8735-21.0484 51.9355-19.9764 51.9605-17.5054C51.9845-15.0914 50.6915-12.4844 48.7085-10.8894ZM62.6305-14.6984C62.6305-14.4884 62.6025-14.2924 62.4275-14.1904L55.7135-10.1114C55.5375-10.0104 55.3975-10.0974 55.3975-10.3084L55.3975-12.0394C55.3975-12.2494 55.5275-12.3654 55.7025-12.4664L62.3155-16.4234C62.4905-16.5244 62.6305-16.4374 62.6305-16.2264L62.6305-14.6984Z"/>
  </g>
 </g>
</svg>
