<?xml version="1.0" encoding="UTF-8"?>
<!--Generator: CustomSymbols by @serious_bret-->
<!DOCTYPE svg
        PUBLIC "-//W3C//DTD SVG 1.1//EN"
        "http://www.w3.org/Graphics/SVG/1.1/DTD/svg11.dtd">
<svg version="1.1" xmlns="http://www.w3.org/2000/svg" xmlns:xlink="http://www.w3.org/1999/xlink" width="2900" height="1500">
    <g transform="translate(-200 -200)">
    <!--template writer version: "8"-->
    <g id="Notes">
        <rect height="2200" id="artboard" style="fill:white;opacity:1" width="3300" x="0" y="0"/>
        <line id="" style="fill:none;stroke:black;opacity:1;stroke-width:0.5;" x1="263" x2="3036" y1="292" y2="292"/>
        <text id="reftext1" style="stroke:none;fill:black;font-family:-apple-system,&quot;SF Pro Display&quot;,&quot;SF Pro Text&quot;,Helvetica,sans-serif;font-weight:bold;" transform="matrix(1 0 0 1 263 322)">Weight/Scale Variations</text>
        <text id="reftext2" style="stroke:none;fill:black;font-family:-apple-system,&quot;SF Pro Display&quot;,&quot;SF Pro Text&quot;,Helvetica,sans-serif;text-anchor:middle;" transform="matrix(1 0 0 1 559.711 322)">Ultralight</text>
        <text style="stroke:none;fill:black;font-family:-apple-system,&quot;SF Pro Display&quot;,&quot;SF Pro Text&quot;,Helvetica,sans-serif;text-anchor:middle;" transform="matrix(1 0 0 1 856.422 322)">Thin</text>
        <text style="stroke:none;fill:black;font-family:-apple-system,&quot;SF Pro Display&quot;,&quot;SF Pro Text&quot;,Helvetica,sans-serif;text-anchor:middle;" transform="matrix(1 0 0 1 1153.13 322)">Light</text>
        <text style="stroke:none;fill:black;font-family:-apple-system,&quot;SF Pro Display&quot;,&quot;SF Pro Text&quot;,Helvetica,sans-serif;text-anchor:middle;" transform="matrix(1 0 0 1 1449.84 322)">Regular</text>
        <text style="stroke:none;fill:black;font-family:-apple-system,&quot;SF Pro Display&quot;,&quot;SF Pro Text&quot;,Helvetica,sans-serif;text-anchor:middle;" transform="matrix(1 0 0 1 1746.56 322)">Medium</text>
        <text style="stroke:none;fill:black;font-family:-apple-system,&quot;SF Pro Display&quot;,&quot;SF Pro Text&quot;,Helvetica,sans-serif;text-anchor:middle;" transform="matrix(1 0 0 1 2043.27 322)">Semibold</text>
        <text style="stroke:none;fill:black;font-family:-apple-system,&quot;SF Pro Display&quot;,&quot;SF Pro Text&quot;,Helvetica,sans-serif;text-anchor:middle;" transform="matrix(1 0 0 1 2339.98 322)">Bold</text>
        <text style="stroke:none;fill:black;font-family:-apple-system,&quot;SF Pro Display&quot;,&quot;SF Pro Text&quot;,Helvetica,sans-serif;text-anchor:middle;" transform="matrix(1 0 0 1 2636.69 322)">Heavy</text>
        <text style="stroke:none;fill:black;font-family:-apple-system,&quot;SF Pro Display&quot;,&quot;SF Pro Text&quot;,Helvetica,sans-serif;text-anchor:middle;" transform="matrix(1 0 0 1 2933.4 322)">Black</text>

        <text style="stroke:none;fill:black;font-family:-apple-system,&quot;SF Pro Display&quot;,&quot;SF Pro Text&quot;,Helvetica,sans-serif;" transform="matrix(1 0 0 1 263 726)">Small</text>
        <text style="stroke:none;fill:black;font-family:-apple-system,&quot;SF Pro Display&quot;,&quot;SF Pro Text&quot;,Helvetica,sans-serif;" transform="matrix(1 0 0 1 263 1156)">Medium</text>
        <text style="stroke:none;fill:black;font-family:-apple-system,&quot;SF Pro Display&quot;,&quot;SF Pro Text&quot;,Helvetica,sans-serif;" transform="matrix(1 0 0 1 263 1586)">Large</text>
    </g>
    <g id="Guides">
        <g id="H-reference" style="fill:#27AAE1;stroke:none;" transform="matrix(1 0 0 1 339 696)">
            <path d="M0.976562 0L3.66211 0L12.9883-24.4629L45.752-24.4629L55.127 0L57.7637 0L30.6152-70.459L28.125-70.459ZM29.3457-67.1387L29.4434-67.1387L44.873-26.709L13.8672-26.709Z"/>
        </g>
        <line id="Baseline-S" style="fill:none;stroke:#27AAE1;opacity:1;stroke-width:0.5;" x1="263" x2="3036" y1="696" y2="696"/>
        <line id="Capline-S" style="fill:none;stroke:#27AAE1;opacity:1;stroke-width:0.5;" x1="263" x2="3036" y1="625.541" y2="625.541"/>
        <g id="H-reference" style="fill:#27AAE1;stroke:none;" transform="matrix(1 0 0 1 339 1126)">
            <path d="M0.976562 0L3.66211 0L12.9883-24.4629L45.752-24.4629L55.127 0L57.7637 0L30.6152-70.459L28.125-70.459ZM29.3457-67.1387L29.4434-67.1387L44.873-26.709L13.8672-26.709Z"/>
        </g>
        <line id="Baseline-M" style="fill:none;stroke:#27AAE1;opacity:1;stroke-width:0.5;" x1="263" x2="3036" y1="1126" y2="1126"/>
        <line id="Capline-M" style="fill:none;stroke:#27AAE1;opacity:1;stroke-width:0.5;" x1="263" x2="3036" y1="1055.54" y2="1055.54"/>
        <g id="H-reference" style="fill:#27AAE1;stroke:none;" transform="matrix(1 0 0 1 339 1556)">
            <path d="M0.976562 0L3.66211 0L12.9883-24.4629L45.752-24.4629L55.127 0L57.7637 0L30.6152-70.459L28.125-70.459ZM29.3457-67.1387L29.4434-67.1387L44.873-26.709L13.8672-26.709Z"/>
        </g>
        <line id="Baseline-L" style="fill:none;stroke:#27AAE1;opacity:1;stroke-width:0.5;" x1="263" x2="3036" y1="1556" y2="1556"/>
        <line id="Capline-L" style="fill:none;stroke:#27AAE1;opacity:1;stroke-width:0.5;" x1="263" x2="3036" y1="1485.54" y2="1485.54"/>
        <line id="left-margin" x1="1417.3214020285482" x2="1417.3214020285482" y1="1030.79" y2="1150.12" style="fill:none;stroke:#00AEEF;stroke-width:0.5;opacity:1.0;"/>
        <line id="right-margin" x1="1484.9385979714516" x2="1484.9385979714516" y1="1030.79" y2="1150.12" style="fill:none;stroke:#00AEEF;stroke-width:0.5;opacity:1.0;"/>
    </g>
    <g id="Symbols">
        <g id="Black-L" transform="matrix(1.0,0.0,0.0,1.0,2869.1948778030437,1455.2848973342939)">  <path fill="#000000" stroke-width="1px" stroke-miterlimit="4" stroke-dasharray="none" fill-opacity="1" stroke="none" stroke-linejoin="miter" fill-rule="nonzero" role="img" stroke-opacity="1" stroke-linecap="butt" d="M104.012,29.101C106.477,28.045,108.238,27.693,109.999,28.045C112.816,28.749,114.225,30.862,115.281,31.918C116.338,34.031,120.211,36.144,121.972,36.496C123.381,36.848,125.845,32.974,127.606,29.453C129.367,26.284,130.424,22.058,130.071,21.001C129.719,19.945,124.789,17.832,123.732,17.832C123.028,17.832,121.62,18.536,119.155,18.184C116.69,17.832,114.225,15.014,112.816,12.901C110.351,9.38,106.829,7.267,103.66,5.506C100.138,3.745,96.264,2.688,92.391,1.984C86.756,0.576,81.122,-0.481,75.487,0.223C72.318,0.575,68.445,0.928,65.627,1.984C65.275,1.984,64.571,3.041,65.275,3.041C65.98,3.041,68.444,3.393,68.444,3.393C68.444,3.393,65.276,4.098,65.276,4.802C65.276,5.507,65.628,5.507,65.98,5.507C66.332,5.507,74.079,5.155,77.249,5.507C80.77,6.211,84.644,7.972,87.109,12.198C91.335,19.945,89.574,27.341,88.518,29.806C83.235,41.426,41.329,112.914,39.216,117.844C37.103,122.774,36.399,125.943,42.385,129.113C48.372,132.282,51.541,130.874,53.302,128.761C55.415,125.943,91.687,35.087,104.012,29.101ZM84.291,76.642L92.743,76.642C98.378,76.642,99.434,79.459,99.434,80.515C99.786,83.333,98.378,86.854,92.743,86.854L87.461,86.854L91.687,93.897C94.152,98.123,93.095,100.236,91.687,101.644C89.574,103.757,84.996,103.757,82.531,99.179L77.601,90.727C74.079,98.475,70.558,106.926,66.332,116.787L88.165,116.787C98.73,116.787,107.534,107.983,107.534,97.418L107.534,35.792C107.182,35.087,106.477,35.44,106.125,35.792C104.012,38.257,98.026,46.708,84.291,76.642ZM30.764,120.309L29.003,120.309C16.326,120.309,6.114,110.096,6.114,97.419L6.114,38.257C6.114,25.58,16.326,15.367,29.003,15.367L80.066,15.367C79.009,14.311,74.783,12.55,70.558,12.902C68.797,12.902,65.276,13.607,63.163,12.198C61.05,10.437,61.402,9.38,58.233,9.38L26.891,9.38C12.453,9.38,0.832,21.001,0.832,35.439L0.832,99.531C0.832,113.97,12.453,125.591,25.13,125.239C28.651,125.239,29.708,122.422,30.764,120.309ZM111.408,37.904L111.408,97.418C111.408,110.096,101.195,120.308,88.518,120.308L64.923,120.308C64.923,120.308,62.81,125.943,69.501,125.943L90.63,125.943C105.069,125.943,116.69,114.322,116.69,99.883L116.69,48.117C117.042,43.187,112.816,40.017,111.408,37.904ZM9.987,38.257L9.987,97.419C9.987,107.983,18.791,116.787,29.355,116.787L32.525,116.787C32.525,116.435,36.751,109.04,45.907,93.545C46.963,91.432,48.372,89.319,49.78,86.854L24.073,86.854C20.904,86.854,19.143,84.741,18.791,82.981C18.086,80.163,19.847,76.642,23.721,76.642L36.751,76.642L53.302,47.765C53.302,47.765,49.429,40.722,48.372,38.961C46.963,36.496,47.668,34.031,49.076,32.623C51.189,30.51,54.711,29.453,58.232,35.087L59.641,37.2L61.049,35.087C64.219,30.51,66.332,30.862,68.092,31.214C70.909,31.919,72.67,35.087,70.205,40.018L48.372,76.642L55.767,76.642C58.232,72.416,60.697,68.19,63.163,63.612C62.811,61.851,62.458,59.738,62.811,57.977C63.163,55.16,64.572,52.695,66.332,50.582L68.445,54.103C75.136,42.482,80.066,32.622,81.475,28.748C82.179,26.635,83.236,22.409,82.179,18.888L29.356,18.888C18.439,18.888,9.987,27.692,9.987,38.257ZM25.13,97.066C25.13,96.714,29.356,89.319,29.356,89.319C36.047,87.558,39.216,91.784,39.568,92.136C39.568,92.136,34.99,100.236,33.582,101.644C32.173,103.053,30.412,103.405,28.652,103.053C25.834,102.349,24.073,99.531,25.13,97.066ZM25.13,97.066"/>
</g>
        <g id="Heavy-L" transform="matrix(1.0,0.0,0.0,1.0,2572.4848778030437,1455.2848973342939)">  <path stroke-opacity="1" stroke-dasharray="none" stroke-linecap="butt" stroke-miterlimit="4" fill="#000000" stroke="none" fill-opacity="1" stroke-linejoin="miter" fill-rule="nonzero" role="img" stroke-width="1px" d="M104.012,29.101C106.477,28.045,108.238,27.693,109.999,28.045C112.816,28.749,114.225,30.862,115.281,31.918C116.338,34.031,120.211,36.144,121.972,36.496C123.381,36.848,125.845,32.974,127.606,29.453C129.367,26.284,130.424,22.058,130.071,21.001C129.719,19.945,124.789,17.832,123.732,17.832C123.028,17.832,121.62,18.536,119.155,18.184C116.69,17.832,114.225,15.014,112.816,12.901C110.351,9.38,106.829,7.267,103.66,5.506C100.138,3.745,96.264,2.688,92.391,1.984C86.756,0.576,81.122,-0.481,75.487,0.223C72.318,0.575,68.445,0.928,65.627,1.984C65.275,1.984,64.571,3.041,65.275,3.041C65.98,3.041,68.444,3.393,68.444,3.393C68.444,3.393,65.276,4.098,65.276,4.802C65.276,5.507,65.628,5.507,65.98,5.507C66.332,5.507,74.079,5.155,77.249,5.507C80.77,6.211,84.644,7.972,87.109,12.198C91.335,19.945,89.574,27.341,88.518,29.806C83.235,41.426,41.329,112.914,39.216,117.844C37.103,122.774,36.399,125.943,42.385,129.113C48.372,132.282,51.541,130.874,53.302,128.761C55.415,125.943,91.687,35.087,104.012,29.101ZM84.291,76.642L92.743,76.642C98.378,76.642,99.434,79.459,99.434,80.515C99.786,83.333,98.378,86.854,92.743,86.854L87.461,86.854L91.687,93.897C94.152,98.123,93.095,100.236,91.687,101.644C89.574,103.757,84.996,103.757,82.531,99.179L77.601,90.727C74.079,98.475,70.558,106.926,66.332,116.787L88.165,116.787C98.73,116.787,107.534,107.983,107.534,97.418L107.534,35.792C107.182,35.087,106.477,35.44,106.125,35.792C104.012,38.257,98.026,46.708,84.291,76.642ZM30.764,120.309L29.003,120.309C16.326,120.309,6.114,110.096,6.114,97.419L6.114,38.257C6.114,25.58,16.326,15.367,29.003,15.367L80.066,15.367C79.009,14.311,74.783,12.55,70.558,12.902C68.797,12.902,65.276,13.607,63.163,12.198C61.05,10.437,61.402,9.38,58.233,9.38L26.891,9.38C12.453,9.38,0.832,21.001,0.832,35.439L0.832,99.531C0.832,113.97,12.453,125.591,25.13,125.239C28.651,125.239,29.708,122.422,30.764,120.309ZM111.408,37.904L111.408,97.418C111.408,110.096,101.195,120.308,88.518,120.308L64.923,120.308C64.923,120.308,62.81,125.943,69.501,125.943L90.63,125.943C105.069,125.943,116.69,114.322,116.69,99.883L116.69,48.117C117.042,43.187,112.816,40.017,111.408,37.904ZM9.987,38.257L9.987,97.419C9.987,107.983,18.791,116.787,29.355,116.787L32.525,116.787C32.525,116.435,36.751,109.04,45.907,93.545C46.963,91.432,48.372,89.319,49.78,86.854L24.073,86.854C20.904,86.854,19.143,84.741,18.791,82.981C18.086,80.163,19.847,76.642,23.721,76.642L36.751,76.642L53.302,47.765C53.302,47.765,49.429,40.722,48.372,38.961C46.963,36.496,47.668,34.031,49.076,32.623C51.189,30.51,54.711,29.453,58.232,35.087L59.641,37.2L61.049,35.087C64.219,30.51,66.332,30.862,68.092,31.214C70.909,31.919,72.67,35.087,70.205,40.018L48.372,76.642L55.767,76.642C58.232,72.416,60.697,68.19,63.163,63.612C62.811,61.851,62.458,59.738,62.811,57.977C63.163,55.16,64.572,52.695,66.332,50.582L68.445,54.103C75.136,42.482,80.066,32.622,81.475,28.748C82.179,26.635,83.236,22.409,82.179,18.888L29.356,18.888C18.439,18.888,9.987,27.692,9.987,38.257ZM25.13,97.066C25.13,96.714,29.356,89.319,29.356,89.319C36.047,87.558,39.216,91.784,39.568,92.136C39.568,92.136,34.99,100.236,33.582,101.644C32.173,103.053,30.412,103.405,28.652,103.053C25.834,102.349,24.073,99.531,25.13,97.066ZM25.13,97.066"/>
</g>
        <g id="Bold-L" transform="matrix(1.0,0.0,0.0,1.0,2275.7748778030436,1455.2848973342939)">  <path stroke-miterlimit="4" fill="#000000" stroke-dasharray="none" role="img" stroke-opacity="1" stroke-linejoin="miter" stroke-linecap="butt" fill-rule="nonzero" stroke="none" stroke-width="1px" fill-opacity="1" d="M104.012,29.101C106.477,28.045,108.238,27.693,109.999,28.045C112.816,28.749,114.225,30.862,115.281,31.918C116.338,34.031,120.211,36.144,121.972,36.496C123.381,36.848,125.845,32.974,127.606,29.453C129.367,26.284,130.424,22.058,130.071,21.001C129.719,19.945,124.789,17.832,123.732,17.832C123.028,17.832,121.62,18.536,119.155,18.184C116.69,17.832,114.225,15.014,112.816,12.901C110.351,9.38,106.829,7.267,103.66,5.506C100.138,3.745,96.264,2.688,92.391,1.984C86.756,0.576,81.122,-0.481,75.487,0.223C72.318,0.575,68.445,0.928,65.627,1.984C65.275,1.984,64.571,3.041,65.275,3.041C65.98,3.041,68.444,3.393,68.444,3.393C68.444,3.393,65.276,4.098,65.276,4.802C65.276,5.507,65.628,5.507,65.98,5.507C66.332,5.507,74.079,5.155,77.249,5.507C80.77,6.211,84.644,7.972,87.109,12.198C91.335,19.945,89.574,27.341,88.518,29.806C83.235,41.426,41.329,112.914,39.216,117.844C37.103,122.774,36.399,125.943,42.385,129.113C48.372,132.282,51.541,130.874,53.302,128.761C55.415,125.943,91.687,35.087,104.012,29.101ZM84.291,76.642L92.743,76.642C98.378,76.642,99.434,79.459,99.434,80.515C99.786,83.333,98.378,86.854,92.743,86.854L87.461,86.854L91.687,93.897C94.152,98.123,93.095,100.236,91.687,101.644C89.574,103.757,84.996,103.757,82.531,99.179L77.601,90.727C74.079,98.475,70.558,106.926,66.332,116.787L88.165,116.787C98.73,116.787,107.534,107.983,107.534,97.418L107.534,35.792C107.182,35.087,106.477,35.44,106.125,35.792C104.012,38.257,98.026,46.708,84.291,76.642ZM30.764,120.309L29.003,120.309C16.326,120.309,6.114,110.096,6.114,97.419L6.114,38.257C6.114,25.58,16.326,15.367,29.003,15.367L80.066,15.367C79.009,14.311,74.783,12.55,70.558,12.902C68.797,12.902,65.276,13.607,63.163,12.198C61.05,10.437,61.402,9.38,58.233,9.38L26.891,9.38C12.453,9.38,0.832,21.001,0.832,35.439L0.832,99.531C0.832,113.97,12.453,125.591,25.13,125.239C28.651,125.239,29.708,122.422,30.764,120.309ZM111.408,37.904L111.408,97.418C111.408,110.096,101.195,120.308,88.518,120.308L64.923,120.308C64.923,120.308,62.81,125.943,69.501,125.943L90.63,125.943C105.069,125.943,116.69,114.322,116.69,99.883L116.69,48.117C117.042,43.187,112.816,40.017,111.408,37.904ZM9.987,38.257L9.987,97.419C9.987,107.983,18.791,116.787,29.355,116.787L32.525,116.787C32.525,116.435,36.751,109.04,45.907,93.545C46.963,91.432,48.372,89.319,49.78,86.854L24.073,86.854C20.904,86.854,19.143,84.741,18.791,82.981C18.086,80.163,19.847,76.642,23.721,76.642L36.751,76.642L53.302,47.765C53.302,47.765,49.429,40.722,48.372,38.961C46.963,36.496,47.668,34.031,49.076,32.623C51.189,30.51,54.711,29.453,58.232,35.087L59.641,37.2L61.049,35.087C64.219,30.51,66.332,30.862,68.092,31.214C70.909,31.919,72.67,35.087,70.205,40.018L48.372,76.642L55.767,76.642C58.232,72.416,60.697,68.19,63.163,63.612C62.811,61.851,62.458,59.738,62.811,57.977C63.163,55.16,64.572,52.695,66.332,50.582L68.445,54.103C75.136,42.482,80.066,32.622,81.475,28.748C82.179,26.635,83.236,22.409,82.179,18.888L29.356,18.888C18.439,18.888,9.987,27.692,9.987,38.257ZM25.13,97.066C25.13,96.714,29.356,89.319,29.356,89.319C36.047,87.558,39.216,91.784,39.568,92.136C39.568,92.136,34.99,100.236,33.582,101.644C32.173,103.053,30.412,103.405,28.652,103.053C25.834,102.349,24.073,99.531,25.13,97.066ZM25.13,97.066"/>
</g>
        <g id="Semibold-L" transform="matrix(1.0,0.0,0.0,1.0,1979.0648778030438,1455.2848973342939)">  <path stroke-linecap="butt" stroke-width="1px" fill-rule="nonzero" stroke-opacity="1" stroke-dasharray="none" fill="#000000" role="img" fill-opacity="1" stroke-miterlimit="4" stroke-linejoin="miter" stroke="none" d="M104.012,29.101C106.477,28.045,108.238,27.693,109.999,28.045C112.816,28.749,114.225,30.862,115.281,31.918C116.338,34.031,120.211,36.144,121.972,36.496C123.381,36.848,125.845,32.974,127.606,29.453C129.367,26.284,130.424,22.058,130.071,21.001C129.719,19.945,124.789,17.832,123.732,17.832C123.028,17.832,121.62,18.536,119.155,18.184C116.69,17.832,114.225,15.014,112.816,12.901C110.351,9.38,106.829,7.267,103.66,5.506C100.138,3.745,96.264,2.688,92.391,1.984C86.756,0.576,81.122,-0.481,75.487,0.223C72.318,0.575,68.445,0.928,65.627,1.984C65.275,1.984,64.571,3.041,65.275,3.041C65.98,3.041,68.444,3.393,68.444,3.393C68.444,3.393,65.276,4.098,65.276,4.802C65.276,5.507,65.628,5.507,65.98,5.507C66.332,5.507,74.079,5.155,77.249,5.507C80.77,6.211,84.644,7.972,87.109,12.198C91.335,19.945,89.574,27.341,88.518,29.806C83.235,41.426,41.329,112.914,39.216,117.844C37.103,122.774,36.399,125.943,42.385,129.113C48.372,132.282,51.541,130.874,53.302,128.761C55.415,125.943,91.687,35.087,104.012,29.101ZM84.291,76.642L92.743,76.642C98.378,76.642,99.434,79.459,99.434,80.515C99.786,83.333,98.378,86.854,92.743,86.854L87.461,86.854L91.687,93.897C94.152,98.123,93.095,100.236,91.687,101.644C89.574,103.757,84.996,103.757,82.531,99.179L77.601,90.727C74.079,98.475,70.558,106.926,66.332,116.787L88.165,116.787C98.73,116.787,107.534,107.983,107.534,97.418L107.534,35.792C107.182,35.087,106.477,35.44,106.125,35.792C104.012,38.257,98.026,46.708,84.291,76.642ZM30.764,120.309L29.003,120.309C16.326,120.309,6.114,110.096,6.114,97.419L6.114,38.257C6.114,25.58,16.326,15.367,29.003,15.367L80.066,15.367C79.009,14.311,74.783,12.55,70.558,12.902C68.797,12.902,65.276,13.607,63.163,12.198C61.05,10.437,61.402,9.38,58.233,9.38L26.891,9.38C12.453,9.38,0.832,21.001,0.832,35.439L0.832,99.531C0.832,113.97,12.453,125.591,25.13,125.239C28.651,125.239,29.708,122.422,30.764,120.309ZM111.408,37.904L111.408,97.418C111.408,110.096,101.195,120.308,88.518,120.308L64.923,120.308C64.923,120.308,62.81,125.943,69.501,125.943L90.63,125.943C105.069,125.943,116.69,114.322,116.69,99.883L116.69,48.117C117.042,43.187,112.816,40.017,111.408,37.904ZM9.987,38.257L9.987,97.419C9.987,107.983,18.791,116.787,29.355,116.787L32.525,116.787C32.525,116.435,36.751,109.04,45.907,93.545C46.963,91.432,48.372,89.319,49.78,86.854L24.073,86.854C20.904,86.854,19.143,84.741,18.791,82.981C18.086,80.163,19.847,76.642,23.721,76.642L36.751,76.642L53.302,47.765C53.302,47.765,49.429,40.722,48.372,38.961C46.963,36.496,47.668,34.031,49.076,32.623C51.189,30.51,54.711,29.453,58.232,35.087L59.641,37.2L61.049,35.087C64.219,30.51,66.332,30.862,68.092,31.214C70.909,31.919,72.67,35.087,70.205,40.018L48.372,76.642L55.767,76.642C58.232,72.416,60.697,68.19,63.163,63.612C62.811,61.851,62.458,59.738,62.811,57.977C63.163,55.16,64.572,52.695,66.332,50.582L68.445,54.103C75.136,42.482,80.066,32.622,81.475,28.748C82.179,26.635,83.236,22.409,82.179,18.888L29.356,18.888C18.439,18.888,9.987,27.692,9.987,38.257ZM25.13,97.066C25.13,96.714,29.356,89.319,29.356,89.319C36.047,87.558,39.216,91.784,39.568,92.136C39.568,92.136,34.99,100.236,33.582,101.644C32.173,103.053,30.412,103.405,28.652,103.053C25.834,102.349,24.073,99.531,25.13,97.066ZM25.13,97.066"/>
</g>
        <g id="Medium-L" transform="matrix(1.0,0.0,0.0,1.0,1682.3548778030438,1455.2848973342939)">  <path fill="#000000" role="img" fill-rule="nonzero" stroke-dasharray="none" stroke-linejoin="miter" stroke-width="1px" fill-opacity="1" stroke="none" stroke-linecap="butt" stroke-miterlimit="4" stroke-opacity="1" d="M104.012,29.101C106.477,28.045,108.238,27.693,109.999,28.045C112.816,28.749,114.225,30.862,115.281,31.918C116.338,34.031,120.211,36.144,121.972,36.496C123.381,36.848,125.845,32.974,127.606,29.453C129.367,26.284,130.424,22.058,130.071,21.001C129.719,19.945,124.789,17.832,123.732,17.832C123.028,17.832,121.62,18.536,119.155,18.184C116.69,17.832,114.225,15.014,112.816,12.901C110.351,9.38,106.829,7.267,103.66,5.506C100.138,3.745,96.264,2.688,92.391,1.984C86.756,0.576,81.122,-0.481,75.487,0.223C72.318,0.575,68.445,0.928,65.627,1.984C65.275,1.984,64.571,3.041,65.275,3.041C65.98,3.041,68.444,3.393,68.444,3.393C68.444,3.393,65.276,4.098,65.276,4.802C65.276,5.507,65.628,5.507,65.98,5.507C66.332,5.507,74.079,5.155,77.249,5.507C80.77,6.211,84.644,7.972,87.109,12.198C91.335,19.945,89.574,27.341,88.518,29.806C83.235,41.426,41.329,112.914,39.216,117.844C37.103,122.774,36.399,125.943,42.385,129.113C48.372,132.282,51.541,130.874,53.302,128.761C55.415,125.943,91.687,35.087,104.012,29.101ZM84.291,76.642L92.743,76.642C98.378,76.642,99.434,79.459,99.434,80.515C99.786,83.333,98.378,86.854,92.743,86.854L87.461,86.854L91.687,93.897C94.152,98.123,93.095,100.236,91.687,101.644C89.574,103.757,84.996,103.757,82.531,99.179L77.601,90.727C74.079,98.475,70.558,106.926,66.332,116.787L88.165,116.787C98.73,116.787,107.534,107.983,107.534,97.418L107.534,35.792C107.182,35.087,106.477,35.44,106.125,35.792C104.012,38.257,98.026,46.708,84.291,76.642ZM30.764,120.309L29.003,120.309C16.326,120.309,6.114,110.096,6.114,97.419L6.114,38.257C6.114,25.58,16.326,15.367,29.003,15.367L80.066,15.367C79.009,14.311,74.783,12.55,70.558,12.902C68.797,12.902,65.276,13.607,63.163,12.198C61.05,10.437,61.402,9.38,58.233,9.38L26.891,9.38C12.453,9.38,0.832,21.001,0.832,35.439L0.832,99.531C0.832,113.97,12.453,125.591,25.13,125.239C28.651,125.239,29.708,122.422,30.764,120.309ZM111.408,37.904L111.408,97.418C111.408,110.096,101.195,120.308,88.518,120.308L64.923,120.308C64.923,120.308,62.81,125.943,69.501,125.943L90.63,125.943C105.069,125.943,116.69,114.322,116.69,99.883L116.69,48.117C117.042,43.187,112.816,40.017,111.408,37.904ZM9.987,38.257L9.987,97.419C9.987,107.983,18.791,116.787,29.355,116.787L32.525,116.787C32.525,116.435,36.751,109.04,45.907,93.545C46.963,91.432,48.372,89.319,49.78,86.854L24.073,86.854C20.904,86.854,19.143,84.741,18.791,82.981C18.086,80.163,19.847,76.642,23.721,76.642L36.751,76.642L53.302,47.765C53.302,47.765,49.429,40.722,48.372,38.961C46.963,36.496,47.668,34.031,49.076,32.623C51.189,30.51,54.711,29.453,58.232,35.087L59.641,37.2L61.049,35.087C64.219,30.51,66.332,30.862,68.092,31.214C70.909,31.919,72.67,35.087,70.205,40.018L48.372,76.642L55.767,76.642C58.232,72.416,60.697,68.19,63.163,63.612C62.811,61.851,62.458,59.738,62.811,57.977C63.163,55.16,64.572,52.695,66.332,50.582L68.445,54.103C75.136,42.482,80.066,32.622,81.475,28.748C82.179,26.635,83.236,22.409,82.179,18.888L29.356,18.888C18.439,18.888,9.987,27.692,9.987,38.257ZM25.13,97.066C25.13,96.714,29.356,89.319,29.356,89.319C36.047,87.558,39.216,91.784,39.568,92.136C39.568,92.136,34.99,100.236,33.582,101.644C32.173,103.053,30.412,103.405,28.652,103.053C25.834,102.349,24.073,99.531,25.13,97.066ZM25.13,97.066"/>
</g>
        <g id="Regular-L" transform="matrix(1.0,0.0,0.0,1.0,1385.6448778030438,1455.2848973342939)">  <path role="img" stroke-miterlimit="4" stroke-linecap="butt" fill="#000000" stroke-opacity="1" fill-opacity="1" stroke="none" stroke-dasharray="none" stroke-linejoin="miter" stroke-width="1px" fill-rule="nonzero" d="M104.012,29.101C106.477,28.045,108.238,27.693,109.999,28.045C112.816,28.749,114.225,30.862,115.281,31.918C116.338,34.031,120.211,36.144,121.972,36.496C123.381,36.848,125.845,32.974,127.606,29.453C129.367,26.284,130.424,22.058,130.071,21.001C129.719,19.945,124.789,17.832,123.732,17.832C123.028,17.832,121.62,18.536,119.155,18.184C116.69,17.832,114.225,15.014,112.816,12.901C110.351,9.38,106.829,7.267,103.66,5.506C100.138,3.745,96.264,2.688,92.391,1.984C86.756,0.576,81.122,-0.481,75.487,0.223C72.318,0.575,68.445,0.928,65.627,1.984C65.275,1.984,64.571,3.041,65.275,3.041C65.98,3.041,68.444,3.393,68.444,3.393C68.444,3.393,65.276,4.098,65.276,4.802C65.276,5.507,65.628,5.507,65.98,5.507C66.332,5.507,74.079,5.155,77.249,5.507C80.77,6.211,84.644,7.972,87.109,12.198C91.335,19.945,89.574,27.341,88.518,29.806C83.235,41.426,41.329,112.914,39.216,117.844C37.103,122.774,36.399,125.943,42.385,129.113C48.372,132.282,51.541,130.874,53.302,128.761C55.415,125.943,91.687,35.087,104.012,29.101ZM84.291,76.642L92.743,76.642C98.378,76.642,99.434,79.459,99.434,80.515C99.786,83.333,98.378,86.854,92.743,86.854L87.461,86.854L91.687,93.897C94.152,98.123,93.095,100.236,91.687,101.644C89.574,103.757,84.996,103.757,82.531,99.179L77.601,90.727C74.079,98.475,70.558,106.926,66.332,116.787L88.165,116.787C98.73,116.787,107.534,107.983,107.534,97.418L107.534,35.792C107.182,35.087,106.477,35.44,106.125,35.792C104.012,38.257,98.026,46.708,84.291,76.642ZM30.764,120.309L29.003,120.309C16.326,120.309,6.114,110.096,6.114,97.419L6.114,38.257C6.114,25.58,16.326,15.367,29.003,15.367L80.066,15.367C79.009,14.311,74.783,12.55,70.558,12.902C68.797,12.902,65.276,13.607,63.163,12.198C61.05,10.437,61.402,9.38,58.233,9.38L26.891,9.38C12.453,9.38,0.832,21.001,0.832,35.439L0.832,99.531C0.832,113.97,12.453,125.591,25.13,125.239C28.651,125.239,29.708,122.422,30.764,120.309ZM111.408,37.904L111.408,97.418C111.408,110.096,101.195,120.308,88.518,120.308L64.923,120.308C64.923,120.308,62.81,125.943,69.501,125.943L90.63,125.943C105.069,125.943,116.69,114.322,116.69,99.883L116.69,48.117C117.042,43.187,112.816,40.017,111.408,37.904ZM9.987,38.257L9.987,97.419C9.987,107.983,18.791,116.787,29.355,116.787L32.525,116.787C32.525,116.435,36.751,109.04,45.907,93.545C46.963,91.432,48.372,89.319,49.78,86.854L24.073,86.854C20.904,86.854,19.143,84.741,18.791,82.981C18.086,80.163,19.847,76.642,23.721,76.642L36.751,76.642L53.302,47.765C53.302,47.765,49.429,40.722,48.372,38.961C46.963,36.496,47.668,34.031,49.076,32.623C51.189,30.51,54.711,29.453,58.232,35.087L59.641,37.2L61.049,35.087C64.219,30.51,66.332,30.862,68.092,31.214C70.909,31.919,72.67,35.087,70.205,40.018L48.372,76.642L55.767,76.642C58.232,72.416,60.697,68.19,63.163,63.612C62.811,61.851,62.458,59.738,62.811,57.977C63.163,55.16,64.572,52.695,66.332,50.582L68.445,54.103C75.136,42.482,80.066,32.622,81.475,28.748C82.179,26.635,83.236,22.409,82.179,18.888L29.356,18.888C18.439,18.888,9.987,27.692,9.987,38.257ZM25.13,97.066C25.13,96.714,29.356,89.319,29.356,89.319C36.047,87.558,39.216,91.784,39.568,92.136C39.568,92.136,34.99,100.236,33.582,101.644C32.173,103.053,30.412,103.405,28.652,103.053C25.834,102.349,24.073,99.531,25.13,97.066ZM25.13,97.066"/>
</g>
        <g id="Light-L" transform="matrix(1.0,0.0,0.0,1.0,1088.934877803044,1455.2848973342939)">  <path fill="#000000" stroke="none" stroke-linecap="butt" fill-opacity="1" stroke-opacity="1" role="img" stroke-linejoin="miter" stroke-dasharray="none" stroke-miterlimit="4" stroke-width="1px" fill-rule="nonzero" d="M104.012,29.101C106.477,28.045,108.238,27.693,109.999,28.045C112.816,28.749,114.225,30.862,115.281,31.918C116.338,34.031,120.211,36.144,121.972,36.496C123.381,36.848,125.845,32.974,127.606,29.453C129.367,26.284,130.424,22.058,130.071,21.001C129.719,19.945,124.789,17.832,123.732,17.832C123.028,17.832,121.62,18.536,119.155,18.184C116.69,17.832,114.225,15.014,112.816,12.901C110.351,9.38,106.829,7.267,103.66,5.506C100.138,3.745,96.264,2.688,92.391,1.984C86.756,0.576,81.122,-0.481,75.487,0.223C72.318,0.575,68.445,0.928,65.627,1.984C65.275,1.984,64.571,3.041,65.275,3.041C65.98,3.041,68.444,3.393,68.444,3.393C68.444,3.393,65.276,4.098,65.276,4.802C65.276,5.507,65.628,5.507,65.98,5.507C66.332,5.507,74.079,5.155,77.249,5.507C80.77,6.211,84.644,7.972,87.109,12.198C91.335,19.945,89.574,27.341,88.518,29.806C83.235,41.426,41.329,112.914,39.216,117.844C37.103,122.774,36.399,125.943,42.385,129.113C48.372,132.282,51.541,130.874,53.302,128.761C55.415,125.943,91.687,35.087,104.012,29.101ZM84.291,76.642L92.743,76.642C98.378,76.642,99.434,79.459,99.434,80.515C99.786,83.333,98.378,86.854,92.743,86.854L87.461,86.854L91.687,93.897C94.152,98.123,93.095,100.236,91.687,101.644C89.574,103.757,84.996,103.757,82.531,99.179L77.601,90.727C74.079,98.475,70.558,106.926,66.332,116.787L88.165,116.787C98.73,116.787,107.534,107.983,107.534,97.418L107.534,35.792C107.182,35.087,106.477,35.44,106.125,35.792C104.012,38.257,98.026,46.708,84.291,76.642ZM30.764,120.309L29.003,120.309C16.326,120.309,6.114,110.096,6.114,97.419L6.114,38.257C6.114,25.58,16.326,15.367,29.003,15.367L80.066,15.367C79.009,14.311,74.783,12.55,70.558,12.902C68.797,12.902,65.276,13.607,63.163,12.198C61.05,10.437,61.402,9.38,58.233,9.38L26.891,9.38C12.453,9.38,0.832,21.001,0.832,35.439L0.832,99.531C0.832,113.97,12.453,125.591,25.13,125.239C28.651,125.239,29.708,122.422,30.764,120.309ZM111.408,37.904L111.408,97.418C111.408,110.096,101.195,120.308,88.518,120.308L64.923,120.308C64.923,120.308,62.81,125.943,69.501,125.943L90.63,125.943C105.069,125.943,116.69,114.322,116.69,99.883L116.69,48.117C117.042,43.187,112.816,40.017,111.408,37.904ZM9.987,38.257L9.987,97.419C9.987,107.983,18.791,116.787,29.355,116.787L32.525,116.787C32.525,116.435,36.751,109.04,45.907,93.545C46.963,91.432,48.372,89.319,49.78,86.854L24.073,86.854C20.904,86.854,19.143,84.741,18.791,82.981C18.086,80.163,19.847,76.642,23.721,76.642L36.751,76.642L53.302,47.765C53.302,47.765,49.429,40.722,48.372,38.961C46.963,36.496,47.668,34.031,49.076,32.623C51.189,30.51,54.711,29.453,58.232,35.087L59.641,37.2L61.049,35.087C64.219,30.51,66.332,30.862,68.092,31.214C70.909,31.919,72.67,35.087,70.205,40.018L48.372,76.642L55.767,76.642C58.232,72.416,60.697,68.19,63.163,63.612C62.811,61.851,62.458,59.738,62.811,57.977C63.163,55.16,64.572,52.695,66.332,50.582L68.445,54.103C75.136,42.482,80.066,32.622,81.475,28.748C82.179,26.635,83.236,22.409,82.179,18.888L29.356,18.888C18.439,18.888,9.987,27.692,9.987,38.257ZM25.13,97.066C25.13,96.714,29.356,89.319,29.356,89.319C36.047,87.558,39.216,91.784,39.568,92.136C39.568,92.136,34.99,100.236,33.582,101.644C32.173,103.053,30.412,103.405,28.652,103.053C25.834,102.349,24.073,99.531,25.13,97.066ZM25.13,97.066"/>
</g>
        <g id="Thin-L" transform="matrix(1.0,0.0,0.0,1.0,792.224877803044,1455.2848973342939)">  <path stroke-opacity="1" stroke-linecap="butt" stroke-miterlimit="4" stroke-width="1px" role="img" fill-opacity="1" stroke-dasharray="none" fill="#000000" stroke-linejoin="miter" fill-rule="nonzero" stroke="none" d="M104.012,29.101C106.477,28.045,108.238,27.693,109.999,28.045C112.816,28.749,114.225,30.862,115.281,31.918C116.338,34.031,120.211,36.144,121.972,36.496C123.381,36.848,125.845,32.974,127.606,29.453C129.367,26.284,130.424,22.058,130.071,21.001C129.719,19.945,124.789,17.832,123.732,17.832C123.028,17.832,121.62,18.536,119.155,18.184C116.69,17.832,114.225,15.014,112.816,12.901C110.351,9.38,106.829,7.267,103.66,5.506C100.138,3.745,96.264,2.688,92.391,1.984C86.756,0.576,81.122,-0.481,75.487,0.223C72.318,0.575,68.445,0.928,65.627,1.984C65.275,1.984,64.571,3.041,65.275,3.041C65.98,3.041,68.444,3.393,68.444,3.393C68.444,3.393,65.276,4.098,65.276,4.802C65.276,5.507,65.628,5.507,65.98,5.507C66.332,5.507,74.079,5.155,77.249,5.507C80.77,6.211,84.644,7.972,87.109,12.198C91.335,19.945,89.574,27.341,88.518,29.806C83.235,41.426,41.329,112.914,39.216,117.844C37.103,122.774,36.399,125.943,42.385,129.113C48.372,132.282,51.541,130.874,53.302,128.761C55.415,125.943,91.687,35.087,104.012,29.101ZM84.291,76.642L92.743,76.642C98.378,76.642,99.434,79.459,99.434,80.515C99.786,83.333,98.378,86.854,92.743,86.854L87.461,86.854L91.687,93.897C94.152,98.123,93.095,100.236,91.687,101.644C89.574,103.757,84.996,103.757,82.531,99.179L77.601,90.727C74.079,98.475,70.558,106.926,66.332,116.787L88.165,116.787C98.73,116.787,107.534,107.983,107.534,97.418L107.534,35.792C107.182,35.087,106.477,35.44,106.125,35.792C104.012,38.257,98.026,46.708,84.291,76.642ZM30.764,120.309L29.003,120.309C16.326,120.309,6.114,110.096,6.114,97.419L6.114,38.257C6.114,25.58,16.326,15.367,29.003,15.367L80.066,15.367C79.009,14.311,74.783,12.55,70.558,12.902C68.797,12.902,65.276,13.607,63.163,12.198C61.05,10.437,61.402,9.38,58.233,9.38L26.891,9.38C12.453,9.38,0.832,21.001,0.832,35.439L0.832,99.531C0.832,113.97,12.453,125.591,25.13,125.239C28.651,125.239,29.708,122.422,30.764,120.309ZM111.408,37.904L111.408,97.418C111.408,110.096,101.195,120.308,88.518,120.308L64.923,120.308C64.923,120.308,62.81,125.943,69.501,125.943L90.63,125.943C105.069,125.943,116.69,114.322,116.69,99.883L116.69,48.117C117.042,43.187,112.816,40.017,111.408,37.904ZM9.987,38.257L9.987,97.419C9.987,107.983,18.791,116.787,29.355,116.787L32.525,116.787C32.525,116.435,36.751,109.04,45.907,93.545C46.963,91.432,48.372,89.319,49.78,86.854L24.073,86.854C20.904,86.854,19.143,84.741,18.791,82.981C18.086,80.163,19.847,76.642,23.721,76.642L36.751,76.642L53.302,47.765C53.302,47.765,49.429,40.722,48.372,38.961C46.963,36.496,47.668,34.031,49.076,32.623C51.189,30.51,54.711,29.453,58.232,35.087L59.641,37.2L61.049,35.087C64.219,30.51,66.332,30.862,68.092,31.214C70.909,31.919,72.67,35.087,70.205,40.018L48.372,76.642L55.767,76.642C58.232,72.416,60.697,68.19,63.163,63.612C62.811,61.851,62.458,59.738,62.811,57.977C63.163,55.16,64.572,52.695,66.332,50.582L68.445,54.103C75.136,42.482,80.066,32.622,81.475,28.748C82.179,26.635,83.236,22.409,82.179,18.888L29.356,18.888C18.439,18.888,9.987,27.692,9.987,38.257ZM25.13,97.066C25.13,96.714,29.356,89.319,29.356,89.319C36.047,87.558,39.216,91.784,39.568,92.136C39.568,92.136,34.99,100.236,33.582,101.644C32.173,103.053,30.412,103.405,28.652,103.053C25.834,102.349,24.073,99.531,25.13,97.066ZM25.13,97.066"/>
</g>
        <g id="Ultralight-L" transform="matrix(1.0,0.0,0.0,1.0,495.51487780304393,1455.2848973342939)">  <path stroke-opacity="1" stroke-linejoin="miter" stroke-linecap="butt" stroke-dasharray="none" role="img" fill-opacity="1" stroke-width="1px" fill="#000000" fill-rule="nonzero" stroke="none" stroke-miterlimit="4" d="M104.012,29.101C106.477,28.045,108.238,27.693,109.999,28.045C112.816,28.749,114.225,30.862,115.281,31.918C116.338,34.031,120.211,36.144,121.972,36.496C123.381,36.848,125.845,32.974,127.606,29.453C129.367,26.284,130.424,22.058,130.071,21.001C129.719,19.945,124.789,17.832,123.732,17.832C123.028,17.832,121.62,18.536,119.155,18.184C116.69,17.832,114.225,15.014,112.816,12.901C110.351,9.38,106.829,7.267,103.66,5.506C100.138,3.745,96.264,2.688,92.391,1.984C86.756,0.576,81.122,-0.481,75.487,0.223C72.318,0.575,68.445,0.928,65.627,1.984C65.275,1.984,64.571,3.041,65.275,3.041C65.98,3.041,68.444,3.393,68.444,3.393C68.444,3.393,65.276,4.098,65.276,4.802C65.276,5.507,65.628,5.507,65.98,5.507C66.332,5.507,74.079,5.155,77.249,5.507C80.77,6.211,84.644,7.972,87.109,12.198C91.335,19.945,89.574,27.341,88.518,29.806C83.235,41.426,41.329,112.914,39.216,117.844C37.103,122.774,36.399,125.943,42.385,129.113C48.372,132.282,51.541,130.874,53.302,128.761C55.415,125.943,91.687,35.087,104.012,29.101ZM84.291,76.642L92.743,76.642C98.378,76.642,99.434,79.459,99.434,80.515C99.786,83.333,98.378,86.854,92.743,86.854L87.461,86.854L91.687,93.897C94.152,98.123,93.095,100.236,91.687,101.644C89.574,103.757,84.996,103.757,82.531,99.179L77.601,90.727C74.079,98.475,70.558,106.926,66.332,116.787L88.165,116.787C98.73,116.787,107.534,107.983,107.534,97.418L107.534,35.792C107.182,35.087,106.477,35.44,106.125,35.792C104.012,38.257,98.026,46.708,84.291,76.642ZM30.764,120.309L29.003,120.309C16.326,120.309,6.114,110.096,6.114,97.419L6.114,38.257C6.114,25.58,16.326,15.367,29.003,15.367L80.066,15.367C79.009,14.311,74.783,12.55,70.558,12.902C68.797,12.902,65.276,13.607,63.163,12.198C61.05,10.437,61.402,9.38,58.233,9.38L26.891,9.38C12.453,9.38,0.832,21.001,0.832,35.439L0.832,99.531C0.832,113.97,12.453,125.591,25.13,125.239C28.651,125.239,29.708,122.422,30.764,120.309ZM111.408,37.904L111.408,97.418C111.408,110.096,101.195,120.308,88.518,120.308L64.923,120.308C64.923,120.308,62.81,125.943,69.501,125.943L90.63,125.943C105.069,125.943,116.69,114.322,116.69,99.883L116.69,48.117C117.042,43.187,112.816,40.017,111.408,37.904ZM9.987,38.257L9.987,97.419C9.987,107.983,18.791,116.787,29.355,116.787L32.525,116.787C32.525,116.435,36.751,109.04,45.907,93.545C46.963,91.432,48.372,89.319,49.78,86.854L24.073,86.854C20.904,86.854,19.143,84.741,18.791,82.981C18.086,80.163,19.847,76.642,23.721,76.642L36.751,76.642L53.302,47.765C53.302,47.765,49.429,40.722,48.372,38.961C46.963,36.496,47.668,34.031,49.076,32.623C51.189,30.51,54.711,29.453,58.232,35.087L59.641,37.2L61.049,35.087C64.219,30.51,66.332,30.862,68.092,31.214C70.909,31.919,72.67,35.087,70.205,40.018L48.372,76.642L55.767,76.642C58.232,72.416,60.697,68.19,63.163,63.612C62.811,61.851,62.458,59.738,62.811,57.977C63.163,55.16,64.572,52.695,66.332,50.582L68.445,54.103C75.136,42.482,80.066,32.622,81.475,28.748C82.179,26.635,83.236,22.409,82.179,18.888L29.356,18.888C18.439,18.888,9.987,27.692,9.987,38.257ZM25.13,97.066C25.13,96.714,29.356,89.319,29.356,89.319C36.047,87.558,39.216,91.784,39.568,92.136C39.568,92.136,34.99,100.236,33.582,101.644C32.173,103.053,30.412,103.405,28.652,103.053C25.834,102.349,24.073,99.531,25.13,97.066ZM25.13,97.066"/>
</g>
        <g id="Black-M" transform="matrix(1.0,0.0,0.0,1.0,2883.9163393822046,1040.0063589134545)">  <path fill="#000000" stroke-width="1px" stroke-miterlimit="4" stroke-dasharray="none" fill-opacity="1" stroke="none" stroke-linejoin="miter" fill-rule="nonzero" role="img" stroke-opacity="1" stroke-linecap="butt" d="M80.63,22.559C82.54,21.74,83.906,21.467,85.27,21.74C87.454,22.286,88.546,23.924,89.365,24.743C90.184,26.381,93.187,28.019,94.552,28.291C95.644,28.564,97.555,25.562,98.92,22.832C100.285,20.375,101.104,17.099,100.831,16.28C100.558,15.461,96.736,13.823,95.917,13.823C95.371,13.823,94.279,14.369,92.368,14.096C90.457,13.823,88.546,11.639,87.454,10.001C85.543,7.271,82.813,5.633,80.356,4.268C77.627,2.903,74.623,2.084,71.621,1.538C67.253,0.446,62.885,-0.373,58.517,0.173C56.06,0.446,53.058,0.719,50.874,1.538C50.601,1.538,50.055,2.357,50.601,2.357C51.147,2.357,53.058,2.63,53.058,2.63C53.058,2.63,50.601,3.177,50.601,3.723C50.601,4.269,50.874,4.269,51.147,4.269C51.42,4.269,57.426,3.996,59.883,4.269C62.613,4.815,65.616,6.18,67.527,9.456C70.803,15.461,69.437,21.194,68.619,23.105C64.524,32.114,32.038,87.53,30.4,91.352C28.762,95.173,28.216,97.63,32.857,100.087C37.497,102.544,39.954,101.452,41.32,99.814C42.957,97.63,71.075,27.2,80.63,22.559ZM65.342,59.412L71.894,59.412C76.262,59.412,77.081,61.596,77.081,62.415C77.354,64.599,76.262,67.329,71.894,67.329L67.799,67.329L71.075,72.788C72.986,76.064,72.167,77.702,71.075,78.794C69.437,80.432,65.888,80.432,63.977,76.883L60.156,70.331C57.426,76.337,54.696,82.889,51.42,90.532L68.345,90.532C76.535,90.532,83.359,83.708,83.359,75.518L83.359,27.746C83.087,27.2,82.54,27.473,82.268,27.746C80.63,29.657,75.989,36.208,65.342,59.412ZM23.848,93.263L22.483,93.263C12.656,93.263,4.739,85.346,4.739,75.519L4.739,29.657C4.739,19.829,12.656,11.913,22.483,11.913L62.067,11.913C61.248,11.094,57.972,9.728,54.696,10.002C53.331,10.002,50.601,10.548,48.963,9.456C47.325,8.09,47.598,7.271,45.142,7.271L20.846,7.271C9.653,7.271,0.645,16.28,0.645,27.472L0.645,77.156C0.645,88.349,9.653,97.357,19.481,97.084C22.21,97.084,23.029,94.901,23.848,93.263ZM86.363,29.383L86.363,75.518C86.363,85.346,78.446,93.262,68.619,93.262L50.328,93.262C50.328,93.262,48.69,97.63,53.877,97.63L70.256,97.63C81.449,97.63,90.457,88.622,90.457,77.429L90.457,37.3C90.73,33.478,87.454,31.021,86.363,29.383ZM7.742,29.657L7.742,75.519C7.742,83.708,14.567,90.533,22.756,90.533L25.213,90.533C25.213,90.26,28.489,84.527,35.587,72.515C36.406,70.877,37.497,69.24,38.589,67.329L18.662,67.329C16.205,67.329,14.84,65.691,14.567,64.326C14.02,62.142,15.386,59.412,18.388,59.412L28.489,59.412L41.32,37.027C41.32,37.027,38.317,31.567,37.498,30.202C36.406,28.291,36.952,26.381,38.044,25.289C39.682,23.651,42.411,22.832,45.141,27.2L46.233,28.838L47.325,27.2C49.782,23.651,51.42,23.924,52.784,24.197C54.969,24.743,56.333,27.2,54.422,31.022L37.497,59.412L43.23,59.412C45.141,56.136,47.052,52.86,48.963,49.311C48.69,47.946,48.417,46.309,48.69,44.944C48.963,42.76,50.056,40.849,51.42,39.211L53.058,41.941C58.245,32.932,62.067,25.288,63.159,22.285C63.705,20.647,64.524,17.371,63.705,14.642L22.757,14.642C14.294,14.642,7.742,21.467,7.742,29.657ZM19.481,75.245C19.481,74.972,22.757,69.24,22.757,69.24C27.943,67.874,30.4,71.15,30.673,71.424C30.673,71.424,27.124,77.702,26.032,78.794C24.941,79.886,23.575,80.159,22.211,79.886C20.026,79.34,18.662,77.156,19.481,75.245ZM19.481,75.245"/>
</g>
        <g id="Heavy-M" transform="matrix(1.0,0.0,0.0,1.0,2587.2063393822045,1040.0063589134545)">  <path stroke-opacity="1" stroke-dasharray="none" stroke-linecap="butt" stroke-miterlimit="4" fill="#000000" stroke="none" fill-opacity="1" stroke-linejoin="miter" fill-rule="nonzero" role="img" stroke-width="1px" d="M80.63,22.559C82.54,21.74,83.906,21.467,85.27,21.74C87.454,22.286,88.546,23.924,89.365,24.743C90.184,26.381,93.187,28.019,94.552,28.291C95.644,28.564,97.555,25.562,98.92,22.832C100.285,20.375,101.104,17.099,100.831,16.28C100.558,15.461,96.736,13.823,95.917,13.823C95.371,13.823,94.279,14.369,92.368,14.096C90.457,13.823,88.546,11.639,87.454,10.001C85.543,7.271,82.813,5.633,80.356,4.268C77.627,2.903,74.623,2.084,71.621,1.538C67.253,0.446,62.885,-0.373,58.517,0.173C56.06,0.446,53.058,0.719,50.874,1.538C50.601,1.538,50.055,2.357,50.601,2.357C51.147,2.357,53.058,2.63,53.058,2.63C53.058,2.63,50.601,3.177,50.601,3.723C50.601,4.269,50.874,4.269,51.147,4.269C51.42,4.269,57.426,3.996,59.883,4.269C62.613,4.815,65.616,6.18,67.527,9.456C70.803,15.461,69.437,21.194,68.619,23.105C64.524,32.114,32.038,87.53,30.4,91.352C28.762,95.173,28.216,97.63,32.857,100.087C37.497,102.544,39.954,101.452,41.32,99.814C42.957,97.63,71.075,27.2,80.63,22.559ZM65.342,59.412L71.894,59.412C76.262,59.412,77.081,61.596,77.081,62.415C77.354,64.599,76.262,67.329,71.894,67.329L67.799,67.329L71.075,72.788C72.986,76.064,72.167,77.702,71.075,78.794C69.437,80.432,65.888,80.432,63.977,76.883L60.156,70.331C57.426,76.337,54.696,82.889,51.42,90.532L68.345,90.532C76.535,90.532,83.359,83.708,83.359,75.518L83.359,27.746C83.087,27.2,82.54,27.473,82.268,27.746C80.63,29.657,75.989,36.208,65.342,59.412ZM23.848,93.263L22.483,93.263C12.656,93.263,4.739,85.346,4.739,75.519L4.739,29.657C4.739,19.829,12.656,11.913,22.483,11.913L62.067,11.913C61.248,11.094,57.972,9.728,54.696,10.002C53.331,10.002,50.601,10.548,48.963,9.456C47.325,8.09,47.598,7.271,45.142,7.271L20.846,7.271C9.653,7.271,0.645,16.28,0.645,27.472L0.645,77.156C0.645,88.349,9.653,97.357,19.481,97.084C22.21,97.084,23.029,94.901,23.848,93.263ZM86.363,29.383L86.363,75.518C86.363,85.346,78.446,93.262,68.619,93.262L50.328,93.262C50.328,93.262,48.69,97.63,53.877,97.63L70.256,97.63C81.449,97.63,90.457,88.622,90.457,77.429L90.457,37.3C90.73,33.478,87.454,31.021,86.363,29.383ZM7.742,29.657L7.742,75.519C7.742,83.708,14.567,90.533,22.756,90.533L25.213,90.533C25.213,90.26,28.489,84.527,35.587,72.515C36.406,70.877,37.497,69.24,38.589,67.329L18.662,67.329C16.205,67.329,14.84,65.691,14.567,64.326C14.02,62.142,15.386,59.412,18.388,59.412L28.489,59.412L41.32,37.027C41.32,37.027,38.317,31.567,37.498,30.202C36.406,28.291,36.952,26.381,38.044,25.289C39.682,23.651,42.411,22.832,45.141,27.2L46.233,28.838L47.325,27.2C49.782,23.651,51.42,23.924,52.784,24.197C54.969,24.743,56.333,27.2,54.422,31.022L37.497,59.412L43.23,59.412C45.141,56.136,47.052,52.86,48.963,49.311C48.69,47.946,48.417,46.309,48.69,44.944C48.963,42.76,50.056,40.849,51.42,39.211L53.058,41.941C58.245,32.932,62.067,25.288,63.159,22.285C63.705,20.647,64.524,17.371,63.705,14.642L22.757,14.642C14.294,14.642,7.742,21.467,7.742,29.657ZM19.481,75.245C19.481,74.972,22.757,69.24,22.757,69.24C27.943,67.874,30.4,71.15,30.673,71.424C30.673,71.424,27.124,77.702,26.032,78.794C24.941,79.886,23.575,80.159,22.211,79.886C20.026,79.34,18.662,77.156,19.481,75.245ZM19.481,75.245"/>
</g>
        <g id="Bold-M" transform="matrix(1.0,0.0,0.0,1.0,2290.4963393822045,1040.0063589134545)">  <path stroke-miterlimit="4" fill="#000000" stroke-dasharray="none" role="img" stroke-opacity="1" stroke-linejoin="miter" stroke-linecap="butt" fill-rule="nonzero" stroke="none" stroke-width="1px" fill-opacity="1" d="M80.63,22.559C82.54,21.74,83.906,21.467,85.27,21.74C87.454,22.286,88.546,23.924,89.365,24.743C90.184,26.381,93.187,28.019,94.552,28.291C95.644,28.564,97.555,25.562,98.92,22.832C100.285,20.375,101.104,17.099,100.831,16.28C100.558,15.461,96.736,13.823,95.917,13.823C95.371,13.823,94.279,14.369,92.368,14.096C90.457,13.823,88.546,11.639,87.454,10.001C85.543,7.271,82.813,5.633,80.356,4.268C77.627,2.903,74.623,2.084,71.621,1.538C67.253,0.446,62.885,-0.373,58.517,0.173C56.06,0.446,53.058,0.719,50.874,1.538C50.601,1.538,50.055,2.357,50.601,2.357C51.147,2.357,53.058,2.63,53.058,2.63C53.058,2.63,50.601,3.177,50.601,3.723C50.601,4.269,50.874,4.269,51.147,4.269C51.42,4.269,57.426,3.996,59.883,4.269C62.613,4.815,65.616,6.18,67.527,9.456C70.803,15.461,69.437,21.194,68.619,23.105C64.524,32.114,32.038,87.53,30.4,91.352C28.762,95.173,28.216,97.63,32.857,100.087C37.497,102.544,39.954,101.452,41.32,99.814C42.957,97.63,71.075,27.2,80.63,22.559ZM65.342,59.412L71.894,59.412C76.262,59.412,77.081,61.596,77.081,62.415C77.354,64.599,76.262,67.329,71.894,67.329L67.799,67.329L71.075,72.788C72.986,76.064,72.167,77.702,71.075,78.794C69.437,80.432,65.888,80.432,63.977,76.883L60.156,70.331C57.426,76.337,54.696,82.889,51.42,90.532L68.345,90.532C76.535,90.532,83.359,83.708,83.359,75.518L83.359,27.746C83.087,27.2,82.54,27.473,82.268,27.746C80.63,29.657,75.989,36.208,65.342,59.412ZM23.848,93.263L22.483,93.263C12.656,93.263,4.739,85.346,4.739,75.519L4.739,29.657C4.739,19.829,12.656,11.913,22.483,11.913L62.067,11.913C61.248,11.094,57.972,9.728,54.696,10.002C53.331,10.002,50.601,10.548,48.963,9.456C47.325,8.09,47.598,7.271,45.142,7.271L20.846,7.271C9.653,7.271,0.645,16.28,0.645,27.472L0.645,77.156C0.645,88.349,9.653,97.357,19.481,97.084C22.21,97.084,23.029,94.901,23.848,93.263ZM86.363,29.383L86.363,75.518C86.363,85.346,78.446,93.262,68.619,93.262L50.328,93.262C50.328,93.262,48.69,97.63,53.877,97.63L70.256,97.63C81.449,97.63,90.457,88.622,90.457,77.429L90.457,37.3C90.73,33.478,87.454,31.021,86.363,29.383ZM7.742,29.657L7.742,75.519C7.742,83.708,14.567,90.533,22.756,90.533L25.213,90.533C25.213,90.26,28.489,84.527,35.587,72.515C36.406,70.877,37.497,69.24,38.589,67.329L18.662,67.329C16.205,67.329,14.84,65.691,14.567,64.326C14.02,62.142,15.386,59.412,18.388,59.412L28.489,59.412L41.32,37.027C41.32,37.027,38.317,31.567,37.498,30.202C36.406,28.291,36.952,26.381,38.044,25.289C39.682,23.651,42.411,22.832,45.141,27.2L46.233,28.838L47.325,27.2C49.782,23.651,51.42,23.924,52.784,24.197C54.969,24.743,56.333,27.2,54.422,31.022L37.497,59.412L43.23,59.412C45.141,56.136,47.052,52.86,48.963,49.311C48.69,47.946,48.417,46.309,48.69,44.944C48.963,42.76,50.056,40.849,51.42,39.211L53.058,41.941C58.245,32.932,62.067,25.288,63.159,22.285C63.705,20.647,64.524,17.371,63.705,14.642L22.757,14.642C14.294,14.642,7.742,21.467,7.742,29.657ZM19.481,75.245C19.481,74.972,22.757,69.24,22.757,69.24C27.943,67.874,30.4,71.15,30.673,71.424C30.673,71.424,27.124,77.702,26.032,78.794C24.941,79.886,23.575,80.159,22.211,79.886C20.026,79.34,18.662,77.156,19.481,75.245ZM19.481,75.245"/>
</g>
        <g id="Semibold-M" transform="matrix(1.0,0.0,0.0,1.0,1993.7863393822045,1040.0063589134545)">  <path stroke-linecap="butt" stroke-width="1px" fill-rule="nonzero" stroke-opacity="1" stroke-dasharray="none" fill="#000000" role="img" fill-opacity="1" stroke-miterlimit="4" stroke-linejoin="miter" stroke="none" d="M80.63,22.559C82.54,21.74,83.906,21.467,85.27,21.74C87.454,22.286,88.546,23.924,89.365,24.743C90.184,26.381,93.187,28.019,94.552,28.291C95.644,28.564,97.555,25.562,98.92,22.832C100.285,20.375,101.104,17.099,100.831,16.28C100.558,15.461,96.736,13.823,95.917,13.823C95.371,13.823,94.279,14.369,92.368,14.096C90.457,13.823,88.546,11.639,87.454,10.001C85.543,7.271,82.813,5.633,80.356,4.268C77.627,2.903,74.623,2.084,71.621,1.538C67.253,0.446,62.885,-0.373,58.517,0.173C56.06,0.446,53.058,0.719,50.874,1.538C50.601,1.538,50.055,2.357,50.601,2.357C51.147,2.357,53.058,2.63,53.058,2.63C53.058,2.63,50.601,3.177,50.601,3.723C50.601,4.269,50.874,4.269,51.147,4.269C51.42,4.269,57.426,3.996,59.883,4.269C62.613,4.815,65.616,6.18,67.527,9.456C70.803,15.461,69.437,21.194,68.619,23.105C64.524,32.114,32.038,87.53,30.4,91.352C28.762,95.173,28.216,97.63,32.857,100.087C37.497,102.544,39.954,101.452,41.32,99.814C42.957,97.63,71.075,27.2,80.63,22.559ZM65.342,59.412L71.894,59.412C76.262,59.412,77.081,61.596,77.081,62.415C77.354,64.599,76.262,67.329,71.894,67.329L67.799,67.329L71.075,72.788C72.986,76.064,72.167,77.702,71.075,78.794C69.437,80.432,65.888,80.432,63.977,76.883L60.156,70.331C57.426,76.337,54.696,82.889,51.42,90.532L68.345,90.532C76.535,90.532,83.359,83.708,83.359,75.518L83.359,27.746C83.087,27.2,82.54,27.473,82.268,27.746C80.63,29.657,75.989,36.208,65.342,59.412ZM23.848,93.263L22.483,93.263C12.656,93.263,4.739,85.346,4.739,75.519L4.739,29.657C4.739,19.829,12.656,11.913,22.483,11.913L62.067,11.913C61.248,11.094,57.972,9.728,54.696,10.002C53.331,10.002,50.601,10.548,48.963,9.456C47.325,8.09,47.598,7.271,45.142,7.271L20.846,7.271C9.653,7.271,0.645,16.28,0.645,27.472L0.645,77.156C0.645,88.349,9.653,97.357,19.481,97.084C22.21,97.084,23.029,94.901,23.848,93.263ZM86.363,29.383L86.363,75.518C86.363,85.346,78.446,93.262,68.619,93.262L50.328,93.262C50.328,93.262,48.69,97.63,53.877,97.63L70.256,97.63C81.449,97.63,90.457,88.622,90.457,77.429L90.457,37.3C90.73,33.478,87.454,31.021,86.363,29.383ZM7.742,29.657L7.742,75.519C7.742,83.708,14.567,90.533,22.756,90.533L25.213,90.533C25.213,90.26,28.489,84.527,35.587,72.515C36.406,70.877,37.497,69.24,38.589,67.329L18.662,67.329C16.205,67.329,14.84,65.691,14.567,64.326C14.02,62.142,15.386,59.412,18.388,59.412L28.489,59.412L41.32,37.027C41.32,37.027,38.317,31.567,37.498,30.202C36.406,28.291,36.952,26.381,38.044,25.289C39.682,23.651,42.411,22.832,45.141,27.2L46.233,28.838L47.325,27.2C49.782,23.651,51.42,23.924,52.784,24.197C54.969,24.743,56.333,27.2,54.422,31.022L37.497,59.412L43.23,59.412C45.141,56.136,47.052,52.86,48.963,49.311C48.69,47.946,48.417,46.309,48.69,44.944C48.963,42.76,50.056,40.849,51.42,39.211L53.058,41.941C58.245,32.932,62.067,25.288,63.159,22.285C63.705,20.647,64.524,17.371,63.705,14.642L22.757,14.642C14.294,14.642,7.742,21.467,7.742,29.657ZM19.481,75.245C19.481,74.972,22.757,69.24,22.757,69.24C27.943,67.874,30.4,71.15,30.673,71.424C30.673,71.424,27.124,77.702,26.032,78.794C24.941,79.886,23.575,80.159,22.211,79.886C20.026,79.34,18.662,77.156,19.481,75.245ZM19.481,75.245"/>
</g>
        <g id="Medium-M" transform="matrix(1.0,0.0,0.0,1.0,1697.0763393822044,1040.0063589134545)">  <path fill="#000000" role="img" fill-rule="nonzero" stroke-dasharray="none" stroke-linejoin="miter" stroke-width="1px" fill-opacity="1" stroke="none" stroke-linecap="butt" stroke-miterlimit="4" stroke-opacity="1" d="M80.63,22.559C82.54,21.74,83.906,21.467,85.27,21.74C87.454,22.286,88.546,23.924,89.365,24.743C90.184,26.381,93.187,28.019,94.552,28.291C95.644,28.564,97.555,25.562,98.92,22.832C100.285,20.375,101.104,17.099,100.831,16.28C100.558,15.461,96.736,13.823,95.917,13.823C95.371,13.823,94.279,14.369,92.368,14.096C90.457,13.823,88.546,11.639,87.454,10.001C85.543,7.271,82.813,5.633,80.356,4.268C77.627,2.903,74.623,2.084,71.621,1.538C67.253,0.446,62.885,-0.373,58.517,0.173C56.06,0.446,53.058,0.719,50.874,1.538C50.601,1.538,50.055,2.357,50.601,2.357C51.147,2.357,53.058,2.63,53.058,2.63C53.058,2.63,50.601,3.177,50.601,3.723C50.601,4.269,50.874,4.269,51.147,4.269C51.42,4.269,57.426,3.996,59.883,4.269C62.613,4.815,65.616,6.18,67.527,9.456C70.803,15.461,69.437,21.194,68.619,23.105C64.524,32.114,32.038,87.53,30.4,91.352C28.762,95.173,28.216,97.63,32.857,100.087C37.497,102.544,39.954,101.452,41.32,99.814C42.957,97.63,71.075,27.2,80.63,22.559ZM65.342,59.412L71.894,59.412C76.262,59.412,77.081,61.596,77.081,62.415C77.354,64.599,76.262,67.329,71.894,67.329L67.799,67.329L71.075,72.788C72.986,76.064,72.167,77.702,71.075,78.794C69.437,80.432,65.888,80.432,63.977,76.883L60.156,70.331C57.426,76.337,54.696,82.889,51.42,90.532L68.345,90.532C76.535,90.532,83.359,83.708,83.359,75.518L83.359,27.746C83.087,27.2,82.54,27.473,82.268,27.746C80.63,29.657,75.989,36.208,65.342,59.412ZM23.848,93.263L22.483,93.263C12.656,93.263,4.739,85.346,4.739,75.519L4.739,29.657C4.739,19.829,12.656,11.913,22.483,11.913L62.067,11.913C61.248,11.094,57.972,9.728,54.696,10.002C53.331,10.002,50.601,10.548,48.963,9.456C47.325,8.09,47.598,7.271,45.142,7.271L20.846,7.271C9.653,7.271,0.645,16.28,0.645,27.472L0.645,77.156C0.645,88.349,9.653,97.357,19.481,97.084C22.21,97.084,23.029,94.901,23.848,93.263ZM86.363,29.383L86.363,75.518C86.363,85.346,78.446,93.262,68.619,93.262L50.328,93.262C50.328,93.262,48.69,97.63,53.877,97.63L70.256,97.63C81.449,97.63,90.457,88.622,90.457,77.429L90.457,37.3C90.73,33.478,87.454,31.021,86.363,29.383ZM7.742,29.657L7.742,75.519C7.742,83.708,14.567,90.533,22.756,90.533L25.213,90.533C25.213,90.26,28.489,84.527,35.587,72.515C36.406,70.877,37.497,69.24,38.589,67.329L18.662,67.329C16.205,67.329,14.84,65.691,14.567,64.326C14.02,62.142,15.386,59.412,18.388,59.412L28.489,59.412L41.32,37.027C41.32,37.027,38.317,31.567,37.498,30.202C36.406,28.291,36.952,26.381,38.044,25.289C39.682,23.651,42.411,22.832,45.141,27.2L46.233,28.838L47.325,27.2C49.782,23.651,51.42,23.924,52.784,24.197C54.969,24.743,56.333,27.2,54.422,31.022L37.497,59.412L43.23,59.412C45.141,56.136,47.052,52.86,48.963,49.311C48.69,47.946,48.417,46.309,48.69,44.944C48.963,42.76,50.056,40.849,51.42,39.211L53.058,41.941C58.245,32.932,62.067,25.288,63.159,22.285C63.705,20.647,64.524,17.371,63.705,14.642L22.757,14.642C14.294,14.642,7.742,21.467,7.742,29.657ZM19.481,75.245C19.481,74.972,22.757,69.24,22.757,69.24C27.943,67.874,30.4,71.15,30.673,71.424C30.673,71.424,27.124,77.702,26.032,78.794C24.941,79.886,23.575,80.159,22.211,79.886C20.026,79.34,18.662,77.156,19.481,75.245ZM19.481,75.245"/>
</g>
        <g id="Regular-M" transform="matrix(1.0,0.0,0.0,1.0,1400.3663393822044,1040.0063589134545)">  <path role="img" stroke-miterlimit="4" stroke-linecap="butt" fill="#000000" stroke-opacity="1" fill-opacity="1" stroke="none" stroke-dasharray="none" stroke-linejoin="miter" stroke-width="1px" fill-rule="nonzero" d="M80.63,22.559C82.54,21.74,83.906,21.467,85.27,21.74C87.454,22.286,88.546,23.924,89.365,24.743C90.184,26.381,93.187,28.019,94.552,28.291C95.644,28.564,97.555,25.562,98.92,22.832C100.285,20.375,101.104,17.099,100.831,16.28C100.558,15.461,96.736,13.823,95.917,13.823C95.371,13.823,94.279,14.369,92.368,14.096C90.457,13.823,88.546,11.639,87.454,10.001C85.543,7.271,82.813,5.633,80.356,4.268C77.627,2.903,74.623,2.084,71.621,1.538C67.253,0.446,62.885,-0.373,58.517,0.173C56.06,0.446,53.058,0.719,50.874,1.538C50.601,1.538,50.055,2.357,50.601,2.357C51.147,2.357,53.058,2.63,53.058,2.63C53.058,2.63,50.601,3.177,50.601,3.723C50.601,4.269,50.874,4.269,51.147,4.269C51.42,4.269,57.426,3.996,59.883,4.269C62.613,4.815,65.616,6.18,67.527,9.456C70.803,15.461,69.437,21.194,68.619,23.105C64.524,32.114,32.038,87.53,30.4,91.352C28.762,95.173,28.216,97.63,32.857,100.087C37.497,102.544,39.954,101.452,41.32,99.814C42.957,97.63,71.075,27.2,80.63,22.559ZM65.342,59.412L71.894,59.412C76.262,59.412,77.081,61.596,77.081,62.415C77.354,64.599,76.262,67.329,71.894,67.329L67.799,67.329L71.075,72.788C72.986,76.064,72.167,77.702,71.075,78.794C69.437,80.432,65.888,80.432,63.977,76.883L60.156,70.331C57.426,76.337,54.696,82.889,51.42,90.532L68.345,90.532C76.535,90.532,83.359,83.708,83.359,75.518L83.359,27.746C83.087,27.2,82.54,27.473,82.268,27.746C80.63,29.657,75.989,36.208,65.342,59.412ZM23.848,93.263L22.483,93.263C12.656,93.263,4.739,85.346,4.739,75.519L4.739,29.657C4.739,19.829,12.656,11.913,22.483,11.913L62.067,11.913C61.248,11.094,57.972,9.728,54.696,10.002C53.331,10.002,50.601,10.548,48.963,9.456C47.325,8.09,47.598,7.271,45.142,7.271L20.846,7.271C9.653,7.271,0.645,16.28,0.645,27.472L0.645,77.156C0.645,88.349,9.653,97.357,19.481,97.084C22.21,97.084,23.029,94.901,23.848,93.263ZM86.363,29.383L86.363,75.518C86.363,85.346,78.446,93.262,68.619,93.262L50.328,93.262C50.328,93.262,48.69,97.63,53.877,97.63L70.256,97.63C81.449,97.63,90.457,88.622,90.457,77.429L90.457,37.3C90.73,33.478,87.454,31.021,86.363,29.383ZM7.742,29.657L7.742,75.519C7.742,83.708,14.567,90.533,22.756,90.533L25.213,90.533C25.213,90.26,28.489,84.527,35.587,72.515C36.406,70.877,37.497,69.24,38.589,67.329L18.662,67.329C16.205,67.329,14.84,65.691,14.567,64.326C14.02,62.142,15.386,59.412,18.388,59.412L28.489,59.412L41.32,37.027C41.32,37.027,38.317,31.567,37.498,30.202C36.406,28.291,36.952,26.381,38.044,25.289C39.682,23.651,42.411,22.832,45.141,27.2L46.233,28.838L47.325,27.2C49.782,23.651,51.42,23.924,52.784,24.197C54.969,24.743,56.333,27.2,54.422,31.022L37.497,59.412L43.23,59.412C45.141,56.136,47.052,52.86,48.963,49.311C48.69,47.946,48.417,46.309,48.69,44.944C48.963,42.76,50.056,40.849,51.42,39.211L53.058,41.941C58.245,32.932,62.067,25.288,63.159,22.285C63.705,20.647,64.524,17.371,63.705,14.642L22.757,14.642C14.294,14.642,7.742,21.467,7.742,29.657ZM19.481,75.245C19.481,74.972,22.757,69.24,22.757,69.24C27.943,67.874,30.4,71.15,30.673,71.424C30.673,71.424,27.124,77.702,26.032,78.794C24.941,79.886,23.575,80.159,22.211,79.886C20.026,79.34,18.662,77.156,19.481,75.245ZM19.481,75.245"/>
</g>
        <g id="Light-M" transform="matrix(1.0,0.0,0.0,1.0,1103.6563393822046,1040.0063589134545)">  <path fill="#000000" stroke="none" stroke-linecap="butt" fill-opacity="1" stroke-opacity="1" role="img" stroke-linejoin="miter" stroke-dasharray="none" stroke-miterlimit="4" stroke-width="1px" fill-rule="nonzero" d="M80.63,22.559C82.54,21.74,83.906,21.467,85.27,21.74C87.454,22.286,88.546,23.924,89.365,24.743C90.184,26.381,93.187,28.019,94.552,28.291C95.644,28.564,97.555,25.562,98.92,22.832C100.285,20.375,101.104,17.099,100.831,16.28C100.558,15.461,96.736,13.823,95.917,13.823C95.371,13.823,94.279,14.369,92.368,14.096C90.457,13.823,88.546,11.639,87.454,10.001C85.543,7.271,82.813,5.633,80.356,4.268C77.627,2.903,74.623,2.084,71.621,1.538C67.253,0.446,62.885,-0.373,58.517,0.173C56.06,0.446,53.058,0.719,50.874,1.538C50.601,1.538,50.055,2.357,50.601,2.357C51.147,2.357,53.058,2.63,53.058,2.63C53.058,2.63,50.601,3.177,50.601,3.723C50.601,4.269,50.874,4.269,51.147,4.269C51.42,4.269,57.426,3.996,59.883,4.269C62.613,4.815,65.616,6.18,67.527,9.456C70.803,15.461,69.437,21.194,68.619,23.105C64.524,32.114,32.038,87.53,30.4,91.352C28.762,95.173,28.216,97.63,32.857,100.087C37.497,102.544,39.954,101.452,41.32,99.814C42.957,97.63,71.075,27.2,80.63,22.559ZM65.342,59.412L71.894,59.412C76.262,59.412,77.081,61.596,77.081,62.415C77.354,64.599,76.262,67.329,71.894,67.329L67.799,67.329L71.075,72.788C72.986,76.064,72.167,77.702,71.075,78.794C69.437,80.432,65.888,80.432,63.977,76.883L60.156,70.331C57.426,76.337,54.696,82.889,51.42,90.532L68.345,90.532C76.535,90.532,83.359,83.708,83.359,75.518L83.359,27.746C83.087,27.2,82.54,27.473,82.268,27.746C80.63,29.657,75.989,36.208,65.342,59.412ZM23.848,93.263L22.483,93.263C12.656,93.263,4.739,85.346,4.739,75.519L4.739,29.657C4.739,19.829,12.656,11.913,22.483,11.913L62.067,11.913C61.248,11.094,57.972,9.728,54.696,10.002C53.331,10.002,50.601,10.548,48.963,9.456C47.325,8.09,47.598,7.271,45.142,7.271L20.846,7.271C9.653,7.271,0.645,16.28,0.645,27.472L0.645,77.156C0.645,88.349,9.653,97.357,19.481,97.084C22.21,97.084,23.029,94.901,23.848,93.263ZM86.363,29.383L86.363,75.518C86.363,85.346,78.446,93.262,68.619,93.262L50.328,93.262C50.328,93.262,48.69,97.63,53.877,97.63L70.256,97.63C81.449,97.63,90.457,88.622,90.457,77.429L90.457,37.3C90.73,33.478,87.454,31.021,86.363,29.383ZM7.742,29.657L7.742,75.519C7.742,83.708,14.567,90.533,22.756,90.533L25.213,90.533C25.213,90.26,28.489,84.527,35.587,72.515C36.406,70.877,37.497,69.24,38.589,67.329L18.662,67.329C16.205,67.329,14.84,65.691,14.567,64.326C14.02,62.142,15.386,59.412,18.388,59.412L28.489,59.412L41.32,37.027C41.32,37.027,38.317,31.567,37.498,30.202C36.406,28.291,36.952,26.381,38.044,25.289C39.682,23.651,42.411,22.832,45.141,27.2L46.233,28.838L47.325,27.2C49.782,23.651,51.42,23.924,52.784,24.197C54.969,24.743,56.333,27.2,54.422,31.022L37.497,59.412L43.23,59.412C45.141,56.136,47.052,52.86,48.963,49.311C48.69,47.946,48.417,46.309,48.69,44.944C48.963,42.76,50.056,40.849,51.42,39.211L53.058,41.941C58.245,32.932,62.067,25.288,63.159,22.285C63.705,20.647,64.524,17.371,63.705,14.642L22.757,14.642C14.294,14.642,7.742,21.467,7.742,29.657ZM19.481,75.245C19.481,74.972,22.757,69.24,22.757,69.24C27.943,67.874,30.4,71.15,30.673,71.424C30.673,71.424,27.124,77.702,26.032,78.794C24.941,79.886,23.575,80.159,22.211,79.886C20.026,79.34,18.662,77.156,19.481,75.245ZM19.481,75.245"/>
</g>
        <g id="Thin-M" transform="matrix(1.0,0.0,0.0,1.0,806.9463393822047,1040.0063589134545)">  <path stroke-opacity="1" stroke-linecap="butt" stroke-miterlimit="4" stroke-width="1px" role="img" fill-opacity="1" stroke-dasharray="none" fill="#000000" stroke-linejoin="miter" fill-rule="nonzero" stroke="none" d="M80.63,22.559C82.54,21.74,83.906,21.467,85.27,21.74C87.454,22.286,88.546,23.924,89.365,24.743C90.184,26.381,93.187,28.019,94.552,28.291C95.644,28.564,97.555,25.562,98.92,22.832C100.285,20.375,101.104,17.099,100.831,16.28C100.558,15.461,96.736,13.823,95.917,13.823C95.371,13.823,94.279,14.369,92.368,14.096C90.457,13.823,88.546,11.639,87.454,10.001C85.543,7.271,82.813,5.633,80.356,4.268C77.627,2.903,74.623,2.084,71.621,1.538C67.253,0.446,62.885,-0.373,58.517,0.173C56.06,0.446,53.058,0.719,50.874,1.538C50.601,1.538,50.055,2.357,50.601,2.357C51.147,2.357,53.058,2.63,53.058,2.63C53.058,2.63,50.601,3.177,50.601,3.723C50.601,4.269,50.874,4.269,51.147,4.269C51.42,4.269,57.426,3.996,59.883,4.269C62.613,4.815,65.616,6.18,67.527,9.456C70.803,15.461,69.437,21.194,68.619,23.105C64.524,32.114,32.038,87.53,30.4,91.352C28.762,95.173,28.216,97.63,32.857,100.087C37.497,102.544,39.954,101.452,41.32,99.814C42.957,97.63,71.075,27.2,80.63,22.559ZM65.342,59.412L71.894,59.412C76.262,59.412,77.081,61.596,77.081,62.415C77.354,64.599,76.262,67.329,71.894,67.329L67.799,67.329L71.075,72.788C72.986,76.064,72.167,77.702,71.075,78.794C69.437,80.432,65.888,80.432,63.977,76.883L60.156,70.331C57.426,76.337,54.696,82.889,51.42,90.532L68.345,90.532C76.535,90.532,83.359,83.708,83.359,75.518L83.359,27.746C83.087,27.2,82.54,27.473,82.268,27.746C80.63,29.657,75.989,36.208,65.342,59.412ZM23.848,93.263L22.483,93.263C12.656,93.263,4.739,85.346,4.739,75.519L4.739,29.657C4.739,19.829,12.656,11.913,22.483,11.913L62.067,11.913C61.248,11.094,57.972,9.728,54.696,10.002C53.331,10.002,50.601,10.548,48.963,9.456C47.325,8.09,47.598,7.271,45.142,7.271L20.846,7.271C9.653,7.271,0.645,16.28,0.645,27.472L0.645,77.156C0.645,88.349,9.653,97.357,19.481,97.084C22.21,97.084,23.029,94.901,23.848,93.263ZM86.363,29.383L86.363,75.518C86.363,85.346,78.446,93.262,68.619,93.262L50.328,93.262C50.328,93.262,48.69,97.63,53.877,97.63L70.256,97.63C81.449,97.63,90.457,88.622,90.457,77.429L90.457,37.3C90.73,33.478,87.454,31.021,86.363,29.383ZM7.742,29.657L7.742,75.519C7.742,83.708,14.567,90.533,22.756,90.533L25.213,90.533C25.213,90.26,28.489,84.527,35.587,72.515C36.406,70.877,37.497,69.24,38.589,67.329L18.662,67.329C16.205,67.329,14.84,65.691,14.567,64.326C14.02,62.142,15.386,59.412,18.388,59.412L28.489,59.412L41.32,37.027C41.32,37.027,38.317,31.567,37.498,30.202C36.406,28.291,36.952,26.381,38.044,25.289C39.682,23.651,42.411,22.832,45.141,27.2L46.233,28.838L47.325,27.2C49.782,23.651,51.42,23.924,52.784,24.197C54.969,24.743,56.333,27.2,54.422,31.022L37.497,59.412L43.23,59.412C45.141,56.136,47.052,52.86,48.963,49.311C48.69,47.946,48.417,46.309,48.69,44.944C48.963,42.76,50.056,40.849,51.42,39.211L53.058,41.941C58.245,32.932,62.067,25.288,63.159,22.285C63.705,20.647,64.524,17.371,63.705,14.642L22.757,14.642C14.294,14.642,7.742,21.467,7.742,29.657ZM19.481,75.245C19.481,74.972,22.757,69.24,22.757,69.24C27.943,67.874,30.4,71.15,30.673,71.424C30.673,71.424,27.124,77.702,26.032,78.794C24.941,79.886,23.575,80.159,22.211,79.886C20.026,79.34,18.662,77.156,19.481,75.245ZM19.481,75.245"/>
</g>
        <g id="Ultralight-M" transform="matrix(1.0,0.0,0.0,1.0,510.2363393822046,1040.0063589134545)">  <path stroke-opacity="1" stroke-linejoin="miter" stroke-linecap="butt" stroke-dasharray="none" role="img" fill-opacity="1" stroke-width="1px" fill="#000000" fill-rule="nonzero" stroke="none" stroke-miterlimit="4" d="M80.63,22.559C82.54,21.74,83.906,21.467,85.27,21.74C87.454,22.286,88.546,23.924,89.365,24.743C90.184,26.381,93.187,28.019,94.552,28.291C95.644,28.564,97.555,25.562,98.92,22.832C100.285,20.375,101.104,17.099,100.831,16.28C100.558,15.461,96.736,13.823,95.917,13.823C95.371,13.823,94.279,14.369,92.368,14.096C90.457,13.823,88.546,11.639,87.454,10.001C85.543,7.271,82.813,5.633,80.356,4.268C77.627,2.903,74.623,2.084,71.621,1.538C67.253,0.446,62.885,-0.373,58.517,0.173C56.06,0.446,53.058,0.719,50.874,1.538C50.601,1.538,50.055,2.357,50.601,2.357C51.147,2.357,53.058,2.63,53.058,2.63C53.058,2.63,50.601,3.177,50.601,3.723C50.601,4.269,50.874,4.269,51.147,4.269C51.42,4.269,57.426,3.996,59.883,4.269C62.613,4.815,65.616,6.18,67.527,9.456C70.803,15.461,69.437,21.194,68.619,23.105C64.524,32.114,32.038,87.53,30.4,91.352C28.762,95.173,28.216,97.63,32.857,100.087C37.497,102.544,39.954,101.452,41.32,99.814C42.957,97.63,71.075,27.2,80.63,22.559ZM65.342,59.412L71.894,59.412C76.262,59.412,77.081,61.596,77.081,62.415C77.354,64.599,76.262,67.329,71.894,67.329L67.799,67.329L71.075,72.788C72.986,76.064,72.167,77.702,71.075,78.794C69.437,80.432,65.888,80.432,63.977,76.883L60.156,70.331C57.426,76.337,54.696,82.889,51.42,90.532L68.345,90.532C76.535,90.532,83.359,83.708,83.359,75.518L83.359,27.746C83.087,27.2,82.54,27.473,82.268,27.746C80.63,29.657,75.989,36.208,65.342,59.412ZM23.848,93.263L22.483,93.263C12.656,93.263,4.739,85.346,4.739,75.519L4.739,29.657C4.739,19.829,12.656,11.913,22.483,11.913L62.067,11.913C61.248,11.094,57.972,9.728,54.696,10.002C53.331,10.002,50.601,10.548,48.963,9.456C47.325,8.09,47.598,7.271,45.142,7.271L20.846,7.271C9.653,7.271,0.645,16.28,0.645,27.472L0.645,77.156C0.645,88.349,9.653,97.357,19.481,97.084C22.21,97.084,23.029,94.901,23.848,93.263ZM86.363,29.383L86.363,75.518C86.363,85.346,78.446,93.262,68.619,93.262L50.328,93.262C50.328,93.262,48.69,97.63,53.877,97.63L70.256,97.63C81.449,97.63,90.457,88.622,90.457,77.429L90.457,37.3C90.73,33.478,87.454,31.021,86.363,29.383ZM7.742,29.657L7.742,75.519C7.742,83.708,14.567,90.533,22.756,90.533L25.213,90.533C25.213,90.26,28.489,84.527,35.587,72.515C36.406,70.877,37.497,69.24,38.589,67.329L18.662,67.329C16.205,67.329,14.84,65.691,14.567,64.326C14.02,62.142,15.386,59.412,18.388,59.412L28.489,59.412L41.32,37.027C41.32,37.027,38.317,31.567,37.498,30.202C36.406,28.291,36.952,26.381,38.044,25.289C39.682,23.651,42.411,22.832,45.141,27.2L46.233,28.838L47.325,27.2C49.782,23.651,51.42,23.924,52.784,24.197C54.969,24.743,56.333,27.2,54.422,31.022L37.497,59.412L43.23,59.412C45.141,56.136,47.052,52.86,48.963,49.311C48.69,47.946,48.417,46.309,48.69,44.944C48.963,42.76,50.056,40.849,51.42,39.211L53.058,41.941C58.245,32.932,62.067,25.288,63.159,22.285C63.705,20.647,64.524,17.371,63.705,14.642L22.757,14.642C14.294,14.642,7.742,21.467,7.742,29.657ZM19.481,75.245C19.481,74.972,22.757,69.24,22.757,69.24C27.943,67.874,30.4,71.15,30.673,71.424C30.673,71.424,27.124,77.702,26.032,78.794C24.941,79.886,23.575,80.159,22.211,79.886C20.026,79.34,18.662,77.156,19.481,75.245ZM19.481,75.245"/>
</g>
        <g id="Black-S" transform="matrix(1.0,0.0,0.0,1.0,2894.932053736266,621.0220732675162)">  <path fill="#000000" stroke-width="1px" stroke-miterlimit="4" stroke-dasharray="none" fill-opacity="1" stroke="none" stroke-linejoin="miter" fill-rule="nonzero" role="img" stroke-opacity="1" stroke-linecap="butt" d="M63.133,17.664C64.629,17.022,65.698,16.809,66.767,17.022C68.477,17.45,69.332,18.733,69.973,19.373C70.614,20.656,72.965,21.939,74.034,22.152C74.889,22.366,76.385,20.015,77.454,17.877C78.523,15.954,79.164,13.388,78.95,12.747C78.737,12.106,75.744,10.823,75.103,10.823C74.675,10.823,73.82,11.251,72.324,11.037C70.828,10.823,69.332,9.113,68.476,7.831C66.98,5.693,64.843,4.411,62.919,3.342C60.782,2.273,58.43,1.632,56.079,1.204C52.659,0.349,49.239,-0.292,45.819,0.135C43.895,0.349,41.544,0.563,39.834,1.204C39.62,1.204,39.193,1.846,39.62,1.846C40.048,1.846,41.544,2.059,41.544,2.059C41.544,2.059,39.621,2.487,39.621,2.915C39.621,3.342,39.834,3.342,40.048,3.342C40.262,3.342,44.965,3.129,46.888,3.342C49.026,3.77,51.377,4.839,52.873,7.404C55.438,12.106,54.37,16.595,53.728,18.091C50.522,25.145,25.086,68.536,23.803,71.528C22.521,74.521,22.093,76.445,25.727,78.368C29.36,80.292,31.284,79.437,32.353,78.155C33.636,76.445,55.652,21.297,63.133,17.664ZM51.163,46.52L56.293,46.52C59.713,46.52,60.354,48.23,60.354,48.871C60.568,50.581,59.713,52.718,56.293,52.718L53.087,52.718L55.652,56.993C57.148,59.558,56.507,60.841,55.652,61.696C54.369,62.978,51.591,62.978,50.094,60.2L47.102,55.069C44.965,59.772,42.827,64.902,40.262,70.887L53.514,70.887C59.927,70.887,65.27,65.543,65.27,59.131L65.27,21.725C65.057,21.297,64.629,21.511,64.416,21.725C63.133,23.221,59.499,28.351,51.163,46.52ZM18.673,73.025L17.604,73.025C9.909,73.025,3.711,66.826,3.711,59.131L3.711,23.221C3.711,15.526,9.909,9.328,17.604,9.328L48.598,9.328C47.957,8.686,45.392,7.617,42.827,7.831C41.758,7.831,39.621,8.259,38.338,7.404C37.056,6.335,37.269,5.694,35.346,5.694L16.322,5.694C7.558,5.694,0.505,12.747,0.505,21.511L0.505,60.413C0.505,69.177,7.558,76.231,15.254,76.017C17.391,76.017,18.032,74.307,18.673,73.025ZM67.622,23.007L67.622,59.131C67.622,66.826,61.423,73.024,53.728,73.024L39.407,73.024C39.407,73.024,38.124,76.444,42.185,76.444L55.01,76.444C63.774,76.444,70.828,69.391,70.828,60.627L70.828,29.206C71.042,26.213,68.477,24.29,67.622,23.007ZM6.062,23.221L6.062,59.131C6.062,65.543,11.406,70.887,17.818,70.887L19.742,70.887C19.742,70.674,22.307,66.185,27.864,56.78C28.506,55.497,29.36,54.215,30.215,52.718L14.612,52.718C12.688,52.718,11.62,51.436,11.406,50.367C10.978,48.657,12.047,46.52,14.398,46.52L22.307,46.52L32.353,28.992C32.353,28.992,30.002,24.717,29.361,23.648C28.506,22.152,28.933,20.656,29.788,19.801C31.071,18.519,33.208,17.877,35.346,21.297L36.2,22.58L37.055,21.297C38.979,18.519,40.262,18.732,41.33,18.946C43.04,19.374,44.109,21.297,42.613,24.29L29.36,46.52L33.849,46.52C35.346,43.955,36.842,41.39,38.338,38.611C38.125,37.542,37.911,36.26,38.125,35.191C38.338,33.481,39.193,31.985,40.262,30.702L41.545,32.839C45.606,25.786,48.598,19.801,49.453,17.449C49.881,16.167,50.522,13.602,49.881,11.464L17.818,11.464C11.192,11.465,6.062,16.808,6.062,23.221ZM15.253,58.917C15.253,58.703,17.818,54.215,17.818,54.215C21.88,53.146,23.803,55.711,24.017,55.925C24.017,55.925,21.238,60.841,20.383,61.696C19.528,62.551,18.46,62.765,17.391,62.551C15.681,62.123,14.612,60.413,15.253,58.917ZM15.253,58.917"/>
</g>
        <g id="Heavy-S" transform="matrix(1.0,0.0,0.0,1.0,2598.222053736266,621.0220732675162)">  <path stroke-opacity="1" stroke-dasharray="none" stroke-linecap="butt" stroke-miterlimit="4" fill="#000000" stroke="none" fill-opacity="1" stroke-linejoin="miter" fill-rule="nonzero" role="img" stroke-width="1px" d="M63.133,17.664C64.629,17.022,65.698,16.809,66.767,17.022C68.477,17.45,69.332,18.733,69.973,19.373C70.614,20.656,72.965,21.939,74.034,22.152C74.889,22.366,76.385,20.015,77.454,17.877C78.523,15.954,79.164,13.388,78.95,12.747C78.737,12.106,75.744,10.823,75.103,10.823C74.675,10.823,73.82,11.251,72.324,11.037C70.828,10.823,69.332,9.113,68.476,7.831C66.98,5.693,64.843,4.411,62.919,3.342C60.782,2.273,58.43,1.632,56.079,1.204C52.659,0.349,49.239,-0.292,45.819,0.135C43.895,0.349,41.544,0.563,39.834,1.204C39.62,1.204,39.193,1.846,39.62,1.846C40.048,1.846,41.544,2.059,41.544,2.059C41.544,2.059,39.621,2.487,39.621,2.915C39.621,3.342,39.834,3.342,40.048,3.342C40.262,3.342,44.965,3.129,46.888,3.342C49.026,3.77,51.377,4.839,52.873,7.404C55.438,12.106,54.37,16.595,53.728,18.091C50.522,25.145,25.086,68.536,23.803,71.528C22.521,74.521,22.093,76.445,25.727,78.368C29.36,80.292,31.284,79.437,32.353,78.155C33.636,76.445,55.652,21.297,63.133,17.664ZM51.163,46.52L56.293,46.52C59.713,46.52,60.354,48.23,60.354,48.871C60.568,50.581,59.713,52.718,56.293,52.718L53.087,52.718L55.652,56.993C57.148,59.558,56.507,60.841,55.652,61.696C54.369,62.978,51.591,62.978,50.094,60.2L47.102,55.069C44.965,59.772,42.827,64.902,40.262,70.887L53.514,70.887C59.927,70.887,65.27,65.543,65.27,59.131L65.27,21.725C65.057,21.297,64.629,21.511,64.416,21.725C63.133,23.221,59.499,28.351,51.163,46.52ZM18.673,73.025L17.604,73.025C9.909,73.025,3.711,66.826,3.711,59.131L3.711,23.221C3.711,15.526,9.909,9.328,17.604,9.328L48.598,9.328C47.957,8.686,45.392,7.617,42.827,7.831C41.758,7.831,39.621,8.259,38.338,7.404C37.056,6.335,37.269,5.694,35.346,5.694L16.322,5.694C7.558,5.694,0.505,12.747,0.505,21.511L0.505,60.413C0.505,69.177,7.558,76.231,15.254,76.017C17.391,76.017,18.032,74.307,18.673,73.025ZM67.622,23.007L67.622,59.131C67.622,66.826,61.423,73.024,53.728,73.024L39.407,73.024C39.407,73.024,38.124,76.444,42.185,76.444L55.01,76.444C63.774,76.444,70.828,69.391,70.828,60.627L70.828,29.206C71.042,26.213,68.477,24.29,67.622,23.007ZM6.062,23.221L6.062,59.131C6.062,65.543,11.406,70.887,17.818,70.887L19.742,70.887C19.742,70.674,22.307,66.185,27.864,56.78C28.506,55.497,29.36,54.215,30.215,52.718L14.612,52.718C12.688,52.718,11.62,51.436,11.406,50.367C10.978,48.657,12.047,46.52,14.398,46.52L22.307,46.52L32.353,28.992C32.353,28.992,30.002,24.717,29.361,23.648C28.506,22.152,28.933,20.656,29.788,19.801C31.071,18.519,33.208,17.877,35.346,21.297L36.2,22.58L37.055,21.297C38.979,18.519,40.262,18.732,41.33,18.946C43.04,19.374,44.109,21.297,42.613,24.29L29.36,46.52L33.849,46.52C35.346,43.955,36.842,41.39,38.338,38.611C38.125,37.542,37.911,36.26,38.125,35.191C38.338,33.481,39.193,31.985,40.262,30.702L41.545,32.839C45.606,25.786,48.598,19.801,49.453,17.449C49.881,16.167,50.522,13.602,49.881,11.464L17.818,11.464C11.192,11.465,6.062,16.808,6.062,23.221ZM15.253,58.917C15.253,58.703,17.818,54.215,17.818,54.215C21.88,53.146,23.803,55.711,24.017,55.925C24.017,55.925,21.238,60.841,20.383,61.696C19.528,62.551,18.46,62.765,17.391,62.551C15.681,62.123,14.612,60.413,15.253,58.917ZM15.253,58.917"/>
</g>
        <g id="Bold-S" transform="matrix(1.0,0.0,0.0,1.0,2301.512053736266,621.0220732675162)">  <path stroke-miterlimit="4" fill="#000000" stroke-dasharray="none" role="img" stroke-opacity="1" stroke-linejoin="miter" stroke-linecap="butt" fill-rule="nonzero" stroke="none" stroke-width="1px" fill-opacity="1" d="M63.133,17.664C64.629,17.022,65.698,16.809,66.767,17.022C68.477,17.45,69.332,18.733,69.973,19.373C70.614,20.656,72.965,21.939,74.034,22.152C74.889,22.366,76.385,20.015,77.454,17.877C78.523,15.954,79.164,13.388,78.95,12.747C78.737,12.106,75.744,10.823,75.103,10.823C74.675,10.823,73.82,11.251,72.324,11.037C70.828,10.823,69.332,9.113,68.476,7.831C66.98,5.693,64.843,4.411,62.919,3.342C60.782,2.273,58.43,1.632,56.079,1.204C52.659,0.349,49.239,-0.292,45.819,0.135C43.895,0.349,41.544,0.563,39.834,1.204C39.62,1.204,39.193,1.846,39.62,1.846C40.048,1.846,41.544,2.059,41.544,2.059C41.544,2.059,39.621,2.487,39.621,2.915C39.621,3.342,39.834,3.342,40.048,3.342C40.262,3.342,44.965,3.129,46.888,3.342C49.026,3.77,51.377,4.839,52.873,7.404C55.438,12.106,54.37,16.595,53.728,18.091C50.522,25.145,25.086,68.536,23.803,71.528C22.521,74.521,22.093,76.445,25.727,78.368C29.36,80.292,31.284,79.437,32.353,78.155C33.636,76.445,55.652,21.297,63.133,17.664ZM51.163,46.52L56.293,46.52C59.713,46.52,60.354,48.23,60.354,48.871C60.568,50.581,59.713,52.718,56.293,52.718L53.087,52.718L55.652,56.993C57.148,59.558,56.507,60.841,55.652,61.696C54.369,62.978,51.591,62.978,50.094,60.2L47.102,55.069C44.965,59.772,42.827,64.902,40.262,70.887L53.514,70.887C59.927,70.887,65.27,65.543,65.27,59.131L65.27,21.725C65.057,21.297,64.629,21.511,64.416,21.725C63.133,23.221,59.499,28.351,51.163,46.52ZM18.673,73.025L17.604,73.025C9.909,73.025,3.711,66.826,3.711,59.131L3.711,23.221C3.711,15.526,9.909,9.328,17.604,9.328L48.598,9.328C47.957,8.686,45.392,7.617,42.827,7.831C41.758,7.831,39.621,8.259,38.338,7.404C37.056,6.335,37.269,5.694,35.346,5.694L16.322,5.694C7.558,5.694,0.505,12.747,0.505,21.511L0.505,60.413C0.505,69.177,7.558,76.231,15.254,76.017C17.391,76.017,18.032,74.307,18.673,73.025ZM67.622,23.007L67.622,59.131C67.622,66.826,61.423,73.024,53.728,73.024L39.407,73.024C39.407,73.024,38.124,76.444,42.185,76.444L55.01,76.444C63.774,76.444,70.828,69.391,70.828,60.627L70.828,29.206C71.042,26.213,68.477,24.29,67.622,23.007ZM6.062,23.221L6.062,59.131C6.062,65.543,11.406,70.887,17.818,70.887L19.742,70.887C19.742,70.674,22.307,66.185,27.864,56.78C28.506,55.497,29.36,54.215,30.215,52.718L14.612,52.718C12.688,52.718,11.62,51.436,11.406,50.367C10.978,48.657,12.047,46.52,14.398,46.52L22.307,46.52L32.353,28.992C32.353,28.992,30.002,24.717,29.361,23.648C28.506,22.152,28.933,20.656,29.788,19.801C31.071,18.519,33.208,17.877,35.346,21.297L36.2,22.58L37.055,21.297C38.979,18.519,40.262,18.732,41.33,18.946C43.04,19.374,44.109,21.297,42.613,24.29L29.36,46.52L33.849,46.52C35.346,43.955,36.842,41.39,38.338,38.611C38.125,37.542,37.911,36.26,38.125,35.191C38.338,33.481,39.193,31.985,40.262,30.702L41.545,32.839C45.606,25.786,48.598,19.801,49.453,17.449C49.881,16.167,50.522,13.602,49.881,11.464L17.818,11.464C11.192,11.465,6.062,16.808,6.062,23.221ZM15.253,58.917C15.253,58.703,17.818,54.215,17.818,54.215C21.88,53.146,23.803,55.711,24.017,55.925C24.017,55.925,21.238,60.841,20.383,61.696C19.528,62.551,18.46,62.765,17.391,62.551C15.681,62.123,14.612,60.413,15.253,58.917ZM15.253,58.917"/>
</g>
        <g id="Semibold-S" transform="matrix(1.0,0.0,0.0,1.0,2004.802053736266,621.0220732675162)">  <path stroke-linecap="butt" stroke-width="1px" fill-rule="nonzero" stroke-opacity="1" stroke-dasharray="none" fill="#000000" role="img" fill-opacity="1" stroke-miterlimit="4" stroke-linejoin="miter" stroke="none" d="M63.133,17.664C64.629,17.022,65.698,16.809,66.767,17.022C68.477,17.45,69.332,18.733,69.973,19.373C70.614,20.656,72.965,21.939,74.034,22.152C74.889,22.366,76.385,20.015,77.454,17.877C78.523,15.954,79.164,13.388,78.95,12.747C78.737,12.106,75.744,10.823,75.103,10.823C74.675,10.823,73.82,11.251,72.324,11.037C70.828,10.823,69.332,9.113,68.476,7.831C66.98,5.693,64.843,4.411,62.919,3.342C60.782,2.273,58.43,1.632,56.079,1.204C52.659,0.349,49.239,-0.292,45.819,0.135C43.895,0.349,41.544,0.563,39.834,1.204C39.62,1.204,39.193,1.846,39.62,1.846C40.048,1.846,41.544,2.059,41.544,2.059C41.544,2.059,39.621,2.487,39.621,2.915C39.621,3.342,39.834,3.342,40.048,3.342C40.262,3.342,44.965,3.129,46.888,3.342C49.026,3.77,51.377,4.839,52.873,7.404C55.438,12.106,54.37,16.595,53.728,18.091C50.522,25.145,25.086,68.536,23.803,71.528C22.521,74.521,22.093,76.445,25.727,78.368C29.36,80.292,31.284,79.437,32.353,78.155C33.636,76.445,55.652,21.297,63.133,17.664ZM51.163,46.52L56.293,46.52C59.713,46.52,60.354,48.23,60.354,48.871C60.568,50.581,59.713,52.718,56.293,52.718L53.087,52.718L55.652,56.993C57.148,59.558,56.507,60.841,55.652,61.696C54.369,62.978,51.591,62.978,50.094,60.2L47.102,55.069C44.965,59.772,42.827,64.902,40.262,70.887L53.514,70.887C59.927,70.887,65.27,65.543,65.27,59.131L65.27,21.725C65.057,21.297,64.629,21.511,64.416,21.725C63.133,23.221,59.499,28.351,51.163,46.52ZM18.673,73.025L17.604,73.025C9.909,73.025,3.711,66.826,3.711,59.131L3.711,23.221C3.711,15.526,9.909,9.328,17.604,9.328L48.598,9.328C47.957,8.686,45.392,7.617,42.827,7.831C41.758,7.831,39.621,8.259,38.338,7.404C37.056,6.335,37.269,5.694,35.346,5.694L16.322,5.694C7.558,5.694,0.505,12.747,0.505,21.511L0.505,60.413C0.505,69.177,7.558,76.231,15.254,76.017C17.391,76.017,18.032,74.307,18.673,73.025ZM67.622,23.007L67.622,59.131C67.622,66.826,61.423,73.024,53.728,73.024L39.407,73.024C39.407,73.024,38.124,76.444,42.185,76.444L55.01,76.444C63.774,76.444,70.828,69.391,70.828,60.627L70.828,29.206C71.042,26.213,68.477,24.29,67.622,23.007ZM6.062,23.221L6.062,59.131C6.062,65.543,11.406,70.887,17.818,70.887L19.742,70.887C19.742,70.674,22.307,66.185,27.864,56.78C28.506,55.497,29.36,54.215,30.215,52.718L14.612,52.718C12.688,52.718,11.62,51.436,11.406,50.367C10.978,48.657,12.047,46.52,14.398,46.52L22.307,46.52L32.353,28.992C32.353,28.992,30.002,24.717,29.361,23.648C28.506,22.152,28.933,20.656,29.788,19.801C31.071,18.519,33.208,17.877,35.346,21.297L36.2,22.58L37.055,21.297C38.979,18.519,40.262,18.732,41.33,18.946C43.04,19.374,44.109,21.297,42.613,24.29L29.36,46.52L33.849,46.52C35.346,43.955,36.842,41.39,38.338,38.611C38.125,37.542,37.911,36.26,38.125,35.191C38.338,33.481,39.193,31.985,40.262,30.702L41.545,32.839C45.606,25.786,48.598,19.801,49.453,17.449C49.881,16.167,50.522,13.602,49.881,11.464L17.818,11.464C11.192,11.465,6.062,16.808,6.062,23.221ZM15.253,58.917C15.253,58.703,17.818,54.215,17.818,54.215C21.88,53.146,23.803,55.711,24.017,55.925C24.017,55.925,21.238,60.841,20.383,61.696C19.528,62.551,18.46,62.765,17.391,62.551C15.681,62.123,14.612,60.413,15.253,58.917ZM15.253,58.917"/>
</g>
        <g id="Medium-S" transform="matrix(1.0,0.0,0.0,1.0,1708.092053736266,621.0220732675162)">  <path fill="#000000" role="img" fill-rule="nonzero" stroke-dasharray="none" stroke-linejoin="miter" stroke-width="1px" fill-opacity="1" stroke="none" stroke-linecap="butt" stroke-miterlimit="4" stroke-opacity="1" d="M63.133,17.664C64.629,17.022,65.698,16.809,66.767,17.022C68.477,17.45,69.332,18.733,69.973,19.373C70.614,20.656,72.965,21.939,74.034,22.152C74.889,22.366,76.385,20.015,77.454,17.877C78.523,15.954,79.164,13.388,78.95,12.747C78.737,12.106,75.744,10.823,75.103,10.823C74.675,10.823,73.82,11.251,72.324,11.037C70.828,10.823,69.332,9.113,68.476,7.831C66.98,5.693,64.843,4.411,62.919,3.342C60.782,2.273,58.43,1.632,56.079,1.204C52.659,0.349,49.239,-0.292,45.819,0.135C43.895,0.349,41.544,0.563,39.834,1.204C39.62,1.204,39.193,1.846,39.62,1.846C40.048,1.846,41.544,2.059,41.544,2.059C41.544,2.059,39.621,2.487,39.621,2.915C39.621,3.342,39.834,3.342,40.048,3.342C40.262,3.342,44.965,3.129,46.888,3.342C49.026,3.77,51.377,4.839,52.873,7.404C55.438,12.106,54.37,16.595,53.728,18.091C50.522,25.145,25.086,68.536,23.803,71.528C22.521,74.521,22.093,76.445,25.727,78.368C29.36,80.292,31.284,79.437,32.353,78.155C33.636,76.445,55.652,21.297,63.133,17.664ZM51.163,46.52L56.293,46.52C59.713,46.52,60.354,48.23,60.354,48.871C60.568,50.581,59.713,52.718,56.293,52.718L53.087,52.718L55.652,56.993C57.148,59.558,56.507,60.841,55.652,61.696C54.369,62.978,51.591,62.978,50.094,60.2L47.102,55.069C44.965,59.772,42.827,64.902,40.262,70.887L53.514,70.887C59.927,70.887,65.27,65.543,65.27,59.131L65.27,21.725C65.057,21.297,64.629,21.511,64.416,21.725C63.133,23.221,59.499,28.351,51.163,46.52ZM18.673,73.025L17.604,73.025C9.909,73.025,3.711,66.826,3.711,59.131L3.711,23.221C3.711,15.526,9.909,9.328,17.604,9.328L48.598,9.328C47.957,8.686,45.392,7.617,42.827,7.831C41.758,7.831,39.621,8.259,38.338,7.404C37.056,6.335,37.269,5.694,35.346,5.694L16.322,5.694C7.558,5.694,0.505,12.747,0.505,21.511L0.505,60.413C0.505,69.177,7.558,76.231,15.254,76.017C17.391,76.017,18.032,74.307,18.673,73.025ZM67.622,23.007L67.622,59.131C67.622,66.826,61.423,73.024,53.728,73.024L39.407,73.024C39.407,73.024,38.124,76.444,42.185,76.444L55.01,76.444C63.774,76.444,70.828,69.391,70.828,60.627L70.828,29.206C71.042,26.213,68.477,24.29,67.622,23.007ZM6.062,23.221L6.062,59.131C6.062,65.543,11.406,70.887,17.818,70.887L19.742,70.887C19.742,70.674,22.307,66.185,27.864,56.78C28.506,55.497,29.36,54.215,30.215,52.718L14.612,52.718C12.688,52.718,11.62,51.436,11.406,50.367C10.978,48.657,12.047,46.52,14.398,46.52L22.307,46.52L32.353,28.992C32.353,28.992,30.002,24.717,29.361,23.648C28.506,22.152,28.933,20.656,29.788,19.801C31.071,18.519,33.208,17.877,35.346,21.297L36.2,22.58L37.055,21.297C38.979,18.519,40.262,18.732,41.33,18.946C43.04,19.374,44.109,21.297,42.613,24.29L29.36,46.52L33.849,46.52C35.346,43.955,36.842,41.39,38.338,38.611C38.125,37.542,37.911,36.26,38.125,35.191C38.338,33.481,39.193,31.985,40.262,30.702L41.545,32.839C45.606,25.786,48.598,19.801,49.453,17.449C49.881,16.167,50.522,13.602,49.881,11.464L17.818,11.464C11.192,11.465,6.062,16.808,6.062,23.221ZM15.253,58.917C15.253,58.703,17.818,54.215,17.818,54.215C21.88,53.146,23.803,55.711,24.017,55.925C24.017,55.925,21.238,60.841,20.383,61.696C19.528,62.551,18.46,62.765,17.391,62.551C15.681,62.123,14.612,60.413,15.253,58.917ZM15.253,58.917"/>
</g>
        <g id="Regular-S" transform="matrix(1.0,0.0,0.0,1.0,1411.382053736266,621.0220732675162)">  <path role="img" stroke-miterlimit="4" stroke-linecap="butt" fill="#000000" stroke-opacity="1" fill-opacity="1" stroke="none" stroke-dasharray="none" stroke-linejoin="miter" stroke-width="1px" fill-rule="nonzero" d="M63.133,17.664C64.629,17.022,65.698,16.809,66.767,17.022C68.477,17.45,69.332,18.733,69.973,19.373C70.614,20.656,72.965,21.939,74.034,22.152C74.889,22.366,76.385,20.015,77.454,17.877C78.523,15.954,79.164,13.388,78.95,12.747C78.737,12.106,75.744,10.823,75.103,10.823C74.675,10.823,73.82,11.251,72.324,11.037C70.828,10.823,69.332,9.113,68.476,7.831C66.98,5.693,64.843,4.411,62.919,3.342C60.782,2.273,58.43,1.632,56.079,1.204C52.659,0.349,49.239,-0.292,45.819,0.135C43.895,0.349,41.544,0.563,39.834,1.204C39.62,1.204,39.193,1.846,39.62,1.846C40.048,1.846,41.544,2.059,41.544,2.059C41.544,2.059,39.621,2.487,39.621,2.915C39.621,3.342,39.834,3.342,40.048,3.342C40.262,3.342,44.965,3.129,46.888,3.342C49.026,3.77,51.377,4.839,52.873,7.404C55.438,12.106,54.37,16.595,53.728,18.091C50.522,25.145,25.086,68.536,23.803,71.528C22.521,74.521,22.093,76.445,25.727,78.368C29.36,80.292,31.284,79.437,32.353,78.155C33.636,76.445,55.652,21.297,63.133,17.664ZM51.163,46.52L56.293,46.52C59.713,46.52,60.354,48.23,60.354,48.871C60.568,50.581,59.713,52.718,56.293,52.718L53.087,52.718L55.652,56.993C57.148,59.558,56.507,60.841,55.652,61.696C54.369,62.978,51.591,62.978,50.094,60.2L47.102,55.069C44.965,59.772,42.827,64.902,40.262,70.887L53.514,70.887C59.927,70.887,65.27,65.543,65.27,59.131L65.27,21.725C65.057,21.297,64.629,21.511,64.416,21.725C63.133,23.221,59.499,28.351,51.163,46.52ZM18.673,73.025L17.604,73.025C9.909,73.025,3.711,66.826,3.711,59.131L3.711,23.221C3.711,15.526,9.909,9.328,17.604,9.328L48.598,9.328C47.957,8.686,45.392,7.617,42.827,7.831C41.758,7.831,39.621,8.259,38.338,7.404C37.056,6.335,37.269,5.694,35.346,5.694L16.322,5.694C7.558,5.694,0.505,12.747,0.505,21.511L0.505,60.413C0.505,69.177,7.558,76.231,15.254,76.017C17.391,76.017,18.032,74.307,18.673,73.025ZM67.622,23.007L67.622,59.131C67.622,66.826,61.423,73.024,53.728,73.024L39.407,73.024C39.407,73.024,38.124,76.444,42.185,76.444L55.01,76.444C63.774,76.444,70.828,69.391,70.828,60.627L70.828,29.206C71.042,26.213,68.477,24.29,67.622,23.007ZM6.062,23.221L6.062,59.131C6.062,65.543,11.406,70.887,17.818,70.887L19.742,70.887C19.742,70.674,22.307,66.185,27.864,56.78C28.506,55.497,29.36,54.215,30.215,52.718L14.612,52.718C12.688,52.718,11.62,51.436,11.406,50.367C10.978,48.657,12.047,46.52,14.398,46.52L22.307,46.52L32.353,28.992C32.353,28.992,30.002,24.717,29.361,23.648C28.506,22.152,28.933,20.656,29.788,19.801C31.071,18.519,33.208,17.877,35.346,21.297L36.2,22.58L37.055,21.297C38.979,18.519,40.262,18.732,41.33,18.946C43.04,19.374,44.109,21.297,42.613,24.29L29.36,46.52L33.849,46.52C35.346,43.955,36.842,41.39,38.338,38.611C38.125,37.542,37.911,36.26,38.125,35.191C38.338,33.481,39.193,31.985,40.262,30.702L41.545,32.839C45.606,25.786,48.598,19.801,49.453,17.449C49.881,16.167,50.522,13.602,49.881,11.464L17.818,11.464C11.192,11.465,6.062,16.808,6.062,23.221ZM15.253,58.917C15.253,58.703,17.818,54.215,17.818,54.215C21.88,53.146,23.803,55.711,24.017,55.925C24.017,55.925,21.238,60.841,20.383,61.696C19.528,62.551,18.46,62.765,17.391,62.551C15.681,62.123,14.612,60.413,15.253,58.917ZM15.253,58.917"/>
</g>
        <g id="Light-S" transform="matrix(1.0,0.0,0.0,1.0,1114.6720537362662,621.0220732675162)">  <path fill="#000000" stroke="none" stroke-linecap="butt" fill-opacity="1" stroke-opacity="1" role="img" stroke-linejoin="miter" stroke-dasharray="none" stroke-miterlimit="4" stroke-width="1px" fill-rule="nonzero" d="M63.133,17.664C64.629,17.022,65.698,16.809,66.767,17.022C68.477,17.45,69.332,18.733,69.973,19.373C70.614,20.656,72.965,21.939,74.034,22.152C74.889,22.366,76.385,20.015,77.454,17.877C78.523,15.954,79.164,13.388,78.95,12.747C78.737,12.106,75.744,10.823,75.103,10.823C74.675,10.823,73.82,11.251,72.324,11.037C70.828,10.823,69.332,9.113,68.476,7.831C66.98,5.693,64.843,4.411,62.919,3.342C60.782,2.273,58.43,1.632,56.079,1.204C52.659,0.349,49.239,-0.292,45.819,0.135C43.895,0.349,41.544,0.563,39.834,1.204C39.62,1.204,39.193,1.846,39.62,1.846C40.048,1.846,41.544,2.059,41.544,2.059C41.544,2.059,39.621,2.487,39.621,2.915C39.621,3.342,39.834,3.342,40.048,3.342C40.262,3.342,44.965,3.129,46.888,3.342C49.026,3.77,51.377,4.839,52.873,7.404C55.438,12.106,54.37,16.595,53.728,18.091C50.522,25.145,25.086,68.536,23.803,71.528C22.521,74.521,22.093,76.445,25.727,78.368C29.36,80.292,31.284,79.437,32.353,78.155C33.636,76.445,55.652,21.297,63.133,17.664ZM51.163,46.52L56.293,46.52C59.713,46.52,60.354,48.23,60.354,48.871C60.568,50.581,59.713,52.718,56.293,52.718L53.087,52.718L55.652,56.993C57.148,59.558,56.507,60.841,55.652,61.696C54.369,62.978,51.591,62.978,50.094,60.2L47.102,55.069C44.965,59.772,42.827,64.902,40.262,70.887L53.514,70.887C59.927,70.887,65.27,65.543,65.27,59.131L65.27,21.725C65.057,21.297,64.629,21.511,64.416,21.725C63.133,23.221,59.499,28.351,51.163,46.52ZM18.673,73.025L17.604,73.025C9.909,73.025,3.711,66.826,3.711,59.131L3.711,23.221C3.711,15.526,9.909,9.328,17.604,9.328L48.598,9.328C47.957,8.686,45.392,7.617,42.827,7.831C41.758,7.831,39.621,8.259,38.338,7.404C37.056,6.335,37.269,5.694,35.346,5.694L16.322,5.694C7.558,5.694,0.505,12.747,0.505,21.511L0.505,60.413C0.505,69.177,7.558,76.231,15.254,76.017C17.391,76.017,18.032,74.307,18.673,73.025ZM67.622,23.007L67.622,59.131C67.622,66.826,61.423,73.024,53.728,73.024L39.407,73.024C39.407,73.024,38.124,76.444,42.185,76.444L55.01,76.444C63.774,76.444,70.828,69.391,70.828,60.627L70.828,29.206C71.042,26.213,68.477,24.29,67.622,23.007ZM6.062,23.221L6.062,59.131C6.062,65.543,11.406,70.887,17.818,70.887L19.742,70.887C19.742,70.674,22.307,66.185,27.864,56.78C28.506,55.497,29.36,54.215,30.215,52.718L14.612,52.718C12.688,52.718,11.62,51.436,11.406,50.367C10.978,48.657,12.047,46.52,14.398,46.52L22.307,46.52L32.353,28.992C32.353,28.992,30.002,24.717,29.361,23.648C28.506,22.152,28.933,20.656,29.788,19.801C31.071,18.519,33.208,17.877,35.346,21.297L36.2,22.58L37.055,21.297C38.979,18.519,40.262,18.732,41.33,18.946C43.04,19.374,44.109,21.297,42.613,24.29L29.36,46.52L33.849,46.52C35.346,43.955,36.842,41.39,38.338,38.611C38.125,37.542,37.911,36.26,38.125,35.191C38.338,33.481,39.193,31.985,40.262,30.702L41.545,32.839C45.606,25.786,48.598,19.801,49.453,17.449C49.881,16.167,50.522,13.602,49.881,11.464L17.818,11.464C11.192,11.465,6.062,16.808,6.062,23.221ZM15.253,58.917C15.253,58.703,17.818,54.215,17.818,54.215C21.88,53.146,23.803,55.711,24.017,55.925C24.017,55.925,21.238,60.841,20.383,61.696C19.528,62.551,18.46,62.765,17.391,62.551C15.681,62.123,14.612,60.413,15.253,58.917ZM15.253,58.917"/>
</g>
        <g id="Thin-S" transform="matrix(1.0,0.0,0.0,1.0,817.9620537362663,621.0220732675162)">  <path stroke-opacity="1" stroke-linecap="butt" stroke-miterlimit="4" stroke-width="1px" role="img" fill-opacity="1" stroke-dasharray="none" fill="#000000" stroke-linejoin="miter" fill-rule="nonzero" stroke="none" d="M63.133,17.664C64.629,17.022,65.698,16.809,66.767,17.022C68.477,17.45,69.332,18.733,69.973,19.373C70.614,20.656,72.965,21.939,74.034,22.152C74.889,22.366,76.385,20.015,77.454,17.877C78.523,15.954,79.164,13.388,78.95,12.747C78.737,12.106,75.744,10.823,75.103,10.823C74.675,10.823,73.82,11.251,72.324,11.037C70.828,10.823,69.332,9.113,68.476,7.831C66.98,5.693,64.843,4.411,62.919,3.342C60.782,2.273,58.43,1.632,56.079,1.204C52.659,0.349,49.239,-0.292,45.819,0.135C43.895,0.349,41.544,0.563,39.834,1.204C39.62,1.204,39.193,1.846,39.62,1.846C40.048,1.846,41.544,2.059,41.544,2.059C41.544,2.059,39.621,2.487,39.621,2.915C39.621,3.342,39.834,3.342,40.048,3.342C40.262,3.342,44.965,3.129,46.888,3.342C49.026,3.77,51.377,4.839,52.873,7.404C55.438,12.106,54.37,16.595,53.728,18.091C50.522,25.145,25.086,68.536,23.803,71.528C22.521,74.521,22.093,76.445,25.727,78.368C29.36,80.292,31.284,79.437,32.353,78.155C33.636,76.445,55.652,21.297,63.133,17.664ZM51.163,46.52L56.293,46.52C59.713,46.52,60.354,48.23,60.354,48.871C60.568,50.581,59.713,52.718,56.293,52.718L53.087,52.718L55.652,56.993C57.148,59.558,56.507,60.841,55.652,61.696C54.369,62.978,51.591,62.978,50.094,60.2L47.102,55.069C44.965,59.772,42.827,64.902,40.262,70.887L53.514,70.887C59.927,70.887,65.27,65.543,65.27,59.131L65.27,21.725C65.057,21.297,64.629,21.511,64.416,21.725C63.133,23.221,59.499,28.351,51.163,46.52ZM18.673,73.025L17.604,73.025C9.909,73.025,3.711,66.826,3.711,59.131L3.711,23.221C3.711,15.526,9.909,9.328,17.604,9.328L48.598,9.328C47.957,8.686,45.392,7.617,42.827,7.831C41.758,7.831,39.621,8.259,38.338,7.404C37.056,6.335,37.269,5.694,35.346,5.694L16.322,5.694C7.558,5.694,0.505,12.747,0.505,21.511L0.505,60.413C0.505,69.177,7.558,76.231,15.254,76.017C17.391,76.017,18.032,74.307,18.673,73.025ZM67.622,23.007L67.622,59.131C67.622,66.826,61.423,73.024,53.728,73.024L39.407,73.024C39.407,73.024,38.124,76.444,42.185,76.444L55.01,76.444C63.774,76.444,70.828,69.391,70.828,60.627L70.828,29.206C71.042,26.213,68.477,24.29,67.622,23.007ZM6.062,23.221L6.062,59.131C6.062,65.543,11.406,70.887,17.818,70.887L19.742,70.887C19.742,70.674,22.307,66.185,27.864,56.78C28.506,55.497,29.36,54.215,30.215,52.718L14.612,52.718C12.688,52.718,11.62,51.436,11.406,50.367C10.978,48.657,12.047,46.52,14.398,46.52L22.307,46.52L32.353,28.992C32.353,28.992,30.002,24.717,29.361,23.648C28.506,22.152,28.933,20.656,29.788,19.801C31.071,18.519,33.208,17.877,35.346,21.297L36.2,22.58L37.055,21.297C38.979,18.519,40.262,18.732,41.33,18.946C43.04,19.374,44.109,21.297,42.613,24.29L29.36,46.52L33.849,46.52C35.346,43.955,36.842,41.39,38.338,38.611C38.125,37.542,37.911,36.26,38.125,35.191C38.338,33.481,39.193,31.985,40.262,30.702L41.545,32.839C45.606,25.786,48.598,19.801,49.453,17.449C49.881,16.167,50.522,13.602,49.881,11.464L17.818,11.464C11.192,11.465,6.062,16.808,6.062,23.221ZM15.253,58.917C15.253,58.703,17.818,54.215,17.818,54.215C21.88,53.146,23.803,55.711,24.017,55.925C24.017,55.925,21.238,60.841,20.383,61.696C19.528,62.551,18.46,62.765,17.391,62.551C15.681,62.123,14.612,60.413,15.253,58.917ZM15.253,58.917"/>
</g>
        <g id="Ultralight-S" transform="matrix(1.0,0.0,0.0,1.0,521.2520537362662,621.0220732675162)">  <path stroke-opacity="1" stroke-linejoin="miter" stroke-linecap="butt" stroke-dasharray="none" role="img" fill-opacity="1" stroke-width="1px" fill="#000000" fill-rule="nonzero" stroke="none" stroke-miterlimit="4" d="M63.133,17.664C64.629,17.022,65.698,16.809,66.767,17.022C68.477,17.45,69.332,18.733,69.973,19.373C70.614,20.656,72.965,21.939,74.034,22.152C74.889,22.366,76.385,20.015,77.454,17.877C78.523,15.954,79.164,13.388,78.95,12.747C78.737,12.106,75.744,10.823,75.103,10.823C74.675,10.823,73.82,11.251,72.324,11.037C70.828,10.823,69.332,9.113,68.476,7.831C66.98,5.693,64.843,4.411,62.919,3.342C60.782,2.273,58.43,1.632,56.079,1.204C52.659,0.349,49.239,-0.292,45.819,0.135C43.895,0.349,41.544,0.563,39.834,1.204C39.62,1.204,39.193,1.846,39.62,1.846C40.048,1.846,41.544,2.059,41.544,2.059C41.544,2.059,39.621,2.487,39.621,2.915C39.621,3.342,39.834,3.342,40.048,3.342C40.262,3.342,44.965,3.129,46.888,3.342C49.026,3.77,51.377,4.839,52.873,7.404C55.438,12.106,54.37,16.595,53.728,18.091C50.522,25.145,25.086,68.536,23.803,71.528C22.521,74.521,22.093,76.445,25.727,78.368C29.36,80.292,31.284,79.437,32.353,78.155C33.636,76.445,55.652,21.297,63.133,17.664ZM51.163,46.52L56.293,46.52C59.713,46.52,60.354,48.23,60.354,48.871C60.568,50.581,59.713,52.718,56.293,52.718L53.087,52.718L55.652,56.993C57.148,59.558,56.507,60.841,55.652,61.696C54.369,62.978,51.591,62.978,50.094,60.2L47.102,55.069C44.965,59.772,42.827,64.902,40.262,70.887L53.514,70.887C59.927,70.887,65.27,65.543,65.27,59.131L65.27,21.725C65.057,21.297,64.629,21.511,64.416,21.725C63.133,23.221,59.499,28.351,51.163,46.52ZM18.673,73.025L17.604,73.025C9.909,73.025,3.711,66.826,3.711,59.131L3.711,23.221C3.711,15.526,9.909,9.328,17.604,9.328L48.598,9.328C47.957,8.686,45.392,7.617,42.827,7.831C41.758,7.831,39.621,8.259,38.338,7.404C37.056,6.335,37.269,5.694,35.346,5.694L16.322,5.694C7.558,5.694,0.505,12.747,0.505,21.511L0.505,60.413C0.505,69.177,7.558,76.231,15.254,76.017C17.391,76.017,18.032,74.307,18.673,73.025ZM67.622,23.007L67.622,59.131C67.622,66.826,61.423,73.024,53.728,73.024L39.407,73.024C39.407,73.024,38.124,76.444,42.185,76.444L55.01,76.444C63.774,76.444,70.828,69.391,70.828,60.627L70.828,29.206C71.042,26.213,68.477,24.29,67.622,23.007ZM6.062,23.221L6.062,59.131C6.062,65.543,11.406,70.887,17.818,70.887L19.742,70.887C19.742,70.674,22.307,66.185,27.864,56.78C28.506,55.497,29.36,54.215,30.215,52.718L14.612,52.718C12.688,52.718,11.62,51.436,11.406,50.367C10.978,48.657,12.047,46.52,14.398,46.52L22.307,46.52L32.353,28.992C32.353,28.992,30.002,24.717,29.361,23.648C28.506,22.152,28.933,20.656,29.788,19.801C31.071,18.519,33.208,17.877,35.346,21.297L36.2,22.58L37.055,21.297C38.979,18.519,40.262,18.732,41.33,18.946C43.04,19.374,44.109,21.297,42.613,24.29L29.36,46.52L33.849,46.52C35.346,43.955,36.842,41.39,38.338,38.611C38.125,37.542,37.911,36.26,38.125,35.191C38.338,33.481,39.193,31.985,40.262,30.702L41.545,32.839C45.606,25.786,48.598,19.801,49.453,17.449C49.881,16.167,50.522,13.602,49.881,11.464L17.818,11.464C11.192,11.465,6.062,16.808,6.062,23.221ZM15.253,58.917C15.253,58.703,17.818,54.215,17.818,54.215C21.88,53.146,23.803,55.711,24.017,55.925C24.017,55.925,21.238,60.841,20.383,61.696C19.528,62.551,18.46,62.765,17.391,62.551C15.681,62.123,14.612,60.413,15.253,58.917ZM15.253,58.917"/>
</g>
    </g>
    </g>
</svg>
