<?xml version="1.0" encoding="UTF-8"?>
<!--Generator: CustomSymbols by @serious_bret-->
<!DOCTYPE svg
        PUBLIC "-//W3C//DTD SVG 1.1//EN"
        "http://www.w3.org/Graphics/SVG/1.1/DTD/svg11.dtd">
<svg version="1.1" xmlns="http://www.w3.org/2000/svg" xmlns:xlink="http://www.w3.org/1999/xlink" width="2900" height="1500">
    <g transform="translate(-200 -200)">
    <!--template writer version: "8"-->
    <g id="Notes">
        <rect height="2200" id="artboard" style="fill:white;opacity:1" width="3300" x="0" y="0"/>
        <line id="" style="fill:none;stroke:black;opacity:1;stroke-width:0.5;" x1="263" x2="3036" y1="292" y2="292"/>
        <text id="reftext1" style="stroke:none;fill:black;font-family:-apple-system,&quot;SF Pro Display&quot;,&quot;SF Pro Text&quot;,Helvetica,sans-serif;font-weight:bold;" transform="matrix(1 0 0 1 263 322)">Weight/Scale Variations</text>
        <text id="reftext2" style="stroke:none;fill:black;font-family:-apple-system,&quot;SF Pro Display&quot;,&quot;SF Pro Text&quot;,Helvetica,sans-serif;text-anchor:middle;" transform="matrix(1 0 0 1 559.711 322)">Ultralight</text>
        <text style="stroke:none;fill:black;font-family:-apple-system,&quot;SF Pro Display&quot;,&quot;SF Pro Text&quot;,Helvetica,sans-serif;text-anchor:middle;" transform="matrix(1 0 0 1 856.422 322)">Thin</text>
        <text style="stroke:none;fill:black;font-family:-apple-system,&quot;SF Pro Display&quot;,&quot;SF Pro Text&quot;,Helvetica,sans-serif;text-anchor:middle;" transform="matrix(1 0 0 1 1153.13 322)">Light</text>
        <text style="stroke:none;fill:black;font-family:-apple-system,&quot;SF Pro Display&quot;,&quot;SF Pro Text&quot;,Helvetica,sans-serif;text-anchor:middle;" transform="matrix(1 0 0 1 1449.84 322)">Regular</text>
        <text style="stroke:none;fill:black;font-family:-apple-system,&quot;SF Pro Display&quot;,&quot;SF Pro Text&quot;,Helvetica,sans-serif;text-anchor:middle;" transform="matrix(1 0 0 1 1746.56 322)">Medium</text>
        <text style="stroke:none;fill:black;font-family:-apple-system,&quot;SF Pro Display&quot;,&quot;SF Pro Text&quot;,Helvetica,sans-serif;text-anchor:middle;" transform="matrix(1 0 0 1 2043.27 322)">Semibold</text>
        <text style="stroke:none;fill:black;font-family:-apple-system,&quot;SF Pro Display&quot;,&quot;SF Pro Text&quot;,Helvetica,sans-serif;text-anchor:middle;" transform="matrix(1 0 0 1 2339.98 322)">Bold</text>
        <text style="stroke:none;fill:black;font-family:-apple-system,&quot;SF Pro Display&quot;,&quot;SF Pro Text&quot;,Helvetica,sans-serif;text-anchor:middle;" transform="matrix(1 0 0 1 2636.69 322)">Heavy</text>
        <text style="stroke:none;fill:black;font-family:-apple-system,&quot;SF Pro Display&quot;,&quot;SF Pro Text&quot;,Helvetica,sans-serif;text-anchor:middle;" transform="matrix(1 0 0 1 2933.4 322)">Black</text>

        <text style="stroke:none;fill:black;font-family:-apple-system,&quot;SF Pro Display&quot;,&quot;SF Pro Text&quot;,Helvetica,sans-serif;" transform="matrix(1 0 0 1 263 726)">Small</text>
        <text style="stroke:none;fill:black;font-family:-apple-system,&quot;SF Pro Display&quot;,&quot;SF Pro Text&quot;,Helvetica,sans-serif;" transform="matrix(1 0 0 1 263 1156)">Medium</text>
        <text style="stroke:none;fill:black;font-family:-apple-system,&quot;SF Pro Display&quot;,&quot;SF Pro Text&quot;,Helvetica,sans-serif;" transform="matrix(1 0 0 1 263 1586)">Large</text>
    </g>
    <g id="Guides">
        <g id="H-reference" style="fill:#27AAE1;stroke:none;" transform="matrix(1 0 0 1 339 696)">
            <path d="M0.976562 0L3.66211 0L12.9883-24.4629L45.752-24.4629L55.127 0L57.7637 0L30.6152-70.459L28.125-70.459ZM29.3457-67.1387L29.4434-67.1387L44.873-26.709L13.8672-26.709Z"/>
        </g>
        <line id="Baseline-S" style="fill:none;stroke:#27AAE1;opacity:1;stroke-width:0.5;" x1="263" x2="3036" y1="696" y2="696"/>
        <line id="Capline-S" style="fill:none;stroke:#27AAE1;opacity:1;stroke-width:0.5;" x1="263" x2="3036" y1="625.541" y2="625.541"/>
        <g id="H-reference" style="fill:#27AAE1;stroke:none;" transform="matrix(1 0 0 1 339 1126)">
            <path d="M0.976562 0L3.66211 0L12.9883-24.4629L45.752-24.4629L55.127 0L57.7637 0L30.6152-70.459L28.125-70.459ZM29.3457-67.1387L29.4434-67.1387L44.873-26.709L13.8672-26.709Z"/>
        </g>
        <line id="Baseline-M" style="fill:none;stroke:#27AAE1;opacity:1;stroke-width:0.5;" x1="263" x2="3036" y1="1126" y2="1126"/>
        <line id="Capline-M" style="fill:none;stroke:#27AAE1;opacity:1;stroke-width:0.5;" x1="263" x2="3036" y1="1055.54" y2="1055.54"/>
        <g id="H-reference" style="fill:#27AAE1;stroke:none;" transform="matrix(1 0 0 1 339 1556)">
            <path d="M0.976562 0L3.66211 0L12.9883-24.4629L45.752-24.4629L55.127 0L57.7637 0L30.6152-70.459L28.125-70.459ZM29.3457-67.1387L29.4434-67.1387L44.873-26.709L13.8672-26.709Z"/>
        </g>
        <line id="Baseline-L" style="fill:none;stroke:#27AAE1;opacity:1;stroke-width:0.5;" x1="263" x2="3036" y1="1556" y2="1556"/>
        <line id="Capline-L" style="fill:none;stroke:#27AAE1;opacity:1;stroke-width:0.5;" x1="263" x2="3036" y1="1485.54" y2="1485.54"/>
        <line id="left-margin" x1="1417.3214020285482" x2="1417.3214020285482" y1="1030.79" y2="1150.12" style="fill:none;stroke:#00AEEF;stroke-width:0.5;opacity:1.0;"/>
        <line id="right-margin" x1="1484.9385979714516" x2="1484.9385979714516" y1="1030.79" y2="1150.12" style="fill:none;stroke:#00AEEF;stroke-width:0.5;opacity:1.0;"/>
    </g>
    <g id="Symbols">
        <g id="Black-L" transform="matrix(1.0,0.0,0.0,1.0,2869.1948778030437,1455.2848973342939)">  <path fill-opacity="1" stroke-linecap="butt" stroke-linejoin="miter" fill-rule="nonzero" stroke-dasharray="none" stroke-opacity="1" role="img" stroke-miterlimit="4" fill="#000000" stroke="none" stroke-width="1px" d="M65.485,0C101.649,0,130.97,29.321,130.97,65.485C130.97,101.649,101.649,130.97,65.485,130.97C29.321,130.97,0,101.649,0,65.485C0,29.321,29.321,0,65.485,0ZM52.47,87.303C53.425,90.822,53.321,94.113,52.339,97.082L51.984,98.064C51.853,98.397,51.701,98.719,51.559,99.024C50.795,100.607,49.78,102.08,48.53,103.445C44.721,107.587,39.406,109.158,37.125,107.838C34.669,106.408,35.891,100.552,40.312,95.887C45.065,90.877,51.881,87.652,51.881,87.652L51.881,87.635L52.47,87.303ZM106.555,28.033C103.597,16.393,84.307,12.568,66.053,19.056C55.199,22.914,43.438,28.977,34.985,36.884C24.928,46.276,23.329,54.462,23.989,57.883C26.32,69.949,42.855,77.84,49.654,83.695L49.654,83.728C47.651,84.71,32.977,92.072,29.539,99.69C25.856,107.712,30.112,113.448,32.895,114.179C41.49,116.558,50.331,112.214,55.078,105.18C59.662,98.299,59.259,89.458,57.283,85.12C59.99,84.383,63.177,84.056,67.27,84.552C78.735,85.862,81.027,93.065,80.53,96.012C80.039,98.953,77.676,100.672,76.852,101.164C76.034,101.66,75.788,101.818,75.865,102.151C75.946,102.642,76.361,102.642,77.011,102.561C77.911,102.397,82.991,100.105,83.237,94.533C83.483,87.494,76.765,79.641,64.819,79.799C59.908,79.886,56.792,80.296,54.587,81.196C54.424,80.951,54.254,80.787,54.014,80.623C46.647,72.683,32.977,67.117,33.55,56.557C33.714,52.71,35.105,42.565,59.744,30.287C79.963,20.213,96.094,23.002,98.877,29.141C102.877,37.894,90.277,54.189,69.24,56.557C61.218,57.458,57.043,54.353,55.973,53.201C54.833,51.973,54.669,51.892,54.26,52.143C53.605,52.47,54.014,53.534,54.26,54.189C54.915,55.826,57.452,58.691,61.878,60.164C65.72,61.392,75.139,62.124,86.435,57.709C99.117,52.803,109.022,39.127,106.157,27.667L106.555,28.033ZM106.555,28.033"/>
</g>
        <g id="Heavy-L" transform="matrix(1.0,0.0,0.0,1.0,2572.4848778030437,1455.2848973342939)">  <path fill-rule="nonzero" stroke-linejoin="miter" stroke-opacity="1" stroke="none" stroke-linecap="butt" fill="#000000" stroke-width="1px" stroke-miterlimit="4" stroke-dasharray="none" fill-opacity="1" role="img" d="M65.485,0C101.649,0,130.97,29.321,130.97,65.485C130.97,101.649,101.649,130.97,65.485,130.97C29.321,130.97,0,101.649,0,65.485C0,29.321,29.321,0,65.485,0ZM52.47,87.303C53.425,90.822,53.321,94.113,52.339,97.082L51.984,98.064C51.853,98.397,51.701,98.719,51.559,99.024C50.795,100.607,49.78,102.08,48.53,103.445C44.721,107.587,39.406,109.158,37.125,107.838C34.669,106.408,35.891,100.552,40.312,95.887C45.065,90.877,51.881,87.652,51.881,87.652L51.881,87.635L52.47,87.303ZM106.555,28.033C103.597,16.393,84.307,12.568,66.053,19.056C55.199,22.914,43.438,28.977,34.985,36.884C24.928,46.276,23.329,54.462,23.989,57.883C26.32,69.949,42.855,77.84,49.654,83.695L49.654,83.728C47.651,84.71,32.977,92.072,29.539,99.69C25.856,107.712,30.112,113.448,32.895,114.179C41.49,116.558,50.331,112.214,55.078,105.18C59.662,98.299,59.259,89.458,57.283,85.12C59.99,84.383,63.177,84.056,67.27,84.552C78.735,85.862,81.027,93.065,80.53,96.012C80.039,98.953,77.676,100.672,76.852,101.164C76.034,101.66,75.788,101.818,75.865,102.151C75.946,102.642,76.361,102.642,77.011,102.561C77.911,102.397,82.991,100.105,83.237,94.533C83.483,87.494,76.765,79.641,64.819,79.799C59.908,79.886,56.792,80.296,54.587,81.196C54.424,80.951,54.254,80.787,54.014,80.623C46.647,72.683,32.977,67.117,33.55,56.557C33.714,52.71,35.105,42.565,59.744,30.287C79.963,20.213,96.094,23.002,98.877,29.141C102.877,37.894,90.277,54.189,69.24,56.557C61.218,57.458,57.043,54.353,55.973,53.201C54.833,51.973,54.669,51.892,54.26,52.143C53.605,52.47,54.014,53.534,54.26,54.189C54.915,55.826,57.452,58.691,61.878,60.164C65.72,61.392,75.139,62.124,86.435,57.709C99.117,52.803,109.022,39.127,106.157,27.667L106.555,28.033ZM106.555,28.033"/>
</g>
        <g id="Bold-L" transform="matrix(1.0,0.0,0.0,1.0,2275.7748778030436,1455.2848973342939)">  <path stroke-dasharray="none" stroke-opacity="1" stroke-miterlimit="4" fill-rule="nonzero" fill="#000000" stroke-linejoin="miter" fill-opacity="1" role="img" stroke="none" stroke-linecap="butt" stroke-width="1px" d="M65.485,0C101.649,0,130.97,29.321,130.97,65.485C130.97,101.649,101.649,130.97,65.485,130.97C29.321,130.97,0,101.649,0,65.485C0,29.321,29.321,0,65.485,0ZM52.47,87.303C53.425,90.822,53.321,94.113,52.339,97.082L51.984,98.064C51.853,98.397,51.701,98.719,51.559,99.024C50.795,100.607,49.78,102.08,48.53,103.445C44.721,107.587,39.406,109.158,37.125,107.838C34.669,106.408,35.891,100.552,40.312,95.887C45.065,90.877,51.881,87.652,51.881,87.652L51.881,87.635L52.47,87.303ZM106.555,28.033C103.597,16.393,84.307,12.568,66.053,19.056C55.199,22.914,43.438,28.977,34.985,36.884C24.928,46.276,23.329,54.462,23.989,57.883C26.32,69.949,42.855,77.84,49.654,83.695L49.654,83.728C47.651,84.71,32.977,92.072,29.539,99.69C25.856,107.712,30.112,113.448,32.895,114.179C41.49,116.558,50.331,112.214,55.078,105.18C59.662,98.299,59.259,89.458,57.283,85.12C59.99,84.383,63.177,84.056,67.27,84.552C78.735,85.862,81.027,93.065,80.53,96.012C80.039,98.953,77.676,100.672,76.852,101.164C76.034,101.66,75.788,101.818,75.865,102.151C75.946,102.642,76.361,102.642,77.011,102.561C77.911,102.397,82.991,100.105,83.237,94.533C83.483,87.494,76.765,79.641,64.819,79.799C59.908,79.886,56.792,80.296,54.587,81.196C54.424,80.951,54.254,80.787,54.014,80.623C46.647,72.683,32.977,67.117,33.55,56.557C33.714,52.71,35.105,42.565,59.744,30.287C79.963,20.213,96.094,23.002,98.877,29.141C102.877,37.894,90.277,54.189,69.24,56.557C61.218,57.458,57.043,54.353,55.973,53.201C54.833,51.973,54.669,51.892,54.26,52.143C53.605,52.47,54.014,53.534,54.26,54.189C54.915,55.826,57.452,58.691,61.878,60.164C65.72,61.392,75.139,62.124,86.435,57.709C99.117,52.803,109.022,39.127,106.157,27.667L106.555,28.033ZM106.555,28.033"/>
</g>
        <g id="Semibold-L" transform="matrix(1.0,0.0,0.0,1.0,1979.0648778030438,1455.2848973342939)">  <path stroke-dasharray="none" stroke="none" fill-rule="nonzero" fill-opacity="1" stroke-width="1px" stroke-miterlimit="4" fill="#000000" stroke-linejoin="miter" role="img" stroke-opacity="1" stroke-linecap="butt" d="M65.485,0C101.649,0,130.97,29.321,130.97,65.485C130.97,101.649,101.649,130.97,65.485,130.97C29.321,130.97,0,101.649,0,65.485C0,29.321,29.321,0,65.485,0ZM52.47,87.303C53.425,90.822,53.321,94.113,52.339,97.082L51.984,98.064C51.853,98.397,51.701,98.719,51.559,99.024C50.795,100.607,49.78,102.08,48.53,103.445C44.721,107.587,39.406,109.158,37.125,107.838C34.669,106.408,35.891,100.552,40.312,95.887C45.065,90.877,51.881,87.652,51.881,87.652L51.881,87.635L52.47,87.303ZM106.555,28.033C103.597,16.393,84.307,12.568,66.053,19.056C55.199,22.914,43.438,28.977,34.985,36.884C24.928,46.276,23.329,54.462,23.989,57.883C26.32,69.949,42.855,77.84,49.654,83.695L49.654,83.728C47.651,84.71,32.977,92.072,29.539,99.69C25.856,107.712,30.112,113.448,32.895,114.179C41.49,116.558,50.331,112.214,55.078,105.18C59.662,98.299,59.259,89.458,57.283,85.12C59.99,84.383,63.177,84.056,67.27,84.552C78.735,85.862,81.027,93.065,80.53,96.012C80.039,98.953,77.676,100.672,76.852,101.164C76.034,101.66,75.788,101.818,75.865,102.151C75.946,102.642,76.361,102.642,77.011,102.561C77.911,102.397,82.991,100.105,83.237,94.533C83.483,87.494,76.765,79.641,64.819,79.799C59.908,79.886,56.792,80.296,54.587,81.196C54.424,80.951,54.254,80.787,54.014,80.623C46.647,72.683,32.977,67.117,33.55,56.557C33.714,52.71,35.105,42.565,59.744,30.287C79.963,20.213,96.094,23.002,98.877,29.141C102.877,37.894,90.277,54.189,69.24,56.557C61.218,57.458,57.043,54.353,55.973,53.201C54.833,51.973,54.669,51.892,54.26,52.143C53.605,52.47,54.014,53.534,54.26,54.189C54.915,55.826,57.452,58.691,61.878,60.164C65.72,61.392,75.139,62.124,86.435,57.709C99.117,52.803,109.022,39.127,106.157,27.667L106.555,28.033ZM106.555,28.033"/>
</g>
        <g id="Medium-L" transform="matrix(1.0,0.0,0.0,1.0,1682.3548778030438,1455.2848973342939)">  <path stroke-linecap="butt" stroke-miterlimit="4" stroke="none" role="img" fill-rule="nonzero" stroke-width="1px" stroke-opacity="1" fill-opacity="1" fill="#000000" stroke-dasharray="none" stroke-linejoin="miter" d="M65.485,0C101.649,0,130.97,29.321,130.97,65.485C130.97,101.649,101.649,130.97,65.485,130.97C29.321,130.97,0,101.649,0,65.485C0,29.321,29.321,0,65.485,0ZM52.47,87.303C53.425,90.822,53.321,94.113,52.339,97.082L51.984,98.064C51.853,98.397,51.701,98.719,51.559,99.024C50.795,100.607,49.78,102.08,48.53,103.445C44.721,107.587,39.406,109.158,37.125,107.838C34.669,106.408,35.891,100.552,40.312,95.887C45.065,90.877,51.881,87.652,51.881,87.652L51.881,87.635L52.47,87.303ZM106.555,28.033C103.597,16.393,84.307,12.568,66.053,19.056C55.199,22.914,43.438,28.977,34.985,36.884C24.928,46.276,23.329,54.462,23.989,57.883C26.32,69.949,42.855,77.84,49.654,83.695L49.654,83.728C47.651,84.71,32.977,92.072,29.539,99.69C25.856,107.712,30.112,113.448,32.895,114.179C41.49,116.558,50.331,112.214,55.078,105.18C59.662,98.299,59.259,89.458,57.283,85.12C59.99,84.383,63.177,84.056,67.27,84.552C78.735,85.862,81.027,93.065,80.53,96.012C80.039,98.953,77.676,100.672,76.852,101.164C76.034,101.66,75.788,101.818,75.865,102.151C75.946,102.642,76.361,102.642,77.011,102.561C77.911,102.397,82.991,100.105,83.237,94.533C83.483,87.494,76.765,79.641,64.819,79.799C59.908,79.886,56.792,80.296,54.587,81.196C54.424,80.951,54.254,80.787,54.014,80.623C46.647,72.683,32.977,67.117,33.55,56.557C33.714,52.71,35.105,42.565,59.744,30.287C79.963,20.213,96.094,23.002,98.877,29.141C102.877,37.894,90.277,54.189,69.24,56.557C61.218,57.458,57.043,54.353,55.973,53.201C54.833,51.973,54.669,51.892,54.26,52.143C53.605,52.47,54.014,53.534,54.26,54.189C54.915,55.826,57.452,58.691,61.878,60.164C65.72,61.392,75.139,62.124,86.435,57.709C99.117,52.803,109.022,39.127,106.157,27.667L106.555,28.033ZM106.555,28.033"/>
</g>
        <g id="Regular-L" transform="matrix(1.0,0.0,0.0,1.0,1385.6448778030438,1455.2848973342939)">  <path fill-rule="nonzero" fill="#000000" fill-opacity="1" stroke="none" stroke-miterlimit="4" role="img" stroke-linecap="butt" stroke-dasharray="none" stroke-linejoin="miter" stroke-opacity="1" stroke-width="1px" d="M65.485,0C101.649,0,130.97,29.321,130.97,65.485C130.97,101.649,101.649,130.97,65.485,130.97C29.321,130.97,0,101.649,0,65.485C0,29.321,29.321,0,65.485,0ZM52.47,87.303C53.425,90.822,53.321,94.113,52.339,97.082L51.984,98.064C51.853,98.397,51.701,98.719,51.559,99.024C50.795,100.607,49.78,102.08,48.53,103.445C44.721,107.587,39.406,109.158,37.125,107.838C34.669,106.408,35.891,100.552,40.312,95.887C45.065,90.877,51.881,87.652,51.881,87.652L51.881,87.635L52.47,87.303ZM106.555,28.033C103.597,16.393,84.307,12.568,66.053,19.056C55.199,22.914,43.438,28.977,34.985,36.884C24.928,46.276,23.329,54.462,23.989,57.883C26.32,69.949,42.855,77.84,49.654,83.695L49.654,83.728C47.651,84.71,32.977,92.072,29.539,99.69C25.856,107.712,30.112,113.448,32.895,114.179C41.49,116.558,50.331,112.214,55.078,105.18C59.662,98.299,59.259,89.458,57.283,85.12C59.99,84.383,63.177,84.056,67.27,84.552C78.735,85.862,81.027,93.065,80.53,96.012C80.039,98.953,77.676,100.672,76.852,101.164C76.034,101.66,75.788,101.818,75.865,102.151C75.946,102.642,76.361,102.642,77.011,102.561C77.911,102.397,82.991,100.105,83.237,94.533C83.483,87.494,76.765,79.641,64.819,79.799C59.908,79.886,56.792,80.296,54.587,81.196C54.424,80.951,54.254,80.787,54.014,80.623C46.647,72.683,32.977,67.117,33.55,56.557C33.714,52.71,35.105,42.565,59.744,30.287C79.963,20.213,96.094,23.002,98.877,29.141C102.877,37.894,90.277,54.189,69.24,56.557C61.218,57.458,57.043,54.353,55.973,53.201C54.833,51.973,54.669,51.892,54.26,52.143C53.605,52.47,54.014,53.534,54.26,54.189C54.915,55.826,57.452,58.691,61.878,60.164C65.72,61.392,75.139,62.124,86.435,57.709C99.117,52.803,109.022,39.127,106.157,27.667L106.555,28.033ZM106.555,28.033"/>
</g>
        <g id="Light-L" transform="matrix(1.0,0.0,0.0,1.0,1088.934877803044,1455.2848973342939)">  <path stroke-opacity="1" fill-opacity="1" stroke-miterlimit="4" fill="#000000" stroke-linecap="butt" stroke-width="1px" role="img" stroke="none" stroke-linejoin="miter" fill-rule="nonzero" stroke-dasharray="none" d="M65.485,0C101.649,0,130.97,29.321,130.97,65.485C130.97,101.649,101.649,130.97,65.485,130.97C29.321,130.97,0,101.649,0,65.485C0,29.321,29.321,0,65.485,0ZM52.47,87.303C53.425,90.822,53.321,94.113,52.339,97.082L51.984,98.064C51.853,98.397,51.701,98.719,51.559,99.024C50.795,100.607,49.78,102.08,48.53,103.445C44.721,107.587,39.406,109.158,37.125,107.838C34.669,106.408,35.891,100.552,40.312,95.887C45.065,90.877,51.881,87.652,51.881,87.652L51.881,87.635L52.47,87.303ZM106.555,28.033C103.597,16.393,84.307,12.568,66.053,19.056C55.199,22.914,43.438,28.977,34.985,36.884C24.928,46.276,23.329,54.462,23.989,57.883C26.32,69.949,42.855,77.84,49.654,83.695L49.654,83.728C47.651,84.71,32.977,92.072,29.539,99.69C25.856,107.712,30.112,113.448,32.895,114.179C41.49,116.558,50.331,112.214,55.078,105.18C59.662,98.299,59.259,89.458,57.283,85.12C59.99,84.383,63.177,84.056,67.27,84.552C78.735,85.862,81.027,93.065,80.53,96.012C80.039,98.953,77.676,100.672,76.852,101.164C76.034,101.66,75.788,101.818,75.865,102.151C75.946,102.642,76.361,102.642,77.011,102.561C77.911,102.397,82.991,100.105,83.237,94.533C83.483,87.494,76.765,79.641,64.819,79.799C59.908,79.886,56.792,80.296,54.587,81.196C54.424,80.951,54.254,80.787,54.014,80.623C46.647,72.683,32.977,67.117,33.55,56.557C33.714,52.71,35.105,42.565,59.744,30.287C79.963,20.213,96.094,23.002,98.877,29.141C102.877,37.894,90.277,54.189,69.24,56.557C61.218,57.458,57.043,54.353,55.973,53.201C54.833,51.973,54.669,51.892,54.26,52.143C53.605,52.47,54.014,53.534,54.26,54.189C54.915,55.826,57.452,58.691,61.878,60.164C65.72,61.392,75.139,62.124,86.435,57.709C99.117,52.803,109.022,39.127,106.157,27.667L106.555,28.033ZM106.555,28.033"/>
</g>
        <g id="Thin-L" transform="matrix(1.0,0.0,0.0,1.0,792.224877803044,1455.2848973342939)">  <path stroke-miterlimit="4" stroke-dasharray="none" stroke-linecap="butt" stroke-opacity="1" fill-opacity="1" role="img" stroke-linejoin="miter" stroke="none" stroke-width="1px" fill-rule="nonzero" fill="#000000" d="M65.485,0C101.649,0,130.97,29.321,130.97,65.485C130.97,101.649,101.649,130.97,65.485,130.97C29.321,130.97,0,101.649,0,65.485C0,29.321,29.321,0,65.485,0ZM52.47,87.303C53.425,90.822,53.321,94.113,52.339,97.082L51.984,98.064C51.853,98.397,51.701,98.719,51.559,99.024C50.795,100.607,49.78,102.08,48.53,103.445C44.721,107.587,39.406,109.158,37.125,107.838C34.669,106.408,35.891,100.552,40.312,95.887C45.065,90.877,51.881,87.652,51.881,87.652L51.881,87.635L52.47,87.303ZM106.555,28.033C103.597,16.393,84.307,12.568,66.053,19.056C55.199,22.914,43.438,28.977,34.985,36.884C24.928,46.276,23.329,54.462,23.989,57.883C26.32,69.949,42.855,77.84,49.654,83.695L49.654,83.728C47.651,84.71,32.977,92.072,29.539,99.69C25.856,107.712,30.112,113.448,32.895,114.179C41.49,116.558,50.331,112.214,55.078,105.18C59.662,98.299,59.259,89.458,57.283,85.12C59.99,84.383,63.177,84.056,67.27,84.552C78.735,85.862,81.027,93.065,80.53,96.012C80.039,98.953,77.676,100.672,76.852,101.164C76.034,101.66,75.788,101.818,75.865,102.151C75.946,102.642,76.361,102.642,77.011,102.561C77.911,102.397,82.991,100.105,83.237,94.533C83.483,87.494,76.765,79.641,64.819,79.799C59.908,79.886,56.792,80.296,54.587,81.196C54.424,80.951,54.254,80.787,54.014,80.623C46.647,72.683,32.977,67.117,33.55,56.557C33.714,52.71,35.105,42.565,59.744,30.287C79.963,20.213,96.094,23.002,98.877,29.141C102.877,37.894,90.277,54.189,69.24,56.557C61.218,57.458,57.043,54.353,55.973,53.201C54.833,51.973,54.669,51.892,54.26,52.143C53.605,52.47,54.014,53.534,54.26,54.189C54.915,55.826,57.452,58.691,61.878,60.164C65.72,61.392,75.139,62.124,86.435,57.709C99.117,52.803,109.022,39.127,106.157,27.667L106.555,28.033ZM106.555,28.033"/>
</g>
        <g id="Ultralight-L" transform="matrix(1.0,0.0,0.0,1.0,495.51487780304393,1455.2848973342939)">  <path fill-opacity="1" stroke="none" stroke-linecap="butt" role="img" stroke-linejoin="miter" stroke-miterlimit="4" stroke-opacity="1" stroke-dasharray="none" fill="#000000" fill-rule="nonzero" stroke-width="1px" d="M65.485,0C101.649,0,130.97,29.321,130.97,65.485C130.97,101.649,101.649,130.97,65.485,130.97C29.321,130.97,0,101.649,0,65.485C0,29.321,29.321,0,65.485,0ZM52.47,87.303C53.425,90.822,53.321,94.113,52.339,97.082L51.984,98.064C51.853,98.397,51.701,98.719,51.559,99.024C50.795,100.607,49.78,102.08,48.53,103.445C44.721,107.587,39.406,109.158,37.125,107.838C34.669,106.408,35.891,100.552,40.312,95.887C45.065,90.877,51.881,87.652,51.881,87.652L51.881,87.635L52.47,87.303ZM106.555,28.033C103.597,16.393,84.307,12.568,66.053,19.056C55.199,22.914,43.438,28.977,34.985,36.884C24.928,46.276,23.329,54.462,23.989,57.883C26.32,69.949,42.855,77.84,49.654,83.695L49.654,83.728C47.651,84.71,32.977,92.072,29.539,99.69C25.856,107.712,30.112,113.448,32.895,114.179C41.49,116.558,50.331,112.214,55.078,105.18C59.662,98.299,59.259,89.458,57.283,85.12C59.99,84.383,63.177,84.056,67.27,84.552C78.735,85.862,81.027,93.065,80.53,96.012C80.039,98.953,77.676,100.672,76.852,101.164C76.034,101.66,75.788,101.818,75.865,102.151C75.946,102.642,76.361,102.642,77.011,102.561C77.911,102.397,82.991,100.105,83.237,94.533C83.483,87.494,76.765,79.641,64.819,79.799C59.908,79.886,56.792,80.296,54.587,81.196C54.424,80.951,54.254,80.787,54.014,80.623C46.647,72.683,32.977,67.117,33.55,56.557C33.714,52.71,35.105,42.565,59.744,30.287C79.963,20.213,96.094,23.002,98.877,29.141C102.877,37.894,90.277,54.189,69.24,56.557C61.218,57.458,57.043,54.353,55.973,53.201C54.833,51.973,54.669,51.892,54.26,52.143C53.605,52.47,54.014,53.534,54.26,54.189C54.915,55.826,57.452,58.691,61.878,60.164C65.72,61.392,75.139,62.124,86.435,57.709C99.117,52.803,109.022,39.127,106.157,27.667L106.555,28.033ZM106.555,28.033"/>
</g>
        <g id="Black-M" transform="matrix(1.0,0.0,0.0,1.0,2883.9163393822046,1040.0063589134545)">  <path fill-opacity="1" stroke-linecap="butt" stroke-linejoin="miter" fill-rule="nonzero" stroke-dasharray="none" stroke-opacity="1" role="img" stroke-miterlimit="4" fill="#000000" stroke="none" stroke-width="1px" d="M50.764,0C78.798,0,101.527,22.729,101.527,50.764C101.527,78.798,78.798,101.527,50.764,101.527C22.729,101.527,0,78.798,0,50.764C0,22.729,22.729,0,50.764,0ZM40.674,67.676C41.415,70.405,41.334,72.956,40.573,75.257L40.298,76.019C40.196,76.277,40.078,76.526,39.968,76.763C39.376,77.99,38.589,79.132,37.62,80.19C34.667,83.4,30.547,84.619,28.779,83.595C26.875,82.487,27.823,77.948,31.249,74.331C34.934,70.447,40.218,67.947,40.218,67.947L40.218,67.934L40.674,67.676ZM82.601,21.731C80.308,12.708,65.354,9.742,51.204,14.772C42.79,17.763,33.673,22.463,27.12,28.593C19.324,35.873,18.085,42.218,18.596,44.871C20.403,54.224,33.221,60.341,38.492,64.88L38.492,64.906C36.939,65.667,25.564,71.374,22.899,77.279C20.043,83.498,23.343,87.944,25.5,88.511C32.163,90.355,39.016,86.988,42.696,81.535C46.25,76.2,45.937,69.347,44.406,65.984C46.504,65.413,48.974,65.159,52.147,65.544C61.035,66.56,62.812,72.144,62.427,74.428C62.046,76.708,60.214,78.041,59.575,78.421C58.941,78.806,58.75,78.929,58.81,79.187C58.873,79.568,59.195,79.568,59.698,79.504C60.396,79.377,64.334,77.601,64.525,73.282C64.715,67.824,59.508,61.737,50.248,61.86C46.44,61.927,44.025,62.245,42.316,62.943C42.189,62.752,42.058,62.625,41.872,62.499C36.161,56.343,25.564,52.029,26.008,43.843C26.135,40.861,27.214,32.996,46.313,23.478C61.987,15.669,74.491,17.831,76.649,22.59C79.75,29.375,69.982,42.007,53.674,43.843C47.456,44.541,44.219,42.134,43.39,41.241C42.506,40.289,42.379,40.226,42.062,40.421C41.554,40.674,41.872,41.499,42.062,42.007C42.57,43.276,44.537,45.497,47.967,46.639C50.946,47.591,58.247,48.158,67.004,44.735C76.835,40.932,84.513,30.331,82.292,21.448L82.601,21.731ZM82.601,21.731"/>
</g>
        <g id="Heavy-M" transform="matrix(1.0,0.0,0.0,1.0,2587.2063393822045,1040.0063589134545)">  <path fill-rule="nonzero" stroke-linejoin="miter" stroke-opacity="1" stroke="none" stroke-linecap="butt" fill="#000000" stroke-width="1px" stroke-miterlimit="4" stroke-dasharray="none" fill-opacity="1" role="img" d="M50.764,0C78.798,0,101.527,22.729,101.527,50.764C101.527,78.798,78.798,101.527,50.764,101.527C22.729,101.527,0,78.798,0,50.764C0,22.729,22.729,0,50.764,0ZM40.674,67.676C41.415,70.405,41.334,72.956,40.573,75.257L40.298,76.019C40.196,76.277,40.078,76.526,39.968,76.763C39.376,77.99,38.589,79.132,37.62,80.19C34.667,83.4,30.547,84.619,28.779,83.595C26.875,82.487,27.823,77.948,31.249,74.331C34.934,70.447,40.218,67.947,40.218,67.947L40.218,67.934L40.674,67.676ZM82.601,21.731C80.308,12.708,65.354,9.742,51.204,14.772C42.79,17.763,33.673,22.463,27.12,28.593C19.324,35.873,18.085,42.218,18.596,44.871C20.403,54.224,33.221,60.341,38.492,64.88L38.492,64.906C36.939,65.667,25.564,71.374,22.899,77.279C20.043,83.498,23.343,87.944,25.5,88.511C32.163,90.355,39.016,86.988,42.696,81.535C46.25,76.2,45.937,69.347,44.406,65.984C46.504,65.413,48.974,65.159,52.147,65.544C61.035,66.56,62.812,72.144,62.427,74.428C62.046,76.708,60.214,78.041,59.575,78.421C58.941,78.806,58.75,78.929,58.81,79.187C58.873,79.568,59.195,79.568,59.698,79.504C60.396,79.377,64.334,77.601,64.525,73.282C64.715,67.824,59.508,61.737,50.248,61.86C46.44,61.927,44.025,62.245,42.316,62.943C42.189,62.752,42.058,62.625,41.872,62.499C36.161,56.343,25.564,52.029,26.008,43.843C26.135,40.861,27.214,32.996,46.313,23.478C61.987,15.669,74.491,17.831,76.649,22.59C79.75,29.375,69.982,42.007,53.674,43.843C47.456,44.541,44.219,42.134,43.39,41.241C42.506,40.289,42.379,40.226,42.062,40.421C41.554,40.674,41.872,41.499,42.062,42.007C42.57,43.276,44.537,45.497,47.967,46.639C50.946,47.591,58.247,48.158,67.004,44.735C76.835,40.932,84.513,30.331,82.292,21.448L82.601,21.731ZM82.601,21.731"/>
</g>
        <g id="Bold-M" transform="matrix(1.0,0.0,0.0,1.0,2290.4963393822045,1040.0063589134545)">  <path stroke-dasharray="none" stroke-opacity="1" stroke-miterlimit="4" fill-rule="nonzero" fill="#000000" stroke-linejoin="miter" fill-opacity="1" role="img" stroke="none" stroke-linecap="butt" stroke-width="1px" d="M50.764,0C78.798,0,101.527,22.729,101.527,50.764C101.527,78.798,78.798,101.527,50.764,101.527C22.729,101.527,0,78.798,0,50.764C0,22.729,22.729,0,50.764,0ZM40.674,67.676C41.415,70.405,41.334,72.956,40.573,75.257L40.298,76.019C40.196,76.277,40.078,76.526,39.968,76.763C39.376,77.99,38.589,79.132,37.62,80.19C34.667,83.4,30.547,84.619,28.779,83.595C26.875,82.487,27.823,77.948,31.249,74.331C34.934,70.447,40.218,67.947,40.218,67.947L40.218,67.934L40.674,67.676ZM82.601,21.731C80.308,12.708,65.354,9.742,51.204,14.772C42.79,17.763,33.673,22.463,27.12,28.593C19.324,35.873,18.085,42.218,18.596,44.871C20.403,54.224,33.221,60.341,38.492,64.88L38.492,64.906C36.939,65.667,25.564,71.374,22.899,77.279C20.043,83.498,23.343,87.944,25.5,88.511C32.163,90.355,39.016,86.988,42.696,81.535C46.25,76.2,45.937,69.347,44.406,65.984C46.504,65.413,48.974,65.159,52.147,65.544C61.035,66.56,62.812,72.144,62.427,74.428C62.046,76.708,60.214,78.041,59.575,78.421C58.941,78.806,58.75,78.929,58.81,79.187C58.873,79.568,59.195,79.568,59.698,79.504C60.396,79.377,64.334,77.601,64.525,73.282C64.715,67.824,59.508,61.737,50.248,61.86C46.44,61.927,44.025,62.245,42.316,62.943C42.189,62.752,42.058,62.625,41.872,62.499C36.161,56.343,25.564,52.029,26.008,43.843C26.135,40.861,27.214,32.996,46.313,23.478C61.987,15.669,74.491,17.831,76.649,22.59C79.75,29.375,69.982,42.007,53.674,43.843C47.456,44.541,44.219,42.134,43.39,41.241C42.506,40.289,42.379,40.226,42.062,40.421C41.554,40.674,41.872,41.499,42.062,42.007C42.57,43.276,44.537,45.497,47.967,46.639C50.946,47.591,58.247,48.158,67.004,44.735C76.835,40.932,84.513,30.331,82.292,21.448L82.601,21.731ZM82.601,21.731"/>
</g>
        <g id="Semibold-M" transform="matrix(1.0,0.0,0.0,1.0,1993.7863393822045,1040.0063589134545)">  <path stroke-dasharray="none" stroke="none" fill-rule="nonzero" fill-opacity="1" stroke-width="1px" stroke-miterlimit="4" fill="#000000" stroke-linejoin="miter" role="img" stroke-opacity="1" stroke-linecap="butt" d="M50.764,0C78.798,0,101.527,22.729,101.527,50.764C101.527,78.798,78.798,101.527,50.764,101.527C22.729,101.527,0,78.798,0,50.764C0,22.729,22.729,0,50.764,0ZM40.674,67.676C41.415,70.405,41.334,72.956,40.573,75.257L40.298,76.019C40.196,76.277,40.078,76.526,39.968,76.763C39.376,77.99,38.589,79.132,37.62,80.19C34.667,83.4,30.547,84.619,28.779,83.595C26.875,82.487,27.823,77.948,31.249,74.331C34.934,70.447,40.218,67.947,40.218,67.947L40.218,67.934L40.674,67.676ZM82.601,21.731C80.308,12.708,65.354,9.742,51.204,14.772C42.79,17.763,33.673,22.463,27.12,28.593C19.324,35.873,18.085,42.218,18.596,44.871C20.403,54.224,33.221,60.341,38.492,64.88L38.492,64.906C36.939,65.667,25.564,71.374,22.899,77.279C20.043,83.498,23.343,87.944,25.5,88.511C32.163,90.355,39.016,86.988,42.696,81.535C46.25,76.2,45.937,69.347,44.406,65.984C46.504,65.413,48.974,65.159,52.147,65.544C61.035,66.56,62.812,72.144,62.427,74.428C62.046,76.708,60.214,78.041,59.575,78.421C58.941,78.806,58.75,78.929,58.81,79.187C58.873,79.568,59.195,79.568,59.698,79.504C60.396,79.377,64.334,77.601,64.525,73.282C64.715,67.824,59.508,61.737,50.248,61.86C46.44,61.927,44.025,62.245,42.316,62.943C42.189,62.752,42.058,62.625,41.872,62.499C36.161,56.343,25.564,52.029,26.008,43.843C26.135,40.861,27.214,32.996,46.313,23.478C61.987,15.669,74.491,17.831,76.649,22.59C79.75,29.375,69.982,42.007,53.674,43.843C47.456,44.541,44.219,42.134,43.39,41.241C42.506,40.289,42.379,40.226,42.062,40.421C41.554,40.674,41.872,41.499,42.062,42.007C42.57,43.276,44.537,45.497,47.967,46.639C50.946,47.591,58.247,48.158,67.004,44.735C76.835,40.932,84.513,30.331,82.292,21.448L82.601,21.731ZM82.601,21.731"/>
</g>
        <g id="Medium-M" transform="matrix(1.0,0.0,0.0,1.0,1697.0763393822044,1040.0063589134545)">  <path stroke-linecap="butt" stroke-miterlimit="4" stroke="none" role="img" fill-rule="nonzero" stroke-width="1px" stroke-opacity="1" fill-opacity="1" fill="#000000" stroke-dasharray="none" stroke-linejoin="miter" d="M50.764,0C78.798,0,101.527,22.729,101.527,50.764C101.527,78.798,78.798,101.527,50.764,101.527C22.729,101.527,0,78.798,0,50.764C0,22.729,22.729,0,50.764,0ZM40.674,67.676C41.415,70.405,41.334,72.956,40.573,75.257L40.298,76.019C40.196,76.277,40.078,76.526,39.968,76.763C39.376,77.99,38.589,79.132,37.62,80.19C34.667,83.4,30.547,84.619,28.779,83.595C26.875,82.487,27.823,77.948,31.249,74.331C34.934,70.447,40.218,67.947,40.218,67.947L40.218,67.934L40.674,67.676ZM82.601,21.731C80.308,12.708,65.354,9.742,51.204,14.772C42.79,17.763,33.673,22.463,27.12,28.593C19.324,35.873,18.085,42.218,18.596,44.871C20.403,54.224,33.221,60.341,38.492,64.88L38.492,64.906C36.939,65.667,25.564,71.374,22.899,77.279C20.043,83.498,23.343,87.944,25.5,88.511C32.163,90.355,39.016,86.988,42.696,81.535C46.25,76.2,45.937,69.347,44.406,65.984C46.504,65.413,48.974,65.159,52.147,65.544C61.035,66.56,62.812,72.144,62.427,74.428C62.046,76.708,60.214,78.041,59.575,78.421C58.941,78.806,58.75,78.929,58.81,79.187C58.873,79.568,59.195,79.568,59.698,79.504C60.396,79.377,64.334,77.601,64.525,73.282C64.715,67.824,59.508,61.737,50.248,61.86C46.44,61.927,44.025,62.245,42.316,62.943C42.189,62.752,42.058,62.625,41.872,62.499C36.161,56.343,25.564,52.029,26.008,43.843C26.135,40.861,27.214,32.996,46.313,23.478C61.987,15.669,74.491,17.831,76.649,22.59C79.75,29.375,69.982,42.007,53.674,43.843C47.456,44.541,44.219,42.134,43.39,41.241C42.506,40.289,42.379,40.226,42.062,40.421C41.554,40.674,41.872,41.499,42.062,42.007C42.57,43.276,44.537,45.497,47.967,46.639C50.946,47.591,58.247,48.158,67.004,44.735C76.835,40.932,84.513,30.331,82.292,21.448L82.601,21.731ZM82.601,21.731"/>
</g>
        <g id="Regular-M" transform="matrix(1.0,0.0,0.0,1.0,1400.3663393822044,1040.0063589134545)">  <path fill-rule="nonzero" fill="#000000" fill-opacity="1" stroke="none" stroke-miterlimit="4" role="img" stroke-linecap="butt" stroke-dasharray="none" stroke-linejoin="miter" stroke-opacity="1" stroke-width="1px" d="M50.764,0C78.798,0,101.527,22.729,101.527,50.764C101.527,78.798,78.798,101.527,50.764,101.527C22.729,101.527,0,78.798,0,50.764C0,22.729,22.729,0,50.764,0ZM40.674,67.676C41.415,70.405,41.334,72.956,40.573,75.257L40.298,76.019C40.196,76.277,40.078,76.526,39.968,76.763C39.376,77.99,38.589,79.132,37.62,80.19C34.667,83.4,30.547,84.619,28.779,83.595C26.875,82.487,27.823,77.948,31.249,74.331C34.934,70.447,40.218,67.947,40.218,67.947L40.218,67.934L40.674,67.676ZM82.601,21.731C80.308,12.708,65.354,9.742,51.204,14.772C42.79,17.763,33.673,22.463,27.12,28.593C19.324,35.873,18.085,42.218,18.596,44.871C20.403,54.224,33.221,60.341,38.492,64.88L38.492,64.906C36.939,65.667,25.564,71.374,22.899,77.279C20.043,83.498,23.343,87.944,25.5,88.511C32.163,90.355,39.016,86.988,42.696,81.535C46.25,76.2,45.937,69.347,44.406,65.984C46.504,65.413,48.974,65.159,52.147,65.544C61.035,66.56,62.812,72.144,62.427,74.428C62.046,76.708,60.214,78.041,59.575,78.421C58.941,78.806,58.75,78.929,58.81,79.187C58.873,79.568,59.195,79.568,59.698,79.504C60.396,79.377,64.334,77.601,64.525,73.282C64.715,67.824,59.508,61.737,50.248,61.86C46.44,61.927,44.025,62.245,42.316,62.943C42.189,62.752,42.058,62.625,41.872,62.499C36.161,56.343,25.564,52.029,26.008,43.843C26.135,40.861,27.214,32.996,46.313,23.478C61.987,15.669,74.491,17.831,76.649,22.59C79.75,29.375,69.982,42.007,53.674,43.843C47.456,44.541,44.219,42.134,43.39,41.241C42.506,40.289,42.379,40.226,42.062,40.421C41.554,40.674,41.872,41.499,42.062,42.007C42.57,43.276,44.537,45.497,47.967,46.639C50.946,47.591,58.247,48.158,67.004,44.735C76.835,40.932,84.513,30.331,82.292,21.448L82.601,21.731ZM82.601,21.731"/>
</g>
        <g id="Light-M" transform="matrix(1.0,0.0,0.0,1.0,1103.6563393822046,1040.0063589134545)">  <path stroke-opacity="1" fill-opacity="1" stroke-miterlimit="4" fill="#000000" stroke-linecap="butt" stroke-width="1px" role="img" stroke="none" stroke-linejoin="miter" fill-rule="nonzero" stroke-dasharray="none" d="M50.764,0C78.798,0,101.527,22.729,101.527,50.764C101.527,78.798,78.798,101.527,50.764,101.527C22.729,101.527,0,78.798,0,50.764C0,22.729,22.729,0,50.764,0ZM40.674,67.676C41.415,70.405,41.334,72.956,40.573,75.257L40.298,76.019C40.196,76.277,40.078,76.526,39.968,76.763C39.376,77.99,38.589,79.132,37.62,80.19C34.667,83.4,30.547,84.619,28.779,83.595C26.875,82.487,27.823,77.948,31.249,74.331C34.934,70.447,40.218,67.947,40.218,67.947L40.218,67.934L40.674,67.676ZM82.601,21.731C80.308,12.708,65.354,9.742,51.204,14.772C42.79,17.763,33.673,22.463,27.12,28.593C19.324,35.873,18.085,42.218,18.596,44.871C20.403,54.224,33.221,60.341,38.492,64.88L38.492,64.906C36.939,65.667,25.564,71.374,22.899,77.279C20.043,83.498,23.343,87.944,25.5,88.511C32.163,90.355,39.016,86.988,42.696,81.535C46.25,76.2,45.937,69.347,44.406,65.984C46.504,65.413,48.974,65.159,52.147,65.544C61.035,66.56,62.812,72.144,62.427,74.428C62.046,76.708,60.214,78.041,59.575,78.421C58.941,78.806,58.75,78.929,58.81,79.187C58.873,79.568,59.195,79.568,59.698,79.504C60.396,79.377,64.334,77.601,64.525,73.282C64.715,67.824,59.508,61.737,50.248,61.86C46.44,61.927,44.025,62.245,42.316,62.943C42.189,62.752,42.058,62.625,41.872,62.499C36.161,56.343,25.564,52.029,26.008,43.843C26.135,40.861,27.214,32.996,46.313,23.478C61.987,15.669,74.491,17.831,76.649,22.59C79.75,29.375,69.982,42.007,53.674,43.843C47.456,44.541,44.219,42.134,43.39,41.241C42.506,40.289,42.379,40.226,42.062,40.421C41.554,40.674,41.872,41.499,42.062,42.007C42.57,43.276,44.537,45.497,47.967,46.639C50.946,47.591,58.247,48.158,67.004,44.735C76.835,40.932,84.513,30.331,82.292,21.448L82.601,21.731ZM82.601,21.731"/>
</g>
        <g id="Thin-M" transform="matrix(1.0,0.0,0.0,1.0,806.9463393822047,1040.0063589134545)">  <path stroke-miterlimit="4" stroke-dasharray="none" stroke-linecap="butt" stroke-opacity="1" fill-opacity="1" role="img" stroke-linejoin="miter" stroke="none" stroke-width="1px" fill-rule="nonzero" fill="#000000" d="M50.764,0C78.798,0,101.527,22.729,101.527,50.764C101.527,78.798,78.798,101.527,50.764,101.527C22.729,101.527,0,78.798,0,50.764C0,22.729,22.729,0,50.764,0ZM40.674,67.676C41.415,70.405,41.334,72.956,40.573,75.257L40.298,76.019C40.196,76.277,40.078,76.526,39.968,76.763C39.376,77.99,38.589,79.132,37.62,80.19C34.667,83.4,30.547,84.619,28.779,83.595C26.875,82.487,27.823,77.948,31.249,74.331C34.934,70.447,40.218,67.947,40.218,67.947L40.218,67.934L40.674,67.676ZM82.601,21.731C80.308,12.708,65.354,9.742,51.204,14.772C42.79,17.763,33.673,22.463,27.12,28.593C19.324,35.873,18.085,42.218,18.596,44.871C20.403,54.224,33.221,60.341,38.492,64.88L38.492,64.906C36.939,65.667,25.564,71.374,22.899,77.279C20.043,83.498,23.343,87.944,25.5,88.511C32.163,90.355,39.016,86.988,42.696,81.535C46.25,76.2,45.937,69.347,44.406,65.984C46.504,65.413,48.974,65.159,52.147,65.544C61.035,66.56,62.812,72.144,62.427,74.428C62.046,76.708,60.214,78.041,59.575,78.421C58.941,78.806,58.75,78.929,58.81,79.187C58.873,79.568,59.195,79.568,59.698,79.504C60.396,79.377,64.334,77.601,64.525,73.282C64.715,67.824,59.508,61.737,50.248,61.86C46.44,61.927,44.025,62.245,42.316,62.943C42.189,62.752,42.058,62.625,41.872,62.499C36.161,56.343,25.564,52.029,26.008,43.843C26.135,40.861,27.214,32.996,46.313,23.478C61.987,15.669,74.491,17.831,76.649,22.59C79.75,29.375,69.982,42.007,53.674,43.843C47.456,44.541,44.219,42.134,43.39,41.241C42.506,40.289,42.379,40.226,42.062,40.421C41.554,40.674,41.872,41.499,42.062,42.007C42.57,43.276,44.537,45.497,47.967,46.639C50.946,47.591,58.247,48.158,67.004,44.735C76.835,40.932,84.513,30.331,82.292,21.448L82.601,21.731ZM82.601,21.731"/>
</g>
        <g id="Ultralight-M" transform="matrix(1.0,0.0,0.0,1.0,510.2363393822046,1040.0063589134545)">  <path fill-opacity="1" stroke="none" stroke-linecap="butt" role="img" stroke-linejoin="miter" stroke-miterlimit="4" stroke-opacity="1" stroke-dasharray="none" fill="#000000" fill-rule="nonzero" stroke-width="1px" d="M50.764,0C78.798,0,101.527,22.729,101.527,50.764C101.527,78.798,78.798,101.527,50.764,101.527C22.729,101.527,0,78.798,0,50.764C0,22.729,22.729,0,50.764,0ZM40.674,67.676C41.415,70.405,41.334,72.956,40.573,75.257L40.298,76.019C40.196,76.277,40.078,76.526,39.968,76.763C39.376,77.99,38.589,79.132,37.62,80.19C34.667,83.4,30.547,84.619,28.779,83.595C26.875,82.487,27.823,77.948,31.249,74.331C34.934,70.447,40.218,67.947,40.218,67.947L40.218,67.934L40.674,67.676ZM82.601,21.731C80.308,12.708,65.354,9.742,51.204,14.772C42.79,17.763,33.673,22.463,27.12,28.593C19.324,35.873,18.085,42.218,18.596,44.871C20.403,54.224,33.221,60.341,38.492,64.88L38.492,64.906C36.939,65.667,25.564,71.374,22.899,77.279C20.043,83.498,23.343,87.944,25.5,88.511C32.163,90.355,39.016,86.988,42.696,81.535C46.25,76.2,45.937,69.347,44.406,65.984C46.504,65.413,48.974,65.159,52.147,65.544C61.035,66.56,62.812,72.144,62.427,74.428C62.046,76.708,60.214,78.041,59.575,78.421C58.941,78.806,58.75,78.929,58.81,79.187C58.873,79.568,59.195,79.568,59.698,79.504C60.396,79.377,64.334,77.601,64.525,73.282C64.715,67.824,59.508,61.737,50.248,61.86C46.44,61.927,44.025,62.245,42.316,62.943C42.189,62.752,42.058,62.625,41.872,62.499C36.161,56.343,25.564,52.029,26.008,43.843C26.135,40.861,27.214,32.996,46.313,23.478C61.987,15.669,74.491,17.831,76.649,22.59C79.75,29.375,69.982,42.007,53.674,43.843C47.456,44.541,44.219,42.134,43.39,41.241C42.506,40.289,42.379,40.226,42.062,40.421C41.554,40.674,41.872,41.499,42.062,42.007C42.57,43.276,44.537,45.497,47.967,46.639C50.946,47.591,58.247,48.158,67.004,44.735C76.835,40.932,84.513,30.331,82.292,21.448L82.601,21.731ZM82.601,21.731"/>
</g>
        <g id="Black-S" transform="matrix(1.0,0.0,0.0,1.0,2894.932053736266,621.0220732675162)">  <path fill-opacity="1" stroke-linecap="butt" stroke-linejoin="miter" fill-rule="nonzero" stroke-dasharray="none" stroke-opacity="1" role="img" stroke-miterlimit="4" fill="#000000" stroke="none" stroke-width="1px" d="M39.748,0C61.699,0,79.496,17.797,79.496,39.748C79.496,61.699,61.699,79.496,39.748,79.496C17.797,79.496,0,61.699,0,39.748C0,17.797,17.797,0,39.748,0ZM31.848,52.991C32.428,55.127,32.365,57.124,31.769,58.926L31.553,59.523C31.474,59.725,31.381,59.92,31.295,60.106C30.831,61.066,30.215,61.96,29.457,62.789C27.145,65.303,23.918,66.257,22.534,65.455C21.043,64.587,21.785,61.033,24.468,58.201C27.353,55.16,31.49,53.203,31.49,53.203L31.49,53.193L31.848,52.991ZM64.677,17.015C62.881,9.95,51.172,7.628,40.092,11.567C33.504,13.908,26.366,17.588,21.235,22.388C15.131,28.089,14.16,33.057,14.561,35.134C15.975,42.457,26.012,47.247,30.139,50.801L30.139,50.821C28.923,51.417,20.016,55.886,17.93,60.51C15.694,65.379,18.277,68.86,19.967,69.304C25.184,70.748,30.55,68.111,33.431,63.842C36.214,59.665,35.969,54.299,34.77,51.666C36.412,51.219,38.347,51.02,40.831,51.321C47.79,52.116,49.181,56.488,48.88,58.277C48.582,60.062,47.148,61.106,46.648,61.404C46.151,61.705,46.002,61.801,46.048,62.003C46.098,62.302,46.349,62.302,46.744,62.252C47.29,62.153,50.374,60.761,50.523,57.379C50.672,53.107,46.595,48.34,39.344,48.436C36.363,48.489,34.471,48.738,33.133,49.284C33.034,49.135,32.931,49.036,32.785,48.936C28.314,44.117,20.016,40.738,20.364,34.329C20.464,31.994,21.308,25.836,36.263,18.383C48.536,12.269,58.327,13.961,60.016,17.688C62.444,23.001,54.796,32.891,42.027,34.329C37.158,34.876,34.624,32.991,33.975,32.292C33.282,31.547,33.183,31.497,32.934,31.649C32.537,31.848,32.785,32.494,32.934,32.891C33.332,33.885,34.872,35.624,37.558,36.518C39.89,37.264,45.607,37.708,52.464,35.028C60.162,32.05,66.174,23.749,64.435,16.794L64.677,17.015ZM64.677,17.015"/>
</g>
        <g id="Heavy-S" transform="matrix(1.0,0.0,0.0,1.0,2598.222053736266,621.0220732675162)">  <path fill-rule="nonzero" stroke-linejoin="miter" stroke-opacity="1" stroke="none" stroke-linecap="butt" fill="#000000" stroke-width="1px" stroke-miterlimit="4" stroke-dasharray="none" fill-opacity="1" role="img" d="M39.748,0C61.699,0,79.496,17.797,79.496,39.748C79.496,61.699,61.699,79.496,39.748,79.496C17.797,79.496,0,61.699,0,39.748C0,17.797,17.797,0,39.748,0ZM31.848,52.991C32.428,55.127,32.365,57.124,31.769,58.926L31.553,59.523C31.474,59.725,31.381,59.92,31.295,60.106C30.831,61.066,30.215,61.96,29.457,62.789C27.145,65.303,23.918,66.257,22.534,65.455C21.043,64.587,21.785,61.033,24.468,58.201C27.353,55.16,31.49,53.203,31.49,53.203L31.49,53.193L31.848,52.991ZM64.677,17.015C62.881,9.95,51.172,7.628,40.092,11.567C33.504,13.908,26.366,17.588,21.235,22.388C15.131,28.089,14.16,33.057,14.561,35.134C15.975,42.457,26.012,47.247,30.139,50.801L30.139,50.821C28.923,51.417,20.016,55.886,17.93,60.51C15.694,65.379,18.277,68.86,19.967,69.304C25.184,70.748,30.55,68.111,33.431,63.842C36.214,59.665,35.969,54.299,34.77,51.666C36.412,51.219,38.347,51.02,40.831,51.321C47.79,52.116,49.181,56.488,48.88,58.277C48.582,60.062,47.148,61.106,46.648,61.404C46.151,61.705,46.002,61.801,46.048,62.003C46.098,62.302,46.349,62.302,46.744,62.252C47.29,62.153,50.374,60.761,50.523,57.379C50.672,53.107,46.595,48.34,39.344,48.436C36.363,48.489,34.471,48.738,33.133,49.284C33.034,49.135,32.931,49.036,32.785,48.936C28.314,44.117,20.016,40.738,20.364,34.329C20.464,31.994,21.308,25.836,36.263,18.383C48.536,12.269,58.327,13.961,60.016,17.688C62.444,23.001,54.796,32.891,42.027,34.329C37.158,34.876,34.624,32.991,33.975,32.292C33.282,31.547,33.183,31.497,32.934,31.649C32.537,31.848,32.785,32.494,32.934,32.891C33.332,33.885,34.872,35.624,37.558,36.518C39.89,37.264,45.607,37.708,52.464,35.028C60.162,32.05,66.174,23.749,64.435,16.794L64.677,17.015ZM64.677,17.015"/>
</g>
        <g id="Bold-S" transform="matrix(1.0,0.0,0.0,1.0,2301.512053736266,621.0220732675162)">  <path stroke-dasharray="none" stroke-opacity="1" stroke-miterlimit="4" fill-rule="nonzero" fill="#000000" stroke-linejoin="miter" fill-opacity="1" role="img" stroke="none" stroke-linecap="butt" stroke-width="1px" d="M39.748,0C61.699,0,79.496,17.797,79.496,39.748C79.496,61.699,61.699,79.496,39.748,79.496C17.797,79.496,0,61.699,0,39.748C0,17.797,17.797,0,39.748,0ZM31.848,52.991C32.428,55.127,32.365,57.124,31.769,58.926L31.553,59.523C31.474,59.725,31.381,59.92,31.295,60.106C30.831,61.066,30.215,61.96,29.457,62.789C27.145,65.303,23.918,66.257,22.534,65.455C21.043,64.587,21.785,61.033,24.468,58.201C27.353,55.16,31.49,53.203,31.49,53.203L31.49,53.193L31.848,52.991ZM64.677,17.015C62.881,9.95,51.172,7.628,40.092,11.567C33.504,13.908,26.366,17.588,21.235,22.388C15.131,28.089,14.16,33.057,14.561,35.134C15.975,42.457,26.012,47.247,30.139,50.801L30.139,50.821C28.923,51.417,20.016,55.886,17.93,60.51C15.694,65.379,18.277,68.86,19.967,69.304C25.184,70.748,30.55,68.111,33.431,63.842C36.214,59.665,35.969,54.299,34.77,51.666C36.412,51.219,38.347,51.02,40.831,51.321C47.79,52.116,49.181,56.488,48.88,58.277C48.582,60.062,47.148,61.106,46.648,61.404C46.151,61.705,46.002,61.801,46.048,62.003C46.098,62.302,46.349,62.302,46.744,62.252C47.29,62.153,50.374,60.761,50.523,57.379C50.672,53.107,46.595,48.34,39.344,48.436C36.363,48.489,34.471,48.738,33.133,49.284C33.034,49.135,32.931,49.036,32.785,48.936C28.314,44.117,20.016,40.738,20.364,34.329C20.464,31.994,21.308,25.836,36.263,18.383C48.536,12.269,58.327,13.961,60.016,17.688C62.444,23.001,54.796,32.891,42.027,34.329C37.158,34.876,34.624,32.991,33.975,32.292C33.282,31.547,33.183,31.497,32.934,31.649C32.537,31.848,32.785,32.494,32.934,32.891C33.332,33.885,34.872,35.624,37.558,36.518C39.89,37.264,45.607,37.708,52.464,35.028C60.162,32.05,66.174,23.749,64.435,16.794L64.677,17.015ZM64.677,17.015"/>
</g>
        <g id="Semibold-S" transform="matrix(1.0,0.0,0.0,1.0,2004.802053736266,621.0220732675162)">  <path stroke-dasharray="none" stroke="none" fill-rule="nonzero" fill-opacity="1" stroke-width="1px" stroke-miterlimit="4" fill="#000000" stroke-linejoin="miter" role="img" stroke-opacity="1" stroke-linecap="butt" d="M39.748,0C61.699,0,79.496,17.797,79.496,39.748C79.496,61.699,61.699,79.496,39.748,79.496C17.797,79.496,0,61.699,0,39.748C0,17.797,17.797,0,39.748,0ZM31.848,52.991C32.428,55.127,32.365,57.124,31.769,58.926L31.553,59.523C31.474,59.725,31.381,59.92,31.295,60.106C30.831,61.066,30.215,61.96,29.457,62.789C27.145,65.303,23.918,66.257,22.534,65.455C21.043,64.587,21.785,61.033,24.468,58.201C27.353,55.16,31.49,53.203,31.49,53.203L31.49,53.193L31.848,52.991ZM64.677,17.015C62.881,9.95,51.172,7.628,40.092,11.567C33.504,13.908,26.366,17.588,21.235,22.388C15.131,28.089,14.16,33.057,14.561,35.134C15.975,42.457,26.012,47.247,30.139,50.801L30.139,50.821C28.923,51.417,20.016,55.886,17.93,60.51C15.694,65.379,18.277,68.86,19.967,69.304C25.184,70.748,30.55,68.111,33.431,63.842C36.214,59.665,35.969,54.299,34.77,51.666C36.412,51.219,38.347,51.02,40.831,51.321C47.79,52.116,49.181,56.488,48.88,58.277C48.582,60.062,47.148,61.106,46.648,61.404C46.151,61.705,46.002,61.801,46.048,62.003C46.098,62.302,46.349,62.302,46.744,62.252C47.29,62.153,50.374,60.761,50.523,57.379C50.672,53.107,46.595,48.34,39.344,48.436C36.363,48.489,34.471,48.738,33.133,49.284C33.034,49.135,32.931,49.036,32.785,48.936C28.314,44.117,20.016,40.738,20.364,34.329C20.464,31.994,21.308,25.836,36.263,18.383C48.536,12.269,58.327,13.961,60.016,17.688C62.444,23.001,54.796,32.891,42.027,34.329C37.158,34.876,34.624,32.991,33.975,32.292C33.282,31.547,33.183,31.497,32.934,31.649C32.537,31.848,32.785,32.494,32.934,32.891C33.332,33.885,34.872,35.624,37.558,36.518C39.89,37.264,45.607,37.708,52.464,35.028C60.162,32.05,66.174,23.749,64.435,16.794L64.677,17.015ZM64.677,17.015"/>
</g>
        <g id="Medium-S" transform="matrix(1.0,0.0,0.0,1.0,1708.092053736266,621.0220732675162)">  <path stroke-linecap="butt" stroke-miterlimit="4" stroke="none" role="img" fill-rule="nonzero" stroke-width="1px" stroke-opacity="1" fill-opacity="1" fill="#000000" stroke-dasharray="none" stroke-linejoin="miter" d="M39.748,0C61.699,0,79.496,17.797,79.496,39.748C79.496,61.699,61.699,79.496,39.748,79.496C17.797,79.496,0,61.699,0,39.748C0,17.797,17.797,0,39.748,0ZM31.848,52.991C32.428,55.127,32.365,57.124,31.769,58.926L31.553,59.523C31.474,59.725,31.381,59.92,31.295,60.106C30.831,61.066,30.215,61.96,29.457,62.789C27.145,65.303,23.918,66.257,22.534,65.455C21.043,64.587,21.785,61.033,24.468,58.201C27.353,55.16,31.49,53.203,31.49,53.203L31.49,53.193L31.848,52.991ZM64.677,17.015C62.881,9.95,51.172,7.628,40.092,11.567C33.504,13.908,26.366,17.588,21.235,22.388C15.131,28.089,14.16,33.057,14.561,35.134C15.975,42.457,26.012,47.247,30.139,50.801L30.139,50.821C28.923,51.417,20.016,55.886,17.93,60.51C15.694,65.379,18.277,68.86,19.967,69.304C25.184,70.748,30.55,68.111,33.431,63.842C36.214,59.665,35.969,54.299,34.77,51.666C36.412,51.219,38.347,51.02,40.831,51.321C47.79,52.116,49.181,56.488,48.88,58.277C48.582,60.062,47.148,61.106,46.648,61.404C46.151,61.705,46.002,61.801,46.048,62.003C46.098,62.302,46.349,62.302,46.744,62.252C47.29,62.153,50.374,60.761,50.523,57.379C50.672,53.107,46.595,48.34,39.344,48.436C36.363,48.489,34.471,48.738,33.133,49.284C33.034,49.135,32.931,49.036,32.785,48.936C28.314,44.117,20.016,40.738,20.364,34.329C20.464,31.994,21.308,25.836,36.263,18.383C48.536,12.269,58.327,13.961,60.016,17.688C62.444,23.001,54.796,32.891,42.027,34.329C37.158,34.876,34.624,32.991,33.975,32.292C33.282,31.547,33.183,31.497,32.934,31.649C32.537,31.848,32.785,32.494,32.934,32.891C33.332,33.885,34.872,35.624,37.558,36.518C39.89,37.264,45.607,37.708,52.464,35.028C60.162,32.05,66.174,23.749,64.435,16.794L64.677,17.015ZM64.677,17.015"/>
</g>
        <g id="Regular-S" transform="matrix(1.0,0.0,0.0,1.0,1411.382053736266,621.0220732675162)">  <path fill-rule="nonzero" fill="#000000" fill-opacity="1" stroke="none" stroke-miterlimit="4" role="img" stroke-linecap="butt" stroke-dasharray="none" stroke-linejoin="miter" stroke-opacity="1" stroke-width="1px" d="M39.748,0C61.699,0,79.496,17.797,79.496,39.748C79.496,61.699,61.699,79.496,39.748,79.496C17.797,79.496,0,61.699,0,39.748C0,17.797,17.797,0,39.748,0ZM31.848,52.991C32.428,55.127,32.365,57.124,31.769,58.926L31.553,59.523C31.474,59.725,31.381,59.92,31.295,60.106C30.831,61.066,30.215,61.96,29.457,62.789C27.145,65.303,23.918,66.257,22.534,65.455C21.043,64.587,21.785,61.033,24.468,58.201C27.353,55.16,31.49,53.203,31.49,53.203L31.49,53.193L31.848,52.991ZM64.677,17.015C62.881,9.95,51.172,7.628,40.092,11.567C33.504,13.908,26.366,17.588,21.235,22.388C15.131,28.089,14.16,33.057,14.561,35.134C15.975,42.457,26.012,47.247,30.139,50.801L30.139,50.821C28.923,51.417,20.016,55.886,17.93,60.51C15.694,65.379,18.277,68.86,19.967,69.304C25.184,70.748,30.55,68.111,33.431,63.842C36.214,59.665,35.969,54.299,34.77,51.666C36.412,51.219,38.347,51.02,40.831,51.321C47.79,52.116,49.181,56.488,48.88,58.277C48.582,60.062,47.148,61.106,46.648,61.404C46.151,61.705,46.002,61.801,46.048,62.003C46.098,62.302,46.349,62.302,46.744,62.252C47.29,62.153,50.374,60.761,50.523,57.379C50.672,53.107,46.595,48.34,39.344,48.436C36.363,48.489,34.471,48.738,33.133,49.284C33.034,49.135,32.931,49.036,32.785,48.936C28.314,44.117,20.016,40.738,20.364,34.329C20.464,31.994,21.308,25.836,36.263,18.383C48.536,12.269,58.327,13.961,60.016,17.688C62.444,23.001,54.796,32.891,42.027,34.329C37.158,34.876,34.624,32.991,33.975,32.292C33.282,31.547,33.183,31.497,32.934,31.649C32.537,31.848,32.785,32.494,32.934,32.891C33.332,33.885,34.872,35.624,37.558,36.518C39.89,37.264,45.607,37.708,52.464,35.028C60.162,32.05,66.174,23.749,64.435,16.794L64.677,17.015ZM64.677,17.015"/>
</g>
        <g id="Light-S" transform="matrix(1.0,0.0,0.0,1.0,1114.6720537362662,621.0220732675162)">  <path stroke-opacity="1" fill-opacity="1" stroke-miterlimit="4" fill="#000000" stroke-linecap="butt" stroke-width="1px" role="img" stroke="none" stroke-linejoin="miter" fill-rule="nonzero" stroke-dasharray="none" d="M39.748,0C61.699,0,79.496,17.797,79.496,39.748C79.496,61.699,61.699,79.496,39.748,79.496C17.797,79.496,0,61.699,0,39.748C0,17.797,17.797,0,39.748,0ZM31.848,52.991C32.428,55.127,32.365,57.124,31.769,58.926L31.553,59.523C31.474,59.725,31.381,59.92,31.295,60.106C30.831,61.066,30.215,61.96,29.457,62.789C27.145,65.303,23.918,66.257,22.534,65.455C21.043,64.587,21.785,61.033,24.468,58.201C27.353,55.16,31.49,53.203,31.49,53.203L31.49,53.193L31.848,52.991ZM64.677,17.015C62.881,9.95,51.172,7.628,40.092,11.567C33.504,13.908,26.366,17.588,21.235,22.388C15.131,28.089,14.16,33.057,14.561,35.134C15.975,42.457,26.012,47.247,30.139,50.801L30.139,50.821C28.923,51.417,20.016,55.886,17.93,60.51C15.694,65.379,18.277,68.86,19.967,69.304C25.184,70.748,30.55,68.111,33.431,63.842C36.214,59.665,35.969,54.299,34.77,51.666C36.412,51.219,38.347,51.02,40.831,51.321C47.79,52.116,49.181,56.488,48.88,58.277C48.582,60.062,47.148,61.106,46.648,61.404C46.151,61.705,46.002,61.801,46.048,62.003C46.098,62.302,46.349,62.302,46.744,62.252C47.29,62.153,50.374,60.761,50.523,57.379C50.672,53.107,46.595,48.34,39.344,48.436C36.363,48.489,34.471,48.738,33.133,49.284C33.034,49.135,32.931,49.036,32.785,48.936C28.314,44.117,20.016,40.738,20.364,34.329C20.464,31.994,21.308,25.836,36.263,18.383C48.536,12.269,58.327,13.961,60.016,17.688C62.444,23.001,54.796,32.891,42.027,34.329C37.158,34.876,34.624,32.991,33.975,32.292C33.282,31.547,33.183,31.497,32.934,31.649C32.537,31.848,32.785,32.494,32.934,32.891C33.332,33.885,34.872,35.624,37.558,36.518C39.89,37.264,45.607,37.708,52.464,35.028C60.162,32.05,66.174,23.749,64.435,16.794L64.677,17.015ZM64.677,17.015"/>
</g>
        <g id="Thin-S" transform="matrix(1.0,0.0,0.0,1.0,817.9620537362663,621.0220732675162)">  <path stroke-miterlimit="4" stroke-dasharray="none" stroke-linecap="butt" stroke-opacity="1" fill-opacity="1" role="img" stroke-linejoin="miter" stroke="none" stroke-width="1px" fill-rule="nonzero" fill="#000000" d="M39.748,0C61.699,0,79.496,17.797,79.496,39.748C79.496,61.699,61.699,79.496,39.748,79.496C17.797,79.496,0,61.699,0,39.748C0,17.797,17.797,0,39.748,0ZM31.848,52.991C32.428,55.127,32.365,57.124,31.769,58.926L31.553,59.523C31.474,59.725,31.381,59.92,31.295,60.106C30.831,61.066,30.215,61.96,29.457,62.789C27.145,65.303,23.918,66.257,22.534,65.455C21.043,64.587,21.785,61.033,24.468,58.201C27.353,55.16,31.49,53.203,31.49,53.203L31.49,53.193L31.848,52.991ZM64.677,17.015C62.881,9.95,51.172,7.628,40.092,11.567C33.504,13.908,26.366,17.588,21.235,22.388C15.131,28.089,14.16,33.057,14.561,35.134C15.975,42.457,26.012,47.247,30.139,50.801L30.139,50.821C28.923,51.417,20.016,55.886,17.93,60.51C15.694,65.379,18.277,68.86,19.967,69.304C25.184,70.748,30.55,68.111,33.431,63.842C36.214,59.665,35.969,54.299,34.77,51.666C36.412,51.219,38.347,51.02,40.831,51.321C47.79,52.116,49.181,56.488,48.88,58.277C48.582,60.062,47.148,61.106,46.648,61.404C46.151,61.705,46.002,61.801,46.048,62.003C46.098,62.302,46.349,62.302,46.744,62.252C47.29,62.153,50.374,60.761,50.523,57.379C50.672,53.107,46.595,48.34,39.344,48.436C36.363,48.489,34.471,48.738,33.133,49.284C33.034,49.135,32.931,49.036,32.785,48.936C28.314,44.117,20.016,40.738,20.364,34.329C20.464,31.994,21.308,25.836,36.263,18.383C48.536,12.269,58.327,13.961,60.016,17.688C62.444,23.001,54.796,32.891,42.027,34.329C37.158,34.876,34.624,32.991,33.975,32.292C33.282,31.547,33.183,31.497,32.934,31.649C32.537,31.848,32.785,32.494,32.934,32.891C33.332,33.885,34.872,35.624,37.558,36.518C39.89,37.264,45.607,37.708,52.464,35.028C60.162,32.05,66.174,23.749,64.435,16.794L64.677,17.015ZM64.677,17.015"/>
</g>
        <g id="Ultralight-S" transform="matrix(1.0,0.0,0.0,1.0,521.2520537362662,621.0220732675162)">  <path fill-opacity="1" stroke="none" stroke-linecap="butt" role="img" stroke-linejoin="miter" stroke-miterlimit="4" stroke-opacity="1" stroke-dasharray="none" fill="#000000" fill-rule="nonzero" stroke-width="1px" d="M39.748,0C61.699,0,79.496,17.797,79.496,39.748C79.496,61.699,61.699,79.496,39.748,79.496C17.797,79.496,0,61.699,0,39.748C0,17.797,17.797,0,39.748,0ZM31.848,52.991C32.428,55.127,32.365,57.124,31.769,58.926L31.553,59.523C31.474,59.725,31.381,59.92,31.295,60.106C30.831,61.066,30.215,61.96,29.457,62.789C27.145,65.303,23.918,66.257,22.534,65.455C21.043,64.587,21.785,61.033,24.468,58.201C27.353,55.16,31.49,53.203,31.49,53.203L31.49,53.193L31.848,52.991ZM64.677,17.015C62.881,9.95,51.172,7.628,40.092,11.567C33.504,13.908,26.366,17.588,21.235,22.388C15.131,28.089,14.16,33.057,14.561,35.134C15.975,42.457,26.012,47.247,30.139,50.801L30.139,50.821C28.923,51.417,20.016,55.886,17.93,60.51C15.694,65.379,18.277,68.86,19.967,69.304C25.184,70.748,30.55,68.111,33.431,63.842C36.214,59.665,35.969,54.299,34.77,51.666C36.412,51.219,38.347,51.02,40.831,51.321C47.79,52.116,49.181,56.488,48.88,58.277C48.582,60.062,47.148,61.106,46.648,61.404C46.151,61.705,46.002,61.801,46.048,62.003C46.098,62.302,46.349,62.302,46.744,62.252C47.29,62.153,50.374,60.761,50.523,57.379C50.672,53.107,46.595,48.34,39.344,48.436C36.363,48.489,34.471,48.738,33.133,49.284C33.034,49.135,32.931,49.036,32.785,48.936C28.314,44.117,20.016,40.738,20.364,34.329C20.464,31.994,21.308,25.836,36.263,18.383C48.536,12.269,58.327,13.961,60.016,17.688C62.444,23.001,54.796,32.891,42.027,34.329C37.158,34.876,34.624,32.991,33.975,32.292C33.282,31.547,33.183,31.497,32.934,31.649C32.537,31.848,32.785,32.494,32.934,32.891C33.332,33.885,34.872,35.624,37.558,36.518C39.89,37.264,45.607,37.708,52.464,35.028C60.162,32.05,66.174,23.749,64.435,16.794L64.677,17.015ZM64.677,17.015"/>
</g>
    </g>
    </g>
</svg>
