<?xml version="1.0" encoding="UTF-8"?>
<!--Generator: CustomSymbols by @serious_bret-->
<!DOCTYPE svg
        PUBLIC "-//W3C//DTD SVG 1.1//EN"
        "http://www.w3.org/Graphics/SVG/1.1/DTD/svg11.dtd">
<svg version="1.1" xmlns="http://www.w3.org/2000/svg" xmlns:xlink="http://www.w3.org/1999/xlink" width="2900" height="1500">
    <g transform="translate(-200 -200)">
    <!--template writer version: "8"-->
    <g id="Notes">
        <rect height="2200" id="artboard" style="fill:white;opacity:1" width="3300" x="0" y="0"/>
        <line id="" style="fill:none;stroke:black;opacity:1;stroke-width:0.5;" x1="263" x2="3036" y1="292" y2="292"/>
        <text id="reftext1" style="stroke:none;fill:black;font-family:-apple-system,&quot;SF Pro Display&quot;,&quot;SF Pro Text&quot;,Helvetica,sans-serif;font-weight:bold;" transform="matrix(1 0 0 1 263 322)">Weight/Scale Variations</text>
        <text id="reftext2" style="stroke:none;fill:black;font-family:-apple-system,&quot;SF Pro Display&quot;,&quot;SF Pro Text&quot;,Helvetica,sans-serif;text-anchor:middle;" transform="matrix(1 0 0 1 559.711 322)">Ultralight</text>
        <text style="stroke:none;fill:black;font-family:-apple-system,&quot;SF Pro Display&quot;,&quot;SF Pro Text&quot;,Helvetica,sans-serif;text-anchor:middle;" transform="matrix(1 0 0 1 856.422 322)">Thin</text>
        <text style="stroke:none;fill:black;font-family:-apple-system,&quot;SF Pro Display&quot;,&quot;SF Pro Text&quot;,Helvetica,sans-serif;text-anchor:middle;" transform="matrix(1 0 0 1 1153.13 322)">Light</text>
        <text style="stroke:none;fill:black;font-family:-apple-system,&quot;SF Pro Display&quot;,&quot;SF Pro Text&quot;,Helvetica,sans-serif;text-anchor:middle;" transform="matrix(1 0 0 1 1449.84 322)">Regular</text>
        <text style="stroke:none;fill:black;font-family:-apple-system,&quot;SF Pro Display&quot;,&quot;SF Pro Text&quot;,Helvetica,sans-serif;text-anchor:middle;" transform="matrix(1 0 0 1 1746.56 322)">Medium</text>
        <text style="stroke:none;fill:black;font-family:-apple-system,&quot;SF Pro Display&quot;,&quot;SF Pro Text&quot;,Helvetica,sans-serif;text-anchor:middle;" transform="matrix(1 0 0 1 2043.27 322)">Semibold</text>
        <text style="stroke:none;fill:black;font-family:-apple-system,&quot;SF Pro Display&quot;,&quot;SF Pro Text&quot;,Helvetica,sans-serif;text-anchor:middle;" transform="matrix(1 0 0 1 2339.98 322)">Bold</text>
        <text style="stroke:none;fill:black;font-family:-apple-system,&quot;SF Pro Display&quot;,&quot;SF Pro Text&quot;,Helvetica,sans-serif;text-anchor:middle;" transform="matrix(1 0 0 1 2636.69 322)">Heavy</text>
        <text style="stroke:none;fill:black;font-family:-apple-system,&quot;SF Pro Display&quot;,&quot;SF Pro Text&quot;,Helvetica,sans-serif;text-anchor:middle;" transform="matrix(1 0 0 1 2933.4 322)">Black</text>

        <text style="stroke:none;fill:black;font-family:-apple-system,&quot;SF Pro Display&quot;,&quot;SF Pro Text&quot;,Helvetica,sans-serif;" transform="matrix(1 0 0 1 263 726)">Small</text>
        <text style="stroke:none;fill:black;font-family:-apple-system,&quot;SF Pro Display&quot;,&quot;SF Pro Text&quot;,Helvetica,sans-serif;" transform="matrix(1 0 0 1 263 1156)">Medium</text>
        <text style="stroke:none;fill:black;font-family:-apple-system,&quot;SF Pro Display&quot;,&quot;SF Pro Text&quot;,Helvetica,sans-serif;" transform="matrix(1 0 0 1 263 1586)">Large</text>
    </g>
    <g id="Guides">
        <g id="H-reference" style="fill:#27AAE1;stroke:none;" transform="matrix(1 0 0 1 339 696)">
            <path d="M0.976562 0L3.66211 0L12.9883-24.4629L45.752-24.4629L55.127 0L57.7637 0L30.6152-70.459L28.125-70.459ZM29.3457-67.1387L29.4434-67.1387L44.873-26.709L13.8672-26.709Z"/>
        </g>
        <line id="Baseline-S" style="fill:none;stroke:#27AAE1;opacity:1;stroke-width:0.5;" x1="263" x2="3036" y1="696" y2="696"/>
        <line id="Capline-S" style="fill:none;stroke:#27AAE1;opacity:1;stroke-width:0.5;" x1="263" x2="3036" y1="625.541" y2="625.541"/>
        <g id="H-reference" style="fill:#27AAE1;stroke:none;" transform="matrix(1 0 0 1 339 1126)">
            <path d="M0.976562 0L3.66211 0L12.9883-24.4629L45.752-24.4629L55.127 0L57.7637 0L30.6152-70.459L28.125-70.459ZM29.3457-67.1387L29.4434-67.1387L44.873-26.709L13.8672-26.709Z"/>
        </g>
        <line id="Baseline-M" style="fill:none;stroke:#27AAE1;opacity:1;stroke-width:0.5;" x1="263" x2="3036" y1="1126" y2="1126"/>
        <line id="Capline-M" style="fill:none;stroke:#27AAE1;opacity:1;stroke-width:0.5;" x1="263" x2="3036" y1="1055.54" y2="1055.54"/>
        <g id="H-reference" style="fill:#27AAE1;stroke:none;" transform="matrix(1 0 0 1 339 1556)">
            <path d="M0.976562 0L3.66211 0L12.9883-24.4629L45.752-24.4629L55.127 0L57.7637 0L30.6152-70.459L28.125-70.459ZM29.3457-67.1387L29.4434-67.1387L44.873-26.709L13.8672-26.709Z"/>
        </g>
        <line id="Baseline-L" style="fill:none;stroke:#27AAE1;opacity:1;stroke-width:0.5;" x1="263" x2="3036" y1="1556" y2="1556"/>
        <line id="Capline-L" style="fill:none;stroke:#27AAE1;opacity:1;stroke-width:0.5;" x1="263" x2="3036" y1="1485.54" y2="1485.54"/>
        <line id="left-margin" x1="1417.3214020285482" x2="1417.3214020285482" y1="1030.79" y2="1150.12" style="fill:none;stroke:#00AEEF;stroke-width:0.5;opacity:1.0;"/>
        <line id="right-margin" x1="1484.9385979714516" x2="1484.9385979714516" y1="1030.79" y2="1150.12" style="fill:none;stroke:#00AEEF;stroke-width:0.5;opacity:1.0;"/>
    </g>
    <g id="Symbols">
        <g id="Black-L" transform="matrix(1.0,0.0,0.0,1.0,2869.1948778030437,1455.2848973342939)">  <path stroke-dasharray="none" stroke-linecap="butt" stroke-miterlimit="4" stroke-linejoin="miter" fill-rule="nonzero" stroke-width="1px" stroke="none" role="img" stroke-opacity="1" fill="#000000" fill-opacity="1" d="M65.485,4.709C29.141,4.709,0,34.112,0,70.833C0,76.268,0.207,78.331,1.342,83.548L21.326,98.337L24.437,122.976L57.736,122.976L59.515,124.214C61.572,125.644,63.362,126.261,65.42,126.261C67.341,126.261,69.414,125.71,71.008,124.553L73.136,122.976L106.391,122.976L109.464,98.337L129.628,83.548C130.763,78.331,130.97,76.268,130.97,70.833C130.97,34.118,101.835,4.709,65.485,4.709ZM70.92,17.032C75.832,17.032,80.623,18.254,84.629,20.573L71.177,89.049L89.84,23.225C95.619,25.19,100.007,28.361,103.527,33.125L103.663,33.31L76.912,91.237L107.319,38.232L107.499,38.396C111.636,42.26,114.304,46.947,115.641,52.846L81.835,94.681L116.956,59.209L117.011,59.324C118.392,62.396,119.287,66.746,119.287,70.216C119.287,72.994,119.156,74.102,118.392,77.038L98.997,91.237L96.449,111.483L72.028,111.483L69.207,113.639C68.121,114.501,66.577,115.09,65.485,115.09C64.399,115.09,62.849,114.501,61.763,113.639L58.942,111.488L34.5,111.488L32.071,91.788L12.278,77.24C11.678,74.86,11.405,72.71,11.405,70.358C11.405,66.429,12.273,62.227,13.73,59.155L13.801,59.024L48.999,94.773L15.007,52.503C16.371,46.702,19.777,41.097,23.957,37.698L54.2,91.046L27.171,33.288C30.2,28.846,35.084,25.348,41.065,23.318L59.75,89.18L45.594,20.824L45.894,20.661C50.336,18.205,54.615,17.075,59.302,17.075C60.366,17.075,60.863,17.097,62.184,17.239L65.387,88.454L67.897,17.19C69.12,17.053,69.583,17.032,70.92,17.032ZM70.92,17.032"/>
</g>
        <g id="Heavy-L" transform="matrix(1.0,0.0,0.0,1.0,2572.4848778030437,1455.2848973342939)">  <path fill-rule="nonzero" stroke-linecap="butt" role="img" stroke-linejoin="miter" fill="#000000" stroke-miterlimit="4" stroke="none" stroke-opacity="1" stroke-dasharray="none" fill-opacity="1" stroke-width="1px" d="M65.485,4.709C29.141,4.709,0,34.112,0,70.833C0,76.268,0.207,78.331,1.342,83.548L21.326,98.337L24.437,122.976L57.736,122.976L59.515,124.214C61.572,125.644,63.362,126.261,65.42,126.261C67.341,126.261,69.414,125.71,71.008,124.553L73.136,122.976L106.391,122.976L109.464,98.337L129.628,83.548C130.763,78.331,130.97,76.268,130.97,70.833C130.97,34.118,101.835,4.709,65.485,4.709ZM70.92,17.032C75.832,17.032,80.623,18.254,84.629,20.573L71.177,89.049L89.84,23.225C95.619,25.19,100.007,28.361,103.527,33.125L103.663,33.31L76.912,91.237L107.319,38.232L107.499,38.396C111.636,42.26,114.304,46.947,115.641,52.846L81.835,94.681L116.956,59.209L117.011,59.324C118.392,62.396,119.287,66.746,119.287,70.216C119.287,72.994,119.156,74.102,118.392,77.038L98.997,91.237L96.449,111.483L72.028,111.483L69.207,113.639C68.121,114.501,66.577,115.09,65.485,115.09C64.399,115.09,62.849,114.501,61.763,113.639L58.942,111.488L34.5,111.488L32.071,91.788L12.278,77.24C11.678,74.86,11.405,72.71,11.405,70.358C11.405,66.429,12.273,62.227,13.73,59.155L13.801,59.024L48.999,94.773L15.007,52.503C16.371,46.702,19.777,41.097,23.957,37.698L54.2,91.046L27.171,33.288C30.2,28.846,35.084,25.348,41.065,23.318L59.75,89.18L45.594,20.824L45.894,20.661C50.336,18.205,54.615,17.075,59.302,17.075C60.366,17.075,60.863,17.097,62.184,17.239L65.387,88.454L67.897,17.19C69.12,17.053,69.583,17.032,70.92,17.032ZM70.92,17.032"/>
</g>
        <g id="Bold-L" transform="matrix(1.0,0.0,0.0,1.0,2275.7748778030436,1455.2848973342939)">  <path stroke-linecap="butt" stroke-dasharray="none" stroke-linejoin="miter" fill="#000000" role="img" stroke-width="1px" stroke="none" stroke-miterlimit="4" fill-rule="nonzero" stroke-opacity="1" fill-opacity="1" d="M65.485,4.709C29.141,4.709,0,34.112,0,70.833C0,76.268,0.207,78.331,1.342,83.548L21.326,98.337L24.437,122.976L57.736,122.976L59.515,124.214C61.572,125.644,63.362,126.261,65.42,126.261C67.341,126.261,69.414,125.71,71.008,124.553L73.136,122.976L106.391,122.976L109.464,98.337L129.628,83.548C130.763,78.331,130.97,76.268,130.97,70.833C130.97,34.118,101.835,4.709,65.485,4.709ZM70.92,17.032C75.832,17.032,80.623,18.254,84.629,20.573L71.177,89.049L89.84,23.225C95.619,25.19,100.007,28.361,103.527,33.125L103.663,33.31L76.912,91.237L107.319,38.232L107.499,38.396C111.636,42.26,114.304,46.947,115.641,52.846L81.835,94.681L116.956,59.209L117.011,59.324C118.392,62.396,119.287,66.746,119.287,70.216C119.287,72.994,119.156,74.102,118.392,77.038L98.997,91.237L96.449,111.483L72.028,111.483L69.207,113.639C68.121,114.501,66.577,115.09,65.485,115.09C64.399,115.09,62.849,114.501,61.763,113.639L58.942,111.488L34.5,111.488L32.071,91.788L12.278,77.24C11.678,74.86,11.405,72.71,11.405,70.358C11.405,66.429,12.273,62.227,13.73,59.155L13.801,59.024L48.999,94.773L15.007,52.503C16.371,46.702,19.777,41.097,23.957,37.698L54.2,91.046L27.171,33.288C30.2,28.846,35.084,25.348,41.065,23.318L59.75,89.18L45.594,20.824L45.894,20.661C50.336,18.205,54.615,17.075,59.302,17.075C60.366,17.075,60.863,17.097,62.184,17.239L65.387,88.454L67.897,17.19C69.12,17.053,69.583,17.032,70.92,17.032ZM70.92,17.032"/>
</g>
        <g id="Semibold-L" transform="matrix(1.0,0.0,0.0,1.0,1979.0648778030438,1455.2848973342939)">  <path stroke-linejoin="miter" fill-opacity="1" fill="#000000" stroke-width="1px" stroke-linecap="butt" stroke-miterlimit="4" stroke-opacity="1" fill-rule="nonzero" stroke="none" role="img" stroke-dasharray="none" d="M65.485,4.709C29.141,4.709,0,34.112,0,70.833C0,76.268,0.207,78.331,1.342,83.548L21.326,98.337L24.437,122.976L57.736,122.976L59.515,124.214C61.572,125.644,63.362,126.261,65.42,126.261C67.341,126.261,69.414,125.71,71.008,124.553L73.136,122.976L106.391,122.976L109.464,98.337L129.628,83.548C130.763,78.331,130.97,76.268,130.97,70.833C130.97,34.118,101.835,4.709,65.485,4.709ZM70.92,17.032C75.832,17.032,80.623,18.254,84.629,20.573L71.177,89.049L89.84,23.225C95.619,25.19,100.007,28.361,103.527,33.125L103.663,33.31L76.912,91.237L107.319,38.232L107.499,38.396C111.636,42.26,114.304,46.947,115.641,52.846L81.835,94.681L116.956,59.209L117.011,59.324C118.392,62.396,119.287,66.746,119.287,70.216C119.287,72.994,119.156,74.102,118.392,77.038L98.997,91.237L96.449,111.483L72.028,111.483L69.207,113.639C68.121,114.501,66.577,115.09,65.485,115.09C64.399,115.09,62.849,114.501,61.763,113.639L58.942,111.488L34.5,111.488L32.071,91.788L12.278,77.24C11.678,74.86,11.405,72.71,11.405,70.358C11.405,66.429,12.273,62.227,13.73,59.155L13.801,59.024L48.999,94.773L15.007,52.503C16.371,46.702,19.777,41.097,23.957,37.698L54.2,91.046L27.171,33.288C30.2,28.846,35.084,25.348,41.065,23.318L59.75,89.18L45.594,20.824L45.894,20.661C50.336,18.205,54.615,17.075,59.302,17.075C60.366,17.075,60.863,17.097,62.184,17.239L65.387,88.454L67.897,17.19C69.12,17.053,69.583,17.032,70.92,17.032ZM70.92,17.032"/>
</g>
        <g id="Medium-L" transform="matrix(1.0,0.0,0.0,1.0,1682.3548778030438,1455.2848973342939)">  <path role="img" stroke-linecap="butt" stroke-opacity="1" fill-rule="nonzero" stroke-dasharray="none" stroke-miterlimit="4" stroke-linejoin="miter" fill="#000000" stroke-width="1px" fill-opacity="1" stroke="none" d="M65.485,4.709C29.141,4.709,0,34.112,0,70.833C0,76.268,0.207,78.331,1.342,83.548L21.326,98.337L24.437,122.976L57.736,122.976L59.515,124.214C61.572,125.644,63.362,126.261,65.42,126.261C67.341,126.261,69.414,125.71,71.008,124.553L73.136,122.976L106.391,122.976L109.464,98.337L129.628,83.548C130.763,78.331,130.97,76.268,130.97,70.833C130.97,34.118,101.835,4.709,65.485,4.709ZM70.92,17.032C75.832,17.032,80.623,18.254,84.629,20.573L71.177,89.049L89.84,23.225C95.619,25.19,100.007,28.361,103.527,33.125L103.663,33.31L76.912,91.237L107.319,38.232L107.499,38.396C111.636,42.26,114.304,46.947,115.641,52.846L81.835,94.681L116.956,59.209L117.011,59.324C118.392,62.396,119.287,66.746,119.287,70.216C119.287,72.994,119.156,74.102,118.392,77.038L98.997,91.237L96.449,111.483L72.028,111.483L69.207,113.639C68.121,114.501,66.577,115.09,65.485,115.09C64.399,115.09,62.849,114.501,61.763,113.639L58.942,111.488L34.5,111.488L32.071,91.788L12.278,77.24C11.678,74.86,11.405,72.71,11.405,70.358C11.405,66.429,12.273,62.227,13.73,59.155L13.801,59.024L48.999,94.773L15.007,52.503C16.371,46.702,19.777,41.097,23.957,37.698L54.2,91.046L27.171,33.288C30.2,28.846,35.084,25.348,41.065,23.318L59.75,89.18L45.594,20.824L45.894,20.661C50.336,18.205,54.615,17.075,59.302,17.075C60.366,17.075,60.863,17.097,62.184,17.239L65.387,88.454L67.897,17.19C69.12,17.053,69.583,17.032,70.92,17.032ZM70.92,17.032"/>
</g>
        <g id="Regular-L" transform="matrix(1.0,0.0,0.0,1.0,1385.6448778030438,1455.2848973342939)">  <path fill-rule="nonzero" stroke-dasharray="none" role="img" stroke="none" stroke-width="1px" stroke-linejoin="miter" fill-opacity="1" stroke-linecap="butt" fill="#000000" stroke-opacity="1" stroke-miterlimit="4" d="M65.485,4.709C29.141,4.709,0,34.112,0,70.833C0,76.268,0.207,78.331,1.342,83.548L21.326,98.337L24.437,122.976L57.736,122.976L59.515,124.214C61.572,125.644,63.362,126.261,65.42,126.261C67.341,126.261,69.414,125.71,71.008,124.553L73.136,122.976L106.391,122.976L109.464,98.337L129.628,83.548C130.763,78.331,130.97,76.268,130.97,70.833C130.97,34.118,101.835,4.709,65.485,4.709ZM70.92,17.032C75.832,17.032,80.623,18.254,84.629,20.573L71.177,89.049L89.84,23.225C95.619,25.19,100.007,28.361,103.527,33.125L103.663,33.31L76.912,91.237L107.319,38.232L107.499,38.396C111.636,42.26,114.304,46.947,115.641,52.846L81.835,94.681L116.956,59.209L117.011,59.324C118.392,62.396,119.287,66.746,119.287,70.216C119.287,72.994,119.156,74.102,118.392,77.038L98.997,91.237L96.449,111.483L72.028,111.483L69.207,113.639C68.121,114.501,66.577,115.09,65.485,115.09C64.399,115.09,62.849,114.501,61.763,113.639L58.942,111.488L34.5,111.488L32.071,91.788L12.278,77.24C11.678,74.86,11.405,72.71,11.405,70.358C11.405,66.429,12.273,62.227,13.73,59.155L13.801,59.024L48.999,94.773L15.007,52.503C16.371,46.702,19.777,41.097,23.957,37.698L54.2,91.046L27.171,33.288C30.2,28.846,35.084,25.348,41.065,23.318L59.75,89.18L45.594,20.824L45.894,20.661C50.336,18.205,54.615,17.075,59.302,17.075C60.366,17.075,60.863,17.097,62.184,17.239L65.387,88.454L67.897,17.19C69.12,17.053,69.583,17.032,70.92,17.032ZM70.92,17.032"/>
</g>
        <g id="Light-L" transform="matrix(1.0,0.0,0.0,1.0,1088.934877803044,1455.2848973342939)">  <path fill-opacity="1" stroke-linecap="butt" stroke-miterlimit="4" stroke="none" role="img" stroke-opacity="1" fill-rule="nonzero" fill="#000000" stroke-linejoin="miter" stroke-dasharray="none" stroke-width="1px" d="M65.485,4.709C29.141,4.709,0,34.112,0,70.833C0,76.268,0.207,78.331,1.342,83.548L21.326,98.337L24.437,122.976L57.736,122.976L59.515,124.214C61.572,125.644,63.362,126.261,65.42,126.261C67.341,126.261,69.414,125.71,71.008,124.553L73.136,122.976L106.391,122.976L109.464,98.337L129.628,83.548C130.763,78.331,130.97,76.268,130.97,70.833C130.97,34.118,101.835,4.709,65.485,4.709ZM70.92,17.032C75.832,17.032,80.623,18.254,84.629,20.573L71.177,89.049L89.84,23.225C95.619,25.19,100.007,28.361,103.527,33.125L103.663,33.31L76.912,91.237L107.319,38.232L107.499,38.396C111.636,42.26,114.304,46.947,115.641,52.846L81.835,94.681L116.956,59.209L117.011,59.324C118.392,62.396,119.287,66.746,119.287,70.216C119.287,72.994,119.156,74.102,118.392,77.038L98.997,91.237L96.449,111.483L72.028,111.483L69.207,113.639C68.121,114.501,66.577,115.09,65.485,115.09C64.399,115.09,62.849,114.501,61.763,113.639L58.942,111.488L34.5,111.488L32.071,91.788L12.278,77.24C11.678,74.86,11.405,72.71,11.405,70.358C11.405,66.429,12.273,62.227,13.73,59.155L13.801,59.024L48.999,94.773L15.007,52.503C16.371,46.702,19.777,41.097,23.957,37.698L54.2,91.046L27.171,33.288C30.2,28.846,35.084,25.348,41.065,23.318L59.75,89.18L45.594,20.824L45.894,20.661C50.336,18.205,54.615,17.075,59.302,17.075C60.366,17.075,60.863,17.097,62.184,17.239L65.387,88.454L67.897,17.19C69.12,17.053,69.583,17.032,70.92,17.032ZM70.92,17.032"/>
</g>
        <g id="Thin-L" transform="matrix(1.0,0.0,0.0,1.0,792.224877803044,1455.2848973342939)">  <path fill-rule="nonzero" stroke-width="1px" stroke-linejoin="miter" fill-opacity="1" stroke="none" stroke-opacity="1" stroke-dasharray="none" role="img" stroke-linecap="butt" stroke-miterlimit="4" fill="#000000" d="M65.485,4.709C29.141,4.709,0,34.112,0,70.833C0,76.268,0.207,78.331,1.342,83.548L21.326,98.337L24.437,122.976L57.736,122.976L59.515,124.214C61.572,125.644,63.362,126.261,65.42,126.261C67.341,126.261,69.414,125.71,71.008,124.553L73.136,122.976L106.391,122.976L109.464,98.337L129.628,83.548C130.763,78.331,130.97,76.268,130.97,70.833C130.97,34.118,101.835,4.709,65.485,4.709ZM70.92,17.032C75.832,17.032,80.623,18.254,84.629,20.573L71.177,89.049L89.84,23.225C95.619,25.19,100.007,28.361,103.527,33.125L103.663,33.31L76.912,91.237L107.319,38.232L107.499,38.396C111.636,42.26,114.304,46.947,115.641,52.846L81.835,94.681L116.956,59.209L117.011,59.324C118.392,62.396,119.287,66.746,119.287,70.216C119.287,72.994,119.156,74.102,118.392,77.038L98.997,91.237L96.449,111.483L72.028,111.483L69.207,113.639C68.121,114.501,66.577,115.09,65.485,115.09C64.399,115.09,62.849,114.501,61.763,113.639L58.942,111.488L34.5,111.488L32.071,91.788L12.278,77.24C11.678,74.86,11.405,72.71,11.405,70.358C11.405,66.429,12.273,62.227,13.73,59.155L13.801,59.024L48.999,94.773L15.007,52.503C16.371,46.702,19.777,41.097,23.957,37.698L54.2,91.046L27.171,33.288C30.2,28.846,35.084,25.348,41.065,23.318L59.75,89.18L45.594,20.824L45.894,20.661C50.336,18.205,54.615,17.075,59.302,17.075C60.366,17.075,60.863,17.097,62.184,17.239L65.387,88.454L67.897,17.19C69.12,17.053,69.583,17.032,70.92,17.032ZM70.92,17.032"/>
</g>
        <g id="Ultralight-L" transform="matrix(1.0,0.0,0.0,1.0,495.51487780304393,1455.2848973342939)">  <path stroke-linejoin="miter" fill-rule="nonzero" stroke="none" stroke-linecap="butt" fill-opacity="1" stroke-opacity="1" stroke-miterlimit="4" stroke-width="1px" fill="#000000" role="img" stroke-dasharray="none" d="M65.485,4.709C29.141,4.709,0,34.112,0,70.833C0,76.268,0.207,78.331,1.342,83.548L21.326,98.337L24.437,122.976L57.736,122.976L59.515,124.214C61.572,125.644,63.362,126.261,65.42,126.261C67.341,126.261,69.414,125.71,71.008,124.553L73.136,122.976L106.391,122.976L109.464,98.337L129.628,83.548C130.763,78.331,130.97,76.268,130.97,70.833C130.97,34.118,101.835,4.709,65.485,4.709ZM70.92,17.032C75.832,17.032,80.623,18.254,84.629,20.573L71.177,89.049L89.84,23.225C95.619,25.19,100.007,28.361,103.527,33.125L103.663,33.31L76.912,91.237L107.319,38.232L107.499,38.396C111.636,42.26,114.304,46.947,115.641,52.846L81.835,94.681L116.956,59.209L117.011,59.324C118.392,62.396,119.287,66.746,119.287,70.216C119.287,72.994,119.156,74.102,118.392,77.038L98.997,91.237L96.449,111.483L72.028,111.483L69.207,113.639C68.121,114.501,66.577,115.09,65.485,115.09C64.399,115.09,62.849,114.501,61.763,113.639L58.942,111.488L34.5,111.488L32.071,91.788L12.278,77.24C11.678,74.86,11.405,72.71,11.405,70.358C11.405,66.429,12.273,62.227,13.73,59.155L13.801,59.024L48.999,94.773L15.007,52.503C16.371,46.702,19.777,41.097,23.957,37.698L54.2,91.046L27.171,33.288C30.2,28.846,35.084,25.348,41.065,23.318L59.75,89.18L45.594,20.824L45.894,20.661C50.336,18.205,54.615,17.075,59.302,17.075C60.366,17.075,60.863,17.097,62.184,17.239L65.387,88.454L67.897,17.19C69.12,17.053,69.583,17.032,70.92,17.032ZM70.92,17.032"/>
</g>
        <g id="Black-M" transform="matrix(1.0,0.0,0.0,1.0,2883.9163393822046,1040.0063589134545)">  <path stroke-dasharray="none" stroke-linecap="butt" stroke-miterlimit="4" stroke-linejoin="miter" fill-rule="nonzero" stroke-width="1px" stroke="none" role="img" stroke-opacity="1" fill="#000000" fill-opacity="1" d="M50.764,3.651C22.59,3.651,0,26.444,0,54.909C0,59.123,0.161,60.722,1.041,64.766L16.532,76.23L18.943,95.33L44.757,95.33L46.136,96.29C47.731,97.399,49.118,97.877,50.713,97.877C52.202,97.877,53.809,97.449,55.045,96.552L56.695,95.33L82.474,95.33L84.856,76.23L100.487,64.766C101.367,60.722,101.527,59.123,101.527,54.909C101.527,26.448,78.942,3.651,50.764,3.651ZM54.977,13.203C58.784,13.203,62.499,14.15,65.604,15.948L55.176,69.03L69.644,18.004C74.123,19.527,77.525,21.985,80.253,25.678L80.359,25.822L59.622,70.726L83.193,29.638L83.333,29.764C86.539,32.759,88.608,36.393,89.644,40.966L63.438,73.396L90.664,45.899L90.706,45.988C91.776,48.369,92.47,51.741,92.47,54.431C92.47,56.585,92.369,57.443,91.776,59.719L76.742,70.726L74.766,86.421L55.836,86.421L53.649,88.092C52.807,88.76,51.61,89.217,50.764,89.217C49.922,89.217,48.72,88.76,47.879,88.092L45.692,86.425L26.744,86.425L24.862,71.154L9.518,59.876C9.053,58.031,8.841,56.365,8.841,54.541C8.841,51.496,9.514,48.238,10.643,45.857L10.698,45.755L37.984,73.468L11.633,40.7C12.691,36.203,15.331,31.858,18.571,29.223L42.015,70.578L21.063,25.805C23.411,22.361,27.197,19.65,31.833,18.076L46.318,69.132L35.344,16.143L35.577,16.016C39.02,14.112,42.337,13.237,45.971,13.237C46.796,13.237,47.181,13.254,48.204,13.364L50.688,68.569L52.633,13.325C53.581,13.22,53.941,13.203,54.977,13.203ZM54.977,13.203"/>
</g>
        <g id="Heavy-M" transform="matrix(1.0,0.0,0.0,1.0,2587.2063393822045,1040.0063589134545)">  <path fill-rule="nonzero" stroke-linecap="butt" role="img" stroke-linejoin="miter" fill="#000000" stroke-miterlimit="4" stroke="none" stroke-opacity="1" stroke-dasharray="none" fill-opacity="1" stroke-width="1px" d="M50.764,3.651C22.59,3.651,0,26.444,0,54.909C0,59.123,0.161,60.722,1.041,64.766L16.532,76.23L18.943,95.33L44.757,95.33L46.136,96.29C47.731,97.399,49.118,97.877,50.713,97.877C52.202,97.877,53.809,97.449,55.045,96.552L56.695,95.33L82.474,95.33L84.856,76.23L100.487,64.766C101.367,60.722,101.527,59.123,101.527,54.909C101.527,26.448,78.942,3.651,50.764,3.651ZM54.977,13.203C58.784,13.203,62.499,14.15,65.604,15.948L55.176,69.03L69.644,18.004C74.123,19.527,77.525,21.985,80.253,25.678L80.359,25.822L59.622,70.726L83.193,29.638L83.333,29.764C86.539,32.759,88.608,36.393,89.644,40.966L63.438,73.396L90.664,45.899L90.706,45.988C91.776,48.369,92.47,51.741,92.47,54.431C92.47,56.585,92.369,57.443,91.776,59.719L76.742,70.726L74.766,86.421L55.836,86.421L53.649,88.092C52.807,88.76,51.61,89.217,50.764,89.217C49.922,89.217,48.72,88.76,47.879,88.092L45.692,86.425L26.744,86.425L24.862,71.154L9.518,59.876C9.053,58.031,8.841,56.365,8.841,54.541C8.841,51.496,9.514,48.238,10.643,45.857L10.698,45.755L37.984,73.468L11.633,40.7C12.691,36.203,15.331,31.858,18.571,29.223L42.015,70.578L21.063,25.805C23.411,22.361,27.197,19.65,31.833,18.076L46.318,69.132L35.344,16.143L35.577,16.016C39.02,14.112,42.337,13.237,45.971,13.237C46.796,13.237,47.181,13.254,48.204,13.364L50.688,68.569L52.633,13.325C53.581,13.22,53.941,13.203,54.977,13.203ZM54.977,13.203"/>
</g>
        <g id="Bold-M" transform="matrix(1.0,0.0,0.0,1.0,2290.4963393822045,1040.0063589134545)">  <path stroke-linecap="butt" stroke-dasharray="none" stroke-linejoin="miter" fill="#000000" role="img" stroke-width="1px" stroke="none" stroke-miterlimit="4" fill-rule="nonzero" stroke-opacity="1" fill-opacity="1" d="M50.764,3.651C22.59,3.651,0,26.444,0,54.909C0,59.123,0.161,60.722,1.041,64.766L16.532,76.23L18.943,95.33L44.757,95.33L46.136,96.29C47.731,97.399,49.118,97.877,50.713,97.877C52.202,97.877,53.809,97.449,55.045,96.552L56.695,95.33L82.474,95.33L84.856,76.23L100.487,64.766C101.367,60.722,101.527,59.123,101.527,54.909C101.527,26.448,78.942,3.651,50.764,3.651ZM54.977,13.203C58.784,13.203,62.499,14.15,65.604,15.948L55.176,69.03L69.644,18.004C74.123,19.527,77.525,21.985,80.253,25.678L80.359,25.822L59.622,70.726L83.193,29.638L83.333,29.764C86.539,32.759,88.608,36.393,89.644,40.966L63.438,73.396L90.664,45.899L90.706,45.988C91.776,48.369,92.47,51.741,92.47,54.431C92.47,56.585,92.369,57.443,91.776,59.719L76.742,70.726L74.766,86.421L55.836,86.421L53.649,88.092C52.807,88.76,51.61,89.217,50.764,89.217C49.922,89.217,48.72,88.76,47.879,88.092L45.692,86.425L26.744,86.425L24.862,71.154L9.518,59.876C9.053,58.031,8.841,56.365,8.841,54.541C8.841,51.496,9.514,48.238,10.643,45.857L10.698,45.755L37.984,73.468L11.633,40.7C12.691,36.203,15.331,31.858,18.571,29.223L42.015,70.578L21.063,25.805C23.411,22.361,27.197,19.65,31.833,18.076L46.318,69.132L35.344,16.143L35.577,16.016C39.02,14.112,42.337,13.237,45.971,13.237C46.796,13.237,47.181,13.254,48.204,13.364L50.688,68.569L52.633,13.325C53.581,13.22,53.941,13.203,54.977,13.203ZM54.977,13.203"/>
</g>
        <g id="Semibold-M" transform="matrix(1.0,0.0,0.0,1.0,1993.7863393822045,1040.0063589134545)">  <path stroke-linejoin="miter" fill-opacity="1" fill="#000000" stroke-width="1px" stroke-linecap="butt" stroke-miterlimit="4" stroke-opacity="1" fill-rule="nonzero" stroke="none" role="img" stroke-dasharray="none" d="M50.764,3.651C22.59,3.651,0,26.444,0,54.909C0,59.123,0.161,60.722,1.041,64.766L16.532,76.23L18.943,95.33L44.757,95.33L46.136,96.29C47.731,97.399,49.118,97.877,50.713,97.877C52.202,97.877,53.809,97.449,55.045,96.552L56.695,95.33L82.474,95.33L84.856,76.23L100.487,64.766C101.367,60.722,101.527,59.123,101.527,54.909C101.527,26.448,78.942,3.651,50.764,3.651ZM54.977,13.203C58.784,13.203,62.499,14.15,65.604,15.948L55.176,69.03L69.644,18.004C74.123,19.527,77.525,21.985,80.253,25.678L80.359,25.822L59.622,70.726L83.193,29.638L83.333,29.764C86.539,32.759,88.608,36.393,89.644,40.966L63.438,73.396L90.664,45.899L90.706,45.988C91.776,48.369,92.47,51.741,92.47,54.431C92.47,56.585,92.369,57.443,91.776,59.719L76.742,70.726L74.766,86.421L55.836,86.421L53.649,88.092C52.807,88.76,51.61,89.217,50.764,89.217C49.922,89.217,48.72,88.76,47.879,88.092L45.692,86.425L26.744,86.425L24.862,71.154L9.518,59.876C9.053,58.031,8.841,56.365,8.841,54.541C8.841,51.496,9.514,48.238,10.643,45.857L10.698,45.755L37.984,73.468L11.633,40.7C12.691,36.203,15.331,31.858,18.571,29.223L42.015,70.578L21.063,25.805C23.411,22.361,27.197,19.65,31.833,18.076L46.318,69.132L35.344,16.143L35.577,16.016C39.02,14.112,42.337,13.237,45.971,13.237C46.796,13.237,47.181,13.254,48.204,13.364L50.688,68.569L52.633,13.325C53.581,13.22,53.941,13.203,54.977,13.203ZM54.977,13.203"/>
</g>
        <g id="Medium-M" transform="matrix(1.0,0.0,0.0,1.0,1697.0763393822044,1040.0063589134545)">  <path role="img" stroke-linecap="butt" stroke-opacity="1" fill-rule="nonzero" stroke-dasharray="none" stroke-miterlimit="4" stroke-linejoin="miter" fill="#000000" stroke-width="1px" fill-opacity="1" stroke="none" d="M50.764,3.651C22.59,3.651,0,26.444,0,54.909C0,59.123,0.161,60.722,1.041,64.766L16.532,76.23L18.943,95.33L44.757,95.33L46.136,96.29C47.731,97.399,49.118,97.877,50.713,97.877C52.202,97.877,53.809,97.449,55.045,96.552L56.695,95.33L82.474,95.33L84.856,76.23L100.487,64.766C101.367,60.722,101.527,59.123,101.527,54.909C101.527,26.448,78.942,3.651,50.764,3.651ZM54.977,13.203C58.784,13.203,62.499,14.15,65.604,15.948L55.176,69.03L69.644,18.004C74.123,19.527,77.525,21.985,80.253,25.678L80.359,25.822L59.622,70.726L83.193,29.638L83.333,29.764C86.539,32.759,88.608,36.393,89.644,40.966L63.438,73.396L90.664,45.899L90.706,45.988C91.776,48.369,92.47,51.741,92.47,54.431C92.47,56.585,92.369,57.443,91.776,59.719L76.742,70.726L74.766,86.421L55.836,86.421L53.649,88.092C52.807,88.76,51.61,89.217,50.764,89.217C49.922,89.217,48.72,88.76,47.879,88.092L45.692,86.425L26.744,86.425L24.862,71.154L9.518,59.876C9.053,58.031,8.841,56.365,8.841,54.541C8.841,51.496,9.514,48.238,10.643,45.857L10.698,45.755L37.984,73.468L11.633,40.7C12.691,36.203,15.331,31.858,18.571,29.223L42.015,70.578L21.063,25.805C23.411,22.361,27.197,19.65,31.833,18.076L46.318,69.132L35.344,16.143L35.577,16.016C39.02,14.112,42.337,13.237,45.971,13.237C46.796,13.237,47.181,13.254,48.204,13.364L50.688,68.569L52.633,13.325C53.581,13.22,53.941,13.203,54.977,13.203ZM54.977,13.203"/>
</g>
        <g id="Regular-M" transform="matrix(1.0,0.0,0.0,1.0,1400.3663393822044,1040.0063589134545)">  <path fill-rule="nonzero" stroke-dasharray="none" role="img" stroke="none" stroke-width="1px" stroke-linejoin="miter" fill-opacity="1" stroke-linecap="butt" fill="#000000" stroke-opacity="1" stroke-miterlimit="4" d="M50.764,3.651C22.59,3.651,0,26.444,0,54.909C0,59.123,0.161,60.722,1.041,64.766L16.532,76.23L18.943,95.33L44.757,95.33L46.136,96.29C47.731,97.399,49.118,97.877,50.713,97.877C52.202,97.877,53.809,97.449,55.045,96.552L56.695,95.33L82.474,95.33L84.856,76.23L100.487,64.766C101.367,60.722,101.527,59.123,101.527,54.909C101.527,26.448,78.942,3.651,50.764,3.651ZM54.977,13.203C58.784,13.203,62.499,14.15,65.604,15.948L55.176,69.03L69.644,18.004C74.123,19.527,77.525,21.985,80.253,25.678L80.359,25.822L59.622,70.726L83.193,29.638L83.333,29.764C86.539,32.759,88.608,36.393,89.644,40.966L63.438,73.396L90.664,45.899L90.706,45.988C91.776,48.369,92.47,51.741,92.47,54.431C92.47,56.585,92.369,57.443,91.776,59.719L76.742,70.726L74.766,86.421L55.836,86.421L53.649,88.092C52.807,88.76,51.61,89.217,50.764,89.217C49.922,89.217,48.72,88.76,47.879,88.092L45.692,86.425L26.744,86.425L24.862,71.154L9.518,59.876C9.053,58.031,8.841,56.365,8.841,54.541C8.841,51.496,9.514,48.238,10.643,45.857L10.698,45.755L37.984,73.468L11.633,40.7C12.691,36.203,15.331,31.858,18.571,29.223L42.015,70.578L21.063,25.805C23.411,22.361,27.197,19.65,31.833,18.076L46.318,69.132L35.344,16.143L35.577,16.016C39.02,14.112,42.337,13.237,45.971,13.237C46.796,13.237,47.181,13.254,48.204,13.364L50.688,68.569L52.633,13.325C53.581,13.22,53.941,13.203,54.977,13.203ZM54.977,13.203"/>
</g>
        <g id="Light-M" transform="matrix(1.0,0.0,0.0,1.0,1103.6563393822046,1040.0063589134545)">  <path fill-opacity="1" stroke-linecap="butt" stroke-miterlimit="4" stroke="none" role="img" stroke-opacity="1" fill-rule="nonzero" fill="#000000" stroke-linejoin="miter" stroke-dasharray="none" stroke-width="1px" d="M50.764,3.651C22.59,3.651,0,26.444,0,54.909C0,59.123,0.161,60.722,1.041,64.766L16.532,76.23L18.943,95.33L44.757,95.33L46.136,96.29C47.731,97.399,49.118,97.877,50.713,97.877C52.202,97.877,53.809,97.449,55.045,96.552L56.695,95.33L82.474,95.33L84.856,76.23L100.487,64.766C101.367,60.722,101.527,59.123,101.527,54.909C101.527,26.448,78.942,3.651,50.764,3.651ZM54.977,13.203C58.784,13.203,62.499,14.15,65.604,15.948L55.176,69.03L69.644,18.004C74.123,19.527,77.525,21.985,80.253,25.678L80.359,25.822L59.622,70.726L83.193,29.638L83.333,29.764C86.539,32.759,88.608,36.393,89.644,40.966L63.438,73.396L90.664,45.899L90.706,45.988C91.776,48.369,92.47,51.741,92.47,54.431C92.47,56.585,92.369,57.443,91.776,59.719L76.742,70.726L74.766,86.421L55.836,86.421L53.649,88.092C52.807,88.76,51.61,89.217,50.764,89.217C49.922,89.217,48.72,88.76,47.879,88.092L45.692,86.425L26.744,86.425L24.862,71.154L9.518,59.876C9.053,58.031,8.841,56.365,8.841,54.541C8.841,51.496,9.514,48.238,10.643,45.857L10.698,45.755L37.984,73.468L11.633,40.7C12.691,36.203,15.331,31.858,18.571,29.223L42.015,70.578L21.063,25.805C23.411,22.361,27.197,19.65,31.833,18.076L46.318,69.132L35.344,16.143L35.577,16.016C39.02,14.112,42.337,13.237,45.971,13.237C46.796,13.237,47.181,13.254,48.204,13.364L50.688,68.569L52.633,13.325C53.581,13.22,53.941,13.203,54.977,13.203ZM54.977,13.203"/>
</g>
        <g id="Thin-M" transform="matrix(1.0,0.0,0.0,1.0,806.9463393822047,1040.0063589134545)">  <path fill-rule="nonzero" stroke-width="1px" stroke-linejoin="miter" fill-opacity="1" stroke="none" stroke-opacity="1" stroke-dasharray="none" role="img" stroke-linecap="butt" stroke-miterlimit="4" fill="#000000" d="M50.764,3.651C22.59,3.651,0,26.444,0,54.909C0,59.123,0.161,60.722,1.041,64.766L16.532,76.23L18.943,95.33L44.757,95.33L46.136,96.29C47.731,97.399,49.118,97.877,50.713,97.877C52.202,97.877,53.809,97.449,55.045,96.552L56.695,95.33L82.474,95.33L84.856,76.23L100.487,64.766C101.367,60.722,101.527,59.123,101.527,54.909C101.527,26.448,78.942,3.651,50.764,3.651ZM54.977,13.203C58.784,13.203,62.499,14.15,65.604,15.948L55.176,69.03L69.644,18.004C74.123,19.527,77.525,21.985,80.253,25.678L80.359,25.822L59.622,70.726L83.193,29.638L83.333,29.764C86.539,32.759,88.608,36.393,89.644,40.966L63.438,73.396L90.664,45.899L90.706,45.988C91.776,48.369,92.47,51.741,92.47,54.431C92.47,56.585,92.369,57.443,91.776,59.719L76.742,70.726L74.766,86.421L55.836,86.421L53.649,88.092C52.807,88.76,51.61,89.217,50.764,89.217C49.922,89.217,48.72,88.76,47.879,88.092L45.692,86.425L26.744,86.425L24.862,71.154L9.518,59.876C9.053,58.031,8.841,56.365,8.841,54.541C8.841,51.496,9.514,48.238,10.643,45.857L10.698,45.755L37.984,73.468L11.633,40.7C12.691,36.203,15.331,31.858,18.571,29.223L42.015,70.578L21.063,25.805C23.411,22.361,27.197,19.65,31.833,18.076L46.318,69.132L35.344,16.143L35.577,16.016C39.02,14.112,42.337,13.237,45.971,13.237C46.796,13.237,47.181,13.254,48.204,13.364L50.688,68.569L52.633,13.325C53.581,13.22,53.941,13.203,54.977,13.203ZM54.977,13.203"/>
</g>
        <g id="Ultralight-M" transform="matrix(1.0,0.0,0.0,1.0,510.2363393822046,1040.0063589134545)">  <path stroke-linejoin="miter" fill-rule="nonzero" stroke="none" stroke-linecap="butt" fill-opacity="1" stroke-opacity="1" stroke-miterlimit="4" stroke-width="1px" fill="#000000" role="img" stroke-dasharray="none" d="M50.764,3.651C22.59,3.651,0,26.444,0,54.909C0,59.123,0.161,60.722,1.041,64.766L16.532,76.23L18.943,95.33L44.757,95.33L46.136,96.29C47.731,97.399,49.118,97.877,50.713,97.877C52.202,97.877,53.809,97.449,55.045,96.552L56.695,95.33L82.474,95.33L84.856,76.23L100.487,64.766C101.367,60.722,101.527,59.123,101.527,54.909C101.527,26.448,78.942,3.651,50.764,3.651ZM54.977,13.203C58.784,13.203,62.499,14.15,65.604,15.948L55.176,69.03L69.644,18.004C74.123,19.527,77.525,21.985,80.253,25.678L80.359,25.822L59.622,70.726L83.193,29.638L83.333,29.764C86.539,32.759,88.608,36.393,89.644,40.966L63.438,73.396L90.664,45.899L90.706,45.988C91.776,48.369,92.47,51.741,92.47,54.431C92.47,56.585,92.369,57.443,91.776,59.719L76.742,70.726L74.766,86.421L55.836,86.421L53.649,88.092C52.807,88.76,51.61,89.217,50.764,89.217C49.922,89.217,48.72,88.76,47.879,88.092L45.692,86.425L26.744,86.425L24.862,71.154L9.518,59.876C9.053,58.031,8.841,56.365,8.841,54.541C8.841,51.496,9.514,48.238,10.643,45.857L10.698,45.755L37.984,73.468L11.633,40.7C12.691,36.203,15.331,31.858,18.571,29.223L42.015,70.578L21.063,25.805C23.411,22.361,27.197,19.65,31.833,18.076L46.318,69.132L35.344,16.143L35.577,16.016C39.02,14.112,42.337,13.237,45.971,13.237C46.796,13.237,47.181,13.254,48.204,13.364L50.688,68.569L52.633,13.325C53.581,13.22,53.941,13.203,54.977,13.203ZM54.977,13.203"/>
</g>
        <g id="Black-S" transform="matrix(1.0,0.0,0.0,1.0,2894.932053736266,621.0220732675162)">  <path stroke-dasharray="none" stroke-linecap="butt" stroke-miterlimit="4" stroke-linejoin="miter" fill-rule="nonzero" stroke-width="1px" stroke="none" role="img" stroke-opacity="1" fill="#000000" fill-opacity="1" d="M39.748,2.859C17.688,2.859,0,20.705,0,42.994C0,46.293,0.126,47.545,0.815,50.712L12.945,59.688L14.833,74.643L35.044,74.643L36.124,75.395C37.373,76.263,38.459,76.637,39.708,76.637C40.874,76.637,42.133,76.303,43.1,75.601L44.392,74.643L64.577,74.643L66.442,59.688L78.681,50.712C79.37,47.545,79.496,46.293,79.496,42.994C79.496,20.709,61.811,2.859,39.748,2.859ZM43.047,10.338C46.028,10.338,48.936,11.08,51.368,12.487L43.203,54.051L54.531,14.097C58.039,15.29,60.702,17.214,62.838,20.106L62.921,20.218L46.684,55.379L65.14,23.206L65.25,23.306C67.76,25.651,69.38,28.496,70.192,32.077L49.672,57.469L70.99,35.939L71.023,36.008C71.861,37.873,72.404,40.513,72.404,42.62C72.404,44.306,72.325,44.978,71.861,46.76L60.089,55.379L58.542,67.668L43.719,67.668L42.007,68.976C41.348,69.499,40.41,69.857,39.748,69.857C39.089,69.857,38.148,69.499,37.489,68.976L35.776,67.671L20.941,67.671L19.467,55.713L7.453,46.883C7.088,45.439,6.923,44.133,6.923,42.706C6.923,40.321,7.449,37.77,8.334,35.906L8.377,35.826L29.741,57.525L9.109,31.868C9.937,28.347,12.004,24.945,14.541,22.882L32.898,55.263L16.492,20.205C18.33,17.509,21.295,15.386,24.925,14.154L36.267,54.13L27.675,12.64L27.857,12.54C30.553,11.05,33.15,10.364,35.995,10.364C36.641,10.364,36.942,10.378,37.744,10.464L39.688,53.69L41.212,10.434C41.954,10.351,42.236,10.338,43.047,10.338ZM43.047,10.338"/>
</g>
        <g id="Heavy-S" transform="matrix(1.0,0.0,0.0,1.0,2598.222053736266,621.0220732675162)">  <path fill-rule="nonzero" stroke-linecap="butt" role="img" stroke-linejoin="miter" fill="#000000" stroke-miterlimit="4" stroke="none" stroke-opacity="1" stroke-dasharray="none" fill-opacity="1" stroke-width="1px" d="M39.748,2.859C17.688,2.859,0,20.705,0,42.994C0,46.293,0.126,47.545,0.815,50.712L12.945,59.688L14.833,74.643L35.044,74.643L36.124,75.395C37.373,76.263,38.459,76.637,39.708,76.637C40.874,76.637,42.133,76.303,43.1,75.601L44.392,74.643L64.577,74.643L66.442,59.688L78.681,50.712C79.37,47.545,79.496,46.293,79.496,42.994C79.496,20.709,61.811,2.859,39.748,2.859ZM43.047,10.338C46.028,10.338,48.936,11.08,51.368,12.487L43.203,54.051L54.531,14.097C58.039,15.29,60.702,17.214,62.838,20.106L62.921,20.218L46.684,55.379L65.14,23.206L65.25,23.306C67.76,25.651,69.38,28.496,70.192,32.077L49.672,57.469L70.99,35.939L71.023,36.008C71.861,37.873,72.404,40.513,72.404,42.62C72.404,44.306,72.325,44.978,71.861,46.76L60.089,55.379L58.542,67.668L43.719,67.668L42.007,68.976C41.348,69.499,40.41,69.857,39.748,69.857C39.089,69.857,38.148,69.499,37.489,68.976L35.776,67.671L20.941,67.671L19.467,55.713L7.453,46.883C7.088,45.439,6.923,44.133,6.923,42.706C6.923,40.321,7.449,37.77,8.334,35.906L8.377,35.826L29.741,57.525L9.109,31.868C9.937,28.347,12.004,24.945,14.541,22.882L32.898,55.263L16.492,20.205C18.33,17.509,21.295,15.386,24.925,14.154L36.267,54.13L27.675,12.64L27.857,12.54C30.553,11.05,33.15,10.364,35.995,10.364C36.641,10.364,36.942,10.378,37.744,10.464L39.688,53.69L41.212,10.434C41.954,10.351,42.236,10.338,43.047,10.338ZM43.047,10.338"/>
</g>
        <g id="Bold-S" transform="matrix(1.0,0.0,0.0,1.0,2301.512053736266,621.0220732675162)">  <path stroke-linecap="butt" stroke-dasharray="none" stroke-linejoin="miter" fill="#000000" role="img" stroke-width="1px" stroke="none" stroke-miterlimit="4" fill-rule="nonzero" stroke-opacity="1" fill-opacity="1" d="M39.748,2.859C17.688,2.859,0,20.705,0,42.994C0,46.293,0.126,47.545,0.815,50.712L12.945,59.688L14.833,74.643L35.044,74.643L36.124,75.395C37.373,76.263,38.459,76.637,39.708,76.637C40.874,76.637,42.133,76.303,43.1,75.601L44.392,74.643L64.577,74.643L66.442,59.688L78.681,50.712C79.37,47.545,79.496,46.293,79.496,42.994C79.496,20.709,61.811,2.859,39.748,2.859ZM43.047,10.338C46.028,10.338,48.936,11.08,51.368,12.487L43.203,54.051L54.531,14.097C58.039,15.29,60.702,17.214,62.838,20.106L62.921,20.218L46.684,55.379L65.14,23.206L65.25,23.306C67.76,25.651,69.38,28.496,70.192,32.077L49.672,57.469L70.99,35.939L71.023,36.008C71.861,37.873,72.404,40.513,72.404,42.62C72.404,44.306,72.325,44.978,71.861,46.76L60.089,55.379L58.542,67.668L43.719,67.668L42.007,68.976C41.348,69.499,40.41,69.857,39.748,69.857C39.089,69.857,38.148,69.499,37.489,68.976L35.776,67.671L20.941,67.671L19.467,55.713L7.453,46.883C7.088,45.439,6.923,44.133,6.923,42.706C6.923,40.321,7.449,37.77,8.334,35.906L8.377,35.826L29.741,57.525L9.109,31.868C9.937,28.347,12.004,24.945,14.541,22.882L32.898,55.263L16.492,20.205C18.33,17.509,21.295,15.386,24.925,14.154L36.267,54.13L27.675,12.64L27.857,12.54C30.553,11.05,33.15,10.364,35.995,10.364C36.641,10.364,36.942,10.378,37.744,10.464L39.688,53.69L41.212,10.434C41.954,10.351,42.236,10.338,43.047,10.338ZM43.047,10.338"/>
</g>
        <g id="Semibold-S" transform="matrix(1.0,0.0,0.0,1.0,2004.802053736266,621.0220732675162)">  <path stroke-linejoin="miter" fill-opacity="1" fill="#000000" stroke-width="1px" stroke-linecap="butt" stroke-miterlimit="4" stroke-opacity="1" fill-rule="nonzero" stroke="none" role="img" stroke-dasharray="none" d="M39.748,2.859C17.688,2.859,0,20.705,0,42.994C0,46.293,0.126,47.545,0.815,50.712L12.945,59.688L14.833,74.643L35.044,74.643L36.124,75.395C37.373,76.263,38.459,76.637,39.708,76.637C40.874,76.637,42.133,76.303,43.1,75.601L44.392,74.643L64.577,74.643L66.442,59.688L78.681,50.712C79.37,47.545,79.496,46.293,79.496,42.994C79.496,20.709,61.811,2.859,39.748,2.859ZM43.047,10.338C46.028,10.338,48.936,11.08,51.368,12.487L43.203,54.051L54.531,14.097C58.039,15.29,60.702,17.214,62.838,20.106L62.921,20.218L46.684,55.379L65.14,23.206L65.25,23.306C67.76,25.651,69.38,28.496,70.192,32.077L49.672,57.469L70.99,35.939L71.023,36.008C71.861,37.873,72.404,40.513,72.404,42.62C72.404,44.306,72.325,44.978,71.861,46.76L60.089,55.379L58.542,67.668L43.719,67.668L42.007,68.976C41.348,69.499,40.41,69.857,39.748,69.857C39.089,69.857,38.148,69.499,37.489,68.976L35.776,67.671L20.941,67.671L19.467,55.713L7.453,46.883C7.088,45.439,6.923,44.133,6.923,42.706C6.923,40.321,7.449,37.77,8.334,35.906L8.377,35.826L29.741,57.525L9.109,31.868C9.937,28.347,12.004,24.945,14.541,22.882L32.898,55.263L16.492,20.205C18.33,17.509,21.295,15.386,24.925,14.154L36.267,54.13L27.675,12.64L27.857,12.54C30.553,11.05,33.15,10.364,35.995,10.364C36.641,10.364,36.942,10.378,37.744,10.464L39.688,53.69L41.212,10.434C41.954,10.351,42.236,10.338,43.047,10.338ZM43.047,10.338"/>
</g>
        <g id="Medium-S" transform="matrix(1.0,0.0,0.0,1.0,1708.092053736266,621.0220732675162)">  <path role="img" stroke-linecap="butt" stroke-opacity="1" fill-rule="nonzero" stroke-dasharray="none" stroke-miterlimit="4" stroke-linejoin="miter" fill="#000000" stroke-width="1px" fill-opacity="1" stroke="none" d="M39.748,2.859C17.688,2.859,0,20.705,0,42.994C0,46.293,0.126,47.545,0.815,50.712L12.945,59.688L14.833,74.643L35.044,74.643L36.124,75.395C37.373,76.263,38.459,76.637,39.708,76.637C40.874,76.637,42.133,76.303,43.1,75.601L44.392,74.643L64.577,74.643L66.442,59.688L78.681,50.712C79.37,47.545,79.496,46.293,79.496,42.994C79.496,20.709,61.811,2.859,39.748,2.859ZM43.047,10.338C46.028,10.338,48.936,11.08,51.368,12.487L43.203,54.051L54.531,14.097C58.039,15.29,60.702,17.214,62.838,20.106L62.921,20.218L46.684,55.379L65.14,23.206L65.25,23.306C67.76,25.651,69.38,28.496,70.192,32.077L49.672,57.469L70.99,35.939L71.023,36.008C71.861,37.873,72.404,40.513,72.404,42.62C72.404,44.306,72.325,44.978,71.861,46.76L60.089,55.379L58.542,67.668L43.719,67.668L42.007,68.976C41.348,69.499,40.41,69.857,39.748,69.857C39.089,69.857,38.148,69.499,37.489,68.976L35.776,67.671L20.941,67.671L19.467,55.713L7.453,46.883C7.088,45.439,6.923,44.133,6.923,42.706C6.923,40.321,7.449,37.77,8.334,35.906L8.377,35.826L29.741,57.525L9.109,31.868C9.937,28.347,12.004,24.945,14.541,22.882L32.898,55.263L16.492,20.205C18.33,17.509,21.295,15.386,24.925,14.154L36.267,54.13L27.675,12.64L27.857,12.54C30.553,11.05,33.15,10.364,35.995,10.364C36.641,10.364,36.942,10.378,37.744,10.464L39.688,53.69L41.212,10.434C41.954,10.351,42.236,10.338,43.047,10.338ZM43.047,10.338"/>
</g>
        <g id="Regular-S" transform="matrix(1.0,0.0,0.0,1.0,1411.382053736266,621.0220732675162)">  <path fill-rule="nonzero" stroke-dasharray="none" role="img" stroke="none" stroke-width="1px" stroke-linejoin="miter" fill-opacity="1" stroke-linecap="butt" fill="#000000" stroke-opacity="1" stroke-miterlimit="4" d="M39.748,2.859C17.688,2.859,0,20.705,0,42.994C0,46.293,0.126,47.545,0.815,50.712L12.945,59.688L14.833,74.643L35.044,74.643L36.124,75.395C37.373,76.263,38.459,76.637,39.708,76.637C40.874,76.637,42.133,76.303,43.1,75.601L44.392,74.643L64.577,74.643L66.442,59.688L78.681,50.712C79.37,47.545,79.496,46.293,79.496,42.994C79.496,20.709,61.811,2.859,39.748,2.859ZM43.047,10.338C46.028,10.338,48.936,11.08,51.368,12.487L43.203,54.051L54.531,14.097C58.039,15.29,60.702,17.214,62.838,20.106L62.921,20.218L46.684,55.379L65.14,23.206L65.25,23.306C67.76,25.651,69.38,28.496,70.192,32.077L49.672,57.469L70.99,35.939L71.023,36.008C71.861,37.873,72.404,40.513,72.404,42.62C72.404,44.306,72.325,44.978,71.861,46.76L60.089,55.379L58.542,67.668L43.719,67.668L42.007,68.976C41.348,69.499,40.41,69.857,39.748,69.857C39.089,69.857,38.148,69.499,37.489,68.976L35.776,67.671L20.941,67.671L19.467,55.713L7.453,46.883C7.088,45.439,6.923,44.133,6.923,42.706C6.923,40.321,7.449,37.77,8.334,35.906L8.377,35.826L29.741,57.525L9.109,31.868C9.937,28.347,12.004,24.945,14.541,22.882L32.898,55.263L16.492,20.205C18.33,17.509,21.295,15.386,24.925,14.154L36.267,54.13L27.675,12.64L27.857,12.54C30.553,11.05,33.15,10.364,35.995,10.364C36.641,10.364,36.942,10.378,37.744,10.464L39.688,53.69L41.212,10.434C41.954,10.351,42.236,10.338,43.047,10.338ZM43.047,10.338"/>
</g>
        <g id="Light-S" transform="matrix(1.0,0.0,0.0,1.0,1114.6720537362662,621.0220732675162)">  <path fill-opacity="1" stroke-linecap="butt" stroke-miterlimit="4" stroke="none" role="img" stroke-opacity="1" fill-rule="nonzero" fill="#000000" stroke-linejoin="miter" stroke-dasharray="none" stroke-width="1px" d="M39.748,2.859C17.688,2.859,0,20.705,0,42.994C0,46.293,0.126,47.545,0.815,50.712L12.945,59.688L14.833,74.643L35.044,74.643L36.124,75.395C37.373,76.263,38.459,76.637,39.708,76.637C40.874,76.637,42.133,76.303,43.1,75.601L44.392,74.643L64.577,74.643L66.442,59.688L78.681,50.712C79.37,47.545,79.496,46.293,79.496,42.994C79.496,20.709,61.811,2.859,39.748,2.859ZM43.047,10.338C46.028,10.338,48.936,11.08,51.368,12.487L43.203,54.051L54.531,14.097C58.039,15.29,60.702,17.214,62.838,20.106L62.921,20.218L46.684,55.379L65.14,23.206L65.25,23.306C67.76,25.651,69.38,28.496,70.192,32.077L49.672,57.469L70.99,35.939L71.023,36.008C71.861,37.873,72.404,40.513,72.404,42.62C72.404,44.306,72.325,44.978,71.861,46.76L60.089,55.379L58.542,67.668L43.719,67.668L42.007,68.976C41.348,69.499,40.41,69.857,39.748,69.857C39.089,69.857,38.148,69.499,37.489,68.976L35.776,67.671L20.941,67.671L19.467,55.713L7.453,46.883C7.088,45.439,6.923,44.133,6.923,42.706C6.923,40.321,7.449,37.77,8.334,35.906L8.377,35.826L29.741,57.525L9.109,31.868C9.937,28.347,12.004,24.945,14.541,22.882L32.898,55.263L16.492,20.205C18.33,17.509,21.295,15.386,24.925,14.154L36.267,54.13L27.675,12.64L27.857,12.54C30.553,11.05,33.15,10.364,35.995,10.364C36.641,10.364,36.942,10.378,37.744,10.464L39.688,53.69L41.212,10.434C41.954,10.351,42.236,10.338,43.047,10.338ZM43.047,10.338"/>
</g>
        <g id="Thin-S" transform="matrix(1.0,0.0,0.0,1.0,817.9620537362663,621.0220732675162)">  <path fill-rule="nonzero" stroke-width="1px" stroke-linejoin="miter" fill-opacity="1" stroke="none" stroke-opacity="1" stroke-dasharray="none" role="img" stroke-linecap="butt" stroke-miterlimit="4" fill="#000000" d="M39.748,2.859C17.688,2.859,0,20.705,0,42.994C0,46.293,0.126,47.545,0.815,50.712L12.945,59.688L14.833,74.643L35.044,74.643L36.124,75.395C37.373,76.263,38.459,76.637,39.708,76.637C40.874,76.637,42.133,76.303,43.1,75.601L44.392,74.643L64.577,74.643L66.442,59.688L78.681,50.712C79.37,47.545,79.496,46.293,79.496,42.994C79.496,20.709,61.811,2.859,39.748,2.859ZM43.047,10.338C46.028,10.338,48.936,11.08,51.368,12.487L43.203,54.051L54.531,14.097C58.039,15.29,60.702,17.214,62.838,20.106L62.921,20.218L46.684,55.379L65.14,23.206L65.25,23.306C67.76,25.651,69.38,28.496,70.192,32.077L49.672,57.469L70.99,35.939L71.023,36.008C71.861,37.873,72.404,40.513,72.404,42.62C72.404,44.306,72.325,44.978,71.861,46.76L60.089,55.379L58.542,67.668L43.719,67.668L42.007,68.976C41.348,69.499,40.41,69.857,39.748,69.857C39.089,69.857,38.148,69.499,37.489,68.976L35.776,67.671L20.941,67.671L19.467,55.713L7.453,46.883C7.088,45.439,6.923,44.133,6.923,42.706C6.923,40.321,7.449,37.77,8.334,35.906L8.377,35.826L29.741,57.525L9.109,31.868C9.937,28.347,12.004,24.945,14.541,22.882L32.898,55.263L16.492,20.205C18.33,17.509,21.295,15.386,24.925,14.154L36.267,54.13L27.675,12.64L27.857,12.54C30.553,11.05,33.15,10.364,35.995,10.364C36.641,10.364,36.942,10.378,37.744,10.464L39.688,53.69L41.212,10.434C41.954,10.351,42.236,10.338,43.047,10.338ZM43.047,10.338"/>
</g>
        <g id="Ultralight-S" transform="matrix(1.0,0.0,0.0,1.0,521.2520537362662,621.0220732675162)">  <path stroke-linejoin="miter" fill-rule="nonzero" stroke="none" stroke-linecap="butt" fill-opacity="1" stroke-opacity="1" stroke-miterlimit="4" stroke-width="1px" fill="#000000" role="img" stroke-dasharray="none" d="M39.748,2.859C17.688,2.859,0,20.705,0,42.994C0,46.293,0.126,47.545,0.815,50.712L12.945,59.688L14.833,74.643L35.044,74.643L36.124,75.395C37.373,76.263,38.459,76.637,39.708,76.637C40.874,76.637,42.133,76.303,43.1,75.601L44.392,74.643L64.577,74.643L66.442,59.688L78.681,50.712C79.37,47.545,79.496,46.293,79.496,42.994C79.496,20.709,61.811,2.859,39.748,2.859ZM43.047,10.338C46.028,10.338,48.936,11.08,51.368,12.487L43.203,54.051L54.531,14.097C58.039,15.29,60.702,17.214,62.838,20.106L62.921,20.218L46.684,55.379L65.14,23.206L65.25,23.306C67.76,25.651,69.38,28.496,70.192,32.077L49.672,57.469L70.99,35.939L71.023,36.008C71.861,37.873,72.404,40.513,72.404,42.62C72.404,44.306,72.325,44.978,71.861,46.76L60.089,55.379L58.542,67.668L43.719,67.668L42.007,68.976C41.348,69.499,40.41,69.857,39.748,69.857C39.089,69.857,38.148,69.499,37.489,68.976L35.776,67.671L20.941,67.671L19.467,55.713L7.453,46.883C7.088,45.439,6.923,44.133,6.923,42.706C6.923,40.321,7.449,37.77,8.334,35.906L8.377,35.826L29.741,57.525L9.109,31.868C9.937,28.347,12.004,24.945,14.541,22.882L32.898,55.263L16.492,20.205C18.33,17.509,21.295,15.386,24.925,14.154L36.267,54.13L27.675,12.64L27.857,12.54C30.553,11.05,33.15,10.364,35.995,10.364C36.641,10.364,36.942,10.378,37.744,10.464L39.688,53.69L41.212,10.434C41.954,10.351,42.236,10.338,43.047,10.338ZM43.047,10.338"/>
</g>
    </g>
    </g>
</svg>
