<?xml version="1.0" encoding="UTF-8"?>
<svg width="3300px" height="2200px" viewBox="0 0 3300 2200" version="1.1" xmlns="http://www.w3.org/2000/svg" xmlns:xlink="http://www.w3.org/1999/xlink">
    <title>javascript.SFSymbol</title>
    <g id="Page-1" stroke="none" stroke-width="1" fill="none" fill-rule="evenodd">
        <g id="javascript.SFSymbol">
            <g id="Notes">
                <rect id="artboard" fill="#FFFFFF" fill-rule="nonzero" x="0" y="0" width="3300" height="2200"></rect>
                <line x1="263" y1="292" x2="3036" y2="292" id="Path" stroke="#000000" stroke-width="0.5"></line>
                <text id="Weight/Scale-Variations" fill="#000000" fill-rule="nonzero" font-family="Helvetica" font-size="13" font-weight="normal">
                    <tspan x="263" y="322">Weight/Scale Variations</tspan>
                </text>
                <text id="Ultralight" fill="#000000" fill-rule="nonzero" font-family="Helvetica" font-size="13" font-weight="normal">
                    <tspan x="533.711" y="322">Ultralight</tspan>
                </text>
                <text id="Thin" fill="#000000" fill-rule="nonzero" font-family="Helvetica" font-size="13" font-weight="normal">
                    <tspan x="843.422" y="322">Thin</tspan>
                </text>
                <text id="Light" fill="#000000" fill-rule="nonzero" font-family="Helvetica" font-size="13" font-weight="normal">
                    <tspan x="1138.63" y="322">Light</tspan>
                </text>
                <text id="Regular" fill="#000000" fill-rule="nonzero" font-family="Helvetica" font-size="13" font-weight="normal">
                    <tspan x="1426.84" y="322">Regular</tspan>
                </text>
                <text id="Medium" fill="#000000" fill-rule="nonzero" font-family="Helvetica" font-size="13" font-weight="normal">
                    <tspan x="1723.06" y="322">Medium</tspan>
                </text>
                <text id="Semibold" fill="#000000" fill-rule="nonzero" font-family="Helvetica" font-size="13" font-weight="normal">
                    <tspan x="2015.77" y="322">Semibold</tspan>
                </text>
                <text id="Bold" fill="#000000" fill-rule="nonzero" font-family="Helvetica" font-size="13" font-weight="normal">
                    <tspan x="2326.48" y="322">Bold</tspan>
                </text>
                <text id="Heavy" fill="#000000" fill-rule="nonzero" font-family="Helvetica" font-size="13" font-weight="normal">
                    <tspan x="2618.19" y="322">Heavy</tspan>
                </text>
                <text id="Black" fill="#000000" fill-rule="nonzero" font-family="Helvetica" font-size="13" font-weight="normal">
                    <tspan x="2917.4" y="322">Black</tspan>
                </text>
                <line x1="263" y1="1903" x2="3036" y2="1903" id="Path" stroke="#000000" stroke-width="0.5"></line>
                <g id="Group" transform="translate(264.367190, 1918.068400)" fill="#000000" fill-rule="nonzero">
                    <path d="M7.88086,15.761678 C12.18751,15.761678 15.77151,12.18746 15.77151,7.88082 C15.77151,3.5742 12.17771,0 7.87109,0 C3.57422,0 -8.8817842e-16,3.5742 -8.8817842e-16,7.88082 C-8.8817842e-16,12.18746 3.58398,15.761678 7.88086,15.761678 Z M7.88086,14.277303 C4.33593,14.277303 1.5039,11.43551 1.5039,7.88082 C1.5039,4.3261 4.32617,1.4843 7.87109,1.4843 C11.42581,1.4843 14.27731,4.3261 14.27731,7.88082 C14.27731,11.43551 11.43551,14.277303 7.88086,14.277303 Z M4.28711,7.88082 C4.28711,8.31051 4.58984,8.60348 5.03906,8.60348 L7.13867,8.60348 L7.13867,10.72262 C7.13867,11.16207 7.43164,11.4648 7.86133,11.4648 C8.31054,11.4648 8.60351,11.16207 8.60351,10.72262 L8.60351,8.60348 L10.72261,8.60348 C11.16211,8.60348 11.46481,8.31051 11.46481,7.88082 C11.46481,7.44137 11.16211,7.13863 10.72261,7.13863 L8.60351,7.13863 L8.60351,5.02926 C8.60351,4.58 8.31054,4.2773 7.86133,4.2773 C7.43164,4.2773 7.13867,4.58 7.13867,5.02926 L7.13867,7.13863 L5.03906,7.13863 C4.58984,7.13863 4.28711,7.44137 4.28711,7.88082 Z" id="Shape"></path>
                </g>
                <g id="Group" transform="translate(283.615050, 1915.988300)" fill="#000000" fill-rule="nonzero">
                    <path d="M9.96095,19.92186 C15.41015,19.92186 19.92185,15.40037 19.92185,9.96092 C19.92185,4.5117 15.40035,0 9.95115,0 C4.51172,0 8.8817842e-16,4.5117 8.8817842e-16,9.96092 C8.8817842e-16,15.40037 4.52148,19.92186 9.96095,19.92186 Z M9.96095,18.2617 C5.35156,18.2617 1.66992,14.57029 1.66992,9.96092 C1.66992,5.3515 5.34179,1.6601 9.95115,1.6601 C14.56055,1.6601 18.26175,5.3515 18.26175,9.96092 C18.26175,14.57029 14.57035,18.2617 9.96095,18.2617 Z M5.42968,9.96092 C5.42968,10.43943 5.76172,10.7617 6.25976,10.7617 L9.13085,10.7617 L9.13085,13.64256 C9.13085,14.13084 9.46285,14.47264 9.94145,14.47264 C10.42965,14.47264 10.77145,14.14061 10.77145,13.64256 L10.77145,10.7617 L13.65235,10.7617 C14.14065,10.7617 14.48245,10.43943 14.48245,9.96092 C14.48245,9.47264 14.14065,9.13084 13.65235,9.13084 L10.77145,9.13084 L10.77145,6.2597 C10.77145,5.7617 10.42965,5.4199 9.94145,5.4199 C9.46285,5.4199 9.13085,5.7617 9.13085,6.2597 L9.13085,9.13084 L6.25976,9.13084 C5.76172,9.13084 5.42968,9.47264 5.42968,9.96092 Z" id="Shape"></path>
                </g>
                <g id="Group" transform="translate(307.901860, 1913.224600)" fill="#000000" fill-rule="nonzero">
                    <path d="M12.71484,25.43946 C19.67774,25.43946 25.43944,19.6777438 25.43944,12.72462 C25.43944,5.7617 19.66794,0 12.70504,0 C5.75195,0 0,5.7617 0,12.72462 C0,19.6777438 5.76172,25.43946 12.71484,25.43946 Z M12.71484,23.62306 C6.67969,23.62306 1.82617,18.75978 1.82617,12.72462 C1.82617,6.6797 6.66992,1.8262 12.70504,1.8262 C18.75004,1.8262 23.61324,6.6797 23.61324,12.72462 C23.61324,18.75978 18.75974,23.62306 12.71484,23.62306 Z M6.94336,12.72462 C6.94336,13.2422 7.31445,13.60352 7.86134,13.60352 L11.80664,13.60352 L11.80664,17.5586 C11.80664,18.09571 12.17774,18.47657 12.69534,18.47657 C13.23244,18.47657 13.60354,18.10548 13.60354,17.5586 L13.60354,13.60352 L17.55864,13.60352 C18.09574,13.60352 18.47654,13.2422 18.47654,12.72462 C18.47654,12.17774 18.10544,11.80665 17.55864,11.80665 L13.60354,11.80665 L13.60354,7.8613 C13.60354,7.3145 13.23244,6.9336 12.69534,6.9336 C12.17774,6.9336 11.80664,7.3145 11.80664,7.8613 L11.80664,11.80665 L7.86134,11.80665 C7.31445,11.80665 6.94336,12.17774 6.94336,12.72462 Z" id="Shape"></path>
                </g>
                <text id="Design-Variations" fill="#000000" fill-rule="nonzero" font-family="Helvetica" font-size="13" font-weight="normal">
                    <tspan x="263" y="1953">Design Variations</tspan>
                </text>
                <text id="Symbols-are-supported-in-up-to-nine-weights-and-three-scales." fill="#000000" fill-rule="nonzero" font-family="Helvetica" font-size="13" font-weight="normal">
                    <tspan x="263" y="1971">Symbols are supported in up to nine weights and three scales.</tspan>
                </text>
                <text id="For-optimal-layout-with-text-and-other-symbols,-vertically-align" fill="#000000" fill-rule="nonzero" font-family="Helvetica" font-size="13" font-weight="normal">
                    <tspan x="263" y="1989">For optimal layout with text and other symbols, vertically align</tspan>
                </text>
                <text id="symbols-with-the-adjacent-text." fill="#000000" fill-rule="nonzero" font-family="Helvetica" font-size="13" font-weight="normal">
                    <tspan x="263" y="2007">symbols with the adjacent text.</tspan>
                </text>
                <line x1="776" y1="1919" x2="776" y2="1933" id="Path" stroke="#00AEEF" stroke-width="0.5"></line>
                <g id="Group" transform="translate(778.490230, 1918.732400)" fill="#000000" fill-rule="nonzero">
                    <path d="M0.82032,14.42385 C1.33789,14.42385 1.5918,14.2285375 1.77735,13.681662 L3.03711,10.2344 L8.79887,10.2344 L10.05857,13.681662 C10.24417,14.2285375 10.49807,14.42385 11.00587,14.42385 C11.52347,14.42385 11.85547,14.11135 11.85547,13.623069 C11.85547,13.457053 11.82617,13.300803 11.74807,13.09572 L7.16797,0.8985 C6.94336,0.3028 6.54297,0 5.91797,0 C5.3125,0 4.90235,0.293 4.6875,0.8887 L0.10743,13.10549 C0.0293,13.310569 -4.4408921e-16,13.466819 -4.4408921e-16,13.632834 C-4.4408921e-16,14.121116 0.3125,14.42385 0.82032,14.42385 Z M3.51563,8.75002 L5.88868,2.1778 L5.9375,2.1778 L8.31057,8.75002 L3.51563,8.75002 Z" id="Shape"></path>
                </g>
                <line x1="793.197" y1="1919" x2="793.197" y2="1933" id="Path" stroke="#00AEEF" stroke-width="0.5"></line>
                <text id="Margins" fill="#000000" fill-rule="nonzero" font-family="Helvetica" font-size="13" font-weight="normal">
                    <tspan x="776" y="1953">Margins</tspan>
                </text>
                <text id="Leading-and-trailing-margins-on-the-left-and-right-side-of-each-symbol" fill="#000000" fill-rule="nonzero" font-family="Helvetica" font-size="13" font-weight="normal">
                    <tspan x="776" y="1971">Leading and trailing margins on the left and right side of each symbol</tspan>
                </text>
                <text id="can-be-adjusted-by-modifying-the-x-location-of-the-margin-guidelines." fill="#000000" fill-rule="nonzero" font-family="Helvetica" font-size="13" font-weight="normal">
                    <tspan x="776" y="1989">can be adjusted by modifying the x-location of the margin guidelines.</tspan>
                </text>
                <text id="Modifications-are-automatically-applied-proportionally-to-all" fill="#000000" fill-rule="nonzero" font-family="Helvetica" font-size="13" font-weight="normal">
                    <tspan x="776" y="2007">Modifications are automatically applied proportionally to all</tspan>
                </text>
                <text id="scales-and-weights." fill="#000000" fill-rule="nonzero" font-family="Helvetica" font-size="13" font-weight="normal">
                    <tspan x="776" y="2025">scales and weights.</tspan>
                </text>
                <g id="Group" transform="translate(1291.248126, 1914.517396)" fill="#000000" fill-rule="nonzero">
                    <path d="M0.593673634,20.347834 L2.29289363,22.056824 C3.15226363,22.925964 4.13859363,22.867374 5.06632363,21.841984 L15.7596736,10.054874 L14.7928736,9.07830404 L4.17765363,20.757994 C3.82609363,21.158384 3.49406363,21.256044 3.02531363,20.787294 L1.85343363,19.625184 C1.38468363,19.166198 1.49210363,18.824401 1.89249363,18.4630728 L13.3670736,7.66230404 L12.3905736,6.69550404 L0.798753634,17.584166 C-0.187576366,18.5021352 -0.265706366,19.478698 0.593673634,20.347834 Z M7.00968363,2.15450404 C6.58976363,2.56460404 6.56046363,3.14080404 6.79484363,3.53140404 C7.02921363,3.89280404 7.48820363,4.12710404 8.13277363,3.96110404 C9.59757363,3.61930404 11.1209736,3.56070404 12.5467736,4.49820404 L11.9608736,5.95330404 C11.6190736,6.78340404 11.7948736,7.36930404 12.3319736,7.91620404 L14.6268736,10.230654 C15.1151736,10.718934 15.5252736,10.738464 16.0916736,10.640804 L17.1561736,10.445494 L17.8202736,11.119324 L17.7811736,11.675964 C17.7420736,12.174014 17.8690736,12.554874 18.3573736,13.033384 L19.1190736,13.775574 C19.5975736,14.254084 20.2127736,14.283384 20.6815736,13.814634 L23.5916736,10.894714 C24.0604736,10.425964 24.0409736,9.83026404 23.5623736,9.35174404 L22.7909736,8.59002404 C22.3123736,8.11150404 21.9413736,7.95530404 21.4627736,7.99430404 L20.8866736,8.04310404 L20.2420736,7.40840404 L20.4862736,6.28530404 C20.6131736,5.71890404 20.4569736,5.27950404 19.8709736,4.69350404 L17.6737736,2.50600404 C14.3338736,-0.814295964 9.90027363,-0.736195964 7.00968363,2.15450404 Z M8.50387363,2.52560404 C10.9354736,0.748204036 14.2264736,1.05100404 16.4530736,3.27750404 L18.8846736,5.68960404 C19.1190736,5.92400404 19.1580736,6.10960404 19.0897736,6.45140404 L18.7674736,7.93570404 L20.2713736,9.42010404 L21.2577736,9.36151404 C21.5116736,9.35174404 21.5897736,9.37127404 21.7850736,9.56658404 L22.3612736,10.142764 L19.9198736,12.584164 L19.3436736,12.007994 C19.1483736,11.812684 19.1190736,11.734554 19.1288736,11.470884 L19.1971736,10.494324 L17.7030736,9.00994404 L16.1795736,9.26385404 C15.8573736,9.33221404 15.7108736,9.30291404 15.4666736,9.06854404 L13.4647736,7.06660404 C13.2108736,6.83220404 13.1815736,6.66620404 13.3377736,6.29510404 L14.2166736,4.20530404 C12.6541736,2.75020404 10.6229736,2.12520404 8.59167363,2.72090404 C8.43547363,2.75990404 8.37687363,2.63300404 8.50387363,2.52560404 Z" id="Shape"></path>
                </g>
                <text id="Exporting" fill="#000000" fill-rule="nonzero" font-family="Helvetica" font-size="13" font-weight="normal">
                    <tspan x="1289" y="1953">Exporting</tspan>
                </text>
                <text id="Symbols-should-be-outlined-when-exporting-to-ensure-the" fill="#000000" fill-rule="nonzero" font-family="Helvetica" font-size="13" font-weight="normal">
                    <tspan x="1289" y="1971">Symbols should be outlined when exporting to ensure the</tspan>
                </text>
                <text id="design-is-preserved-when-submitting-to-Xcode." fill="#000000" fill-rule="nonzero" font-family="Helvetica" font-size="13" font-weight="normal">
                    <tspan x="1289" y="1989">design is preserved when submitting to Xcode.</tspan>
                </text>
                <text id="template-version" fill="#000000" fill-rule="nonzero" font-family="Helvetica" font-size="13" font-weight="normal">
                    <tspan x="2952" y="1933">Template v.2.0</tspan>
                </text>
                <text id="Requires-Xcode-12-or-greater" fill="#000000" fill-rule="nonzero" font-family="Helvetica" font-size="13" font-weight="normal">
                    <tspan x="2865" y="1951">Requires Xcode 12 or greater</tspan>
                </text>
                <text id="descriptive-name" fill="#000000" fill-rule="nonzero" font-family="Helvetica" font-size="13" font-weight="normal">
                    <tspan x="2889" y="1969">Generated from unsplash</tspan>
                </text>
                <text id="Typeset-at-100-points" fill="#000000" fill-rule="nonzero" font-family="Helvetica" font-size="13" font-weight="normal">
                    <tspan x="2912" y="1987">Typeset at 100 points</tspan>
                </text>
                <text id="Small" fill="#000000" fill-rule="nonzero" font-family="Helvetica" font-size="13" font-weight="normal">
                    <tspan x="263" y="726">Small</tspan>
                </text>
                <text id="Medium" fill="#000000" fill-rule="nonzero" font-family="Helvetica" font-size="13" font-weight="normal">
                    <tspan x="263" y="1156">Medium</tspan>
                </text>
                <text id="Large" fill="#000000" fill-rule="nonzero" font-family="Helvetica" font-size="13" font-weight="normal">
                    <tspan x="263" y="1586">Large</tspan>
                </text>
            </g>
            <g id="Guides" transform="translate(263.000000, 625.041000)">
                <g id="H-reference" transform="translate(76.976562, 0.500000)" fill="#27AAE1" fill-rule="nonzero">
                    <path d="M-1.22124533e-15,70.459 L2.685548,70.459 L12.011738,45.9961 L44.775438,45.9961 L54.150438,70.459 L56.787138,70.459 L29.638638,0 L27.148438,0 L-1.22124533e-15,70.459 Z M28.369138,3.3203 L28.466838,3.3203 L43.896438,43.75 L12.890638,43.75 L28.369138,3.3203 Z" id="Shape"></path>
                </g>
                <line x1="0" y1="70.959" x2="2773" y2="70.959" id="Baseline-S" stroke="#27AAE1" stroke-width="0.5"></line>
                <line x1="0" y1="0.5" x2="2773" y2="0.5" id="Capline-S" stroke="#27AAE1" stroke-width="0.5"></line>
                <g id="H-reference" transform="translate(76.976562, 430.500000)" fill="#27AAE1" fill-rule="nonzero">
                    <path d="M-1.22124533e-15,70.459 L2.685548,70.459 L12.011738,45.9961 L44.775438,45.9961 L54.150438,70.459 L56.787138,70.459 L29.638638,0 L27.148438,0 L-1.22124533e-15,70.459 Z M28.369138,3.3203 L28.466838,3.3203 L43.896438,43.75 L12.890638,43.75 L28.369138,3.3203 Z" id="Shape"></path>
                </g>
                <line x1="0" y1="500.959" x2="2773" y2="500.959" id="Baseline-M" stroke="#27AAE1" stroke-width="0.5"></line>
                <line x1="0" y1="430.499" x2="2773" y2="430.499" id="Capline-M" stroke="#27AAE1" stroke-width="0.5"></line>
                <g id="H-reference" transform="translate(76.976562, 860.500000)" fill="#27AAE1" fill-rule="nonzero">
                    <path d="M-1.22124533e-15,70.459 L2.685548,70.459 L12.011738,45.9961 L44.775438,45.9961 L54.150438,70.459 L56.787138,70.459 L29.638638,0 L27.148438,0 L-1.22124533e-15,70.459 Z M28.369138,3.3203 L28.466838,3.3203 L43.896438,43.75 L12.890638,43.75 L28.369138,3.3203 Z" id="Shape"></path>
                </g>
                <line x1="0" y1="930.959" x2="2773" y2="930.959" id="Baseline-L" stroke="#27AAE1" stroke-width="0.5"></line>
                <line x1="0" y1="860.499" x2="2773" y2="860.499" id="Capline-L" stroke="#27AAE1" stroke-width="0.5"></line>
                <line x1="1154.3214" y1="405.749" x2="1154.3214" y2="525.079" id="left-margin" stroke="#00AEEF" stroke-width="0.5"></line>
                <line x1="1221.9386" y1="405.749" x2="1221.9386" y2="525.079" id="right-margin" stroke="#00AEEF" stroke-width="0.5"></line>
            </g>
            <g id="Symbols" transform="translate(495.514878, 621.022073)" fill="#000000" fill-rule="nonzero">
                <g id="Black-L" transform="translate(2373.680000, 834.262824)">
                    <path d="M0,0 L130.97,0 L130.97,130.97 L0,130.97 L0,0 Z M120.242,99.734 C119.287,93.758 115.396,88.738 103.854,84.056 C99.838,82.173 95.374,80.863 94.048,77.835 C93.551,76.034 93.475,75.051 93.797,73.987 C94.615,70.462 98.79,69.403 102.064,70.386 C104.192,71.04 106.157,72.678 107.39,75.297 C113.033,71.608 113.033,71.608 116.967,69.158 C115.494,66.866 114.763,65.878 113.769,64.901 C110.332,61.054 105.753,59.089 98.304,59.259 L94.457,59.744 C90.768,60.645 87.253,62.609 85.125,65.229 C78.904,72.274 80.699,84.552 88.23,89.627 C95.679,95.194 106.572,96.416 107.963,101.66 C109.273,108.045 103.215,110.091 97.234,109.355 C92.809,108.372 90.359,106.157 87.657,102.064 L77.671,107.799 C78.817,110.419 80.127,111.559 82.091,113.851 C91.586,123.434 115.325,122.943 119.587,108.372 C119.745,107.881 120.896,104.525 119.991,99.368 L120.242,99.734 Z M71.221,60.197 L58.953,60.197 C58.953,70.773 58.904,81.283 58.904,91.876 C58.904,98.599 59.248,104.771 58.151,106.67 C56.35,110.43 51.711,109.95 49.605,109.289 C47.444,108.22 46.347,106.746 45.076,104.623 C44.732,104.05 44.475,103.554 44.383,103.554 L34.423,109.693 C36.088,113.131 38.516,116.089 41.649,117.971 C46.314,120.755 52.585,121.655 59.149,120.182 C63.422,118.948 67.106,116.411 69.032,112.482 C71.815,107.407 71.226,101.185 71.199,94.222 C71.264,83.013 71.199,71.799 71.199,60.503 L71.221,60.197 Z" id="Shape"></path>
                </g>
                <g id="Heavy-L" transform="translate(2076.970000, 834.262824)">
                    <path d="M0,0 L130.97,0 L130.97,130.97 L0,130.97 L0,0 Z M120.242,99.734 C119.287,93.758 115.396,88.738 103.854,84.056 C99.838,82.173 95.374,80.863 94.048,77.835 C93.551,76.034 93.475,75.051 93.797,73.987 C94.615,70.462 98.79,69.403 102.064,70.386 C104.192,71.04 106.157,72.678 107.39,75.297 C113.033,71.608 113.033,71.608 116.967,69.158 C115.494,66.866 114.763,65.878 113.769,64.901 C110.332,61.054 105.753,59.089 98.304,59.259 L94.457,59.744 C90.768,60.645 87.253,62.609 85.125,65.229 C78.904,72.274 80.699,84.552 88.23,89.627 C95.679,95.194 106.572,96.416 107.963,101.66 C109.273,108.045 103.215,110.091 97.234,109.355 C92.809,108.372 90.359,106.157 87.657,102.064 L77.671,107.799 C78.817,110.419 80.127,111.559 82.091,113.851 C91.586,123.434 115.325,122.943 119.587,108.372 C119.745,107.881 120.896,104.525 119.991,99.368 L120.242,99.734 Z M71.221,60.197 L58.953,60.197 C58.953,70.773 58.904,81.283 58.904,91.876 C58.904,98.599 59.248,104.771 58.151,106.67 C56.35,110.43 51.711,109.95 49.605,109.289 C47.444,108.22 46.347,106.746 45.076,104.623 C44.732,104.05 44.475,103.554 44.383,103.554 L34.423,109.693 C36.088,113.131 38.516,116.089 41.649,117.971 C46.314,120.755 52.585,121.655 59.149,120.182 C63.422,118.948 67.106,116.411 69.032,112.482 C71.815,107.407 71.226,101.185 71.199,94.222 C71.264,83.013 71.199,71.799 71.199,60.503 L71.221,60.197 Z" id="Shape"></path>
                </g>
                <g id="Bold-L" transform="translate(1780.260000, 834.262824)">
                    <path d="M0,0 L130.97,0 L130.97,130.97 L0,130.97 L0,0 Z M120.242,99.734 C119.287,93.758 115.396,88.738 103.854,84.056 C99.838,82.173 95.374,80.863 94.048,77.835 C93.551,76.034 93.475,75.051 93.797,73.987 C94.615,70.462 98.79,69.403 102.064,70.386 C104.192,71.04 106.157,72.678 107.39,75.297 C113.033,71.608 113.033,71.608 116.967,69.158 C115.494,66.866 114.763,65.878 113.769,64.901 C110.332,61.054 105.753,59.089 98.304,59.259 L94.457,59.744 C90.768,60.645 87.253,62.609 85.125,65.229 C78.904,72.274 80.699,84.552 88.23,89.627 C95.679,95.194 106.572,96.416 107.963,101.66 C109.273,108.045 103.215,110.091 97.234,109.355 C92.809,108.372 90.359,106.157 87.657,102.064 L77.671,107.799 C78.817,110.419 80.127,111.559 82.091,113.851 C91.586,123.434 115.325,122.943 119.587,108.372 C119.745,107.881 120.896,104.525 119.991,99.368 L120.242,99.734 Z M71.221,60.197 L58.953,60.197 C58.953,70.773 58.904,81.283 58.904,91.876 C58.904,98.599 59.248,104.771 58.151,106.67 C56.35,110.43 51.711,109.95 49.605,109.289 C47.444,108.22 46.347,106.746 45.076,104.623 C44.732,104.05 44.475,103.554 44.383,103.554 L34.423,109.693 C36.088,113.131 38.516,116.089 41.649,117.971 C46.314,120.755 52.585,121.655 59.149,120.182 C63.422,118.948 67.106,116.411 69.032,112.482 C71.815,107.407 71.226,101.185 71.199,94.222 C71.264,83.013 71.199,71.799 71.199,60.503 L71.221,60.197 Z" id="Shape"></path>
                </g>
                <g id="Semibold-L" transform="translate(1483.550000, 834.262824)">
                    <path d="M0,0 L130.97,0 L130.97,130.97 L0,130.97 L0,0 Z M120.242,99.734 C119.287,93.758 115.396,88.738 103.854,84.056 C99.838,82.173 95.374,80.863 94.048,77.835 C93.551,76.034 93.475,75.051 93.797,73.987 C94.615,70.462 98.79,69.403 102.064,70.386 C104.192,71.04 106.157,72.678 107.39,75.297 C113.033,71.608 113.033,71.608 116.967,69.158 C115.494,66.866 114.763,65.878 113.769,64.901 C110.332,61.054 105.753,59.089 98.304,59.259 L94.457,59.744 C90.768,60.645 87.253,62.609 85.125,65.229 C78.904,72.274 80.699,84.552 88.23,89.627 C95.679,95.194 106.572,96.416 107.963,101.66 C109.273,108.045 103.215,110.091 97.234,109.355 C92.809,108.372 90.359,106.157 87.657,102.064 L77.671,107.799 C78.817,110.419 80.127,111.559 82.091,113.851 C91.586,123.434 115.325,122.943 119.587,108.372 C119.745,107.881 120.896,104.525 119.991,99.368 L120.242,99.734 Z M71.221,60.197 L58.953,60.197 C58.953,70.773 58.904,81.283 58.904,91.876 C58.904,98.599 59.248,104.771 58.151,106.67 C56.35,110.43 51.711,109.95 49.605,109.289 C47.444,108.22 46.347,106.746 45.076,104.623 C44.732,104.05 44.475,103.554 44.383,103.554 L34.423,109.693 C36.088,113.131 38.516,116.089 41.649,117.971 C46.314,120.755 52.585,121.655 59.149,120.182 C63.422,118.948 67.106,116.411 69.032,112.482 C71.815,107.407 71.226,101.185 71.199,94.222 C71.264,83.013 71.199,71.799 71.199,60.503 L71.221,60.197 Z" id="Shape"></path>
                </g>
                <g id="Medium-L" transform="translate(1186.840000, 834.262824)">
                    <path d="M0,0 L130.97,0 L130.97,130.97 L0,130.97 L0,0 Z M120.242,99.734 C119.287,93.758 115.396,88.738 103.854,84.056 C99.838,82.173 95.374,80.863 94.048,77.835 C93.551,76.034 93.475,75.051 93.797,73.987 C94.615,70.462 98.79,69.403 102.064,70.386 C104.192,71.04 106.157,72.678 107.39,75.297 C113.033,71.608 113.033,71.608 116.967,69.158 C115.494,66.866 114.763,65.878 113.769,64.901 C110.332,61.054 105.753,59.089 98.304,59.259 L94.457,59.744 C90.768,60.645 87.253,62.609 85.125,65.229 C78.904,72.274 80.699,84.552 88.23,89.627 C95.679,95.194 106.572,96.416 107.963,101.66 C109.273,108.045 103.215,110.091 97.234,109.355 C92.809,108.372 90.359,106.157 87.657,102.064 L77.671,107.799 C78.817,110.419 80.127,111.559 82.091,113.851 C91.586,123.434 115.325,122.943 119.587,108.372 C119.745,107.881 120.896,104.525 119.991,99.368 L120.242,99.734 Z M71.221,60.197 L58.953,60.197 C58.953,70.773 58.904,81.283 58.904,91.876 C58.904,98.599 59.248,104.771 58.151,106.67 C56.35,110.43 51.711,109.95 49.605,109.289 C47.444,108.22 46.347,106.746 45.076,104.623 C44.732,104.05 44.475,103.554 44.383,103.554 L34.423,109.693 C36.088,113.131 38.516,116.089 41.649,117.971 C46.314,120.755 52.585,121.655 59.149,120.182 C63.422,118.948 67.106,116.411 69.032,112.482 C71.815,107.407 71.226,101.185 71.199,94.222 C71.264,83.013 71.199,71.799 71.199,60.503 L71.221,60.197 Z" id="Shape"></path>
                </g>
                <g id="Regular-L" transform="translate(890.130000, 834.262824)">
                    <path d="M0,0 L130.97,0 L130.97,130.97 L0,130.97 L0,0 Z M120.242,99.734 C119.287,93.758 115.396,88.738 103.854,84.056 C99.838,82.173 95.374,80.863 94.048,77.835 C93.551,76.034 93.475,75.051 93.797,73.987 C94.615,70.462 98.79,69.403 102.064,70.386 C104.192,71.04 106.157,72.678 107.39,75.297 C113.033,71.608 113.033,71.608 116.967,69.158 C115.494,66.866 114.763,65.878 113.769,64.901 C110.332,61.054 105.753,59.089 98.304,59.259 L94.457,59.744 C90.768,60.645 87.253,62.609 85.125,65.229 C78.904,72.274 80.699,84.552 88.23,89.627 C95.679,95.194 106.572,96.416 107.963,101.66 C109.273,108.045 103.215,110.091 97.234,109.355 C92.809,108.372 90.359,106.157 87.657,102.064 L77.671,107.799 C78.817,110.419 80.127,111.559 82.091,113.851 C91.586,123.434 115.325,122.943 119.587,108.372 C119.745,107.881 120.896,104.525 119.991,99.368 L120.242,99.734 Z M71.221,60.197 L58.953,60.197 C58.953,70.773 58.904,81.283 58.904,91.876 C58.904,98.599 59.248,104.771 58.151,106.67 C56.35,110.43 51.711,109.95 49.605,109.289 C47.444,108.22 46.347,106.746 45.076,104.623 C44.732,104.05 44.475,103.554 44.383,103.554 L34.423,109.693 C36.088,113.131 38.516,116.089 41.649,117.971 C46.314,120.755 52.585,121.655 59.149,120.182 C63.422,118.948 67.106,116.411 69.032,112.482 C71.815,107.407 71.226,101.185 71.199,94.222 C71.264,83.013 71.199,71.799 71.199,60.503 L71.221,60.197 Z" id="Shape"></path>
                </g>
                <g id="Light-L" transform="translate(593.420000, 834.262824)">
                    <path d="M0,0 L130.97,0 L130.97,130.97 L0,130.97 L0,0 Z M120.242,99.734 C119.287,93.758 115.396,88.738 103.854,84.056 C99.838,82.173 95.374,80.863 94.048,77.835 C93.551,76.034 93.475,75.051 93.797,73.987 C94.615,70.462 98.79,69.403 102.064,70.386 C104.192,71.04 106.157,72.678 107.39,75.297 C113.033,71.608 113.033,71.608 116.967,69.158 C115.494,66.866 114.763,65.878 113.769,64.901 C110.332,61.054 105.753,59.089 98.304,59.259 L94.457,59.744 C90.768,60.645 87.253,62.609 85.125,65.229 C78.904,72.274 80.699,84.552 88.23,89.627 C95.679,95.194 106.572,96.416 107.963,101.66 C109.273,108.045 103.215,110.091 97.234,109.355 C92.809,108.372 90.359,106.157 87.657,102.064 L77.671,107.799 C78.817,110.419 80.127,111.559 82.091,113.851 C91.586,123.434 115.325,122.943 119.587,108.372 C119.745,107.881 120.896,104.525 119.991,99.368 L120.242,99.734 Z M71.221,60.197 L58.953,60.197 C58.953,70.773 58.904,81.283 58.904,91.876 C58.904,98.599 59.248,104.771 58.151,106.67 C56.35,110.43 51.711,109.95 49.605,109.289 C47.444,108.22 46.347,106.746 45.076,104.623 C44.732,104.05 44.475,103.554 44.383,103.554 L34.423,109.693 C36.088,113.131 38.516,116.089 41.649,117.971 C46.314,120.755 52.585,121.655 59.149,120.182 C63.422,118.948 67.106,116.411 69.032,112.482 C71.815,107.407 71.226,101.185 71.199,94.222 C71.264,83.013 71.199,71.799 71.199,60.503 L71.221,60.197 Z" id="Shape"></path>
                </g>
                <g id="Thin-L" transform="translate(296.710000, 834.262824)">
                    <path d="M0,0 L130.97,0 L130.97,130.97 L0,130.97 L0,0 Z M120.242,99.734 C119.287,93.758 115.396,88.738 103.854,84.056 C99.838,82.173 95.374,80.863 94.048,77.835 C93.551,76.034 93.475,75.051 93.797,73.987 C94.615,70.462 98.79,69.403 102.064,70.386 C104.192,71.04 106.157,72.678 107.39,75.297 C113.033,71.608 113.033,71.608 116.967,69.158 C115.494,66.866 114.763,65.878 113.769,64.901 C110.332,61.054 105.753,59.089 98.304,59.259 L94.457,59.744 C90.768,60.645 87.253,62.609 85.125,65.229 C78.904,72.274 80.699,84.552 88.23,89.627 C95.679,95.194 106.572,96.416 107.963,101.66 C109.273,108.045 103.215,110.091 97.234,109.355 C92.809,108.372 90.359,106.157 87.657,102.064 L77.671,107.799 C78.817,110.419 80.127,111.559 82.091,113.851 C91.586,123.434 115.325,122.943 119.587,108.372 C119.745,107.881 120.896,104.525 119.991,99.368 L120.242,99.734 Z M71.221,60.197 L58.953,60.197 C58.953,70.773 58.904,81.283 58.904,91.876 C58.904,98.599 59.248,104.771 58.151,106.67 C56.35,110.43 51.711,109.95 49.605,109.289 C47.444,108.22 46.347,106.746 45.076,104.623 C44.732,104.05 44.475,103.554 44.383,103.554 L34.423,109.693 C36.088,113.131 38.516,116.089 41.649,117.971 C46.314,120.755 52.585,121.655 59.149,120.182 C63.422,118.948 67.106,116.411 69.032,112.482 C71.815,107.407 71.226,101.185 71.199,94.222 C71.264,83.013 71.199,71.799 71.199,60.503 L71.221,60.197 Z" id="Shape"></path>
                </g>
                <g id="Ultralight-L" transform="translate(0.000000, 834.262824)">
                    <path d="M0,0 L130.97,0 L130.97,130.97 L0,130.97 L0,0 Z M120.242,99.734 C119.287,93.758 115.396,88.738 103.854,84.056 C99.838,82.173 95.374,80.863 94.048,77.835 C93.551,76.034 93.475,75.051 93.797,73.987 C94.615,70.462 98.79,69.403 102.064,70.386 C104.192,71.04 106.157,72.678 107.39,75.297 C113.033,71.608 113.033,71.608 116.967,69.158 C115.494,66.866 114.763,65.878 113.769,64.901 C110.332,61.054 105.753,59.089 98.304,59.259 L94.457,59.744 C90.768,60.645 87.253,62.609 85.125,65.229 C78.904,72.274 80.699,84.552 88.23,89.627 C95.679,95.194 106.572,96.416 107.963,101.66 C109.273,108.045 103.215,110.091 97.234,109.355 C92.809,108.372 90.359,106.157 87.657,102.064 L77.671,107.799 C78.817,110.419 80.127,111.559 82.091,113.851 C91.586,123.434 115.325,122.943 119.587,108.372 C119.745,107.881 120.896,104.525 119.991,99.368 L120.242,99.734 Z M71.221,60.197 L58.953,60.197 C58.953,70.773 58.904,81.283 58.904,91.876 C58.904,98.599 59.248,104.771 58.151,106.67 C56.35,110.43 51.711,109.95 49.605,109.289 C47.444,108.22 46.347,106.746 45.076,104.623 C44.732,104.05 44.475,103.554 44.383,103.554 L34.423,109.693 C36.088,113.131 38.516,116.089 41.649,117.971 C46.314,120.755 52.585,121.655 59.149,120.182 C63.422,118.948 67.106,116.411 69.032,112.482 C71.815,107.407 71.226,101.185 71.199,94.222 C71.264,83.013 71.199,71.799 71.199,60.503 L71.221,60.197 Z" id="Shape"></path>
                </g>
                <g id="Black-M" transform="translate(2388.401462, 418.984286)">
                    <path d="M0,0 L101.527,0 L101.527,101.527 L0,101.527 L0,0 Z M93.211,77.313 C92.47,72.681 89.454,68.789 80.507,65.159 C77.393,63.7 73.933,62.685 72.905,60.337 C72.52,58.941 72.461,58.179 72.71,57.354 C73.345,54.622 76.581,53.801 79.119,54.562 C80.769,55.07 82.292,56.339 83.248,58.37 C87.622,55.51 87.622,55.51 90.672,53.611 C89.53,51.834 88.963,51.068 88.193,50.311 C85.528,47.329 81.979,45.806 76.205,45.937 L73.222,46.313 C70.363,47.011 67.638,48.534 65.989,50.565 C61.166,56.026 62.558,65.544 68.396,69.479 C74.17,73.793 82.614,74.741 83.692,78.806 C84.708,83.756 80.012,85.342 75.376,84.771 C71.945,84.01 70.045,82.292 67.951,79.119 L60.21,83.565 C61.098,85.596 62.114,86.48 63.636,88.257 C70.997,95.685 89.399,95.305 92.703,84.01 C92.826,83.629 93.718,81.027 93.016,77.03 L93.211,77.313 Z M55.21,46.664 L45.7,46.664 C45.7,54.863 45.662,63.01 45.662,71.221 C45.662,76.433 45.928,81.218 45.078,82.69 C43.682,85.604 40.086,85.232 38.453,84.72 C36.778,83.891 35.928,82.749 34.942,81.103 C34.676,80.659 34.477,80.274 34.405,80.274 L26.685,85.033 C27.975,87.698 29.857,89.991 32.286,91.451 C35.903,93.608 40.763,94.306 45.852,93.164 C49.165,92.208 52.02,90.241 53.513,87.195 C55.671,83.261 55.214,78.438 55.193,73.04 C55.244,64.351 55.193,55.658 55.193,46.901 L55.21,46.664 Z" id="Shape"></path>
                </g>
                <g id="Heavy-M" transform="translate(2091.691462, 418.984286)">
                    <path d="M0,0 L101.527,0 L101.527,101.527 L0,101.527 L0,0 Z M93.211,77.313 C92.47,72.681 89.454,68.789 80.507,65.159 C77.393,63.7 73.933,62.685 72.905,60.337 C72.52,58.941 72.461,58.179 72.71,57.354 C73.345,54.622 76.581,53.801 79.119,54.562 C80.769,55.07 82.292,56.339 83.248,58.37 C87.622,55.51 87.622,55.51 90.672,53.611 C89.53,51.834 88.963,51.068 88.193,50.311 C85.528,47.329 81.979,45.806 76.205,45.937 L73.222,46.313 C70.363,47.011 67.638,48.534 65.989,50.565 C61.166,56.026 62.558,65.544 68.396,69.479 C74.17,73.793 82.614,74.741 83.692,78.806 C84.708,83.756 80.012,85.342 75.376,84.771 C71.945,84.01 70.045,82.292 67.951,79.119 L60.21,83.565 C61.098,85.596 62.114,86.48 63.636,88.257 C70.997,95.685 89.399,95.305 92.703,84.01 C92.826,83.629 93.718,81.027 93.016,77.03 L93.211,77.313 Z M55.21,46.664 L45.7,46.664 C45.7,54.863 45.662,63.01 45.662,71.221 C45.662,76.433 45.928,81.218 45.078,82.69 C43.682,85.604 40.086,85.232 38.453,84.72 C36.778,83.891 35.928,82.749 34.942,81.103 C34.676,80.659 34.477,80.274 34.405,80.274 L26.685,85.033 C27.975,87.698 29.857,89.991 32.286,91.451 C35.903,93.608 40.763,94.306 45.852,93.164 C49.165,92.208 52.02,90.241 53.513,87.195 C55.671,83.261 55.214,78.438 55.193,73.04 C55.244,64.351 55.193,55.658 55.193,46.901 L55.21,46.664 Z" id="Shape"></path>
                </g>
                <g id="Bold-M" transform="translate(1794.981462, 418.984286)">
                    <path d="M0,0 L101.527,0 L101.527,101.527 L0,101.527 L0,0 Z M93.211,77.313 C92.47,72.681 89.454,68.789 80.507,65.159 C77.393,63.7 73.933,62.685 72.905,60.337 C72.52,58.941 72.461,58.179 72.71,57.354 C73.345,54.622 76.581,53.801 79.119,54.562 C80.769,55.07 82.292,56.339 83.248,58.37 C87.622,55.51 87.622,55.51 90.672,53.611 C89.53,51.834 88.963,51.068 88.193,50.311 C85.528,47.329 81.979,45.806 76.205,45.937 L73.222,46.313 C70.363,47.011 67.638,48.534 65.989,50.565 C61.166,56.026 62.558,65.544 68.396,69.479 C74.17,73.793 82.614,74.741 83.692,78.806 C84.708,83.756 80.012,85.342 75.376,84.771 C71.945,84.01 70.045,82.292 67.951,79.119 L60.21,83.565 C61.098,85.596 62.114,86.48 63.636,88.257 C70.997,95.685 89.399,95.305 92.703,84.01 C92.826,83.629 93.718,81.027 93.016,77.03 L93.211,77.313 Z M55.21,46.664 L45.7,46.664 C45.7,54.863 45.662,63.01 45.662,71.221 C45.662,76.433 45.928,81.218 45.078,82.69 C43.682,85.604 40.086,85.232 38.453,84.72 C36.778,83.891 35.928,82.749 34.942,81.103 C34.676,80.659 34.477,80.274 34.405,80.274 L26.685,85.033 C27.975,87.698 29.857,89.991 32.286,91.451 C35.903,93.608 40.763,94.306 45.852,93.164 C49.165,92.208 52.02,90.241 53.513,87.195 C55.671,83.261 55.214,78.438 55.193,73.04 C55.244,64.351 55.193,55.658 55.193,46.901 L55.21,46.664 Z" id="Shape"></path>
                </g>
                <g id="Semibold-M" transform="translate(1498.271462, 418.984286)">
                    <path d="M0,0 L101.527,0 L101.527,101.527 L0,101.527 L0,0 Z M93.211,77.313 C92.47,72.681 89.454,68.789 80.507,65.159 C77.393,63.7 73.933,62.685 72.905,60.337 C72.52,58.941 72.461,58.179 72.71,57.354 C73.345,54.622 76.581,53.801 79.119,54.562 C80.769,55.07 82.292,56.339 83.248,58.37 C87.622,55.51 87.622,55.51 90.672,53.611 C89.53,51.834 88.963,51.068 88.193,50.311 C85.528,47.329 81.979,45.806 76.205,45.937 L73.222,46.313 C70.363,47.011 67.638,48.534 65.989,50.565 C61.166,56.026 62.558,65.544 68.396,69.479 C74.17,73.793 82.614,74.741 83.692,78.806 C84.708,83.756 80.012,85.342 75.376,84.771 C71.945,84.01 70.045,82.292 67.951,79.119 L60.21,83.565 C61.098,85.596 62.114,86.48 63.636,88.257 C70.997,95.685 89.399,95.305 92.703,84.01 C92.826,83.629 93.718,81.027 93.016,77.03 L93.211,77.313 Z M55.21,46.664 L45.7,46.664 C45.7,54.863 45.662,63.01 45.662,71.221 C45.662,76.433 45.928,81.218 45.078,82.69 C43.682,85.604 40.086,85.232 38.453,84.72 C36.778,83.891 35.928,82.749 34.942,81.103 C34.676,80.659 34.477,80.274 34.405,80.274 L26.685,85.033 C27.975,87.698 29.857,89.991 32.286,91.451 C35.903,93.608 40.763,94.306 45.852,93.164 C49.165,92.208 52.02,90.241 53.513,87.195 C55.671,83.261 55.214,78.438 55.193,73.04 C55.244,64.351 55.193,55.658 55.193,46.901 L55.21,46.664 Z" id="Shape"></path>
                </g>
                <g id="Medium-M" transform="translate(1201.561462, 418.984286)">
                    <path d="M0,0 L101.527,0 L101.527,101.527 L0,101.527 L0,0 Z M93.211,77.313 C92.47,72.681 89.454,68.789 80.507,65.159 C77.393,63.7 73.933,62.685 72.905,60.337 C72.52,58.941 72.461,58.179 72.71,57.354 C73.345,54.622 76.581,53.801 79.119,54.562 C80.769,55.07 82.292,56.339 83.248,58.37 C87.622,55.51 87.622,55.51 90.672,53.611 C89.53,51.834 88.963,51.068 88.193,50.311 C85.528,47.329 81.979,45.806 76.205,45.937 L73.222,46.313 C70.363,47.011 67.638,48.534 65.989,50.565 C61.166,56.026 62.558,65.544 68.396,69.479 C74.17,73.793 82.614,74.741 83.692,78.806 C84.708,83.756 80.012,85.342 75.376,84.771 C71.945,84.01 70.045,82.292 67.951,79.119 L60.21,83.565 C61.098,85.596 62.114,86.48 63.636,88.257 C70.997,95.685 89.399,95.305 92.703,84.01 C92.826,83.629 93.718,81.027 93.016,77.03 L93.211,77.313 Z M55.21,46.664 L45.7,46.664 C45.7,54.863 45.662,63.01 45.662,71.221 C45.662,76.433 45.928,81.218 45.078,82.69 C43.682,85.604 40.086,85.232 38.453,84.72 C36.778,83.891 35.928,82.749 34.942,81.103 C34.676,80.659 34.477,80.274 34.405,80.274 L26.685,85.033 C27.975,87.698 29.857,89.991 32.286,91.451 C35.903,93.608 40.763,94.306 45.852,93.164 C49.165,92.208 52.02,90.241 53.513,87.195 C55.671,83.261 55.214,78.438 55.193,73.04 C55.244,64.351 55.193,55.658 55.193,46.901 L55.21,46.664 Z" id="Shape"></path>
                </g>
                <g id="Regular-M" transform="translate(904.851462, 418.984286)">
                    <path d="M0,0 L101.527,0 L101.527,101.527 L0,101.527 L0,0 Z M93.211,77.313 C92.47,72.681 89.454,68.789 80.507,65.159 C77.393,63.7 73.933,62.685 72.905,60.337 C72.52,58.941 72.461,58.179 72.71,57.354 C73.345,54.622 76.581,53.801 79.119,54.562 C80.769,55.07 82.292,56.339 83.248,58.37 C87.622,55.51 87.622,55.51 90.672,53.611 C89.53,51.834 88.963,51.068 88.193,50.311 C85.528,47.329 81.979,45.806 76.205,45.937 L73.222,46.313 C70.363,47.011 67.638,48.534 65.989,50.565 C61.166,56.026 62.558,65.544 68.396,69.479 C74.17,73.793 82.614,74.741 83.692,78.806 C84.708,83.756 80.012,85.342 75.376,84.771 C71.945,84.01 70.045,82.292 67.951,79.119 L60.21,83.565 C61.098,85.596 62.114,86.48 63.636,88.257 C70.997,95.685 89.399,95.305 92.703,84.01 C92.826,83.629 93.718,81.027 93.016,77.03 L93.211,77.313 Z M55.21,46.664 L45.7,46.664 C45.7,54.863 45.662,63.01 45.662,71.221 C45.662,76.433 45.928,81.218 45.078,82.69 C43.682,85.604 40.086,85.232 38.453,84.72 C36.778,83.891 35.928,82.749 34.942,81.103 C34.676,80.659 34.477,80.274 34.405,80.274 L26.685,85.033 C27.975,87.698 29.857,89.991 32.286,91.451 C35.903,93.608 40.763,94.306 45.852,93.164 C49.165,92.208 52.02,90.241 53.513,87.195 C55.671,83.261 55.214,78.438 55.193,73.04 C55.244,64.351 55.193,55.658 55.193,46.901 L55.21,46.664 Z" id="Shape"></path>
                </g>
                <g id="Light-M" transform="translate(608.141462, 418.984286)">
                    <path d="M0,0 L101.527,0 L101.527,101.527 L0,101.527 L0,0 Z M93.211,77.313 C92.47,72.681 89.454,68.789 80.507,65.159 C77.393,63.7 73.933,62.685 72.905,60.337 C72.52,58.941 72.461,58.179 72.71,57.354 C73.345,54.622 76.581,53.801 79.119,54.562 C80.769,55.07 82.292,56.339 83.248,58.37 C87.622,55.51 87.622,55.51 90.672,53.611 C89.53,51.834 88.963,51.068 88.193,50.311 C85.528,47.329 81.979,45.806 76.205,45.937 L73.222,46.313 C70.363,47.011 67.638,48.534 65.989,50.565 C61.166,56.026 62.558,65.544 68.396,69.479 C74.17,73.793 82.614,74.741 83.692,78.806 C84.708,83.756 80.012,85.342 75.376,84.771 C71.945,84.01 70.045,82.292 67.951,79.119 L60.21,83.565 C61.098,85.596 62.114,86.48 63.636,88.257 C70.997,95.685 89.399,95.305 92.703,84.01 C92.826,83.629 93.718,81.027 93.016,77.03 L93.211,77.313 Z M55.21,46.664 L45.7,46.664 C45.7,54.863 45.662,63.01 45.662,71.221 C45.662,76.433 45.928,81.218 45.078,82.69 C43.682,85.604 40.086,85.232 38.453,84.72 C36.778,83.891 35.928,82.749 34.942,81.103 C34.676,80.659 34.477,80.274 34.405,80.274 L26.685,85.033 C27.975,87.698 29.857,89.991 32.286,91.451 C35.903,93.608 40.763,94.306 45.852,93.164 C49.165,92.208 52.02,90.241 53.513,87.195 C55.671,83.261 55.214,78.438 55.193,73.04 C55.244,64.351 55.193,55.658 55.193,46.901 L55.21,46.664 Z" id="Shape"></path>
                </g>
                <g id="Thin-M" transform="translate(311.431462, 418.984286)">
                    <path d="M0,0 L101.527,0 L101.527,101.527 L0,101.527 L0,0 Z M93.211,77.313 C92.47,72.681 89.454,68.789 80.507,65.159 C77.393,63.7 73.933,62.685 72.905,60.337 C72.52,58.941 72.461,58.179 72.71,57.354 C73.345,54.622 76.581,53.801 79.119,54.562 C80.769,55.07 82.292,56.339 83.248,58.37 C87.622,55.51 87.622,55.51 90.672,53.611 C89.53,51.834 88.963,51.068 88.193,50.311 C85.528,47.329 81.979,45.806 76.205,45.937 L73.222,46.313 C70.363,47.011 67.638,48.534 65.989,50.565 C61.166,56.026 62.558,65.544 68.396,69.479 C74.17,73.793 82.614,74.741 83.692,78.806 C84.708,83.756 80.012,85.342 75.376,84.771 C71.945,84.01 70.045,82.292 67.951,79.119 L60.21,83.565 C61.098,85.596 62.114,86.48 63.636,88.257 C70.997,95.685 89.399,95.305 92.703,84.01 C92.826,83.629 93.718,81.027 93.016,77.03 L93.211,77.313 Z M55.21,46.664 L45.7,46.664 C45.7,54.863 45.662,63.01 45.662,71.221 C45.662,76.433 45.928,81.218 45.078,82.69 C43.682,85.604 40.086,85.232 38.453,84.72 C36.778,83.891 35.928,82.749 34.942,81.103 C34.676,80.659 34.477,80.274 34.405,80.274 L26.685,85.033 C27.975,87.698 29.857,89.991 32.286,91.451 C35.903,93.608 40.763,94.306 45.852,93.164 C49.165,92.208 52.02,90.241 53.513,87.195 C55.671,83.261 55.214,78.438 55.193,73.04 C55.244,64.351 55.193,55.658 55.193,46.901 L55.21,46.664 Z" id="Shape"></path>
                </g>
                <g id="Ultralight-M" transform="translate(14.721462, 418.984286)">
                    <path d="M0,0 L101.527,0 L101.527,101.527 L0,101.527 L0,0 Z M93.211,77.313 C92.47,72.681 89.454,68.789 80.507,65.159 C77.393,63.7 73.933,62.685 72.905,60.337 C72.52,58.941 72.461,58.179 72.71,57.354 C73.345,54.622 76.581,53.801 79.119,54.562 C80.769,55.07 82.292,56.339 83.248,58.37 C87.622,55.51 87.622,55.51 90.672,53.611 C89.53,51.834 88.963,51.068 88.193,50.311 C85.528,47.329 81.979,45.806 76.205,45.937 L73.222,46.313 C70.363,47.011 67.638,48.534 65.989,50.565 C61.166,56.026 62.558,65.544 68.396,69.479 C74.17,73.793 82.614,74.741 83.692,78.806 C84.708,83.756 80.012,85.342 75.376,84.771 C71.945,84.01 70.045,82.292 67.951,79.119 L60.21,83.565 C61.098,85.596 62.114,86.48 63.636,88.257 C70.997,95.685 89.399,95.305 92.703,84.01 C92.826,83.629 93.718,81.027 93.016,77.03 L93.211,77.313 Z M55.21,46.664 L45.7,46.664 C45.7,54.863 45.662,63.01 45.662,71.221 C45.662,76.433 45.928,81.218 45.078,82.69 C43.682,85.604 40.086,85.232 38.453,84.72 C36.778,83.891 35.928,82.749 34.942,81.103 C34.676,80.659 34.477,80.274 34.405,80.274 L26.685,85.033 C27.975,87.698 29.857,89.991 32.286,91.451 C35.903,93.608 40.763,94.306 45.852,93.164 C49.165,92.208 52.02,90.241 53.513,87.195 C55.671,83.261 55.214,78.438 55.193,73.04 C55.244,64.351 55.193,55.658 55.193,46.901 L55.21,46.664 Z" id="Shape"></path>
                </g>
                <g id="Black-S" transform="translate(2399.417176, 0.000000)">
                    <path d="M0,0 L79.496,0 L79.496,79.496 L0,79.496 L0,0 Z M72.984,60.536 C72.404,56.909 70.043,53.862 63.037,51.02 C60.599,49.877 57.89,49.082 57.085,47.244 C56.783,46.151 56.737,45.554 56.932,44.909 C57.429,42.769 59.963,42.126 61.95,42.722 C63.242,43.12 64.435,44.114 65.183,45.704 C68.608,43.464 68.608,43.464 70.996,41.977 C70.102,40.586 69.658,39.986 69.055,39.394 C66.969,37.058 64.19,35.866 59.668,35.969 L57.333,36.263 C55.094,36.81 52.961,38.002 51.669,39.592 C47.893,43.868 48.983,51.321 53.554,54.402 C58.075,57.78 64.686,58.522 65.531,61.705 C66.326,65.581 62.649,66.823 59.019,66.376 C56.333,65.78 54.846,64.435 53.206,61.95 L47.144,65.432 C47.84,67.022 48.635,67.714 49.827,69.105 C55.591,74.922 69.999,74.623 72.586,65.78 C72.682,65.481 73.381,63.444 72.831,60.314 L72.984,60.536 Z M43.229,36.538 L35.783,36.538 C35.783,42.958 35.753,49.337 35.753,55.766 C35.753,59.847 35.962,63.593 35.296,64.746 C34.203,67.028 31.388,66.737 30.109,66.336 C28.797,65.687 28.132,64.792 27.36,63.504 C27.151,63.156 26.995,62.855 26.939,62.855 L20.894,66.581 C21.904,68.668 23.378,70.463 25.28,71.606 C28.112,73.295 31.918,73.842 35.902,72.947 C38.496,72.199 40.732,70.659 41.901,68.274 C43.59,65.193 43.233,61.417 43.216,57.191 C43.256,50.387 43.216,43.58 43.216,36.724 L43.229,36.538 Z" id="Shape"></path>
                </g>
                <g id="Heavy-S" transform="translate(2102.707176, 0.000000)">
                    <path d="M0,0 L79.496,0 L79.496,79.496 L0,79.496 L0,0 Z M72.984,60.536 C72.404,56.909 70.043,53.862 63.037,51.02 C60.599,49.877 57.89,49.082 57.085,47.244 C56.783,46.151 56.737,45.554 56.932,44.909 C57.429,42.769 59.963,42.126 61.95,42.722 C63.242,43.12 64.435,44.114 65.183,45.704 C68.608,43.464 68.608,43.464 70.996,41.977 C70.102,40.586 69.658,39.986 69.055,39.394 C66.969,37.058 64.19,35.866 59.668,35.969 L57.333,36.263 C55.094,36.81 52.961,38.002 51.669,39.592 C47.893,43.868 48.983,51.321 53.554,54.402 C58.075,57.78 64.686,58.522 65.531,61.705 C66.326,65.581 62.649,66.823 59.019,66.376 C56.333,65.78 54.846,64.435 53.206,61.95 L47.144,65.432 C47.84,67.022 48.635,67.714 49.827,69.105 C55.591,74.922 69.999,74.623 72.586,65.78 C72.682,65.481 73.381,63.444 72.831,60.314 L72.984,60.536 Z M43.229,36.538 L35.783,36.538 C35.783,42.958 35.753,49.337 35.753,55.766 C35.753,59.847 35.962,63.593 35.296,64.746 C34.203,67.028 31.388,66.737 30.109,66.336 C28.797,65.687 28.132,64.792 27.36,63.504 C27.151,63.156 26.995,62.855 26.939,62.855 L20.894,66.581 C21.904,68.668 23.378,70.463 25.28,71.606 C28.112,73.295 31.918,73.842 35.902,72.947 C38.496,72.199 40.732,70.659 41.901,68.274 C43.59,65.193 43.233,61.417 43.216,57.191 C43.256,50.387 43.216,43.58 43.216,36.724 L43.229,36.538 Z" id="Shape"></path>
                </g>
                <g id="Bold-S" transform="translate(1805.997176, 0.000000)">
                    <path d="M0,0 L79.496,0 L79.496,79.496 L0,79.496 L0,0 Z M72.984,60.536 C72.404,56.909 70.043,53.862 63.037,51.02 C60.599,49.877 57.89,49.082 57.085,47.244 C56.783,46.151 56.737,45.554 56.932,44.909 C57.429,42.769 59.963,42.126 61.95,42.722 C63.242,43.12 64.435,44.114 65.183,45.704 C68.608,43.464 68.608,43.464 70.996,41.977 C70.102,40.586 69.658,39.986 69.055,39.394 C66.969,37.058 64.19,35.866 59.668,35.969 L57.333,36.263 C55.094,36.81 52.961,38.002 51.669,39.592 C47.893,43.868 48.983,51.321 53.554,54.402 C58.075,57.78 64.686,58.522 65.531,61.705 C66.326,65.581 62.649,66.823 59.019,66.376 C56.333,65.78 54.846,64.435 53.206,61.95 L47.144,65.432 C47.84,67.022 48.635,67.714 49.827,69.105 C55.591,74.922 69.999,74.623 72.586,65.78 C72.682,65.481 73.381,63.444 72.831,60.314 L72.984,60.536 Z M43.229,36.538 L35.783,36.538 C35.783,42.958 35.753,49.337 35.753,55.766 C35.753,59.847 35.962,63.593 35.296,64.746 C34.203,67.028 31.388,66.737 30.109,66.336 C28.797,65.687 28.132,64.792 27.36,63.504 C27.151,63.156 26.995,62.855 26.939,62.855 L20.894,66.581 C21.904,68.668 23.378,70.463 25.28,71.606 C28.112,73.295 31.918,73.842 35.902,72.947 C38.496,72.199 40.732,70.659 41.901,68.274 C43.59,65.193 43.233,61.417 43.216,57.191 C43.256,50.387 43.216,43.58 43.216,36.724 L43.229,36.538 Z" id="Shape"></path>
                </g>
                <g id="Semibold-S" transform="translate(1509.287176, 0.000000)">
                    <path d="M0,0 L79.496,0 L79.496,79.496 L0,79.496 L0,0 Z M72.984,60.536 C72.404,56.909 70.043,53.862 63.037,51.02 C60.599,49.877 57.89,49.082 57.085,47.244 C56.783,46.151 56.737,45.554 56.932,44.909 C57.429,42.769 59.963,42.126 61.95,42.722 C63.242,43.12 64.435,44.114 65.183,45.704 C68.608,43.464 68.608,43.464 70.996,41.977 C70.102,40.586 69.658,39.986 69.055,39.394 C66.969,37.058 64.19,35.866 59.668,35.969 L57.333,36.263 C55.094,36.81 52.961,38.002 51.669,39.592 C47.893,43.868 48.983,51.321 53.554,54.402 C58.075,57.78 64.686,58.522 65.531,61.705 C66.326,65.581 62.649,66.823 59.019,66.376 C56.333,65.78 54.846,64.435 53.206,61.95 L47.144,65.432 C47.84,67.022 48.635,67.714 49.827,69.105 C55.591,74.922 69.999,74.623 72.586,65.78 C72.682,65.481 73.381,63.444 72.831,60.314 L72.984,60.536 Z M43.229,36.538 L35.783,36.538 C35.783,42.958 35.753,49.337 35.753,55.766 C35.753,59.847 35.962,63.593 35.296,64.746 C34.203,67.028 31.388,66.737 30.109,66.336 C28.797,65.687 28.132,64.792 27.36,63.504 C27.151,63.156 26.995,62.855 26.939,62.855 L20.894,66.581 C21.904,68.668 23.378,70.463 25.28,71.606 C28.112,73.295 31.918,73.842 35.902,72.947 C38.496,72.199 40.732,70.659 41.901,68.274 C43.59,65.193 43.233,61.417 43.216,57.191 C43.256,50.387 43.216,43.58 43.216,36.724 L43.229,36.538 Z" id="Shape"></path>
                </g>
                <g id="Medium-S" transform="translate(1212.577176, 0.000000)">
                    <path d="M0,0 L79.496,0 L79.496,79.496 L0,79.496 L0,0 Z M72.984,60.536 C72.404,56.909 70.043,53.862 63.037,51.02 C60.599,49.877 57.89,49.082 57.085,47.244 C56.783,46.151 56.737,45.554 56.932,44.909 C57.429,42.769 59.963,42.126 61.95,42.722 C63.242,43.12 64.435,44.114 65.183,45.704 C68.608,43.464 68.608,43.464 70.996,41.977 C70.102,40.586 69.658,39.986 69.055,39.394 C66.969,37.058 64.19,35.866 59.668,35.969 L57.333,36.263 C55.094,36.81 52.961,38.002 51.669,39.592 C47.893,43.868 48.983,51.321 53.554,54.402 C58.075,57.78 64.686,58.522 65.531,61.705 C66.326,65.581 62.649,66.823 59.019,66.376 C56.333,65.78 54.846,64.435 53.206,61.95 L47.144,65.432 C47.84,67.022 48.635,67.714 49.827,69.105 C55.591,74.922 69.999,74.623 72.586,65.78 C72.682,65.481 73.381,63.444 72.831,60.314 L72.984,60.536 Z M43.229,36.538 L35.783,36.538 C35.783,42.958 35.753,49.337 35.753,55.766 C35.753,59.847 35.962,63.593 35.296,64.746 C34.203,67.028 31.388,66.737 30.109,66.336 C28.797,65.687 28.132,64.792 27.36,63.504 C27.151,63.156 26.995,62.855 26.939,62.855 L20.894,66.581 C21.904,68.668 23.378,70.463 25.28,71.606 C28.112,73.295 31.918,73.842 35.902,72.947 C38.496,72.199 40.732,70.659 41.901,68.274 C43.59,65.193 43.233,61.417 43.216,57.191 C43.256,50.387 43.216,43.58 43.216,36.724 L43.229,36.538 Z" id="Shape"></path>
                </g>
                <g id="Regular-S" transform="translate(915.867176, 0.000000)">
                    <path d="M0,0 L79.496,0 L79.496,79.496 L0,79.496 L0,0 Z M72.984,60.536 C72.404,56.909 70.043,53.862 63.037,51.02 C60.599,49.877 57.89,49.082 57.085,47.244 C56.783,46.151 56.737,45.554 56.932,44.909 C57.429,42.769 59.963,42.126 61.95,42.722 C63.242,43.12 64.435,44.114 65.183,45.704 C68.608,43.464 68.608,43.464 70.996,41.977 C70.102,40.586 69.658,39.986 69.055,39.394 C66.969,37.058 64.19,35.866 59.668,35.969 L57.333,36.263 C55.094,36.81 52.961,38.002 51.669,39.592 C47.893,43.868 48.983,51.321 53.554,54.402 C58.075,57.78 64.686,58.522 65.531,61.705 C66.326,65.581 62.649,66.823 59.019,66.376 C56.333,65.78 54.846,64.435 53.206,61.95 L47.144,65.432 C47.84,67.022 48.635,67.714 49.827,69.105 C55.591,74.922 69.999,74.623 72.586,65.78 C72.682,65.481 73.381,63.444 72.831,60.314 L72.984,60.536 Z M43.229,36.538 L35.783,36.538 C35.783,42.958 35.753,49.337 35.753,55.766 C35.753,59.847 35.962,63.593 35.296,64.746 C34.203,67.028 31.388,66.737 30.109,66.336 C28.797,65.687 28.132,64.792 27.36,63.504 C27.151,63.156 26.995,62.855 26.939,62.855 L20.894,66.581 C21.904,68.668 23.378,70.463 25.28,71.606 C28.112,73.295 31.918,73.842 35.902,72.947 C38.496,72.199 40.732,70.659 41.901,68.274 C43.59,65.193 43.233,61.417 43.216,57.191 C43.256,50.387 43.216,43.58 43.216,36.724 L43.229,36.538 Z" id="Shape"></path>
                </g>
                <g id="Light-S" transform="translate(619.157176, 0.000000)">
                    <path d="M0,0 L79.496,0 L79.496,79.496 L0,79.496 L0,0 Z M72.984,60.536 C72.404,56.909 70.043,53.862 63.037,51.02 C60.599,49.877 57.89,49.082 57.085,47.244 C56.783,46.151 56.737,45.554 56.932,44.909 C57.429,42.769 59.963,42.126 61.95,42.722 C63.242,43.12 64.435,44.114 65.183,45.704 C68.608,43.464 68.608,43.464 70.996,41.977 C70.102,40.586 69.658,39.986 69.055,39.394 C66.969,37.058 64.19,35.866 59.668,35.969 L57.333,36.263 C55.094,36.81 52.961,38.002 51.669,39.592 C47.893,43.868 48.983,51.321 53.554,54.402 C58.075,57.78 64.686,58.522 65.531,61.705 C66.326,65.581 62.649,66.823 59.019,66.376 C56.333,65.78 54.846,64.435 53.206,61.95 L47.144,65.432 C47.84,67.022 48.635,67.714 49.827,69.105 C55.591,74.922 69.999,74.623 72.586,65.78 C72.682,65.481 73.381,63.444 72.831,60.314 L72.984,60.536 Z M43.229,36.538 L35.783,36.538 C35.783,42.958 35.753,49.337 35.753,55.766 C35.753,59.847 35.962,63.593 35.296,64.746 C34.203,67.028 31.388,66.737 30.109,66.336 C28.797,65.687 28.132,64.792 27.36,63.504 C27.151,63.156 26.995,62.855 26.939,62.855 L20.894,66.581 C21.904,68.668 23.378,70.463 25.28,71.606 C28.112,73.295 31.918,73.842 35.902,72.947 C38.496,72.199 40.732,70.659 41.901,68.274 C43.59,65.193 43.233,61.417 43.216,57.191 C43.256,50.387 43.216,43.58 43.216,36.724 L43.229,36.538 Z" id="Shape"></path>
                </g>
                <g id="Thin-S" transform="translate(322.447176, 0.000000)">
                    <path d="M0,0 L79.496,0 L79.496,79.496 L0,79.496 L0,0 Z M72.984,60.536 C72.404,56.909 70.043,53.862 63.037,51.02 C60.599,49.877 57.89,49.082 57.085,47.244 C56.783,46.151 56.737,45.554 56.932,44.909 C57.429,42.769 59.963,42.126 61.95,42.722 C63.242,43.12 64.435,44.114 65.183,45.704 C68.608,43.464 68.608,43.464 70.996,41.977 C70.102,40.586 69.658,39.986 69.055,39.394 C66.969,37.058 64.19,35.866 59.668,35.969 L57.333,36.263 C55.094,36.81 52.961,38.002 51.669,39.592 C47.893,43.868 48.983,51.321 53.554,54.402 C58.075,57.78 64.686,58.522 65.531,61.705 C66.326,65.581 62.649,66.823 59.019,66.376 C56.333,65.78 54.846,64.435 53.206,61.95 L47.144,65.432 C47.84,67.022 48.635,67.714 49.827,69.105 C55.591,74.922 69.999,74.623 72.586,65.78 C72.682,65.481 73.381,63.444 72.831,60.314 L72.984,60.536 Z M43.229,36.538 L35.783,36.538 C35.783,42.958 35.753,49.337 35.753,55.766 C35.753,59.847 35.962,63.593 35.296,64.746 C34.203,67.028 31.388,66.737 30.109,66.336 C28.797,65.687 28.132,64.792 27.36,63.504 C27.151,63.156 26.995,62.855 26.939,62.855 L20.894,66.581 C21.904,68.668 23.378,70.463 25.28,71.606 C28.112,73.295 31.918,73.842 35.902,72.947 C38.496,72.199 40.732,70.659 41.901,68.274 C43.59,65.193 43.233,61.417 43.216,57.191 C43.256,50.387 43.216,43.58 43.216,36.724 L43.229,36.538 Z" id="Shape"></path>
                </g>
                <g id="Ultralight-S" transform="translate(25.737176, 0.000000)">
                    <path d="M0,0 L79.496,0 L79.496,79.496 L0,79.496 L0,0 Z M72.984,60.536 C72.404,56.909 70.043,53.862 63.037,51.02 C60.599,49.877 57.89,49.082 57.085,47.244 C56.783,46.151 56.737,45.554 56.932,44.909 C57.429,42.769 59.963,42.126 61.95,42.722 C63.242,43.12 64.435,44.114 65.183,45.704 C68.608,43.464 68.608,43.464 70.996,41.977 C70.102,40.586 69.658,39.986 69.055,39.394 C66.969,37.058 64.19,35.866 59.668,35.969 L57.333,36.263 C55.094,36.81 52.961,38.002 51.669,39.592 C47.893,43.868 48.983,51.321 53.554,54.402 C58.075,57.78 64.686,58.522 65.531,61.705 C66.326,65.581 62.649,66.823 59.019,66.376 C56.333,65.78 54.846,64.435 53.206,61.95 L47.144,65.432 C47.84,67.022 48.635,67.714 49.827,69.105 C55.591,74.922 69.999,74.623 72.586,65.78 C72.682,65.481 73.381,63.444 72.831,60.314 L72.984,60.536 Z M43.229,36.538 L35.783,36.538 C35.783,42.958 35.753,49.337 35.753,55.766 C35.753,59.847 35.962,63.593 35.296,64.746 C34.203,67.028 31.388,66.737 30.109,66.336 C28.797,65.687 28.132,64.792 27.36,63.504 C27.151,63.156 26.995,62.855 26.939,62.855 L20.894,66.581 C21.904,68.668 23.378,70.463 25.28,71.606 C28.112,73.295 31.918,73.842 35.902,72.947 C38.496,72.199 40.732,70.659 41.901,68.274 C43.59,65.193 43.233,61.417 43.216,57.191 C43.256,50.387 43.216,43.58 43.216,36.724 L43.229,36.538 Z" id="Shape"></path>
                </g>
            </g>
        </g>
    </g>
</svg>