<?xml version="1.0" encoding="UTF-8"?>
<svg width="3300px" height="2200px" viewBox="0 0 3300 2200" version="1.1" xmlns="http://www.w3.org/2000/svg" xmlns:xlink="http://www.w3.org/1999/xlink">
    <title>gradle.SFSymbol</title>
    <g id="Page-1" stroke="none" stroke-width="1" fill="none" fill-rule="evenodd">
        <g id="gradle.SFSymbol">
            <g id="Notes">
                <rect id="artboard" fill="#FFFFFF" fill-rule="nonzero" x="0" y="0" width="3300" height="2200"></rect>
                <line x1="263" y1="292" x2="3036" y2="292" id="Path" stroke="#000000" stroke-width="0.5"></line>
                <text id="Weight/Scale-Variations" fill="#000000" fill-rule="nonzero" font-family="Helvetica" font-size="13" font-weight="normal">
                    <tspan x="263" y="322">Weight/Scale Variations</tspan>
                </text>
                <text id="Ultralight" fill="#000000" fill-rule="nonzero" font-family="Helvetica" font-size="13" font-weight="normal">
                    <tspan x="533.711" y="322">Ultralight</tspan>
                </text>
                <text id="Thin" fill="#000000" fill-rule="nonzero" font-family="Helvetica" font-size="13" font-weight="normal">
                    <tspan x="843.422" y="322">Thin</tspan>
                </text>
                <text id="Light" fill="#000000" fill-rule="nonzero" font-family="Helvetica" font-size="13" font-weight="normal">
                    <tspan x="1138.63" y="322">Light</tspan>
                </text>
                <text id="Regular" fill="#000000" fill-rule="nonzero" font-family="Helvetica" font-size="13" font-weight="normal">
                    <tspan x="1426.84" y="322">Regular</tspan>
                </text>
                <text id="Medium" fill="#000000" fill-rule="nonzero" font-family="Helvetica" font-size="13" font-weight="normal">
                    <tspan x="1723.06" y="322">Medium</tspan>
                </text>
                <text id="Semibold" fill="#000000" fill-rule="nonzero" font-family="Helvetica" font-size="13" font-weight="normal">
                    <tspan x="2015.77" y="322">Semibold</tspan>
                </text>
                <text id="Bold" fill="#000000" fill-rule="nonzero" font-family="Helvetica" font-size="13" font-weight="normal">
                    <tspan x="2326.48" y="322">Bold</tspan>
                </text>
                <text id="Heavy" fill="#000000" fill-rule="nonzero" font-family="Helvetica" font-size="13" font-weight="normal">
                    <tspan x="2618.19" y="322">Heavy</tspan>
                </text>
                <text id="Black" fill="#000000" fill-rule="nonzero" font-family="Helvetica" font-size="13" font-weight="normal">
                    <tspan x="2917.4" y="322">Black</tspan>
                </text>
                <line x1="263" y1="1903" x2="3036" y2="1903" id="Path" stroke="#000000" stroke-width="0.5"></line>
                <g id="Group" transform="translate(264.367190, 1918.068400)" fill="#000000" fill-rule="nonzero">
                    <path d="M7.88086,15.761678 C12.18751,15.761678 15.77151,12.18746 15.77151,7.88082 C15.77151,3.5742 12.17771,0 7.87109,0 C3.57422,0 -8.8817842e-16,3.5742 -8.8817842e-16,7.88082 C-8.8817842e-16,12.18746 3.58398,15.761678 7.88086,15.761678 Z M7.88086,14.277303 C4.33593,14.277303 1.5039,11.43551 1.5039,7.88082 C1.5039,4.3261 4.32617,1.4843 7.87109,1.4843 C11.42581,1.4843 14.27731,4.3261 14.27731,7.88082 C14.27731,11.43551 11.43551,14.277303 7.88086,14.277303 Z M4.28711,7.88082 C4.28711,8.31051 4.58984,8.60348 5.03906,8.60348 L7.13867,8.60348 L7.13867,10.72262 C7.13867,11.16207 7.43164,11.4648 7.86133,11.4648 C8.31054,11.4648 8.60351,11.16207 8.60351,10.72262 L8.60351,8.60348 L10.72261,8.60348 C11.16211,8.60348 11.46481,8.31051 11.46481,7.88082 C11.46481,7.44137 11.16211,7.13863 10.72261,7.13863 L8.60351,7.13863 L8.60351,5.02926 C8.60351,4.58 8.31054,4.2773 7.86133,4.2773 C7.43164,4.2773 7.13867,4.58 7.13867,5.02926 L7.13867,7.13863 L5.03906,7.13863 C4.58984,7.13863 4.28711,7.44137 4.28711,7.88082 Z" id="Shape"></path>
                </g>
                <g id="Group" transform="translate(283.615050, 1915.988300)" fill="#000000" fill-rule="nonzero">
                    <path d="M9.96095,19.92186 C15.41015,19.92186 19.92185,15.40037 19.92185,9.96092 C19.92185,4.5117 15.40035,0 9.95115,0 C4.51172,0 8.8817842e-16,4.5117 8.8817842e-16,9.96092 C8.8817842e-16,15.40037 4.52148,19.92186 9.96095,19.92186 Z M9.96095,18.2617 C5.35156,18.2617 1.66992,14.57029 1.66992,9.96092 C1.66992,5.3515 5.34179,1.6601 9.95115,1.6601 C14.56055,1.6601 18.26175,5.3515 18.26175,9.96092 C18.26175,14.57029 14.57035,18.2617 9.96095,18.2617 Z M5.42968,9.96092 C5.42968,10.43943 5.76172,10.7617 6.25976,10.7617 L9.13085,10.7617 L9.13085,13.64256 C9.13085,14.13084 9.46285,14.47264 9.94145,14.47264 C10.42965,14.47264 10.77145,14.14061 10.77145,13.64256 L10.77145,10.7617 L13.65235,10.7617 C14.14065,10.7617 14.48245,10.43943 14.48245,9.96092 C14.48245,9.47264 14.14065,9.13084 13.65235,9.13084 L10.77145,9.13084 L10.77145,6.2597 C10.77145,5.7617 10.42965,5.4199 9.94145,5.4199 C9.46285,5.4199 9.13085,5.7617 9.13085,6.2597 L9.13085,9.13084 L6.25976,9.13084 C5.76172,9.13084 5.42968,9.47264 5.42968,9.96092 Z" id="Shape"></path>
                </g>
                <g id="Group" transform="translate(307.901860, 1913.224600)" fill="#000000" fill-rule="nonzero">
                    <path d="M12.71484,25.43946 C19.67774,25.43946 25.43944,19.6777438 25.43944,12.72462 C25.43944,5.7617 19.66794,0 12.70504,0 C5.75195,0 0,5.7617 0,12.72462 C0,19.6777438 5.76172,25.43946 12.71484,25.43946 Z M12.71484,23.62306 C6.67969,23.62306 1.82617,18.75978 1.82617,12.72462 C1.82617,6.6797 6.66992,1.8262 12.70504,1.8262 C18.75004,1.8262 23.61324,6.6797 23.61324,12.72462 C23.61324,18.75978 18.75974,23.62306 12.71484,23.62306 Z M6.94336,12.72462 C6.94336,13.2422 7.31445,13.60352 7.86134,13.60352 L11.80664,13.60352 L11.80664,17.5586 C11.80664,18.09571 12.17774,18.47657 12.69534,18.47657 C13.23244,18.47657 13.60354,18.10548 13.60354,17.5586 L13.60354,13.60352 L17.55864,13.60352 C18.09574,13.60352 18.47654,13.2422 18.47654,12.72462 C18.47654,12.17774 18.10544,11.80665 17.55864,11.80665 L13.60354,11.80665 L13.60354,7.8613 C13.60354,7.3145 13.23244,6.9336 12.69534,6.9336 C12.17774,6.9336 11.80664,7.3145 11.80664,7.8613 L11.80664,11.80665 L7.86134,11.80665 C7.31445,11.80665 6.94336,12.17774 6.94336,12.72462 Z" id="Shape"></path>
                </g>
                <text id="Design-Variations" fill="#000000" fill-rule="nonzero" font-family="Helvetica" font-size="13" font-weight="normal">
                    <tspan x="263" y="1953">Design Variations</tspan>
                </text>
                <text id="Symbols-are-supported-in-up-to-nine-weights-and-three-scales." fill="#000000" fill-rule="nonzero" font-family="Helvetica" font-size="13" font-weight="normal">
                    <tspan x="263" y="1971">Symbols are supported in up to nine weights and three scales.</tspan>
                </text>
                <text id="For-optimal-layout-with-text-and-other-symbols,-vertically-align" fill="#000000" fill-rule="nonzero" font-family="Helvetica" font-size="13" font-weight="normal">
                    <tspan x="263" y="1989">For optimal layout with text and other symbols, vertically align</tspan>
                </text>
                <text id="symbols-with-the-adjacent-text." fill="#000000" fill-rule="nonzero" font-family="Helvetica" font-size="13" font-weight="normal">
                    <tspan x="263" y="2007">symbols with the adjacent text.</tspan>
                </text>
                <line x1="776" y1="1919" x2="776" y2="1933" id="Path" stroke="#00AEEF" stroke-width="0.5"></line>
                <g id="Group" transform="translate(778.490230, 1918.732400)" fill="#000000" fill-rule="nonzero">
                    <path d="M0.82032,14.42385 C1.33789,14.42385 1.5918,14.2285375 1.77735,13.681662 L3.03711,10.2344 L8.79887,10.2344 L10.05857,13.681662 C10.24417,14.2285375 10.49807,14.42385 11.00587,14.42385 C11.52347,14.42385 11.85547,14.11135 11.85547,13.623069 C11.85547,13.457053 11.82617,13.300803 11.74807,13.09572 L7.16797,0.8985 C6.94336,0.3028 6.54297,0 5.91797,0 C5.3125,0 4.90235,0.293 4.6875,0.8887 L0.10743,13.10549 C0.0293,13.310569 -4.4408921e-16,13.466819 -4.4408921e-16,13.632834 C-4.4408921e-16,14.121116 0.3125,14.42385 0.82032,14.42385 Z M3.51563,8.75002 L5.88868,2.1778 L5.9375,2.1778 L8.31057,8.75002 L3.51563,8.75002 Z" id="Shape"></path>
                </g>
                <line x1="793.197" y1="1919" x2="793.197" y2="1933" id="Path" stroke="#00AEEF" stroke-width="0.5"></line>
                <text id="Margins" fill="#000000" fill-rule="nonzero" font-family="Helvetica" font-size="13" font-weight="normal">
                    <tspan x="776" y="1953">Margins</tspan>
                </text>
                <text id="Leading-and-trailing-margins-on-the-left-and-right-side-of-each-symbol" fill="#000000" fill-rule="nonzero" font-family="Helvetica" font-size="13" font-weight="normal">
                    <tspan x="776" y="1971">Leading and trailing margins on the left and right side of each symbol</tspan>
                </text>
                <text id="can-be-adjusted-by-modifying-the-x-location-of-the-margin-guidelines." fill="#000000" fill-rule="nonzero" font-family="Helvetica" font-size="13" font-weight="normal">
                    <tspan x="776" y="1989">can be adjusted by modifying the x-location of the margin guidelines.</tspan>
                </text>
                <text id="Modifications-are-automatically-applied-proportionally-to-all" fill="#000000" fill-rule="nonzero" font-family="Helvetica" font-size="13" font-weight="normal">
                    <tspan x="776" y="2007">Modifications are automatically applied proportionally to all</tspan>
                </text>
                <text id="scales-and-weights." fill="#000000" fill-rule="nonzero" font-family="Helvetica" font-size="13" font-weight="normal">
                    <tspan x="776" y="2025">scales and weights.</tspan>
                </text>
                <g id="Group" transform="translate(1291.248126, 1914.517396)" fill="#000000" fill-rule="nonzero">
                    <path d="M0.593673634,20.347834 L2.29289363,22.056824 C3.15226363,22.925964 4.13859363,22.867374 5.06632363,21.841984 L15.7596736,10.054874 L14.7928736,9.07830404 L4.17765363,20.757994 C3.82609363,21.158384 3.49406363,21.256044 3.02531363,20.787294 L1.85343363,19.625184 C1.38468363,19.166198 1.49210363,18.824401 1.89249363,18.4630728 L13.3670736,7.66230404 L12.3905736,6.69550404 L0.798753634,17.584166 C-0.187576366,18.5021352 -0.265706366,19.478698 0.593673634,20.347834 Z M7.00968363,2.15450404 C6.58976363,2.56460404 6.56046363,3.14080404 6.79484363,3.53140404 C7.02921363,3.89280404 7.48820363,4.12710404 8.13277363,3.96110404 C9.59757363,3.61930404 11.1209736,3.56070404 12.5467736,4.49820404 L11.9608736,5.95330404 C11.6190736,6.78340404 11.7948736,7.36930404 12.3319736,7.91620404 L14.6268736,10.230654 C15.1151736,10.718934 15.5252736,10.738464 16.0916736,10.640804 L17.1561736,10.445494 L17.8202736,11.119324 L17.7811736,11.675964 C17.7420736,12.174014 17.8690736,12.554874 18.3573736,13.033384 L19.1190736,13.775574 C19.5975736,14.254084 20.2127736,14.283384 20.6815736,13.814634 L23.5916736,10.894714 C24.0604736,10.425964 24.0409736,9.83026404 23.5623736,9.35174404 L22.7909736,8.59002404 C22.3123736,8.11150404 21.9413736,7.95530404 21.4627736,7.99430404 L20.8866736,8.04310404 L20.2420736,7.40840404 L20.4862736,6.28530404 C20.6131736,5.71890404 20.4569736,5.27950404 19.8709736,4.69350404 L17.6737736,2.50600404 C14.3338736,-0.814295964 9.90027363,-0.736195964 7.00968363,2.15450404 Z M8.50387363,2.52560404 C10.9354736,0.748204036 14.2264736,1.05100404 16.4530736,3.27750404 L18.8846736,5.68960404 C19.1190736,5.92400404 19.1580736,6.10960404 19.0897736,6.45140404 L18.7674736,7.93570404 L20.2713736,9.42010404 L21.2577736,9.36151404 C21.5116736,9.35174404 21.5897736,9.37127404 21.7850736,9.56658404 L22.3612736,10.142764 L19.9198736,12.584164 L19.3436736,12.007994 C19.1483736,11.812684 19.1190736,11.734554 19.1288736,11.470884 L19.1971736,10.494324 L17.7030736,9.00994404 L16.1795736,9.26385404 C15.8573736,9.33221404 15.7108736,9.30291404 15.4666736,9.06854404 L13.4647736,7.06660404 C13.2108736,6.83220404 13.1815736,6.66620404 13.3377736,6.29510404 L14.2166736,4.20530404 C12.6541736,2.75020404 10.6229736,2.12520404 8.59167363,2.72090404 C8.43547363,2.75990404 8.37687363,2.63300404 8.50387363,2.52560404 Z" id="Shape"></path>
                </g>
                <text id="Exporting" fill="#000000" fill-rule="nonzero" font-family="Helvetica" font-size="13" font-weight="normal">
                    <tspan x="1289" y="1953">Exporting</tspan>
                </text>
                <text id="Symbols-should-be-outlined-when-exporting-to-ensure-the" fill="#000000" fill-rule="nonzero" font-family="Helvetica" font-size="13" font-weight="normal">
                    <tspan x="1289" y="1971">Symbols should be outlined when exporting to ensure the</tspan>
                </text>
                <text id="design-is-preserved-when-submitting-to-Xcode." fill="#000000" fill-rule="nonzero" font-family="Helvetica" font-size="13" font-weight="normal">
                    <tspan x="1289" y="1989">design is preserved when submitting to Xcode.</tspan>
                </text>
                <text id="template-version" fill="#000000" fill-rule="nonzero" font-family="Helvetica" font-size="13" font-weight="normal">
                    <tspan x="2952" y="1933">Template v.2.0</tspan>
                </text>
                <text id="Requires-Xcode-12-or-greater" fill="#000000" fill-rule="nonzero" font-family="Helvetica" font-size="13" font-weight="normal">
                    <tspan x="2865" y="1951">Requires Xcode 12 or greater</tspan>
                </text>
                <text id="descriptive-name" fill="#000000" fill-rule="nonzero" font-family="Helvetica" font-size="13" font-weight="normal">
                    <tspan x="2889" y="1969">Generated from unsplash</tspan>
                </text>
                <text id="Typeset-at-100-points" fill="#000000" fill-rule="nonzero" font-family="Helvetica" font-size="13" font-weight="normal">
                    <tspan x="2912" y="1987">Typeset at 100 points</tspan>
                </text>
                <text id="Small" fill="#000000" fill-rule="nonzero" font-family="Helvetica" font-size="13" font-weight="normal">
                    <tspan x="263" y="726">Small</tspan>
                </text>
                <text id="Medium" fill="#000000" fill-rule="nonzero" font-family="Helvetica" font-size="13" font-weight="normal">
                    <tspan x="263" y="1156">Medium</tspan>
                </text>
                <text id="Large" fill="#000000" fill-rule="nonzero" font-family="Helvetica" font-size="13" font-weight="normal">
                    <tspan x="263" y="1586">Large</tspan>
                </text>
            </g>
            <g id="Guides" transform="translate(263.000000, 625.041000)">
                <g id="H-reference" transform="translate(76.976562, 0.500000)" fill="#27AAE1" fill-rule="nonzero">
                    <path d="M-1.22124533e-15,70.459 L2.685548,70.459 L12.011738,45.9961 L44.775438,45.9961 L54.150438,70.459 L56.787138,70.459 L29.638638,0 L27.148438,0 L-1.22124533e-15,70.459 Z M28.369138,3.3203 L28.466838,3.3203 L43.896438,43.75 L12.890638,43.75 L28.369138,3.3203 Z" id="Shape"></path>
                </g>
                <line x1="0" y1="70.959" x2="2773" y2="70.959" id="Baseline-S" stroke="#27AAE1" stroke-width="0.5"></line>
                <line x1="0" y1="0.5" x2="2773" y2="0.5" id="Capline-S" stroke="#27AAE1" stroke-width="0.5"></line>
                <g id="H-reference" transform="translate(76.976562, 430.500000)" fill="#27AAE1" fill-rule="nonzero">
                    <path d="M-1.22124533e-15,70.459 L2.685548,70.459 L12.011738,45.9961 L44.775438,45.9961 L54.150438,70.459 L56.787138,70.459 L29.638638,0 L27.148438,0 L-1.22124533e-15,70.459 Z M28.369138,3.3203 L28.466838,3.3203 L43.896438,43.75 L12.890638,43.75 L28.369138,3.3203 Z" id="Shape"></path>
                </g>
                <line x1="0" y1="500.959" x2="2773" y2="500.959" id="Baseline-M" stroke="#27AAE1" stroke-width="0.5"></line>
                <line x1="0" y1="430.499" x2="2773" y2="430.499" id="Capline-M" stroke="#27AAE1" stroke-width="0.5"></line>
                <g id="H-reference" transform="translate(76.976562, 860.500000)" fill="#27AAE1" fill-rule="nonzero">
                    <path d="M-1.22124533e-15,70.459 L2.685548,70.459 L12.011738,45.9961 L44.775438,45.9961 L54.150438,70.459 L56.787138,70.459 L29.638638,0 L27.148438,0 L-1.22124533e-15,70.459 Z M28.369138,3.3203 L28.466838,3.3203 L43.896438,43.75 L12.890638,43.75 L28.369138,3.3203 Z" id="Shape"></path>
                </g>
                <line x1="0" y1="930.959" x2="2773" y2="930.959" id="Baseline-L" stroke="#27AAE1" stroke-width="0.5"></line>
                <line x1="0" y1="860.499" x2="2773" y2="860.499" id="Capline-L" stroke="#27AAE1" stroke-width="0.5"></line>
                <line x1="1069.32414" y1="405.749" x2="1069.32414" y2="525.079" id="left-margin" stroke="#00AEEF" stroke-width="0.5"></line>
                <line x1="1306.93586" y1="405.749" x2="1306.93586" y2="525.079" id="right-margin" stroke="#00AEEF" stroke-width="0.5"></line>
            </g>
            <g id="Symbols" transform="translate(462.640751, 616.896441)" fill="#000000" fill-rule="nonzero">
                <g id="Black-L" transform="translate(2373.680000, 831.590995)">
                    <path d="M186.030823,9.13715738 C174.136823,-2.75384262 154.958823,-3.07984262 142.666823,8.40015738 C142.068823,8.96915738 141.729823,9.75915738 141.729823,10.5841574 C141.729823,11.4101574 142.068823,12.2001574 142.666823,12.7691574 L146.436823,16.6221574 C147.487823,17.6621574 149.142823,17.7741574 150.322823,16.8841574 C157.816823,10.9101574 168.687823,11.9041574 174.973823,19.1371574 C181.260823,26.3711574 180.728823,37.2741574 173.767823,43.8621574 C148.986823,68.6181574 115.926823,-0.789842617 40.8788234,34.9841574 C38.3158234,36.2121574 36.3838234,38.4581574 35.5518234,41.1761574 C34.7198234,43.8941574 35.0648234,46.8361574 36.5008234,49.2891574 L49.3798234,71.5281574 C52.1578234,76.3561574 58.3078234,78.0431574 63.1598234,75.3071574 L63.4628234,75.1431574 L63.2248234,75.3071574 L68.8648234,72.1591574 C75.2268234,68.2101574 81.2408234,63.7271574 86.8418234,58.7571574 C87.9868234,57.7121574 89.7228234,57.6561574 90.9328234,58.6251574 C91.5748234,59.1621574 91.9578234,59.9481574 91.9828234,60.7851574 C92.0078234,61.6221574 91.6728234,62.4291574 91.0638234,63.0031574 C85.1678234,68.3101574 78.8148234,73.0861574 72.0778234,77.2751574 L71.8818234,77.2751574 L66.1758234,80.4721574 C63.7648234,81.8231574 61.0458234,82.5291574 58.2818234,82.5211574 C52.4548234,82.5441574 47.0598234,79.4521574 44.1328234,74.4141574 L31.9598234,53.3951574 C8.67882338,69.9871574 -5.63317662,101.818157 2.12082338,142.141157 C2.38382338,143.540157 3.59982338,144.557157 5.02282338,144.568955 L18.7538234,144.568955 C20.3218234,144.604157 21.6488234,143.417157 21.7868234,141.854157 C23.0978234,131.728157 31.7218234,124.148157 41.9318234,124.148157 C52.1428234,124.148157 60.7668234,131.728157 62.0778234,141.854157 C62.2558234,143.336157 63.5118234,144.451157 65.0038234,144.453157 L78.4308234,144.453157 C79.9188234,144.440157 81.1688234,143.330157 81.3578234,141.854157 C82.6828234,131.742157 91.2998234,124.180157 101.498823,124.180157 C111.697823,124.180157 120.314823,131.742157 121.639823,141.854157 C121.828823,143.333157 123.083823,144.444157 124.574823,144.453157 L137.911823,144.453157 C139.536823,144.453157 140.860823,143.150157 140.887823,141.526157 C141.190823,122.721157 146.264823,101.113157 160.725823,90.2921574 C210.795823,52.8301574 197.630823,20.7291574 186.038823,9.13715738 L186.030823,9.13715738 Z M134.968823,65.7081574 L125.418823,60.9211574 C125.421823,58.1041574 127.389823,55.6701574 130.143823,55.0771574 C132.897823,54.4841574 135.691823,55.8921574 136.854823,58.4581574 C138.016823,61.0251574 137.231823,64.0541574 134.968823,65.7331574 L134.968823,65.7081574 Z" id="Shape"></path>
                </g>
                <g id="Heavy-L" transform="translate(2076.970000, 831.590995)">
                    <path d="M186.030823,9.13715738 C174.136823,-2.75384262 154.958823,-3.07984262 142.666823,8.40015738 C142.068823,8.96915738 141.729823,9.75915738 141.729823,10.5841574 C141.729823,11.4101574 142.068823,12.2001574 142.666823,12.7691574 L146.436823,16.6221574 C147.487823,17.6621574 149.142823,17.7741574 150.322823,16.8841574 C157.816823,10.9101574 168.687823,11.9041574 174.973823,19.1371574 C181.260823,26.3711574 180.728823,37.2741574 173.767823,43.8621574 C148.986823,68.6181574 115.926823,-0.789842617 40.8788234,34.9841574 C38.3158234,36.2121574 36.3838234,38.4581574 35.5518234,41.1761574 C34.7198234,43.8941574 35.0648234,46.8361574 36.5008234,49.2891574 L49.3798234,71.5281574 C52.1578234,76.3561574 58.3078234,78.0431574 63.1598234,75.3071574 L63.4628234,75.1431574 L63.2248234,75.3071574 L68.8648234,72.1591574 C75.2268234,68.2101574 81.2408234,63.7271574 86.8418234,58.7571574 C87.9868234,57.7121574 89.7228234,57.6561574 90.9328234,58.6251574 C91.5748234,59.1621574 91.9578234,59.9481574 91.9828234,60.7851574 C92.0078234,61.6221574 91.6728234,62.4291574 91.0638234,63.0031574 C85.1678234,68.3101574 78.8148234,73.0861574 72.0778234,77.2751574 L71.8818234,77.2751574 L66.1758234,80.4721574 C63.7648234,81.8231574 61.0458234,82.5291574 58.2818234,82.5211574 C52.4548234,82.5441574 47.0598234,79.4521574 44.1328234,74.4141574 L31.9598234,53.3951574 C8.67882338,69.9871574 -5.63317662,101.818157 2.12082338,142.141157 C2.38382338,143.540157 3.59982338,144.557157 5.02282338,144.568955 L18.7538234,144.568955 C20.3218234,144.604157 21.6488234,143.417157 21.7868234,141.854157 C23.0978234,131.728157 31.7218234,124.148157 41.9318234,124.148157 C52.1428234,124.148157 60.7668234,131.728157 62.0778234,141.854157 C62.2558234,143.336157 63.5118234,144.451157 65.0038234,144.453157 L78.4308234,144.453157 C79.9188234,144.440157 81.1688234,143.330157 81.3578234,141.854157 C82.6828234,131.742157 91.2998234,124.180157 101.498823,124.180157 C111.697823,124.180157 120.314823,131.742157 121.639823,141.854157 C121.828823,143.333157 123.083823,144.444157 124.574823,144.453157 L137.911823,144.453157 C139.536823,144.453157 140.860823,143.150157 140.887823,141.526157 C141.190823,122.721157 146.264823,101.113157 160.725823,90.2921574 C210.795823,52.8301574 197.630823,20.7291574 186.038823,9.13715738 L186.030823,9.13715738 Z M134.968823,65.7081574 L125.418823,60.9211574 C125.421823,58.1041574 127.389823,55.6701574 130.143823,55.0771574 C132.897823,54.4841574 135.691823,55.8921574 136.854823,58.4581574 C138.016823,61.0251574 137.231823,64.0541574 134.968823,65.7331574 L134.968823,65.7081574 Z" id="Shape"></path>
                </g>
                <g id="Bold-L" transform="translate(1780.260000, 831.590995)">
                    <path d="M186.030823,9.13715738 C174.136823,-2.75384262 154.958823,-3.07984262 142.666823,8.40015738 C142.068823,8.96915738 141.729823,9.75915738 141.729823,10.5841574 C141.729823,11.4101574 142.068823,12.2001574 142.666823,12.7691574 L146.436823,16.6221574 C147.487823,17.6621574 149.142823,17.7741574 150.322823,16.8841574 C157.816823,10.9101574 168.687823,11.9041574 174.973823,19.1371574 C181.260823,26.3711574 180.728823,37.2741574 173.767823,43.8621574 C148.986823,68.6181574 115.926823,-0.789842617 40.8788234,34.9841574 C38.3158234,36.2121574 36.3838234,38.4581574 35.5518234,41.1761574 C34.7198234,43.8941574 35.0648234,46.8361574 36.5008234,49.2891574 L49.3798234,71.5281574 C52.1578234,76.3561574 58.3078234,78.0431574 63.1598234,75.3071574 L63.4628234,75.1431574 L63.2248234,75.3071574 L68.8648234,72.1591574 C75.2268234,68.2101574 81.2408234,63.7271574 86.8418234,58.7571574 C87.9868234,57.7121574 89.7228234,57.6561574 90.9328234,58.6251574 C91.5748234,59.1621574 91.9578234,59.9481574 91.9828234,60.7851574 C92.0078234,61.6221574 91.6728234,62.4291574 91.0638234,63.0031574 C85.1678234,68.3101574 78.8148234,73.0861574 72.0778234,77.2751574 L71.8818234,77.2751574 L66.1758234,80.4721574 C63.7648234,81.8231574 61.0458234,82.5291574 58.2818234,82.5211574 C52.4548234,82.5441574 47.0598234,79.4521574 44.1328234,74.4141574 L31.9598234,53.3951574 C8.67882338,69.9871574 -5.63317662,101.818157 2.12082338,142.141157 C2.38382338,143.540157 3.59982338,144.557157 5.02282338,144.568955 L18.7538234,144.568955 C20.3218234,144.604157 21.6488234,143.417157 21.7868234,141.854157 C23.0978234,131.728157 31.7218234,124.148157 41.9318234,124.148157 C52.1428234,124.148157 60.7668234,131.728157 62.0778234,141.854157 C62.2558234,143.336157 63.5118234,144.451157 65.0038234,144.453157 L78.4308234,144.453157 C79.9188234,144.440157 81.1688234,143.330157 81.3578234,141.854157 C82.6828234,131.742157 91.2998234,124.180157 101.498823,124.180157 C111.697823,124.180157 120.314823,131.742157 121.639823,141.854157 C121.828823,143.333157 123.083823,144.444157 124.574823,144.453157 L137.911823,144.453157 C139.536823,144.453157 140.860823,143.150157 140.887823,141.526157 C141.190823,122.721157 146.264823,101.113157 160.725823,90.2921574 C210.795823,52.8301574 197.630823,20.7291574 186.038823,9.13715738 L186.030823,9.13715738 Z M134.968823,65.7081574 L125.418823,60.9211574 C125.421823,58.1041574 127.389823,55.6701574 130.143823,55.0771574 C132.897823,54.4841574 135.691823,55.8921574 136.854823,58.4581574 C138.016823,61.0251574 137.231823,64.0541574 134.968823,65.7331574 L134.968823,65.7081574 Z" id="Shape"></path>
                </g>
                <g id="Semibold-L" transform="translate(1483.550000, 831.590995)">
                    <path d="M186.030823,9.13715738 C174.136823,-2.75384262 154.958823,-3.07984262 142.666823,8.40015738 C142.068823,8.96915738 141.729823,9.75915738 141.729823,10.5841574 C141.729823,11.4101574 142.068823,12.2001574 142.666823,12.7691574 L146.436823,16.6221574 C147.487823,17.6621574 149.142823,17.7741574 150.322823,16.8841574 C157.816823,10.9101574 168.687823,11.9041574 174.973823,19.1371574 C181.260823,26.3711574 180.728823,37.2741574 173.767823,43.8621574 C148.986823,68.6181574 115.926823,-0.789842617 40.8788234,34.9841574 C38.3158234,36.2121574 36.3838234,38.4581574 35.5518234,41.1761574 C34.7198234,43.8941574 35.0648234,46.8361574 36.5008234,49.2891574 L49.3798234,71.5281574 C52.1578234,76.3561574 58.3078234,78.0431574 63.1598234,75.3071574 L63.4628234,75.1431574 L63.2248234,75.3071574 L68.8648234,72.1591574 C75.2268234,68.2101574 81.2408234,63.7271574 86.8418234,58.7571574 C87.9868234,57.7121574 89.7228234,57.6561574 90.9328234,58.6251574 C91.5748234,59.1621574 91.9578234,59.9481574 91.9828234,60.7851574 C92.0078234,61.6221574 91.6728234,62.4291574 91.0638234,63.0031574 C85.1678234,68.3101574 78.8148234,73.0861574 72.0778234,77.2751574 L71.8818234,77.2751574 L66.1758234,80.4721574 C63.7648234,81.8231574 61.0458234,82.5291574 58.2818234,82.5211574 C52.4548234,82.5441574 47.0598234,79.4521574 44.1328234,74.4141574 L31.9598234,53.3951574 C8.67882338,69.9871574 -5.63317662,101.818157 2.12082338,142.141157 C2.38382338,143.540157 3.59982338,144.557157 5.02282338,144.568955 L18.7538234,144.568955 C20.3218234,144.604157 21.6488234,143.417157 21.7868234,141.854157 C23.0978234,131.728157 31.7218234,124.148157 41.9318234,124.148157 C52.1428234,124.148157 60.7668234,131.728157 62.0778234,141.854157 C62.2558234,143.336157 63.5118234,144.451157 65.0038234,144.453157 L78.4308234,144.453157 C79.9188234,144.440157 81.1688234,143.330157 81.3578234,141.854157 C82.6828234,131.742157 91.2998234,124.180157 101.498823,124.180157 C111.697823,124.180157 120.314823,131.742157 121.639823,141.854157 C121.828823,143.333157 123.083823,144.444157 124.574823,144.453157 L137.911823,144.453157 C139.536823,144.453157 140.860823,143.150157 140.887823,141.526157 C141.190823,122.721157 146.264823,101.113157 160.725823,90.2921574 C210.795823,52.8301574 197.630823,20.7291574 186.038823,9.13715738 L186.030823,9.13715738 Z M134.968823,65.7081574 L125.418823,60.9211574 C125.421823,58.1041574 127.389823,55.6701574 130.143823,55.0771574 C132.897823,54.4841574 135.691823,55.8921574 136.854823,58.4581574 C138.016823,61.0251574 137.231823,64.0541574 134.968823,65.7331574 L134.968823,65.7081574 Z" id="Shape"></path>
                </g>
                <g id="Medium-L" transform="translate(1186.840000, 831.590995)">
                    <path d="M186.030823,9.13715738 C174.136823,-2.75384262 154.958823,-3.07984262 142.666823,8.40015738 C142.068823,8.96915738 141.729823,9.75915738 141.729823,10.5841574 C141.729823,11.4101574 142.068823,12.2001574 142.666823,12.7691574 L146.436823,16.6221574 C147.487823,17.6621574 149.142823,17.7741574 150.322823,16.8841574 C157.816823,10.9101574 168.687823,11.9041574 174.973823,19.1371574 C181.260823,26.3711574 180.728823,37.2741574 173.767823,43.8621574 C148.986823,68.6181574 115.926823,-0.789842617 40.8788234,34.9841574 C38.3158234,36.2121574 36.3838234,38.4581574 35.5518234,41.1761574 C34.7198234,43.8941574 35.0648234,46.8361574 36.5008234,49.2891574 L49.3798234,71.5281574 C52.1578234,76.3561574 58.3078234,78.0431574 63.1598234,75.3071574 L63.4628234,75.1431574 L63.2248234,75.3071574 L68.8648234,72.1591574 C75.2268234,68.2101574 81.2408234,63.7271574 86.8418234,58.7571574 C87.9868234,57.7121574 89.7228234,57.6561574 90.9328234,58.6251574 C91.5748234,59.1621574 91.9578234,59.9481574 91.9828234,60.7851574 C92.0078234,61.6221574 91.6728234,62.4291574 91.0638234,63.0031574 C85.1678234,68.3101574 78.8148234,73.0861574 72.0778234,77.2751574 L71.8818234,77.2751574 L66.1758234,80.4721574 C63.7648234,81.8231574 61.0458234,82.5291574 58.2818234,82.5211574 C52.4548234,82.5441574 47.0598234,79.4521574 44.1328234,74.4141574 L31.9598234,53.3951574 C8.67882338,69.9871574 -5.63317662,101.818157 2.12082338,142.141157 C2.38382338,143.540157 3.59982338,144.557157 5.02282338,144.568955 L18.7538234,144.568955 C20.3218234,144.604157 21.6488234,143.417157 21.7868234,141.854157 C23.0978234,131.728157 31.7218234,124.148157 41.9318234,124.148157 C52.1428234,124.148157 60.7668234,131.728157 62.0778234,141.854157 C62.2558234,143.336157 63.5118234,144.451157 65.0038234,144.453157 L78.4308234,144.453157 C79.9188234,144.440157 81.1688234,143.330157 81.3578234,141.854157 C82.6828234,131.742157 91.2998234,124.180157 101.498823,124.180157 C111.697823,124.180157 120.314823,131.742157 121.639823,141.854157 C121.828823,143.333157 123.083823,144.444157 124.574823,144.453157 L137.911823,144.453157 C139.536823,144.453157 140.860823,143.150157 140.887823,141.526157 C141.190823,122.721157 146.264823,101.113157 160.725823,90.2921574 C210.795823,52.8301574 197.630823,20.7291574 186.038823,9.13715738 L186.030823,9.13715738 Z M134.968823,65.7081574 L125.418823,60.9211574 C125.421823,58.1041574 127.389823,55.6701574 130.143823,55.0771574 C132.897823,54.4841574 135.691823,55.8921574 136.854823,58.4581574 C138.016823,61.0251574 137.231823,64.0541574 134.968823,65.7331574 L134.968823,65.7081574 Z" id="Shape"></path>
                </g>
                <g id="Regular-L" transform="translate(890.130000, 831.590995)">
                    <path d="M186.030823,9.13715738 C174.136823,-2.75384262 154.958823,-3.07984262 142.666823,8.40015738 C142.068823,8.96915738 141.729823,9.75915738 141.729823,10.5841574 C141.729823,11.4101574 142.068823,12.2001574 142.666823,12.7691574 L146.436823,16.6221574 C147.487823,17.6621574 149.142823,17.7741574 150.322823,16.8841574 C157.816823,10.9101574 168.687823,11.9041574 174.973823,19.1371574 C181.260823,26.3711574 180.728823,37.2741574 173.767823,43.8621574 C148.986823,68.6181574 115.926823,-0.789842617 40.8788234,34.9841574 C38.3158234,36.2121574 36.3838234,38.4581574 35.5518234,41.1761574 C34.7198234,43.8941574 35.0648234,46.8361574 36.5008234,49.2891574 L49.3798234,71.5281574 C52.1578234,76.3561574 58.3078234,78.0431574 63.1598234,75.3071574 L63.4628234,75.1431574 L63.2248234,75.3071574 L68.8648234,72.1591574 C75.2268234,68.2101574 81.2408234,63.7271574 86.8418234,58.7571574 C87.9868234,57.7121574 89.7228234,57.6561574 90.9328234,58.6251574 C91.5748234,59.1621574 91.9578234,59.9481574 91.9828234,60.7851574 C92.0078234,61.6221574 91.6728234,62.4291574 91.0638234,63.0031574 C85.1678234,68.3101574 78.8148234,73.0861574 72.0778234,77.2751574 L71.8818234,77.2751574 L66.1758234,80.4721574 C63.7648234,81.8231574 61.0458234,82.5291574 58.2818234,82.5211574 C52.4548234,82.5441574 47.0598234,79.4521574 44.1328234,74.4141574 L31.9598234,53.3951574 C8.67882338,69.9871574 -5.63317662,101.818157 2.12082338,142.141157 C2.38382338,143.540157 3.59982338,144.557157 5.02282338,144.568955 L18.7538234,144.568955 C20.3218234,144.604157 21.6488234,143.417157 21.7868234,141.854157 C23.0978234,131.728157 31.7218234,124.148157 41.9318234,124.148157 C52.1428234,124.148157 60.7668234,131.728157 62.0778234,141.854157 C62.2558234,143.336157 63.5118234,144.451157 65.0038234,144.453157 L78.4308234,144.453157 C79.9188234,144.440157 81.1688234,143.330157 81.3578234,141.854157 C82.6828234,131.742157 91.2998234,124.180157 101.498823,124.180157 C111.697823,124.180157 120.314823,131.742157 121.639823,141.854157 C121.828823,143.333157 123.083823,144.444157 124.574823,144.453157 L137.911823,144.453157 C139.536823,144.453157 140.860823,143.150157 140.887823,141.526157 C141.190823,122.721157 146.264823,101.113157 160.725823,90.2921574 C210.795823,52.8301574 197.630823,20.7291574 186.038823,9.13715738 L186.030823,9.13715738 Z M134.968823,65.7081574 L125.418823,60.9211574 C125.421823,58.1041574 127.389823,55.6701574 130.143823,55.0771574 C132.897823,54.4841574 135.691823,55.8921574 136.854823,58.4581574 C138.016823,61.0251574 137.231823,64.0541574 134.968823,65.7331574 L134.968823,65.7081574 Z" id="Shape"></path>
                </g>
                <g id="Light-L" transform="translate(593.420000, 831.590995)">
                    <path d="M186.030823,9.13715738 C174.136823,-2.75384262 154.958823,-3.07984262 142.666823,8.40015738 C142.068823,8.96915738 141.729823,9.75915738 141.729823,10.5841574 C141.729823,11.4101574 142.068823,12.2001574 142.666823,12.7691574 L146.436823,16.6221574 C147.487823,17.6621574 149.142823,17.7741574 150.322823,16.8841574 C157.816823,10.9101574 168.687823,11.9041574 174.973823,19.1371574 C181.260823,26.3711574 180.728823,37.2741574 173.767823,43.8621574 C148.986823,68.6181574 115.926823,-0.789842617 40.8788234,34.9841574 C38.3158234,36.2121574 36.3838234,38.4581574 35.5518234,41.1761574 C34.7198234,43.8941574 35.0648234,46.8361574 36.5008234,49.2891574 L49.3798234,71.5281574 C52.1578234,76.3561574 58.3078234,78.0431574 63.1598234,75.3071574 L63.4628234,75.1431574 L63.2248234,75.3071574 L68.8648234,72.1591574 C75.2268234,68.2101574 81.2408234,63.7271574 86.8418234,58.7571574 C87.9868234,57.7121574 89.7228234,57.6561574 90.9328234,58.6251574 C91.5748234,59.1621574 91.9578234,59.9481574 91.9828234,60.7851574 C92.0078234,61.6221574 91.6728234,62.4291574 91.0638234,63.0031574 C85.1678234,68.3101574 78.8148234,73.0861574 72.0778234,77.2751574 L71.8818234,77.2751574 L66.1758234,80.4721574 C63.7648234,81.8231574 61.0458234,82.5291574 58.2818234,82.5211574 C52.4548234,82.5441574 47.0598234,79.4521574 44.1328234,74.4141574 L31.9598234,53.3951574 C8.67882338,69.9871574 -5.63317662,101.818157 2.12082338,142.141157 C2.38382338,143.540157 3.59982338,144.557157 5.02282338,144.568955 L18.7538234,144.568955 C20.3218234,144.604157 21.6488234,143.417157 21.7868234,141.854157 C23.0978234,131.728157 31.7218234,124.148157 41.9318234,124.148157 C52.1428234,124.148157 60.7668234,131.728157 62.0778234,141.854157 C62.2558234,143.336157 63.5118234,144.451157 65.0038234,144.453157 L78.4308234,144.453157 C79.9188234,144.440157 81.1688234,143.330157 81.3578234,141.854157 C82.6828234,131.742157 91.2998234,124.180157 101.498823,124.180157 C111.697823,124.180157 120.314823,131.742157 121.639823,141.854157 C121.828823,143.333157 123.083823,144.444157 124.574823,144.453157 L137.911823,144.453157 C139.536823,144.453157 140.860823,143.150157 140.887823,141.526157 C141.190823,122.721157 146.264823,101.113157 160.725823,90.2921574 C210.795823,52.8301574 197.630823,20.7291574 186.038823,9.13715738 L186.030823,9.13715738 Z M134.968823,65.7081574 L125.418823,60.9211574 C125.421823,58.1041574 127.389823,55.6701574 130.143823,55.0771574 C132.897823,54.4841574 135.691823,55.8921574 136.854823,58.4581574 C138.016823,61.0251574 137.231823,64.0541574 134.968823,65.7331574 L134.968823,65.7081574 Z" id="Shape"></path>
                </g>
                <g id="Thin-L" transform="translate(296.710000, 831.590995)">
                    <path d="M186.030823,9.13715738 C174.136823,-2.75384262 154.958823,-3.07984262 142.666823,8.40015738 C142.068823,8.96915738 141.729823,9.75915738 141.729823,10.5841574 C141.729823,11.4101574 142.068823,12.2001574 142.666823,12.7691574 L146.436823,16.6221574 C147.487823,17.6621574 149.142823,17.7741574 150.322823,16.8841574 C157.816823,10.9101574 168.687823,11.9041574 174.973823,19.1371574 C181.260823,26.3711574 180.728823,37.2741574 173.767823,43.8621574 C148.986823,68.6181574 115.926823,-0.789842617 40.8788234,34.9841574 C38.3158234,36.2121574 36.3838234,38.4581574 35.5518234,41.1761574 C34.7198234,43.8941574 35.0648234,46.8361574 36.5008234,49.2891574 L49.3798234,71.5281574 C52.1578234,76.3561574 58.3078234,78.0431574 63.1598234,75.3071574 L63.4628234,75.1431574 L63.2248234,75.3071574 L68.8648234,72.1591574 C75.2268234,68.2101574 81.2408234,63.7271574 86.8418234,58.7571574 C87.9868234,57.7121574 89.7228234,57.6561574 90.9328234,58.6251574 C91.5748234,59.1621574 91.9578234,59.9481574 91.9828234,60.7851574 C92.0078234,61.6221574 91.6728234,62.4291574 91.0638234,63.0031574 C85.1678234,68.3101574 78.8148234,73.0861574 72.0778234,77.2751574 L71.8818234,77.2751574 L66.1758234,80.4721574 C63.7648234,81.8231574 61.0458234,82.5291574 58.2818234,82.5211574 C52.4548234,82.5441574 47.0598234,79.4521574 44.1328234,74.4141574 L31.9598234,53.3951574 C8.67882338,69.9871574 -5.63317662,101.818157 2.12082338,142.141157 C2.38382338,143.540157 3.59982338,144.557157 5.02282338,144.568955 L18.7538234,144.568955 C20.3218234,144.604157 21.6488234,143.417157 21.7868234,141.854157 C23.0978234,131.728157 31.7218234,124.148157 41.9318234,124.148157 C52.1428234,124.148157 60.7668234,131.728157 62.0778234,141.854157 C62.2558234,143.336157 63.5118234,144.451157 65.0038234,144.453157 L78.4308234,144.453157 C79.9188234,144.440157 81.1688234,143.330157 81.3578234,141.854157 C82.6828234,131.742157 91.2998234,124.180157 101.498823,124.180157 C111.697823,124.180157 120.314823,131.742157 121.639823,141.854157 C121.828823,143.333157 123.083823,144.444157 124.574823,144.453157 L137.911823,144.453157 C139.536823,144.453157 140.860823,143.150157 140.887823,141.526157 C141.190823,122.721157 146.264823,101.113157 160.725823,90.2921574 C210.795823,52.8301574 197.630823,20.7291574 186.038823,9.13715738 L186.030823,9.13715738 Z M134.968823,65.7081574 L125.418823,60.9211574 C125.421823,58.1041574 127.389823,55.6701574 130.143823,55.0771574 C132.897823,54.4841574 135.691823,55.8921574 136.854823,58.4581574 C138.016823,61.0251574 137.231823,64.0541574 134.968823,65.7331574 L134.968823,65.7081574 Z" id="Shape"></path>
                </g>
                <g id="Ultralight-L" transform="translate(-0.000000, 831.590995)">
                    <path d="M186.030823,9.13715738 C174.136823,-2.75384262 154.958823,-3.07984262 142.666823,8.40015738 C142.068823,8.96915738 141.729823,9.75915738 141.729823,10.5841574 C141.729823,11.4101574 142.068823,12.2001574 142.666823,12.7691574 L146.436823,16.6221574 C147.487823,17.6621574 149.142823,17.7741574 150.322823,16.8841574 C157.816823,10.9101574 168.687823,11.9041574 174.973823,19.1371574 C181.260823,26.3711574 180.728823,37.2741574 173.767823,43.8621574 C148.986823,68.6181574 115.926823,-0.789842617 40.8788234,34.9841574 C38.3158234,36.2121574 36.3838234,38.4581574 35.5518234,41.1761574 C34.7198234,43.8941574 35.0648234,46.8361574 36.5008234,49.2891574 L49.3798234,71.5281574 C52.1578234,76.3561574 58.3078234,78.0431574 63.1598234,75.3071574 L63.4628234,75.1431574 L63.2248234,75.3071574 L68.8648234,72.1591574 C75.2268234,68.2101574 81.2408234,63.7271574 86.8418234,58.7571574 C87.9868234,57.7121574 89.7228234,57.6561574 90.9328234,58.6251574 C91.5748234,59.1621574 91.9578234,59.9481574 91.9828234,60.7851574 C92.0078234,61.6221574 91.6728234,62.4291574 91.0638234,63.0031574 C85.1678234,68.3101574 78.8148234,73.0861574 72.0778234,77.2751574 L71.8818234,77.2751574 L66.1758234,80.4721574 C63.7648234,81.8231574 61.0458234,82.5291574 58.2818234,82.5211574 C52.4548234,82.5441574 47.0598234,79.4521574 44.1328234,74.4141574 L31.9598234,53.3951574 C8.67882338,69.9871574 -5.63317662,101.818157 2.12082338,142.141157 C2.38382338,143.540157 3.59982338,144.557157 5.02282338,144.568955 L18.7538234,144.568955 C20.3218234,144.604157 21.6488234,143.417157 21.7868234,141.854157 C23.0978234,131.728157 31.7218234,124.148157 41.9318234,124.148157 C52.1428234,124.148157 60.7668234,131.728157 62.0778234,141.854157 C62.2558234,143.336157 63.5118234,144.451157 65.0038234,144.453157 L78.4308234,144.453157 C79.9188234,144.440157 81.1688234,143.330157 81.3578234,141.854157 C82.6828234,131.742157 91.2998234,124.180157 101.498823,124.180157 C111.697823,124.180157 120.314823,131.742157 121.639823,141.854157 C121.828823,143.333157 123.083823,144.444157 124.574823,144.453157 L137.911823,144.453157 C139.536823,144.453157 140.860823,143.150157 140.887823,141.526157 C141.190823,122.721157 146.264823,101.113157 160.725823,90.2921574 C210.795823,52.8301574 197.630823,20.7291574 186.038823,9.13715738 L186.030823,9.13715738 Z M134.968823,65.7081574 L125.418823,60.9211574 C125.421823,58.1041574 127.389823,55.6701574 130.143823,55.0771574 C132.897823,54.4841574 135.691823,55.8921574 136.854823,58.4581574 C138.016823,61.0251574 137.231823,64.0541574 134.968823,65.7331574 L134.968823,65.7081574 Z" id="Shape"></path>
                </g>
                <g id="Black-M" transform="translate(2395.791800, 417.840813)">
                    <path d="M144.21008,7.08339675 C134.98908,-2.13460325 120.12308,-2.38760325 110.59408,6.51139675 C110.13108,6.95239675 109.86808,7.56439675 109.86808,8.20439675 C109.86808,8.84439675 110.13108,9.45639675 110.59408,9.89839675 L113.51708,12.8853968 C114.33108,13.6913968 115.61408,13.7783968 116.52908,13.0883968 C122.33808,8.45739675 130.76508,9.22739675 135.63908,14.8353968 C140.51208,20.4423968 140.09908,28.8943968 134.70308,34.0013968 C115.49308,53.1923968 89.8650801,-0.612603247 31.6890801,27.1193968 C29.7020801,28.0713968 28.2040801,29.8123968 27.5600801,31.9193968 C26.9150801,34.0263968 27.1820801,36.3063968 28.2950801,38.2083968 L38.2790801,55.4483968 C40.4320801,59.1903968 45.1990801,60.4983968 48.9610801,58.3773968 L49.1960801,58.2503968 L49.0110801,58.3773968 L53.3830801,55.9373968 C58.3150801,52.8763968 62.9770801,49.4003968 67.3190801,45.5473968 C68.2070801,44.7373968 69.5520801,44.6943968 70.4900801,45.4463968 C70.9880801,45.8613968 71.2850801,46.4713968 71.3040801,47.1193968 C71.3240801,47.7683968 71.0640801,48.3943968 70.5920801,48.8393968 C66.0210801,52.9533968 61.0960801,56.6553968 55.8740801,59.9023968 L55.7220801,59.9023968 L51.2990801,62.3813968 C49.4300801,63.4283968 47.3220801,63.9753968 45.1800801,63.9693968 C40.6630801,63.9873968 36.4800801,61.5913968 34.2120801,57.6853968 L24.7750801,41.3913968 C6.72808006,54.2533968 -4.36691994,78.9283968 1.64408006,110.186397 C1.84808006,111.271397 2.79108006,112.059397 3.89408006,112.068063 L14.5380801,112.068063 C15.7530801,112.096397 16.7820801,111.175397 16.8890801,109.964397 C17.9050801,102.114397 24.5900801,96.2393968 32.5050801,96.2393968 C40.4210801,96.2393968 47.1060801,102.114397 48.1220801,109.964397 C48.2600801,111.112397 49.2340801,111.977397 50.3900801,111.978397 L60.7990801,111.978397 C61.9530801,111.969397 62.9220801,111.108397 63.0680801,109.964397 C64.0950801,102.125397 70.7750801,96.2633968 78.6810801,96.2633968 C86.5870801,96.2633968 93.2670801,102.125397 94.2940801,109.964397 C94.4410801,111.111397 95.4130801,111.972397 96.5690801,111.978397 L106.90808,111.978397 C108.16808,111.979397 109.19408,110.969397 109.21508,109.710397 C109.45008,95.1323968 113.38408,78.3823968 124.59308,69.9933968 C163.40708,40.9533968 153.20208,16.0683968 144.21608,7.08339675 L144.21008,7.08339675 Z M104.62708,50.9363968 L97.2240801,47.2253968 C97.2260801,45.0413968 98.7510801,43.1553968 100.88608,42.6953968 C103.02108,42.2353968 105.18808,43.3273968 106.08908,45.3163968 C106.98908,47.3053968 106.38108,49.6543968 104.62708,50.9553968 L104.62708,50.9363968 Z" id="Shape"></path>
                </g>
                <g id="Heavy-M" transform="translate(2099.081800, 417.840813)">
                    <path d="M144.21008,7.08339675 C134.98908,-2.13460325 120.12308,-2.38760325 110.59408,6.51139675 C110.13108,6.95239675 109.86808,7.56439675 109.86808,8.20439675 C109.86808,8.84439675 110.13108,9.45639675 110.59408,9.89839675 L113.51708,12.8853968 C114.33108,13.6913968 115.61408,13.7783968 116.52908,13.0883968 C122.33808,8.45739675 130.76508,9.22739675 135.63908,14.8353968 C140.51208,20.4423968 140.09908,28.8943968 134.70308,34.0013968 C115.49308,53.1923968 89.8650801,-0.612603247 31.6890801,27.1193968 C29.7020801,28.0713968 28.2040801,29.8123968 27.5600801,31.9193968 C26.9150801,34.0263968 27.1820801,36.3063968 28.2950801,38.2083968 L38.2790801,55.4483968 C40.4320801,59.1903968 45.1990801,60.4983968 48.9610801,58.3773968 L49.1960801,58.2503968 L49.0110801,58.3773968 L53.3830801,55.9373968 C58.3150801,52.8763968 62.9770801,49.4003968 67.3190801,45.5473968 C68.2070801,44.7373968 69.5520801,44.6943968 70.4900801,45.4463968 C70.9880801,45.8613968 71.2850801,46.4713968 71.3040801,47.1193968 C71.3240801,47.7683968 71.0640801,48.3943968 70.5920801,48.8393968 C66.0210801,52.9533968 61.0960801,56.6553968 55.8740801,59.9023968 L55.7220801,59.9023968 L51.2990801,62.3813968 C49.4300801,63.4283968 47.3220801,63.9753968 45.1800801,63.9693968 C40.6630801,63.9873968 36.4800801,61.5913968 34.2120801,57.6853968 L24.7750801,41.3913968 C6.72808006,54.2533968 -4.36691994,78.9283968 1.64408006,110.186397 C1.84808006,111.271397 2.79108006,112.059397 3.89408006,112.068063 L14.5380801,112.068063 C15.7530801,112.096397 16.7820801,111.175397 16.8890801,109.964397 C17.9050801,102.114397 24.5900801,96.2393968 32.5050801,96.2393968 C40.4210801,96.2393968 47.1060801,102.114397 48.1220801,109.964397 C48.2600801,111.112397 49.2340801,111.977397 50.3900801,111.978397 L60.7990801,111.978397 C61.9530801,111.969397 62.9220801,111.108397 63.0680801,109.964397 C64.0950801,102.125397 70.7750801,96.2633968 78.6810801,96.2633968 C86.5870801,96.2633968 93.2670801,102.125397 94.2940801,109.964397 C94.4410801,111.111397 95.4130801,111.972397 96.5690801,111.978397 L106.90808,111.978397 C108.16808,111.979397 109.19408,110.969397 109.21508,109.710397 C109.45008,95.1323968 113.38408,78.3823968 124.59308,69.9933968 C163.40708,40.9533968 153.20208,16.0683968 144.21608,7.08339675 L144.21008,7.08339675 Z M104.62708,50.9363968 L97.2240801,47.2253968 C97.2260801,45.0413968 98.7510801,43.1553968 100.88608,42.6953968 C103.02108,42.2353968 105.18808,43.3273968 106.08908,45.3163968 C106.98908,47.3053968 106.38108,49.6543968 104.62708,50.9553968 L104.62708,50.9363968 Z" id="Shape"></path>
                </g>
                <g id="Bold-M" transform="translate(1802.371800, 417.840813)">
                    <path d="M144.21008,7.08339675 C134.98908,-2.13460325 120.12308,-2.38760325 110.59408,6.51139675 C110.13108,6.95239675 109.86808,7.56439675 109.86808,8.20439675 C109.86808,8.84439675 110.13108,9.45639675 110.59408,9.89839675 L113.51708,12.8853968 C114.33108,13.6913968 115.61408,13.7783968 116.52908,13.0883968 C122.33808,8.45739675 130.76508,9.22739675 135.63908,14.8353968 C140.51208,20.4423968 140.09908,28.8943968 134.70308,34.0013968 C115.49308,53.1923968 89.8650801,-0.612603247 31.6890801,27.1193968 C29.7020801,28.0713968 28.2040801,29.8123968 27.5600801,31.9193968 C26.9150801,34.0263968 27.1820801,36.3063968 28.2950801,38.2083968 L38.2790801,55.4483968 C40.4320801,59.1903968 45.1990801,60.4983968 48.9610801,58.3773968 L49.1960801,58.2503968 L49.0110801,58.3773968 L53.3830801,55.9373968 C58.3150801,52.8763968 62.9770801,49.4003968 67.3190801,45.5473968 C68.2070801,44.7373968 69.5520801,44.6943968 70.4900801,45.4463968 C70.9880801,45.8613968 71.2850801,46.4713968 71.3040801,47.1193968 C71.3240801,47.7683968 71.0640801,48.3943968 70.5920801,48.8393968 C66.0210801,52.9533968 61.0960801,56.6553968 55.8740801,59.9023968 L55.7220801,59.9023968 L51.2990801,62.3813968 C49.4300801,63.4283968 47.3220801,63.9753968 45.1800801,63.9693968 C40.6630801,63.9873968 36.4800801,61.5913968 34.2120801,57.6853968 L24.7750801,41.3913968 C6.72808006,54.2533968 -4.36691994,78.9283968 1.64408006,110.186397 C1.84808006,111.271397 2.79108006,112.059397 3.89408006,112.068063 L14.5380801,112.068063 C15.7530801,112.096397 16.7820801,111.175397 16.8890801,109.964397 C17.9050801,102.114397 24.5900801,96.2393968 32.5050801,96.2393968 C40.4210801,96.2393968 47.1060801,102.114397 48.1220801,109.964397 C48.2600801,111.112397 49.2340801,111.977397 50.3900801,111.978397 L60.7990801,111.978397 C61.9530801,111.969397 62.9220801,111.108397 63.0680801,109.964397 C64.0950801,102.125397 70.7750801,96.2633968 78.6810801,96.2633968 C86.5870801,96.2633968 93.2670801,102.125397 94.2940801,109.964397 C94.4410801,111.111397 95.4130801,111.972397 96.5690801,111.978397 L106.90808,111.978397 C108.16808,111.979397 109.19408,110.969397 109.21508,109.710397 C109.45008,95.1323968 113.38408,78.3823968 124.59308,69.9933968 C163.40708,40.9533968 153.20208,16.0683968 144.21608,7.08339675 L144.21008,7.08339675 Z M104.62708,50.9363968 L97.2240801,47.2253968 C97.2260801,45.0413968 98.7510801,43.1553968 100.88608,42.6953968 C103.02108,42.2353968 105.18808,43.3273968 106.08908,45.3163968 C106.98908,47.3053968 106.38108,49.6543968 104.62708,50.9553968 L104.62708,50.9363968 Z" id="Shape"></path>
                </g>
                <g id="Semibold-M" transform="translate(1505.661800, 417.840813)">
                    <path d="M144.21008,7.08339675 C134.98908,-2.13460325 120.12308,-2.38760325 110.59408,6.51139675 C110.13108,6.95239675 109.86808,7.56439675 109.86808,8.20439675 C109.86808,8.84439675 110.13108,9.45639675 110.59408,9.89839675 L113.51708,12.8853968 C114.33108,13.6913968 115.61408,13.7783968 116.52908,13.0883968 C122.33808,8.45739675 130.76508,9.22739675 135.63908,14.8353968 C140.51208,20.4423968 140.09908,28.8943968 134.70308,34.0013968 C115.49308,53.1923968 89.8650801,-0.612603247 31.6890801,27.1193968 C29.7020801,28.0713968 28.2040801,29.8123968 27.5600801,31.9193968 C26.9150801,34.0263968 27.1820801,36.3063968 28.2950801,38.2083968 L38.2790801,55.4483968 C40.4320801,59.1903968 45.1990801,60.4983968 48.9610801,58.3773968 L49.1960801,58.2503968 L49.0110801,58.3773968 L53.3830801,55.9373968 C58.3150801,52.8763968 62.9770801,49.4003968 67.3190801,45.5473968 C68.2070801,44.7373968 69.5520801,44.6943968 70.4900801,45.4463968 C70.9880801,45.8613968 71.2850801,46.4713968 71.3040801,47.1193968 C71.3240801,47.7683968 71.0640801,48.3943968 70.5920801,48.8393968 C66.0210801,52.9533968 61.0960801,56.6553968 55.8740801,59.9023968 L55.7220801,59.9023968 L51.2990801,62.3813968 C49.4300801,63.4283968 47.3220801,63.9753968 45.1800801,63.9693968 C40.6630801,63.9873968 36.4800801,61.5913968 34.2120801,57.6853968 L24.7750801,41.3913968 C6.72808006,54.2533968 -4.36691994,78.9283968 1.64408006,110.186397 C1.84808006,111.271397 2.79108006,112.059397 3.89408006,112.068063 L14.5380801,112.068063 C15.7530801,112.096397 16.7820801,111.175397 16.8890801,109.964397 C17.9050801,102.114397 24.5900801,96.2393968 32.5050801,96.2393968 C40.4210801,96.2393968 47.1060801,102.114397 48.1220801,109.964397 C48.2600801,111.112397 49.2340801,111.977397 50.3900801,111.978397 L60.7990801,111.978397 C61.9530801,111.969397 62.9220801,111.108397 63.0680801,109.964397 C64.0950801,102.125397 70.7750801,96.2633968 78.6810801,96.2633968 C86.5870801,96.2633968 93.2670801,102.125397 94.2940801,109.964397 C94.4410801,111.111397 95.4130801,111.972397 96.5690801,111.978397 L106.90808,111.978397 C108.16808,111.979397 109.19408,110.969397 109.21508,109.710397 C109.45008,95.1323968 113.38408,78.3823968 124.59308,69.9933968 C163.40708,40.9533968 153.20208,16.0683968 144.21608,7.08339675 L144.21008,7.08339675 Z M104.62708,50.9363968 L97.2240801,47.2253968 C97.2260801,45.0413968 98.7510801,43.1553968 100.88608,42.6953968 C103.02108,42.2353968 105.18808,43.3273968 106.08908,45.3163968 C106.98908,47.3053968 106.38108,49.6543968 104.62708,50.9553968 L104.62708,50.9363968 Z" id="Shape"></path>
                </g>
                <g id="Medium-M" transform="translate(1208.951800, 417.840813)">
                    <path d="M144.21008,7.08339675 C134.98908,-2.13460325 120.12308,-2.38760325 110.59408,6.51139675 C110.13108,6.95239675 109.86808,7.56439675 109.86808,8.20439675 C109.86808,8.84439675 110.13108,9.45639675 110.59408,9.89839675 L113.51708,12.8853968 C114.33108,13.6913968 115.61408,13.7783968 116.52908,13.0883968 C122.33808,8.45739675 130.76508,9.22739675 135.63908,14.8353968 C140.51208,20.4423968 140.09908,28.8943968 134.70308,34.0013968 C115.49308,53.1923968 89.8650801,-0.612603247 31.6890801,27.1193968 C29.7020801,28.0713968 28.2040801,29.8123968 27.5600801,31.9193968 C26.9150801,34.0263968 27.1820801,36.3063968 28.2950801,38.2083968 L38.2790801,55.4483968 C40.4320801,59.1903968 45.1990801,60.4983968 48.9610801,58.3773968 L49.1960801,58.2503968 L49.0110801,58.3773968 L53.3830801,55.9373968 C58.3150801,52.8763968 62.9770801,49.4003968 67.3190801,45.5473968 C68.2070801,44.7373968 69.5520801,44.6943968 70.4900801,45.4463968 C70.9880801,45.8613968 71.2850801,46.4713968 71.3040801,47.1193968 C71.3240801,47.7683968 71.0640801,48.3943968 70.5920801,48.8393968 C66.0210801,52.9533968 61.0960801,56.6553968 55.8740801,59.9023968 L55.7220801,59.9023968 L51.2990801,62.3813968 C49.4300801,63.4283968 47.3220801,63.9753968 45.1800801,63.9693968 C40.6630801,63.9873968 36.4800801,61.5913968 34.2120801,57.6853968 L24.7750801,41.3913968 C6.72808006,54.2533968 -4.36691994,78.9283968 1.64408006,110.186397 C1.84808006,111.271397 2.79108006,112.059397 3.89408006,112.068063 L14.5380801,112.068063 C15.7530801,112.096397 16.7820801,111.175397 16.8890801,109.964397 C17.9050801,102.114397 24.5900801,96.2393968 32.5050801,96.2393968 C40.4210801,96.2393968 47.1060801,102.114397 48.1220801,109.964397 C48.2600801,111.112397 49.2340801,111.977397 50.3900801,111.978397 L60.7990801,111.978397 C61.9530801,111.969397 62.9220801,111.108397 63.0680801,109.964397 C64.0950801,102.125397 70.7750801,96.2633968 78.6810801,96.2633968 C86.5870801,96.2633968 93.2670801,102.125397 94.2940801,109.964397 C94.4410801,111.111397 95.4130801,111.972397 96.5690801,111.978397 L106.90808,111.978397 C108.16808,111.979397 109.19408,110.969397 109.21508,109.710397 C109.45008,95.1323968 113.38408,78.3823968 124.59308,69.9933968 C163.40708,40.9533968 153.20208,16.0683968 144.21608,7.08339675 L144.21008,7.08339675 Z M104.62708,50.9363968 L97.2240801,47.2253968 C97.2260801,45.0413968 98.7510801,43.1553968 100.88608,42.6953968 C103.02108,42.2353968 105.18808,43.3273968 106.08908,45.3163968 C106.98908,47.3053968 106.38108,49.6543968 104.62708,50.9553968 L104.62708,50.9363968 Z" id="Shape"></path>
                </g>
                <g id="Regular-M" transform="translate(912.241800, 417.840813)">
                    <path d="M144.21008,7.08339675 C134.98908,-2.13460325 120.12308,-2.38760325 110.59408,6.51139675 C110.13108,6.95239675 109.86808,7.56439675 109.86808,8.20439675 C109.86808,8.84439675 110.13108,9.45639675 110.59408,9.89839675 L113.51708,12.8853968 C114.33108,13.6913968 115.61408,13.7783968 116.52908,13.0883968 C122.33808,8.45739675 130.76508,9.22739675 135.63908,14.8353968 C140.51208,20.4423968 140.09908,28.8943968 134.70308,34.0013968 C115.49308,53.1923968 89.8650801,-0.612603247 31.6890801,27.1193968 C29.7020801,28.0713968 28.2040801,29.8123968 27.5600801,31.9193968 C26.9150801,34.0263968 27.1820801,36.3063968 28.2950801,38.2083968 L38.2790801,55.4483968 C40.4320801,59.1903968 45.1990801,60.4983968 48.9610801,58.3773968 L49.1960801,58.2503968 L49.0110801,58.3773968 L53.3830801,55.9373968 C58.3150801,52.8763968 62.9770801,49.4003968 67.3190801,45.5473968 C68.2070801,44.7373968 69.5520801,44.6943968 70.4900801,45.4463968 C70.9880801,45.8613968 71.2850801,46.4713968 71.3040801,47.1193968 C71.3240801,47.7683968 71.0640801,48.3943968 70.5920801,48.8393968 C66.0210801,52.9533968 61.0960801,56.6553968 55.8740801,59.9023968 L55.7220801,59.9023968 L51.2990801,62.3813968 C49.4300801,63.4283968 47.3220801,63.9753968 45.1800801,63.9693968 C40.6630801,63.9873968 36.4800801,61.5913968 34.2120801,57.6853968 L24.7750801,41.3913968 C6.72808006,54.2533968 -4.36691994,78.9283968 1.64408006,110.186397 C1.84808006,111.271397 2.79108006,112.059397 3.89408006,112.068063 L14.5380801,112.068063 C15.7530801,112.096397 16.7820801,111.175397 16.8890801,109.964397 C17.9050801,102.114397 24.5900801,96.2393968 32.5050801,96.2393968 C40.4210801,96.2393968 47.1060801,102.114397 48.1220801,109.964397 C48.2600801,111.112397 49.2340801,111.977397 50.3900801,111.978397 L60.7990801,111.978397 C61.9530801,111.969397 62.9220801,111.108397 63.0680801,109.964397 C64.0950801,102.125397 70.7750801,96.2633968 78.6810801,96.2633968 C86.5870801,96.2633968 93.2670801,102.125397 94.2940801,109.964397 C94.4410801,111.111397 95.4130801,111.972397 96.5690801,111.978397 L106.90808,111.978397 C108.16808,111.979397 109.19408,110.969397 109.21508,109.710397 C109.45008,95.1323968 113.38408,78.3823968 124.59308,69.9933968 C163.40708,40.9533968 153.20208,16.0683968 144.21608,7.08339675 L144.21008,7.08339675 Z M104.62708,50.9363968 L97.2240801,47.2253968 C97.2260801,45.0413968 98.7510801,43.1553968 100.88608,42.6953968 C103.02108,42.2353968 105.18808,43.3273968 106.08908,45.3163968 C106.98908,47.3053968 106.38108,49.6543968 104.62708,50.9553968 L104.62708,50.9363968 Z" id="Shape"></path>
                </g>
                <g id="Light-M" transform="translate(615.531800, 417.840813)">
                    <path d="M144.21008,7.08339675 C134.98908,-2.13460325 120.12308,-2.38760325 110.59408,6.51139675 C110.13108,6.95239675 109.86808,7.56439675 109.86808,8.20439675 C109.86808,8.84439675 110.13108,9.45639675 110.59408,9.89839675 L113.51708,12.8853968 C114.33108,13.6913968 115.61408,13.7783968 116.52908,13.0883968 C122.33808,8.45739675 130.76508,9.22739675 135.63908,14.8353968 C140.51208,20.4423968 140.09908,28.8943968 134.70308,34.0013968 C115.49308,53.1923968 89.8650801,-0.612603247 31.6890801,27.1193968 C29.7020801,28.0713968 28.2040801,29.8123968 27.5600801,31.9193968 C26.9150801,34.0263968 27.1820801,36.3063968 28.2950801,38.2083968 L38.2790801,55.4483968 C40.4320801,59.1903968 45.1990801,60.4983968 48.9610801,58.3773968 L49.1960801,58.2503968 L49.0110801,58.3773968 L53.3830801,55.9373968 C58.3150801,52.8763968 62.9770801,49.4003968 67.3190801,45.5473968 C68.2070801,44.7373968 69.5520801,44.6943968 70.4900801,45.4463968 C70.9880801,45.8613968 71.2850801,46.4713968 71.3040801,47.1193968 C71.3240801,47.7683968 71.0640801,48.3943968 70.5920801,48.8393968 C66.0210801,52.9533968 61.0960801,56.6553968 55.8740801,59.9023968 L55.7220801,59.9023968 L51.2990801,62.3813968 C49.4300801,63.4283968 47.3220801,63.9753968 45.1800801,63.9693968 C40.6630801,63.9873968 36.4800801,61.5913968 34.2120801,57.6853968 L24.7750801,41.3913968 C6.72808006,54.2533968 -4.36691994,78.9283968 1.64408006,110.186397 C1.84808006,111.271397 2.79108006,112.059397 3.89408006,112.068063 L14.5380801,112.068063 C15.7530801,112.096397 16.7820801,111.175397 16.8890801,109.964397 C17.9050801,102.114397 24.5900801,96.2393968 32.5050801,96.2393968 C40.4210801,96.2393968 47.1060801,102.114397 48.1220801,109.964397 C48.2600801,111.112397 49.2340801,111.977397 50.3900801,111.978397 L60.7990801,111.978397 C61.9530801,111.969397 62.9220801,111.108397 63.0680801,109.964397 C64.0950801,102.125397 70.7750801,96.2633968 78.6810801,96.2633968 C86.5870801,96.2633968 93.2670801,102.125397 94.2940801,109.964397 C94.4410801,111.111397 95.4130801,111.972397 96.5690801,111.978397 L106.90808,111.978397 C108.16808,111.979397 109.19408,110.969397 109.21508,109.710397 C109.45008,95.1323968 113.38408,78.3823968 124.59308,69.9933968 C163.40708,40.9533968 153.20208,16.0683968 144.21608,7.08339675 L144.21008,7.08339675 Z M104.62708,50.9363968 L97.2240801,47.2253968 C97.2260801,45.0413968 98.7510801,43.1553968 100.88608,42.6953968 C103.02108,42.2353968 105.18808,43.3273968 106.08908,45.3163968 C106.98908,47.3053968 106.38108,49.6543968 104.62708,50.9553968 L104.62708,50.9363968 Z" id="Shape"></path>
                </g>
                <g id="Thin-M" transform="translate(318.821800, 417.840813)">
                    <path d="M144.21008,7.08339675 C134.98908,-2.13460325 120.12308,-2.38760325 110.59408,6.51139675 C110.13108,6.95239675 109.86808,7.56439675 109.86808,8.20439675 C109.86808,8.84439675 110.13108,9.45639675 110.59408,9.89839675 L113.51708,12.8853968 C114.33108,13.6913968 115.61408,13.7783968 116.52908,13.0883968 C122.33808,8.45739675 130.76508,9.22739675 135.63908,14.8353968 C140.51208,20.4423968 140.09908,28.8943968 134.70308,34.0013968 C115.49308,53.1923968 89.8650801,-0.612603247 31.6890801,27.1193968 C29.7020801,28.0713968 28.2040801,29.8123968 27.5600801,31.9193968 C26.9150801,34.0263968 27.1820801,36.3063968 28.2950801,38.2083968 L38.2790801,55.4483968 C40.4320801,59.1903968 45.1990801,60.4983968 48.9610801,58.3773968 L49.1960801,58.2503968 L49.0110801,58.3773968 L53.3830801,55.9373968 C58.3150801,52.8763968 62.9770801,49.4003968 67.3190801,45.5473968 C68.2070801,44.7373968 69.5520801,44.6943968 70.4900801,45.4463968 C70.9880801,45.8613968 71.2850801,46.4713968 71.3040801,47.1193968 C71.3240801,47.7683968 71.0640801,48.3943968 70.5920801,48.8393968 C66.0210801,52.9533968 61.0960801,56.6553968 55.8740801,59.9023968 L55.7220801,59.9023968 L51.2990801,62.3813968 C49.4300801,63.4283968 47.3220801,63.9753968 45.1800801,63.9693968 C40.6630801,63.9873968 36.4800801,61.5913968 34.2120801,57.6853968 L24.7750801,41.3913968 C6.72808006,54.2533968 -4.36691994,78.9283968 1.64408006,110.186397 C1.84808006,111.271397 2.79108006,112.059397 3.89408006,112.068063 L14.5380801,112.068063 C15.7530801,112.096397 16.7820801,111.175397 16.8890801,109.964397 C17.9050801,102.114397 24.5900801,96.2393968 32.5050801,96.2393968 C40.4210801,96.2393968 47.1060801,102.114397 48.1220801,109.964397 C48.2600801,111.112397 49.2340801,111.977397 50.3900801,111.978397 L60.7990801,111.978397 C61.9530801,111.969397 62.9220801,111.108397 63.0680801,109.964397 C64.0950801,102.125397 70.7750801,96.2633968 78.6810801,96.2633968 C86.5870801,96.2633968 93.2670801,102.125397 94.2940801,109.964397 C94.4410801,111.111397 95.4130801,111.972397 96.5690801,111.978397 L106.90808,111.978397 C108.16808,111.979397 109.19408,110.969397 109.21508,109.710397 C109.45008,95.1323968 113.38408,78.3823968 124.59308,69.9933968 C163.40708,40.9533968 153.20208,16.0683968 144.21608,7.08339675 L144.21008,7.08339675 Z M104.62708,50.9363968 L97.2240801,47.2253968 C97.2260801,45.0413968 98.7510801,43.1553968 100.88608,42.6953968 C103.02108,42.2353968 105.18808,43.3273968 106.08908,45.3163968 C106.98908,47.3053968 106.38108,49.6543968 104.62708,50.9553968 L104.62708,50.9363968 Z" id="Shape"></path>
                </g>
                <g id="Ultralight-M" transform="translate(22.111800, 417.840813)">
                    <path d="M144.21008,7.08339675 C134.98908,-2.13460325 120.12308,-2.38760325 110.59408,6.51139675 C110.13108,6.95239675 109.86808,7.56439675 109.86808,8.20439675 C109.86808,8.84439675 110.13108,9.45639675 110.59408,9.89839675 L113.51708,12.8853968 C114.33108,13.6913968 115.61408,13.7783968 116.52908,13.0883968 C122.33808,8.45739675 130.76508,9.22739675 135.63908,14.8353968 C140.51208,20.4423968 140.09908,28.8943968 134.70308,34.0013968 C115.49308,53.1923968 89.8650801,-0.612603247 31.6890801,27.1193968 C29.7020801,28.0713968 28.2040801,29.8123968 27.5600801,31.9193968 C26.9150801,34.0263968 27.1820801,36.3063968 28.2950801,38.2083968 L38.2790801,55.4483968 C40.4320801,59.1903968 45.1990801,60.4983968 48.9610801,58.3773968 L49.1960801,58.2503968 L49.0110801,58.3773968 L53.3830801,55.9373968 C58.3150801,52.8763968 62.9770801,49.4003968 67.3190801,45.5473968 C68.2070801,44.7373968 69.5520801,44.6943968 70.4900801,45.4463968 C70.9880801,45.8613968 71.2850801,46.4713968 71.3040801,47.1193968 C71.3240801,47.7683968 71.0640801,48.3943968 70.5920801,48.8393968 C66.0210801,52.9533968 61.0960801,56.6553968 55.8740801,59.9023968 L55.7220801,59.9023968 L51.2990801,62.3813968 C49.4300801,63.4283968 47.3220801,63.9753968 45.1800801,63.9693968 C40.6630801,63.9873968 36.4800801,61.5913968 34.2120801,57.6853968 L24.7750801,41.3913968 C6.72808006,54.2533968 -4.36691994,78.9283968 1.64408006,110.186397 C1.84808006,111.271397 2.79108006,112.059397 3.89408006,112.068063 L14.5380801,112.068063 C15.7530801,112.096397 16.7820801,111.175397 16.8890801,109.964397 C17.9050801,102.114397 24.5900801,96.2393968 32.5050801,96.2393968 C40.4210801,96.2393968 47.1060801,102.114397 48.1220801,109.964397 C48.2600801,111.112397 49.2340801,111.977397 50.3900801,111.978397 L60.7990801,111.978397 C61.9530801,111.969397 62.9220801,111.108397 63.0680801,109.964397 C64.0950801,102.125397 70.7750801,96.2633968 78.6810801,96.2633968 C86.5870801,96.2633968 93.2670801,102.125397 94.2940801,109.964397 C94.4410801,111.111397 95.4130801,111.972397 96.5690801,111.978397 L106.90808,111.978397 C108.16808,111.979397 109.19408,110.969397 109.21508,109.710397 C109.45008,95.1323968 113.38408,78.3823968 124.59308,69.9933968 C163.40708,40.9533968 153.20208,16.0683968 144.21608,7.08339675 L144.21008,7.08339675 Z M104.62708,50.9363968 L97.2240801,47.2253968 C97.2260801,45.0413968 98.7510801,43.1553968 100.88608,42.6953968 C103.02108,42.2353968 105.18808,43.3273968 106.08908,45.3163968 C106.98908,47.3053968 106.38108,49.6543968 104.62708,50.9553968 L104.62708,50.9363968 Z" id="Shape"></path>
                </g>
                <g id="Black-S" transform="translate(2412.337769, -0.000000)">
                    <path d="M112.916527,5.54562433 C105.696527,-1.67137567 94.0555267,-1.86937567 86.5945267,5.09862433 C86.2315267,5.44362433 86.0265267,5.92262433 86.0265267,6.42462433 C86.0265267,6.92562433 86.2315267,7.40462433 86.5945267,7.75062433 L88.8835267,10.0886243 C89.5215267,10.7206243 90.5255267,10.7886243 91.2425267,10.2476243 C95.7905267,6.62162433 102.389527,7.22462433 106.204527,11.6156243 C110.020527,16.0066243 109.697527,22.6246243 105.472527,26.6226243 C90.4315267,41.6496243 70.3645267,-0.479375668 24.8125267,21.2346243 C23.2565267,21.9796243 22.0835267,23.3426243 21.5785267,24.9926243 C21.0745267,26.6426243 21.2835267,28.4286243 22.1555267,29.9166243 L29.9715267,43.4156243 C31.6585267,46.3466243 35.3905267,47.3696243 38.3355267,45.7096243 L38.5205267,45.6096243 L38.3755267,45.7096243 L41.7995267,43.7986243 C45.6605267,41.4016243 49.3115267,38.6806243 52.7105267,35.6636243 C53.4055267,35.0296243 54.4595267,34.9956243 55.1935267,35.5836243 C55.5835267,35.9096243 55.8155267,36.3866243 55.8305267,36.8946243 C55.8465267,37.4026243 55.6435267,37.8926243 55.2735267,38.2416243 C51.6945267,41.4626243 47.8385267,44.3606243 43.7495267,46.9036243 L43.6305267,46.9036243 L40.1675267,48.8446243 C38.7035267,49.6646243 37.0535267,50.0926243 35.3755267,50.0886243 C31.8385267,50.1016243 28.5635267,48.2256243 26.7875267,45.1676243 L19.3985267,32.4096243 C5.26752665,42.4806243 -3.41947335,61.8006243 1.28752665,86.2766243 C1.44652665,87.1256243 2.18452665,87.7426243 3.04852665,87.7491152 L11.3825267,87.7491152 C12.3345267,87.7706243 13.1405267,87.0506243 13.2235267,86.1016243 C14.0195267,79.9556243 19.2535267,75.3546243 25.4515267,75.3546243 C31.6495267,75.3546243 36.8835267,79.9556243 37.6795267,86.1016243 C37.7875267,87.0016243 38.5495267,87.6786243 39.4555267,87.6796243 L47.6055267,87.6796243 C48.5085267,87.6716243 49.2675267,86.9976243 49.3815267,86.1016243 C50.1865267,79.9646243 55.4165267,75.3736243 61.6075267,75.3736243 C67.7975267,75.3736243 73.0285267,79.9646243 73.8325267,86.1016243 C73.9475267,86.9996243 74.7085267,87.6746243 75.6135267,87.6796243 L83.7095267,87.6796243 C84.6955267,87.6796243 85.4985267,86.8886243 85.5155267,85.9026243 C85.6995267,74.4886243 88.7795267,61.3726243 97.5565267,54.8046243 C127.947527,32.0666243 119.956527,12.5816243 112.921527,5.54562433 L112.916527,5.54562433 Z M81.9225267,39.8826243 L76.1265267,36.9776243 C76.1275267,35.2676243 77.3225267,33.7906243 78.9935267,33.4306243 C80.6655267,33.0706243 82.3615267,33.9246243 83.0675267,35.4826243 C83.7725267,37.0406243 83.2955267,38.8786243 81.9225267,39.8976243 L81.9225267,39.8826243 Z" id="Shape"></path>
                </g>
                <g id="Heavy-S" transform="translate(2115.627769, -0.000000)">
                    <path d="M112.916527,5.54562433 C105.696527,-1.67137567 94.0555267,-1.86937567 86.5945267,5.09862433 C86.2315267,5.44362433 86.0265267,5.92262433 86.0265267,6.42462433 C86.0265267,6.92562433 86.2315267,7.40462433 86.5945267,7.75062433 L88.8835267,10.0886243 C89.5215267,10.7206243 90.5255267,10.7886243 91.2425267,10.2476243 C95.7905267,6.62162433 102.389527,7.22462433 106.204527,11.6156243 C110.020527,16.0066243 109.697527,22.6246243 105.472527,26.6226243 C90.4315267,41.6496243 70.3645267,-0.479375668 24.8125267,21.2346243 C23.2565267,21.9796243 22.0835267,23.3426243 21.5785267,24.9926243 C21.0745267,26.6426243 21.2835267,28.4286243 22.1555267,29.9166243 L29.9715267,43.4156243 C31.6585267,46.3466243 35.3905267,47.3696243 38.3355267,45.7096243 L38.5205267,45.6096243 L38.3755267,45.7096243 L41.7995267,43.7986243 C45.6605267,41.4016243 49.3115267,38.6806243 52.7105267,35.6636243 C53.4055267,35.0296243 54.4595267,34.9956243 55.1935267,35.5836243 C55.5835267,35.9096243 55.8155267,36.3866243 55.8305267,36.8946243 C55.8465267,37.4026243 55.6435267,37.8926243 55.2735267,38.2416243 C51.6945267,41.4626243 47.8385267,44.3606243 43.7495267,46.9036243 L43.6305267,46.9036243 L40.1675267,48.8446243 C38.7035267,49.6646243 37.0535267,50.0926243 35.3755267,50.0886243 C31.8385267,50.1016243 28.5635267,48.2256243 26.7875267,45.1676243 L19.3985267,32.4096243 C5.26752665,42.4806243 -3.41947335,61.8006243 1.28752665,86.2766243 C1.44652665,87.1256243 2.18452665,87.7426243 3.04852665,87.7491152 L11.3825267,87.7491152 C12.3345267,87.7706243 13.1405267,87.0506243 13.2235267,86.1016243 C14.0195267,79.9556243 19.2535267,75.3546243 25.4515267,75.3546243 C31.6495267,75.3546243 36.8835267,79.9556243 37.6795267,86.1016243 C37.7875267,87.0016243 38.5495267,87.6786243 39.4555267,87.6796243 L47.6055267,87.6796243 C48.5085267,87.6716243 49.2675267,86.9976243 49.3815267,86.1016243 C50.1865267,79.9646243 55.4165267,75.3736243 61.6075267,75.3736243 C67.7975267,75.3736243 73.0285267,79.9646243 73.8325267,86.1016243 C73.9475267,86.9996243 74.7085267,87.6746243 75.6135267,87.6796243 L83.7095267,87.6796243 C84.6955267,87.6796243 85.4985267,86.8886243 85.5155267,85.9026243 C85.6995267,74.4886243 88.7795267,61.3726243 97.5565267,54.8046243 C127.947527,32.0666243 119.956527,12.5816243 112.921527,5.54562433 L112.916527,5.54562433 Z M81.9225267,39.8826243 L76.1265267,36.9776243 C76.1275267,35.2676243 77.3225267,33.7906243 78.9935267,33.4306243 C80.6655267,33.0706243 82.3615267,33.9246243 83.0675267,35.4826243 C83.7725267,37.0406243 83.2955267,38.8786243 81.9225267,39.8976243 L81.9225267,39.8826243 Z" id="Shape"></path>
                </g>
                <g id="Bold-S" transform="translate(1818.917769, -0.000000)">
                    <path d="M112.916527,5.54562433 C105.696527,-1.67137567 94.0555267,-1.86937567 86.5945267,5.09862433 C86.2315267,5.44362433 86.0265267,5.92262433 86.0265267,6.42462433 C86.0265267,6.92562433 86.2315267,7.40462433 86.5945267,7.75062433 L88.8835267,10.0886243 C89.5215267,10.7206243 90.5255267,10.7886243 91.2425267,10.2476243 C95.7905267,6.62162433 102.389527,7.22462433 106.204527,11.6156243 C110.020527,16.0066243 109.697527,22.6246243 105.472527,26.6226243 C90.4315267,41.6496243 70.3645267,-0.479375668 24.8125267,21.2346243 C23.2565267,21.9796243 22.0835267,23.3426243 21.5785267,24.9926243 C21.0745267,26.6426243 21.2835267,28.4286243 22.1555267,29.9166243 L29.9715267,43.4156243 C31.6585267,46.3466243 35.3905267,47.3696243 38.3355267,45.7096243 L38.5205267,45.6096243 L38.3755267,45.7096243 L41.7995267,43.7986243 C45.6605267,41.4016243 49.3115267,38.6806243 52.7105267,35.6636243 C53.4055267,35.0296243 54.4595267,34.9956243 55.1935267,35.5836243 C55.5835267,35.9096243 55.8155267,36.3866243 55.8305267,36.8946243 C55.8465267,37.4026243 55.6435267,37.8926243 55.2735267,38.2416243 C51.6945267,41.4626243 47.8385267,44.3606243 43.7495267,46.9036243 L43.6305267,46.9036243 L40.1675267,48.8446243 C38.7035267,49.6646243 37.0535267,50.0926243 35.3755267,50.0886243 C31.8385267,50.1016243 28.5635267,48.2256243 26.7875267,45.1676243 L19.3985267,32.4096243 C5.26752665,42.4806243 -3.41947335,61.8006243 1.28752665,86.2766243 C1.44652665,87.1256243 2.18452665,87.7426243 3.04852665,87.7491152 L11.3825267,87.7491152 C12.3345267,87.7706243 13.1405267,87.0506243 13.2235267,86.1016243 C14.0195267,79.9556243 19.2535267,75.3546243 25.4515267,75.3546243 C31.6495267,75.3546243 36.8835267,79.9556243 37.6795267,86.1016243 C37.7875267,87.0016243 38.5495267,87.6786243 39.4555267,87.6796243 L47.6055267,87.6796243 C48.5085267,87.6716243 49.2675267,86.9976243 49.3815267,86.1016243 C50.1865267,79.9646243 55.4165267,75.3736243 61.6075267,75.3736243 C67.7975267,75.3736243 73.0285267,79.9646243 73.8325267,86.1016243 C73.9475267,86.9996243 74.7085267,87.6746243 75.6135267,87.6796243 L83.7095267,87.6796243 C84.6955267,87.6796243 85.4985267,86.8886243 85.5155267,85.9026243 C85.6995267,74.4886243 88.7795267,61.3726243 97.5565267,54.8046243 C127.947527,32.0666243 119.956527,12.5816243 112.921527,5.54562433 L112.916527,5.54562433 Z M81.9225267,39.8826243 L76.1265267,36.9776243 C76.1275267,35.2676243 77.3225267,33.7906243 78.9935267,33.4306243 C80.6655267,33.0706243 82.3615267,33.9246243 83.0675267,35.4826243 C83.7725267,37.0406243 83.2955267,38.8786243 81.9225267,39.8976243 L81.9225267,39.8826243 Z" id="Shape"></path>
                </g>
                <g id="Semibold-S" transform="translate(1522.207769, -0.000000)">
                    <path d="M112.916527,5.54562433 C105.696527,-1.67137567 94.0555267,-1.86937567 86.5945267,5.09862433 C86.2315267,5.44362433 86.0265267,5.92262433 86.0265267,6.42462433 C86.0265267,6.92562433 86.2315267,7.40462433 86.5945267,7.75062433 L88.8835267,10.0886243 C89.5215267,10.7206243 90.5255267,10.7886243 91.2425267,10.2476243 C95.7905267,6.62162433 102.389527,7.22462433 106.204527,11.6156243 C110.020527,16.0066243 109.697527,22.6246243 105.472527,26.6226243 C90.4315267,41.6496243 70.3645267,-0.479375668 24.8125267,21.2346243 C23.2565267,21.9796243 22.0835267,23.3426243 21.5785267,24.9926243 C21.0745267,26.6426243 21.2835267,28.4286243 22.1555267,29.9166243 L29.9715267,43.4156243 C31.6585267,46.3466243 35.3905267,47.3696243 38.3355267,45.7096243 L38.5205267,45.6096243 L38.3755267,45.7096243 L41.7995267,43.7986243 C45.6605267,41.4016243 49.3115267,38.6806243 52.7105267,35.6636243 C53.4055267,35.0296243 54.4595267,34.9956243 55.1935267,35.5836243 C55.5835267,35.9096243 55.8155267,36.3866243 55.8305267,36.8946243 C55.8465267,37.4026243 55.6435267,37.8926243 55.2735267,38.2416243 C51.6945267,41.4626243 47.8385267,44.3606243 43.7495267,46.9036243 L43.6305267,46.9036243 L40.1675267,48.8446243 C38.7035267,49.6646243 37.0535267,50.0926243 35.3755267,50.0886243 C31.8385267,50.1016243 28.5635267,48.2256243 26.7875267,45.1676243 L19.3985267,32.4096243 C5.26752665,42.4806243 -3.41947335,61.8006243 1.28752665,86.2766243 C1.44652665,87.1256243 2.18452665,87.7426243 3.04852665,87.7491152 L11.3825267,87.7491152 C12.3345267,87.7706243 13.1405267,87.0506243 13.2235267,86.1016243 C14.0195267,79.9556243 19.2535267,75.3546243 25.4515267,75.3546243 C31.6495267,75.3546243 36.8835267,79.9556243 37.6795267,86.1016243 C37.7875267,87.0016243 38.5495267,87.6786243 39.4555267,87.6796243 L47.6055267,87.6796243 C48.5085267,87.6716243 49.2675267,86.9976243 49.3815267,86.1016243 C50.1865267,79.9646243 55.4165267,75.3736243 61.6075267,75.3736243 C67.7975267,75.3736243 73.0285267,79.9646243 73.8325267,86.1016243 C73.9475267,86.9996243 74.7085267,87.6746243 75.6135267,87.6796243 L83.7095267,87.6796243 C84.6955267,87.6796243 85.4985267,86.8886243 85.5155267,85.9026243 C85.6995267,74.4886243 88.7795267,61.3726243 97.5565267,54.8046243 C127.947527,32.0666243 119.956527,12.5816243 112.921527,5.54562433 L112.916527,5.54562433 Z M81.9225267,39.8826243 L76.1265267,36.9776243 C76.1275267,35.2676243 77.3225267,33.7906243 78.9935267,33.4306243 C80.6655267,33.0706243 82.3615267,33.9246243 83.0675267,35.4826243 C83.7725267,37.0406243 83.2955267,38.8786243 81.9225267,39.8976243 L81.9225267,39.8826243 Z" id="Shape"></path>
                </g>
                <g id="Medium-S" transform="translate(1225.497769, -0.000000)">
                    <path d="M112.916527,5.54562433 C105.696527,-1.67137567 94.0555267,-1.86937567 86.5945267,5.09862433 C86.2315267,5.44362433 86.0265267,5.92262433 86.0265267,6.42462433 C86.0265267,6.92562433 86.2315267,7.40462433 86.5945267,7.75062433 L88.8835267,10.0886243 C89.5215267,10.7206243 90.5255267,10.7886243 91.2425267,10.2476243 C95.7905267,6.62162433 102.389527,7.22462433 106.204527,11.6156243 C110.020527,16.0066243 109.697527,22.6246243 105.472527,26.6226243 C90.4315267,41.6496243 70.3645267,-0.479375668 24.8125267,21.2346243 C23.2565267,21.9796243 22.0835267,23.3426243 21.5785267,24.9926243 C21.0745267,26.6426243 21.2835267,28.4286243 22.1555267,29.9166243 L29.9715267,43.4156243 C31.6585267,46.3466243 35.3905267,47.3696243 38.3355267,45.7096243 L38.5205267,45.6096243 L38.3755267,45.7096243 L41.7995267,43.7986243 C45.6605267,41.4016243 49.3115267,38.6806243 52.7105267,35.6636243 C53.4055267,35.0296243 54.4595267,34.9956243 55.1935267,35.5836243 C55.5835267,35.9096243 55.8155267,36.3866243 55.8305267,36.8946243 C55.8465267,37.4026243 55.6435267,37.8926243 55.2735267,38.2416243 C51.6945267,41.4626243 47.8385267,44.3606243 43.7495267,46.9036243 L43.6305267,46.9036243 L40.1675267,48.8446243 C38.7035267,49.6646243 37.0535267,50.0926243 35.3755267,50.0886243 C31.8385267,50.1016243 28.5635267,48.2256243 26.7875267,45.1676243 L19.3985267,32.4096243 C5.26752665,42.4806243 -3.41947335,61.8006243 1.28752665,86.2766243 C1.44652665,87.1256243 2.18452665,87.7426243 3.04852665,87.7491152 L11.3825267,87.7491152 C12.3345267,87.7706243 13.1405267,87.0506243 13.2235267,86.1016243 C14.0195267,79.9556243 19.2535267,75.3546243 25.4515267,75.3546243 C31.6495267,75.3546243 36.8835267,79.9556243 37.6795267,86.1016243 C37.7875267,87.0016243 38.5495267,87.6786243 39.4555267,87.6796243 L47.6055267,87.6796243 C48.5085267,87.6716243 49.2675267,86.9976243 49.3815267,86.1016243 C50.1865267,79.9646243 55.4165267,75.3736243 61.6075267,75.3736243 C67.7975267,75.3736243 73.0285267,79.9646243 73.8325267,86.1016243 C73.9475267,86.9996243 74.7085267,87.6746243 75.6135267,87.6796243 L83.7095267,87.6796243 C84.6955267,87.6796243 85.4985267,86.8886243 85.5155267,85.9026243 C85.6995267,74.4886243 88.7795267,61.3726243 97.5565267,54.8046243 C127.947527,32.0666243 119.956527,12.5816243 112.921527,5.54562433 L112.916527,5.54562433 Z M81.9225267,39.8826243 L76.1265267,36.9776243 C76.1275267,35.2676243 77.3225267,33.7906243 78.9935267,33.4306243 C80.6655267,33.0706243 82.3615267,33.9246243 83.0675267,35.4826243 C83.7725267,37.0406243 83.2955267,38.8786243 81.9225267,39.8976243 L81.9225267,39.8826243 Z" id="Shape"></path>
                </g>
                <g id="Regular-S" transform="translate(928.787769, -0.000000)">
                    <path d="M112.916527,5.54562433 C105.696527,-1.67137567 94.0555267,-1.86937567 86.5945267,5.09862433 C86.2315267,5.44362433 86.0265267,5.92262433 86.0265267,6.42462433 C86.0265267,6.92562433 86.2315267,7.40462433 86.5945267,7.75062433 L88.8835267,10.0886243 C89.5215267,10.7206243 90.5255267,10.7886243 91.2425267,10.2476243 C95.7905267,6.62162433 102.389527,7.22462433 106.204527,11.6156243 C110.020527,16.0066243 109.697527,22.6246243 105.472527,26.6226243 C90.4315267,41.6496243 70.3645267,-0.479375668 24.8125267,21.2346243 C23.2565267,21.9796243 22.0835267,23.3426243 21.5785267,24.9926243 C21.0745267,26.6426243 21.2835267,28.4286243 22.1555267,29.9166243 L29.9715267,43.4156243 C31.6585267,46.3466243 35.3905267,47.3696243 38.3355267,45.7096243 L38.5205267,45.6096243 L38.3755267,45.7096243 L41.7995267,43.7986243 C45.6605267,41.4016243 49.3115267,38.6806243 52.7105267,35.6636243 C53.4055267,35.0296243 54.4595267,34.9956243 55.1935267,35.5836243 C55.5835267,35.9096243 55.8155267,36.3866243 55.8305267,36.8946243 C55.8465267,37.4026243 55.6435267,37.8926243 55.2735267,38.2416243 C51.6945267,41.4626243 47.8385267,44.3606243 43.7495267,46.9036243 L43.6305267,46.9036243 L40.1675267,48.8446243 C38.7035267,49.6646243 37.0535267,50.0926243 35.3755267,50.0886243 C31.8385267,50.1016243 28.5635267,48.2256243 26.7875267,45.1676243 L19.3985267,32.4096243 C5.26752665,42.4806243 -3.41947335,61.8006243 1.28752665,86.2766243 C1.44652665,87.1256243 2.18452665,87.7426243 3.04852665,87.7491152 L11.3825267,87.7491152 C12.3345267,87.7706243 13.1405267,87.0506243 13.2235267,86.1016243 C14.0195267,79.9556243 19.2535267,75.3546243 25.4515267,75.3546243 C31.6495267,75.3546243 36.8835267,79.9556243 37.6795267,86.1016243 C37.7875267,87.0016243 38.5495267,87.6786243 39.4555267,87.6796243 L47.6055267,87.6796243 C48.5085267,87.6716243 49.2675267,86.9976243 49.3815267,86.1016243 C50.1865267,79.9646243 55.4165267,75.3736243 61.6075267,75.3736243 C67.7975267,75.3736243 73.0285267,79.9646243 73.8325267,86.1016243 C73.9475267,86.9996243 74.7085267,87.6746243 75.6135267,87.6796243 L83.7095267,87.6796243 C84.6955267,87.6796243 85.4985267,86.8886243 85.5155267,85.9026243 C85.6995267,74.4886243 88.7795267,61.3726243 97.5565267,54.8046243 C127.947527,32.0666243 119.956527,12.5816243 112.921527,5.54562433 L112.916527,5.54562433 Z M81.9225267,39.8826243 L76.1265267,36.9776243 C76.1275267,35.2676243 77.3225267,33.7906243 78.9935267,33.4306243 C80.6655267,33.0706243 82.3615267,33.9246243 83.0675267,35.4826243 C83.7725267,37.0406243 83.2955267,38.8786243 81.9225267,39.8976243 L81.9225267,39.8826243 Z" id="Shape"></path>
                </g>
                <g id="Light-S" transform="translate(632.077769, -0.000000)">
                    <path d="M112.916527,5.54562433 C105.696527,-1.67137567 94.0555267,-1.86937567 86.5945267,5.09862433 C86.2315267,5.44362433 86.0265267,5.92262433 86.0265267,6.42462433 C86.0265267,6.92562433 86.2315267,7.40462433 86.5945267,7.75062433 L88.8835267,10.0886243 C89.5215267,10.7206243 90.5255267,10.7886243 91.2425267,10.2476243 C95.7905267,6.62162433 102.389527,7.22462433 106.204527,11.6156243 C110.020527,16.0066243 109.697527,22.6246243 105.472527,26.6226243 C90.4315267,41.6496243 70.3645267,-0.479375668 24.8125267,21.2346243 C23.2565267,21.9796243 22.0835267,23.3426243 21.5785267,24.9926243 C21.0745267,26.6426243 21.2835267,28.4286243 22.1555267,29.9166243 L29.9715267,43.4156243 C31.6585267,46.3466243 35.3905267,47.3696243 38.3355267,45.7096243 L38.5205267,45.6096243 L38.3755267,45.7096243 L41.7995267,43.7986243 C45.6605267,41.4016243 49.3115267,38.6806243 52.7105267,35.6636243 C53.4055267,35.0296243 54.4595267,34.9956243 55.1935267,35.5836243 C55.5835267,35.9096243 55.8155267,36.3866243 55.8305267,36.8946243 C55.8465267,37.4026243 55.6435267,37.8926243 55.2735267,38.2416243 C51.6945267,41.4626243 47.8385267,44.3606243 43.7495267,46.9036243 L43.6305267,46.9036243 L40.1675267,48.8446243 C38.7035267,49.6646243 37.0535267,50.0926243 35.3755267,50.0886243 C31.8385267,50.1016243 28.5635267,48.2256243 26.7875267,45.1676243 L19.3985267,32.4096243 C5.26752665,42.4806243 -3.41947335,61.8006243 1.28752665,86.2766243 C1.44652665,87.1256243 2.18452665,87.7426243 3.04852665,87.7491152 L11.3825267,87.7491152 C12.3345267,87.7706243 13.1405267,87.0506243 13.2235267,86.1016243 C14.0195267,79.9556243 19.2535267,75.3546243 25.4515267,75.3546243 C31.6495267,75.3546243 36.8835267,79.9556243 37.6795267,86.1016243 C37.7875267,87.0016243 38.5495267,87.6786243 39.4555267,87.6796243 L47.6055267,87.6796243 C48.5085267,87.6716243 49.2675267,86.9976243 49.3815267,86.1016243 C50.1865267,79.9646243 55.4165267,75.3736243 61.6075267,75.3736243 C67.7975267,75.3736243 73.0285267,79.9646243 73.8325267,86.1016243 C73.9475267,86.9996243 74.7085267,87.6746243 75.6135267,87.6796243 L83.7095267,87.6796243 C84.6955267,87.6796243 85.4985267,86.8886243 85.5155267,85.9026243 C85.6995267,74.4886243 88.7795267,61.3726243 97.5565267,54.8046243 C127.947527,32.0666243 119.956527,12.5816243 112.921527,5.54562433 L112.916527,5.54562433 Z M81.9225267,39.8826243 L76.1265267,36.9776243 C76.1275267,35.2676243 77.3225267,33.7906243 78.9935267,33.4306243 C80.6655267,33.0706243 82.3615267,33.9246243 83.0675267,35.4826243 C83.7725267,37.0406243 83.2955267,38.8786243 81.9225267,39.8976243 L81.9225267,39.8826243 Z" id="Shape"></path>
                </g>
                <g id="Thin-S" transform="translate(335.367769, -0.000000)">
                    <path d="M112.916527,5.54562433 C105.696527,-1.67137567 94.0555267,-1.86937567 86.5945267,5.09862433 C86.2315267,5.44362433 86.0265267,5.92262433 86.0265267,6.42462433 C86.0265267,6.92562433 86.2315267,7.40462433 86.5945267,7.75062433 L88.8835267,10.0886243 C89.5215267,10.7206243 90.5255267,10.7886243 91.2425267,10.2476243 C95.7905267,6.62162433 102.389527,7.22462433 106.204527,11.6156243 C110.020527,16.0066243 109.697527,22.6246243 105.472527,26.6226243 C90.4315267,41.6496243 70.3645267,-0.479375668 24.8125267,21.2346243 C23.2565267,21.9796243 22.0835267,23.3426243 21.5785267,24.9926243 C21.0745267,26.6426243 21.2835267,28.4286243 22.1555267,29.9166243 L29.9715267,43.4156243 C31.6585267,46.3466243 35.3905267,47.3696243 38.3355267,45.7096243 L38.5205267,45.6096243 L38.3755267,45.7096243 L41.7995267,43.7986243 C45.6605267,41.4016243 49.3115267,38.6806243 52.7105267,35.6636243 C53.4055267,35.0296243 54.4595267,34.9956243 55.1935267,35.5836243 C55.5835267,35.9096243 55.8155267,36.3866243 55.8305267,36.8946243 C55.8465267,37.4026243 55.6435267,37.8926243 55.2735267,38.2416243 C51.6945267,41.4626243 47.8385267,44.3606243 43.7495267,46.9036243 L43.6305267,46.9036243 L40.1675267,48.8446243 C38.7035267,49.6646243 37.0535267,50.0926243 35.3755267,50.0886243 C31.8385267,50.1016243 28.5635267,48.2256243 26.7875267,45.1676243 L19.3985267,32.4096243 C5.26752665,42.4806243 -3.41947335,61.8006243 1.28752665,86.2766243 C1.44652665,87.1256243 2.18452665,87.7426243 3.04852665,87.7491152 L11.3825267,87.7491152 C12.3345267,87.7706243 13.1405267,87.0506243 13.2235267,86.1016243 C14.0195267,79.9556243 19.2535267,75.3546243 25.4515267,75.3546243 C31.6495267,75.3546243 36.8835267,79.9556243 37.6795267,86.1016243 C37.7875267,87.0016243 38.5495267,87.6786243 39.4555267,87.6796243 L47.6055267,87.6796243 C48.5085267,87.6716243 49.2675267,86.9976243 49.3815267,86.1016243 C50.1865267,79.9646243 55.4165267,75.3736243 61.6075267,75.3736243 C67.7975267,75.3736243 73.0285267,79.9646243 73.8325267,86.1016243 C73.9475267,86.9996243 74.7085267,87.6746243 75.6135267,87.6796243 L83.7095267,87.6796243 C84.6955267,87.6796243 85.4985267,86.8886243 85.5155267,85.9026243 C85.6995267,74.4886243 88.7795267,61.3726243 97.5565267,54.8046243 C127.947527,32.0666243 119.956527,12.5816243 112.921527,5.54562433 L112.916527,5.54562433 Z M81.9225267,39.8826243 L76.1265267,36.9776243 C76.1275267,35.2676243 77.3225267,33.7906243 78.9935267,33.4306243 C80.6655267,33.0706243 82.3615267,33.9246243 83.0675267,35.4826243 C83.7725267,37.0406243 83.2955267,38.8786243 81.9225267,39.8976243 L81.9225267,39.8826243 Z" id="Shape"></path>
                </g>
                <g id="Ultralight-S" transform="translate(38.657769, -0.000000)">
                    <path d="M112.916527,5.54562433 C105.696527,-1.67137567 94.0555267,-1.86937567 86.5945267,5.09862433 C86.2315267,5.44362433 86.0265267,5.92262433 86.0265267,6.42462433 C86.0265267,6.92562433 86.2315267,7.40462433 86.5945267,7.75062433 L88.8835267,10.0886243 C89.5215267,10.7206243 90.5255267,10.7886243 91.2425267,10.2476243 C95.7905267,6.62162433 102.389527,7.22462433 106.204527,11.6156243 C110.020527,16.0066243 109.697527,22.6246243 105.472527,26.6226243 C90.4315267,41.6496243 70.3645267,-0.479375668 24.8125267,21.2346243 C23.2565267,21.9796243 22.0835267,23.3426243 21.5785267,24.9926243 C21.0745267,26.6426243 21.2835267,28.4286243 22.1555267,29.9166243 L29.9715267,43.4156243 C31.6585267,46.3466243 35.3905267,47.3696243 38.3355267,45.7096243 L38.5205267,45.6096243 L38.3755267,45.7096243 L41.7995267,43.7986243 C45.6605267,41.4016243 49.3115267,38.6806243 52.7105267,35.6636243 C53.4055267,35.0296243 54.4595267,34.9956243 55.1935267,35.5836243 C55.5835267,35.9096243 55.8155267,36.3866243 55.8305267,36.8946243 C55.8465267,37.4026243 55.6435267,37.8926243 55.2735267,38.2416243 C51.6945267,41.4626243 47.8385267,44.3606243 43.7495267,46.9036243 L43.6305267,46.9036243 L40.1675267,48.8446243 C38.7035267,49.6646243 37.0535267,50.0926243 35.3755267,50.0886243 C31.8385267,50.1016243 28.5635267,48.2256243 26.7875267,45.1676243 L19.3985267,32.4096243 C5.26752665,42.4806243 -3.41947335,61.8006243 1.28752665,86.2766243 C1.44652665,87.1256243 2.18452665,87.7426243 3.04852665,87.7491152 L11.3825267,87.7491152 C12.3345267,87.7706243 13.1405267,87.0506243 13.2235267,86.1016243 C14.0195267,79.9556243 19.2535267,75.3546243 25.4515267,75.3546243 C31.6495267,75.3546243 36.8835267,79.9556243 37.6795267,86.1016243 C37.7875267,87.0016243 38.5495267,87.6786243 39.4555267,87.6796243 L47.6055267,87.6796243 C48.5085267,87.6716243 49.2675267,86.9976243 49.3815267,86.1016243 C50.1865267,79.9646243 55.4165267,75.3736243 61.6075267,75.3736243 C67.7975267,75.3736243 73.0285267,79.9646243 73.8325267,86.1016243 C73.9475267,86.9996243 74.7085267,87.6746243 75.6135267,87.6796243 L83.7095267,87.6796243 C84.6955267,87.6796243 85.4985267,86.8886243 85.5155267,85.9026243 C85.6995267,74.4886243 88.7795267,61.3726243 97.5565267,54.8046243 C127.947527,32.0666243 119.956527,12.5816243 112.921527,5.54562433 L112.916527,5.54562433 Z M81.9225267,39.8826243 L76.1265267,36.9776243 C76.1275267,35.2676243 77.3225267,33.7906243 78.9935267,33.4306243 C80.6655267,33.0706243 82.3615267,33.9246243 83.0675267,35.4826243 C83.7725267,37.0406243 83.2955267,38.8786243 81.9225267,39.8976243 L81.9225267,39.8826243 Z" id="Shape"></path>
                </g>
            </g>
        </g>
    </g>
</svg>