<?xml version="1.0" encoding="UTF-8"?>
<!--Generator: CustomSymbols by @serious_bret-->
<!DOCTYPE svg
        PUBLIC "-//W3C//DTD SVG 1.1//EN"
        "http://www.w3.org/Graphics/SVG/1.1/DTD/svg11.dtd">
<svg version="1.1" xmlns="http://www.w3.org/2000/svg" xmlns:xlink="http://www.w3.org/1999/xlink" width="2900" height="1500">
    <g transform="translate(-200 -200)">
    <!--template writer version: "8"-->
    <g id="Notes">
        <rect height="2200" id="artboard" style="fill:white;opacity:1" width="3300" x="0" y="0"/>
        <line id="" style="fill:none;stroke:black;opacity:1;stroke-width:0.5;" x1="263" x2="3036" y1="292" y2="292"/>
        <text id="reftext1" style="stroke:none;fill:black;font-family:-apple-system,&quot;SF Pro Display&quot;,&quot;SF Pro Text&quot;,Helvetica,sans-serif;font-weight:bold;" transform="matrix(1 0 0 1 263 322)">Weight/Scale Variations</text>
        <text id="reftext2" style="stroke:none;fill:black;font-family:-apple-system,&quot;SF Pro Display&quot;,&quot;SF Pro Text&quot;,Helvetica,sans-serif;text-anchor:middle;" transform="matrix(1 0 0 1 559.711 322)">Ultralight</text>
        <text style="stroke:none;fill:black;font-family:-apple-system,&quot;SF Pro Display&quot;,&quot;SF Pro Text&quot;,Helvetica,sans-serif;text-anchor:middle;" transform="matrix(1 0 0 1 856.422 322)">Thin</text>
        <text style="stroke:none;fill:black;font-family:-apple-system,&quot;SF Pro Display&quot;,&quot;SF Pro Text&quot;,Helvetica,sans-serif;text-anchor:middle;" transform="matrix(1 0 0 1 1153.13 322)">Light</text>
        <text style="stroke:none;fill:black;font-family:-apple-system,&quot;SF Pro Display&quot;,&quot;SF Pro Text&quot;,Helvetica,sans-serif;text-anchor:middle;" transform="matrix(1 0 0 1 1449.84 322)">Regular</text>
        <text style="stroke:none;fill:black;font-family:-apple-system,&quot;SF Pro Display&quot;,&quot;SF Pro Text&quot;,Helvetica,sans-serif;text-anchor:middle;" transform="matrix(1 0 0 1 1746.56 322)">Medium</text>
        <text style="stroke:none;fill:black;font-family:-apple-system,&quot;SF Pro Display&quot;,&quot;SF Pro Text&quot;,Helvetica,sans-serif;text-anchor:middle;" transform="matrix(1 0 0 1 2043.27 322)">Semibold</text>
        <text style="stroke:none;fill:black;font-family:-apple-system,&quot;SF Pro Display&quot;,&quot;SF Pro Text&quot;,Helvetica,sans-serif;text-anchor:middle;" transform="matrix(1 0 0 1 2339.98 322)">Bold</text>
        <text style="stroke:none;fill:black;font-family:-apple-system,&quot;SF Pro Display&quot;,&quot;SF Pro Text&quot;,Helvetica,sans-serif;text-anchor:middle;" transform="matrix(1 0 0 1 2636.69 322)">Heavy</text>
        <text style="stroke:none;fill:black;font-family:-apple-system,&quot;SF Pro Display&quot;,&quot;SF Pro Text&quot;,Helvetica,sans-serif;text-anchor:middle;" transform="matrix(1 0 0 1 2933.4 322)">Black</text>

        <text style="stroke:none;fill:black;font-family:-apple-system,&quot;SF Pro Display&quot;,&quot;SF Pro Text&quot;,Helvetica,sans-serif;" transform="matrix(1 0 0 1 263 726)">Small</text>
        <text style="stroke:none;fill:black;font-family:-apple-system,&quot;SF Pro Display&quot;,&quot;SF Pro Text&quot;,Helvetica,sans-serif;" transform="matrix(1 0 0 1 263 1156)">Medium</text>
        <text style="stroke:none;fill:black;font-family:-apple-system,&quot;SF Pro Display&quot;,&quot;SF Pro Text&quot;,Helvetica,sans-serif;" transform="matrix(1 0 0 1 263 1586)">Large</text>
    </g>
    <g id="Guides">
        <g id="H-reference" style="fill:#27AAE1;stroke:none;" transform="matrix(1 0 0 1 339 696)">
            <path d="M0.976562 0L3.66211 0L12.9883-24.4629L45.752-24.4629L55.127 0L57.7637 0L30.6152-70.459L28.125-70.459ZM29.3457-67.1387L29.4434-67.1387L44.873-26.709L13.8672-26.709Z"/>
        </g>
        <line id="Baseline-S" style="fill:none;stroke:#27AAE1;opacity:1;stroke-width:0.5;" x1="263" x2="3036" y1="696" y2="696"/>
        <line id="Capline-S" style="fill:none;stroke:#27AAE1;opacity:1;stroke-width:0.5;" x1="263" x2="3036" y1="625.541" y2="625.541"/>
        <g id="H-reference" style="fill:#27AAE1;stroke:none;" transform="matrix(1 0 0 1 339 1126)">
            <path d="M0.976562 0L3.66211 0L12.9883-24.4629L45.752-24.4629L55.127 0L57.7637 0L30.6152-70.459L28.125-70.459ZM29.3457-67.1387L29.4434-67.1387L44.873-26.709L13.8672-26.709Z"/>
        </g>
        <line id="Baseline-M" style="fill:none;stroke:#27AAE1;opacity:1;stroke-width:0.5;" x1="263" x2="3036" y1="1126" y2="1126"/>
        <line id="Capline-M" style="fill:none;stroke:#27AAE1;opacity:1;stroke-width:0.5;" x1="263" x2="3036" y1="1055.54" y2="1055.54"/>
        <g id="H-reference" style="fill:#27AAE1;stroke:none;" transform="matrix(1 0 0 1 339 1556)">
            <path d="M0.976562 0L3.66211 0L12.9883-24.4629L45.752-24.4629L55.127 0L57.7637 0L30.6152-70.459L28.125-70.459ZM29.3457-67.1387L29.4434-67.1387L44.873-26.709L13.8672-26.709Z"/>
        </g>
        <line id="Baseline-L" style="fill:none;stroke:#27AAE1;opacity:1;stroke-width:0.5;" x1="263" x2="3036" y1="1556" y2="1556"/>
        <line id="Capline-L" style="fill:none;stroke:#27AAE1;opacity:1;stroke-width:0.5;" x1="263" x2="3036" y1="1485.54" y2="1485.54"/>
        <line id="left-margin" x1="1417.3214020285482" x2="1417.3214020285482" y1="1030.79" y2="1150.12" style="fill:none;stroke:#00AEEF;stroke-width:0.5;opacity:1.0;"/>
        <line id="right-margin" x1="1484.9385979714516" x2="1484.9385979714516" y1="1030.79" y2="1150.12" style="fill:none;stroke:#00AEEF;stroke-width:0.5;opacity:1.0;"/>
    </g>
    <g id="Symbols">
        <g id="Black-L" transform="matrix(1.0,0.0,0.0,1.0,2869.1948778030437,1455.2848973342939)">  <path role="img" stroke-miterlimit="4" fill-opacity="1" stroke-width="1px" fill-rule="nonzero" stroke-linejoin="miter" stroke-linecap="butt" stroke-opacity="1" fill="#000000" stroke="none" stroke-dasharray="none" d="M63.51,0C62.702,0,62.38,3.76,62.134,15.962C61.818,31.569,61.752,32.055,59.351,37.321C57.387,41.649,50.494,51.924,48.235,53.911C46.2,55.701,41.78,62.424,39.613,67.013C35.739,75.221,36.017,86.222,39.395,94.555C42.222,101.071,46.282,106.321,52.819,111.92C57.949,116.312,59.531,116.935,60.323,114.888C60.59,114.19,59.439,111.767,57.687,109.333C55.979,106.954,53.087,101.9,51.258,98.097C43.717,82.129,47.439,68.863,56.181,54.194C61.038,46.593,63.837,39.777,64.798,33.174C65.998,24.906,65.032,-0,63.51,-0ZM59.379,6.63C58.364,6.63,58.134,8.049,58.134,14.39C58.134,18.658,57.698,23.416,57.169,24.966C55.466,29.954,50.871,34.445,38.167,43.542C28.977,50.118,21.272,58.014,18.303,63.908C9.212,81.911,17.239,103.805,36.966,114.839C45.769,119.761,53.152,121.677,53.152,119.03C53.152,118.343,52.857,117.786,52.492,117.786C52.126,117.786,49.043,115.974,45.649,113.759C30.969,104.181,24.109,92.329,25.201,78.386C26.019,67.963,29.965,61.578,45.916,44.906C59.679,30.522,60.596,28.699,60.612,15.962C60.617,8.213,60.415,6.63,59.379,6.63ZM67.608,10.079C67.046,10.172,66.844,15.018,66.833,25.921L66.811,41.889L62.751,57.234C58.222,71.095,57.545,85.245,60.868,99.39C63.913,111.407,65.212,113.786,69.42,114.981C71.291,115.516,74.276,116.918,76.056,118.102C80.072,120.776,83.668,120.476,90.872,116.836C101.349,111.543,108.383,104.711,113.066,95.264C117.131,86.271,117.737,75.019,113.437,66.069C109.617,58.353,103.166,52.132,89.655,43.166C77.856,35.329,75.373,33.234,72.465,28.693C70.708,25.948,70.451,24.742,70.784,20.813C71.002,18.259,71.472,15.476,71.832,14.625C72.383,13.321,72.208,13.163,70.729,13.632C69.311,14.079,68.874,13.779,68.437,12.071C68.105,10.734,67.826,10.041,67.608,10.079ZM71.504,35.105C71.69,35.067,72.241,35.722,72.879,36.775C73.665,38.069,78.457,42.232,83.532,46.036C99.292,57.982,112.291,69.927,105.835,90.784C103.625,97.038,100.432,102.08,95.123,107.69C92.154,110.828,88.214,113.639,86.773,113.639C86.517,113.639,88.148,111.292,90.397,108.432C97.693,99.155,101.158,88.143,100.165,77.469C99.248,67.668,91.668,55.777,79.684,45.327C74.708,40.983,71.401,36.945,71.433,35.253C71.433,35.166,71.461,35.116,71.504,35.105ZM65.562,119.647C64.426,119.614,63.941,121.551,63.941,125.764C63.941,130.894,64.039,131.156,65.807,130.905C67.455,130.676,67.701,130.086,67.919,125.999C68.094,122.654,67.815,121.077,66.92,120.329C66.391,119.892,65.938,119.658,65.562,119.647ZM59.821,121.175C59.144,121.164,58.587,121.939,58.036,123.521C57.572,124.858,56.656,126.146,56.001,126.397C54.244,127.074,54.56,129.399,56.41,129.399C57.294,129.399,58.604,128.804,59.324,128.089C61.731,125.677,62.484,123.592,61.409,122.293C60.803,121.562,60.285,121.186,59.826,121.175ZM71.139,121.519C69.436,121.519,69.611,124.847,71.428,127.161C73.114,129.3,76.383,130.255,76.383,128.602C76.383,127.227,72.154,121.519,71.139,121.519ZM71.139,121.519"/>
</g>
        <g id="Heavy-L" transform="matrix(1.0,0.0,0.0,1.0,2572.4848778030437,1455.2848973342939)">  <path stroke-width="1px" stroke-linejoin="miter" stroke-miterlimit="4" role="img" stroke="none" fill-rule="nonzero" fill-opacity="1" stroke-dasharray="none" stroke-opacity="1" stroke-linecap="butt" fill="#000000" d="M63.51,0C62.702,0,62.38,3.76,62.134,15.962C61.818,31.569,61.752,32.055,59.351,37.321C57.387,41.649,50.494,51.924,48.235,53.911C46.2,55.701,41.78,62.424,39.613,67.013C35.739,75.221,36.017,86.222,39.395,94.555C42.222,101.071,46.282,106.321,52.819,111.92C57.949,116.312,59.531,116.935,60.323,114.888C60.59,114.19,59.439,111.767,57.687,109.333C55.979,106.954,53.087,101.9,51.258,98.097C43.717,82.129,47.439,68.863,56.181,54.194C61.038,46.593,63.837,39.777,64.798,33.174C65.998,24.906,65.032,-0,63.51,-0ZM59.379,6.63C58.364,6.63,58.134,8.049,58.134,14.39C58.134,18.658,57.698,23.416,57.169,24.966C55.466,29.954,50.871,34.445,38.167,43.542C28.977,50.118,21.272,58.014,18.303,63.908C9.212,81.911,17.239,103.805,36.966,114.839C45.769,119.761,53.152,121.677,53.152,119.03C53.152,118.343,52.857,117.786,52.492,117.786C52.126,117.786,49.043,115.974,45.649,113.759C30.969,104.181,24.109,92.329,25.201,78.386C26.019,67.963,29.965,61.578,45.916,44.906C59.679,30.522,60.596,28.699,60.612,15.962C60.617,8.213,60.415,6.63,59.379,6.63ZM67.608,10.079C67.046,10.172,66.844,15.018,66.833,25.921L66.811,41.889L62.751,57.234C58.222,71.095,57.545,85.245,60.868,99.39C63.913,111.407,65.212,113.786,69.42,114.981C71.291,115.516,74.276,116.918,76.056,118.102C80.072,120.776,83.668,120.476,90.872,116.836C101.349,111.543,108.383,104.711,113.066,95.264C117.131,86.271,117.737,75.019,113.437,66.069C109.617,58.353,103.166,52.132,89.655,43.166C77.856,35.329,75.373,33.234,72.465,28.693C70.708,25.948,70.451,24.742,70.784,20.813C71.002,18.259,71.472,15.476,71.832,14.625C72.383,13.321,72.208,13.163,70.729,13.632C69.311,14.079,68.874,13.779,68.437,12.071C68.105,10.734,67.826,10.041,67.608,10.079ZM71.504,35.105C71.69,35.067,72.241,35.722,72.879,36.775C73.665,38.069,78.457,42.232,83.532,46.036C99.292,57.982,112.291,69.927,105.835,90.784C103.625,97.038,100.432,102.08,95.123,107.69C92.154,110.828,88.214,113.639,86.773,113.639C86.517,113.639,88.148,111.292,90.397,108.432C97.693,99.155,101.158,88.143,100.165,77.469C99.248,67.668,91.668,55.777,79.684,45.327C74.708,40.983,71.401,36.945,71.433,35.253C71.433,35.166,71.461,35.116,71.504,35.105ZM65.562,119.647C64.426,119.614,63.941,121.551,63.941,125.764C63.941,130.894,64.039,131.156,65.807,130.905C67.455,130.676,67.701,130.086,67.919,125.999C68.094,122.654,67.815,121.077,66.92,120.329C66.391,119.892,65.938,119.658,65.562,119.647ZM59.821,121.175C59.144,121.164,58.587,121.939,58.036,123.521C57.572,124.858,56.656,126.146,56.001,126.397C54.244,127.074,54.56,129.399,56.41,129.399C57.294,129.399,58.604,128.804,59.324,128.089C61.731,125.677,62.484,123.592,61.409,122.293C60.803,121.562,60.285,121.186,59.826,121.175ZM71.139,121.519C69.436,121.519,69.611,124.847,71.428,127.161C73.114,129.3,76.383,130.255,76.383,128.602C76.383,127.227,72.154,121.519,71.139,121.519ZM71.139,121.519"/>
</g>
        <g id="Bold-L" transform="matrix(1.0,0.0,0.0,1.0,2275.7748778030436,1455.2848973342939)">  <path stroke-miterlimit="4" fill-rule="nonzero" stroke-dasharray="none" stroke="none" stroke-opacity="1" stroke-linecap="butt" role="img" stroke-width="1px" fill="#000000" fill-opacity="1" stroke-linejoin="miter" d="M63.51,0C62.702,0,62.38,3.76,62.134,15.962C61.818,31.569,61.752,32.055,59.351,37.321C57.387,41.649,50.494,51.924,48.235,53.911C46.2,55.701,41.78,62.424,39.613,67.013C35.739,75.221,36.017,86.222,39.395,94.555C42.222,101.071,46.282,106.321,52.819,111.92C57.949,116.312,59.531,116.935,60.323,114.888C60.59,114.19,59.439,111.767,57.687,109.333C55.979,106.954,53.087,101.9,51.258,98.097C43.717,82.129,47.439,68.863,56.181,54.194C61.038,46.593,63.837,39.777,64.798,33.174C65.998,24.906,65.032,-0,63.51,-0ZM59.379,6.63C58.364,6.63,58.134,8.049,58.134,14.39C58.134,18.658,57.698,23.416,57.169,24.966C55.466,29.954,50.871,34.445,38.167,43.542C28.977,50.118,21.272,58.014,18.303,63.908C9.212,81.911,17.239,103.805,36.966,114.839C45.769,119.761,53.152,121.677,53.152,119.03C53.152,118.343,52.857,117.786,52.492,117.786C52.126,117.786,49.043,115.974,45.649,113.759C30.969,104.181,24.109,92.329,25.201,78.386C26.019,67.963,29.965,61.578,45.916,44.906C59.679,30.522,60.596,28.699,60.612,15.962C60.617,8.213,60.415,6.63,59.379,6.63ZM67.608,10.079C67.046,10.172,66.844,15.018,66.833,25.921L66.811,41.889L62.751,57.234C58.222,71.095,57.545,85.245,60.868,99.39C63.913,111.407,65.212,113.786,69.42,114.981C71.291,115.516,74.276,116.918,76.056,118.102C80.072,120.776,83.668,120.476,90.872,116.836C101.349,111.543,108.383,104.711,113.066,95.264C117.131,86.271,117.737,75.019,113.437,66.069C109.617,58.353,103.166,52.132,89.655,43.166C77.856,35.329,75.373,33.234,72.465,28.693C70.708,25.948,70.451,24.742,70.784,20.813C71.002,18.259,71.472,15.476,71.832,14.625C72.383,13.321,72.208,13.163,70.729,13.632C69.311,14.079,68.874,13.779,68.437,12.071C68.105,10.734,67.826,10.041,67.608,10.079ZM71.504,35.105C71.69,35.067,72.241,35.722,72.879,36.775C73.665,38.069,78.457,42.232,83.532,46.036C99.292,57.982,112.291,69.927,105.835,90.784C103.625,97.038,100.432,102.08,95.123,107.69C92.154,110.828,88.214,113.639,86.773,113.639C86.517,113.639,88.148,111.292,90.397,108.432C97.693,99.155,101.158,88.143,100.165,77.469C99.248,67.668,91.668,55.777,79.684,45.327C74.708,40.983,71.401,36.945,71.433,35.253C71.433,35.166,71.461,35.116,71.504,35.105ZM65.562,119.647C64.426,119.614,63.941,121.551,63.941,125.764C63.941,130.894,64.039,131.156,65.807,130.905C67.455,130.676,67.701,130.086,67.919,125.999C68.094,122.654,67.815,121.077,66.92,120.329C66.391,119.892,65.938,119.658,65.562,119.647ZM59.821,121.175C59.144,121.164,58.587,121.939,58.036,123.521C57.572,124.858,56.656,126.146,56.001,126.397C54.244,127.074,54.56,129.399,56.41,129.399C57.294,129.399,58.604,128.804,59.324,128.089C61.731,125.677,62.484,123.592,61.409,122.293C60.803,121.562,60.285,121.186,59.826,121.175ZM71.139,121.519C69.436,121.519,69.611,124.847,71.428,127.161C73.114,129.3,76.383,130.255,76.383,128.602C76.383,127.227,72.154,121.519,71.139,121.519ZM71.139,121.519"/>
</g>
        <g id="Semibold-L" transform="matrix(1.0,0.0,0.0,1.0,1979.0648778030438,1455.2848973342939)">  <path fill="#000000" stroke="none" stroke-linecap="butt" role="img" fill-opacity="1" stroke-width="1px" stroke-miterlimit="4" stroke-dasharray="none" stroke-linejoin="miter" fill-rule="nonzero" stroke-opacity="1" d="M63.51,0C62.702,0,62.38,3.76,62.134,15.962C61.818,31.569,61.752,32.055,59.351,37.321C57.387,41.649,50.494,51.924,48.235,53.911C46.2,55.701,41.78,62.424,39.613,67.013C35.739,75.221,36.017,86.222,39.395,94.555C42.222,101.071,46.282,106.321,52.819,111.92C57.949,116.312,59.531,116.935,60.323,114.888C60.59,114.19,59.439,111.767,57.687,109.333C55.979,106.954,53.087,101.9,51.258,98.097C43.717,82.129,47.439,68.863,56.181,54.194C61.038,46.593,63.837,39.777,64.798,33.174C65.998,24.906,65.032,-0,63.51,-0ZM59.379,6.63C58.364,6.63,58.134,8.049,58.134,14.39C58.134,18.658,57.698,23.416,57.169,24.966C55.466,29.954,50.871,34.445,38.167,43.542C28.977,50.118,21.272,58.014,18.303,63.908C9.212,81.911,17.239,103.805,36.966,114.839C45.769,119.761,53.152,121.677,53.152,119.03C53.152,118.343,52.857,117.786,52.492,117.786C52.126,117.786,49.043,115.974,45.649,113.759C30.969,104.181,24.109,92.329,25.201,78.386C26.019,67.963,29.965,61.578,45.916,44.906C59.679,30.522,60.596,28.699,60.612,15.962C60.617,8.213,60.415,6.63,59.379,6.63ZM67.608,10.079C67.046,10.172,66.844,15.018,66.833,25.921L66.811,41.889L62.751,57.234C58.222,71.095,57.545,85.245,60.868,99.39C63.913,111.407,65.212,113.786,69.42,114.981C71.291,115.516,74.276,116.918,76.056,118.102C80.072,120.776,83.668,120.476,90.872,116.836C101.349,111.543,108.383,104.711,113.066,95.264C117.131,86.271,117.737,75.019,113.437,66.069C109.617,58.353,103.166,52.132,89.655,43.166C77.856,35.329,75.373,33.234,72.465,28.693C70.708,25.948,70.451,24.742,70.784,20.813C71.002,18.259,71.472,15.476,71.832,14.625C72.383,13.321,72.208,13.163,70.729,13.632C69.311,14.079,68.874,13.779,68.437,12.071C68.105,10.734,67.826,10.041,67.608,10.079ZM71.504,35.105C71.69,35.067,72.241,35.722,72.879,36.775C73.665,38.069,78.457,42.232,83.532,46.036C99.292,57.982,112.291,69.927,105.835,90.784C103.625,97.038,100.432,102.08,95.123,107.69C92.154,110.828,88.214,113.639,86.773,113.639C86.517,113.639,88.148,111.292,90.397,108.432C97.693,99.155,101.158,88.143,100.165,77.469C99.248,67.668,91.668,55.777,79.684,45.327C74.708,40.983,71.401,36.945,71.433,35.253C71.433,35.166,71.461,35.116,71.504,35.105ZM65.562,119.647C64.426,119.614,63.941,121.551,63.941,125.764C63.941,130.894,64.039,131.156,65.807,130.905C67.455,130.676,67.701,130.086,67.919,125.999C68.094,122.654,67.815,121.077,66.92,120.329C66.391,119.892,65.938,119.658,65.562,119.647ZM59.821,121.175C59.144,121.164,58.587,121.939,58.036,123.521C57.572,124.858,56.656,126.146,56.001,126.397C54.244,127.074,54.56,129.399,56.41,129.399C57.294,129.399,58.604,128.804,59.324,128.089C61.731,125.677,62.484,123.592,61.409,122.293C60.803,121.562,60.285,121.186,59.826,121.175ZM71.139,121.519C69.436,121.519,69.611,124.847,71.428,127.161C73.114,129.3,76.383,130.255,76.383,128.602C76.383,127.227,72.154,121.519,71.139,121.519ZM71.139,121.519"/>
</g>
        <g id="Medium-L" transform="matrix(1.0,0.0,0.0,1.0,1682.3548778030438,1455.2848973342939)">  <path fill="#000000" stroke-dasharray="none" stroke-width="1px" stroke="none" fill-opacity="1" fill-rule="nonzero" stroke-opacity="1" role="img" stroke-linejoin="miter" stroke-linecap="butt" stroke-miterlimit="4" d="M63.51,0C62.702,0,62.38,3.76,62.134,15.962C61.818,31.569,61.752,32.055,59.351,37.321C57.387,41.649,50.494,51.924,48.235,53.911C46.2,55.701,41.78,62.424,39.613,67.013C35.739,75.221,36.017,86.222,39.395,94.555C42.222,101.071,46.282,106.321,52.819,111.92C57.949,116.312,59.531,116.935,60.323,114.888C60.59,114.19,59.439,111.767,57.687,109.333C55.979,106.954,53.087,101.9,51.258,98.097C43.717,82.129,47.439,68.863,56.181,54.194C61.038,46.593,63.837,39.777,64.798,33.174C65.998,24.906,65.032,-0,63.51,-0ZM59.379,6.63C58.364,6.63,58.134,8.049,58.134,14.39C58.134,18.658,57.698,23.416,57.169,24.966C55.466,29.954,50.871,34.445,38.167,43.542C28.977,50.118,21.272,58.014,18.303,63.908C9.212,81.911,17.239,103.805,36.966,114.839C45.769,119.761,53.152,121.677,53.152,119.03C53.152,118.343,52.857,117.786,52.492,117.786C52.126,117.786,49.043,115.974,45.649,113.759C30.969,104.181,24.109,92.329,25.201,78.386C26.019,67.963,29.965,61.578,45.916,44.906C59.679,30.522,60.596,28.699,60.612,15.962C60.617,8.213,60.415,6.63,59.379,6.63ZM67.608,10.079C67.046,10.172,66.844,15.018,66.833,25.921L66.811,41.889L62.751,57.234C58.222,71.095,57.545,85.245,60.868,99.39C63.913,111.407,65.212,113.786,69.42,114.981C71.291,115.516,74.276,116.918,76.056,118.102C80.072,120.776,83.668,120.476,90.872,116.836C101.349,111.543,108.383,104.711,113.066,95.264C117.131,86.271,117.737,75.019,113.437,66.069C109.617,58.353,103.166,52.132,89.655,43.166C77.856,35.329,75.373,33.234,72.465,28.693C70.708,25.948,70.451,24.742,70.784,20.813C71.002,18.259,71.472,15.476,71.832,14.625C72.383,13.321,72.208,13.163,70.729,13.632C69.311,14.079,68.874,13.779,68.437,12.071C68.105,10.734,67.826,10.041,67.608,10.079ZM71.504,35.105C71.69,35.067,72.241,35.722,72.879,36.775C73.665,38.069,78.457,42.232,83.532,46.036C99.292,57.982,112.291,69.927,105.835,90.784C103.625,97.038,100.432,102.08,95.123,107.69C92.154,110.828,88.214,113.639,86.773,113.639C86.517,113.639,88.148,111.292,90.397,108.432C97.693,99.155,101.158,88.143,100.165,77.469C99.248,67.668,91.668,55.777,79.684,45.327C74.708,40.983,71.401,36.945,71.433,35.253C71.433,35.166,71.461,35.116,71.504,35.105ZM65.562,119.647C64.426,119.614,63.941,121.551,63.941,125.764C63.941,130.894,64.039,131.156,65.807,130.905C67.455,130.676,67.701,130.086,67.919,125.999C68.094,122.654,67.815,121.077,66.92,120.329C66.391,119.892,65.938,119.658,65.562,119.647ZM59.821,121.175C59.144,121.164,58.587,121.939,58.036,123.521C57.572,124.858,56.656,126.146,56.001,126.397C54.244,127.074,54.56,129.399,56.41,129.399C57.294,129.399,58.604,128.804,59.324,128.089C61.731,125.677,62.484,123.592,61.409,122.293C60.803,121.562,60.285,121.186,59.826,121.175ZM71.139,121.519C69.436,121.519,69.611,124.847,71.428,127.161C73.114,129.3,76.383,130.255,76.383,128.602C76.383,127.227,72.154,121.519,71.139,121.519ZM71.139,121.519"/>
</g>
        <g id="Regular-L" transform="matrix(1.0,0.0,0.0,1.0,1385.6448778030438,1455.2848973342939)">  <path fill="#000000" stroke-linejoin="miter" stroke-dasharray="none" stroke-opacity="1" stroke-width="1px" stroke-miterlimit="4" stroke-linecap="butt" fill-rule="nonzero" fill-opacity="1" role="img" stroke="none" d="M63.51,0C62.702,0,62.38,3.76,62.134,15.962C61.818,31.569,61.752,32.055,59.351,37.321C57.387,41.649,50.494,51.924,48.235,53.911C46.2,55.701,41.78,62.424,39.613,67.013C35.739,75.221,36.017,86.222,39.395,94.555C42.222,101.071,46.282,106.321,52.819,111.92C57.949,116.312,59.531,116.935,60.323,114.888C60.59,114.19,59.439,111.767,57.687,109.333C55.979,106.954,53.087,101.9,51.258,98.097C43.717,82.129,47.439,68.863,56.181,54.194C61.038,46.593,63.837,39.777,64.798,33.174C65.998,24.906,65.032,-0,63.51,-0ZM59.379,6.63C58.364,6.63,58.134,8.049,58.134,14.39C58.134,18.658,57.698,23.416,57.169,24.966C55.466,29.954,50.871,34.445,38.167,43.542C28.977,50.118,21.272,58.014,18.303,63.908C9.212,81.911,17.239,103.805,36.966,114.839C45.769,119.761,53.152,121.677,53.152,119.03C53.152,118.343,52.857,117.786,52.492,117.786C52.126,117.786,49.043,115.974,45.649,113.759C30.969,104.181,24.109,92.329,25.201,78.386C26.019,67.963,29.965,61.578,45.916,44.906C59.679,30.522,60.596,28.699,60.612,15.962C60.617,8.213,60.415,6.63,59.379,6.63ZM67.608,10.079C67.046,10.172,66.844,15.018,66.833,25.921L66.811,41.889L62.751,57.234C58.222,71.095,57.545,85.245,60.868,99.39C63.913,111.407,65.212,113.786,69.42,114.981C71.291,115.516,74.276,116.918,76.056,118.102C80.072,120.776,83.668,120.476,90.872,116.836C101.349,111.543,108.383,104.711,113.066,95.264C117.131,86.271,117.737,75.019,113.437,66.069C109.617,58.353,103.166,52.132,89.655,43.166C77.856,35.329,75.373,33.234,72.465,28.693C70.708,25.948,70.451,24.742,70.784,20.813C71.002,18.259,71.472,15.476,71.832,14.625C72.383,13.321,72.208,13.163,70.729,13.632C69.311,14.079,68.874,13.779,68.437,12.071C68.105,10.734,67.826,10.041,67.608,10.079ZM71.504,35.105C71.69,35.067,72.241,35.722,72.879,36.775C73.665,38.069,78.457,42.232,83.532,46.036C99.292,57.982,112.291,69.927,105.835,90.784C103.625,97.038,100.432,102.08,95.123,107.69C92.154,110.828,88.214,113.639,86.773,113.639C86.517,113.639,88.148,111.292,90.397,108.432C97.693,99.155,101.158,88.143,100.165,77.469C99.248,67.668,91.668,55.777,79.684,45.327C74.708,40.983,71.401,36.945,71.433,35.253C71.433,35.166,71.461,35.116,71.504,35.105ZM65.562,119.647C64.426,119.614,63.941,121.551,63.941,125.764C63.941,130.894,64.039,131.156,65.807,130.905C67.455,130.676,67.701,130.086,67.919,125.999C68.094,122.654,67.815,121.077,66.92,120.329C66.391,119.892,65.938,119.658,65.562,119.647ZM59.821,121.175C59.144,121.164,58.587,121.939,58.036,123.521C57.572,124.858,56.656,126.146,56.001,126.397C54.244,127.074,54.56,129.399,56.41,129.399C57.294,129.399,58.604,128.804,59.324,128.089C61.731,125.677,62.484,123.592,61.409,122.293C60.803,121.562,60.285,121.186,59.826,121.175ZM71.139,121.519C69.436,121.519,69.611,124.847,71.428,127.161C73.114,129.3,76.383,130.255,76.383,128.602C76.383,127.227,72.154,121.519,71.139,121.519ZM71.139,121.519"/>
</g>
        <g id="Light-L" transform="matrix(1.0,0.0,0.0,1.0,1088.934877803044,1455.2848973342939)">  <path stroke-dasharray="none" stroke-linejoin="miter" stroke-opacity="1" stroke-miterlimit="4" stroke="none" fill-rule="nonzero" stroke-linecap="butt" stroke-width="1px" fill-opacity="1" role="img" fill="#000000" d="M63.51,0C62.702,0,62.38,3.76,62.134,15.962C61.818,31.569,61.752,32.055,59.351,37.321C57.387,41.649,50.494,51.924,48.235,53.911C46.2,55.701,41.78,62.424,39.613,67.013C35.739,75.221,36.017,86.222,39.395,94.555C42.222,101.071,46.282,106.321,52.819,111.92C57.949,116.312,59.531,116.935,60.323,114.888C60.59,114.19,59.439,111.767,57.687,109.333C55.979,106.954,53.087,101.9,51.258,98.097C43.717,82.129,47.439,68.863,56.181,54.194C61.038,46.593,63.837,39.777,64.798,33.174C65.998,24.906,65.032,-0,63.51,-0ZM59.379,6.63C58.364,6.63,58.134,8.049,58.134,14.39C58.134,18.658,57.698,23.416,57.169,24.966C55.466,29.954,50.871,34.445,38.167,43.542C28.977,50.118,21.272,58.014,18.303,63.908C9.212,81.911,17.239,103.805,36.966,114.839C45.769,119.761,53.152,121.677,53.152,119.03C53.152,118.343,52.857,117.786,52.492,117.786C52.126,117.786,49.043,115.974,45.649,113.759C30.969,104.181,24.109,92.329,25.201,78.386C26.019,67.963,29.965,61.578,45.916,44.906C59.679,30.522,60.596,28.699,60.612,15.962C60.617,8.213,60.415,6.63,59.379,6.63ZM67.608,10.079C67.046,10.172,66.844,15.018,66.833,25.921L66.811,41.889L62.751,57.234C58.222,71.095,57.545,85.245,60.868,99.39C63.913,111.407,65.212,113.786,69.42,114.981C71.291,115.516,74.276,116.918,76.056,118.102C80.072,120.776,83.668,120.476,90.872,116.836C101.349,111.543,108.383,104.711,113.066,95.264C117.131,86.271,117.737,75.019,113.437,66.069C109.617,58.353,103.166,52.132,89.655,43.166C77.856,35.329,75.373,33.234,72.465,28.693C70.708,25.948,70.451,24.742,70.784,20.813C71.002,18.259,71.472,15.476,71.832,14.625C72.383,13.321,72.208,13.163,70.729,13.632C69.311,14.079,68.874,13.779,68.437,12.071C68.105,10.734,67.826,10.041,67.608,10.079ZM71.504,35.105C71.69,35.067,72.241,35.722,72.879,36.775C73.665,38.069,78.457,42.232,83.532,46.036C99.292,57.982,112.291,69.927,105.835,90.784C103.625,97.038,100.432,102.08,95.123,107.69C92.154,110.828,88.214,113.639,86.773,113.639C86.517,113.639,88.148,111.292,90.397,108.432C97.693,99.155,101.158,88.143,100.165,77.469C99.248,67.668,91.668,55.777,79.684,45.327C74.708,40.983,71.401,36.945,71.433,35.253C71.433,35.166,71.461,35.116,71.504,35.105ZM65.562,119.647C64.426,119.614,63.941,121.551,63.941,125.764C63.941,130.894,64.039,131.156,65.807,130.905C67.455,130.676,67.701,130.086,67.919,125.999C68.094,122.654,67.815,121.077,66.92,120.329C66.391,119.892,65.938,119.658,65.562,119.647ZM59.821,121.175C59.144,121.164,58.587,121.939,58.036,123.521C57.572,124.858,56.656,126.146,56.001,126.397C54.244,127.074,54.56,129.399,56.41,129.399C57.294,129.399,58.604,128.804,59.324,128.089C61.731,125.677,62.484,123.592,61.409,122.293C60.803,121.562,60.285,121.186,59.826,121.175ZM71.139,121.519C69.436,121.519,69.611,124.847,71.428,127.161C73.114,129.3,76.383,130.255,76.383,128.602C76.383,127.227,72.154,121.519,71.139,121.519ZM71.139,121.519"/>
</g>
        <g id="Thin-L" transform="matrix(1.0,0.0,0.0,1.0,792.224877803044,1455.2848973342939)">  <path stroke="none" role="img" fill-rule="nonzero" fill="#000000" fill-opacity="1" stroke-width="1px" stroke-opacity="1" stroke-miterlimit="4" stroke-linecap="butt" stroke-linejoin="miter" stroke-dasharray="none" d="M63.51,0C62.702,0,62.38,3.76,62.134,15.962C61.818,31.569,61.752,32.055,59.351,37.321C57.387,41.649,50.494,51.924,48.235,53.911C46.2,55.701,41.78,62.424,39.613,67.013C35.739,75.221,36.017,86.222,39.395,94.555C42.222,101.071,46.282,106.321,52.819,111.92C57.949,116.312,59.531,116.935,60.323,114.888C60.59,114.19,59.439,111.767,57.687,109.333C55.979,106.954,53.087,101.9,51.258,98.097C43.717,82.129,47.439,68.863,56.181,54.194C61.038,46.593,63.837,39.777,64.798,33.174C65.998,24.906,65.032,-0,63.51,-0ZM59.379,6.63C58.364,6.63,58.134,8.049,58.134,14.39C58.134,18.658,57.698,23.416,57.169,24.966C55.466,29.954,50.871,34.445,38.167,43.542C28.977,50.118,21.272,58.014,18.303,63.908C9.212,81.911,17.239,103.805,36.966,114.839C45.769,119.761,53.152,121.677,53.152,119.03C53.152,118.343,52.857,117.786,52.492,117.786C52.126,117.786,49.043,115.974,45.649,113.759C30.969,104.181,24.109,92.329,25.201,78.386C26.019,67.963,29.965,61.578,45.916,44.906C59.679,30.522,60.596,28.699,60.612,15.962C60.617,8.213,60.415,6.63,59.379,6.63ZM67.608,10.079C67.046,10.172,66.844,15.018,66.833,25.921L66.811,41.889L62.751,57.234C58.222,71.095,57.545,85.245,60.868,99.39C63.913,111.407,65.212,113.786,69.42,114.981C71.291,115.516,74.276,116.918,76.056,118.102C80.072,120.776,83.668,120.476,90.872,116.836C101.349,111.543,108.383,104.711,113.066,95.264C117.131,86.271,117.737,75.019,113.437,66.069C109.617,58.353,103.166,52.132,89.655,43.166C77.856,35.329,75.373,33.234,72.465,28.693C70.708,25.948,70.451,24.742,70.784,20.813C71.002,18.259,71.472,15.476,71.832,14.625C72.383,13.321,72.208,13.163,70.729,13.632C69.311,14.079,68.874,13.779,68.437,12.071C68.105,10.734,67.826,10.041,67.608,10.079ZM71.504,35.105C71.69,35.067,72.241,35.722,72.879,36.775C73.665,38.069,78.457,42.232,83.532,46.036C99.292,57.982,112.291,69.927,105.835,90.784C103.625,97.038,100.432,102.08,95.123,107.69C92.154,110.828,88.214,113.639,86.773,113.639C86.517,113.639,88.148,111.292,90.397,108.432C97.693,99.155,101.158,88.143,100.165,77.469C99.248,67.668,91.668,55.777,79.684,45.327C74.708,40.983,71.401,36.945,71.433,35.253C71.433,35.166,71.461,35.116,71.504,35.105ZM65.562,119.647C64.426,119.614,63.941,121.551,63.941,125.764C63.941,130.894,64.039,131.156,65.807,130.905C67.455,130.676,67.701,130.086,67.919,125.999C68.094,122.654,67.815,121.077,66.92,120.329C66.391,119.892,65.938,119.658,65.562,119.647ZM59.821,121.175C59.144,121.164,58.587,121.939,58.036,123.521C57.572,124.858,56.656,126.146,56.001,126.397C54.244,127.074,54.56,129.399,56.41,129.399C57.294,129.399,58.604,128.804,59.324,128.089C61.731,125.677,62.484,123.592,61.409,122.293C60.803,121.562,60.285,121.186,59.826,121.175ZM71.139,121.519C69.436,121.519,69.611,124.847,71.428,127.161C73.114,129.3,76.383,130.255,76.383,128.602C76.383,127.227,72.154,121.519,71.139,121.519ZM71.139,121.519"/>
</g>
        <g id="Ultralight-L" transform="matrix(1.0,0.0,0.0,1.0,495.51487780304393,1455.2848973342939)">  <path fill-opacity="1" stroke-linecap="butt" stroke-linejoin="miter" stroke-miterlimit="4" fill-rule="nonzero" stroke="none" stroke-dasharray="none" fill="#000000" stroke-opacity="1" role="img" stroke-width="1px" d="M63.51,0C62.702,0,62.38,3.76,62.134,15.962C61.818,31.569,61.752,32.055,59.351,37.321C57.387,41.649,50.494,51.924,48.235,53.911C46.2,55.701,41.78,62.424,39.613,67.013C35.739,75.221,36.017,86.222,39.395,94.555C42.222,101.071,46.282,106.321,52.819,111.92C57.949,116.312,59.531,116.935,60.323,114.888C60.59,114.19,59.439,111.767,57.687,109.333C55.979,106.954,53.087,101.9,51.258,98.097C43.717,82.129,47.439,68.863,56.181,54.194C61.038,46.593,63.837,39.777,64.798,33.174C65.998,24.906,65.032,-0,63.51,-0ZM59.379,6.63C58.364,6.63,58.134,8.049,58.134,14.39C58.134,18.658,57.698,23.416,57.169,24.966C55.466,29.954,50.871,34.445,38.167,43.542C28.977,50.118,21.272,58.014,18.303,63.908C9.212,81.911,17.239,103.805,36.966,114.839C45.769,119.761,53.152,121.677,53.152,119.03C53.152,118.343,52.857,117.786,52.492,117.786C52.126,117.786,49.043,115.974,45.649,113.759C30.969,104.181,24.109,92.329,25.201,78.386C26.019,67.963,29.965,61.578,45.916,44.906C59.679,30.522,60.596,28.699,60.612,15.962C60.617,8.213,60.415,6.63,59.379,6.63ZM67.608,10.079C67.046,10.172,66.844,15.018,66.833,25.921L66.811,41.889L62.751,57.234C58.222,71.095,57.545,85.245,60.868,99.39C63.913,111.407,65.212,113.786,69.42,114.981C71.291,115.516,74.276,116.918,76.056,118.102C80.072,120.776,83.668,120.476,90.872,116.836C101.349,111.543,108.383,104.711,113.066,95.264C117.131,86.271,117.737,75.019,113.437,66.069C109.617,58.353,103.166,52.132,89.655,43.166C77.856,35.329,75.373,33.234,72.465,28.693C70.708,25.948,70.451,24.742,70.784,20.813C71.002,18.259,71.472,15.476,71.832,14.625C72.383,13.321,72.208,13.163,70.729,13.632C69.311,14.079,68.874,13.779,68.437,12.071C68.105,10.734,67.826,10.041,67.608,10.079ZM71.504,35.105C71.69,35.067,72.241,35.722,72.879,36.775C73.665,38.069,78.457,42.232,83.532,46.036C99.292,57.982,112.291,69.927,105.835,90.784C103.625,97.038,100.432,102.08,95.123,107.69C92.154,110.828,88.214,113.639,86.773,113.639C86.517,113.639,88.148,111.292,90.397,108.432C97.693,99.155,101.158,88.143,100.165,77.469C99.248,67.668,91.668,55.777,79.684,45.327C74.708,40.983,71.401,36.945,71.433,35.253C71.433,35.166,71.461,35.116,71.504,35.105ZM65.562,119.647C64.426,119.614,63.941,121.551,63.941,125.764C63.941,130.894,64.039,131.156,65.807,130.905C67.455,130.676,67.701,130.086,67.919,125.999C68.094,122.654,67.815,121.077,66.92,120.329C66.391,119.892,65.938,119.658,65.562,119.647ZM59.821,121.175C59.144,121.164,58.587,121.939,58.036,123.521C57.572,124.858,56.656,126.146,56.001,126.397C54.244,127.074,54.56,129.399,56.41,129.399C57.294,129.399,58.604,128.804,59.324,128.089C61.731,125.677,62.484,123.592,61.409,122.293C60.803,121.562,60.285,121.186,59.826,121.175ZM71.139,121.519C69.436,121.519,69.611,124.847,71.428,127.161C73.114,129.3,76.383,130.255,76.383,128.602C76.383,127.227,72.154,121.519,71.139,121.519ZM71.139,121.519"/>
</g>
        <g id="Black-M" transform="matrix(1.0,0.0,0.0,1.0,2883.9163393822046,1040.0063589134545)">  <path role="img" stroke-miterlimit="4" fill-opacity="1" stroke-width="1px" fill-rule="nonzero" stroke-linejoin="miter" stroke-linecap="butt" stroke-opacity="1" fill="#000000" stroke="none" stroke-dasharray="none" d="M49.232,0C48.606,0,48.357,2.915,48.166,12.374C47.921,24.472,47.87,24.849,46.009,28.931C44.486,32.286,39.143,40.251,37.392,41.791C35.814,43.179,32.387,48.39,30.708,51.948C27.704,58.311,27.92,66.839,30.539,73.298C32.73,78.349,35.877,82.419,40.945,86.759C44.922,90.165,46.148,90.647,46.762,89.061C46.969,88.519,46.076,86.641,44.719,84.754C43.394,82.91,41.152,78.992,39.735,76.044C33.889,63.666,36.774,53.382,43.551,42.011C47.316,36.118,49.486,30.835,50.231,25.716C51.161,19.307,50.413,-0,49.232,-0ZM46.03,5.14C45.243,5.14,45.065,6.24,45.065,11.155C45.065,14.463,44.727,18.152,44.317,19.354C42.997,23.22,39.435,26.702,29.587,33.754C22.463,38.851,16.49,44.972,14.188,49.541C7.141,63.497,13.364,80.469,28.656,89.023C35.48,92.838,41.203,94.323,41.203,92.271C41.203,91.738,40.975,91.307,40.691,91.307C40.408,91.307,38.018,89.902,35.386,88.185C24.007,80.761,18.689,71.573,19.536,60.764C20.17,52.684,23.229,47.735,35.594,34.811C46.263,23.66,46.973,22.247,46.986,12.374C46.99,6.367,46.834,5.14,46.03,5.14ZM52.409,7.813C51.974,7.885,51.817,11.642,51.809,20.094L51.792,32.472L48.644,44.367C45.133,55.112,44.609,66.082,47.185,77.047C49.545,86.362,50.552,88.206,53.814,89.133C55.265,89.547,57.579,90.634,58.958,91.552C62.071,93.625,64.859,93.392,70.443,90.571C78.565,86.467,84.018,81.171,87.648,73.848C90.799,66.877,91.269,58.154,87.935,51.216C84.974,45.235,79.974,40.412,69.5,33.462C60.354,27.387,58.429,25.763,56.174,22.243C54.812,20.115,54.613,19.18,54.871,16.134C55.04,14.155,55.404,11.997,55.684,11.337C56.111,10.326,55.975,10.203,54.829,10.567C53.729,10.914,53.391,10.682,53.052,9.357C52.794,8.321,52.578,7.784,52.409,7.813ZM55.43,27.214C55.574,27.184,56.001,27.692,56.496,28.508C57.105,29.511,60.819,32.738,64.753,35.687C76.97,44.947,87.047,54.207,82.043,70.375C80.329,75.223,77.855,79.132,73.738,83.481C71.437,85.913,68.383,88.092,67.266,88.092C67.067,88.092,68.332,86.273,70.075,84.056C75.731,76.865,78.417,68.328,77.647,60.053C76.937,52.456,71.061,43.238,61.771,35.137C57.913,31.77,55.349,28.639,55.375,27.328C55.375,27.26,55.396,27.222,55.43,27.214ZM50.823,92.749C49.943,92.724,49.566,94.226,49.566,97.492C49.566,101.468,49.643,101.671,51.013,101.477C52.291,101.299,52.481,100.842,52.65,97.674C52.786,95.08,52.57,93.858,51.876,93.278C51.466,92.94,51.115,92.758,50.823,92.749ZM46.373,93.934C45.848,93.925,45.417,94.526,44.989,95.753C44.63,96.789,43.919,97.788,43.411,97.982C42.049,98.507,42.295,100.309,43.729,100.309C44.414,100.309,45.429,99.848,45.988,99.294C47.853,97.424,48.437,95.808,47.604,94.801C47.134,94.234,46.732,93.942,46.377,93.934ZM55.146,94.2C53.826,94.2,53.962,96.781,55.37,98.575C56.678,100.233,59.212,100.973,59.212,99.691C59.212,98.625,55.933,94.2,55.146,94.2ZM55.146,94.2"/>
</g>
        <g id="Heavy-M" transform="matrix(1.0,0.0,0.0,1.0,2587.2063393822045,1040.0063589134545)">  <path stroke-width="1px" stroke-linejoin="miter" stroke-miterlimit="4" role="img" stroke="none" fill-rule="nonzero" fill-opacity="1" stroke-dasharray="none" stroke-opacity="1" stroke-linecap="butt" fill="#000000" d="M49.232,0C48.606,0,48.357,2.915,48.166,12.374C47.921,24.472,47.87,24.849,46.009,28.931C44.486,32.286,39.143,40.251,37.392,41.791C35.814,43.179,32.387,48.39,30.708,51.948C27.704,58.311,27.92,66.839,30.539,73.298C32.73,78.349,35.877,82.419,40.945,86.759C44.922,90.165,46.148,90.647,46.762,89.061C46.969,88.519,46.076,86.641,44.719,84.754C43.394,82.91,41.152,78.992,39.735,76.044C33.889,63.666,36.774,53.382,43.551,42.011C47.316,36.118,49.486,30.835,50.231,25.716C51.161,19.307,50.413,-0,49.232,-0ZM46.03,5.14C45.243,5.14,45.065,6.24,45.065,11.155C45.065,14.463,44.727,18.152,44.317,19.354C42.997,23.22,39.435,26.702,29.587,33.754C22.463,38.851,16.49,44.972,14.188,49.541C7.141,63.497,13.364,80.469,28.656,89.023C35.48,92.838,41.203,94.323,41.203,92.271C41.203,91.738,40.975,91.307,40.691,91.307C40.408,91.307,38.018,89.902,35.386,88.185C24.007,80.761,18.689,71.573,19.536,60.764C20.17,52.684,23.229,47.735,35.594,34.811C46.263,23.66,46.973,22.247,46.986,12.374C46.99,6.367,46.834,5.14,46.03,5.14ZM52.409,7.813C51.974,7.885,51.817,11.642,51.809,20.094L51.792,32.472L48.644,44.367C45.133,55.112,44.609,66.082,47.185,77.047C49.545,86.362,50.552,88.206,53.814,89.133C55.265,89.547,57.579,90.634,58.958,91.552C62.071,93.625,64.859,93.392,70.443,90.571C78.565,86.467,84.018,81.171,87.648,73.848C90.799,66.877,91.269,58.154,87.935,51.216C84.974,45.235,79.974,40.412,69.5,33.462C60.354,27.387,58.429,25.763,56.174,22.243C54.812,20.115,54.613,19.18,54.871,16.134C55.04,14.155,55.404,11.997,55.684,11.337C56.111,10.326,55.975,10.203,54.829,10.567C53.729,10.914,53.391,10.682,53.052,9.357C52.794,8.321,52.578,7.784,52.409,7.813ZM55.43,27.214C55.574,27.184,56.001,27.692,56.496,28.508C57.105,29.511,60.819,32.738,64.753,35.687C76.97,44.947,87.047,54.207,82.043,70.375C80.329,75.223,77.855,79.132,73.738,83.481C71.437,85.913,68.383,88.092,67.266,88.092C67.067,88.092,68.332,86.273,70.075,84.056C75.731,76.865,78.417,68.328,77.647,60.053C76.937,52.456,71.061,43.238,61.771,35.137C57.913,31.77,55.349,28.639,55.375,27.328C55.375,27.26,55.396,27.222,55.43,27.214ZM50.823,92.749C49.943,92.724,49.566,94.226,49.566,97.492C49.566,101.468,49.643,101.671,51.013,101.477C52.291,101.299,52.481,100.842,52.65,97.674C52.786,95.08,52.57,93.858,51.876,93.278C51.466,92.94,51.115,92.758,50.823,92.749ZM46.373,93.934C45.848,93.925,45.417,94.526,44.989,95.753C44.63,96.789,43.919,97.788,43.411,97.982C42.049,98.507,42.295,100.309,43.729,100.309C44.414,100.309,45.429,99.848,45.988,99.294C47.853,97.424,48.437,95.808,47.604,94.801C47.134,94.234,46.732,93.942,46.377,93.934ZM55.146,94.2C53.826,94.2,53.962,96.781,55.37,98.575C56.678,100.233,59.212,100.973,59.212,99.691C59.212,98.625,55.933,94.2,55.146,94.2ZM55.146,94.2"/>
</g>
        <g id="Bold-M" transform="matrix(1.0,0.0,0.0,1.0,2290.4963393822045,1040.0063589134545)">  <path stroke-miterlimit="4" fill-rule="nonzero" stroke-dasharray="none" stroke="none" stroke-opacity="1" stroke-linecap="butt" role="img" stroke-width="1px" fill="#000000" fill-opacity="1" stroke-linejoin="miter" d="M49.232,0C48.606,0,48.357,2.915,48.166,12.374C47.921,24.472,47.87,24.849,46.009,28.931C44.486,32.286,39.143,40.251,37.392,41.791C35.814,43.179,32.387,48.39,30.708,51.948C27.704,58.311,27.92,66.839,30.539,73.298C32.73,78.349,35.877,82.419,40.945,86.759C44.922,90.165,46.148,90.647,46.762,89.061C46.969,88.519,46.076,86.641,44.719,84.754C43.394,82.91,41.152,78.992,39.735,76.044C33.889,63.666,36.774,53.382,43.551,42.011C47.316,36.118,49.486,30.835,50.231,25.716C51.161,19.307,50.413,-0,49.232,-0ZM46.03,5.14C45.243,5.14,45.065,6.24,45.065,11.155C45.065,14.463,44.727,18.152,44.317,19.354C42.997,23.22,39.435,26.702,29.587,33.754C22.463,38.851,16.49,44.972,14.188,49.541C7.141,63.497,13.364,80.469,28.656,89.023C35.48,92.838,41.203,94.323,41.203,92.271C41.203,91.738,40.975,91.307,40.691,91.307C40.408,91.307,38.018,89.902,35.386,88.185C24.007,80.761,18.689,71.573,19.536,60.764C20.17,52.684,23.229,47.735,35.594,34.811C46.263,23.66,46.973,22.247,46.986,12.374C46.99,6.367,46.834,5.14,46.03,5.14ZM52.409,7.813C51.974,7.885,51.817,11.642,51.809,20.094L51.792,32.472L48.644,44.367C45.133,55.112,44.609,66.082,47.185,77.047C49.545,86.362,50.552,88.206,53.814,89.133C55.265,89.547,57.579,90.634,58.958,91.552C62.071,93.625,64.859,93.392,70.443,90.571C78.565,86.467,84.018,81.171,87.648,73.848C90.799,66.877,91.269,58.154,87.935,51.216C84.974,45.235,79.974,40.412,69.5,33.462C60.354,27.387,58.429,25.763,56.174,22.243C54.812,20.115,54.613,19.18,54.871,16.134C55.04,14.155,55.404,11.997,55.684,11.337C56.111,10.326,55.975,10.203,54.829,10.567C53.729,10.914,53.391,10.682,53.052,9.357C52.794,8.321,52.578,7.784,52.409,7.813ZM55.43,27.214C55.574,27.184,56.001,27.692,56.496,28.508C57.105,29.511,60.819,32.738,64.753,35.687C76.97,44.947,87.047,54.207,82.043,70.375C80.329,75.223,77.855,79.132,73.738,83.481C71.437,85.913,68.383,88.092,67.266,88.092C67.067,88.092,68.332,86.273,70.075,84.056C75.731,76.865,78.417,68.328,77.647,60.053C76.937,52.456,71.061,43.238,61.771,35.137C57.913,31.77,55.349,28.639,55.375,27.328C55.375,27.26,55.396,27.222,55.43,27.214ZM50.823,92.749C49.943,92.724,49.566,94.226,49.566,97.492C49.566,101.468,49.643,101.671,51.013,101.477C52.291,101.299,52.481,100.842,52.65,97.674C52.786,95.08,52.57,93.858,51.876,93.278C51.466,92.94,51.115,92.758,50.823,92.749ZM46.373,93.934C45.848,93.925,45.417,94.526,44.989,95.753C44.63,96.789,43.919,97.788,43.411,97.982C42.049,98.507,42.295,100.309,43.729,100.309C44.414,100.309,45.429,99.848,45.988,99.294C47.853,97.424,48.437,95.808,47.604,94.801C47.134,94.234,46.732,93.942,46.377,93.934ZM55.146,94.2C53.826,94.2,53.962,96.781,55.37,98.575C56.678,100.233,59.212,100.973,59.212,99.691C59.212,98.625,55.933,94.2,55.146,94.2ZM55.146,94.2"/>
</g>
        <g id="Semibold-M" transform="matrix(1.0,0.0,0.0,1.0,1993.7863393822045,1040.0063589134545)">  <path fill="#000000" stroke="none" stroke-linecap="butt" role="img" fill-opacity="1" stroke-width="1px" stroke-miterlimit="4" stroke-dasharray="none" stroke-linejoin="miter" fill-rule="nonzero" stroke-opacity="1" d="M49.232,0C48.606,0,48.357,2.915,48.166,12.374C47.921,24.472,47.87,24.849,46.009,28.931C44.486,32.286,39.143,40.251,37.392,41.791C35.814,43.179,32.387,48.39,30.708,51.948C27.704,58.311,27.92,66.839,30.539,73.298C32.73,78.349,35.877,82.419,40.945,86.759C44.922,90.165,46.148,90.647,46.762,89.061C46.969,88.519,46.076,86.641,44.719,84.754C43.394,82.91,41.152,78.992,39.735,76.044C33.889,63.666,36.774,53.382,43.551,42.011C47.316,36.118,49.486,30.835,50.231,25.716C51.161,19.307,50.413,-0,49.232,-0ZM46.03,5.14C45.243,5.14,45.065,6.24,45.065,11.155C45.065,14.463,44.727,18.152,44.317,19.354C42.997,23.22,39.435,26.702,29.587,33.754C22.463,38.851,16.49,44.972,14.188,49.541C7.141,63.497,13.364,80.469,28.656,89.023C35.48,92.838,41.203,94.323,41.203,92.271C41.203,91.738,40.975,91.307,40.691,91.307C40.408,91.307,38.018,89.902,35.386,88.185C24.007,80.761,18.689,71.573,19.536,60.764C20.17,52.684,23.229,47.735,35.594,34.811C46.263,23.66,46.973,22.247,46.986,12.374C46.99,6.367,46.834,5.14,46.03,5.14ZM52.409,7.813C51.974,7.885,51.817,11.642,51.809,20.094L51.792,32.472L48.644,44.367C45.133,55.112,44.609,66.082,47.185,77.047C49.545,86.362,50.552,88.206,53.814,89.133C55.265,89.547,57.579,90.634,58.958,91.552C62.071,93.625,64.859,93.392,70.443,90.571C78.565,86.467,84.018,81.171,87.648,73.848C90.799,66.877,91.269,58.154,87.935,51.216C84.974,45.235,79.974,40.412,69.5,33.462C60.354,27.387,58.429,25.763,56.174,22.243C54.812,20.115,54.613,19.18,54.871,16.134C55.04,14.155,55.404,11.997,55.684,11.337C56.111,10.326,55.975,10.203,54.829,10.567C53.729,10.914,53.391,10.682,53.052,9.357C52.794,8.321,52.578,7.784,52.409,7.813ZM55.43,27.214C55.574,27.184,56.001,27.692,56.496,28.508C57.105,29.511,60.819,32.738,64.753,35.687C76.97,44.947,87.047,54.207,82.043,70.375C80.329,75.223,77.855,79.132,73.738,83.481C71.437,85.913,68.383,88.092,67.266,88.092C67.067,88.092,68.332,86.273,70.075,84.056C75.731,76.865,78.417,68.328,77.647,60.053C76.937,52.456,71.061,43.238,61.771,35.137C57.913,31.77,55.349,28.639,55.375,27.328C55.375,27.26,55.396,27.222,55.43,27.214ZM50.823,92.749C49.943,92.724,49.566,94.226,49.566,97.492C49.566,101.468,49.643,101.671,51.013,101.477C52.291,101.299,52.481,100.842,52.65,97.674C52.786,95.08,52.57,93.858,51.876,93.278C51.466,92.94,51.115,92.758,50.823,92.749ZM46.373,93.934C45.848,93.925,45.417,94.526,44.989,95.753C44.63,96.789,43.919,97.788,43.411,97.982C42.049,98.507,42.295,100.309,43.729,100.309C44.414,100.309,45.429,99.848,45.988,99.294C47.853,97.424,48.437,95.808,47.604,94.801C47.134,94.234,46.732,93.942,46.377,93.934ZM55.146,94.2C53.826,94.2,53.962,96.781,55.37,98.575C56.678,100.233,59.212,100.973,59.212,99.691C59.212,98.625,55.933,94.2,55.146,94.2ZM55.146,94.2"/>
</g>
        <g id="Medium-M" transform="matrix(1.0,0.0,0.0,1.0,1697.0763393822044,1040.0063589134545)">  <path fill="#000000" stroke-dasharray="none" stroke-width="1px" stroke="none" fill-opacity="1" fill-rule="nonzero" stroke-opacity="1" role="img" stroke-linejoin="miter" stroke-linecap="butt" stroke-miterlimit="4" d="M49.232,0C48.606,0,48.357,2.915,48.166,12.374C47.921,24.472,47.87,24.849,46.009,28.931C44.486,32.286,39.143,40.251,37.392,41.791C35.814,43.179,32.387,48.39,30.708,51.948C27.704,58.311,27.92,66.839,30.539,73.298C32.73,78.349,35.877,82.419,40.945,86.759C44.922,90.165,46.148,90.647,46.762,89.061C46.969,88.519,46.076,86.641,44.719,84.754C43.394,82.91,41.152,78.992,39.735,76.044C33.889,63.666,36.774,53.382,43.551,42.011C47.316,36.118,49.486,30.835,50.231,25.716C51.161,19.307,50.413,-0,49.232,-0ZM46.03,5.14C45.243,5.14,45.065,6.24,45.065,11.155C45.065,14.463,44.727,18.152,44.317,19.354C42.997,23.22,39.435,26.702,29.587,33.754C22.463,38.851,16.49,44.972,14.188,49.541C7.141,63.497,13.364,80.469,28.656,89.023C35.48,92.838,41.203,94.323,41.203,92.271C41.203,91.738,40.975,91.307,40.691,91.307C40.408,91.307,38.018,89.902,35.386,88.185C24.007,80.761,18.689,71.573,19.536,60.764C20.17,52.684,23.229,47.735,35.594,34.811C46.263,23.66,46.973,22.247,46.986,12.374C46.99,6.367,46.834,5.14,46.03,5.14ZM52.409,7.813C51.974,7.885,51.817,11.642,51.809,20.094L51.792,32.472L48.644,44.367C45.133,55.112,44.609,66.082,47.185,77.047C49.545,86.362,50.552,88.206,53.814,89.133C55.265,89.547,57.579,90.634,58.958,91.552C62.071,93.625,64.859,93.392,70.443,90.571C78.565,86.467,84.018,81.171,87.648,73.848C90.799,66.877,91.269,58.154,87.935,51.216C84.974,45.235,79.974,40.412,69.5,33.462C60.354,27.387,58.429,25.763,56.174,22.243C54.812,20.115,54.613,19.18,54.871,16.134C55.04,14.155,55.404,11.997,55.684,11.337C56.111,10.326,55.975,10.203,54.829,10.567C53.729,10.914,53.391,10.682,53.052,9.357C52.794,8.321,52.578,7.784,52.409,7.813ZM55.43,27.214C55.574,27.184,56.001,27.692,56.496,28.508C57.105,29.511,60.819,32.738,64.753,35.687C76.97,44.947,87.047,54.207,82.043,70.375C80.329,75.223,77.855,79.132,73.738,83.481C71.437,85.913,68.383,88.092,67.266,88.092C67.067,88.092,68.332,86.273,70.075,84.056C75.731,76.865,78.417,68.328,77.647,60.053C76.937,52.456,71.061,43.238,61.771,35.137C57.913,31.77,55.349,28.639,55.375,27.328C55.375,27.26,55.396,27.222,55.43,27.214ZM50.823,92.749C49.943,92.724,49.566,94.226,49.566,97.492C49.566,101.468,49.643,101.671,51.013,101.477C52.291,101.299,52.481,100.842,52.65,97.674C52.786,95.08,52.57,93.858,51.876,93.278C51.466,92.94,51.115,92.758,50.823,92.749ZM46.373,93.934C45.848,93.925,45.417,94.526,44.989,95.753C44.63,96.789,43.919,97.788,43.411,97.982C42.049,98.507,42.295,100.309,43.729,100.309C44.414,100.309,45.429,99.848,45.988,99.294C47.853,97.424,48.437,95.808,47.604,94.801C47.134,94.234,46.732,93.942,46.377,93.934ZM55.146,94.2C53.826,94.2,53.962,96.781,55.37,98.575C56.678,100.233,59.212,100.973,59.212,99.691C59.212,98.625,55.933,94.2,55.146,94.2ZM55.146,94.2"/>
</g>
        <g id="Regular-M" transform="matrix(1.0,0.0,0.0,1.0,1400.3663393822044,1040.0063589134545)">  <path fill="#000000" stroke-linejoin="miter" stroke-dasharray="none" stroke-opacity="1" stroke-width="1px" stroke-miterlimit="4" stroke-linecap="butt" fill-rule="nonzero" fill-opacity="1" role="img" stroke="none" d="M49.232,0C48.606,0,48.357,2.915,48.166,12.374C47.921,24.472,47.87,24.849,46.009,28.931C44.486,32.286,39.143,40.251,37.392,41.791C35.814,43.179,32.387,48.39,30.708,51.948C27.704,58.311,27.92,66.839,30.539,73.298C32.73,78.349,35.877,82.419,40.945,86.759C44.922,90.165,46.148,90.647,46.762,89.061C46.969,88.519,46.076,86.641,44.719,84.754C43.394,82.91,41.152,78.992,39.735,76.044C33.889,63.666,36.774,53.382,43.551,42.011C47.316,36.118,49.486,30.835,50.231,25.716C51.161,19.307,50.413,-0,49.232,-0ZM46.03,5.14C45.243,5.14,45.065,6.24,45.065,11.155C45.065,14.463,44.727,18.152,44.317,19.354C42.997,23.22,39.435,26.702,29.587,33.754C22.463,38.851,16.49,44.972,14.188,49.541C7.141,63.497,13.364,80.469,28.656,89.023C35.48,92.838,41.203,94.323,41.203,92.271C41.203,91.738,40.975,91.307,40.691,91.307C40.408,91.307,38.018,89.902,35.386,88.185C24.007,80.761,18.689,71.573,19.536,60.764C20.17,52.684,23.229,47.735,35.594,34.811C46.263,23.66,46.973,22.247,46.986,12.374C46.99,6.367,46.834,5.14,46.03,5.14ZM52.409,7.813C51.974,7.885,51.817,11.642,51.809,20.094L51.792,32.472L48.644,44.367C45.133,55.112,44.609,66.082,47.185,77.047C49.545,86.362,50.552,88.206,53.814,89.133C55.265,89.547,57.579,90.634,58.958,91.552C62.071,93.625,64.859,93.392,70.443,90.571C78.565,86.467,84.018,81.171,87.648,73.848C90.799,66.877,91.269,58.154,87.935,51.216C84.974,45.235,79.974,40.412,69.5,33.462C60.354,27.387,58.429,25.763,56.174,22.243C54.812,20.115,54.613,19.18,54.871,16.134C55.04,14.155,55.404,11.997,55.684,11.337C56.111,10.326,55.975,10.203,54.829,10.567C53.729,10.914,53.391,10.682,53.052,9.357C52.794,8.321,52.578,7.784,52.409,7.813ZM55.43,27.214C55.574,27.184,56.001,27.692,56.496,28.508C57.105,29.511,60.819,32.738,64.753,35.687C76.97,44.947,87.047,54.207,82.043,70.375C80.329,75.223,77.855,79.132,73.738,83.481C71.437,85.913,68.383,88.092,67.266,88.092C67.067,88.092,68.332,86.273,70.075,84.056C75.731,76.865,78.417,68.328,77.647,60.053C76.937,52.456,71.061,43.238,61.771,35.137C57.913,31.77,55.349,28.639,55.375,27.328C55.375,27.26,55.396,27.222,55.43,27.214ZM50.823,92.749C49.943,92.724,49.566,94.226,49.566,97.492C49.566,101.468,49.643,101.671,51.013,101.477C52.291,101.299,52.481,100.842,52.65,97.674C52.786,95.08,52.57,93.858,51.876,93.278C51.466,92.94,51.115,92.758,50.823,92.749ZM46.373,93.934C45.848,93.925,45.417,94.526,44.989,95.753C44.63,96.789,43.919,97.788,43.411,97.982C42.049,98.507,42.295,100.309,43.729,100.309C44.414,100.309,45.429,99.848,45.988,99.294C47.853,97.424,48.437,95.808,47.604,94.801C47.134,94.234,46.732,93.942,46.377,93.934ZM55.146,94.2C53.826,94.2,53.962,96.781,55.37,98.575C56.678,100.233,59.212,100.973,59.212,99.691C59.212,98.625,55.933,94.2,55.146,94.2ZM55.146,94.2"/>
</g>
        <g id="Light-M" transform="matrix(1.0,0.0,0.0,1.0,1103.6563393822046,1040.0063589134545)">  <path stroke-dasharray="none" stroke-linejoin="miter" stroke-opacity="1" stroke-miterlimit="4" stroke="none" fill-rule="nonzero" stroke-linecap="butt" stroke-width="1px" fill-opacity="1" role="img" fill="#000000" d="M49.232,0C48.606,0,48.357,2.915,48.166,12.374C47.921,24.472,47.87,24.849,46.009,28.931C44.486,32.286,39.143,40.251,37.392,41.791C35.814,43.179,32.387,48.39,30.708,51.948C27.704,58.311,27.92,66.839,30.539,73.298C32.73,78.349,35.877,82.419,40.945,86.759C44.922,90.165,46.148,90.647,46.762,89.061C46.969,88.519,46.076,86.641,44.719,84.754C43.394,82.91,41.152,78.992,39.735,76.044C33.889,63.666,36.774,53.382,43.551,42.011C47.316,36.118,49.486,30.835,50.231,25.716C51.161,19.307,50.413,-0,49.232,-0ZM46.03,5.14C45.243,5.14,45.065,6.24,45.065,11.155C45.065,14.463,44.727,18.152,44.317,19.354C42.997,23.22,39.435,26.702,29.587,33.754C22.463,38.851,16.49,44.972,14.188,49.541C7.141,63.497,13.364,80.469,28.656,89.023C35.48,92.838,41.203,94.323,41.203,92.271C41.203,91.738,40.975,91.307,40.691,91.307C40.408,91.307,38.018,89.902,35.386,88.185C24.007,80.761,18.689,71.573,19.536,60.764C20.17,52.684,23.229,47.735,35.594,34.811C46.263,23.66,46.973,22.247,46.986,12.374C46.99,6.367,46.834,5.14,46.03,5.14ZM52.409,7.813C51.974,7.885,51.817,11.642,51.809,20.094L51.792,32.472L48.644,44.367C45.133,55.112,44.609,66.082,47.185,77.047C49.545,86.362,50.552,88.206,53.814,89.133C55.265,89.547,57.579,90.634,58.958,91.552C62.071,93.625,64.859,93.392,70.443,90.571C78.565,86.467,84.018,81.171,87.648,73.848C90.799,66.877,91.269,58.154,87.935,51.216C84.974,45.235,79.974,40.412,69.5,33.462C60.354,27.387,58.429,25.763,56.174,22.243C54.812,20.115,54.613,19.18,54.871,16.134C55.04,14.155,55.404,11.997,55.684,11.337C56.111,10.326,55.975,10.203,54.829,10.567C53.729,10.914,53.391,10.682,53.052,9.357C52.794,8.321,52.578,7.784,52.409,7.813ZM55.43,27.214C55.574,27.184,56.001,27.692,56.496,28.508C57.105,29.511,60.819,32.738,64.753,35.687C76.97,44.947,87.047,54.207,82.043,70.375C80.329,75.223,77.855,79.132,73.738,83.481C71.437,85.913,68.383,88.092,67.266,88.092C67.067,88.092,68.332,86.273,70.075,84.056C75.731,76.865,78.417,68.328,77.647,60.053C76.937,52.456,71.061,43.238,61.771,35.137C57.913,31.77,55.349,28.639,55.375,27.328C55.375,27.26,55.396,27.222,55.43,27.214ZM50.823,92.749C49.943,92.724,49.566,94.226,49.566,97.492C49.566,101.468,49.643,101.671,51.013,101.477C52.291,101.299,52.481,100.842,52.65,97.674C52.786,95.08,52.57,93.858,51.876,93.278C51.466,92.94,51.115,92.758,50.823,92.749ZM46.373,93.934C45.848,93.925,45.417,94.526,44.989,95.753C44.63,96.789,43.919,97.788,43.411,97.982C42.049,98.507,42.295,100.309,43.729,100.309C44.414,100.309,45.429,99.848,45.988,99.294C47.853,97.424,48.437,95.808,47.604,94.801C47.134,94.234,46.732,93.942,46.377,93.934ZM55.146,94.2C53.826,94.2,53.962,96.781,55.37,98.575C56.678,100.233,59.212,100.973,59.212,99.691C59.212,98.625,55.933,94.2,55.146,94.2ZM55.146,94.2"/>
</g>
        <g id="Thin-M" transform="matrix(1.0,0.0,0.0,1.0,806.9463393822047,1040.0063589134545)">  <path stroke="none" role="img" fill-rule="nonzero" fill="#000000" fill-opacity="1" stroke-width="1px" stroke-opacity="1" stroke-miterlimit="4" stroke-linecap="butt" stroke-linejoin="miter" stroke-dasharray="none" d="M49.232,0C48.606,0,48.357,2.915,48.166,12.374C47.921,24.472,47.87,24.849,46.009,28.931C44.486,32.286,39.143,40.251,37.392,41.791C35.814,43.179,32.387,48.39,30.708,51.948C27.704,58.311,27.92,66.839,30.539,73.298C32.73,78.349,35.877,82.419,40.945,86.759C44.922,90.165,46.148,90.647,46.762,89.061C46.969,88.519,46.076,86.641,44.719,84.754C43.394,82.91,41.152,78.992,39.735,76.044C33.889,63.666,36.774,53.382,43.551,42.011C47.316,36.118,49.486,30.835,50.231,25.716C51.161,19.307,50.413,-0,49.232,-0ZM46.03,5.14C45.243,5.14,45.065,6.24,45.065,11.155C45.065,14.463,44.727,18.152,44.317,19.354C42.997,23.22,39.435,26.702,29.587,33.754C22.463,38.851,16.49,44.972,14.188,49.541C7.141,63.497,13.364,80.469,28.656,89.023C35.48,92.838,41.203,94.323,41.203,92.271C41.203,91.738,40.975,91.307,40.691,91.307C40.408,91.307,38.018,89.902,35.386,88.185C24.007,80.761,18.689,71.573,19.536,60.764C20.17,52.684,23.229,47.735,35.594,34.811C46.263,23.66,46.973,22.247,46.986,12.374C46.99,6.367,46.834,5.14,46.03,5.14ZM52.409,7.813C51.974,7.885,51.817,11.642,51.809,20.094L51.792,32.472L48.644,44.367C45.133,55.112,44.609,66.082,47.185,77.047C49.545,86.362,50.552,88.206,53.814,89.133C55.265,89.547,57.579,90.634,58.958,91.552C62.071,93.625,64.859,93.392,70.443,90.571C78.565,86.467,84.018,81.171,87.648,73.848C90.799,66.877,91.269,58.154,87.935,51.216C84.974,45.235,79.974,40.412,69.5,33.462C60.354,27.387,58.429,25.763,56.174,22.243C54.812,20.115,54.613,19.18,54.871,16.134C55.04,14.155,55.404,11.997,55.684,11.337C56.111,10.326,55.975,10.203,54.829,10.567C53.729,10.914,53.391,10.682,53.052,9.357C52.794,8.321,52.578,7.784,52.409,7.813ZM55.43,27.214C55.574,27.184,56.001,27.692,56.496,28.508C57.105,29.511,60.819,32.738,64.753,35.687C76.97,44.947,87.047,54.207,82.043,70.375C80.329,75.223,77.855,79.132,73.738,83.481C71.437,85.913,68.383,88.092,67.266,88.092C67.067,88.092,68.332,86.273,70.075,84.056C75.731,76.865,78.417,68.328,77.647,60.053C76.937,52.456,71.061,43.238,61.771,35.137C57.913,31.77,55.349,28.639,55.375,27.328C55.375,27.26,55.396,27.222,55.43,27.214ZM50.823,92.749C49.943,92.724,49.566,94.226,49.566,97.492C49.566,101.468,49.643,101.671,51.013,101.477C52.291,101.299,52.481,100.842,52.65,97.674C52.786,95.08,52.57,93.858,51.876,93.278C51.466,92.94,51.115,92.758,50.823,92.749ZM46.373,93.934C45.848,93.925,45.417,94.526,44.989,95.753C44.63,96.789,43.919,97.788,43.411,97.982C42.049,98.507,42.295,100.309,43.729,100.309C44.414,100.309,45.429,99.848,45.988,99.294C47.853,97.424,48.437,95.808,47.604,94.801C47.134,94.234,46.732,93.942,46.377,93.934ZM55.146,94.2C53.826,94.2,53.962,96.781,55.37,98.575C56.678,100.233,59.212,100.973,59.212,99.691C59.212,98.625,55.933,94.2,55.146,94.2ZM55.146,94.2"/>
</g>
        <g id="Ultralight-M" transform="matrix(1.0,0.0,0.0,1.0,510.2363393822046,1040.0063589134545)">  <path fill-opacity="1" stroke-linecap="butt" stroke-linejoin="miter" stroke-miterlimit="4" fill-rule="nonzero" stroke="none" stroke-dasharray="none" fill="#000000" stroke-opacity="1" role="img" stroke-width="1px" d="M49.232,0C48.606,0,48.357,2.915,48.166,12.374C47.921,24.472,47.87,24.849,46.009,28.931C44.486,32.286,39.143,40.251,37.392,41.791C35.814,43.179,32.387,48.39,30.708,51.948C27.704,58.311,27.92,66.839,30.539,73.298C32.73,78.349,35.877,82.419,40.945,86.759C44.922,90.165,46.148,90.647,46.762,89.061C46.969,88.519,46.076,86.641,44.719,84.754C43.394,82.91,41.152,78.992,39.735,76.044C33.889,63.666,36.774,53.382,43.551,42.011C47.316,36.118,49.486,30.835,50.231,25.716C51.161,19.307,50.413,-0,49.232,-0ZM46.03,5.14C45.243,5.14,45.065,6.24,45.065,11.155C45.065,14.463,44.727,18.152,44.317,19.354C42.997,23.22,39.435,26.702,29.587,33.754C22.463,38.851,16.49,44.972,14.188,49.541C7.141,63.497,13.364,80.469,28.656,89.023C35.48,92.838,41.203,94.323,41.203,92.271C41.203,91.738,40.975,91.307,40.691,91.307C40.408,91.307,38.018,89.902,35.386,88.185C24.007,80.761,18.689,71.573,19.536,60.764C20.17,52.684,23.229,47.735,35.594,34.811C46.263,23.66,46.973,22.247,46.986,12.374C46.99,6.367,46.834,5.14,46.03,5.14ZM52.409,7.813C51.974,7.885,51.817,11.642,51.809,20.094L51.792,32.472L48.644,44.367C45.133,55.112,44.609,66.082,47.185,77.047C49.545,86.362,50.552,88.206,53.814,89.133C55.265,89.547,57.579,90.634,58.958,91.552C62.071,93.625,64.859,93.392,70.443,90.571C78.565,86.467,84.018,81.171,87.648,73.848C90.799,66.877,91.269,58.154,87.935,51.216C84.974,45.235,79.974,40.412,69.5,33.462C60.354,27.387,58.429,25.763,56.174,22.243C54.812,20.115,54.613,19.18,54.871,16.134C55.04,14.155,55.404,11.997,55.684,11.337C56.111,10.326,55.975,10.203,54.829,10.567C53.729,10.914,53.391,10.682,53.052,9.357C52.794,8.321,52.578,7.784,52.409,7.813ZM55.43,27.214C55.574,27.184,56.001,27.692,56.496,28.508C57.105,29.511,60.819,32.738,64.753,35.687C76.97,44.947,87.047,54.207,82.043,70.375C80.329,75.223,77.855,79.132,73.738,83.481C71.437,85.913,68.383,88.092,67.266,88.092C67.067,88.092,68.332,86.273,70.075,84.056C75.731,76.865,78.417,68.328,77.647,60.053C76.937,52.456,71.061,43.238,61.771,35.137C57.913,31.77,55.349,28.639,55.375,27.328C55.375,27.26,55.396,27.222,55.43,27.214ZM50.823,92.749C49.943,92.724,49.566,94.226,49.566,97.492C49.566,101.468,49.643,101.671,51.013,101.477C52.291,101.299,52.481,100.842,52.65,97.674C52.786,95.08,52.57,93.858,51.876,93.278C51.466,92.94,51.115,92.758,50.823,92.749ZM46.373,93.934C45.848,93.925,45.417,94.526,44.989,95.753C44.63,96.789,43.919,97.788,43.411,97.982C42.049,98.507,42.295,100.309,43.729,100.309C44.414,100.309,45.429,99.848,45.988,99.294C47.853,97.424,48.437,95.808,47.604,94.801C47.134,94.234,46.732,93.942,46.377,93.934ZM55.146,94.2C53.826,94.2,53.962,96.781,55.37,98.575C56.678,100.233,59.212,100.973,59.212,99.691C59.212,98.625,55.933,94.2,55.146,94.2ZM55.146,94.2"/>
</g>
        <g id="Black-S" transform="matrix(1.0,0.0,0.0,1.0,2894.932053736266,621.0220732675162)">  <path role="img" stroke-miterlimit="4" fill-opacity="1" stroke-width="1px" fill-rule="nonzero" stroke-linejoin="miter" stroke-linecap="butt" stroke-opacity="1" fill="#000000" stroke="none" stroke-dasharray="none" d="M38.549,0C38.059,0,37.863,2.282,37.714,9.689C37.522,19.162,37.482,19.457,36.025,22.653C34.832,25.28,30.649,31.517,29.278,32.722C28.042,33.809,25.359,37.89,24.044,40.675C21.692,45.657,21.861,52.335,23.912,57.393C25.627,61.348,28.092,64.534,32.06,67.933C35.174,70.599,36.134,70.977,36.614,69.734C36.777,69.31,36.078,67.84,35.015,66.363C33.978,64.918,32.222,61.851,31.113,59.542C26.535,49.851,28.794,41.798,34.1,32.895C37.048,28.281,38.748,24.144,39.331,20.136C40.059,15.117,39.473,-0,38.549,-0ZM36.041,4.024C35.425,4.024,35.286,4.886,35.286,8.735C35.286,11.325,35.021,14.213,34.7,15.154C33.667,18.181,30.878,20.907,23.166,26.429C17.588,30.42,12.911,35.213,11.11,38.791C5.591,49.718,10.464,63.007,22.438,69.705C27.781,72.692,32.262,73.855,32.262,72.249C32.262,71.831,32.083,71.493,31.861,71.493C31.639,71.493,29.768,70.394,27.708,69.049C18.797,63.236,14.634,56.041,15.296,47.578C15.793,41.252,18.188,37.376,27.87,27.257C36.224,18.526,36.78,17.42,36.79,9.689C36.793,4.985,36.671,4.024,36.041,4.024ZM41.036,6.118C40.695,6.174,40.573,9.116,40.566,15.734L40.553,25.425L38.088,34.74C35.339,43.153,34.929,51.742,36.946,60.327C38.794,67.621,39.582,69.065,42.136,69.791C43.272,70.115,45.084,70.967,46.164,71.685C48.602,73.308,50.785,73.126,55.157,70.917C61.517,67.704,65.786,63.557,68.628,57.823C71.096,52.365,71.463,45.535,68.853,40.102C66.535,35.419,62.62,31.643,54.418,26.201C47.257,21.444,45.75,20.172,43.984,17.416C42.918,15.75,42.762,15.018,42.964,12.633C43.097,11.083,43.382,9.394,43.6,8.877C43.935,8.085,43.829,7.989,42.931,8.274C42.07,8.546,41.805,8.364,41.54,7.327C41.338,6.515,41.169,6.095,41.036,6.118ZM43.401,21.308C43.514,21.285,43.849,21.683,44.236,22.322C44.713,23.107,47.621,25.634,50.702,27.943C60.268,35.193,68.158,42.444,64.239,55.104C62.898,58.9,60.96,61.96,57.737,65.365C55.935,67.27,53.544,68.976,52.669,68.976C52.514,68.976,53.504,67.552,54.869,65.816C59.297,60.185,61.401,53.501,60.798,47.022C60.241,41.073,55.64,33.855,48.367,27.512C45.346,24.876,43.339,22.424,43.358,21.398C43.358,21.345,43.375,21.315,43.401,21.308ZM39.794,72.623C39.105,72.603,38.811,73.779,38.811,76.336C38.811,79.45,38.87,79.609,39.943,79.456C40.944,79.317,41.093,78.959,41.225,76.478C41.331,74.448,41.162,73.491,40.619,73.037C40.298,72.772,40.023,72.629,39.794,72.623ZM36.31,73.55C35.899,73.544,35.561,74.014,35.227,74.975C34.945,75.786,34.389,76.568,33.991,76.72C32.925,77.131,33.117,78.542,34.24,78.542C34.776,78.542,35.571,78.181,36.008,77.747C37.469,76.283,37.926,75.018,37.274,74.229C36.906,73.785,36.591,73.557,36.313,73.55ZM43.18,73.759C42.146,73.759,42.252,75.779,43.355,77.184C44.379,78.482,46.363,79.062,46.363,78.058C46.363,77.224,43.796,73.759,43.18,73.759ZM43.18,73.759"/>
</g>
        <g id="Heavy-S" transform="matrix(1.0,0.0,0.0,1.0,2598.222053736266,621.0220732675162)">  <path stroke-width="1px" stroke-linejoin="miter" stroke-miterlimit="4" role="img" stroke="none" fill-rule="nonzero" fill-opacity="1" stroke-dasharray="none" stroke-opacity="1" stroke-linecap="butt" fill="#000000" d="M38.549,0C38.059,0,37.863,2.282,37.714,9.689C37.522,19.162,37.482,19.457,36.025,22.653C34.832,25.28,30.649,31.517,29.278,32.722C28.042,33.809,25.359,37.89,24.044,40.675C21.692,45.657,21.861,52.335,23.912,57.393C25.627,61.348,28.092,64.534,32.06,67.933C35.174,70.599,36.134,70.977,36.614,69.734C36.777,69.31,36.078,67.84,35.015,66.363C33.978,64.918,32.222,61.851,31.113,59.542C26.535,49.851,28.794,41.798,34.1,32.895C37.048,28.281,38.748,24.144,39.331,20.136C40.059,15.117,39.473,-0,38.549,-0ZM36.041,4.024C35.425,4.024,35.286,4.886,35.286,8.735C35.286,11.325,35.021,14.213,34.7,15.154C33.667,18.181,30.878,20.907,23.166,26.429C17.588,30.42,12.911,35.213,11.11,38.791C5.591,49.718,10.464,63.007,22.438,69.705C27.781,72.692,32.262,73.855,32.262,72.249C32.262,71.831,32.083,71.493,31.861,71.493C31.639,71.493,29.768,70.394,27.708,69.049C18.797,63.236,14.634,56.041,15.296,47.578C15.793,41.252,18.188,37.376,27.87,27.257C36.224,18.526,36.78,17.42,36.79,9.689C36.793,4.985,36.671,4.024,36.041,4.024ZM41.036,6.118C40.695,6.174,40.573,9.116,40.566,15.734L40.553,25.425L38.088,34.74C35.339,43.153,34.929,51.742,36.946,60.327C38.794,67.621,39.582,69.065,42.136,69.791C43.272,70.115,45.084,70.967,46.164,71.685C48.602,73.308,50.785,73.126,55.157,70.917C61.517,67.704,65.786,63.557,68.628,57.823C71.096,52.365,71.463,45.535,68.853,40.102C66.535,35.419,62.62,31.643,54.418,26.201C47.257,21.444,45.75,20.172,43.984,17.416C42.918,15.75,42.762,15.018,42.964,12.633C43.097,11.083,43.382,9.394,43.6,8.877C43.935,8.085,43.829,7.989,42.931,8.274C42.07,8.546,41.805,8.364,41.54,7.327C41.338,6.515,41.169,6.095,41.036,6.118ZM43.401,21.308C43.514,21.285,43.849,21.683,44.236,22.322C44.713,23.107,47.621,25.634,50.702,27.943C60.268,35.193,68.158,42.444,64.239,55.104C62.898,58.9,60.96,61.96,57.737,65.365C55.935,67.27,53.544,68.976,52.669,68.976C52.514,68.976,53.504,67.552,54.869,65.816C59.297,60.185,61.401,53.501,60.798,47.022C60.241,41.073,55.64,33.855,48.367,27.512C45.346,24.876,43.339,22.424,43.358,21.398C43.358,21.345,43.375,21.315,43.401,21.308ZM39.794,72.623C39.105,72.603,38.811,73.779,38.811,76.336C38.811,79.45,38.87,79.609,39.943,79.456C40.944,79.317,41.093,78.959,41.225,76.478C41.331,74.448,41.162,73.491,40.619,73.037C40.298,72.772,40.023,72.629,39.794,72.623ZM36.31,73.55C35.899,73.544,35.561,74.014,35.227,74.975C34.945,75.786,34.389,76.568,33.991,76.72C32.925,77.131,33.117,78.542,34.24,78.542C34.776,78.542,35.571,78.181,36.008,77.747C37.469,76.283,37.926,75.018,37.274,74.229C36.906,73.785,36.591,73.557,36.313,73.55ZM43.18,73.759C42.146,73.759,42.252,75.779,43.355,77.184C44.379,78.482,46.363,79.062,46.363,78.058C46.363,77.224,43.796,73.759,43.18,73.759ZM43.18,73.759"/>
</g>
        <g id="Bold-S" transform="matrix(1.0,0.0,0.0,1.0,2301.512053736266,621.0220732675162)">  <path stroke-miterlimit="4" fill-rule="nonzero" stroke-dasharray="none" stroke="none" stroke-opacity="1" stroke-linecap="butt" role="img" stroke-width="1px" fill="#000000" fill-opacity="1" stroke-linejoin="miter" d="M38.549,0C38.059,0,37.863,2.282,37.714,9.689C37.522,19.162,37.482,19.457,36.025,22.653C34.832,25.28,30.649,31.517,29.278,32.722C28.042,33.809,25.359,37.89,24.044,40.675C21.692,45.657,21.861,52.335,23.912,57.393C25.627,61.348,28.092,64.534,32.06,67.933C35.174,70.599,36.134,70.977,36.614,69.734C36.777,69.31,36.078,67.84,35.015,66.363C33.978,64.918,32.222,61.851,31.113,59.542C26.535,49.851,28.794,41.798,34.1,32.895C37.048,28.281,38.748,24.144,39.331,20.136C40.059,15.117,39.473,-0,38.549,-0ZM36.041,4.024C35.425,4.024,35.286,4.886,35.286,8.735C35.286,11.325,35.021,14.213,34.7,15.154C33.667,18.181,30.878,20.907,23.166,26.429C17.588,30.42,12.911,35.213,11.11,38.791C5.591,49.718,10.464,63.007,22.438,69.705C27.781,72.692,32.262,73.855,32.262,72.249C32.262,71.831,32.083,71.493,31.861,71.493C31.639,71.493,29.768,70.394,27.708,69.049C18.797,63.236,14.634,56.041,15.296,47.578C15.793,41.252,18.188,37.376,27.87,27.257C36.224,18.526,36.78,17.42,36.79,9.689C36.793,4.985,36.671,4.024,36.041,4.024ZM41.036,6.118C40.695,6.174,40.573,9.116,40.566,15.734L40.553,25.425L38.088,34.74C35.339,43.153,34.929,51.742,36.946,60.327C38.794,67.621,39.582,69.065,42.136,69.791C43.272,70.115,45.084,70.967,46.164,71.685C48.602,73.308,50.785,73.126,55.157,70.917C61.517,67.704,65.786,63.557,68.628,57.823C71.096,52.365,71.463,45.535,68.853,40.102C66.535,35.419,62.62,31.643,54.418,26.201C47.257,21.444,45.75,20.172,43.984,17.416C42.918,15.75,42.762,15.018,42.964,12.633C43.097,11.083,43.382,9.394,43.6,8.877C43.935,8.085,43.829,7.989,42.931,8.274C42.07,8.546,41.805,8.364,41.54,7.327C41.338,6.515,41.169,6.095,41.036,6.118ZM43.401,21.308C43.514,21.285,43.849,21.683,44.236,22.322C44.713,23.107,47.621,25.634,50.702,27.943C60.268,35.193,68.158,42.444,64.239,55.104C62.898,58.9,60.96,61.96,57.737,65.365C55.935,67.27,53.544,68.976,52.669,68.976C52.514,68.976,53.504,67.552,54.869,65.816C59.297,60.185,61.401,53.501,60.798,47.022C60.241,41.073,55.64,33.855,48.367,27.512C45.346,24.876,43.339,22.424,43.358,21.398C43.358,21.345,43.375,21.315,43.401,21.308ZM39.794,72.623C39.105,72.603,38.811,73.779,38.811,76.336C38.811,79.45,38.87,79.609,39.943,79.456C40.944,79.317,41.093,78.959,41.225,76.478C41.331,74.448,41.162,73.491,40.619,73.037C40.298,72.772,40.023,72.629,39.794,72.623ZM36.31,73.55C35.899,73.544,35.561,74.014,35.227,74.975C34.945,75.786,34.389,76.568,33.991,76.72C32.925,77.131,33.117,78.542,34.24,78.542C34.776,78.542,35.571,78.181,36.008,77.747C37.469,76.283,37.926,75.018,37.274,74.229C36.906,73.785,36.591,73.557,36.313,73.55ZM43.18,73.759C42.146,73.759,42.252,75.779,43.355,77.184C44.379,78.482,46.363,79.062,46.363,78.058C46.363,77.224,43.796,73.759,43.18,73.759ZM43.18,73.759"/>
</g>
        <g id="Semibold-S" transform="matrix(1.0,0.0,0.0,1.0,2004.802053736266,621.0220732675162)">  <path fill="#000000" stroke="none" stroke-linecap="butt" role="img" fill-opacity="1" stroke-width="1px" stroke-miterlimit="4" stroke-dasharray="none" stroke-linejoin="miter" fill-rule="nonzero" stroke-opacity="1" d="M38.549,0C38.059,0,37.863,2.282,37.714,9.689C37.522,19.162,37.482,19.457,36.025,22.653C34.832,25.28,30.649,31.517,29.278,32.722C28.042,33.809,25.359,37.89,24.044,40.675C21.692,45.657,21.861,52.335,23.912,57.393C25.627,61.348,28.092,64.534,32.06,67.933C35.174,70.599,36.134,70.977,36.614,69.734C36.777,69.31,36.078,67.84,35.015,66.363C33.978,64.918,32.222,61.851,31.113,59.542C26.535,49.851,28.794,41.798,34.1,32.895C37.048,28.281,38.748,24.144,39.331,20.136C40.059,15.117,39.473,-0,38.549,-0ZM36.041,4.024C35.425,4.024,35.286,4.886,35.286,8.735C35.286,11.325,35.021,14.213,34.7,15.154C33.667,18.181,30.878,20.907,23.166,26.429C17.588,30.42,12.911,35.213,11.11,38.791C5.591,49.718,10.464,63.007,22.438,69.705C27.781,72.692,32.262,73.855,32.262,72.249C32.262,71.831,32.083,71.493,31.861,71.493C31.639,71.493,29.768,70.394,27.708,69.049C18.797,63.236,14.634,56.041,15.296,47.578C15.793,41.252,18.188,37.376,27.87,27.257C36.224,18.526,36.78,17.42,36.79,9.689C36.793,4.985,36.671,4.024,36.041,4.024ZM41.036,6.118C40.695,6.174,40.573,9.116,40.566,15.734L40.553,25.425L38.088,34.74C35.339,43.153,34.929,51.742,36.946,60.327C38.794,67.621,39.582,69.065,42.136,69.791C43.272,70.115,45.084,70.967,46.164,71.685C48.602,73.308,50.785,73.126,55.157,70.917C61.517,67.704,65.786,63.557,68.628,57.823C71.096,52.365,71.463,45.535,68.853,40.102C66.535,35.419,62.62,31.643,54.418,26.201C47.257,21.444,45.75,20.172,43.984,17.416C42.918,15.75,42.762,15.018,42.964,12.633C43.097,11.083,43.382,9.394,43.6,8.877C43.935,8.085,43.829,7.989,42.931,8.274C42.07,8.546,41.805,8.364,41.54,7.327C41.338,6.515,41.169,6.095,41.036,6.118ZM43.401,21.308C43.514,21.285,43.849,21.683,44.236,22.322C44.713,23.107,47.621,25.634,50.702,27.943C60.268,35.193,68.158,42.444,64.239,55.104C62.898,58.9,60.96,61.96,57.737,65.365C55.935,67.27,53.544,68.976,52.669,68.976C52.514,68.976,53.504,67.552,54.869,65.816C59.297,60.185,61.401,53.501,60.798,47.022C60.241,41.073,55.64,33.855,48.367,27.512C45.346,24.876,43.339,22.424,43.358,21.398C43.358,21.345,43.375,21.315,43.401,21.308ZM39.794,72.623C39.105,72.603,38.811,73.779,38.811,76.336C38.811,79.45,38.87,79.609,39.943,79.456C40.944,79.317,41.093,78.959,41.225,76.478C41.331,74.448,41.162,73.491,40.619,73.037C40.298,72.772,40.023,72.629,39.794,72.623ZM36.31,73.55C35.899,73.544,35.561,74.014,35.227,74.975C34.945,75.786,34.389,76.568,33.991,76.72C32.925,77.131,33.117,78.542,34.24,78.542C34.776,78.542,35.571,78.181,36.008,77.747C37.469,76.283,37.926,75.018,37.274,74.229C36.906,73.785,36.591,73.557,36.313,73.55ZM43.18,73.759C42.146,73.759,42.252,75.779,43.355,77.184C44.379,78.482,46.363,79.062,46.363,78.058C46.363,77.224,43.796,73.759,43.18,73.759ZM43.18,73.759"/>
</g>
        <g id="Medium-S" transform="matrix(1.0,0.0,0.0,1.0,1708.092053736266,621.0220732675162)">  <path fill="#000000" stroke-dasharray="none" stroke-width="1px" stroke="none" fill-opacity="1" fill-rule="nonzero" stroke-opacity="1" role="img" stroke-linejoin="miter" stroke-linecap="butt" stroke-miterlimit="4" d="M38.549,0C38.059,0,37.863,2.282,37.714,9.689C37.522,19.162,37.482,19.457,36.025,22.653C34.832,25.28,30.649,31.517,29.278,32.722C28.042,33.809,25.359,37.89,24.044,40.675C21.692,45.657,21.861,52.335,23.912,57.393C25.627,61.348,28.092,64.534,32.06,67.933C35.174,70.599,36.134,70.977,36.614,69.734C36.777,69.31,36.078,67.84,35.015,66.363C33.978,64.918,32.222,61.851,31.113,59.542C26.535,49.851,28.794,41.798,34.1,32.895C37.048,28.281,38.748,24.144,39.331,20.136C40.059,15.117,39.473,-0,38.549,-0ZM36.041,4.024C35.425,4.024,35.286,4.886,35.286,8.735C35.286,11.325,35.021,14.213,34.7,15.154C33.667,18.181,30.878,20.907,23.166,26.429C17.588,30.42,12.911,35.213,11.11,38.791C5.591,49.718,10.464,63.007,22.438,69.705C27.781,72.692,32.262,73.855,32.262,72.249C32.262,71.831,32.083,71.493,31.861,71.493C31.639,71.493,29.768,70.394,27.708,69.049C18.797,63.236,14.634,56.041,15.296,47.578C15.793,41.252,18.188,37.376,27.87,27.257C36.224,18.526,36.78,17.42,36.79,9.689C36.793,4.985,36.671,4.024,36.041,4.024ZM41.036,6.118C40.695,6.174,40.573,9.116,40.566,15.734L40.553,25.425L38.088,34.74C35.339,43.153,34.929,51.742,36.946,60.327C38.794,67.621,39.582,69.065,42.136,69.791C43.272,70.115,45.084,70.967,46.164,71.685C48.602,73.308,50.785,73.126,55.157,70.917C61.517,67.704,65.786,63.557,68.628,57.823C71.096,52.365,71.463,45.535,68.853,40.102C66.535,35.419,62.62,31.643,54.418,26.201C47.257,21.444,45.75,20.172,43.984,17.416C42.918,15.75,42.762,15.018,42.964,12.633C43.097,11.083,43.382,9.394,43.6,8.877C43.935,8.085,43.829,7.989,42.931,8.274C42.07,8.546,41.805,8.364,41.54,7.327C41.338,6.515,41.169,6.095,41.036,6.118ZM43.401,21.308C43.514,21.285,43.849,21.683,44.236,22.322C44.713,23.107,47.621,25.634,50.702,27.943C60.268,35.193,68.158,42.444,64.239,55.104C62.898,58.9,60.96,61.96,57.737,65.365C55.935,67.27,53.544,68.976,52.669,68.976C52.514,68.976,53.504,67.552,54.869,65.816C59.297,60.185,61.401,53.501,60.798,47.022C60.241,41.073,55.64,33.855,48.367,27.512C45.346,24.876,43.339,22.424,43.358,21.398C43.358,21.345,43.375,21.315,43.401,21.308ZM39.794,72.623C39.105,72.603,38.811,73.779,38.811,76.336C38.811,79.45,38.87,79.609,39.943,79.456C40.944,79.317,41.093,78.959,41.225,76.478C41.331,74.448,41.162,73.491,40.619,73.037C40.298,72.772,40.023,72.629,39.794,72.623ZM36.31,73.55C35.899,73.544,35.561,74.014,35.227,74.975C34.945,75.786,34.389,76.568,33.991,76.72C32.925,77.131,33.117,78.542,34.24,78.542C34.776,78.542,35.571,78.181,36.008,77.747C37.469,76.283,37.926,75.018,37.274,74.229C36.906,73.785,36.591,73.557,36.313,73.55ZM43.18,73.759C42.146,73.759,42.252,75.779,43.355,77.184C44.379,78.482,46.363,79.062,46.363,78.058C46.363,77.224,43.796,73.759,43.18,73.759ZM43.18,73.759"/>
</g>
        <g id="Regular-S" transform="matrix(1.0,0.0,0.0,1.0,1411.382053736266,621.0220732675162)">  <path fill="#000000" stroke-linejoin="miter" stroke-dasharray="none" stroke-opacity="1" stroke-width="1px" stroke-miterlimit="4" stroke-linecap="butt" fill-rule="nonzero" fill-opacity="1" role="img" stroke="none" d="M38.549,0C38.059,0,37.863,2.282,37.714,9.689C37.522,19.162,37.482,19.457,36.025,22.653C34.832,25.28,30.649,31.517,29.278,32.722C28.042,33.809,25.359,37.89,24.044,40.675C21.692,45.657,21.861,52.335,23.912,57.393C25.627,61.348,28.092,64.534,32.06,67.933C35.174,70.599,36.134,70.977,36.614,69.734C36.777,69.31,36.078,67.84,35.015,66.363C33.978,64.918,32.222,61.851,31.113,59.542C26.535,49.851,28.794,41.798,34.1,32.895C37.048,28.281,38.748,24.144,39.331,20.136C40.059,15.117,39.473,-0,38.549,-0ZM36.041,4.024C35.425,4.024,35.286,4.886,35.286,8.735C35.286,11.325,35.021,14.213,34.7,15.154C33.667,18.181,30.878,20.907,23.166,26.429C17.588,30.42,12.911,35.213,11.11,38.791C5.591,49.718,10.464,63.007,22.438,69.705C27.781,72.692,32.262,73.855,32.262,72.249C32.262,71.831,32.083,71.493,31.861,71.493C31.639,71.493,29.768,70.394,27.708,69.049C18.797,63.236,14.634,56.041,15.296,47.578C15.793,41.252,18.188,37.376,27.87,27.257C36.224,18.526,36.78,17.42,36.79,9.689C36.793,4.985,36.671,4.024,36.041,4.024ZM41.036,6.118C40.695,6.174,40.573,9.116,40.566,15.734L40.553,25.425L38.088,34.74C35.339,43.153,34.929,51.742,36.946,60.327C38.794,67.621,39.582,69.065,42.136,69.791C43.272,70.115,45.084,70.967,46.164,71.685C48.602,73.308,50.785,73.126,55.157,70.917C61.517,67.704,65.786,63.557,68.628,57.823C71.096,52.365,71.463,45.535,68.853,40.102C66.535,35.419,62.62,31.643,54.418,26.201C47.257,21.444,45.75,20.172,43.984,17.416C42.918,15.75,42.762,15.018,42.964,12.633C43.097,11.083,43.382,9.394,43.6,8.877C43.935,8.085,43.829,7.989,42.931,8.274C42.07,8.546,41.805,8.364,41.54,7.327C41.338,6.515,41.169,6.095,41.036,6.118ZM43.401,21.308C43.514,21.285,43.849,21.683,44.236,22.322C44.713,23.107,47.621,25.634,50.702,27.943C60.268,35.193,68.158,42.444,64.239,55.104C62.898,58.9,60.96,61.96,57.737,65.365C55.935,67.27,53.544,68.976,52.669,68.976C52.514,68.976,53.504,67.552,54.869,65.816C59.297,60.185,61.401,53.501,60.798,47.022C60.241,41.073,55.64,33.855,48.367,27.512C45.346,24.876,43.339,22.424,43.358,21.398C43.358,21.345,43.375,21.315,43.401,21.308ZM39.794,72.623C39.105,72.603,38.811,73.779,38.811,76.336C38.811,79.45,38.87,79.609,39.943,79.456C40.944,79.317,41.093,78.959,41.225,76.478C41.331,74.448,41.162,73.491,40.619,73.037C40.298,72.772,40.023,72.629,39.794,72.623ZM36.31,73.55C35.899,73.544,35.561,74.014,35.227,74.975C34.945,75.786,34.389,76.568,33.991,76.72C32.925,77.131,33.117,78.542,34.24,78.542C34.776,78.542,35.571,78.181,36.008,77.747C37.469,76.283,37.926,75.018,37.274,74.229C36.906,73.785,36.591,73.557,36.313,73.55ZM43.18,73.759C42.146,73.759,42.252,75.779,43.355,77.184C44.379,78.482,46.363,79.062,46.363,78.058C46.363,77.224,43.796,73.759,43.18,73.759ZM43.18,73.759"/>
</g>
        <g id="Light-S" transform="matrix(1.0,0.0,0.0,1.0,1114.6720537362662,621.0220732675162)">  <path stroke-dasharray="none" stroke-linejoin="miter" stroke-opacity="1" stroke-miterlimit="4" stroke="none" fill-rule="nonzero" stroke-linecap="butt" stroke-width="1px" fill-opacity="1" role="img" fill="#000000" d="M38.549,0C38.059,0,37.863,2.282,37.714,9.689C37.522,19.162,37.482,19.457,36.025,22.653C34.832,25.28,30.649,31.517,29.278,32.722C28.042,33.809,25.359,37.89,24.044,40.675C21.692,45.657,21.861,52.335,23.912,57.393C25.627,61.348,28.092,64.534,32.06,67.933C35.174,70.599,36.134,70.977,36.614,69.734C36.777,69.31,36.078,67.84,35.015,66.363C33.978,64.918,32.222,61.851,31.113,59.542C26.535,49.851,28.794,41.798,34.1,32.895C37.048,28.281,38.748,24.144,39.331,20.136C40.059,15.117,39.473,-0,38.549,-0ZM36.041,4.024C35.425,4.024,35.286,4.886,35.286,8.735C35.286,11.325,35.021,14.213,34.7,15.154C33.667,18.181,30.878,20.907,23.166,26.429C17.588,30.42,12.911,35.213,11.11,38.791C5.591,49.718,10.464,63.007,22.438,69.705C27.781,72.692,32.262,73.855,32.262,72.249C32.262,71.831,32.083,71.493,31.861,71.493C31.639,71.493,29.768,70.394,27.708,69.049C18.797,63.236,14.634,56.041,15.296,47.578C15.793,41.252,18.188,37.376,27.87,27.257C36.224,18.526,36.78,17.42,36.79,9.689C36.793,4.985,36.671,4.024,36.041,4.024ZM41.036,6.118C40.695,6.174,40.573,9.116,40.566,15.734L40.553,25.425L38.088,34.74C35.339,43.153,34.929,51.742,36.946,60.327C38.794,67.621,39.582,69.065,42.136,69.791C43.272,70.115,45.084,70.967,46.164,71.685C48.602,73.308,50.785,73.126,55.157,70.917C61.517,67.704,65.786,63.557,68.628,57.823C71.096,52.365,71.463,45.535,68.853,40.102C66.535,35.419,62.62,31.643,54.418,26.201C47.257,21.444,45.75,20.172,43.984,17.416C42.918,15.75,42.762,15.018,42.964,12.633C43.097,11.083,43.382,9.394,43.6,8.877C43.935,8.085,43.829,7.989,42.931,8.274C42.07,8.546,41.805,8.364,41.54,7.327C41.338,6.515,41.169,6.095,41.036,6.118ZM43.401,21.308C43.514,21.285,43.849,21.683,44.236,22.322C44.713,23.107,47.621,25.634,50.702,27.943C60.268,35.193,68.158,42.444,64.239,55.104C62.898,58.9,60.96,61.96,57.737,65.365C55.935,67.27,53.544,68.976,52.669,68.976C52.514,68.976,53.504,67.552,54.869,65.816C59.297,60.185,61.401,53.501,60.798,47.022C60.241,41.073,55.64,33.855,48.367,27.512C45.346,24.876,43.339,22.424,43.358,21.398C43.358,21.345,43.375,21.315,43.401,21.308ZM39.794,72.623C39.105,72.603,38.811,73.779,38.811,76.336C38.811,79.45,38.87,79.609,39.943,79.456C40.944,79.317,41.093,78.959,41.225,76.478C41.331,74.448,41.162,73.491,40.619,73.037C40.298,72.772,40.023,72.629,39.794,72.623ZM36.31,73.55C35.899,73.544,35.561,74.014,35.227,74.975C34.945,75.786,34.389,76.568,33.991,76.72C32.925,77.131,33.117,78.542,34.24,78.542C34.776,78.542,35.571,78.181,36.008,77.747C37.469,76.283,37.926,75.018,37.274,74.229C36.906,73.785,36.591,73.557,36.313,73.55ZM43.18,73.759C42.146,73.759,42.252,75.779,43.355,77.184C44.379,78.482,46.363,79.062,46.363,78.058C46.363,77.224,43.796,73.759,43.18,73.759ZM43.18,73.759"/>
</g>
        <g id="Thin-S" transform="matrix(1.0,0.0,0.0,1.0,817.9620537362663,621.0220732675162)">  <path stroke="none" role="img" fill-rule="nonzero" fill="#000000" fill-opacity="1" stroke-width="1px" stroke-opacity="1" stroke-miterlimit="4" stroke-linecap="butt" stroke-linejoin="miter" stroke-dasharray="none" d="M38.549,0C38.059,0,37.863,2.282,37.714,9.689C37.522,19.162,37.482,19.457,36.025,22.653C34.832,25.28,30.649,31.517,29.278,32.722C28.042,33.809,25.359,37.89,24.044,40.675C21.692,45.657,21.861,52.335,23.912,57.393C25.627,61.348,28.092,64.534,32.06,67.933C35.174,70.599,36.134,70.977,36.614,69.734C36.777,69.31,36.078,67.84,35.015,66.363C33.978,64.918,32.222,61.851,31.113,59.542C26.535,49.851,28.794,41.798,34.1,32.895C37.048,28.281,38.748,24.144,39.331,20.136C40.059,15.117,39.473,-0,38.549,-0ZM36.041,4.024C35.425,4.024,35.286,4.886,35.286,8.735C35.286,11.325,35.021,14.213,34.7,15.154C33.667,18.181,30.878,20.907,23.166,26.429C17.588,30.42,12.911,35.213,11.11,38.791C5.591,49.718,10.464,63.007,22.438,69.705C27.781,72.692,32.262,73.855,32.262,72.249C32.262,71.831,32.083,71.493,31.861,71.493C31.639,71.493,29.768,70.394,27.708,69.049C18.797,63.236,14.634,56.041,15.296,47.578C15.793,41.252,18.188,37.376,27.87,27.257C36.224,18.526,36.78,17.42,36.79,9.689C36.793,4.985,36.671,4.024,36.041,4.024ZM41.036,6.118C40.695,6.174,40.573,9.116,40.566,15.734L40.553,25.425L38.088,34.74C35.339,43.153,34.929,51.742,36.946,60.327C38.794,67.621,39.582,69.065,42.136,69.791C43.272,70.115,45.084,70.967,46.164,71.685C48.602,73.308,50.785,73.126,55.157,70.917C61.517,67.704,65.786,63.557,68.628,57.823C71.096,52.365,71.463,45.535,68.853,40.102C66.535,35.419,62.62,31.643,54.418,26.201C47.257,21.444,45.75,20.172,43.984,17.416C42.918,15.75,42.762,15.018,42.964,12.633C43.097,11.083,43.382,9.394,43.6,8.877C43.935,8.085,43.829,7.989,42.931,8.274C42.07,8.546,41.805,8.364,41.54,7.327C41.338,6.515,41.169,6.095,41.036,6.118ZM43.401,21.308C43.514,21.285,43.849,21.683,44.236,22.322C44.713,23.107,47.621,25.634,50.702,27.943C60.268,35.193,68.158,42.444,64.239,55.104C62.898,58.9,60.96,61.96,57.737,65.365C55.935,67.27,53.544,68.976,52.669,68.976C52.514,68.976,53.504,67.552,54.869,65.816C59.297,60.185,61.401,53.501,60.798,47.022C60.241,41.073,55.64,33.855,48.367,27.512C45.346,24.876,43.339,22.424,43.358,21.398C43.358,21.345,43.375,21.315,43.401,21.308ZM39.794,72.623C39.105,72.603,38.811,73.779,38.811,76.336C38.811,79.45,38.87,79.609,39.943,79.456C40.944,79.317,41.093,78.959,41.225,76.478C41.331,74.448,41.162,73.491,40.619,73.037C40.298,72.772,40.023,72.629,39.794,72.623ZM36.31,73.55C35.899,73.544,35.561,74.014,35.227,74.975C34.945,75.786,34.389,76.568,33.991,76.72C32.925,77.131,33.117,78.542,34.24,78.542C34.776,78.542,35.571,78.181,36.008,77.747C37.469,76.283,37.926,75.018,37.274,74.229C36.906,73.785,36.591,73.557,36.313,73.55ZM43.18,73.759C42.146,73.759,42.252,75.779,43.355,77.184C44.379,78.482,46.363,79.062,46.363,78.058C46.363,77.224,43.796,73.759,43.18,73.759ZM43.18,73.759"/>
</g>
        <g id="Ultralight-S" transform="matrix(1.0,0.0,0.0,1.0,521.2520537362662,621.0220732675162)">  <path fill-opacity="1" stroke-linecap="butt" stroke-linejoin="miter" stroke-miterlimit="4" fill-rule="nonzero" stroke="none" stroke-dasharray="none" fill="#000000" stroke-opacity="1" role="img" stroke-width="1px" d="M38.549,0C38.059,0,37.863,2.282,37.714,9.689C37.522,19.162,37.482,19.457,36.025,22.653C34.832,25.28,30.649,31.517,29.278,32.722C28.042,33.809,25.359,37.89,24.044,40.675C21.692,45.657,21.861,52.335,23.912,57.393C25.627,61.348,28.092,64.534,32.06,67.933C35.174,70.599,36.134,70.977,36.614,69.734C36.777,69.31,36.078,67.84,35.015,66.363C33.978,64.918,32.222,61.851,31.113,59.542C26.535,49.851,28.794,41.798,34.1,32.895C37.048,28.281,38.748,24.144,39.331,20.136C40.059,15.117,39.473,-0,38.549,-0ZM36.041,4.024C35.425,4.024,35.286,4.886,35.286,8.735C35.286,11.325,35.021,14.213,34.7,15.154C33.667,18.181,30.878,20.907,23.166,26.429C17.588,30.42,12.911,35.213,11.11,38.791C5.591,49.718,10.464,63.007,22.438,69.705C27.781,72.692,32.262,73.855,32.262,72.249C32.262,71.831,32.083,71.493,31.861,71.493C31.639,71.493,29.768,70.394,27.708,69.049C18.797,63.236,14.634,56.041,15.296,47.578C15.793,41.252,18.188,37.376,27.87,27.257C36.224,18.526,36.78,17.42,36.79,9.689C36.793,4.985,36.671,4.024,36.041,4.024ZM41.036,6.118C40.695,6.174,40.573,9.116,40.566,15.734L40.553,25.425L38.088,34.74C35.339,43.153,34.929,51.742,36.946,60.327C38.794,67.621,39.582,69.065,42.136,69.791C43.272,70.115,45.084,70.967,46.164,71.685C48.602,73.308,50.785,73.126,55.157,70.917C61.517,67.704,65.786,63.557,68.628,57.823C71.096,52.365,71.463,45.535,68.853,40.102C66.535,35.419,62.62,31.643,54.418,26.201C47.257,21.444,45.75,20.172,43.984,17.416C42.918,15.75,42.762,15.018,42.964,12.633C43.097,11.083,43.382,9.394,43.6,8.877C43.935,8.085,43.829,7.989,42.931,8.274C42.07,8.546,41.805,8.364,41.54,7.327C41.338,6.515,41.169,6.095,41.036,6.118ZM43.401,21.308C43.514,21.285,43.849,21.683,44.236,22.322C44.713,23.107,47.621,25.634,50.702,27.943C60.268,35.193,68.158,42.444,64.239,55.104C62.898,58.9,60.96,61.96,57.737,65.365C55.935,67.27,53.544,68.976,52.669,68.976C52.514,68.976,53.504,67.552,54.869,65.816C59.297,60.185,61.401,53.501,60.798,47.022C60.241,41.073,55.64,33.855,48.367,27.512C45.346,24.876,43.339,22.424,43.358,21.398C43.358,21.345,43.375,21.315,43.401,21.308ZM39.794,72.623C39.105,72.603,38.811,73.779,38.811,76.336C38.811,79.45,38.87,79.609,39.943,79.456C40.944,79.317,41.093,78.959,41.225,76.478C41.331,74.448,41.162,73.491,40.619,73.037C40.298,72.772,40.023,72.629,39.794,72.623ZM36.31,73.55C35.899,73.544,35.561,74.014,35.227,74.975C34.945,75.786,34.389,76.568,33.991,76.72C32.925,77.131,33.117,78.542,34.24,78.542C34.776,78.542,35.571,78.181,36.008,77.747C37.469,76.283,37.926,75.018,37.274,74.229C36.906,73.785,36.591,73.557,36.313,73.55ZM43.18,73.759C42.146,73.759,42.252,75.779,43.355,77.184C44.379,78.482,46.363,79.062,46.363,78.058C46.363,77.224,43.796,73.759,43.18,73.759ZM43.18,73.759"/>
</g>
    </g>
    </g>
</svg>
