<?xml version="1.0" encoding="UTF-8"?>
<svg width="3300px" height="2200px" viewBox="0 0 3300 2200" version="1.1" xmlns="http://www.w3.org/2000/svg" xmlns:xlink="http://www.w3.org/1999/xlink">
    <title>java.SFSymbol</title>
    <g id="Page-1" stroke="none" stroke-width="1" fill="none" fill-rule="evenodd">
        <g id="java.SFSymbol">
            <g id="Notes">
                <rect id="artboard" fill="#FFFFFF" fill-rule="nonzero" x="0" y="0" width="3300" height="2200"></rect>
                <line x1="263" y1="292" x2="3036" y2="292" id="Path" stroke="#000000" stroke-width="0.5"></line>
                <text id="Weight/Scale-Variations" fill="#000000" fill-rule="nonzero" font-family="Helvetica" font-size="13" font-weight="normal">
                    <tspan x="263" y="322">Weight/Scale Variations</tspan>
                </text>
                <text id="Ultralight" fill="#000000" fill-rule="nonzero" font-family="Helvetica" font-size="13" font-weight="normal">
                    <tspan x="533.711" y="322">Ultralight</tspan>
                </text>
                <text id="Thin" fill="#000000" fill-rule="nonzero" font-family="Helvetica" font-size="13" font-weight="normal">
                    <tspan x="843.422" y="322">Thin</tspan>
                </text>
                <text id="Light" fill="#000000" fill-rule="nonzero" font-family="Helvetica" font-size="13" font-weight="normal">
                    <tspan x="1138.63" y="322">Light</tspan>
                </text>
                <text id="Regular" fill="#000000" fill-rule="nonzero" font-family="Helvetica" font-size="13" font-weight="normal">
                    <tspan x="1426.84" y="322">Regular</tspan>
                </text>
                <text id="Medium" fill="#000000" fill-rule="nonzero" font-family="Helvetica" font-size="13" font-weight="normal">
                    <tspan x="1723.06" y="322">Medium</tspan>
                </text>
                <text id="Semibold" fill="#000000" fill-rule="nonzero" font-family="Helvetica" font-size="13" font-weight="normal">
                    <tspan x="2015.77" y="322">Semibold</tspan>
                </text>
                <text id="Bold" fill="#000000" fill-rule="nonzero" font-family="Helvetica" font-size="13" font-weight="normal">
                    <tspan x="2326.48" y="322">Bold</tspan>
                </text>
                <text id="Heavy" fill="#000000" fill-rule="nonzero" font-family="Helvetica" font-size="13" font-weight="normal">
                    <tspan x="2618.19" y="322">Heavy</tspan>
                </text>
                <text id="Black" fill="#000000" fill-rule="nonzero" font-family="Helvetica" font-size="13" font-weight="normal">
                    <tspan x="2917.4" y="322">Black</tspan>
                </text>
                <line x1="263" y1="1903" x2="3036" y2="1903" id="Path" stroke="#000000" stroke-width="0.5"></line>
                <g id="Group" transform="translate(264.367190, 1918.068400)" fill="#000000" fill-rule="nonzero">
                    <path d="M7.88086,15.761678 C12.18751,15.761678 15.77151,12.18746 15.77151,7.88082 C15.77151,3.5742 12.17771,0 7.87109,0 C3.57422,0 -8.8817842e-16,3.5742 -8.8817842e-16,7.88082 C-8.8817842e-16,12.18746 3.58398,15.761678 7.88086,15.761678 Z M7.88086,14.277303 C4.33593,14.277303 1.5039,11.43551 1.5039,7.88082 C1.5039,4.3261 4.32617,1.4843 7.87109,1.4843 C11.42581,1.4843 14.27731,4.3261 14.27731,7.88082 C14.27731,11.43551 11.43551,14.277303 7.88086,14.277303 Z M4.28711,7.88082 C4.28711,8.31051 4.58984,8.60348 5.03906,8.60348 L7.13867,8.60348 L7.13867,10.72262 C7.13867,11.16207 7.43164,11.4648 7.86133,11.4648 C8.31054,11.4648 8.60351,11.16207 8.60351,10.72262 L8.60351,8.60348 L10.72261,8.60348 C11.16211,8.60348 11.46481,8.31051 11.46481,7.88082 C11.46481,7.44137 11.16211,7.13863 10.72261,7.13863 L8.60351,7.13863 L8.60351,5.02926 C8.60351,4.58 8.31054,4.2773 7.86133,4.2773 C7.43164,4.2773 7.13867,4.58 7.13867,5.02926 L7.13867,7.13863 L5.03906,7.13863 C4.58984,7.13863 4.28711,7.44137 4.28711,7.88082 Z" id="Shape"></path>
                </g>
                <g id="Group" transform="translate(283.615050, 1915.988300)" fill="#000000" fill-rule="nonzero">
                    <path d="M9.96095,19.92186 C15.41015,19.92186 19.92185,15.40037 19.92185,9.96092 C19.92185,4.5117 15.40035,0 9.95115,0 C4.51172,0 8.8817842e-16,4.5117 8.8817842e-16,9.96092 C8.8817842e-16,15.40037 4.52148,19.92186 9.96095,19.92186 Z M9.96095,18.2617 C5.35156,18.2617 1.66992,14.57029 1.66992,9.96092 C1.66992,5.3515 5.34179,1.6601 9.95115,1.6601 C14.56055,1.6601 18.26175,5.3515 18.26175,9.96092 C18.26175,14.57029 14.57035,18.2617 9.96095,18.2617 Z M5.42968,9.96092 C5.42968,10.43943 5.76172,10.7617 6.25976,10.7617 L9.13085,10.7617 L9.13085,13.64256 C9.13085,14.13084 9.46285,14.47264 9.94145,14.47264 C10.42965,14.47264 10.77145,14.14061 10.77145,13.64256 L10.77145,10.7617 L13.65235,10.7617 C14.14065,10.7617 14.48245,10.43943 14.48245,9.96092 C14.48245,9.47264 14.14065,9.13084 13.65235,9.13084 L10.77145,9.13084 L10.77145,6.2597 C10.77145,5.7617 10.42965,5.4199 9.94145,5.4199 C9.46285,5.4199 9.13085,5.7617 9.13085,6.2597 L9.13085,9.13084 L6.25976,9.13084 C5.76172,9.13084 5.42968,9.47264 5.42968,9.96092 Z" id="Shape"></path>
                </g>
                <g id="Group" transform="translate(307.901860, 1913.224600)" fill="#000000" fill-rule="nonzero">
                    <path d="M12.71484,25.43946 C19.67774,25.43946 25.43944,19.6777438 25.43944,12.72462 C25.43944,5.7617 19.66794,0 12.70504,0 C5.75195,0 0,5.7617 0,12.72462 C0,19.6777438 5.76172,25.43946 12.71484,25.43946 Z M12.71484,23.62306 C6.67969,23.62306 1.82617,18.75978 1.82617,12.72462 C1.82617,6.6797 6.66992,1.8262 12.70504,1.8262 C18.75004,1.8262 23.61324,6.6797 23.61324,12.72462 C23.61324,18.75978 18.75974,23.62306 12.71484,23.62306 Z M6.94336,12.72462 C6.94336,13.2422 7.31445,13.60352 7.86134,13.60352 L11.80664,13.60352 L11.80664,17.5586 C11.80664,18.09571 12.17774,18.47657 12.69534,18.47657 C13.23244,18.47657 13.60354,18.10548 13.60354,17.5586 L13.60354,13.60352 L17.55864,13.60352 C18.09574,13.60352 18.47654,13.2422 18.47654,12.72462 C18.47654,12.17774 18.10544,11.80665 17.55864,11.80665 L13.60354,11.80665 L13.60354,7.8613 C13.60354,7.3145 13.23244,6.9336 12.69534,6.9336 C12.17774,6.9336 11.80664,7.3145 11.80664,7.8613 L11.80664,11.80665 L7.86134,11.80665 C7.31445,11.80665 6.94336,12.17774 6.94336,12.72462 Z" id="Shape"></path>
                </g>
                <text id="Design-Variations" fill="#000000" fill-rule="nonzero" font-family="Helvetica" font-size="13" font-weight="normal">
                    <tspan x="263" y="1953">Design Variations</tspan>
                </text>
                <text id="Symbols-are-supported-in-up-to-nine-weights-and-three-scales." fill="#000000" fill-rule="nonzero" font-family="Helvetica" font-size="13" font-weight="normal">
                    <tspan x="263" y="1971">Symbols are supported in up to nine weights and three scales.</tspan>
                </text>
                <text id="For-optimal-layout-with-text-and-other-symbols,-vertically-align" fill="#000000" fill-rule="nonzero" font-family="Helvetica" font-size="13" font-weight="normal">
                    <tspan x="263" y="1989">For optimal layout with text and other symbols, vertically align</tspan>
                </text>
                <text id="symbols-with-the-adjacent-text." fill="#000000" fill-rule="nonzero" font-family="Helvetica" font-size="13" font-weight="normal">
                    <tspan x="263" y="2007">symbols with the adjacent text.</tspan>
                </text>
                <line x1="776" y1="1919" x2="776" y2="1933" id="Path" stroke="#00AEEF" stroke-width="0.5"></line>
                <g id="Group" transform="translate(778.490230, 1918.732400)" fill="#000000" fill-rule="nonzero">
                    <path d="M0.82032,14.42385 C1.33789,14.42385 1.5918,14.2285375 1.77735,13.681662 L3.03711,10.2344 L8.79887,10.2344 L10.05857,13.681662 C10.24417,14.2285375 10.49807,14.42385 11.00587,14.42385 C11.52347,14.42385 11.85547,14.11135 11.85547,13.623069 C11.85547,13.457053 11.82617,13.300803 11.74807,13.09572 L7.16797,0.8985 C6.94336,0.3028 6.54297,0 5.91797,0 C5.3125,0 4.90235,0.293 4.6875,0.8887 L0.10743,13.10549 C0.0293,13.310569 -4.4408921e-16,13.466819 -4.4408921e-16,13.632834 C-4.4408921e-16,14.121116 0.3125,14.42385 0.82032,14.42385 Z M3.51563,8.75002 L5.88868,2.1778 L5.9375,2.1778 L8.31057,8.75002 L3.51563,8.75002 Z" id="Shape"></path>
                </g>
                <line x1="793.197" y1="1919" x2="793.197" y2="1933" id="Path" stroke="#00AEEF" stroke-width="0.5"></line>
                <text id="Margins" fill="#000000" fill-rule="nonzero" font-family="Helvetica" font-size="13" font-weight="normal">
                    <tspan x="776" y="1953">Margins</tspan>
                </text>
                <text id="Leading-and-trailing-margins-on-the-left-and-right-side-of-each-symbol" fill="#000000" fill-rule="nonzero" font-family="Helvetica" font-size="13" font-weight="normal">
                    <tspan x="776" y="1971">Leading and trailing margins on the left and right side of each symbol</tspan>
                </text>
                <text id="can-be-adjusted-by-modifying-the-x-location-of-the-margin-guidelines." fill="#000000" fill-rule="nonzero" font-family="Helvetica" font-size="13" font-weight="normal">
                    <tspan x="776" y="1989">can be adjusted by modifying the x-location of the margin guidelines.</tspan>
                </text>
                <text id="Modifications-are-automatically-applied-proportionally-to-all" fill="#000000" fill-rule="nonzero" font-family="Helvetica" font-size="13" font-weight="normal">
                    <tspan x="776" y="2007">Modifications are automatically applied proportionally to all</tspan>
                </text>
                <text id="scales-and-weights." fill="#000000" fill-rule="nonzero" font-family="Helvetica" font-size="13" font-weight="normal">
                    <tspan x="776" y="2025">scales and weights.</tspan>
                </text>
                <g id="Group" transform="translate(1291.248126, 1914.517396)" fill="#000000" fill-rule="nonzero">
                    <path d="M0.593673634,20.347834 L2.29289363,22.056824 C3.15226363,22.925964 4.13859363,22.867374 5.06632363,21.841984 L15.7596736,10.054874 L14.7928736,9.07830404 L4.17765363,20.757994 C3.82609363,21.158384 3.49406363,21.256044 3.02531363,20.787294 L1.85343363,19.625184 C1.38468363,19.166198 1.49210363,18.824401 1.89249363,18.4630728 L13.3670736,7.66230404 L12.3905736,6.69550404 L0.798753634,17.584166 C-0.187576366,18.5021352 -0.265706366,19.478698 0.593673634,20.347834 Z M7.00968363,2.15450404 C6.58976363,2.56460404 6.56046363,3.14080404 6.79484363,3.53140404 C7.02921363,3.89280404 7.48820363,4.12710404 8.13277363,3.96110404 C9.59757363,3.61930404 11.1209736,3.56070404 12.5467736,4.49820404 L11.9608736,5.95330404 C11.6190736,6.78340404 11.7948736,7.36930404 12.3319736,7.91620404 L14.6268736,10.230654 C15.1151736,10.718934 15.5252736,10.738464 16.0916736,10.640804 L17.1561736,10.445494 L17.8202736,11.119324 L17.7811736,11.675964 C17.7420736,12.174014 17.8690736,12.554874 18.3573736,13.033384 L19.1190736,13.775574 C19.5975736,14.254084 20.2127736,14.283384 20.6815736,13.814634 L23.5916736,10.894714 C24.0604736,10.425964 24.0409736,9.83026404 23.5623736,9.35174404 L22.7909736,8.59002404 C22.3123736,8.11150404 21.9413736,7.95530404 21.4627736,7.99430404 L20.8866736,8.04310404 L20.2420736,7.40840404 L20.4862736,6.28530404 C20.6131736,5.71890404 20.4569736,5.27950404 19.8709736,4.69350404 L17.6737736,2.50600404 C14.3338736,-0.814295964 9.90027363,-0.736195964 7.00968363,2.15450404 Z M8.50387363,2.52560404 C10.9354736,0.748204036 14.2264736,1.05100404 16.4530736,3.27750404 L18.8846736,5.68960404 C19.1190736,5.92400404 19.1580736,6.10960404 19.0897736,6.45140404 L18.7674736,7.93570404 L20.2713736,9.42010404 L21.2577736,9.36151404 C21.5116736,9.35174404 21.5897736,9.37127404 21.7850736,9.56658404 L22.3612736,10.142764 L19.9198736,12.584164 L19.3436736,12.007994 C19.1483736,11.812684 19.1190736,11.734554 19.1288736,11.470884 L19.1971736,10.494324 L17.7030736,9.00994404 L16.1795736,9.26385404 C15.8573736,9.33221404 15.7108736,9.30291404 15.4666736,9.06854404 L13.4647736,7.06660404 C13.2108736,6.83220404 13.1815736,6.66620404 13.3377736,6.29510404 L14.2166736,4.20530404 C12.6541736,2.75020404 10.6229736,2.12520404 8.59167363,2.72090404 C8.43547363,2.75990404 8.37687363,2.63300404 8.50387363,2.52560404 Z" id="Shape"></path>
                </g>
                <text id="Exporting" fill="#000000" fill-rule="nonzero" font-family="Helvetica" font-size="13" font-weight="normal">
                    <tspan x="1289" y="1953">Exporting</tspan>
                </text>
                <text id="Symbols-should-be-outlined-when-exporting-to-ensure-the" fill="#000000" fill-rule="nonzero" font-family="Helvetica" font-size="13" font-weight="normal">
                    <tspan x="1289" y="1971">Symbols should be outlined when exporting to ensure the</tspan>
                </text>
                <text id="design-is-preserved-when-submitting-to-Xcode." fill="#000000" fill-rule="nonzero" font-family="Helvetica" font-size="13" font-weight="normal">
                    <tspan x="1289" y="1989">design is preserved when submitting to Xcode.</tspan>
                </text>
                <text id="template-version" fill="#000000" fill-rule="nonzero" font-family="Helvetica" font-size="13" font-weight="normal">
                    <tspan x="2952" y="1933">Template v.2.0</tspan>
                </text>
                <text id="Requires-Xcode-12-or-greater" fill="#000000" fill-rule="nonzero" font-family="Helvetica" font-size="13" font-weight="normal">
                    <tspan x="2865" y="1951">Requires Xcode 12 or greater</tspan>
                </text>
                <text id="descriptive-name" fill="#000000" fill-rule="nonzero" font-family="Helvetica" font-size="13" font-weight="normal">
                    <tspan x="2889" y="1969">Generated from unsplash</tspan>
                </text>
                <text id="Typeset-at-100-points" fill="#000000" fill-rule="nonzero" font-family="Helvetica" font-size="13" font-weight="normal">
                    <tspan x="2912" y="1987">Typeset at 100 points</tspan>
                </text>
                <text id="Small" fill="#000000" fill-rule="nonzero" font-family="Helvetica" font-size="13" font-weight="normal">
                    <tspan x="263" y="726">Small</tspan>
                </text>
                <text id="Medium" fill="#000000" fill-rule="nonzero" font-family="Helvetica" font-size="13" font-weight="normal">
                    <tspan x="263" y="1156">Medium</tspan>
                </text>
                <text id="Large" fill="#000000" fill-rule="nonzero" font-family="Helvetica" font-size="13" font-weight="normal">
                    <tspan x="263" y="1586">Large</tspan>
                </text>
            </g>
            <g id="Guides" transform="translate(263.000000, 625.041000)">
                <g id="H-reference" transform="translate(76.976562, 0.500000)" fill="#27AAE1" fill-rule="nonzero">
                    <path d="M-1.22124533e-15,70.459 L2.685548,70.459 L12.011738,45.9961 L44.775438,45.9961 L54.150438,70.459 L56.787138,70.459 L29.638638,0 L27.148438,0 L-1.22124533e-15,70.459 Z M28.369138,3.3203 L28.466838,3.3203 L43.896438,43.75 L12.890638,43.75 L28.369138,3.3203 Z" id="Shape"></path>
                </g>
                <line x1="0" y1="70.959" x2="2773" y2="70.959" id="Baseline-S" stroke="#27AAE1" stroke-width="0.5"></line>
                <line x1="0" y1="0.5" x2="2773" y2="0.5" id="Capline-S" stroke="#27AAE1" stroke-width="0.5"></line>
                <g id="H-reference" transform="translate(76.976562, 430.500000)" fill="#27AAE1" fill-rule="nonzero">
                    <path d="M-1.22124533e-15,70.459 L2.685548,70.459 L12.011738,45.9961 L44.775438,45.9961 L54.150438,70.459 L56.787138,70.459 L29.638638,0 L27.148438,0 L-1.22124533e-15,70.459 Z M28.369138,3.3203 L28.466838,3.3203 L43.896438,43.75 L12.890638,43.75 L28.369138,3.3203 Z" id="Shape"></path>
                </g>
                <line x1="0" y1="500.959" x2="2773" y2="500.959" id="Baseline-M" stroke="#27AAE1" stroke-width="0.5"></line>
                <line x1="0" y1="430.499" x2="2773" y2="430.499" id="Capline-M" stroke="#27AAE1" stroke-width="0.5"></line>
                <g id="H-reference" transform="translate(76.976562, 860.500000)" fill="#27AAE1" fill-rule="nonzero">
                    <path d="M-1.22124533e-15,70.459 L2.685548,70.459 L12.011738,45.9961 L44.775438,45.9961 L54.150438,70.459 L56.787138,70.459 L29.638638,0 L27.148438,0 L-1.22124533e-15,70.459 Z M28.369138,3.3203 L28.466838,3.3203 L43.896438,43.75 L12.890638,43.75 L28.369138,3.3203 Z" id="Shape"></path>
                </g>
                <line x1="0" y1="930.959" x2="2773" y2="930.959" id="Baseline-L" stroke="#27AAE1" stroke-width="0.5"></line>
                <line x1="0" y1="860.499" x2="2773" y2="860.499" id="Capline-L" stroke="#27AAE1" stroke-width="0.5"></line>
                <line x1="1154.3214" y1="405.749" x2="1154.3214" y2="525.079" id="left-margin" stroke="#00AEEF" stroke-width="0.5"></line>
                <line x1="1221.9386" y1="405.749" x2="1221.9386" y2="525.079" id="right-margin" stroke="#00AEEF" stroke-width="0.5"></line>
            </g>
            <g id="Symbols" transform="translate(511.886341, 621.022073)" fill="#000000" fill-rule="nonzero">
                <g id="Black-L" transform="translate(2373.680000, 834.262824)">
                    <path d="M31.106537,101.285 C31.106537,101.285 26.104537,104.195 34.669537,105.179 C45.049537,106.364 50.351537,106.193 61.786537,104.03 C61.786537,104.03 64.797537,105.915 68.999537,107.546 C43.358537,118.533 10.968537,106.91 31.106537,101.285 Z M27.971537,86.947 C27.971537,86.947 22.360537,91.1 30.933537,91.987 C42.021537,93.132 50.774537,93.225 65.929537,90.309 C65.929537,90.309 68.021537,92.433 71.314537,93.594 C40.317537,102.66 5.79453703,94.307 27.971537,86.947 Z" id="Shape"></path>
                    <path d="M54.383537,62.622 C60.704537,69.898 52.726537,76.442 52.726537,76.442 C52.726537,76.442 68.769537,68.162 61.400537,57.79 C54.521537,48.121 49.244537,43.318 77.808537,26.754 C77.807537,26.753 32.970537,37.948 54.383537,62.622 Z" id="Path"></path>
                    <path d="M88.295537,111.891 C88.295537,111.891 91.997537,114.944 84.216537,117.304 C69.420537,121.786 22.621537,123.138 9.62153703,117.483 C4.95253703,115.449 13.713537,112.629 16.469537,112.034 C19.344537,111.413 20.984537,111.526 20.984537,111.526 C15.788537,107.866 -12.603463,118.712 6.56553703,121.824 C58.836537,130.3 101.851537,118.008 88.295537,111.891 Z M33.512537,72.089 C33.512537,72.089 9.71053703,77.744 25.085537,79.8 C31.578537,80.668 44.514537,80.468 56.572537,79.457 C66.424537,78.63 76.313537,76.861 76.313537,76.861 C76.313537,76.861 72.842537,78.351 70.327537,80.065 C46.152537,86.424 -0.54146297,83.462 12.902537,76.962 C24.269537,71.464 33.512537,72.089 33.512537,72.089 L33.512537,72.089 Z M76.214537,95.956 C100.787537,83.19 89.426537,70.919 81.493537,72.573 C79.554537,72.978 78.684537,73.328 78.684537,73.328 C78.684537,73.328 79.407537,72.196 80.783537,71.709 C96.472537,66.195 108.536537,87.976 75.724535,96.601 C75.723537,96.601 76.101537,96.26 76.214537,95.956 Z" id="Shape"></path>
                    <path d="M61.400537,0 C61.400537,0 75.006537,13.614 48.492537,34.543 C27.229537,51.337 43.645537,60.91 48.486537,71.852 C36.072537,60.653 26.966537,50.794 33.074537,41.62 C42.042537,28.153 66.890537,21.623 61.400537,0 Z" id="Path"></path>
                    <path d="M35.930537,130.559 C59.512537,132.067 95.734537,129.722 96.593537,118.56 C96.593537,118.56 94.944537,122.791 77.101537,126.147 C56.970537,129.937 32.137537,129.496 17.413537,127.065 C17.413537,127.065 20.430537,129.562 35.930537,130.559 Z" id="Path"></path>
                </g>
                <g id="Heavy-L" transform="translate(2076.970000, 834.262824)">
                    <path d="M31.106537,101.285 C31.106537,101.285 26.104537,104.195 34.669537,105.179 C45.049537,106.364 50.351537,106.193 61.786537,104.03 C61.786537,104.03 64.797537,105.915 68.999537,107.546 C43.358537,118.533 10.968537,106.91 31.106537,101.285 Z M27.971537,86.947 C27.971537,86.947 22.360537,91.1 30.933537,91.987 C42.021537,93.132 50.774537,93.225 65.929537,90.309 C65.929537,90.309 68.021537,92.433 71.314537,93.594 C40.317537,102.66 5.79453703,94.307 27.971537,86.947 Z" id="Shape"></path>
                    <path d="M54.383537,62.622 C60.704537,69.898 52.726537,76.442 52.726537,76.442 C52.726537,76.442 68.769537,68.162 61.400537,57.79 C54.521537,48.121 49.244537,43.318 77.808537,26.754 C77.807537,26.753 32.970537,37.948 54.383537,62.622 Z" id="Path"></path>
                    <path d="M88.295537,111.891 C88.295537,111.891 91.997537,114.944 84.216537,117.304 C69.420537,121.786 22.621537,123.138 9.62153703,117.483 C4.95253703,115.449 13.713537,112.629 16.469537,112.034 C19.344537,111.413 20.984537,111.526 20.984537,111.526 C15.788537,107.866 -12.603463,118.712 6.56553703,121.824 C58.836537,130.3 101.851537,118.008 88.295537,111.891 Z M33.512537,72.089 C33.512537,72.089 9.71053703,77.744 25.085537,79.8 C31.578537,80.668 44.514537,80.468 56.572537,79.457 C66.424537,78.63 76.313537,76.861 76.313537,76.861 C76.313537,76.861 72.842537,78.351 70.327537,80.065 C46.152537,86.424 -0.54146297,83.462 12.902537,76.962 C24.269537,71.464 33.512537,72.089 33.512537,72.089 L33.512537,72.089 Z M76.214537,95.956 C100.787537,83.19 89.426537,70.919 81.493537,72.573 C79.554537,72.978 78.684537,73.328 78.684537,73.328 C78.684537,73.328 79.407537,72.196 80.783537,71.709 C96.472537,66.195 108.536537,87.976 75.724535,96.601 C75.723537,96.601 76.101537,96.26 76.214537,95.956 Z" id="Shape"></path>
                    <path d="M61.400537,0 C61.400537,0 75.006537,13.614 48.492537,34.543 C27.229537,51.337 43.645537,60.91 48.486537,71.852 C36.072537,60.653 26.966537,50.794 33.074537,41.62 C42.042537,28.153 66.890537,21.623 61.400537,0 Z" id="Path"></path>
                    <path d="M35.930537,130.559 C59.512537,132.067 95.734537,129.722 96.593537,118.56 C96.593537,118.56 94.944537,122.791 77.101537,126.147 C56.970537,129.937 32.137537,129.496 17.413537,127.065 C17.413537,127.065 20.430537,129.562 35.930537,130.559 Z" id="Path"></path>
                </g>
                <g id="Bold-L" transform="translate(1780.260000, 834.262824)">
                    <path d="M31.106537,101.285 C31.106537,101.285 26.104537,104.195 34.669537,105.179 C45.049537,106.364 50.351537,106.193 61.786537,104.03 C61.786537,104.03 64.797537,105.915 68.999537,107.546 C43.358537,118.533 10.968537,106.91 31.106537,101.285 Z M27.971537,86.947 C27.971537,86.947 22.360537,91.1 30.933537,91.987 C42.021537,93.132 50.774537,93.225 65.929537,90.309 C65.929537,90.309 68.021537,92.433 71.314537,93.594 C40.317537,102.66 5.79453703,94.307 27.971537,86.947 Z" id="Shape"></path>
                    <path d="M54.383537,62.622 C60.704537,69.898 52.726537,76.442 52.726537,76.442 C52.726537,76.442 68.769537,68.162 61.400537,57.79 C54.521537,48.121 49.244537,43.318 77.808537,26.754 C77.807537,26.753 32.970537,37.948 54.383537,62.622 Z" id="Path"></path>
                    <path d="M88.295537,111.891 C88.295537,111.891 91.997537,114.944 84.216537,117.304 C69.420537,121.786 22.621537,123.138 9.62153703,117.483 C4.95253703,115.449 13.713537,112.629 16.469537,112.034 C19.344537,111.413 20.984537,111.526 20.984537,111.526 C15.788537,107.866 -12.603463,118.712 6.56553703,121.824 C58.836537,130.3 101.851537,118.008 88.295537,111.891 Z M33.512537,72.089 C33.512537,72.089 9.71053703,77.744 25.085537,79.8 C31.578537,80.668 44.514537,80.468 56.572537,79.457 C66.424537,78.63 76.313537,76.861 76.313537,76.861 C76.313537,76.861 72.842537,78.351 70.327537,80.065 C46.152537,86.424 -0.54146297,83.462 12.902537,76.962 C24.269537,71.464 33.512537,72.089 33.512537,72.089 L33.512537,72.089 Z M76.214537,95.956 C100.787537,83.19 89.426537,70.919 81.493537,72.573 C79.554537,72.978 78.684537,73.328 78.684537,73.328 C78.684537,73.328 79.407537,72.196 80.783537,71.709 C96.472537,66.195 108.536537,87.976 75.724535,96.601 C75.723537,96.601 76.101537,96.26 76.214537,95.956 Z" id="Shape"></path>
                    <path d="M61.400537,0 C61.400537,0 75.006537,13.614 48.492537,34.543 C27.229537,51.337 43.645537,60.91 48.486537,71.852 C36.072537,60.653 26.966537,50.794 33.074537,41.62 C42.042537,28.153 66.890537,21.623 61.400537,0 Z" id="Path"></path>
                    <path d="M35.930537,130.559 C59.512537,132.067 95.734537,129.722 96.593537,118.56 C96.593537,118.56 94.944537,122.791 77.101537,126.147 C56.970537,129.937 32.137537,129.496 17.413537,127.065 C17.413537,127.065 20.430537,129.562 35.930537,130.559 Z" id="Path"></path>
                </g>
                <g id="Semibold-L" transform="translate(1483.550000, 834.262824)">
                    <path d="M31.106537,101.285 C31.106537,101.285 26.104537,104.195 34.669537,105.179 C45.049537,106.364 50.351537,106.193 61.786537,104.03 C61.786537,104.03 64.797537,105.915 68.999537,107.546 C43.358537,118.533 10.968537,106.91 31.106537,101.285 Z M27.971537,86.947 C27.971537,86.947 22.360537,91.1 30.933537,91.987 C42.021537,93.132 50.774537,93.225 65.929537,90.309 C65.929537,90.309 68.021537,92.433 71.314537,93.594 C40.317537,102.66 5.79453703,94.307 27.971537,86.947 Z" id="Shape"></path>
                    <path d="M54.383537,62.622 C60.704537,69.898 52.726537,76.442 52.726537,76.442 C52.726537,76.442 68.769537,68.162 61.400537,57.79 C54.521537,48.121 49.244537,43.318 77.808537,26.754 C77.807537,26.753 32.970537,37.948 54.383537,62.622 Z" id="Path"></path>
                    <path d="M88.295537,111.891 C88.295537,111.891 91.997537,114.944 84.216537,117.304 C69.420537,121.786 22.621537,123.138 9.62153703,117.483 C4.95253703,115.449 13.713537,112.629 16.469537,112.034 C19.344537,111.413 20.984537,111.526 20.984537,111.526 C15.788537,107.866 -12.603463,118.712 6.56553703,121.824 C58.836537,130.3 101.851537,118.008 88.295537,111.891 Z M33.512537,72.089 C33.512537,72.089 9.71053703,77.744 25.085537,79.8 C31.578537,80.668 44.514537,80.468 56.572537,79.457 C66.424537,78.63 76.313537,76.861 76.313537,76.861 C76.313537,76.861 72.842537,78.351 70.327537,80.065 C46.152537,86.424 -0.54146297,83.462 12.902537,76.962 C24.269537,71.464 33.512537,72.089 33.512537,72.089 L33.512537,72.089 Z M76.214537,95.956 C100.787537,83.19 89.426537,70.919 81.493537,72.573 C79.554537,72.978 78.684537,73.328 78.684537,73.328 C78.684537,73.328 79.407537,72.196 80.783537,71.709 C96.472537,66.195 108.536537,87.976 75.724535,96.601 C75.723537,96.601 76.101537,96.26 76.214537,95.956 Z" id="Shape"></path>
                    <path d="M61.400537,0 C61.400537,0 75.006537,13.614 48.492537,34.543 C27.229537,51.337 43.645537,60.91 48.486537,71.852 C36.072537,60.653 26.966537,50.794 33.074537,41.62 C42.042537,28.153 66.890537,21.623 61.400537,0 Z" id="Path"></path>
                    <path d="M35.930537,130.559 C59.512537,132.067 95.734537,129.722 96.593537,118.56 C96.593537,118.56 94.944537,122.791 77.101537,126.147 C56.970537,129.937 32.137537,129.496 17.413537,127.065 C17.413537,127.065 20.430537,129.562 35.930537,130.559 Z" id="Path"></path>
                </g>
                <g id="Medium-L" transform="translate(1186.840000, 834.262824)">
                    <path d="M31.106537,101.285 C31.106537,101.285 26.104537,104.195 34.669537,105.179 C45.049537,106.364 50.351537,106.193 61.786537,104.03 C61.786537,104.03 64.797537,105.915 68.999537,107.546 C43.358537,118.533 10.968537,106.91 31.106537,101.285 Z M27.971537,86.947 C27.971537,86.947 22.360537,91.1 30.933537,91.987 C42.021537,93.132 50.774537,93.225 65.929537,90.309 C65.929537,90.309 68.021537,92.433 71.314537,93.594 C40.317537,102.66 5.79453703,94.307 27.971537,86.947 Z" id="Shape"></path>
                    <path d="M54.383537,62.622 C60.704537,69.898 52.726537,76.442 52.726537,76.442 C52.726537,76.442 68.769537,68.162 61.400537,57.79 C54.521537,48.121 49.244537,43.318 77.808537,26.754 C77.807537,26.753 32.970537,37.948 54.383537,62.622 Z" id="Path"></path>
                    <path d="M88.295537,111.891 C88.295537,111.891 91.997537,114.944 84.216537,117.304 C69.420537,121.786 22.621537,123.138 9.62153703,117.483 C4.95253703,115.449 13.713537,112.629 16.469537,112.034 C19.344537,111.413 20.984537,111.526 20.984537,111.526 C15.788537,107.866 -12.603463,118.712 6.56553703,121.824 C58.836537,130.3 101.851537,118.008 88.295537,111.891 Z M33.512537,72.089 C33.512537,72.089 9.71053703,77.744 25.085537,79.8 C31.578537,80.668 44.514537,80.468 56.572537,79.457 C66.424537,78.63 76.313537,76.861 76.313537,76.861 C76.313537,76.861 72.842537,78.351 70.327537,80.065 C46.152537,86.424 -0.54146297,83.462 12.902537,76.962 C24.269537,71.464 33.512537,72.089 33.512537,72.089 L33.512537,72.089 Z M76.214537,95.956 C100.787537,83.19 89.426537,70.919 81.493537,72.573 C79.554537,72.978 78.684537,73.328 78.684537,73.328 C78.684537,73.328 79.407537,72.196 80.783537,71.709 C96.472537,66.195 108.536537,87.976 75.724535,96.601 C75.723537,96.601 76.101537,96.26 76.214537,95.956 Z" id="Shape"></path>
                    <path d="M61.400537,0 C61.400537,0 75.006537,13.614 48.492537,34.543 C27.229537,51.337 43.645537,60.91 48.486537,71.852 C36.072537,60.653 26.966537,50.794 33.074537,41.62 C42.042537,28.153 66.890537,21.623 61.400537,0 Z" id="Path"></path>
                    <path d="M35.930537,130.559 C59.512537,132.067 95.734537,129.722 96.593537,118.56 C96.593537,118.56 94.944537,122.791 77.101537,126.147 C56.970537,129.937 32.137537,129.496 17.413537,127.065 C17.413537,127.065 20.430537,129.562 35.930537,130.559 Z" id="Path"></path>
                </g>
                <g id="Regular-L" transform="translate(890.130000, 834.262824)">
                    <path d="M31.106537,101.285 C31.106537,101.285 26.104537,104.195 34.669537,105.179 C45.049537,106.364 50.351537,106.193 61.786537,104.03 C61.786537,104.03 64.797537,105.915 68.999537,107.546 C43.358537,118.533 10.968537,106.91 31.106537,101.285 Z M27.971537,86.947 C27.971537,86.947 22.360537,91.1 30.933537,91.987 C42.021537,93.132 50.774537,93.225 65.929537,90.309 C65.929537,90.309 68.021537,92.433 71.314537,93.594 C40.317537,102.66 5.79453703,94.307 27.971537,86.947 Z" id="Shape"></path>
                    <path d="M54.383537,62.622 C60.704537,69.898 52.726537,76.442 52.726537,76.442 C52.726537,76.442 68.769537,68.162 61.400537,57.79 C54.521537,48.121 49.244537,43.318 77.808537,26.754 C77.807537,26.753 32.970537,37.948 54.383537,62.622 Z" id="Path"></path>
                    <path d="M88.295537,111.891 C88.295537,111.891 91.997537,114.944 84.216537,117.304 C69.420537,121.786 22.621537,123.138 9.62153703,117.483 C4.95253703,115.449 13.713537,112.629 16.469537,112.034 C19.344537,111.413 20.984537,111.526 20.984537,111.526 C15.788537,107.866 -12.603463,118.712 6.56553703,121.824 C58.836537,130.3 101.851537,118.008 88.295537,111.891 Z M33.512537,72.089 C33.512537,72.089 9.71053703,77.744 25.085537,79.8 C31.578537,80.668 44.514537,80.468 56.572537,79.457 C66.424537,78.63 76.313537,76.861 76.313537,76.861 C76.313537,76.861 72.842537,78.351 70.327537,80.065 C46.152537,86.424 -0.54146297,83.462 12.902537,76.962 C24.269537,71.464 33.512537,72.089 33.512537,72.089 L33.512537,72.089 Z M76.214537,95.956 C100.787537,83.19 89.426537,70.919 81.493537,72.573 C79.554537,72.978 78.684537,73.328 78.684537,73.328 C78.684537,73.328 79.407537,72.196 80.783537,71.709 C96.472537,66.195 108.536537,87.976 75.724535,96.601 C75.723537,96.601 76.101537,96.26 76.214537,95.956 Z" id="Shape"></path>
                    <path d="M61.400537,0 C61.400537,0 75.006537,13.614 48.492537,34.543 C27.229537,51.337 43.645537,60.91 48.486537,71.852 C36.072537,60.653 26.966537,50.794 33.074537,41.62 C42.042537,28.153 66.890537,21.623 61.400537,0 Z" id="Path"></path>
                    <path d="M35.930537,130.559 C59.512537,132.067 95.734537,129.722 96.593537,118.56 C96.593537,118.56 94.944537,122.791 77.101537,126.147 C56.970537,129.937 32.137537,129.496 17.413537,127.065 C17.413537,127.065 20.430537,129.562 35.930537,130.559 Z" id="Path"></path>
                </g>
                <g id="Light-L" transform="translate(593.420000, 834.262824)">
                    <path d="M31.106537,101.285 C31.106537,101.285 26.104537,104.195 34.669537,105.179 C45.049537,106.364 50.351537,106.193 61.786537,104.03 C61.786537,104.03 64.797537,105.915 68.999537,107.546 C43.358537,118.533 10.968537,106.91 31.106537,101.285 Z M27.971537,86.947 C27.971537,86.947 22.360537,91.1 30.933537,91.987 C42.021537,93.132 50.774537,93.225 65.929537,90.309 C65.929537,90.309 68.021537,92.433 71.314537,93.594 C40.317537,102.66 5.79453703,94.307 27.971537,86.947 Z" id="Shape"></path>
                    <path d="M54.383537,62.622 C60.704537,69.898 52.726537,76.442 52.726537,76.442 C52.726537,76.442 68.769537,68.162 61.400537,57.79 C54.521537,48.121 49.244537,43.318 77.808537,26.754 C77.807537,26.753 32.970537,37.948 54.383537,62.622 Z" id="Path"></path>
                    <path d="M88.295537,111.891 C88.295537,111.891 91.997537,114.944 84.216537,117.304 C69.420537,121.786 22.621537,123.138 9.62153703,117.483 C4.95253703,115.449 13.713537,112.629 16.469537,112.034 C19.344537,111.413 20.984537,111.526 20.984537,111.526 C15.788537,107.866 -12.603463,118.712 6.56553703,121.824 C58.836537,130.3 101.851537,118.008 88.295537,111.891 Z M33.512537,72.089 C33.512537,72.089 9.71053703,77.744 25.085537,79.8 C31.578537,80.668 44.514537,80.468 56.572537,79.457 C66.424537,78.63 76.313537,76.861 76.313537,76.861 C76.313537,76.861 72.842537,78.351 70.327537,80.065 C46.152537,86.424 -0.54146297,83.462 12.902537,76.962 C24.269537,71.464 33.512537,72.089 33.512537,72.089 L33.512537,72.089 Z M76.214537,95.956 C100.787537,83.19 89.426537,70.919 81.493537,72.573 C79.554537,72.978 78.684537,73.328 78.684537,73.328 C78.684537,73.328 79.407537,72.196 80.783537,71.709 C96.472537,66.195 108.536537,87.976 75.724535,96.601 C75.723537,96.601 76.101537,96.26 76.214537,95.956 Z" id="Shape"></path>
                    <path d="M61.400537,0 C61.400537,0 75.006537,13.614 48.492537,34.543 C27.229537,51.337 43.645537,60.91 48.486537,71.852 C36.072537,60.653 26.966537,50.794 33.074537,41.62 C42.042537,28.153 66.890537,21.623 61.400537,0 Z" id="Path"></path>
                    <path d="M35.930537,130.559 C59.512537,132.067 95.734537,129.722 96.593537,118.56 C96.593537,118.56 94.944537,122.791 77.101537,126.147 C56.970537,129.937 32.137537,129.496 17.413537,127.065 C17.413537,127.065 20.430537,129.562 35.930537,130.559 Z" id="Path"></path>
                </g>
                <g id="Thin-L" transform="translate(296.710000, 834.262824)">
                    <path d="M31.106537,101.285 C31.106537,101.285 26.104537,104.195 34.669537,105.179 C45.049537,106.364 50.351537,106.193 61.786537,104.03 C61.786537,104.03 64.797537,105.915 68.999537,107.546 C43.358537,118.533 10.968537,106.91 31.106537,101.285 Z M27.971537,86.947 C27.971537,86.947 22.360537,91.1 30.933537,91.987 C42.021537,93.132 50.774537,93.225 65.929537,90.309 C65.929537,90.309 68.021537,92.433 71.314537,93.594 C40.317537,102.66 5.79453703,94.307 27.971537,86.947 Z" id="Shape"></path>
                    <path d="M54.383537,62.622 C60.704537,69.898 52.726537,76.442 52.726537,76.442 C52.726537,76.442 68.769537,68.162 61.400537,57.79 C54.521537,48.121 49.244537,43.318 77.808537,26.754 C77.807537,26.753 32.970537,37.948 54.383537,62.622 Z" id="Path"></path>
                    <path d="M88.295537,111.891 C88.295537,111.891 91.997537,114.944 84.216537,117.304 C69.420537,121.786 22.621537,123.138 9.62153703,117.483 C4.95253703,115.449 13.713537,112.629 16.469537,112.034 C19.344537,111.413 20.984537,111.526 20.984537,111.526 C15.788537,107.866 -12.603463,118.712 6.56553703,121.824 C58.836537,130.3 101.851537,118.008 88.295537,111.891 Z M33.512537,72.089 C33.512537,72.089 9.71053703,77.744 25.085537,79.8 C31.578537,80.668 44.514537,80.468 56.572537,79.457 C66.424537,78.63 76.313537,76.861 76.313537,76.861 C76.313537,76.861 72.842537,78.351 70.327537,80.065 C46.152537,86.424 -0.54146297,83.462 12.902537,76.962 C24.269537,71.464 33.512537,72.089 33.512537,72.089 L33.512537,72.089 Z M76.214537,95.956 C100.787537,83.19 89.426537,70.919 81.493537,72.573 C79.554537,72.978 78.684537,73.328 78.684537,73.328 C78.684537,73.328 79.407537,72.196 80.783537,71.709 C96.472537,66.195 108.536537,87.976 75.724535,96.601 C75.723537,96.601 76.101537,96.26 76.214537,95.956 Z" id="Shape"></path>
                    <path d="M61.400537,0 C61.400537,0 75.006537,13.614 48.492537,34.543 C27.229537,51.337 43.645537,60.91 48.486537,71.852 C36.072537,60.653 26.966537,50.794 33.074537,41.62 C42.042537,28.153 66.890537,21.623 61.400537,0 Z" id="Path"></path>
                    <path d="M35.930537,130.559 C59.512537,132.067 95.734537,129.722 96.593537,118.56 C96.593537,118.56 94.944537,122.791 77.101537,126.147 C56.970537,129.937 32.137537,129.496 17.413537,127.065 C17.413537,127.065 20.430537,129.562 35.930537,130.559 Z" id="Path"></path>
                </g>
                <g id="Ultralight-L" transform="translate(0.000000, 834.262824)">
                    <path d="M31.106537,101.285 C31.106537,101.285 26.104537,104.195 34.669537,105.179 C45.049537,106.364 50.351537,106.193 61.786537,104.03 C61.786537,104.03 64.797537,105.915 68.999537,107.546 C43.358537,118.533 10.968537,106.91 31.106537,101.285 Z M27.971537,86.947 C27.971537,86.947 22.360537,91.1 30.933537,91.987 C42.021537,93.132 50.774537,93.225 65.929537,90.309 C65.929537,90.309 68.021537,92.433 71.314537,93.594 C40.317537,102.66 5.79453703,94.307 27.971537,86.947 Z" id="Shape"></path>
                    <path d="M54.383537,62.622 C60.704537,69.898 52.726537,76.442 52.726537,76.442 C52.726537,76.442 68.769537,68.162 61.400537,57.79 C54.521537,48.121 49.244537,43.318 77.808537,26.754 C77.807537,26.753 32.970537,37.948 54.383537,62.622 Z" id="Path"></path>
                    <path d="M88.295537,111.891 C88.295537,111.891 91.997537,114.944 84.216537,117.304 C69.420537,121.786 22.621537,123.138 9.62153703,117.483 C4.95253703,115.449 13.713537,112.629 16.469537,112.034 C19.344537,111.413 20.984537,111.526 20.984537,111.526 C15.788537,107.866 -12.603463,118.712 6.56553703,121.824 C58.836537,130.3 101.851537,118.008 88.295537,111.891 Z M33.512537,72.089 C33.512537,72.089 9.71053703,77.744 25.085537,79.8 C31.578537,80.668 44.514537,80.468 56.572537,79.457 C66.424537,78.63 76.313537,76.861 76.313537,76.861 C76.313537,76.861 72.842537,78.351 70.327537,80.065 C46.152537,86.424 -0.54146297,83.462 12.902537,76.962 C24.269537,71.464 33.512537,72.089 33.512537,72.089 L33.512537,72.089 Z M76.214537,95.956 C100.787537,83.19 89.426537,70.919 81.493537,72.573 C79.554537,72.978 78.684537,73.328 78.684537,73.328 C78.684537,73.328 79.407537,72.196 80.783537,71.709 C96.472537,66.195 108.536537,87.976 75.724535,96.601 C75.723537,96.601 76.101537,96.26 76.214537,95.956 Z" id="Shape"></path>
                    <path d="M61.400537,0 C61.400537,0 75.006537,13.614 48.492537,34.543 C27.229537,51.337 43.645537,60.91 48.486537,71.852 C36.072537,60.653 26.966537,50.794 33.074537,41.62 C42.042537,28.153 66.890537,21.623 61.400537,0 Z" id="Path"></path>
                    <path d="M35.930537,130.559 C59.512537,132.067 95.734537,129.722 96.593537,118.56 C96.593537,118.56 94.944537,122.791 77.101537,126.147 C56.970537,129.937 32.137537,129.496 17.413537,127.065 C17.413537,127.065 20.430537,129.562 35.930537,130.559 Z" id="Path"></path>
                </g>
                <g id="Black-M" transform="translate(2384.721213, 418.984286)">
                    <path d="M24.113786,78.515 C24.113786,78.515 20.235786,80.772 26.875786,81.534 C34.921786,82.453 39.031786,82.32 47.896786,80.644 C47.896786,80.644 50.230786,82.105 53.487786,83.369 C33.610786,91.886 8.50278597,82.876 24.113786,78.515 Z M21.683786,67.401 C21.683786,67.401 17.333786,70.62 23.979786,71.308 C32.574786,72.195 39.359786,72.268 51.107786,70.007 C51.107786,70.007 52.729786,71.654 55.282786,72.553 C31.253786,79.581 4.49178597,73.107 21.683786,67.401 Z" id="Shape"></path>
                    <path d="M42.157786,48.544 C47.057786,54.185 40.873786,59.257 40.873786,59.257 C40.873786,59.257 53.309786,52.839 47.597786,44.798 C42.264786,37.303 38.173786,33.58 60.316786,20.739 C60.315786,20.739 25.558786,29.417 42.157786,48.544 Z" id="Path"></path>
                    <path d="M68.445786,86.737 C68.445786,86.737 71.315786,89.104 65.283786,90.934 C53.813786,94.408 17.535786,95.456 7.45878597,91.072 C3.83878597,89.495 10.630786,87.31 12.766786,86.848 C14.995786,86.366 16.266786,86.454 16.266786,86.454 C12.238786,83.617 -9.77021403,92.025 5.08978597,94.437 C45.609786,101.007 78.954786,91.479 68.445786,86.737 Z M25.978786,55.883 C25.978786,55.883 7.52778597,60.267 19.445786,61.861 C24.479786,62.533 34.506786,62.378 43.854786,61.594 C51.491786,60.953 59.157786,59.582 59.157786,59.582 C59.157786,59.582 56.466786,60.737 54.516786,62.066 C35.776786,66.995 -0.419214032,64.7 10.001786,59.661 C18.812786,55.398 25.978786,55.883 25.978786,55.883 L25.978786,55.883 Z M59.080786,74.384 C78.129786,64.488 69.322786,54.976 63.173786,56.258 C61.669786,56.572 60.995786,56.843 60.995786,56.843 C60.995786,56.843 61.556786,55.966 62.622786,55.589 C74.784786,51.314 84.136786,68.198 58.700786,74.884 C58.700786,74.884 58.993786,74.62 59.080786,74.384 Z" id="Shape"></path>
                    <path d="M47.597786,0 C47.597786,0 58.144786,10.554 37.590786,26.777 C21.107786,39.796 33.832786,47.217 37.585786,55.699 C27.962786,47.018 20.904786,39.375 25.639786,32.263 C32.590786,21.824 51.852786,16.762 47.597786,0 Z" id="Path"></path>
                    <path d="M27.852786,101.209 C46.133786,102.378 74.212786,100.559 74.878786,91.907 C74.878786,91.907 73.599786,95.187 59.768786,97.788 C44.162786,100.726 24.912786,100.384 13.498786,98.5 C13.498786,98.5 15.837786,100.436 27.852786,101.209 Z" id="Path"></path>
                </g>
                <g id="Heavy-M" transform="translate(2088.011213, 418.984286)">
                    <path d="M24.113786,78.515 C24.113786,78.515 20.235786,80.772 26.875786,81.534 C34.921786,82.453 39.031786,82.32 47.896786,80.644 C47.896786,80.644 50.230786,82.105 53.487786,83.369 C33.610786,91.886 8.50278597,82.876 24.113786,78.515 Z M21.683786,67.401 C21.683786,67.401 17.333786,70.62 23.979786,71.308 C32.574786,72.195 39.359786,72.268 51.107786,70.007 C51.107786,70.007 52.729786,71.654 55.282786,72.553 C31.253786,79.581 4.49178597,73.107 21.683786,67.401 Z" id="Shape"></path>
                    <path d="M42.157786,48.544 C47.057786,54.185 40.873786,59.257 40.873786,59.257 C40.873786,59.257 53.309786,52.839 47.597786,44.798 C42.264786,37.303 38.173786,33.58 60.316786,20.739 C60.315786,20.739 25.558786,29.417 42.157786,48.544 Z" id="Path"></path>
                    <path d="M68.445786,86.737 C68.445786,86.737 71.315786,89.104 65.283786,90.934 C53.813786,94.408 17.535786,95.456 7.45878597,91.072 C3.83878597,89.495 10.630786,87.31 12.766786,86.848 C14.995786,86.366 16.266786,86.454 16.266786,86.454 C12.238786,83.617 -9.77021403,92.025 5.08978597,94.437 C45.609786,101.007 78.954786,91.479 68.445786,86.737 Z M25.978786,55.883 C25.978786,55.883 7.52778597,60.267 19.445786,61.861 C24.479786,62.533 34.506786,62.378 43.854786,61.594 C51.491786,60.953 59.157786,59.582 59.157786,59.582 C59.157786,59.582 56.466786,60.737 54.516786,62.066 C35.776786,66.995 -0.419214032,64.7 10.001786,59.661 C18.812786,55.398 25.978786,55.883 25.978786,55.883 L25.978786,55.883 Z M59.080786,74.384 C78.129786,64.488 69.322786,54.976 63.173786,56.258 C61.669786,56.572 60.995786,56.843 60.995786,56.843 C60.995786,56.843 61.556786,55.966 62.622786,55.589 C74.784786,51.314 84.136786,68.198 58.700786,74.884 C58.700786,74.884 58.993786,74.62 59.080786,74.384 Z" id="Shape"></path>
                    <path d="M47.597786,0 C47.597786,0 58.144786,10.554 37.590786,26.777 C21.107786,39.796 33.832786,47.217 37.585786,55.699 C27.962786,47.018 20.904786,39.375 25.639786,32.263 C32.590786,21.824 51.852786,16.762 47.597786,0 Z" id="Path"></path>
                    <path d="M27.852786,101.209 C46.133786,102.378 74.212786,100.559 74.878786,91.907 C74.878786,91.907 73.599786,95.187 59.768786,97.788 C44.162786,100.726 24.912786,100.384 13.498786,98.5 C13.498786,98.5 15.837786,100.436 27.852786,101.209 Z" id="Path"></path>
                </g>
                <g id="Bold-M" transform="translate(1791.301213, 418.984286)">
                    <path d="M24.113786,78.515 C24.113786,78.515 20.235786,80.772 26.875786,81.534 C34.921786,82.453 39.031786,82.32 47.896786,80.644 C47.896786,80.644 50.230786,82.105 53.487786,83.369 C33.610786,91.886 8.50278597,82.876 24.113786,78.515 Z M21.683786,67.401 C21.683786,67.401 17.333786,70.62 23.979786,71.308 C32.574786,72.195 39.359786,72.268 51.107786,70.007 C51.107786,70.007 52.729786,71.654 55.282786,72.553 C31.253786,79.581 4.49178597,73.107 21.683786,67.401 Z" id="Shape"></path>
                    <path d="M42.157786,48.544 C47.057786,54.185 40.873786,59.257 40.873786,59.257 C40.873786,59.257 53.309786,52.839 47.597786,44.798 C42.264786,37.303 38.173786,33.58 60.316786,20.739 C60.315786,20.739 25.558786,29.417 42.157786,48.544 Z" id="Path"></path>
                    <path d="M68.445786,86.737 C68.445786,86.737 71.315786,89.104 65.283786,90.934 C53.813786,94.408 17.535786,95.456 7.45878597,91.072 C3.83878597,89.495 10.630786,87.31 12.766786,86.848 C14.995786,86.366 16.266786,86.454 16.266786,86.454 C12.238786,83.617 -9.77021403,92.025 5.08978597,94.437 C45.609786,101.007 78.954786,91.479 68.445786,86.737 Z M25.978786,55.883 C25.978786,55.883 7.52778597,60.267 19.445786,61.861 C24.479786,62.533 34.506786,62.378 43.854786,61.594 C51.491786,60.953 59.157786,59.582 59.157786,59.582 C59.157786,59.582 56.466786,60.737 54.516786,62.066 C35.776786,66.995 -0.419214032,64.7 10.001786,59.661 C18.812786,55.398 25.978786,55.883 25.978786,55.883 L25.978786,55.883 Z M59.080786,74.384 C78.129786,64.488 69.322786,54.976 63.173786,56.258 C61.669786,56.572 60.995786,56.843 60.995786,56.843 C60.995786,56.843 61.556786,55.966 62.622786,55.589 C74.784786,51.314 84.136786,68.198 58.700786,74.884 C58.700786,74.884 58.993786,74.62 59.080786,74.384 Z" id="Shape"></path>
                    <path d="M47.597786,0 C47.597786,0 58.144786,10.554 37.590786,26.777 C21.107786,39.796 33.832786,47.217 37.585786,55.699 C27.962786,47.018 20.904786,39.375 25.639786,32.263 C32.590786,21.824 51.852786,16.762 47.597786,0 Z" id="Path"></path>
                    <path d="M27.852786,101.209 C46.133786,102.378 74.212786,100.559 74.878786,91.907 C74.878786,91.907 73.599786,95.187 59.768786,97.788 C44.162786,100.726 24.912786,100.384 13.498786,98.5 C13.498786,98.5 15.837786,100.436 27.852786,101.209 Z" id="Path"></path>
                </g>
                <g id="Semibold-M" transform="translate(1494.591213, 418.984286)">
                    <path d="M24.113786,78.515 C24.113786,78.515 20.235786,80.772 26.875786,81.534 C34.921786,82.453 39.031786,82.32 47.896786,80.644 C47.896786,80.644 50.230786,82.105 53.487786,83.369 C33.610786,91.886 8.50278597,82.876 24.113786,78.515 Z M21.683786,67.401 C21.683786,67.401 17.333786,70.62 23.979786,71.308 C32.574786,72.195 39.359786,72.268 51.107786,70.007 C51.107786,70.007 52.729786,71.654 55.282786,72.553 C31.253786,79.581 4.49178597,73.107 21.683786,67.401 Z" id="Shape"></path>
                    <path d="M42.157786,48.544 C47.057786,54.185 40.873786,59.257 40.873786,59.257 C40.873786,59.257 53.309786,52.839 47.597786,44.798 C42.264786,37.303 38.173786,33.58 60.316786,20.739 C60.315786,20.739 25.558786,29.417 42.157786,48.544 Z" id="Path"></path>
                    <path d="M68.445786,86.737 C68.445786,86.737 71.315786,89.104 65.283786,90.934 C53.813786,94.408 17.535786,95.456 7.45878597,91.072 C3.83878597,89.495 10.630786,87.31 12.766786,86.848 C14.995786,86.366 16.266786,86.454 16.266786,86.454 C12.238786,83.617 -9.77021403,92.025 5.08978597,94.437 C45.609786,101.007 78.954786,91.479 68.445786,86.737 Z M25.978786,55.883 C25.978786,55.883 7.52778597,60.267 19.445786,61.861 C24.479786,62.533 34.506786,62.378 43.854786,61.594 C51.491786,60.953 59.157786,59.582 59.157786,59.582 C59.157786,59.582 56.466786,60.737 54.516786,62.066 C35.776786,66.995 -0.419214032,64.7 10.001786,59.661 C18.812786,55.398 25.978786,55.883 25.978786,55.883 L25.978786,55.883 Z M59.080786,74.384 C78.129786,64.488 69.322786,54.976 63.173786,56.258 C61.669786,56.572 60.995786,56.843 60.995786,56.843 C60.995786,56.843 61.556786,55.966 62.622786,55.589 C74.784786,51.314 84.136786,68.198 58.700786,74.884 C58.700786,74.884 58.993786,74.62 59.080786,74.384 Z" id="Shape"></path>
                    <path d="M47.597786,0 C47.597786,0 58.144786,10.554 37.590786,26.777 C21.107786,39.796 33.832786,47.217 37.585786,55.699 C27.962786,47.018 20.904786,39.375 25.639786,32.263 C32.590786,21.824 51.852786,16.762 47.597786,0 Z" id="Path"></path>
                    <path d="M27.852786,101.209 C46.133786,102.378 74.212786,100.559 74.878786,91.907 C74.878786,91.907 73.599786,95.187 59.768786,97.788 C44.162786,100.726 24.912786,100.384 13.498786,98.5 C13.498786,98.5 15.837786,100.436 27.852786,101.209 Z" id="Path"></path>
                </g>
                <g id="Medium-M" transform="translate(1197.881213, 418.984286)">
                    <path d="M24.113786,78.515 C24.113786,78.515 20.235786,80.772 26.875786,81.534 C34.921786,82.453 39.031786,82.32 47.896786,80.644 C47.896786,80.644 50.230786,82.105 53.487786,83.369 C33.610786,91.886 8.50278597,82.876 24.113786,78.515 Z M21.683786,67.401 C21.683786,67.401 17.333786,70.62 23.979786,71.308 C32.574786,72.195 39.359786,72.268 51.107786,70.007 C51.107786,70.007 52.729786,71.654 55.282786,72.553 C31.253786,79.581 4.49178597,73.107 21.683786,67.401 Z" id="Shape"></path>
                    <path d="M42.157786,48.544 C47.057786,54.185 40.873786,59.257 40.873786,59.257 C40.873786,59.257 53.309786,52.839 47.597786,44.798 C42.264786,37.303 38.173786,33.58 60.316786,20.739 C60.315786,20.739 25.558786,29.417 42.157786,48.544 Z" id="Path"></path>
                    <path d="M68.445786,86.737 C68.445786,86.737 71.315786,89.104 65.283786,90.934 C53.813786,94.408 17.535786,95.456 7.45878597,91.072 C3.83878597,89.495 10.630786,87.31 12.766786,86.848 C14.995786,86.366 16.266786,86.454 16.266786,86.454 C12.238786,83.617 -9.77021403,92.025 5.08978597,94.437 C45.609786,101.007 78.954786,91.479 68.445786,86.737 Z M25.978786,55.883 C25.978786,55.883 7.52778597,60.267 19.445786,61.861 C24.479786,62.533 34.506786,62.378 43.854786,61.594 C51.491786,60.953 59.157786,59.582 59.157786,59.582 C59.157786,59.582 56.466786,60.737 54.516786,62.066 C35.776786,66.995 -0.419214032,64.7 10.001786,59.661 C18.812786,55.398 25.978786,55.883 25.978786,55.883 L25.978786,55.883 Z M59.080786,74.384 C78.129786,64.488 69.322786,54.976 63.173786,56.258 C61.669786,56.572 60.995786,56.843 60.995786,56.843 C60.995786,56.843 61.556786,55.966 62.622786,55.589 C74.784786,51.314 84.136786,68.198 58.700786,74.884 C58.700786,74.884 58.993786,74.62 59.080786,74.384 Z" id="Shape"></path>
                    <path d="M47.597786,0 C47.597786,0 58.144786,10.554 37.590786,26.777 C21.107786,39.796 33.832786,47.217 37.585786,55.699 C27.962786,47.018 20.904786,39.375 25.639786,32.263 C32.590786,21.824 51.852786,16.762 47.597786,0 Z" id="Path"></path>
                    <path d="M27.852786,101.209 C46.133786,102.378 74.212786,100.559 74.878786,91.907 C74.878786,91.907 73.599786,95.187 59.768786,97.788 C44.162786,100.726 24.912786,100.384 13.498786,98.5 C13.498786,98.5 15.837786,100.436 27.852786,101.209 Z" id="Path"></path>
                </g>
                <g id="Regular-M" transform="translate(901.171213, 418.984286)">
                    <path d="M24.113786,78.515 C24.113786,78.515 20.235786,80.772 26.875786,81.534 C34.921786,82.453 39.031786,82.32 47.896786,80.644 C47.896786,80.644 50.230786,82.105 53.487786,83.369 C33.610786,91.886 8.50278597,82.876 24.113786,78.515 Z M21.683786,67.401 C21.683786,67.401 17.333786,70.62 23.979786,71.308 C32.574786,72.195 39.359786,72.268 51.107786,70.007 C51.107786,70.007 52.729786,71.654 55.282786,72.553 C31.253786,79.581 4.49178597,73.107 21.683786,67.401 Z" id="Shape"></path>
                    <path d="M42.157786,48.544 C47.057786,54.185 40.873786,59.257 40.873786,59.257 C40.873786,59.257 53.309786,52.839 47.597786,44.798 C42.264786,37.303 38.173786,33.58 60.316786,20.739 C60.315786,20.739 25.558786,29.417 42.157786,48.544 Z" id="Path"></path>
                    <path d="M68.445786,86.737 C68.445786,86.737 71.315786,89.104 65.283786,90.934 C53.813786,94.408 17.535786,95.456 7.45878597,91.072 C3.83878597,89.495 10.630786,87.31 12.766786,86.848 C14.995786,86.366 16.266786,86.454 16.266786,86.454 C12.238786,83.617 -9.77021403,92.025 5.08978597,94.437 C45.609786,101.007 78.954786,91.479 68.445786,86.737 Z M25.978786,55.883 C25.978786,55.883 7.52778597,60.267 19.445786,61.861 C24.479786,62.533 34.506786,62.378 43.854786,61.594 C51.491786,60.953 59.157786,59.582 59.157786,59.582 C59.157786,59.582 56.466786,60.737 54.516786,62.066 C35.776786,66.995 -0.419214032,64.7 10.001786,59.661 C18.812786,55.398 25.978786,55.883 25.978786,55.883 L25.978786,55.883 Z M59.080786,74.384 C78.129786,64.488 69.322786,54.976 63.173786,56.258 C61.669786,56.572 60.995786,56.843 60.995786,56.843 C60.995786,56.843 61.556786,55.966 62.622786,55.589 C74.784786,51.314 84.136786,68.198 58.700786,74.884 C58.700786,74.884 58.993786,74.62 59.080786,74.384 Z" id="Shape"></path>
                    <path d="M47.597786,0 C47.597786,0 58.144786,10.554 37.590786,26.777 C21.107786,39.796 33.832786,47.217 37.585786,55.699 C27.962786,47.018 20.904786,39.375 25.639786,32.263 C32.590786,21.824 51.852786,16.762 47.597786,0 Z" id="Path"></path>
                    <path d="M27.852786,101.209 C46.133786,102.378 74.212786,100.559 74.878786,91.907 C74.878786,91.907 73.599786,95.187 59.768786,97.788 C44.162786,100.726 24.912786,100.384 13.498786,98.5 C13.498786,98.5 15.837786,100.436 27.852786,101.209 Z" id="Path"></path>
                </g>
                <g id="Light-M" transform="translate(604.461213, 418.984286)">
                    <path d="M24.113786,78.515 C24.113786,78.515 20.235786,80.772 26.875786,81.534 C34.921786,82.453 39.031786,82.32 47.896786,80.644 C47.896786,80.644 50.230786,82.105 53.487786,83.369 C33.610786,91.886 8.50278597,82.876 24.113786,78.515 Z M21.683786,67.401 C21.683786,67.401 17.333786,70.62 23.979786,71.308 C32.574786,72.195 39.359786,72.268 51.107786,70.007 C51.107786,70.007 52.729786,71.654 55.282786,72.553 C31.253786,79.581 4.49178597,73.107 21.683786,67.401 Z" id="Shape"></path>
                    <path d="M42.157786,48.544 C47.057786,54.185 40.873786,59.257 40.873786,59.257 C40.873786,59.257 53.309786,52.839 47.597786,44.798 C42.264786,37.303 38.173786,33.58 60.316786,20.739 C60.315786,20.739 25.558786,29.417 42.157786,48.544 Z" id="Path"></path>
                    <path d="M68.445786,86.737 C68.445786,86.737 71.315786,89.104 65.283786,90.934 C53.813786,94.408 17.535786,95.456 7.45878597,91.072 C3.83878597,89.495 10.630786,87.31 12.766786,86.848 C14.995786,86.366 16.266786,86.454 16.266786,86.454 C12.238786,83.617 -9.77021403,92.025 5.08978597,94.437 C45.609786,101.007 78.954786,91.479 68.445786,86.737 Z M25.978786,55.883 C25.978786,55.883 7.52778597,60.267 19.445786,61.861 C24.479786,62.533 34.506786,62.378 43.854786,61.594 C51.491786,60.953 59.157786,59.582 59.157786,59.582 C59.157786,59.582 56.466786,60.737 54.516786,62.066 C35.776786,66.995 -0.419214032,64.7 10.001786,59.661 C18.812786,55.398 25.978786,55.883 25.978786,55.883 L25.978786,55.883 Z M59.080786,74.384 C78.129786,64.488 69.322786,54.976 63.173786,56.258 C61.669786,56.572 60.995786,56.843 60.995786,56.843 C60.995786,56.843 61.556786,55.966 62.622786,55.589 C74.784786,51.314 84.136786,68.198 58.700786,74.884 C58.700786,74.884 58.993786,74.62 59.080786,74.384 Z" id="Shape"></path>
                    <path d="M47.597786,0 C47.597786,0 58.144786,10.554 37.590786,26.777 C21.107786,39.796 33.832786,47.217 37.585786,55.699 C27.962786,47.018 20.904786,39.375 25.639786,32.263 C32.590786,21.824 51.852786,16.762 47.597786,0 Z" id="Path"></path>
                    <path d="M27.852786,101.209 C46.133786,102.378 74.212786,100.559 74.878786,91.907 C74.878786,91.907 73.599786,95.187 59.768786,97.788 C44.162786,100.726 24.912786,100.384 13.498786,98.5 C13.498786,98.5 15.837786,100.436 27.852786,101.209 Z" id="Path"></path>
                </g>
                <g id="Thin-M" transform="translate(307.751213, 418.984286)">
                    <path d="M24.113786,78.515 C24.113786,78.515 20.235786,80.772 26.875786,81.534 C34.921786,82.453 39.031786,82.32 47.896786,80.644 C47.896786,80.644 50.230786,82.105 53.487786,83.369 C33.610786,91.886 8.50278597,82.876 24.113786,78.515 Z M21.683786,67.401 C21.683786,67.401 17.333786,70.62 23.979786,71.308 C32.574786,72.195 39.359786,72.268 51.107786,70.007 C51.107786,70.007 52.729786,71.654 55.282786,72.553 C31.253786,79.581 4.49178597,73.107 21.683786,67.401 Z" id="Shape"></path>
                    <path d="M42.157786,48.544 C47.057786,54.185 40.873786,59.257 40.873786,59.257 C40.873786,59.257 53.309786,52.839 47.597786,44.798 C42.264786,37.303 38.173786,33.58 60.316786,20.739 C60.315786,20.739 25.558786,29.417 42.157786,48.544 Z" id="Path"></path>
                    <path d="M68.445786,86.737 C68.445786,86.737 71.315786,89.104 65.283786,90.934 C53.813786,94.408 17.535786,95.456 7.45878597,91.072 C3.83878597,89.495 10.630786,87.31 12.766786,86.848 C14.995786,86.366 16.266786,86.454 16.266786,86.454 C12.238786,83.617 -9.77021403,92.025 5.08978597,94.437 C45.609786,101.007 78.954786,91.479 68.445786,86.737 Z M25.978786,55.883 C25.978786,55.883 7.52778597,60.267 19.445786,61.861 C24.479786,62.533 34.506786,62.378 43.854786,61.594 C51.491786,60.953 59.157786,59.582 59.157786,59.582 C59.157786,59.582 56.466786,60.737 54.516786,62.066 C35.776786,66.995 -0.419214032,64.7 10.001786,59.661 C18.812786,55.398 25.978786,55.883 25.978786,55.883 L25.978786,55.883 Z M59.080786,74.384 C78.129786,64.488 69.322786,54.976 63.173786,56.258 C61.669786,56.572 60.995786,56.843 60.995786,56.843 C60.995786,56.843 61.556786,55.966 62.622786,55.589 C74.784786,51.314 84.136786,68.198 58.700786,74.884 C58.700786,74.884 58.993786,74.62 59.080786,74.384 Z" id="Shape"></path>
                    <path d="M47.597786,0 C47.597786,0 58.144786,10.554 37.590786,26.777 C21.107786,39.796 33.832786,47.217 37.585786,55.699 C27.962786,47.018 20.904786,39.375 25.639786,32.263 C32.590786,21.824 51.852786,16.762 47.597786,0 Z" id="Path"></path>
                    <path d="M27.852786,101.209 C46.133786,102.378 74.212786,100.559 74.878786,91.907 C74.878786,91.907 73.599786,95.187 59.768786,97.788 C44.162786,100.726 24.912786,100.384 13.498786,98.5 C13.498786,98.5 15.837786,100.436 27.852786,101.209 Z" id="Path"></path>
                </g>
                <g id="Ultralight-M" transform="translate(11.041213, 418.984286)">
                    <path d="M24.113786,78.515 C24.113786,78.515 20.235786,80.772 26.875786,81.534 C34.921786,82.453 39.031786,82.32 47.896786,80.644 C47.896786,80.644 50.230786,82.105 53.487786,83.369 C33.610786,91.886 8.50278597,82.876 24.113786,78.515 Z M21.683786,67.401 C21.683786,67.401 17.333786,70.62 23.979786,71.308 C32.574786,72.195 39.359786,72.268 51.107786,70.007 C51.107786,70.007 52.729786,71.654 55.282786,72.553 C31.253786,79.581 4.49178597,73.107 21.683786,67.401 Z" id="Shape"></path>
                    <path d="M42.157786,48.544 C47.057786,54.185 40.873786,59.257 40.873786,59.257 C40.873786,59.257 53.309786,52.839 47.597786,44.798 C42.264786,37.303 38.173786,33.58 60.316786,20.739 C60.315786,20.739 25.558786,29.417 42.157786,48.544 Z" id="Path"></path>
                    <path d="M68.445786,86.737 C68.445786,86.737 71.315786,89.104 65.283786,90.934 C53.813786,94.408 17.535786,95.456 7.45878597,91.072 C3.83878597,89.495 10.630786,87.31 12.766786,86.848 C14.995786,86.366 16.266786,86.454 16.266786,86.454 C12.238786,83.617 -9.77021403,92.025 5.08978597,94.437 C45.609786,101.007 78.954786,91.479 68.445786,86.737 Z M25.978786,55.883 C25.978786,55.883 7.52778597,60.267 19.445786,61.861 C24.479786,62.533 34.506786,62.378 43.854786,61.594 C51.491786,60.953 59.157786,59.582 59.157786,59.582 C59.157786,59.582 56.466786,60.737 54.516786,62.066 C35.776786,66.995 -0.419214032,64.7 10.001786,59.661 C18.812786,55.398 25.978786,55.883 25.978786,55.883 L25.978786,55.883 Z M59.080786,74.384 C78.129786,64.488 69.322786,54.976 63.173786,56.258 C61.669786,56.572 60.995786,56.843 60.995786,56.843 C60.995786,56.843 61.556786,55.966 62.622786,55.589 C74.784786,51.314 84.136786,68.198 58.700786,74.884 C58.700786,74.884 58.993786,74.62 59.080786,74.384 Z" id="Shape"></path>
                    <path d="M47.597786,0 C47.597786,0 58.144786,10.554 37.590786,26.777 C21.107786,39.796 33.832786,47.217 37.585786,55.699 C27.962786,47.018 20.904786,39.375 25.639786,32.263 C32.590786,21.824 51.852786,16.762 47.597786,0 Z" id="Path"></path>
                    <path d="M27.852786,101.209 C46.133786,102.378 74.212786,100.559 74.878786,91.907 C74.878786,91.907 73.599786,95.187 59.768786,97.788 C44.162786,100.726 24.912786,100.384 13.498786,98.5 C13.498786,98.5 15.837786,100.436 27.852786,101.209 Z" id="Path"></path>
                </g>
                <g id="Black-S" transform="translate(2392.982622, -0.000000)">
                    <path d="M18.8810908,61.477 C18.8810908,61.477 15.8450908,63.244 21.0440908,63.841 C27.3440908,64.56 30.5620908,64.457 37.5030908,63.144 C37.5030908,63.144 39.3310908,64.288 41.8810908,65.278 C26.3180908,71.947 6.65809079,64.892 18.8810908,61.477 Z M16.9780908,52.775 C16.9780908,52.775 13.5720908,55.296 18.7760908,55.834 C25.5060908,56.529 30.8190908,56.586 40.0180908,54.816 C40.0180908,54.816 41.2880908,56.105 43.2870908,56.809 C24.4720908,62.312 3.51709079,57.242 16.9780908,52.775 Z" id="Shape"></path>
                    <path d="M33.0100908,38.01 C36.8460908,42.427 32.0040908,46.398 32.0040908,46.398 C32.0040908,46.398 41.7420908,41.373 37.2690908,35.077 C33.0930908,29.208 29.8900908,26.293 47.2280908,16.239 C47.2270908,16.238 20.0130908,23.033 33.0100908,38.01 Z" id="Path"></path>
                    <path d="M53.5930908,67.915 C53.5930908,67.915 55.8410908,69.768 51.1180908,71.201 C42.1370908,73.921 13.7310908,74.742 5.84009079,71.309 C3.00609079,70.075 8.32409079,68.363 9.99709079,68.002 C11.7420908,67.625 12.7370908,67.693 12.7370908,67.693 C9.58309079,65.472 -7.64990921,72.056 3.98509079,73.944 C35.7130908,79.089 61.8220908,71.628 53.5930908,67.915 Z M20.3420908,43.757 C20.3420908,43.757 5.89409079,47.189 15.2260908,48.437 C19.1680908,48.964 27.0190908,48.842 34.3380908,48.228 C40.3180908,47.727 46.3210908,46.653 46.3210908,46.653 C46.3210908,46.653 44.2140908,47.557 42.6870908,48.598 C28.0140908,52.457 -0.32790921,50.66 7.83209079,46.714 C14.7310908,43.377 20.3420908,43.757 20.3420908,43.757 L20.3420908,43.757 Z M46.2610908,58.243 C61.1760908,50.494 54.2800908,43.046 49.4650908,44.05 C48.2880908,44.296 47.7600908,44.508 47.7600908,44.508 C47.7600908,44.508 48.1990908,43.821 49.0340908,43.526 C58.5570908,40.179 65.8790908,53.399 45.9630908,58.635 C45.9630908,58.635 46.1920908,58.427 46.2610908,58.243 Z" id="Shape"></path>
                    <path d="M37.2690908,0 C37.2690908,0 45.5270908,8.264 29.4340908,20.967 C16.5280908,31.16 26.4920908,36.971 29.4300908,43.612 C21.8950908,36.815 16.3680908,30.831 20.0760908,25.262 C25.5190908,17.088 40.6010908,13.124 37.2690908,0 Z" id="Path"></path>
                    <path d="M21.8090908,79.246 C36.1230908,80.162 58.1080908,78.738 58.6300908,71.963 C58.6300908,71.963 57.6290908,74.531 46.7990908,76.568 C34.5800908,78.869 19.5070908,78.601 10.5700908,77.126 C10.5700908,77.126 12.4010908,78.641 21.8090908,79.246 Z" id="Path"></path>
                </g>
                <g id="Heavy-S" transform="translate(2096.272622, -0.000000)">
                    <path d="M18.8810908,61.477 C18.8810908,61.477 15.8450908,63.244 21.0440908,63.841 C27.3440908,64.56 30.5620908,64.457 37.5030908,63.144 C37.5030908,63.144 39.3310908,64.288 41.8810908,65.278 C26.3180908,71.947 6.65809079,64.892 18.8810908,61.477 Z M16.9780908,52.775 C16.9780908,52.775 13.5720908,55.296 18.7760908,55.834 C25.5060908,56.529 30.8190908,56.586 40.0180908,54.816 C40.0180908,54.816 41.2880908,56.105 43.2870908,56.809 C24.4720908,62.312 3.51709079,57.242 16.9780908,52.775 Z" id="Shape"></path>
                    <path d="M33.0100908,38.01 C36.8460908,42.427 32.0040908,46.398 32.0040908,46.398 C32.0040908,46.398 41.7420908,41.373 37.2690908,35.077 C33.0930908,29.208 29.8900908,26.293 47.2280908,16.239 C47.2270908,16.238 20.0130908,23.033 33.0100908,38.01 Z" id="Path"></path>
                    <path d="M53.5930908,67.915 C53.5930908,67.915 55.8410908,69.768 51.1180908,71.201 C42.1370908,73.921 13.7310908,74.742 5.84009079,71.309 C3.00609079,70.075 8.32409079,68.363 9.99709079,68.002 C11.7420908,67.625 12.7370908,67.693 12.7370908,67.693 C9.58309079,65.472 -7.64990921,72.056 3.98509079,73.944 C35.7130908,79.089 61.8220908,71.628 53.5930908,67.915 Z M20.3420908,43.757 C20.3420908,43.757 5.89409079,47.189 15.2260908,48.437 C19.1680908,48.964 27.0190908,48.842 34.3380908,48.228 C40.3180908,47.727 46.3210908,46.653 46.3210908,46.653 C46.3210908,46.653 44.2140908,47.557 42.6870908,48.598 C28.0140908,52.457 -0.32790921,50.66 7.83209079,46.714 C14.7310908,43.377 20.3420908,43.757 20.3420908,43.757 L20.3420908,43.757 Z M46.2610908,58.243 C61.1760908,50.494 54.2800908,43.046 49.4650908,44.05 C48.2880908,44.296 47.7600908,44.508 47.7600908,44.508 C47.7600908,44.508 48.1990908,43.821 49.0340908,43.526 C58.5570908,40.179 65.8790908,53.399 45.9630908,58.635 C45.9630908,58.635 46.1920908,58.427 46.2610908,58.243 Z" id="Shape"></path>
                    <path d="M37.2690908,0 C37.2690908,0 45.5270908,8.264 29.4340908,20.967 C16.5280908,31.16 26.4920908,36.971 29.4300908,43.612 C21.8950908,36.815 16.3680908,30.831 20.0760908,25.262 C25.5190908,17.088 40.6010908,13.124 37.2690908,0 Z" id="Path"></path>
                    <path d="M21.8090908,79.246 C36.1230908,80.162 58.1080908,78.738 58.6300908,71.963 C58.6300908,71.963 57.6290908,74.531 46.7990908,76.568 C34.5800908,78.869 19.5070908,78.601 10.5700908,77.126 C10.5700908,77.126 12.4010908,78.641 21.8090908,79.246 Z" id="Path"></path>
                </g>
                <g id="Bold-S" transform="translate(1799.562622, -0.000000)">
                    <path d="M18.8810908,61.477 C18.8810908,61.477 15.8450908,63.244 21.0440908,63.841 C27.3440908,64.56 30.5620908,64.457 37.5030908,63.144 C37.5030908,63.144 39.3310908,64.288 41.8810908,65.278 C26.3180908,71.947 6.65809079,64.892 18.8810908,61.477 Z M16.9780908,52.775 C16.9780908,52.775 13.5720908,55.296 18.7760908,55.834 C25.5060908,56.529 30.8190908,56.586 40.0180908,54.816 C40.0180908,54.816 41.2880908,56.105 43.2870908,56.809 C24.4720908,62.312 3.51709079,57.242 16.9780908,52.775 Z" id="Shape"></path>
                    <path d="M33.0100908,38.01 C36.8460908,42.427 32.0040908,46.398 32.0040908,46.398 C32.0040908,46.398 41.7420908,41.373 37.2690908,35.077 C33.0930908,29.208 29.8900908,26.293 47.2280908,16.239 C47.2270908,16.238 20.0130908,23.033 33.0100908,38.01 Z" id="Path"></path>
                    <path d="M53.5930908,67.915 C53.5930908,67.915 55.8410908,69.768 51.1180908,71.201 C42.1370908,73.921 13.7310908,74.742 5.84009079,71.309 C3.00609079,70.075 8.32409079,68.363 9.99709079,68.002 C11.7420908,67.625 12.7370908,67.693 12.7370908,67.693 C9.58309079,65.472 -7.64990921,72.056 3.98509079,73.944 C35.7130908,79.089 61.8220908,71.628 53.5930908,67.915 Z M20.3420908,43.757 C20.3420908,43.757 5.89409079,47.189 15.2260908,48.437 C19.1680908,48.964 27.0190908,48.842 34.3380908,48.228 C40.3180908,47.727 46.3210908,46.653 46.3210908,46.653 C46.3210908,46.653 44.2140908,47.557 42.6870908,48.598 C28.0140908,52.457 -0.32790921,50.66 7.83209079,46.714 C14.7310908,43.377 20.3420908,43.757 20.3420908,43.757 L20.3420908,43.757 Z M46.2610908,58.243 C61.1760908,50.494 54.2800908,43.046 49.4650908,44.05 C48.2880908,44.296 47.7600908,44.508 47.7600908,44.508 C47.7600908,44.508 48.1990908,43.821 49.0340908,43.526 C58.5570908,40.179 65.8790908,53.399 45.9630908,58.635 C45.9630908,58.635 46.1920908,58.427 46.2610908,58.243 Z" id="Shape"></path>
                    <path d="M37.2690908,0 C37.2690908,0 45.5270908,8.264 29.4340908,20.967 C16.5280908,31.16 26.4920908,36.971 29.4300908,43.612 C21.8950908,36.815 16.3680908,30.831 20.0760908,25.262 C25.5190908,17.088 40.6010908,13.124 37.2690908,0 Z" id="Path"></path>
                    <path d="M21.8090908,79.246 C36.1230908,80.162 58.1080908,78.738 58.6300908,71.963 C58.6300908,71.963 57.6290908,74.531 46.7990908,76.568 C34.5800908,78.869 19.5070908,78.601 10.5700908,77.126 C10.5700908,77.126 12.4010908,78.641 21.8090908,79.246 Z" id="Path"></path>
                </g>
                <g id="Semibold-S" transform="translate(1502.852622, -0.000000)">
                    <path d="M18.8810908,61.477 C18.8810908,61.477 15.8450908,63.244 21.0440908,63.841 C27.3440908,64.56 30.5620908,64.457 37.5030908,63.144 C37.5030908,63.144 39.3310908,64.288 41.8810908,65.278 C26.3180908,71.947 6.65809079,64.892 18.8810908,61.477 Z M16.9780908,52.775 C16.9780908,52.775 13.5720908,55.296 18.7760908,55.834 C25.5060908,56.529 30.8190908,56.586 40.0180908,54.816 C40.0180908,54.816 41.2880908,56.105 43.2870908,56.809 C24.4720908,62.312 3.51709079,57.242 16.9780908,52.775 Z" id="Shape"></path>
                    <path d="M33.0100908,38.01 C36.8460908,42.427 32.0040908,46.398 32.0040908,46.398 C32.0040908,46.398 41.7420908,41.373 37.2690908,35.077 C33.0930908,29.208 29.8900908,26.293 47.2280908,16.239 C47.2270908,16.238 20.0130908,23.033 33.0100908,38.01 Z" id="Path"></path>
                    <path d="M53.5930908,67.915 C53.5930908,67.915 55.8410908,69.768 51.1180908,71.201 C42.1370908,73.921 13.7310908,74.742 5.84009079,71.309 C3.00609079,70.075 8.32409079,68.363 9.99709079,68.002 C11.7420908,67.625 12.7370908,67.693 12.7370908,67.693 C9.58309079,65.472 -7.64990921,72.056 3.98509079,73.944 C35.7130908,79.089 61.8220908,71.628 53.5930908,67.915 Z M20.3420908,43.757 C20.3420908,43.757 5.89409079,47.189 15.2260908,48.437 C19.1680908,48.964 27.0190908,48.842 34.3380908,48.228 C40.3180908,47.727 46.3210908,46.653 46.3210908,46.653 C46.3210908,46.653 44.2140908,47.557 42.6870908,48.598 C28.0140908,52.457 -0.32790921,50.66 7.83209079,46.714 C14.7310908,43.377 20.3420908,43.757 20.3420908,43.757 L20.3420908,43.757 Z M46.2610908,58.243 C61.1760908,50.494 54.2800908,43.046 49.4650908,44.05 C48.2880908,44.296 47.7600908,44.508 47.7600908,44.508 C47.7600908,44.508 48.1990908,43.821 49.0340908,43.526 C58.5570908,40.179 65.8790908,53.399 45.9630908,58.635 C45.9630908,58.635 46.1920908,58.427 46.2610908,58.243 Z" id="Shape"></path>
                    <path d="M37.2690908,0 C37.2690908,0 45.5270908,8.264 29.4340908,20.967 C16.5280908,31.16 26.4920908,36.971 29.4300908,43.612 C21.8950908,36.815 16.3680908,30.831 20.0760908,25.262 C25.5190908,17.088 40.6010908,13.124 37.2690908,0 Z" id="Path"></path>
                    <path d="M21.8090908,79.246 C36.1230908,80.162 58.1080908,78.738 58.6300908,71.963 C58.6300908,71.963 57.6290908,74.531 46.7990908,76.568 C34.5800908,78.869 19.5070908,78.601 10.5700908,77.126 C10.5700908,77.126 12.4010908,78.641 21.8090908,79.246 Z" id="Path"></path>
                </g>
                <g id="Medium-S" transform="translate(1206.142622, -0.000000)">
                    <path d="M18.8810908,61.477 C18.8810908,61.477 15.8450908,63.244 21.0440908,63.841 C27.3440908,64.56 30.5620908,64.457 37.5030908,63.144 C37.5030908,63.144 39.3310908,64.288 41.8810908,65.278 C26.3180908,71.947 6.65809079,64.892 18.8810908,61.477 Z M16.9780908,52.775 C16.9780908,52.775 13.5720908,55.296 18.7760908,55.834 C25.5060908,56.529 30.8190908,56.586 40.0180908,54.816 C40.0180908,54.816 41.2880908,56.105 43.2870908,56.809 C24.4720908,62.312 3.51709079,57.242 16.9780908,52.775 Z" id="Shape"></path>
                    <path d="M33.0100908,38.01 C36.8460908,42.427 32.0040908,46.398 32.0040908,46.398 C32.0040908,46.398 41.7420908,41.373 37.2690908,35.077 C33.0930908,29.208 29.8900908,26.293 47.2280908,16.239 C47.2270908,16.238 20.0130908,23.033 33.0100908,38.01 Z" id="Path"></path>
                    <path d="M53.5930908,67.915 C53.5930908,67.915 55.8410908,69.768 51.1180908,71.201 C42.1370908,73.921 13.7310908,74.742 5.84009079,71.309 C3.00609079,70.075 8.32409079,68.363 9.99709079,68.002 C11.7420908,67.625 12.7370908,67.693 12.7370908,67.693 C9.58309079,65.472 -7.64990921,72.056 3.98509079,73.944 C35.7130908,79.089 61.8220908,71.628 53.5930908,67.915 Z M20.3420908,43.757 C20.3420908,43.757 5.89409079,47.189 15.2260908,48.437 C19.1680908,48.964 27.0190908,48.842 34.3380908,48.228 C40.3180908,47.727 46.3210908,46.653 46.3210908,46.653 C46.3210908,46.653 44.2140908,47.557 42.6870908,48.598 C28.0140908,52.457 -0.32790921,50.66 7.83209079,46.714 C14.7310908,43.377 20.3420908,43.757 20.3420908,43.757 L20.3420908,43.757 Z M46.2610908,58.243 C61.1760908,50.494 54.2800908,43.046 49.4650908,44.05 C48.2880908,44.296 47.7600908,44.508 47.7600908,44.508 C47.7600908,44.508 48.1990908,43.821 49.0340908,43.526 C58.5570908,40.179 65.8790908,53.399 45.9630908,58.635 C45.9630908,58.635 46.1920908,58.427 46.2610908,58.243 Z" id="Shape"></path>
                    <path d="M37.2690908,0 C37.2690908,0 45.5270908,8.264 29.4340908,20.967 C16.5280908,31.16 26.4920908,36.971 29.4300908,43.612 C21.8950908,36.815 16.3680908,30.831 20.0760908,25.262 C25.5190908,17.088 40.6010908,13.124 37.2690908,0 Z" id="Path"></path>
                    <path d="M21.8090908,79.246 C36.1230908,80.162 58.1080908,78.738 58.6300908,71.963 C58.6300908,71.963 57.6290908,74.531 46.7990908,76.568 C34.5800908,78.869 19.5070908,78.601 10.5700908,77.126 C10.5700908,77.126 12.4010908,78.641 21.8090908,79.246 Z" id="Path"></path>
                </g>
                <g id="Regular-S" transform="translate(909.432622, -0.000000)">
                    <path d="M18.8810908,61.477 C18.8810908,61.477 15.8450908,63.244 21.0440908,63.841 C27.3440908,64.56 30.5620908,64.457 37.5030908,63.144 C37.5030908,63.144 39.3310908,64.288 41.8810908,65.278 C26.3180908,71.947 6.65809079,64.892 18.8810908,61.477 Z M16.9780908,52.775 C16.9780908,52.775 13.5720908,55.296 18.7760908,55.834 C25.5060908,56.529 30.8190908,56.586 40.0180908,54.816 C40.0180908,54.816 41.2880908,56.105 43.2870908,56.809 C24.4720908,62.312 3.51709079,57.242 16.9780908,52.775 Z" id="Shape"></path>
                    <path d="M33.0100908,38.01 C36.8460908,42.427 32.0040908,46.398 32.0040908,46.398 C32.0040908,46.398 41.7420908,41.373 37.2690908,35.077 C33.0930908,29.208 29.8900908,26.293 47.2280908,16.239 C47.2270908,16.238 20.0130908,23.033 33.0100908,38.01 Z" id="Path"></path>
                    <path d="M53.5930908,67.915 C53.5930908,67.915 55.8410908,69.768 51.1180908,71.201 C42.1370908,73.921 13.7310908,74.742 5.84009079,71.309 C3.00609079,70.075 8.32409079,68.363 9.99709079,68.002 C11.7420908,67.625 12.7370908,67.693 12.7370908,67.693 C9.58309079,65.472 -7.64990921,72.056 3.98509079,73.944 C35.7130908,79.089 61.8220908,71.628 53.5930908,67.915 Z M20.3420908,43.757 C20.3420908,43.757 5.89409079,47.189 15.2260908,48.437 C19.1680908,48.964 27.0190908,48.842 34.3380908,48.228 C40.3180908,47.727 46.3210908,46.653 46.3210908,46.653 C46.3210908,46.653 44.2140908,47.557 42.6870908,48.598 C28.0140908,52.457 -0.32790921,50.66 7.83209079,46.714 C14.7310908,43.377 20.3420908,43.757 20.3420908,43.757 L20.3420908,43.757 Z M46.2610908,58.243 C61.1760908,50.494 54.2800908,43.046 49.4650908,44.05 C48.2880908,44.296 47.7600908,44.508 47.7600908,44.508 C47.7600908,44.508 48.1990908,43.821 49.0340908,43.526 C58.5570908,40.179 65.8790908,53.399 45.9630908,58.635 C45.9630908,58.635 46.1920908,58.427 46.2610908,58.243 Z" id="Shape"></path>
                    <path d="M37.2690908,0 C37.2690908,0 45.5270908,8.264 29.4340908,20.967 C16.5280908,31.16 26.4920908,36.971 29.4300908,43.612 C21.8950908,36.815 16.3680908,30.831 20.0760908,25.262 C25.5190908,17.088 40.6010908,13.124 37.2690908,0 Z" id="Path"></path>
                    <path d="M21.8090908,79.246 C36.1230908,80.162 58.1080908,78.738 58.6300908,71.963 C58.6300908,71.963 57.6290908,74.531 46.7990908,76.568 C34.5800908,78.869 19.5070908,78.601 10.5700908,77.126 C10.5700908,77.126 12.4010908,78.641 21.8090908,79.246 Z" id="Path"></path>
                </g>
                <g id="Light-S" transform="translate(612.722622, -0.000000)">
                    <path d="M18.8810908,61.477 C18.8810908,61.477 15.8450908,63.244 21.0440908,63.841 C27.3440908,64.56 30.5620908,64.457 37.5030908,63.144 C37.5030908,63.144 39.3310908,64.288 41.8810908,65.278 C26.3180908,71.947 6.65809079,64.892 18.8810908,61.477 Z M16.9780908,52.775 C16.9780908,52.775 13.5720908,55.296 18.7760908,55.834 C25.5060908,56.529 30.8190908,56.586 40.0180908,54.816 C40.0180908,54.816 41.2880908,56.105 43.2870908,56.809 C24.4720908,62.312 3.51709079,57.242 16.9780908,52.775 Z" id="Shape"></path>
                    <path d="M33.0100908,38.01 C36.8460908,42.427 32.0040908,46.398 32.0040908,46.398 C32.0040908,46.398 41.7420908,41.373 37.2690908,35.077 C33.0930908,29.208 29.8900908,26.293 47.2280908,16.239 C47.2270908,16.238 20.0130908,23.033 33.0100908,38.01 Z" id="Path"></path>
                    <path d="M53.5930908,67.915 C53.5930908,67.915 55.8410908,69.768 51.1180908,71.201 C42.1370908,73.921 13.7310908,74.742 5.84009079,71.309 C3.00609079,70.075 8.32409079,68.363 9.99709079,68.002 C11.7420908,67.625 12.7370908,67.693 12.7370908,67.693 C9.58309079,65.472 -7.64990921,72.056 3.98509079,73.944 C35.7130908,79.089 61.8220908,71.628 53.5930908,67.915 Z M20.3420908,43.757 C20.3420908,43.757 5.89409079,47.189 15.2260908,48.437 C19.1680908,48.964 27.0190908,48.842 34.3380908,48.228 C40.3180908,47.727 46.3210908,46.653 46.3210908,46.653 C46.3210908,46.653 44.2140908,47.557 42.6870908,48.598 C28.0140908,52.457 -0.32790921,50.66 7.83209079,46.714 C14.7310908,43.377 20.3420908,43.757 20.3420908,43.757 L20.3420908,43.757 Z M46.2610908,58.243 C61.1760908,50.494 54.2800908,43.046 49.4650908,44.05 C48.2880908,44.296 47.7600908,44.508 47.7600908,44.508 C47.7600908,44.508 48.1990908,43.821 49.0340908,43.526 C58.5570908,40.179 65.8790908,53.399 45.9630908,58.635 C45.9630908,58.635 46.1920908,58.427 46.2610908,58.243 Z" id="Shape"></path>
                    <path d="M37.2690908,0 C37.2690908,0 45.5270908,8.264 29.4340908,20.967 C16.5280908,31.16 26.4920908,36.971 29.4300908,43.612 C21.8950908,36.815 16.3680908,30.831 20.0760908,25.262 C25.5190908,17.088 40.6010908,13.124 37.2690908,0 Z" id="Path"></path>
                    <path d="M21.8090908,79.246 C36.1230908,80.162 58.1080908,78.738 58.6300908,71.963 C58.6300908,71.963 57.6290908,74.531 46.7990908,76.568 C34.5800908,78.869 19.5070908,78.601 10.5700908,77.126 C10.5700908,77.126 12.4010908,78.641 21.8090908,79.246 Z" id="Path"></path>
                </g>
                <g id="Thin-S" transform="translate(316.012622, -0.000000)">
                    <path d="M18.8810908,61.477 C18.8810908,61.477 15.8450908,63.244 21.0440908,63.841 C27.3440908,64.56 30.5620908,64.457 37.5030908,63.144 C37.5030908,63.144 39.3310908,64.288 41.8810908,65.278 C26.3180908,71.947 6.65809079,64.892 18.8810908,61.477 Z M16.9780908,52.775 C16.9780908,52.775 13.5720908,55.296 18.7760908,55.834 C25.5060908,56.529 30.8190908,56.586 40.0180908,54.816 C40.0180908,54.816 41.2880908,56.105 43.2870908,56.809 C24.4720908,62.312 3.51709079,57.242 16.9780908,52.775 Z" id="Shape"></path>
                    <path d="M33.0100908,38.01 C36.8460908,42.427 32.0040908,46.398 32.0040908,46.398 C32.0040908,46.398 41.7420908,41.373 37.2690908,35.077 C33.0930908,29.208 29.8900908,26.293 47.2280908,16.239 C47.2270908,16.238 20.0130908,23.033 33.0100908,38.01 Z" id="Path"></path>
                    <path d="M53.5930908,67.915 C53.5930908,67.915 55.8410908,69.768 51.1180908,71.201 C42.1370908,73.921 13.7310908,74.742 5.84009079,71.309 C3.00609079,70.075 8.32409079,68.363 9.99709079,68.002 C11.7420908,67.625 12.7370908,67.693 12.7370908,67.693 C9.58309079,65.472 -7.64990921,72.056 3.98509079,73.944 C35.7130908,79.089 61.8220908,71.628 53.5930908,67.915 Z M20.3420908,43.757 C20.3420908,43.757 5.89409079,47.189 15.2260908,48.437 C19.1680908,48.964 27.0190908,48.842 34.3380908,48.228 C40.3180908,47.727 46.3210908,46.653 46.3210908,46.653 C46.3210908,46.653 44.2140908,47.557 42.6870908,48.598 C28.0140908,52.457 -0.32790921,50.66 7.83209079,46.714 C14.7310908,43.377 20.3420908,43.757 20.3420908,43.757 L20.3420908,43.757 Z M46.2610908,58.243 C61.1760908,50.494 54.2800908,43.046 49.4650908,44.05 C48.2880908,44.296 47.7600908,44.508 47.7600908,44.508 C47.7600908,44.508 48.1990908,43.821 49.0340908,43.526 C58.5570908,40.179 65.8790908,53.399 45.9630908,58.635 C45.9630908,58.635 46.1920908,58.427 46.2610908,58.243 Z" id="Shape"></path>
                    <path d="M37.2690908,0 C37.2690908,0 45.5270908,8.264 29.4340908,20.967 C16.5280908,31.16 26.4920908,36.971 29.4300908,43.612 C21.8950908,36.815 16.3680908,30.831 20.0760908,25.262 C25.5190908,17.088 40.6010908,13.124 37.2690908,0 Z" id="Path"></path>
                    <path d="M21.8090908,79.246 C36.1230908,80.162 58.1080908,78.738 58.6300908,71.963 C58.6300908,71.963 57.6290908,74.531 46.7990908,76.568 C34.5800908,78.869 19.5070908,78.601 10.5700908,77.126 C10.5700908,77.126 12.4010908,78.641 21.8090908,79.246 Z" id="Path"></path>
                </g>
                <g id="Ultralight-S" transform="translate(19.302622, -0.000000)">
                    <path d="M18.8810908,61.477 C18.8810908,61.477 15.8450908,63.244 21.0440908,63.841 C27.3440908,64.56 30.5620908,64.457 37.5030908,63.144 C37.5030908,63.144 39.3310908,64.288 41.8810908,65.278 C26.3180908,71.947 6.65809079,64.892 18.8810908,61.477 Z M16.9780908,52.775 C16.9780908,52.775 13.5720908,55.296 18.7760908,55.834 C25.5060908,56.529 30.8190908,56.586 40.0180908,54.816 C40.0180908,54.816 41.2880908,56.105 43.2870908,56.809 C24.4720908,62.312 3.51709079,57.242 16.9780908,52.775 Z" id="Shape"></path>
                    <path d="M33.0100908,38.01 C36.8460908,42.427 32.0040908,46.398 32.0040908,46.398 C32.0040908,46.398 41.7420908,41.373 37.2690908,35.077 C33.0930908,29.208 29.8900908,26.293 47.2280908,16.239 C47.2270908,16.238 20.0130908,23.033 33.0100908,38.01 Z" id="Path"></path>
                    <path d="M53.5930908,67.915 C53.5930908,67.915 55.8410908,69.768 51.1180908,71.201 C42.1370908,73.921 13.7310908,74.742 5.84009079,71.309 C3.00609079,70.075 8.32409079,68.363 9.99709079,68.002 C11.7420908,67.625 12.7370908,67.693 12.7370908,67.693 C9.58309079,65.472 -7.64990921,72.056 3.98509079,73.944 C35.7130908,79.089 61.8220908,71.628 53.5930908,67.915 Z M20.3420908,43.757 C20.3420908,43.757 5.89409079,47.189 15.2260908,48.437 C19.1680908,48.964 27.0190908,48.842 34.3380908,48.228 C40.3180908,47.727 46.3210908,46.653 46.3210908,46.653 C46.3210908,46.653 44.2140908,47.557 42.6870908,48.598 C28.0140908,52.457 -0.32790921,50.66 7.83209079,46.714 C14.7310908,43.377 20.3420908,43.757 20.3420908,43.757 L20.3420908,43.757 Z M46.2610908,58.243 C61.1760908,50.494 54.2800908,43.046 49.4650908,44.05 C48.2880908,44.296 47.7600908,44.508 47.7600908,44.508 C47.7600908,44.508 48.1990908,43.821 49.0340908,43.526 C58.5570908,40.179 65.8790908,53.399 45.9630908,58.635 C45.9630908,58.635 46.1920908,58.427 46.2610908,58.243 Z" id="Shape"></path>
                    <path d="M37.2690908,0 C37.2690908,0 45.5270908,8.264 29.4340908,20.967 C16.5280908,31.16 26.4920908,36.971 29.4300908,43.612 C21.8950908,36.815 16.3680908,30.831 20.0760908,25.262 C25.5190908,17.088 40.6010908,13.124 37.2690908,0 Z" id="Path"></path>
                    <path d="M21.8090908,79.246 C36.1230908,80.162 58.1080908,78.738 58.6300908,71.963 C58.6300908,71.963 57.6290908,74.531 46.7990908,76.568 C34.5800908,78.869 19.5070908,78.601 10.5700908,77.126 C10.5700908,77.126 12.4010908,78.641 21.8090908,79.246 Z" id="Path"></path>
                </g>
            </g>
        </g>
    </g>
</svg>