<?xml version="1.0" encoding="UTF-8"?>
<svg width="3300px" height="2200px" viewBox="0 0 3300 2200" version="1.1" xmlns="http://www.w3.org/2000/svg" xmlns:xlink="http://www.w3.org/1999/xlink">
    <title>graphql.SFSymbol</title>
    <g id="Page-1" stroke="none" stroke-width="1" fill="none" fill-rule="evenodd">
        <g id="graphql.SFSymbol">
            <g id="Notes">
                <rect id="artboard" fill="#FFFFFF" fill-rule="nonzero" x="0" y="0" width="3300" height="2200"></rect>
                <line x1="263" y1="292" x2="3036" y2="292" id="Path" stroke="#000000" stroke-width="0.5"></line>
                <text id="Weight/Scale-Variations" fill="#000000" fill-rule="nonzero" font-family="Helvetica" font-size="13" font-weight="normal">
                    <tspan x="263" y="322">Weight/Scale Variations</tspan>
                </text>
                <text id="Ultralight" fill="#000000" fill-rule="nonzero" font-family="Helvetica" font-size="13" font-weight="normal">
                    <tspan x="533.711" y="322">Ultralight</tspan>
                </text>
                <text id="Thin" fill="#000000" fill-rule="nonzero" font-family="Helvetica" font-size="13" font-weight="normal">
                    <tspan x="843.422" y="322">Thin</tspan>
                </text>
                <text id="Light" fill="#000000" fill-rule="nonzero" font-family="Helvetica" font-size="13" font-weight="normal">
                    <tspan x="1138.63" y="322">Light</tspan>
                </text>
                <text id="Regular" fill="#000000" fill-rule="nonzero" font-family="Helvetica" font-size="13" font-weight="normal">
                    <tspan x="1426.84" y="322">Regular</tspan>
                </text>
                <text id="Medium" fill="#000000" fill-rule="nonzero" font-family="Helvetica" font-size="13" font-weight="normal">
                    <tspan x="1723.06" y="322">Medium</tspan>
                </text>
                <text id="Semibold" fill="#000000" fill-rule="nonzero" font-family="Helvetica" font-size="13" font-weight="normal">
                    <tspan x="2015.77" y="322">Semibold</tspan>
                </text>
                <text id="Bold" fill="#000000" fill-rule="nonzero" font-family="Helvetica" font-size="13" font-weight="normal">
                    <tspan x="2326.48" y="322">Bold</tspan>
                </text>
                <text id="Heavy" fill="#000000" fill-rule="nonzero" font-family="Helvetica" font-size="13" font-weight="normal">
                    <tspan x="2618.19" y="322">Heavy</tspan>
                </text>
                <text id="Black" fill="#000000" fill-rule="nonzero" font-family="Helvetica" font-size="13" font-weight="normal">
                    <tspan x="2917.4" y="322">Black</tspan>
                </text>
                <line x1="263" y1="1903" x2="3036" y2="1903" id="Path" stroke="#000000" stroke-width="0.5"></line>
                <g id="Group" transform="translate(264.367190, 1918.068400)" fill="#000000" fill-rule="nonzero">
                    <path d="M7.88086,15.761678 C12.18751,15.761678 15.77151,12.18746 15.77151,7.88082 C15.77151,3.5742 12.17771,0 7.87109,0 C3.57422,0 -8.8817842e-16,3.5742 -8.8817842e-16,7.88082 C-8.8817842e-16,12.18746 3.58398,15.761678 7.88086,15.761678 Z M7.88086,14.277303 C4.33593,14.277303 1.5039,11.43551 1.5039,7.88082 C1.5039,4.3261 4.32617,1.4843 7.87109,1.4843 C11.42581,1.4843 14.27731,4.3261 14.27731,7.88082 C14.27731,11.43551 11.43551,14.277303 7.88086,14.277303 Z M4.28711,7.88082 C4.28711,8.31051 4.58984,8.60348 5.03906,8.60348 L7.13867,8.60348 L7.13867,10.72262 C7.13867,11.16207 7.43164,11.4648 7.86133,11.4648 C8.31054,11.4648 8.60351,11.16207 8.60351,10.72262 L8.60351,8.60348 L10.72261,8.60348 C11.16211,8.60348 11.46481,8.31051 11.46481,7.88082 C11.46481,7.44137 11.16211,7.13863 10.72261,7.13863 L8.60351,7.13863 L8.60351,5.02926 C8.60351,4.58 8.31054,4.2773 7.86133,4.2773 C7.43164,4.2773 7.13867,4.58 7.13867,5.02926 L7.13867,7.13863 L5.03906,7.13863 C4.58984,7.13863 4.28711,7.44137 4.28711,7.88082 Z" id="Shape"></path>
                </g>
                <g id="Group" transform="translate(283.615050, 1915.988300)" fill="#000000" fill-rule="nonzero">
                    <path d="M9.96095,19.92186 C15.41015,19.92186 19.92185,15.40037 19.92185,9.96092 C19.92185,4.5117 15.40035,0 9.95115,0 C4.51172,0 8.8817842e-16,4.5117 8.8817842e-16,9.96092 C8.8817842e-16,15.40037 4.52148,19.92186 9.96095,19.92186 Z M9.96095,18.2617 C5.35156,18.2617 1.66992,14.57029 1.66992,9.96092 C1.66992,5.3515 5.34179,1.6601 9.95115,1.6601 C14.56055,1.6601 18.26175,5.3515 18.26175,9.96092 C18.26175,14.57029 14.57035,18.2617 9.96095,18.2617 Z M5.42968,9.96092 C5.42968,10.43943 5.76172,10.7617 6.25976,10.7617 L9.13085,10.7617 L9.13085,13.64256 C9.13085,14.13084 9.46285,14.47264 9.94145,14.47264 C10.42965,14.47264 10.77145,14.14061 10.77145,13.64256 L10.77145,10.7617 L13.65235,10.7617 C14.14065,10.7617 14.48245,10.43943 14.48245,9.96092 C14.48245,9.47264 14.14065,9.13084 13.65235,9.13084 L10.77145,9.13084 L10.77145,6.2597 C10.77145,5.7617 10.42965,5.4199 9.94145,5.4199 C9.46285,5.4199 9.13085,5.7617 9.13085,6.2597 L9.13085,9.13084 L6.25976,9.13084 C5.76172,9.13084 5.42968,9.47264 5.42968,9.96092 Z" id="Shape"></path>
                </g>
                <g id="Group" transform="translate(307.901860, 1913.224600)" fill="#000000" fill-rule="nonzero">
                    <path d="M12.71484,25.43946 C19.67774,25.43946 25.43944,19.6777438 25.43944,12.72462 C25.43944,5.7617 19.66794,0 12.70504,0 C5.75195,0 0,5.7617 0,12.72462 C0,19.6777438 5.76172,25.43946 12.71484,25.43946 Z M12.71484,23.62306 C6.67969,23.62306 1.82617,18.75978 1.82617,12.72462 C1.82617,6.6797 6.66992,1.8262 12.70504,1.8262 C18.75004,1.8262 23.61324,6.6797 23.61324,12.72462 C23.61324,18.75978 18.75974,23.62306 12.71484,23.62306 Z M6.94336,12.72462 C6.94336,13.2422 7.31445,13.60352 7.86134,13.60352 L11.80664,13.60352 L11.80664,17.5586 C11.80664,18.09571 12.17774,18.47657 12.69534,18.47657 C13.23244,18.47657 13.60354,18.10548 13.60354,17.5586 L13.60354,13.60352 L17.55864,13.60352 C18.09574,13.60352 18.47654,13.2422 18.47654,12.72462 C18.47654,12.17774 18.10544,11.80665 17.55864,11.80665 L13.60354,11.80665 L13.60354,7.8613 C13.60354,7.3145 13.23244,6.9336 12.69534,6.9336 C12.17774,6.9336 11.80664,7.3145 11.80664,7.8613 L11.80664,11.80665 L7.86134,11.80665 C7.31445,11.80665 6.94336,12.17774 6.94336,12.72462 Z" id="Shape"></path>
                </g>
                <text id="Design-Variations" fill="#000000" fill-rule="nonzero" font-family="Helvetica" font-size="13" font-weight="normal">
                    <tspan x="263" y="1953">Design Variations</tspan>
                </text>
                <text id="Symbols-are-supported-in-up-to-nine-weights-and-three-scales." fill="#000000" fill-rule="nonzero" font-family="Helvetica" font-size="13" font-weight="normal">
                    <tspan x="263" y="1971">Symbols are supported in up to nine weights and three scales.</tspan>
                </text>
                <text id="For-optimal-layout-with-text-and-other-symbols,-vertically-align" fill="#000000" fill-rule="nonzero" font-family="Helvetica" font-size="13" font-weight="normal">
                    <tspan x="263" y="1989">For optimal layout with text and other symbols, vertically align</tspan>
                </text>
                <text id="symbols-with-the-adjacent-text." fill="#000000" fill-rule="nonzero" font-family="Helvetica" font-size="13" font-weight="normal">
                    <tspan x="263" y="2007">symbols with the adjacent text.</tspan>
                </text>
                <line x1="776" y1="1919" x2="776" y2="1933" id="Path" stroke="#00AEEF" stroke-width="0.5"></line>
                <g id="Group" transform="translate(778.490230, 1918.732400)" fill="#000000" fill-rule="nonzero">
                    <path d="M0.82032,14.42385 C1.33789,14.42385 1.5918,14.2285375 1.77735,13.681662 L3.03711,10.2344 L8.79887,10.2344 L10.05857,13.681662 C10.24417,14.2285375 10.49807,14.42385 11.00587,14.42385 C11.52347,14.42385 11.85547,14.11135 11.85547,13.623069 C11.85547,13.457053 11.82617,13.300803 11.74807,13.09572 L7.16797,0.8985 C6.94336,0.3028 6.54297,0 5.91797,0 C5.3125,0 4.90235,0.293 4.6875,0.8887 L0.10743,13.10549 C0.0293,13.310569 -4.4408921e-16,13.466819 -4.4408921e-16,13.632834 C-4.4408921e-16,14.121116 0.3125,14.42385 0.82032,14.42385 Z M3.51563,8.75002 L5.88868,2.1778 L5.9375,2.1778 L8.31057,8.75002 L3.51563,8.75002 Z" id="Shape"></path>
                </g>
                <line x1="793.197" y1="1919" x2="793.197" y2="1933" id="Path" stroke="#00AEEF" stroke-width="0.5"></line>
                <text id="Margins" fill="#000000" fill-rule="nonzero" font-family="Helvetica" font-size="13" font-weight="normal">
                    <tspan x="776" y="1953">Margins</tspan>
                </text>
                <text id="Leading-and-trailing-margins-on-the-left-and-right-side-of-each-symbol" fill="#000000" fill-rule="nonzero" font-family="Helvetica" font-size="13" font-weight="normal">
                    <tspan x="776" y="1971">Leading and trailing margins on the left and right side of each symbol</tspan>
                </text>
                <text id="can-be-adjusted-by-modifying-the-x-location-of-the-margin-guidelines." fill="#000000" fill-rule="nonzero" font-family="Helvetica" font-size="13" font-weight="normal">
                    <tspan x="776" y="1989">can be adjusted by modifying the x-location of the margin guidelines.</tspan>
                </text>
                <text id="Modifications-are-automatically-applied-proportionally-to-all" fill="#000000" fill-rule="nonzero" font-family="Helvetica" font-size="13" font-weight="normal">
                    <tspan x="776" y="2007">Modifications are automatically applied proportionally to all</tspan>
                </text>
                <text id="scales-and-weights." fill="#000000" fill-rule="nonzero" font-family="Helvetica" font-size="13" font-weight="normal">
                    <tspan x="776" y="2025">scales and weights.</tspan>
                </text>
                <g id="Group" transform="translate(1291.248126, 1914.517396)" fill="#000000" fill-rule="nonzero">
                    <path d="M0.593673634,20.347834 L2.29289363,22.056824 C3.15226363,22.925964 4.13859363,22.867374 5.06632363,21.841984 L15.7596736,10.054874 L14.7928736,9.07830404 L4.17765363,20.757994 C3.82609363,21.158384 3.49406363,21.256044 3.02531363,20.787294 L1.85343363,19.625184 C1.38468363,19.166198 1.49210363,18.824401 1.89249363,18.4630728 L13.3670736,7.66230404 L12.3905736,6.69550404 L0.798753634,17.584166 C-0.187576366,18.5021352 -0.265706366,19.478698 0.593673634,20.347834 Z M7.00968363,2.15450404 C6.58976363,2.56460404 6.56046363,3.14080404 6.79484363,3.53140404 C7.02921363,3.89280404 7.48820363,4.12710404 8.13277363,3.96110404 C9.59757363,3.61930404 11.1209736,3.56070404 12.5467736,4.49820404 L11.9608736,5.95330404 C11.6190736,6.78340404 11.7948736,7.36930404 12.3319736,7.91620404 L14.6268736,10.230654 C15.1151736,10.718934 15.5252736,10.738464 16.0916736,10.640804 L17.1561736,10.445494 L17.8202736,11.119324 L17.7811736,11.675964 C17.7420736,12.174014 17.8690736,12.554874 18.3573736,13.033384 L19.1190736,13.775574 C19.5975736,14.254084 20.2127736,14.283384 20.6815736,13.814634 L23.5916736,10.894714 C24.0604736,10.425964 24.0409736,9.83026404 23.5623736,9.35174404 L22.7909736,8.59002404 C22.3123736,8.11150404 21.9413736,7.95530404 21.4627736,7.99430404 L20.8866736,8.04310404 L20.2420736,7.40840404 L20.4862736,6.28530404 C20.6131736,5.71890404 20.4569736,5.27950404 19.8709736,4.69350404 L17.6737736,2.50600404 C14.3338736,-0.814295964 9.90027363,-0.736195964 7.00968363,2.15450404 Z M8.50387363,2.52560404 C10.9354736,0.748204036 14.2264736,1.05100404 16.4530736,3.27750404 L18.8846736,5.68960404 C19.1190736,5.92400404 19.1580736,6.10960404 19.0897736,6.45140404 L18.7674736,7.93570404 L20.2713736,9.42010404 L21.2577736,9.36151404 C21.5116736,9.35174404 21.5897736,9.37127404 21.7850736,9.56658404 L22.3612736,10.142764 L19.9198736,12.584164 L19.3436736,12.007994 C19.1483736,11.812684 19.1190736,11.734554 19.1288736,11.470884 L19.1971736,10.494324 L17.7030736,9.00994404 L16.1795736,9.26385404 C15.8573736,9.33221404 15.7108736,9.30291404 15.4666736,9.06854404 L13.4647736,7.06660404 C13.2108736,6.83220404 13.1815736,6.66620404 13.3377736,6.29510404 L14.2166736,4.20530404 C12.6541736,2.75020404 10.6229736,2.12520404 8.59167363,2.72090404 C8.43547363,2.75990404 8.37687363,2.63300404 8.50387363,2.52560404 Z" id="Shape"></path>
                </g>
                <text id="Exporting" fill="#000000" fill-rule="nonzero" font-family="Helvetica" font-size="13" font-weight="normal">
                    <tspan x="1289" y="1953">Exporting</tspan>
                </text>
                <text id="Symbols-should-be-outlined-when-exporting-to-ensure-the" fill="#000000" fill-rule="nonzero" font-family="Helvetica" font-size="13" font-weight="normal">
                    <tspan x="1289" y="1971">Symbols should be outlined when exporting to ensure the</tspan>
                </text>
                <text id="design-is-preserved-when-submitting-to-Xcode." fill="#000000" fill-rule="nonzero" font-family="Helvetica" font-size="13" font-weight="normal">
                    <tspan x="1289" y="1989">design is preserved when submitting to Xcode.</tspan>
                </text>
                <text id="template-version" fill="#000000" fill-rule="nonzero" font-family="Helvetica" font-size="13" font-weight="normal">
                    <tspan x="2952" y="1933">Template v.2.0</tspan>
                </text>
                <text id="Requires-Xcode-12-or-greater" fill="#000000" fill-rule="nonzero" font-family="Helvetica" font-size="13" font-weight="normal">
                    <tspan x="2865" y="1951">Requires Xcode 12 or greater</tspan>
                </text>
                <text id="descriptive-name" fill="#000000" fill-rule="nonzero" font-family="Helvetica" font-size="13" font-weight="normal">
                    <tspan x="2889" y="1969">Generated from unsplash</tspan>
                </text>
                <text id="Typeset-at-100-points" fill="#000000" fill-rule="nonzero" font-family="Helvetica" font-size="13" font-weight="normal">
                    <tspan x="2912" y="1987">Typeset at 100 points</tspan>
                </text>
                <text id="Small" fill="#000000" fill-rule="nonzero" font-family="Helvetica" font-size="13" font-weight="normal">
                    <tspan x="263" y="726">Small</tspan>
                </text>
                <text id="Medium" fill="#000000" fill-rule="nonzero" font-family="Helvetica" font-size="13" font-weight="normal">
                    <tspan x="263" y="1156">Medium</tspan>
                </text>
                <text id="Large" fill="#000000" fill-rule="nonzero" font-family="Helvetica" font-size="13" font-weight="normal">
                    <tspan x="263" y="1586">Large</tspan>
                </text>
            </g>
            <g id="Guides" transform="translate(263.000000, 625.041000)">
                <g id="H-reference" transform="translate(76.976562, 0.500000)" fill="#27AAE1" fill-rule="nonzero">
                    <path d="M-1.22124533e-15,70.459 L2.685548,70.459 L12.011738,45.9961 L44.775438,45.9961 L54.150438,70.459 L56.787138,70.459 L29.638638,0 L27.148438,0 L-1.22124533e-15,70.459 Z M28.369138,3.3203 L28.466838,3.3203 L43.896438,43.75 L12.890638,43.75 L28.369138,3.3203 Z" id="Shape"></path>
                </g>
                <line x1="0" y1="70.959" x2="2773" y2="70.959" id="Baseline-S" stroke="#27AAE1" stroke-width="0.5"></line>
                <line x1="0" y1="0.5" x2="2773" y2="0.5" id="Capline-S" stroke="#27AAE1" stroke-width="0.5"></line>
                <g id="H-reference" transform="translate(76.976562, 430.500000)" fill="#27AAE1" fill-rule="nonzero">
                    <path d="M-1.22124533e-15,70.459 L2.685548,70.459 L12.011738,45.9961 L44.775438,45.9961 L54.150438,70.459 L56.787138,70.459 L29.638638,0 L27.148438,0 L-1.22124533e-15,70.459 Z M28.369138,3.3203 L28.466838,3.3203 L43.896438,43.75 L12.890638,43.75 L28.369138,3.3203 Z" id="Shape"></path>
                </g>
                <line x1="0" y1="500.959" x2="2773" y2="500.959" id="Baseline-M" stroke="#27AAE1" stroke-width="0.5"></line>
                <line x1="0" y1="430.499" x2="2773" y2="430.499" id="Capline-M" stroke="#27AAE1" stroke-width="0.5"></line>
                <g id="H-reference" transform="translate(76.976562, 860.500000)" fill="#27AAE1" fill-rule="nonzero">
                    <path d="M-1.22124533e-15,70.459 L2.685548,70.459 L12.011738,45.9961 L44.775438,45.9961 L54.150438,70.459 L56.787138,70.459 L29.638638,0 L27.148438,0 L-1.22124533e-15,70.459 Z M28.369138,3.3203 L28.466838,3.3203 L43.896438,43.75 L12.890638,43.75 L28.369138,3.3203 Z" id="Shape"></path>
                </g>
                <line x1="0" y1="930.959" x2="2773" y2="930.959" id="Baseline-L" stroke="#27AAE1" stroke-width="0.5"></line>
                <line x1="0" y1="860.499" x2="2773" y2="860.499" id="Capline-L" stroke="#27AAE1" stroke-width="0.5"></line>
                <line x1="1156.80334" y1="405.749" x2="1156.80334" y2="525.079" id="left-margin" stroke="#00AEEF" stroke-width="0.5"></line>
                <line x1="1219.45666" y1="405.749" x2="1219.45666" y2="525.079" id="right-margin" stroke="#00AEEF" stroke-width="0.5"></line>
            </g>
            <g id="Symbols" transform="translate(503.554064, 621.586675)" fill="#000000" fill-rule="nonzero">
                <g id="Black-L" transform="translate(2373.680000, 834.628409)">
                    <path d="M57.457,0 C51.103,0 45.952,5.151 45.952,11.504 C45.952,17.858 51.103,23.008 57.457,23.008 C63.81,23.008 68.961,17.858 68.961,11.504 C68.961,5.151 63.81,0 57.457,0 Z M103.398,26.527 C97.045,26.527 91.894,31.677 91.894,38.031 C91.894,44.385 97.045,49.535 103.398,49.535 C109.752,49.535 114.903,44.385 114.903,38.031 C114.903,31.677 109.752,26.527 103.398,26.527 Z M103.398,79.58 C97.045,79.58 91.894,84.731 91.894,91.084 C91.894,97.438 97.045,102.589 103.398,102.589 C109.752,102.589 114.903,97.438 114.903,91.084 C114.903,84.731 109.752,79.58 103.398,79.58 Z M57.457,106.107 C51.105,106.107 45.955,111.256 45.955,117.608 C45.955,123.96 51.105,129.11 57.457,129.11 C63.809,129.11 68.958,123.96 68.958,117.608 C68.958,111.256 63.809,106.107 57.457,106.107 Z M11.504,79.585 C5.152,79.585 0.003,84.735 0.003,91.087 C0.003,97.439 5.152,102.589 11.504,102.589 C17.858,102.589 23.009,97.438 23.009,91.084 C23.009,84.731 17.858,79.58 11.504,79.58 L11.504,79.585 Z M11.504,26.527 C5.151,26.527 5.32907052e-15,31.677 5.32907052e-15,38.031 C5.32907052e-15,44.385 5.151,49.535 11.504,49.535 C17.858,49.535 23.009,44.385 23.009,38.031 C23.009,31.677 17.858,26.527 11.504,26.527 Z M57.457,8.354 L8.777,36.457 L8.777,92.663 L57.457,120.766 L106.126,92.663 L106.126,36.457 L57.457,8.354 Z M57.457,16.967 L98.664,88.354 L16.238,88.354 L57.457,16.967 Z M49.995,18.963 L14.248,80.893 L14.248,39.61 L49.995,18.963 Z M64.918,18.963 L100.671,39.61 L100.671,80.893 L64.918,18.963 Z M21.699,93.82 L93.209,93.82 L57.457,114.456 L21.699,93.82 Z" id="Shape"></path>
                </g>
                <g id="Heavy-L" transform="translate(2076.970000, 834.628409)">
                    <path d="M57.457,0 C51.103,0 45.952,5.151 45.952,11.504 C45.952,17.858 51.103,23.008 57.457,23.008 C63.81,23.008 68.961,17.858 68.961,11.504 C68.961,5.151 63.81,0 57.457,0 Z M103.398,26.527 C97.045,26.527 91.894,31.677 91.894,38.031 C91.894,44.385 97.045,49.535 103.398,49.535 C109.752,49.535 114.903,44.385 114.903,38.031 C114.903,31.677 109.752,26.527 103.398,26.527 Z M103.398,79.58 C97.045,79.58 91.894,84.731 91.894,91.084 C91.894,97.438 97.045,102.589 103.398,102.589 C109.752,102.589 114.903,97.438 114.903,91.084 C114.903,84.731 109.752,79.58 103.398,79.58 Z M57.457,106.107 C51.105,106.107 45.955,111.256 45.955,117.608 C45.955,123.96 51.105,129.11 57.457,129.11 C63.809,129.11 68.958,123.96 68.958,117.608 C68.958,111.256 63.809,106.107 57.457,106.107 Z M11.504,79.585 C5.152,79.585 0.003,84.735 0.003,91.087 C0.003,97.439 5.152,102.589 11.504,102.589 C17.858,102.589 23.009,97.438 23.009,91.084 C23.009,84.731 17.858,79.58 11.504,79.58 L11.504,79.585 Z M11.504,26.527 C5.151,26.527 5.32907052e-15,31.677 5.32907052e-15,38.031 C5.32907052e-15,44.385 5.151,49.535 11.504,49.535 C17.858,49.535 23.009,44.385 23.009,38.031 C23.009,31.677 17.858,26.527 11.504,26.527 Z M57.457,8.354 L8.777,36.457 L8.777,92.663 L57.457,120.766 L106.126,92.663 L106.126,36.457 L57.457,8.354 Z M57.457,16.967 L98.664,88.354 L16.238,88.354 L57.457,16.967 Z M49.995,18.963 L14.248,80.893 L14.248,39.61 L49.995,18.963 Z M64.918,18.963 L100.671,39.61 L100.671,80.893 L64.918,18.963 Z M21.699,93.82 L93.209,93.82 L57.457,114.456 L21.699,93.82 Z" id="Shape"></path>
                </g>
                <g id="Bold-L" transform="translate(1780.260000, 834.628409)">
                    <path d="M57.457,0 C51.103,0 45.952,5.151 45.952,11.504 C45.952,17.858 51.103,23.008 57.457,23.008 C63.81,23.008 68.961,17.858 68.961,11.504 C68.961,5.151 63.81,0 57.457,0 Z M103.398,26.527 C97.045,26.527 91.894,31.677 91.894,38.031 C91.894,44.385 97.045,49.535 103.398,49.535 C109.752,49.535 114.903,44.385 114.903,38.031 C114.903,31.677 109.752,26.527 103.398,26.527 Z M103.398,79.58 C97.045,79.58 91.894,84.731 91.894,91.084 C91.894,97.438 97.045,102.589 103.398,102.589 C109.752,102.589 114.903,97.438 114.903,91.084 C114.903,84.731 109.752,79.58 103.398,79.58 Z M57.457,106.107 C51.105,106.107 45.955,111.256 45.955,117.608 C45.955,123.96 51.105,129.11 57.457,129.11 C63.809,129.11 68.958,123.96 68.958,117.608 C68.958,111.256 63.809,106.107 57.457,106.107 Z M11.504,79.585 C5.152,79.585 0.003,84.735 0.003,91.087 C0.003,97.439 5.152,102.589 11.504,102.589 C17.858,102.589 23.009,97.438 23.009,91.084 C23.009,84.731 17.858,79.58 11.504,79.58 L11.504,79.585 Z M11.504,26.527 C5.151,26.527 5.32907052e-15,31.677 5.32907052e-15,38.031 C5.32907052e-15,44.385 5.151,49.535 11.504,49.535 C17.858,49.535 23.009,44.385 23.009,38.031 C23.009,31.677 17.858,26.527 11.504,26.527 Z M57.457,8.354 L8.777,36.457 L8.777,92.663 L57.457,120.766 L106.126,92.663 L106.126,36.457 L57.457,8.354 Z M57.457,16.967 L98.664,88.354 L16.238,88.354 L57.457,16.967 Z M49.995,18.963 L14.248,80.893 L14.248,39.61 L49.995,18.963 Z M64.918,18.963 L100.671,39.61 L100.671,80.893 L64.918,18.963 Z M21.699,93.82 L93.209,93.82 L57.457,114.456 L21.699,93.82 Z" id="Shape"></path>
                </g>
                <g id="Semibold-L" transform="translate(1483.550000, 834.628409)">
                    <path d="M57.457,0 C51.103,0 45.952,5.151 45.952,11.504 C45.952,17.858 51.103,23.008 57.457,23.008 C63.81,23.008 68.961,17.858 68.961,11.504 C68.961,5.151 63.81,0 57.457,0 Z M103.398,26.527 C97.045,26.527 91.894,31.677 91.894,38.031 C91.894,44.385 97.045,49.535 103.398,49.535 C109.752,49.535 114.903,44.385 114.903,38.031 C114.903,31.677 109.752,26.527 103.398,26.527 Z M103.398,79.58 C97.045,79.58 91.894,84.731 91.894,91.084 C91.894,97.438 97.045,102.589 103.398,102.589 C109.752,102.589 114.903,97.438 114.903,91.084 C114.903,84.731 109.752,79.58 103.398,79.58 Z M57.457,106.107 C51.105,106.107 45.955,111.256 45.955,117.608 C45.955,123.96 51.105,129.11 57.457,129.11 C63.809,129.11 68.958,123.96 68.958,117.608 C68.958,111.256 63.809,106.107 57.457,106.107 Z M11.504,79.585 C5.152,79.585 0.003,84.735 0.003,91.087 C0.003,97.439 5.152,102.589 11.504,102.589 C17.858,102.589 23.009,97.438 23.009,91.084 C23.009,84.731 17.858,79.58 11.504,79.58 L11.504,79.585 Z M11.504,26.527 C5.151,26.527 5.32907052e-15,31.677 5.32907052e-15,38.031 C5.32907052e-15,44.385 5.151,49.535 11.504,49.535 C17.858,49.535 23.009,44.385 23.009,38.031 C23.009,31.677 17.858,26.527 11.504,26.527 Z M57.457,8.354 L8.777,36.457 L8.777,92.663 L57.457,120.766 L106.126,92.663 L106.126,36.457 L57.457,8.354 Z M57.457,16.967 L98.664,88.354 L16.238,88.354 L57.457,16.967 Z M49.995,18.963 L14.248,80.893 L14.248,39.61 L49.995,18.963 Z M64.918,18.963 L100.671,39.61 L100.671,80.893 L64.918,18.963 Z M21.699,93.82 L93.209,93.82 L57.457,114.456 L21.699,93.82 Z" id="Shape"></path>
                </g>
                <g id="Medium-L" transform="translate(1186.840000, 834.628409)">
                    <path d="M57.457,0 C51.103,0 45.952,5.151 45.952,11.504 C45.952,17.858 51.103,23.008 57.457,23.008 C63.81,23.008 68.961,17.858 68.961,11.504 C68.961,5.151 63.81,0 57.457,0 Z M103.398,26.527 C97.045,26.527 91.894,31.677 91.894,38.031 C91.894,44.385 97.045,49.535 103.398,49.535 C109.752,49.535 114.903,44.385 114.903,38.031 C114.903,31.677 109.752,26.527 103.398,26.527 Z M103.398,79.58 C97.045,79.58 91.894,84.731 91.894,91.084 C91.894,97.438 97.045,102.589 103.398,102.589 C109.752,102.589 114.903,97.438 114.903,91.084 C114.903,84.731 109.752,79.58 103.398,79.58 Z M57.457,106.107 C51.105,106.107 45.955,111.256 45.955,117.608 C45.955,123.96 51.105,129.11 57.457,129.11 C63.809,129.11 68.958,123.96 68.958,117.608 C68.958,111.256 63.809,106.107 57.457,106.107 Z M11.504,79.585 C5.152,79.585 0.003,84.735 0.003,91.087 C0.003,97.439 5.152,102.589 11.504,102.589 C17.858,102.589 23.009,97.438 23.009,91.084 C23.009,84.731 17.858,79.58 11.504,79.58 L11.504,79.585 Z M11.504,26.527 C5.151,26.527 5.32907052e-15,31.677 5.32907052e-15,38.031 C5.32907052e-15,44.385 5.151,49.535 11.504,49.535 C17.858,49.535 23.009,44.385 23.009,38.031 C23.009,31.677 17.858,26.527 11.504,26.527 Z M57.457,8.354 L8.777,36.457 L8.777,92.663 L57.457,120.766 L106.126,92.663 L106.126,36.457 L57.457,8.354 Z M57.457,16.967 L98.664,88.354 L16.238,88.354 L57.457,16.967 Z M49.995,18.963 L14.248,80.893 L14.248,39.61 L49.995,18.963 Z M64.918,18.963 L100.671,39.61 L100.671,80.893 L64.918,18.963 Z M21.699,93.82 L93.209,93.82 L57.457,114.456 L21.699,93.82 Z" id="Shape"></path>
                </g>
                <g id="Regular-L" transform="translate(890.130000, 834.628409)">
                    <path d="M57.457,0 C51.103,0 45.952,5.151 45.952,11.504 C45.952,17.858 51.103,23.008 57.457,23.008 C63.81,23.008 68.961,17.858 68.961,11.504 C68.961,5.151 63.81,0 57.457,0 Z M103.398,26.527 C97.045,26.527 91.894,31.677 91.894,38.031 C91.894,44.385 97.045,49.535 103.398,49.535 C109.752,49.535 114.903,44.385 114.903,38.031 C114.903,31.677 109.752,26.527 103.398,26.527 Z M103.398,79.58 C97.045,79.58 91.894,84.731 91.894,91.084 C91.894,97.438 97.045,102.589 103.398,102.589 C109.752,102.589 114.903,97.438 114.903,91.084 C114.903,84.731 109.752,79.58 103.398,79.58 Z M57.457,106.107 C51.105,106.107 45.955,111.256 45.955,117.608 C45.955,123.96 51.105,129.11 57.457,129.11 C63.809,129.11 68.958,123.96 68.958,117.608 C68.958,111.256 63.809,106.107 57.457,106.107 Z M11.504,79.585 C5.152,79.585 0.003,84.735 0.003,91.087 C0.003,97.439 5.152,102.589 11.504,102.589 C17.858,102.589 23.009,97.438 23.009,91.084 C23.009,84.731 17.858,79.58 11.504,79.58 L11.504,79.585 Z M11.504,26.527 C5.151,26.527 5.32907052e-15,31.677 5.32907052e-15,38.031 C5.32907052e-15,44.385 5.151,49.535 11.504,49.535 C17.858,49.535 23.009,44.385 23.009,38.031 C23.009,31.677 17.858,26.527 11.504,26.527 Z M57.457,8.354 L8.777,36.457 L8.777,92.663 L57.457,120.766 L106.126,92.663 L106.126,36.457 L57.457,8.354 Z M57.457,16.967 L98.664,88.354 L16.238,88.354 L57.457,16.967 Z M49.995,18.963 L14.248,80.893 L14.248,39.61 L49.995,18.963 Z M64.918,18.963 L100.671,39.61 L100.671,80.893 L64.918,18.963 Z M21.699,93.82 L93.209,93.82 L57.457,114.456 L21.699,93.82 Z" id="Shape"></path>
                </g>
                <g id="Light-L" transform="translate(593.420000, 834.628409)">
                    <path d="M57.457,0 C51.103,0 45.952,5.151 45.952,11.504 C45.952,17.858 51.103,23.008 57.457,23.008 C63.81,23.008 68.961,17.858 68.961,11.504 C68.961,5.151 63.81,0 57.457,0 Z M103.398,26.527 C97.045,26.527 91.894,31.677 91.894,38.031 C91.894,44.385 97.045,49.535 103.398,49.535 C109.752,49.535 114.903,44.385 114.903,38.031 C114.903,31.677 109.752,26.527 103.398,26.527 Z M103.398,79.58 C97.045,79.58 91.894,84.731 91.894,91.084 C91.894,97.438 97.045,102.589 103.398,102.589 C109.752,102.589 114.903,97.438 114.903,91.084 C114.903,84.731 109.752,79.58 103.398,79.58 Z M57.457,106.107 C51.105,106.107 45.955,111.256 45.955,117.608 C45.955,123.96 51.105,129.11 57.457,129.11 C63.809,129.11 68.958,123.96 68.958,117.608 C68.958,111.256 63.809,106.107 57.457,106.107 Z M11.504,79.585 C5.152,79.585 0.003,84.735 0.003,91.087 C0.003,97.439 5.152,102.589 11.504,102.589 C17.858,102.589 23.009,97.438 23.009,91.084 C23.009,84.731 17.858,79.58 11.504,79.58 L11.504,79.585 Z M11.504,26.527 C5.151,26.527 5.32907052e-15,31.677 5.32907052e-15,38.031 C5.32907052e-15,44.385 5.151,49.535 11.504,49.535 C17.858,49.535 23.009,44.385 23.009,38.031 C23.009,31.677 17.858,26.527 11.504,26.527 Z M57.457,8.354 L8.777,36.457 L8.777,92.663 L57.457,120.766 L106.126,92.663 L106.126,36.457 L57.457,8.354 Z M57.457,16.967 L98.664,88.354 L16.238,88.354 L57.457,16.967 Z M49.995,18.963 L14.248,80.893 L14.248,39.61 L49.995,18.963 Z M64.918,18.963 L100.671,39.61 L100.671,80.893 L64.918,18.963 Z M21.699,93.82 L93.209,93.82 L57.457,114.456 L21.699,93.82 Z" id="Shape"></path>
                </g>
                <g id="Thin-L" transform="translate(296.710000, 834.628409)">
                    <path d="M57.457,0 C51.103,0 45.952,5.151 45.952,11.504 C45.952,17.858 51.103,23.008 57.457,23.008 C63.81,23.008 68.961,17.858 68.961,11.504 C68.961,5.151 63.81,0 57.457,0 Z M103.398,26.527 C97.045,26.527 91.894,31.677 91.894,38.031 C91.894,44.385 97.045,49.535 103.398,49.535 C109.752,49.535 114.903,44.385 114.903,38.031 C114.903,31.677 109.752,26.527 103.398,26.527 Z M103.398,79.58 C97.045,79.58 91.894,84.731 91.894,91.084 C91.894,97.438 97.045,102.589 103.398,102.589 C109.752,102.589 114.903,97.438 114.903,91.084 C114.903,84.731 109.752,79.58 103.398,79.58 Z M57.457,106.107 C51.105,106.107 45.955,111.256 45.955,117.608 C45.955,123.96 51.105,129.11 57.457,129.11 C63.809,129.11 68.958,123.96 68.958,117.608 C68.958,111.256 63.809,106.107 57.457,106.107 Z M11.504,79.585 C5.152,79.585 0.003,84.735 0.003,91.087 C0.003,97.439 5.152,102.589 11.504,102.589 C17.858,102.589 23.009,97.438 23.009,91.084 C23.009,84.731 17.858,79.58 11.504,79.58 L11.504,79.585 Z M11.504,26.527 C5.151,26.527 5.32907052e-15,31.677 5.32907052e-15,38.031 C5.32907052e-15,44.385 5.151,49.535 11.504,49.535 C17.858,49.535 23.009,44.385 23.009,38.031 C23.009,31.677 17.858,26.527 11.504,26.527 Z M57.457,8.354 L8.777,36.457 L8.777,92.663 L57.457,120.766 L106.126,92.663 L106.126,36.457 L57.457,8.354 Z M57.457,16.967 L98.664,88.354 L16.238,88.354 L57.457,16.967 Z M49.995,18.963 L14.248,80.893 L14.248,39.61 L49.995,18.963 Z M64.918,18.963 L100.671,39.61 L100.671,80.893 L64.918,18.963 Z M21.699,93.82 L93.209,93.82 L57.457,114.456 L21.699,93.82 Z" id="Shape"></path>
                </g>
                <g id="Ultralight-L" transform="translate(0.000000, 834.628409)">
                    <path d="M57.457,0 C51.103,0 45.952,5.151 45.952,11.504 C45.952,17.858 51.103,23.008 57.457,23.008 C63.81,23.008 68.961,17.858 68.961,11.504 C68.961,5.151 63.81,0 57.457,0 Z M103.398,26.527 C97.045,26.527 91.894,31.677 91.894,38.031 C91.894,44.385 97.045,49.535 103.398,49.535 C109.752,49.535 114.903,44.385 114.903,38.031 C114.903,31.677 109.752,26.527 103.398,26.527 Z M103.398,79.58 C97.045,79.58 91.894,84.731 91.894,91.084 C91.894,97.438 97.045,102.589 103.398,102.589 C109.752,102.589 114.903,97.438 114.903,91.084 C114.903,84.731 109.752,79.58 103.398,79.58 Z M57.457,106.107 C51.105,106.107 45.955,111.256 45.955,117.608 C45.955,123.96 51.105,129.11 57.457,129.11 C63.809,129.11 68.958,123.96 68.958,117.608 C68.958,111.256 63.809,106.107 57.457,106.107 Z M11.504,79.585 C5.152,79.585 0.003,84.735 0.003,91.087 C0.003,97.439 5.152,102.589 11.504,102.589 C17.858,102.589 23.009,97.438 23.009,91.084 C23.009,84.731 17.858,79.58 11.504,79.58 L11.504,79.585 Z M11.504,26.527 C5.151,26.527 5.32907052e-15,31.677 5.32907052e-15,38.031 C5.32907052e-15,44.385 5.151,49.535 11.504,49.535 C17.858,49.535 23.009,44.385 23.009,38.031 C23.009,31.677 17.858,26.527 11.504,26.527 Z M57.457,8.354 L8.777,36.457 L8.777,92.663 L57.457,120.766 L106.126,92.663 L106.126,36.457 L57.457,8.354 Z M57.457,16.967 L98.664,88.354 L16.238,88.354 L57.457,16.967 Z M49.995,18.963 L14.248,80.893 L14.248,39.61 L49.995,18.963 Z M64.918,18.963 L100.671,39.61 L100.671,80.893 L64.918,18.963 Z M21.699,93.82 L93.209,93.82 L57.457,114.456 L21.699,93.82 Z" id="Shape"></path>
                </g>
                <g id="Black-M" transform="translate(2386.594350, 419.140759)">
                    <path d="M44.54,0 C39.615,0 35.622,3.993 35.622,8.918 C35.622,13.843 39.615,17.836 44.54,17.836 C49.465,17.836 53.458,13.843 53.458,8.918 C53.458,3.993 49.465,0 44.54,0 Z M80.154,20.563 C75.228,20.563 71.236,24.556 71.236,29.481 C71.236,34.407 75.228,38.399 80.154,38.399 C85.079,38.399 89.072,34.407 89.072,29.481 C89.072,24.556 85.079,20.563 80.154,20.563 Z M80.154,61.69 C75.228,61.69 71.236,65.683 71.236,70.608 C71.236,75.533 75.228,79.526 80.154,79.526 C85.079,79.526 89.072,75.533 89.072,70.608 C89.072,65.683 85.079,61.69 80.154,61.69 Z M44.54,82.253 C39.616,82.253 35.624,86.245 35.624,91.169 C35.624,96.093 39.616,100.085 44.54,100.085 C49.464,100.085 53.456,96.093 53.456,91.169 C53.456,86.245 49.464,82.253 44.54,82.253 Z M8.918,61.694 C3.994,61.694 0.002,65.686 0.002,70.61 C0.002,75.534 3.994,79.526 8.918,79.526 C13.843,79.526 17.836,75.533 17.836,70.608 C17.836,65.683 13.843,61.69 8.918,61.69 L8.918,61.694 Z M8.918,20.563 C3.993,20.563 0,24.556 0,29.481 C0,34.407 3.993,38.399 8.918,38.399 C13.843,38.399 17.836,34.407 17.836,29.481 C17.836,24.556 13.843,20.563 8.918,20.563 Z M44.54,6.476 L6.804,28.262 L6.804,71.832 L44.54,93.617 L82.268,71.832 L82.268,28.262 L44.54,6.476 Z M44.54,13.153 L76.484,68.492 L12.588,68.492 L44.54,13.153 Z M38.756,14.7 L11.045,62.708 L11.045,30.705 L38.756,14.7 Z M50.324,14.7 L78.039,30.705 L78.039,62.708 L50.324,14.7 Z M16.821,72.729 L72.255,72.729 L44.54,88.726 L16.821,72.729 Z" id="Shape"></path>
                </g>
                <g id="Heavy-M" transform="translate(2089.884350, 419.140759)">
                    <path d="M44.54,0 C39.615,0 35.622,3.993 35.622,8.918 C35.622,13.843 39.615,17.836 44.54,17.836 C49.465,17.836 53.458,13.843 53.458,8.918 C53.458,3.993 49.465,0 44.54,0 Z M80.154,20.563 C75.228,20.563 71.236,24.556 71.236,29.481 C71.236,34.407 75.228,38.399 80.154,38.399 C85.079,38.399 89.072,34.407 89.072,29.481 C89.072,24.556 85.079,20.563 80.154,20.563 Z M80.154,61.69 C75.228,61.69 71.236,65.683 71.236,70.608 C71.236,75.533 75.228,79.526 80.154,79.526 C85.079,79.526 89.072,75.533 89.072,70.608 C89.072,65.683 85.079,61.69 80.154,61.69 Z M44.54,82.253 C39.616,82.253 35.624,86.245 35.624,91.169 C35.624,96.093 39.616,100.085 44.54,100.085 C49.464,100.085 53.456,96.093 53.456,91.169 C53.456,86.245 49.464,82.253 44.54,82.253 Z M8.918,61.694 C3.994,61.694 0.002,65.686 0.002,70.61 C0.002,75.534 3.994,79.526 8.918,79.526 C13.843,79.526 17.836,75.533 17.836,70.608 C17.836,65.683 13.843,61.69 8.918,61.69 L8.918,61.694 Z M8.918,20.563 C3.993,20.563 0,24.556 0,29.481 C0,34.407 3.993,38.399 8.918,38.399 C13.843,38.399 17.836,34.407 17.836,29.481 C17.836,24.556 13.843,20.563 8.918,20.563 Z M44.54,6.476 L6.804,28.262 L6.804,71.832 L44.54,93.617 L82.268,71.832 L82.268,28.262 L44.54,6.476 Z M44.54,13.153 L76.484,68.492 L12.588,68.492 L44.54,13.153 Z M38.756,14.7 L11.045,62.708 L11.045,30.705 L38.756,14.7 Z M50.324,14.7 L78.039,30.705 L78.039,62.708 L50.324,14.7 Z M16.821,72.729 L72.255,72.729 L44.54,88.726 L16.821,72.729 Z" id="Shape"></path>
                </g>
                <g id="Bold-M" transform="translate(1793.174350, 419.140759)">
                    <path d="M44.54,0 C39.615,0 35.622,3.993 35.622,8.918 C35.622,13.843 39.615,17.836 44.54,17.836 C49.465,17.836 53.458,13.843 53.458,8.918 C53.458,3.993 49.465,0 44.54,0 Z M80.154,20.563 C75.228,20.563 71.236,24.556 71.236,29.481 C71.236,34.407 75.228,38.399 80.154,38.399 C85.079,38.399 89.072,34.407 89.072,29.481 C89.072,24.556 85.079,20.563 80.154,20.563 Z M80.154,61.69 C75.228,61.69 71.236,65.683 71.236,70.608 C71.236,75.533 75.228,79.526 80.154,79.526 C85.079,79.526 89.072,75.533 89.072,70.608 C89.072,65.683 85.079,61.69 80.154,61.69 Z M44.54,82.253 C39.616,82.253 35.624,86.245 35.624,91.169 C35.624,96.093 39.616,100.085 44.54,100.085 C49.464,100.085 53.456,96.093 53.456,91.169 C53.456,86.245 49.464,82.253 44.54,82.253 Z M8.918,61.694 C3.994,61.694 0.002,65.686 0.002,70.61 C0.002,75.534 3.994,79.526 8.918,79.526 C13.843,79.526 17.836,75.533 17.836,70.608 C17.836,65.683 13.843,61.69 8.918,61.69 L8.918,61.694 Z M8.918,20.563 C3.993,20.563 0,24.556 0,29.481 C0,34.407 3.993,38.399 8.918,38.399 C13.843,38.399 17.836,34.407 17.836,29.481 C17.836,24.556 13.843,20.563 8.918,20.563 Z M44.54,6.476 L6.804,28.262 L6.804,71.832 L44.54,93.617 L82.268,71.832 L82.268,28.262 L44.54,6.476 Z M44.54,13.153 L76.484,68.492 L12.588,68.492 L44.54,13.153 Z M38.756,14.7 L11.045,62.708 L11.045,30.705 L38.756,14.7 Z M50.324,14.7 L78.039,30.705 L78.039,62.708 L50.324,14.7 Z M16.821,72.729 L72.255,72.729 L44.54,88.726 L16.821,72.729 Z" id="Shape"></path>
                </g>
                <g id="Semibold-M" transform="translate(1496.464350, 419.140759)">
                    <path d="M44.54,0 C39.615,0 35.622,3.993 35.622,8.918 C35.622,13.843 39.615,17.836 44.54,17.836 C49.465,17.836 53.458,13.843 53.458,8.918 C53.458,3.993 49.465,0 44.54,0 Z M80.154,20.563 C75.228,20.563 71.236,24.556 71.236,29.481 C71.236,34.407 75.228,38.399 80.154,38.399 C85.079,38.399 89.072,34.407 89.072,29.481 C89.072,24.556 85.079,20.563 80.154,20.563 Z M80.154,61.69 C75.228,61.69 71.236,65.683 71.236,70.608 C71.236,75.533 75.228,79.526 80.154,79.526 C85.079,79.526 89.072,75.533 89.072,70.608 C89.072,65.683 85.079,61.69 80.154,61.69 Z M44.54,82.253 C39.616,82.253 35.624,86.245 35.624,91.169 C35.624,96.093 39.616,100.085 44.54,100.085 C49.464,100.085 53.456,96.093 53.456,91.169 C53.456,86.245 49.464,82.253 44.54,82.253 Z M8.918,61.694 C3.994,61.694 0.002,65.686 0.002,70.61 C0.002,75.534 3.994,79.526 8.918,79.526 C13.843,79.526 17.836,75.533 17.836,70.608 C17.836,65.683 13.843,61.69 8.918,61.69 L8.918,61.694 Z M8.918,20.563 C3.993,20.563 0,24.556 0,29.481 C0,34.407 3.993,38.399 8.918,38.399 C13.843,38.399 17.836,34.407 17.836,29.481 C17.836,24.556 13.843,20.563 8.918,20.563 Z M44.54,6.476 L6.804,28.262 L6.804,71.832 L44.54,93.617 L82.268,71.832 L82.268,28.262 L44.54,6.476 Z M44.54,13.153 L76.484,68.492 L12.588,68.492 L44.54,13.153 Z M38.756,14.7 L11.045,62.708 L11.045,30.705 L38.756,14.7 Z M50.324,14.7 L78.039,30.705 L78.039,62.708 L50.324,14.7 Z M16.821,72.729 L72.255,72.729 L44.54,88.726 L16.821,72.729 Z" id="Shape"></path>
                </g>
                <g id="Medium-M" transform="translate(1199.754350, 419.140759)">
                    <path d="M44.54,0 C39.615,0 35.622,3.993 35.622,8.918 C35.622,13.843 39.615,17.836 44.54,17.836 C49.465,17.836 53.458,13.843 53.458,8.918 C53.458,3.993 49.465,0 44.54,0 Z M80.154,20.563 C75.228,20.563 71.236,24.556 71.236,29.481 C71.236,34.407 75.228,38.399 80.154,38.399 C85.079,38.399 89.072,34.407 89.072,29.481 C89.072,24.556 85.079,20.563 80.154,20.563 Z M80.154,61.69 C75.228,61.69 71.236,65.683 71.236,70.608 C71.236,75.533 75.228,79.526 80.154,79.526 C85.079,79.526 89.072,75.533 89.072,70.608 C89.072,65.683 85.079,61.69 80.154,61.69 Z M44.54,82.253 C39.616,82.253 35.624,86.245 35.624,91.169 C35.624,96.093 39.616,100.085 44.54,100.085 C49.464,100.085 53.456,96.093 53.456,91.169 C53.456,86.245 49.464,82.253 44.54,82.253 Z M8.918,61.694 C3.994,61.694 0.002,65.686 0.002,70.61 C0.002,75.534 3.994,79.526 8.918,79.526 C13.843,79.526 17.836,75.533 17.836,70.608 C17.836,65.683 13.843,61.69 8.918,61.69 L8.918,61.694 Z M8.918,20.563 C3.993,20.563 0,24.556 0,29.481 C0,34.407 3.993,38.399 8.918,38.399 C13.843,38.399 17.836,34.407 17.836,29.481 C17.836,24.556 13.843,20.563 8.918,20.563 Z M44.54,6.476 L6.804,28.262 L6.804,71.832 L44.54,93.617 L82.268,71.832 L82.268,28.262 L44.54,6.476 Z M44.54,13.153 L76.484,68.492 L12.588,68.492 L44.54,13.153 Z M38.756,14.7 L11.045,62.708 L11.045,30.705 L38.756,14.7 Z M50.324,14.7 L78.039,30.705 L78.039,62.708 L50.324,14.7 Z M16.821,72.729 L72.255,72.729 L44.54,88.726 L16.821,72.729 Z" id="Shape"></path>
                </g>
                <g id="Regular-M" transform="translate(903.044350, 419.140759)">
                    <path d="M44.54,0 C39.615,0 35.622,3.993 35.622,8.918 C35.622,13.843 39.615,17.836 44.54,17.836 C49.465,17.836 53.458,13.843 53.458,8.918 C53.458,3.993 49.465,0 44.54,0 Z M80.154,20.563 C75.228,20.563 71.236,24.556 71.236,29.481 C71.236,34.407 75.228,38.399 80.154,38.399 C85.079,38.399 89.072,34.407 89.072,29.481 C89.072,24.556 85.079,20.563 80.154,20.563 Z M80.154,61.69 C75.228,61.69 71.236,65.683 71.236,70.608 C71.236,75.533 75.228,79.526 80.154,79.526 C85.079,79.526 89.072,75.533 89.072,70.608 C89.072,65.683 85.079,61.69 80.154,61.69 Z M44.54,82.253 C39.616,82.253 35.624,86.245 35.624,91.169 C35.624,96.093 39.616,100.085 44.54,100.085 C49.464,100.085 53.456,96.093 53.456,91.169 C53.456,86.245 49.464,82.253 44.54,82.253 Z M8.918,61.694 C3.994,61.694 0.002,65.686 0.002,70.61 C0.002,75.534 3.994,79.526 8.918,79.526 C13.843,79.526 17.836,75.533 17.836,70.608 C17.836,65.683 13.843,61.69 8.918,61.69 L8.918,61.694 Z M8.918,20.563 C3.993,20.563 0,24.556 0,29.481 C0,34.407 3.993,38.399 8.918,38.399 C13.843,38.399 17.836,34.407 17.836,29.481 C17.836,24.556 13.843,20.563 8.918,20.563 Z M44.54,6.476 L6.804,28.262 L6.804,71.832 L44.54,93.617 L82.268,71.832 L82.268,28.262 L44.54,6.476 Z M44.54,13.153 L76.484,68.492 L12.588,68.492 L44.54,13.153 Z M38.756,14.7 L11.045,62.708 L11.045,30.705 L38.756,14.7 Z M50.324,14.7 L78.039,30.705 L78.039,62.708 L50.324,14.7 Z M16.821,72.729 L72.255,72.729 L44.54,88.726 L16.821,72.729 Z" id="Shape"></path>
                </g>
                <g id="Light-M" transform="translate(606.334350, 419.140759)">
                    <path d="M44.54,0 C39.615,0 35.622,3.993 35.622,8.918 C35.622,13.843 39.615,17.836 44.54,17.836 C49.465,17.836 53.458,13.843 53.458,8.918 C53.458,3.993 49.465,0 44.54,0 Z M80.154,20.563 C75.228,20.563 71.236,24.556 71.236,29.481 C71.236,34.407 75.228,38.399 80.154,38.399 C85.079,38.399 89.072,34.407 89.072,29.481 C89.072,24.556 85.079,20.563 80.154,20.563 Z M80.154,61.69 C75.228,61.69 71.236,65.683 71.236,70.608 C71.236,75.533 75.228,79.526 80.154,79.526 C85.079,79.526 89.072,75.533 89.072,70.608 C89.072,65.683 85.079,61.69 80.154,61.69 Z M44.54,82.253 C39.616,82.253 35.624,86.245 35.624,91.169 C35.624,96.093 39.616,100.085 44.54,100.085 C49.464,100.085 53.456,96.093 53.456,91.169 C53.456,86.245 49.464,82.253 44.54,82.253 Z M8.918,61.694 C3.994,61.694 0.002,65.686 0.002,70.61 C0.002,75.534 3.994,79.526 8.918,79.526 C13.843,79.526 17.836,75.533 17.836,70.608 C17.836,65.683 13.843,61.69 8.918,61.69 L8.918,61.694 Z M8.918,20.563 C3.993,20.563 0,24.556 0,29.481 C0,34.407 3.993,38.399 8.918,38.399 C13.843,38.399 17.836,34.407 17.836,29.481 C17.836,24.556 13.843,20.563 8.918,20.563 Z M44.54,6.476 L6.804,28.262 L6.804,71.832 L44.54,93.617 L82.268,71.832 L82.268,28.262 L44.54,6.476 Z M44.54,13.153 L76.484,68.492 L12.588,68.492 L44.54,13.153 Z M38.756,14.7 L11.045,62.708 L11.045,30.705 L38.756,14.7 Z M50.324,14.7 L78.039,30.705 L78.039,62.708 L50.324,14.7 Z M16.821,72.729 L72.255,72.729 L44.54,88.726 L16.821,72.729 Z" id="Shape"></path>
                </g>
                <g id="Thin-M" transform="translate(309.624350, 419.140759)">
                    <path d="M44.54,0 C39.615,0 35.622,3.993 35.622,8.918 C35.622,13.843 39.615,17.836 44.54,17.836 C49.465,17.836 53.458,13.843 53.458,8.918 C53.458,3.993 49.465,0 44.54,0 Z M80.154,20.563 C75.228,20.563 71.236,24.556 71.236,29.481 C71.236,34.407 75.228,38.399 80.154,38.399 C85.079,38.399 89.072,34.407 89.072,29.481 C89.072,24.556 85.079,20.563 80.154,20.563 Z M80.154,61.69 C75.228,61.69 71.236,65.683 71.236,70.608 C71.236,75.533 75.228,79.526 80.154,79.526 C85.079,79.526 89.072,75.533 89.072,70.608 C89.072,65.683 85.079,61.69 80.154,61.69 Z M44.54,82.253 C39.616,82.253 35.624,86.245 35.624,91.169 C35.624,96.093 39.616,100.085 44.54,100.085 C49.464,100.085 53.456,96.093 53.456,91.169 C53.456,86.245 49.464,82.253 44.54,82.253 Z M8.918,61.694 C3.994,61.694 0.002,65.686 0.002,70.61 C0.002,75.534 3.994,79.526 8.918,79.526 C13.843,79.526 17.836,75.533 17.836,70.608 C17.836,65.683 13.843,61.69 8.918,61.69 L8.918,61.694 Z M8.918,20.563 C3.993,20.563 0,24.556 0,29.481 C0,34.407 3.993,38.399 8.918,38.399 C13.843,38.399 17.836,34.407 17.836,29.481 C17.836,24.556 13.843,20.563 8.918,20.563 Z M44.54,6.476 L6.804,28.262 L6.804,71.832 L44.54,93.617 L82.268,71.832 L82.268,28.262 L44.54,6.476 Z M44.54,13.153 L76.484,68.492 L12.588,68.492 L44.54,13.153 Z M38.756,14.7 L11.045,62.708 L11.045,30.705 L38.756,14.7 Z M50.324,14.7 L78.039,30.705 L78.039,62.708 L50.324,14.7 Z M16.821,72.729 L72.255,72.729 L44.54,88.726 L16.821,72.729 Z" id="Shape"></path>
                </g>
                <g id="Ultralight-M" transform="translate(12.914350, 419.140759)">
                    <path d="M44.54,0 C39.615,0 35.622,3.993 35.622,8.918 C35.622,13.843 39.615,17.836 44.54,17.836 C49.465,17.836 53.458,13.843 53.458,8.918 C53.458,3.993 49.465,0 44.54,0 Z M80.154,20.563 C75.228,20.563 71.236,24.556 71.236,29.481 C71.236,34.407 75.228,38.399 80.154,38.399 C85.079,38.399 89.072,34.407 89.072,29.481 C89.072,24.556 85.079,20.563 80.154,20.563 Z M80.154,61.69 C75.228,61.69 71.236,65.683 71.236,70.608 C71.236,75.533 75.228,79.526 80.154,79.526 C85.079,79.526 89.072,75.533 89.072,70.608 C89.072,65.683 85.079,61.69 80.154,61.69 Z M44.54,82.253 C39.616,82.253 35.624,86.245 35.624,91.169 C35.624,96.093 39.616,100.085 44.54,100.085 C49.464,100.085 53.456,96.093 53.456,91.169 C53.456,86.245 49.464,82.253 44.54,82.253 Z M8.918,61.694 C3.994,61.694 0.002,65.686 0.002,70.61 C0.002,75.534 3.994,79.526 8.918,79.526 C13.843,79.526 17.836,75.533 17.836,70.608 C17.836,65.683 13.843,61.69 8.918,61.69 L8.918,61.694 Z M8.918,20.563 C3.993,20.563 0,24.556 0,29.481 C0,34.407 3.993,38.399 8.918,38.399 C13.843,38.399 17.836,34.407 17.836,29.481 C17.836,24.556 13.843,20.563 8.918,20.563 Z M44.54,6.476 L6.804,28.262 L6.804,71.832 L44.54,93.617 L82.268,71.832 L82.268,28.262 L44.54,6.476 Z M44.54,13.153 L76.484,68.492 L12.588,68.492 L44.54,13.153 Z M38.756,14.7 L11.045,62.708 L11.045,30.705 L38.756,14.7 Z M50.324,14.7 L78.039,30.705 L78.039,62.708 L50.324,14.7 Z M16.821,72.729 L72.255,72.729 L44.54,88.726 L16.821,72.729 Z" id="Shape"></path>
                </g>
                <g id="Black-S" transform="translate(2396.257591, 0.000000)">
                    <path d="M34.875,0 C31.018,0 27.892,3.126 27.892,6.983 C27.892,10.839 31.018,13.966 34.875,13.966 C38.731,13.966 41.858,10.839 41.858,6.983 C41.858,3.126 38.731,0 34.875,0 Z M62.76,16.101 C58.904,16.101 55.778,19.227 55.778,23.084 C55.778,26.94 58.904,30.067 62.76,30.067 C66.617,30.067 69.743,26.94 69.743,23.084 C69.743,19.227 66.617,16.101 62.76,16.101 Z M62.76,48.303 C58.904,48.303 55.778,51.43 55.778,55.286 C55.778,59.143 58.904,62.269 62.76,62.269 C66.617,62.269 69.743,59.143 69.743,55.286 C69.743,51.43 66.617,48.303 62.76,48.303 Z M34.875,64.404 C31.019,64.404 27.894,67.53 27.894,71.386 C27.894,75.241 31.019,78.367 34.875,78.367 C38.73,78.367 41.856,75.241 41.856,71.386 C41.856,67.53 38.73,64.404 34.875,64.404 Z M6.983,48.307 C3.127,48.307 0.002,51.432 0.002,55.288 C0.002,59.143 3.127,62.269 6.983,62.269 C10.839,62.269 13.966,59.143 13.966,55.286 C13.966,51.43 10.839,48.303 6.983,48.303 L6.983,48.307 Z M6.983,16.101 C3.126,16.101 2.66453526e-15,19.227 2.66453526e-15,23.084 C2.66453526e-15,26.94 3.126,30.067 6.983,30.067 C10.839,30.067 13.966,26.94 13.966,23.084 C13.966,19.227 10.839,16.101 6.983,16.101 Z M34.875,5.071 L5.327,22.129 L5.327,56.244 L34.875,73.302 L64.416,56.244 L64.416,22.129 L34.875,5.071 Z M34.875,10.299 L59.887,53.629 L9.856,53.629 L34.875,10.299 Z M30.346,11.51 L8.648,49.1 L8.648,24.042 L30.346,11.51 Z M39.404,11.51 L61.105,24.042 L61.105,49.1 L39.404,11.51 Z M13.171,56.946 L56.576,56.946 L34.875,69.472 L13.171,56.946 Z" id="Shape"></path>
                </g>
                <g id="Heavy-S" transform="translate(2099.547591, 0.000000)">
                    <path d="M34.875,0 C31.018,0 27.892,3.126 27.892,6.983 C27.892,10.839 31.018,13.966 34.875,13.966 C38.731,13.966 41.858,10.839 41.858,6.983 C41.858,3.126 38.731,0 34.875,0 Z M62.76,16.101 C58.904,16.101 55.778,19.227 55.778,23.084 C55.778,26.94 58.904,30.067 62.76,30.067 C66.617,30.067 69.743,26.94 69.743,23.084 C69.743,19.227 66.617,16.101 62.76,16.101 Z M62.76,48.303 C58.904,48.303 55.778,51.43 55.778,55.286 C55.778,59.143 58.904,62.269 62.76,62.269 C66.617,62.269 69.743,59.143 69.743,55.286 C69.743,51.43 66.617,48.303 62.76,48.303 Z M34.875,64.404 C31.019,64.404 27.894,67.53 27.894,71.386 C27.894,75.241 31.019,78.367 34.875,78.367 C38.73,78.367 41.856,75.241 41.856,71.386 C41.856,67.53 38.73,64.404 34.875,64.404 Z M6.983,48.307 C3.127,48.307 0.002,51.432 0.002,55.288 C0.002,59.143 3.127,62.269 6.983,62.269 C10.839,62.269 13.966,59.143 13.966,55.286 C13.966,51.43 10.839,48.303 6.983,48.303 L6.983,48.307 Z M6.983,16.101 C3.126,16.101 2.66453526e-15,19.227 2.66453526e-15,23.084 C2.66453526e-15,26.94 3.126,30.067 6.983,30.067 C10.839,30.067 13.966,26.94 13.966,23.084 C13.966,19.227 10.839,16.101 6.983,16.101 Z M34.875,5.071 L5.327,22.129 L5.327,56.244 L34.875,73.302 L64.416,56.244 L64.416,22.129 L34.875,5.071 Z M34.875,10.299 L59.887,53.629 L9.856,53.629 L34.875,10.299 Z M30.346,11.51 L8.648,49.1 L8.648,24.042 L30.346,11.51 Z M39.404,11.51 L61.105,24.042 L61.105,49.1 L39.404,11.51 Z M13.171,56.946 L56.576,56.946 L34.875,69.472 L13.171,56.946 Z" id="Shape"></path>
                </g>
                <g id="Bold-S" transform="translate(1802.837591, 0.000000)">
                    <path d="M34.875,0 C31.018,0 27.892,3.126 27.892,6.983 C27.892,10.839 31.018,13.966 34.875,13.966 C38.731,13.966 41.858,10.839 41.858,6.983 C41.858,3.126 38.731,0 34.875,0 Z M62.76,16.101 C58.904,16.101 55.778,19.227 55.778,23.084 C55.778,26.94 58.904,30.067 62.76,30.067 C66.617,30.067 69.743,26.94 69.743,23.084 C69.743,19.227 66.617,16.101 62.76,16.101 Z M62.76,48.303 C58.904,48.303 55.778,51.43 55.778,55.286 C55.778,59.143 58.904,62.269 62.76,62.269 C66.617,62.269 69.743,59.143 69.743,55.286 C69.743,51.43 66.617,48.303 62.76,48.303 Z M34.875,64.404 C31.019,64.404 27.894,67.53 27.894,71.386 C27.894,75.241 31.019,78.367 34.875,78.367 C38.73,78.367 41.856,75.241 41.856,71.386 C41.856,67.53 38.73,64.404 34.875,64.404 Z M6.983,48.307 C3.127,48.307 0.002,51.432 0.002,55.288 C0.002,59.143 3.127,62.269 6.983,62.269 C10.839,62.269 13.966,59.143 13.966,55.286 C13.966,51.43 10.839,48.303 6.983,48.303 L6.983,48.307 Z M6.983,16.101 C3.126,16.101 2.66453526e-15,19.227 2.66453526e-15,23.084 C2.66453526e-15,26.94 3.126,30.067 6.983,30.067 C10.839,30.067 13.966,26.94 13.966,23.084 C13.966,19.227 10.839,16.101 6.983,16.101 Z M34.875,5.071 L5.327,22.129 L5.327,56.244 L34.875,73.302 L64.416,56.244 L64.416,22.129 L34.875,5.071 Z M34.875,10.299 L59.887,53.629 L9.856,53.629 L34.875,10.299 Z M30.346,11.51 L8.648,49.1 L8.648,24.042 L30.346,11.51 Z M39.404,11.51 L61.105,24.042 L61.105,49.1 L39.404,11.51 Z M13.171,56.946 L56.576,56.946 L34.875,69.472 L13.171,56.946 Z" id="Shape"></path>
                </g>
                <g id="Semibold-S" transform="translate(1506.127591, 0.000000)">
                    <path d="M34.875,0 C31.018,0 27.892,3.126 27.892,6.983 C27.892,10.839 31.018,13.966 34.875,13.966 C38.731,13.966 41.858,10.839 41.858,6.983 C41.858,3.126 38.731,0 34.875,0 Z M62.76,16.101 C58.904,16.101 55.778,19.227 55.778,23.084 C55.778,26.94 58.904,30.067 62.76,30.067 C66.617,30.067 69.743,26.94 69.743,23.084 C69.743,19.227 66.617,16.101 62.76,16.101 Z M62.76,48.303 C58.904,48.303 55.778,51.43 55.778,55.286 C55.778,59.143 58.904,62.269 62.76,62.269 C66.617,62.269 69.743,59.143 69.743,55.286 C69.743,51.43 66.617,48.303 62.76,48.303 Z M34.875,64.404 C31.019,64.404 27.894,67.53 27.894,71.386 C27.894,75.241 31.019,78.367 34.875,78.367 C38.73,78.367 41.856,75.241 41.856,71.386 C41.856,67.53 38.73,64.404 34.875,64.404 Z M6.983,48.307 C3.127,48.307 0.002,51.432 0.002,55.288 C0.002,59.143 3.127,62.269 6.983,62.269 C10.839,62.269 13.966,59.143 13.966,55.286 C13.966,51.43 10.839,48.303 6.983,48.303 L6.983,48.307 Z M6.983,16.101 C3.126,16.101 2.66453526e-15,19.227 2.66453526e-15,23.084 C2.66453526e-15,26.94 3.126,30.067 6.983,30.067 C10.839,30.067 13.966,26.94 13.966,23.084 C13.966,19.227 10.839,16.101 6.983,16.101 Z M34.875,5.071 L5.327,22.129 L5.327,56.244 L34.875,73.302 L64.416,56.244 L64.416,22.129 L34.875,5.071 Z M34.875,10.299 L59.887,53.629 L9.856,53.629 L34.875,10.299 Z M30.346,11.51 L8.648,49.1 L8.648,24.042 L30.346,11.51 Z M39.404,11.51 L61.105,24.042 L61.105,49.1 L39.404,11.51 Z M13.171,56.946 L56.576,56.946 L34.875,69.472 L13.171,56.946 Z" id="Shape"></path>
                </g>
                <g id="Medium-S" transform="translate(1209.417591, 0.000000)">
                    <path d="M34.875,0 C31.018,0 27.892,3.126 27.892,6.983 C27.892,10.839 31.018,13.966 34.875,13.966 C38.731,13.966 41.858,10.839 41.858,6.983 C41.858,3.126 38.731,0 34.875,0 Z M62.76,16.101 C58.904,16.101 55.778,19.227 55.778,23.084 C55.778,26.94 58.904,30.067 62.76,30.067 C66.617,30.067 69.743,26.94 69.743,23.084 C69.743,19.227 66.617,16.101 62.76,16.101 Z M62.76,48.303 C58.904,48.303 55.778,51.43 55.778,55.286 C55.778,59.143 58.904,62.269 62.76,62.269 C66.617,62.269 69.743,59.143 69.743,55.286 C69.743,51.43 66.617,48.303 62.76,48.303 Z M34.875,64.404 C31.019,64.404 27.894,67.53 27.894,71.386 C27.894,75.241 31.019,78.367 34.875,78.367 C38.73,78.367 41.856,75.241 41.856,71.386 C41.856,67.53 38.73,64.404 34.875,64.404 Z M6.983,48.307 C3.127,48.307 0.002,51.432 0.002,55.288 C0.002,59.143 3.127,62.269 6.983,62.269 C10.839,62.269 13.966,59.143 13.966,55.286 C13.966,51.43 10.839,48.303 6.983,48.303 L6.983,48.307 Z M6.983,16.101 C3.126,16.101 2.66453526e-15,19.227 2.66453526e-15,23.084 C2.66453526e-15,26.94 3.126,30.067 6.983,30.067 C10.839,30.067 13.966,26.94 13.966,23.084 C13.966,19.227 10.839,16.101 6.983,16.101 Z M34.875,5.071 L5.327,22.129 L5.327,56.244 L34.875,73.302 L64.416,56.244 L64.416,22.129 L34.875,5.071 Z M34.875,10.299 L59.887,53.629 L9.856,53.629 L34.875,10.299 Z M30.346,11.51 L8.648,49.1 L8.648,24.042 L30.346,11.51 Z M39.404,11.51 L61.105,24.042 L61.105,49.1 L39.404,11.51 Z M13.171,56.946 L56.576,56.946 L34.875,69.472 L13.171,56.946 Z" id="Shape"></path>
                </g>
                <g id="Regular-S" transform="translate(912.707591, 0.000000)">
                    <path d="M34.875,0 C31.018,0 27.892,3.126 27.892,6.983 C27.892,10.839 31.018,13.966 34.875,13.966 C38.731,13.966 41.858,10.839 41.858,6.983 C41.858,3.126 38.731,0 34.875,0 Z M62.76,16.101 C58.904,16.101 55.778,19.227 55.778,23.084 C55.778,26.94 58.904,30.067 62.76,30.067 C66.617,30.067 69.743,26.94 69.743,23.084 C69.743,19.227 66.617,16.101 62.76,16.101 Z M62.76,48.303 C58.904,48.303 55.778,51.43 55.778,55.286 C55.778,59.143 58.904,62.269 62.76,62.269 C66.617,62.269 69.743,59.143 69.743,55.286 C69.743,51.43 66.617,48.303 62.76,48.303 Z M34.875,64.404 C31.019,64.404 27.894,67.53 27.894,71.386 C27.894,75.241 31.019,78.367 34.875,78.367 C38.73,78.367 41.856,75.241 41.856,71.386 C41.856,67.53 38.73,64.404 34.875,64.404 Z M6.983,48.307 C3.127,48.307 0.002,51.432 0.002,55.288 C0.002,59.143 3.127,62.269 6.983,62.269 C10.839,62.269 13.966,59.143 13.966,55.286 C13.966,51.43 10.839,48.303 6.983,48.303 L6.983,48.307 Z M6.983,16.101 C3.126,16.101 2.66453526e-15,19.227 2.66453526e-15,23.084 C2.66453526e-15,26.94 3.126,30.067 6.983,30.067 C10.839,30.067 13.966,26.94 13.966,23.084 C13.966,19.227 10.839,16.101 6.983,16.101 Z M34.875,5.071 L5.327,22.129 L5.327,56.244 L34.875,73.302 L64.416,56.244 L64.416,22.129 L34.875,5.071 Z M34.875,10.299 L59.887,53.629 L9.856,53.629 L34.875,10.299 Z M30.346,11.51 L8.648,49.1 L8.648,24.042 L30.346,11.51 Z M39.404,11.51 L61.105,24.042 L61.105,49.1 L39.404,11.51 Z M13.171,56.946 L56.576,56.946 L34.875,69.472 L13.171,56.946 Z" id="Shape"></path>
                </g>
                <g id="Light-S" transform="translate(615.997591, 0.000000)">
                    <path d="M34.875,0 C31.018,0 27.892,3.126 27.892,6.983 C27.892,10.839 31.018,13.966 34.875,13.966 C38.731,13.966 41.858,10.839 41.858,6.983 C41.858,3.126 38.731,0 34.875,0 Z M62.76,16.101 C58.904,16.101 55.778,19.227 55.778,23.084 C55.778,26.94 58.904,30.067 62.76,30.067 C66.617,30.067 69.743,26.94 69.743,23.084 C69.743,19.227 66.617,16.101 62.76,16.101 Z M62.76,48.303 C58.904,48.303 55.778,51.43 55.778,55.286 C55.778,59.143 58.904,62.269 62.76,62.269 C66.617,62.269 69.743,59.143 69.743,55.286 C69.743,51.43 66.617,48.303 62.76,48.303 Z M34.875,64.404 C31.019,64.404 27.894,67.53 27.894,71.386 C27.894,75.241 31.019,78.367 34.875,78.367 C38.73,78.367 41.856,75.241 41.856,71.386 C41.856,67.53 38.73,64.404 34.875,64.404 Z M6.983,48.307 C3.127,48.307 0.002,51.432 0.002,55.288 C0.002,59.143 3.127,62.269 6.983,62.269 C10.839,62.269 13.966,59.143 13.966,55.286 C13.966,51.43 10.839,48.303 6.983,48.303 L6.983,48.307 Z M6.983,16.101 C3.126,16.101 2.66453526e-15,19.227 2.66453526e-15,23.084 C2.66453526e-15,26.94 3.126,30.067 6.983,30.067 C10.839,30.067 13.966,26.94 13.966,23.084 C13.966,19.227 10.839,16.101 6.983,16.101 Z M34.875,5.071 L5.327,22.129 L5.327,56.244 L34.875,73.302 L64.416,56.244 L64.416,22.129 L34.875,5.071 Z M34.875,10.299 L59.887,53.629 L9.856,53.629 L34.875,10.299 Z M30.346,11.51 L8.648,49.1 L8.648,24.042 L30.346,11.51 Z M39.404,11.51 L61.105,24.042 L61.105,49.1 L39.404,11.51 Z M13.171,56.946 L56.576,56.946 L34.875,69.472 L13.171,56.946 Z" id="Shape"></path>
                </g>
                <g id="Thin-S" transform="translate(319.287591, 0.000000)">
                    <path d="M34.875,0 C31.018,0 27.892,3.126 27.892,6.983 C27.892,10.839 31.018,13.966 34.875,13.966 C38.731,13.966 41.858,10.839 41.858,6.983 C41.858,3.126 38.731,0 34.875,0 Z M62.76,16.101 C58.904,16.101 55.778,19.227 55.778,23.084 C55.778,26.94 58.904,30.067 62.76,30.067 C66.617,30.067 69.743,26.94 69.743,23.084 C69.743,19.227 66.617,16.101 62.76,16.101 Z M62.76,48.303 C58.904,48.303 55.778,51.43 55.778,55.286 C55.778,59.143 58.904,62.269 62.76,62.269 C66.617,62.269 69.743,59.143 69.743,55.286 C69.743,51.43 66.617,48.303 62.76,48.303 Z M34.875,64.404 C31.019,64.404 27.894,67.53 27.894,71.386 C27.894,75.241 31.019,78.367 34.875,78.367 C38.73,78.367 41.856,75.241 41.856,71.386 C41.856,67.53 38.73,64.404 34.875,64.404 Z M6.983,48.307 C3.127,48.307 0.002,51.432 0.002,55.288 C0.002,59.143 3.127,62.269 6.983,62.269 C10.839,62.269 13.966,59.143 13.966,55.286 C13.966,51.43 10.839,48.303 6.983,48.303 L6.983,48.307 Z M6.983,16.101 C3.126,16.101 2.66453526e-15,19.227 2.66453526e-15,23.084 C2.66453526e-15,26.94 3.126,30.067 6.983,30.067 C10.839,30.067 13.966,26.94 13.966,23.084 C13.966,19.227 10.839,16.101 6.983,16.101 Z M34.875,5.071 L5.327,22.129 L5.327,56.244 L34.875,73.302 L64.416,56.244 L64.416,22.129 L34.875,5.071 Z M34.875,10.299 L59.887,53.629 L9.856,53.629 L34.875,10.299 Z M30.346,11.51 L8.648,49.1 L8.648,24.042 L30.346,11.51 Z M39.404,11.51 L61.105,24.042 L61.105,49.1 L39.404,11.51 Z M13.171,56.946 L56.576,56.946 L34.875,69.472 L13.171,56.946 Z" id="Shape"></path>
                </g>
                <g id="Ultralight-S" transform="translate(22.577591, 0.000000)">
                    <path d="M34.875,0 C31.018,0 27.892,3.126 27.892,6.983 C27.892,10.839 31.018,13.966 34.875,13.966 C38.731,13.966 41.858,10.839 41.858,6.983 C41.858,3.126 38.731,0 34.875,0 Z M62.76,16.101 C58.904,16.101 55.778,19.227 55.778,23.084 C55.778,26.94 58.904,30.067 62.76,30.067 C66.617,30.067 69.743,26.94 69.743,23.084 C69.743,19.227 66.617,16.101 62.76,16.101 Z M62.76,48.303 C58.904,48.303 55.778,51.43 55.778,55.286 C55.778,59.143 58.904,62.269 62.76,62.269 C66.617,62.269 69.743,59.143 69.743,55.286 C69.743,51.43 66.617,48.303 62.76,48.303 Z M34.875,64.404 C31.019,64.404 27.894,67.53 27.894,71.386 C27.894,75.241 31.019,78.367 34.875,78.367 C38.73,78.367 41.856,75.241 41.856,71.386 C41.856,67.53 38.73,64.404 34.875,64.404 Z M6.983,48.307 C3.127,48.307 0.002,51.432 0.002,55.288 C0.002,59.143 3.127,62.269 6.983,62.269 C10.839,62.269 13.966,59.143 13.966,55.286 C13.966,51.43 10.839,48.303 6.983,48.303 L6.983,48.307 Z M6.983,16.101 C3.126,16.101 2.66453526e-15,19.227 2.66453526e-15,23.084 C2.66453526e-15,26.94 3.126,30.067 6.983,30.067 C10.839,30.067 13.966,26.94 13.966,23.084 C13.966,19.227 10.839,16.101 6.983,16.101 Z M34.875,5.071 L5.327,22.129 L5.327,56.244 L34.875,73.302 L64.416,56.244 L64.416,22.129 L34.875,5.071 Z M34.875,10.299 L59.887,53.629 L9.856,53.629 L34.875,10.299 Z M30.346,11.51 L8.648,49.1 L8.648,24.042 L30.346,11.51 Z M39.404,11.51 L61.105,24.042 L61.105,49.1 L39.404,11.51 Z M13.171,56.946 L56.576,56.946 L34.875,69.472 L13.171,56.946 Z" id="Shape"></path>
                </g>
            </g>
        </g>
    </g>
</svg>