<?xml version="1.0" encoding="UTF-8"?>
<!--Generator: Apple Native CoreSVG 175.5-->
<!DOCTYPE svg
PUBLIC "-//W3C//DTD SVG 1.1//EN"
       "http://www.w3.org/Graphics/SVG/1.1/DTD/svg11.dtd">
<svg version="1.1" xmlns="http://www.w3.org/2000/svg" xmlns:xlink="http://www.w3.org/1999/xlink" width="3300" height="2200">
 <!--glyph: "", point size: 100.0, font version: "18.0d12e2", template writer version: "101"-->
 <style>.monochrome-0 {fill:#000000}

.SFSymbolsPreview000000 {fill:#000000;opacity:1.0}
</style>
 <g id="Notes">
  <rect height="2200" id="artboard" style="fill:white;opacity:1" width="3300" x="0" y="0"/>
  <line style="fill:none;stroke:black;opacity:1;stroke-width:0.5;" x1="263" x2="3036" y1="292" y2="292"/>
  <text style="stroke:none;fill:black;font-family:sans-serif;font-size:13;font-weight:bold;" transform="matrix(1 0 0 1 263 322)">Weight/Scale Variations</text>
  <text style="stroke:none;fill:black;font-family:sans-serif;font-size:13;text-anchor:middle;" transform="matrix(1 0 0 1 559.711 322)">Ultralight</text>
  <text style="stroke:none;fill:black;font-family:sans-serif;font-size:13;text-anchor:middle;" transform="matrix(1 0 0 1 856.422 322)">Thin</text>
  <text style="stroke:none;fill:black;font-family:sans-serif;font-size:13;text-anchor:middle;" transform="matrix(1 0 0 1 1153.13 322)">Light</text>
  <text style="stroke:none;fill:black;font-family:sans-serif;font-size:13;text-anchor:middle;" transform="matrix(1 0 0 1 1449.84 322)">Regular</text>
  <text style="stroke:none;fill:black;font-family:sans-serif;font-size:13;text-anchor:middle;" transform="matrix(1 0 0 1 1746.56 322)">Medium</text>
  <text style="stroke:none;fill:black;font-family:sans-serif;font-size:13;text-anchor:middle;" transform="matrix(1 0 0 1 2043.27 322)">Semibold</text>
  <text style="stroke:none;fill:black;font-family:sans-serif;font-size:13;text-anchor:middle;" transform="matrix(1 0 0 1 2339.98 322)">Bold</text>
  <text style="stroke:none;fill:black;font-family:sans-serif;font-size:13;text-anchor:middle;" transform="matrix(1 0 0 1 2636.69 322)">Heavy</text>
  <text style="stroke:none;fill:black;font-family:sans-serif;font-size:13;text-anchor:middle;" transform="matrix(1 0 0 1 2933.4 322)">Black</text>
  <line style="fill:none;stroke:black;opacity:1;stroke-width:0.5;" x1="263" x2="3036" y1="1903" y2="1903"/>
  <g transform="matrix(1 0 0 1 263 1933)">
   <path d="M9.24805 0.830078C13.5547 0.830078 17.1387-2.74414 17.1387-7.05078C17.1387-11.3574 13.5449-14.9316 9.23828-14.9316C4.94141-14.9316 1.36719-11.3574 1.36719-7.05078C1.36719-2.74414 4.95117 0.830078 9.24805 0.830078ZM9.24805-0.654297C5.70312-0.654297 2.87109-3.49609 2.87109-7.05078C2.87109-10.6055 5.69336-13.4473 9.23828-13.4473C12.793-13.4473 15.6445-10.6055 15.6445-7.05078C15.6445-3.49609 12.8027-0.654297 9.24805-0.654297ZM5.6543-7.05078C5.6543-6.62109 5.95703-6.32812 6.40625-6.32812L8.50586-6.32812L8.50586-4.20898C8.50586-3.76953 8.79883-3.4668 9.22852-3.4668C9.67773-3.4668 9.9707-3.76953 9.9707-4.20898L9.9707-6.32812L12.0898-6.32812C12.5293-6.32812 12.832-6.62109 12.832-7.05078C12.832-7.49023 12.5293-7.79297 12.0898-7.79297L9.9707-7.79297L9.9707-9.90234C9.9707-10.3516 9.67773-10.6543 9.22852-10.6543C8.79883-10.6543 8.50586-10.3516 8.50586-9.90234L8.50586-7.79297L6.40625-7.79297C5.95703-7.79297 5.6543-7.49023 5.6543-7.05078Z"/>
  </g>
  <g transform="matrix(1 0 0 1 281.867 1933)">
   <path d="M11.709 2.91016C17.1582 2.91016 21.6699-1.61133 21.6699-7.05078C21.6699-12.5 17.1484-17.0117 11.6992-17.0117C6.25977-17.0117 1.74805-12.5 1.74805-7.05078C1.74805-1.61133 6.26953 2.91016 11.709 2.91016ZM11.709 1.25C7.09961 1.25 3.41797-2.44141 3.41797-7.05078C3.41797-11.6602 7.08984-15.3516 11.6992-15.3516C16.3086-15.3516 20.0098-11.6602 20.0098-7.05078C20.0098-2.44141 16.3184 1.25 11.709 1.25ZM7.17773-7.05078C7.17773-6.57227 7.50977-6.25 8.00781-6.25L10.8789-6.25L10.8789-3.36914C10.8789-2.88086 11.2109-2.53906 11.6895-2.53906C12.1777-2.53906 12.5195-2.87109 12.5195-3.36914L12.5195-6.25L15.4004-6.25C15.8887-6.25 16.2305-6.57227 16.2305-7.05078C16.2305-7.53906 15.8887-7.88086 15.4004-7.88086L12.5195-7.88086L12.5195-10.752C12.5195-11.25 12.1777-11.5918 11.6895-11.5918C11.2109-11.5918 10.8789-11.25 10.8789-10.752L10.8789-7.88086L8.00781-7.88086C7.50977-7.88086 7.17773-7.53906 7.17773-7.05078Z"/>
  </g>
  <g transform="matrix(1 0 0 1 305.646 1933)">
   <path d="M14.9707 5.66406C21.9336 5.66406 27.6953-0.0976562 27.6953-7.05078C27.6953-14.0137 21.9238-19.7754 14.9609-19.7754C8.00781-19.7754 2.25586-14.0137 2.25586-7.05078C2.25586-0.0976562 8.01758 5.66406 14.9707 5.66406ZM14.9707 3.84766C8.93555 3.84766 4.08203-1.01562 4.08203-7.05078C4.08203-13.0957 8.92578-17.9492 14.9609-17.9492C21.0059-17.9492 25.8691-13.0957 25.8691-7.05078C25.8691-1.01562 21.0156 3.84766 14.9707 3.84766ZM9.19922-7.05078C9.19922-6.5332 9.57031-6.17188 10.1172-6.17188L14.0625-6.17188L14.0625-2.2168C14.0625-1.67969 14.4336-1.29883 14.9512-1.29883C15.4883-1.29883 15.8594-1.66992 15.8594-2.2168L15.8594-6.17188L19.8145-6.17188C20.3516-6.17188 20.7324-6.5332 20.7324-7.05078C20.7324-7.59766 20.3613-7.96875 19.8145-7.96875L15.8594-7.96875L15.8594-11.9141C15.8594-12.4609 15.4883-12.8418 14.9512-12.8418C14.4336-12.8418 14.0625-12.4609 14.0625-11.9141L14.0625-7.96875L10.1172-7.96875C9.57031-7.96875 9.19922-7.59766 9.19922-7.05078Z"/>
  </g>
  <text style="stroke:none;fill:black;font-family:sans-serif;font-size:13;font-weight:bold;" transform="matrix(1 0 0 1 263 1953)">Design Variations</text>
  <text style="stroke:none;fill:black;font-family:sans-serif;font-size:13;" transform="matrix(1 0 0 1 263 1971)">Symbols are supported in up to nine weights and three scales.</text>
  <text style="stroke:none;fill:black;font-family:sans-serif;font-size:13;" transform="matrix(1 0 0 1 263 1989)">For optimal layout with text and other symbols, vertically align</text>
  <text style="stroke:none;fill:black;font-family:sans-serif;font-size:13;" transform="matrix(1 0 0 1 263 2007)">symbols with the adjacent text.</text>
  <line style="fill:none;stroke:#00AEEF;stroke-width:0.5;opacity:1.0;" x1="776" x2="776" y1="1919" y2="1933"/>
  <g transform="matrix(1 0 0 1 776 1933)">
   <path d="M3.31055 0.15625C3.82812 0.15625 4.08203-0.0390625 4.26758-0.585938L5.52734-4.0332L11.2891-4.0332L12.5488-0.585938C12.7344-0.0390625 12.9883 0.15625 13.4961 0.15625C14.0137 0.15625 14.3457-0.15625 14.3457-0.644531C14.3457-0.810547 14.3164-0.966797 14.2383-1.17188L9.6582-13.3691C9.43359-13.9648 9.0332-14.2676 8.4082-14.2676C7.80273-14.2676 7.39258-13.9746 7.17773-13.3789L2.59766-1.16211C2.51953-0.957031 2.49023-0.800781 2.49023-0.634766C2.49023-0.146484 2.80273 0.15625 3.31055 0.15625ZM6.00586-5.51758L8.37891-12.0898L8.42773-12.0898L10.8008-5.51758Z"/>
  </g>
  <line style="fill:none;stroke:#00AEEF;stroke-width:0.5;opacity:1.0;" x1="793.197" x2="793.197" y1="1919" y2="1933"/>
  <text style="stroke:none;fill:black;font-family:sans-serif;font-size:13;font-weight:bold;" transform="matrix(1 0 0 1 776 1953)">Margins</text>
  <text style="stroke:none;fill:black;font-family:sans-serif;font-size:13;" transform="matrix(1 0 0 1 776 1971)">Leading and trailing margins on the left and right side of each symbol</text>
  <text style="stroke:none;fill:black;font-family:sans-serif;font-size:13;" transform="matrix(1 0 0 1 776 1989)">can be adjusted by modifying the x-location of the margin guidelines.</text>
  <text style="stroke:none;fill:black;font-family:sans-serif;font-size:13;" transform="matrix(1 0 0 1 776 2007)">Modifications are automatically applied proportionally to all</text>
  <text style="stroke:none;fill:black;font-family:sans-serif;font-size:13;" transform="matrix(1 0 0 1 776 2025)">scales and weights.</text>
  <g transform="matrix(1 0 0 1 1289 1933)">
   <path d="M2.8418 1.86523L4.54102 3.57422C5.40039 4.44336 6.38672 4.38477 7.31445 3.35938L18.0078-8.42773L17.041-9.4043L6.42578 2.27539C6.07422 2.67578 5.74219 2.77344 5.27344 2.30469L4.10156 1.14258C3.63281 0.683594 3.74023 0.341797 4.14062-0.0195312L15.6152-10.8203L14.6387-11.7871L3.04688-0.898438C2.06055 0.0195312 1.98242 0.996094 2.8418 1.86523ZM9.25781-16.3281C8.83789-15.918 8.80859-15.3418 9.04297-14.9512C9.27734-14.5898 9.73633-14.3555 10.3809-14.5215C11.8457-14.8633 13.3691-14.9219 14.7949-13.9844L14.209-12.5293C13.8672-11.6992 14.043-11.1133 14.5801-10.5664L16.875-8.25195C17.3633-7.76367 17.7734-7.74414 18.3398-7.8418L19.4043-8.03711L20.0684-7.36328L20.0293-6.80664C19.9902-6.30859 20.1172-5.92773 20.6055-5.44922L21.3672-4.70703C21.8457-4.22852 22.4609-4.19922 22.9297-4.66797L25.8398-7.58789C26.3086-8.05664 26.2891-8.65234 25.8105-9.13086L25.0391-9.89258C24.5605-10.3711 24.1895-10.5273 23.7109-10.4883L23.1348-10.4395L22.4902-11.0742L22.7344-12.1973C22.8613-12.7637 22.7051-13.2031 22.1191-13.7891L19.9219-15.9766C16.582-19.2969 12.1484-19.2188 9.25781-16.3281ZM10.752-15.957C13.1836-17.7344 16.4746-17.4316 18.7012-15.2051L21.1328-12.793C21.3672-12.5586 21.4062-12.373 21.3379-12.0312L21.0156-10.5469L22.5195-9.0625L23.5059-9.12109C23.7598-9.13086 23.8379-9.11133 24.0332-8.91602L24.6094-8.33984L22.168-5.89844L21.5918-6.47461C21.3965-6.66992 21.3672-6.74805 21.377-7.01172L21.4453-7.98828L19.9512-9.47266L18.4277-9.21875C18.1055-9.15039 17.959-9.17969 17.7148-9.41406L15.7129-11.416C15.459-11.6504 15.4297-11.8164 15.5859-12.1875L16.4648-14.2773C14.9023-15.7324 12.8711-16.3574 10.8398-15.7617C10.6836-15.7227 10.625-15.8496 10.752-15.957Z"/>
  </g>
  <text style="stroke:none;fill:black;font-family:sans-serif;font-size:13;font-weight:bold;" transform="matrix(1 0 0 1 1289 1953)">Exporting</text>
  <text style="stroke:none;fill:black;font-family:sans-serif;font-size:13;" transform="matrix(1 0 0 1 1289 1971)">Symbols should be outlined when exporting to ensure the</text>
  <text style="stroke:none;fill:black;font-family:sans-serif;font-size:13;" transform="matrix(1 0 0 1 1289 1989)">design is preserved when submitting to Xcode.</text>
  <text id="template-version" style="stroke:none;fill:black;font-family:sans-serif;font-size:13;text-anchor:end;" transform="matrix(1 0 0 1 3036 1933)">Template v.4.0</text>
  <text style="stroke:none;fill:black;font-family:sans-serif;font-size:13;text-anchor:end;" transform="matrix(1 0 0 1 3036 1951)">Requires Xcode 14 or greater</text>
  <text id="descriptive-name" style="stroke:none;fill:black;font-family:sans-serif;font-size:13;text-anchor:end;" transform="matrix(1 0 0 1 3036 1969)">Generated from cpp.lang</text>
  <text style="stroke:none;fill:black;font-family:sans-serif;font-size:13;text-anchor:end;" transform="matrix(1 0 0 1 3036 1987)">Typeset at 100 points</text>
  <text style="stroke:none;fill:black;font-family:sans-serif;font-size:13;" transform="matrix(1 0 0 1 263 726)">Small</text>
  <text style="stroke:none;fill:black;font-family:sans-serif;font-size:13;" transform="matrix(1 0 0 1 263 1156)">Medium</text>
  <text style="stroke:none;fill:black;font-family:sans-serif;font-size:13;" transform="matrix(1 0 0 1 263 1586)">Large</text>
 </g>
 <g id="Guides">
  <g id="H-reference" style="fill:#27AAE1;stroke:none;" transform="matrix(1 0 0 1 339 696)">
   <path d="M0.993654 0L3.63775 0L29.3281-67.1323L30.0303-67.1323L30.0303-70.459L28.1226-70.459ZM11.6885-24.4799L46.9815-24.4799L46.2315-26.7285L12.4385-26.7285ZM55.1196 0L57.7637 0L30.6382-70.459L29.4326-70.459L29.4326-67.1323Z"/>
  </g>
  <line id="Baseline-S" style="fill:none;stroke:#27AAE1;opacity:1;stroke-width:0.5;" x1="263" x2="3036" y1="696" y2="696"/>
  <line id="Capline-S" style="fill:none;stroke:#27AAE1;opacity:1;stroke-width:0.5;" x1="263" x2="3036" y1="625.541" y2="625.541"/>
  <g id="H-reference" style="fill:#27AAE1;stroke:none;" transform="matrix(1 0 0 1 339 1126)">
   <path d="M0.993654 0L3.63775 0L29.3281-67.1323L30.0303-67.1323L30.0303-70.459L28.1226-70.459ZM11.6885-24.4799L46.9815-24.4799L46.2315-26.7285L12.4385-26.7285ZM55.1196 0L57.7637 0L30.6382-70.459L29.4326-70.459L29.4326-67.1323Z"/>
  </g>
  <line id="Baseline-M" style="fill:none;stroke:#27AAE1;opacity:1;stroke-width:0.5;" x1="263" x2="3036" y1="1126" y2="1126"/>
  <line id="Capline-M" style="fill:none;stroke:#27AAE1;opacity:1;stroke-width:0.5;" x1="263" x2="3036" y1="1055.54" y2="1055.54"/>
  <g id="H-reference" style="fill:#27AAE1;stroke:none;" transform="matrix(1 0 0 1 339 1556)">
   <path d="M0.993654 0L3.63775 0L29.3281-67.1323L30.0303-67.1323L30.0303-70.459L28.1226-70.459ZM11.6885-24.4799L46.9815-24.4799L46.2315-26.7285L12.4385-26.7285ZM55.1196 0L57.7637 0L30.6382-70.459L29.4326-70.459L29.4326-67.1323Z"/>
  </g>
  <line id="Baseline-L" style="fill:none;stroke:#27AAE1;opacity:1;stroke-width:0.5;" x1="263" x2="3036" y1="1556" y2="1556"/>
  <line id="Capline-L" style="fill:none;stroke:#27AAE1;opacity:1;stroke-width:0.5;" x1="263" x2="3036" y1="1485.54" y2="1485.54"/>
  <line id="left-margin-Regular-M" style="fill:none;stroke:#00AEEF;stroke-width:0.5;opacity:1.0;" x1="1402.05" x2="1402.05" y1="1030.79" y2="1150.12"/>
  <line id="right-margin-Regular-M" style="fill:none;stroke:#00AEEF;stroke-width:0.5;opacity:1.0;" x1="1497.64" x2="1497.64" y1="1030.79" y2="1150.12"/>
 </g>
 <g id="Symbols">
  <g id="Black-L" transform="matrix(1 0 0 1 2871.76 1556)">
   <path class="monochrome-0 SFSymbolsPreview000000" d="M121.643-69.8694C120.679-71.5434 119.345-73.0044 117.879-73.8524L66.9815-103.238C64.0435-104.935 59.2455-104.935 56.3135-103.238L5.40453-73.8524C2.47253-72.1614 0.076531-68.0044 0.076531-64.6154L0.076531-5.84445C0.076531-4.14745 0.676531-2.26545 1.64053-0.590448C2.60453 1.08355 3.93853 2.54455 5.40453 3.39255L56.3015 32.7786C59.2345 34.4696 64.0375 34.4696 66.9705 32.7786L117.867 3.39255C119.334 2.54455 120.667 1.08355 121.632-0.590448C122.596-2.26545 123.191-4.14745 123.191-5.84445L123.191-64.6154C123.208-66.3124 122.613-68.1954 121.643-69.8694L121.643-69.8694ZM61.6355 5.81755C39.0055 5.81755 20.5945-12.5994 20.5945-35.2304C20.5945-57.8604 39.0105-76.2774 61.6415-76.2774C76.2935-76.2494 89.8275-68.4384 97.1815-55.7654L79.4235-45.4894C75.7485-51.8364 68.9755-55.7504 61.6415-55.7654C50.3045-55.7554 41.1155-46.5674 41.1065-35.2304C41.1225-23.8994 50.3055-14.7194 61.6355-14.7064C68.9665-14.7224 75.7375-18.6304 79.4175-24.9714L97.1875-14.6944C89.8295-2.01945 76.2915 5.79155 61.6355 5.81755L61.6355 5.81755ZM119.784-32.9494L115.223-32.9494L115.223-28.3884L110.663-28.3884L110.663-32.9494L106.102-32.9494L106.102-37.5104L110.663-37.5104L110.663-42.0714L115.223-42.0714L115.223-37.5104L119.784-37.5104L119.784-32.9494ZM102.684-32.9494L98.1225-32.9494L98.1225-28.3884L93.5615-28.3884L93.5615-32.9494L89.0005-32.9494L89.0005-37.5104L93.5615-37.5104L93.5615-42.0714L98.1225-42.0714L98.1225-37.5104L102.684-37.5104L102.684-32.9494Z"/>
  </g>
  <g id="Heavy-L" transform="matrix(1 0 0 1 2575.05 1556)">
   <path class="monochrome-0 SFSymbolsPreview000000" d="M121.643-69.8694C120.679-71.5434 119.345-73.0044 117.879-73.8524L66.9815-103.238C64.0435-104.935 59.2455-104.935 56.3135-103.238L5.40453-73.8524C2.47253-72.1614 0.076531-68.0044 0.076531-64.6154L0.076531-5.84445C0.076531-4.14745 0.676531-2.26545 1.64053-0.590448C2.60453 1.08355 3.93853 2.54455 5.40453 3.39255L56.3015 32.7786C59.2345 34.4696 64.0375 34.4696 66.9705 32.7786L117.867 3.39255C119.334 2.54455 120.667 1.08355 121.632-0.590448C122.596-2.26545 123.191-4.14745 123.191-5.84445L123.191-64.6154C123.208-66.3124 122.613-68.1954 121.643-69.8694L121.643-69.8694ZM61.6355 5.81755C39.0055 5.81755 20.5945-12.5994 20.5945-35.2304C20.5945-57.8604 39.0105-76.2774 61.6415-76.2774C76.2935-76.2494 89.8275-68.4384 97.1815-55.7654L79.4235-45.4894C75.7485-51.8364 68.9755-55.7504 61.6415-55.7654C50.3045-55.7554 41.1155-46.5674 41.1065-35.2304C41.1225-23.8994 50.3055-14.7194 61.6355-14.7064C68.9665-14.7224 75.7375-18.6304 79.4175-24.9714L97.1875-14.6944C89.8295-2.01945 76.2915 5.79155 61.6355 5.81755L61.6355 5.81755ZM119.784-32.9494L115.223-32.9494L115.223-28.3884L110.663-28.3884L110.663-32.9494L106.102-32.9494L106.102-37.5104L110.663-37.5104L110.663-42.0714L115.223-42.0714L115.223-37.5104L119.784-37.5104L119.784-32.9494ZM102.684-32.9494L98.1225-32.9494L98.1225-28.3884L93.5615-28.3884L93.5615-32.9494L89.0005-32.9494L89.0005-37.5104L93.5615-37.5104L93.5615-42.0714L98.1225-42.0714L98.1225-37.5104L102.684-37.5104L102.684-32.9494Z"/>
  </g>
  <g id="Bold-L" transform="matrix(1 0 0 1 2278.34 1556)">
   <path class="monochrome-0 SFSymbolsPreview000000" d="M121.643-69.8694C120.679-71.5434 119.345-73.0044 117.879-73.8524L66.9815-103.238C64.0435-104.935 59.2455-104.935 56.3135-103.238L5.40453-73.8524C2.47253-72.1614 0.076531-68.0044 0.076531-64.6154L0.076531-5.84445C0.076531-4.14745 0.676531-2.26545 1.64053-0.590448C2.60453 1.08355 3.93853 2.54455 5.40453 3.39255L56.3015 32.7786C59.2345 34.4696 64.0375 34.4696 66.9705 32.7786L117.867 3.39255C119.334 2.54455 120.667 1.08355 121.632-0.590448C122.596-2.26545 123.191-4.14745 123.191-5.84445L123.191-64.6154C123.208-66.3124 122.613-68.1954 121.643-69.8694L121.643-69.8694ZM61.6355 5.81755C39.0055 5.81755 20.5945-12.5994 20.5945-35.2304C20.5945-57.8604 39.0105-76.2774 61.6415-76.2774C76.2935-76.2494 89.8275-68.4384 97.1815-55.7654L79.4235-45.4894C75.7485-51.8364 68.9755-55.7504 61.6415-55.7654C50.3045-55.7554 41.1155-46.5674 41.1065-35.2304C41.1225-23.8994 50.3055-14.7194 61.6355-14.7064C68.9665-14.7224 75.7375-18.6304 79.4175-24.9714L97.1875-14.6944C89.8295-2.01945 76.2915 5.79155 61.6355 5.81755L61.6355 5.81755ZM119.784-32.9494L115.223-32.9494L115.223-28.3884L110.663-28.3884L110.663-32.9494L106.102-32.9494L106.102-37.5104L110.663-37.5104L110.663-42.0714L115.223-42.0714L115.223-37.5104L119.784-37.5104L119.784-32.9494ZM102.684-32.9494L98.1225-32.9494L98.1225-28.3884L93.5615-28.3884L93.5615-32.9494L89.0005-32.9494L89.0005-37.5104L93.5615-37.5104L93.5615-42.0714L98.1225-42.0714L98.1225-37.5104L102.684-37.5104L102.684-32.9494Z"/>
  </g>
  <g id="Semibold-L" transform="matrix(1 0 0 1 1981.63 1556)">
   <path class="monochrome-0 SFSymbolsPreview000000" d="M121.643-69.8694C120.679-71.5434 119.345-73.0044 117.879-73.8524L66.9815-103.238C64.0435-104.935 59.2455-104.935 56.3135-103.238L5.40453-73.8524C2.47253-72.1614 0.076531-68.0044 0.076531-64.6154L0.076531-5.84445C0.076531-4.14745 0.676531-2.26545 1.64053-0.590448C2.60453 1.08355 3.93853 2.54455 5.40453 3.39255L56.3015 32.7786C59.2345 34.4696 64.0375 34.4696 66.9705 32.7786L117.867 3.39255C119.334 2.54455 120.667 1.08355 121.632-0.590448C122.596-2.26545 123.191-4.14745 123.191-5.84445L123.191-64.6154C123.208-66.3124 122.613-68.1954 121.643-69.8694L121.643-69.8694ZM61.6355 5.81755C39.0055 5.81755 20.5945-12.5994 20.5945-35.2304C20.5945-57.8604 39.0105-76.2774 61.6415-76.2774C76.2935-76.2494 89.8275-68.4384 97.1815-55.7654L79.4235-45.4894C75.7485-51.8364 68.9755-55.7504 61.6415-55.7654C50.3045-55.7554 41.1155-46.5674 41.1065-35.2304C41.1225-23.8994 50.3055-14.7194 61.6355-14.7064C68.9665-14.7224 75.7375-18.6304 79.4175-24.9714L97.1875-14.6944C89.8295-2.01945 76.2915 5.79155 61.6355 5.81755L61.6355 5.81755ZM119.784-32.9494L115.223-32.9494L115.223-28.3884L110.663-28.3884L110.663-32.9494L106.102-32.9494L106.102-37.5104L110.663-37.5104L110.663-42.0714L115.223-42.0714L115.223-37.5104L119.784-37.5104L119.784-32.9494ZM102.684-32.9494L98.1225-32.9494L98.1225-28.3884L93.5615-28.3884L93.5615-32.9494L89.0005-32.9494L89.0005-37.5104L93.5615-37.5104L93.5615-42.0714L98.1225-42.0714L98.1225-37.5104L102.684-37.5104L102.684-32.9494Z"/>
  </g>
  <g id="Medium-L" transform="matrix(1 0 0 1 1684.92 1556)">
   <path class="monochrome-0 SFSymbolsPreview000000" d="M121.643-69.8694C120.679-71.5434 119.345-73.0044 117.879-73.8524L66.9815-103.238C64.0435-104.935 59.2455-104.935 56.3135-103.238L5.40453-73.8524C2.47253-72.1614 0.076531-68.0044 0.076531-64.6154L0.076531-5.84445C0.076531-4.14745 0.676531-2.26545 1.64053-0.590448C2.60453 1.08355 3.93853 2.54455 5.40453 3.39255L56.3015 32.7786C59.2345 34.4696 64.0375 34.4696 66.9705 32.7786L117.867 3.39255C119.334 2.54455 120.667 1.08355 121.632-0.590448C122.596-2.26545 123.191-4.14745 123.191-5.84445L123.191-64.6154C123.208-66.3124 122.613-68.1954 121.643-69.8694L121.643-69.8694ZM61.6355 5.81755C39.0055 5.81755 20.5945-12.5994 20.5945-35.2304C20.5945-57.8604 39.0105-76.2774 61.6415-76.2774C76.2935-76.2494 89.8275-68.4384 97.1815-55.7654L79.4235-45.4894C75.7485-51.8364 68.9755-55.7504 61.6415-55.7654C50.3045-55.7554 41.1155-46.5674 41.1065-35.2304C41.1225-23.8994 50.3055-14.7194 61.6355-14.7064C68.9665-14.7224 75.7375-18.6304 79.4175-24.9714L97.1875-14.6944C89.8295-2.01945 76.2915 5.79155 61.6355 5.81755L61.6355 5.81755ZM119.784-32.9494L115.223-32.9494L115.223-28.3884L110.663-28.3884L110.663-32.9494L106.102-32.9494L106.102-37.5104L110.663-37.5104L110.663-42.0714L115.223-42.0714L115.223-37.5104L119.784-37.5104L119.784-32.9494ZM102.684-32.9494L98.1225-32.9494L98.1225-28.3884L93.5615-28.3884L93.5615-32.9494L89.0005-32.9494L89.0005-37.5104L93.5615-37.5104L93.5615-42.0714L98.1225-42.0714L98.1225-37.5104L102.684-37.5104L102.684-32.9494Z"/>
  </g>
  <g id="Regular-L" transform="matrix(1 0 0 1 1388.21 1556)">
   <path class="monochrome-0 SFSymbolsPreview000000" d="M121.643-69.8694C120.679-71.5434 119.345-73.0044 117.879-73.8524L66.9815-103.238C64.0435-104.935 59.2455-104.935 56.3135-103.238L5.40453-73.8524C2.47253-72.1614 0.076531-68.0044 0.076531-64.6154L0.076531-5.84445C0.076531-4.14745 0.676531-2.26545 1.64053-0.590448C2.60453 1.08355 3.93853 2.54455 5.40453 3.39255L56.3015 32.7786C59.2345 34.4696 64.0375 34.4696 66.9705 32.7786L117.867 3.39255C119.334 2.54455 120.667 1.08355 121.632-0.590448C122.596-2.26545 123.191-4.14745 123.191-5.84445L123.191-64.6154C123.208-66.3124 122.613-68.1954 121.643-69.8694L121.643-69.8694ZM61.6355 5.81755C39.0055 5.81755 20.5945-12.5994 20.5945-35.2304C20.5945-57.8604 39.0105-76.2774 61.6415-76.2774C76.2935-76.2494 89.8275-68.4384 97.1815-55.7654L79.4235-45.4894C75.7485-51.8364 68.9755-55.7504 61.6415-55.7654C50.3045-55.7554 41.1155-46.5674 41.1065-35.2304C41.1225-23.8994 50.3055-14.7194 61.6355-14.7064C68.9665-14.7224 75.7375-18.6304 79.4175-24.9714L97.1875-14.6944C89.8295-2.01945 76.2915 5.79155 61.6355 5.81755L61.6355 5.81755ZM119.784-32.9494L115.223-32.9494L115.223-28.3884L110.663-28.3884L110.663-32.9494L106.102-32.9494L106.102-37.5104L110.663-37.5104L110.663-42.0714L115.223-42.0714L115.223-37.5104L119.784-37.5104L119.784-32.9494ZM102.684-32.9494L98.1225-32.9494L98.1225-28.3884L93.5615-28.3884L93.5615-32.9494L89.0005-32.9494L89.0005-37.5104L93.5615-37.5104L93.5615-42.0714L98.1225-42.0714L98.1225-37.5104L102.684-37.5104L102.684-32.9494Z"/>
  </g>
  <g id="Light-L" transform="matrix(1 0 0 1 1091.5 1556)">
   <path class="monochrome-0 SFSymbolsPreview000000" d="M121.643-69.8694C120.679-71.5434 119.345-73.0044 117.879-73.8524L66.9815-103.238C64.0435-104.935 59.2455-104.935 56.3135-103.238L5.40453-73.8524C2.47253-72.1614 0.076531-68.0044 0.076531-64.6154L0.076531-5.84445C0.076531-4.14745 0.676531-2.26545 1.64053-0.590448C2.60453 1.08355 3.93853 2.54455 5.40453 3.39255L56.3015 32.7786C59.2345 34.4696 64.0375 34.4696 66.9705 32.7786L117.867 3.39255C119.334 2.54455 120.667 1.08355 121.632-0.590448C122.596-2.26545 123.191-4.14745 123.191-5.84445L123.191-64.6154C123.208-66.3124 122.613-68.1954 121.643-69.8694L121.643-69.8694ZM61.6355 5.81755C39.0055 5.81755 20.5945-12.5994 20.5945-35.2304C20.5945-57.8604 39.0105-76.2774 61.6415-76.2774C76.2935-76.2494 89.8275-68.4384 97.1815-55.7654L79.4235-45.4894C75.7485-51.8364 68.9755-55.7504 61.6415-55.7654C50.3045-55.7554 41.1155-46.5674 41.1065-35.2304C41.1225-23.8994 50.3055-14.7194 61.6355-14.7064C68.9665-14.7224 75.7375-18.6304 79.4175-24.9714L97.1875-14.6944C89.8295-2.01945 76.2915 5.79155 61.6355 5.81755L61.6355 5.81755ZM119.784-32.9494L115.223-32.9494L115.223-28.3884L110.663-28.3884L110.663-32.9494L106.102-32.9494L106.102-37.5104L110.663-37.5104L110.663-42.0714L115.223-42.0714L115.223-37.5104L119.784-37.5104L119.784-32.9494ZM102.684-32.9494L98.1225-32.9494L98.1225-28.3884L93.5615-28.3884L93.5615-32.9494L89.0005-32.9494L89.0005-37.5104L93.5615-37.5104L93.5615-42.0714L98.1225-42.0714L98.1225-37.5104L102.684-37.5104L102.684-32.9494Z"/>
  </g>
  <g id="Thin-L" transform="matrix(1 0 0 1 794.787 1556)">
   <path class="monochrome-0 SFSymbolsPreview000000" d="M121.643-69.8694C120.679-71.5434 119.345-73.0044 117.879-73.8524L66.9815-103.238C64.0435-104.935 59.2455-104.935 56.3135-103.238L5.40453-73.8524C2.47253-72.1614 0.076531-68.0044 0.076531-64.6154L0.076531-5.84445C0.076531-4.14745 0.676531-2.26545 1.64053-0.590448C2.60453 1.08355 3.93853 2.54455 5.40453 3.39255L56.3015 32.7786C59.2345 34.4696 64.0375 34.4696 66.9705 32.7786L117.867 3.39255C119.334 2.54455 120.667 1.08355 121.632-0.590448C122.596-2.26545 123.191-4.14745 123.191-5.84445L123.191-64.6154C123.208-66.3124 122.613-68.1954 121.643-69.8694L121.643-69.8694ZM61.6355 5.81755C39.0055 5.81755 20.5945-12.5994 20.5945-35.2304C20.5945-57.8604 39.0105-76.2774 61.6415-76.2774C76.2935-76.2494 89.8275-68.4384 97.1815-55.7654L79.4235-45.4894C75.7485-51.8364 68.9755-55.7504 61.6415-55.7654C50.3045-55.7554 41.1155-46.5674 41.1065-35.2304C41.1225-23.8994 50.3055-14.7194 61.6355-14.7064C68.9665-14.7224 75.7375-18.6304 79.4175-24.9714L97.1875-14.6944C89.8295-2.01945 76.2915 5.79155 61.6355 5.81755L61.6355 5.81755ZM119.784-32.9494L115.223-32.9494L115.223-28.3884L110.663-28.3884L110.663-32.9494L106.102-32.9494L106.102-37.5104L110.663-37.5104L110.663-42.0714L115.223-42.0714L115.223-37.5104L119.784-37.5104L119.784-32.9494ZM102.684-32.9494L98.1225-32.9494L98.1225-28.3884L93.5615-28.3884L93.5615-32.9494L89.0005-32.9494L89.0005-37.5104L93.5615-37.5104L93.5615-42.0714L98.1225-42.0714L98.1225-37.5104L102.684-37.5104L102.684-32.9494Z"/>
  </g>
  <g id="Ultralight-L" transform="matrix(1 0 0 1 498.076 1556)">
   <path class="monochrome-0 SFSymbolsPreview000000" d="M121.643-69.8694C120.679-71.5434 119.345-73.0044 117.879-73.8524L66.9815-103.238C64.0435-104.935 59.2455-104.935 56.3135-103.238L5.40453-73.8524C2.47253-72.1614 0.076531-68.0044 0.076531-64.6154L0.076531-5.84445C0.076531-4.14745 0.676531-2.26545 1.64053-0.590448C2.60453 1.08355 3.93853 2.54455 5.40453 3.39255L56.3015 32.7786C59.2345 34.4696 64.0375 34.4696 66.9705 32.7786L117.867 3.39255C119.334 2.54455 120.667 1.08355 121.632-0.590448C122.596-2.26545 123.191-4.14745 123.191-5.84445L123.191-64.6154C123.208-66.3124 122.613-68.1954 121.643-69.8694L121.643-69.8694ZM61.6355 5.81755C39.0055 5.81755 20.5945-12.5994 20.5945-35.2304C20.5945-57.8604 39.0105-76.2774 61.6415-76.2774C76.2935-76.2494 89.8275-68.4384 97.1815-55.7654L79.4235-45.4894C75.7485-51.8364 68.9755-55.7504 61.6415-55.7654C50.3045-55.7554 41.1155-46.5674 41.1065-35.2304C41.1225-23.8994 50.3055-14.7194 61.6355-14.7064C68.9665-14.7224 75.7375-18.6304 79.4175-24.9714L97.1875-14.6944C89.8295-2.01945 76.2915 5.79155 61.6355 5.81755L61.6355 5.81755ZM119.784-32.9494L115.223-32.9494L115.223-28.3884L110.663-28.3884L110.663-32.9494L106.102-32.9494L106.102-37.5104L110.663-37.5104L110.663-42.0714L115.223-42.0714L115.223-37.5104L119.784-37.5104L119.784-32.9494ZM102.684-32.9494L98.1225-32.9494L98.1225-28.3884L93.5615-28.3884L93.5615-32.9494L89.0005-32.9494L89.0005-37.5104L93.5615-37.5104L93.5615-42.0714L98.1225-42.0714L98.1225-37.5104L102.684-37.5104L102.684-32.9494Z"/>
  </g>
  <g id="Black-M" transform="matrix(1 0 0 1 2885.6 1126)">
   <path class="monochrome-0 SFSymbolsPreview000000" d="M94.3135-62.0822C93.5665-63.3802 92.5325-64.5122 91.3955-65.1702L51.9405-87.9492C49.6625-89.2652 45.9435-89.2652 43.6705-87.9492L4.20653-65.1702C1.93353-63.8592 0.076531-60.6362 0.076531-58.0092L0.076531-12.4502C0.076531-11.1342 0.541531-9.67522 1.28853-8.37822C2.03653-7.08022 3.07053-5.94822 4.20653-5.29022L43.6615 17.4898C45.9345 18.8008 49.6585 18.8008 51.9315 17.4898L91.3865-5.29022C92.5235-5.94822 93.5575-7.08022 94.3045-8.37822C95.0515-9.67522 95.5138-11.1342 95.5138-12.4502L95.5138-58.0092C95.5265-59.3252 95.0655-60.7842 94.3135-62.0822L94.3135-62.0822ZM47.7965-3.41022C30.2535-3.41022 15.9815-17.6862 15.9815-35.2302C15.9815-52.7732 30.2575-67.0502 47.8015-67.0502C59.1595-67.0282 69.6505-60.9732 75.3515-51.1492L61.5855-43.1822C58.7375-48.1032 53.4865-51.1372 47.8015-51.1492C39.0125-51.1412 31.8895-44.0182 31.8825-35.2302C31.8945-26.4462 39.0135-19.3302 47.7965-19.3202C53.4795-19.3322 58.7285-22.3622 61.5805-27.2772L75.3555-19.3112C69.6525-9.48522 59.1575-3.43022 47.7965-3.41022L47.7965-3.41022ZM92.8725-33.4622L89.3365-33.4622L89.3365-29.9262L85.8015-29.9262L85.8015-33.4622L82.2655-33.4622L82.2655-36.9982L85.8015-36.9982L85.8015-40.5332L89.3365-40.5332L89.3365-36.9982L92.8725-36.9982L92.8725-33.4622ZM79.6165-33.4622L76.0805-33.4622L76.0805-29.9262L72.5455-29.9262L72.5455-33.4622L69.0095-33.4622L69.0095-36.9982L72.5455-36.9982L72.5455-40.5332L76.0805-40.5332L76.0805-36.9982L79.6165-36.9982L79.6165-33.4622Z"/>
  </g>
  <g id="Heavy-M" transform="matrix(1 0 0 1 2588.89 1126)">
   <path class="monochrome-0 SFSymbolsPreview000000" d="M94.3135-62.0822C93.5665-63.3802 92.5325-64.5122 91.3955-65.1702L51.9405-87.9492C49.6625-89.2652 45.9435-89.2652 43.6705-87.9492L4.20653-65.1702C1.93353-63.8592 0.076531-60.6362 0.076531-58.0092L0.076531-12.4502C0.076531-11.1342 0.541531-9.67522 1.28853-8.37822C2.03653-7.08022 3.07053-5.94822 4.20653-5.29022L43.6615 17.4898C45.9345 18.8008 49.6585 18.8008 51.9315 17.4898L91.3865-5.29022C92.5235-5.94822 93.5575-7.08022 94.3045-8.37822C95.0515-9.67522 95.5138-11.1342 95.5138-12.4502L95.5138-58.0092C95.5265-59.3252 95.0655-60.7842 94.3135-62.0822L94.3135-62.0822ZM47.7965-3.41022C30.2535-3.41022 15.9815-17.6862 15.9815-35.2302C15.9815-52.7732 30.2575-67.0502 47.8015-67.0502C59.1595-67.0282 69.6505-60.9732 75.3515-51.1492L61.5855-43.1822C58.7375-48.1032 53.4865-51.1372 47.8015-51.1492C39.0125-51.1412 31.8895-44.0182 31.8825-35.2302C31.8945-26.4462 39.0135-19.3302 47.7965-19.3202C53.4795-19.3322 58.7285-22.3622 61.5805-27.2772L75.3555-19.3112C69.6525-9.48522 59.1575-3.43022 47.7965-3.41022L47.7965-3.41022ZM92.8725-33.4622L89.3365-33.4622L89.3365-29.9262L85.8015-29.9262L85.8015-33.4622L82.2655-33.4622L82.2655-36.9982L85.8015-36.9982L85.8015-40.5332L89.3365-40.5332L89.3365-36.9982L92.8725-36.9982L92.8725-33.4622ZM79.6165-33.4622L76.0805-33.4622L76.0805-29.9262L72.5455-29.9262L72.5455-33.4622L69.0095-33.4622L69.0095-36.9982L72.5455-36.9982L72.5455-40.5332L76.0805-40.5332L76.0805-36.9982L79.6165-36.9982L79.6165-33.4622Z"/>
  </g>
  <g id="Bold-M" transform="matrix(1 0 0 1 2292.18 1126)">
   <path class="monochrome-0 SFSymbolsPreview000000" d="M94.3135-62.0822C93.5665-63.3802 92.5325-64.5122 91.3955-65.1702L51.9405-87.9492C49.6625-89.2652 45.9435-89.2652 43.6705-87.9492L4.20653-65.1702C1.93353-63.8592 0.076531-60.6362 0.076531-58.0092L0.076531-12.4502C0.076531-11.1342 0.541531-9.67522 1.28853-8.37822C2.03653-7.08022 3.07053-5.94822 4.20653-5.29022L43.6615 17.4898C45.9345 18.8008 49.6585 18.8008 51.9315 17.4898L91.3865-5.29022C92.5235-5.94822 93.5575-7.08022 94.3045-8.37822C95.0515-9.67522 95.5138-11.1342 95.5138-12.4502L95.5138-58.0092C95.5265-59.3252 95.0655-60.7842 94.3135-62.0822L94.3135-62.0822ZM47.7965-3.41022C30.2535-3.41022 15.9815-17.6862 15.9815-35.2302C15.9815-52.7732 30.2575-67.0502 47.8015-67.0502C59.1595-67.0282 69.6505-60.9732 75.3515-51.1492L61.5855-43.1822C58.7375-48.1032 53.4865-51.1372 47.8015-51.1492C39.0125-51.1412 31.8895-44.0182 31.8825-35.2302C31.8945-26.4462 39.0135-19.3302 47.7965-19.3202C53.4795-19.3322 58.7285-22.3622 61.5805-27.2772L75.3555-19.3112C69.6525-9.48522 59.1575-3.43022 47.7965-3.41022L47.7965-3.41022ZM92.8725-33.4622L89.3365-33.4622L89.3365-29.9262L85.8015-29.9262L85.8015-33.4622L82.2655-33.4622L82.2655-36.9982L85.8015-36.9982L85.8015-40.5332L89.3365-40.5332L89.3365-36.9982L92.8725-36.9982L92.8725-33.4622ZM79.6165-33.4622L76.0805-33.4622L76.0805-29.9262L72.5455-29.9262L72.5455-33.4622L69.0095-33.4622L69.0095-36.9982L72.5455-36.9982L72.5455-40.5332L76.0805-40.5332L76.0805-36.9982L79.6165-36.9982L79.6165-33.4622Z"/>
  </g>
  <g id="Semibold-M" transform="matrix(1 0 0 1 1995.47 1126)">
   <path class="monochrome-0 SFSymbolsPreview000000" d="M94.3135-62.0822C93.5665-63.3802 92.5325-64.5122 91.3955-65.1702L51.9405-87.9492C49.6625-89.2652 45.9435-89.2652 43.6705-87.9492L4.20653-65.1702C1.93353-63.8592 0.076531-60.6362 0.076531-58.0092L0.076531-12.4502C0.076531-11.1342 0.541531-9.67522 1.28853-8.37822C2.03653-7.08022 3.07053-5.94822 4.20653-5.29022L43.6615 17.4898C45.9345 18.8008 49.6585 18.8008 51.9315 17.4898L91.3865-5.29022C92.5235-5.94822 93.5575-7.08022 94.3045-8.37822C95.0515-9.67522 95.5138-11.1342 95.5138-12.4502L95.5138-58.0092C95.5265-59.3252 95.0655-60.7842 94.3135-62.0822L94.3135-62.0822ZM47.7965-3.41022C30.2535-3.41022 15.9815-17.6862 15.9815-35.2302C15.9815-52.7732 30.2575-67.0502 47.8015-67.0502C59.1595-67.0282 69.6505-60.9732 75.3515-51.1492L61.5855-43.1822C58.7375-48.1032 53.4865-51.1372 47.8015-51.1492C39.0125-51.1412 31.8895-44.0182 31.8825-35.2302C31.8945-26.4462 39.0135-19.3302 47.7965-19.3202C53.4795-19.3322 58.7285-22.3622 61.5805-27.2772L75.3555-19.3112C69.6525-9.48522 59.1575-3.43022 47.7965-3.41022L47.7965-3.41022ZM92.8725-33.4622L89.3365-33.4622L89.3365-29.9262L85.8015-29.9262L85.8015-33.4622L82.2655-33.4622L82.2655-36.9982L85.8015-36.9982L85.8015-40.5332L89.3365-40.5332L89.3365-36.9982L92.8725-36.9982L92.8725-33.4622ZM79.6165-33.4622L76.0805-33.4622L76.0805-29.9262L72.5455-29.9262L72.5455-33.4622L69.0095-33.4622L69.0095-36.9982L72.5455-36.9982L72.5455-40.5332L76.0805-40.5332L76.0805-36.9982L79.6165-36.9982L79.6165-33.4622Z"/>
  </g>
  <g id="Medium-M" transform="matrix(1 0 0 1 1698.76 1126)">
   <path class="monochrome-0 SFSymbolsPreview000000" d="M94.3135-62.0822C93.5665-63.3802 92.5325-64.5122 91.3955-65.1702L51.9405-87.9492C49.6625-89.2652 45.9435-89.2652 43.6705-87.9492L4.20653-65.1702C1.93353-63.8592 0.076531-60.6362 0.076531-58.0092L0.076531-12.4502C0.076531-11.1342 0.541531-9.67522 1.28853-8.37822C2.03653-7.08022 3.07053-5.94822 4.20653-5.29022L43.6615 17.4898C45.9345 18.8008 49.6585 18.8008 51.9315 17.4898L91.3865-5.29022C92.5235-5.94822 93.5575-7.08022 94.3045-8.37822C95.0515-9.67522 95.5138-11.1342 95.5138-12.4502L95.5138-58.0092C95.5265-59.3252 95.0655-60.7842 94.3135-62.0822L94.3135-62.0822ZM47.7965-3.41022C30.2535-3.41022 15.9815-17.6862 15.9815-35.2302C15.9815-52.7732 30.2575-67.0502 47.8015-67.0502C59.1595-67.0282 69.6505-60.9732 75.3515-51.1492L61.5855-43.1822C58.7375-48.1032 53.4865-51.1372 47.8015-51.1492C39.0125-51.1412 31.8895-44.0182 31.8825-35.2302C31.8945-26.4462 39.0135-19.3302 47.7965-19.3202C53.4795-19.3322 58.7285-22.3622 61.5805-27.2772L75.3555-19.3112C69.6525-9.48522 59.1575-3.43022 47.7965-3.41022L47.7965-3.41022ZM92.8725-33.4622L89.3365-33.4622L89.3365-29.9262L85.8015-29.9262L85.8015-33.4622L82.2655-33.4622L82.2655-36.9982L85.8015-36.9982L85.8015-40.5332L89.3365-40.5332L89.3365-36.9982L92.8725-36.9982L92.8725-33.4622ZM79.6165-33.4622L76.0805-33.4622L76.0805-29.9262L72.5455-29.9262L72.5455-33.4622L69.0095-33.4622L69.0095-36.9982L72.5455-36.9982L72.5455-40.5332L76.0805-40.5332L76.0805-36.9982L79.6165-36.9982L79.6165-33.4622Z"/>
  </g>
  <g id="Regular-M" transform="matrix(1 0 0 1 1402.05 1126)">
   <path class="monochrome-0 SFSymbolsPreview000000" d="M94.3135-62.0822C93.5665-63.3802 92.5325-64.5122 91.3955-65.1702L51.9405-87.9492C49.6625-89.2652 45.9435-89.2652 43.6705-87.9492L4.20653-65.1702C1.93353-63.8592 0.076531-60.6362 0.076531-58.0092L0.076531-12.4502C0.076531-11.1342 0.541531-9.67522 1.28853-8.37822C2.03653-7.08022 3.07053-5.94822 4.20653-5.29022L43.6615 17.4898C45.9345 18.8008 49.6585 18.8008 51.9315 17.4898L91.3865-5.29022C92.5235-5.94822 93.5575-7.08022 94.3045-8.37822C95.0515-9.67522 95.5138-11.1342 95.5138-12.4502L95.5138-58.0092C95.5265-59.3252 95.0655-60.7842 94.3135-62.0822L94.3135-62.0822ZM47.7965-3.41022C30.2535-3.41022 15.9815-17.6862 15.9815-35.2302C15.9815-52.7732 30.2575-67.0502 47.8015-67.0502C59.1595-67.0282 69.6505-60.9732 75.3515-51.1492L61.5855-43.1822C58.7375-48.1032 53.4865-51.1372 47.8015-51.1492C39.0125-51.1412 31.8895-44.0182 31.8825-35.2302C31.8945-26.4462 39.0135-19.3302 47.7965-19.3202C53.4795-19.3322 58.7285-22.3622 61.5805-27.2772L75.3555-19.3112C69.6525-9.48522 59.1575-3.43022 47.7965-3.41022L47.7965-3.41022ZM92.8725-33.4622L89.3365-33.4622L89.3365-29.9262L85.8015-29.9262L85.8015-33.4622L82.2655-33.4622L82.2655-36.9982L85.8015-36.9982L85.8015-40.5332L89.3365-40.5332L89.3365-36.9982L92.8725-36.9982L92.8725-33.4622ZM79.6165-33.4622L76.0805-33.4622L76.0805-29.9262L72.5455-29.9262L72.5455-33.4622L69.0095-33.4622L69.0095-36.9982L72.5455-36.9982L72.5455-40.5332L76.0805-40.5332L76.0805-36.9982L79.6165-36.9982L79.6165-33.4622Z"/>
  </g>
  <g id="Light-M" transform="matrix(1 0 0 1 1105.34 1126)">
   <path class="monochrome-0 SFSymbolsPreview000000" d="M94.3135-62.0822C93.5665-63.3802 92.5325-64.5122 91.3955-65.1702L51.9405-87.9492C49.6625-89.2652 45.9435-89.2652 43.6705-87.9492L4.20653-65.1702C1.93353-63.8592 0.076531-60.6362 0.076531-58.0092L0.076531-12.4502C0.076531-11.1342 0.541531-9.67522 1.28853-8.37822C2.03653-7.08022 3.07053-5.94822 4.20653-5.29022L43.6615 17.4898C45.9345 18.8008 49.6585 18.8008 51.9315 17.4898L91.3865-5.29022C92.5235-5.94822 93.5575-7.08022 94.3045-8.37822C95.0515-9.67522 95.5138-11.1342 95.5138-12.4502L95.5138-58.0092C95.5265-59.3252 95.0655-60.7842 94.3135-62.0822L94.3135-62.0822ZM47.7965-3.41022C30.2535-3.41022 15.9815-17.6862 15.9815-35.2302C15.9815-52.7732 30.2575-67.0502 47.8015-67.0502C59.1595-67.0282 69.6505-60.9732 75.3515-51.1492L61.5855-43.1822C58.7375-48.1032 53.4865-51.1372 47.8015-51.1492C39.0125-51.1412 31.8895-44.0182 31.8825-35.2302C31.8945-26.4462 39.0135-19.3302 47.7965-19.3202C53.4795-19.3322 58.7285-22.3622 61.5805-27.2772L75.3555-19.3112C69.6525-9.48522 59.1575-3.43022 47.7965-3.41022L47.7965-3.41022ZM92.8725-33.4622L89.3365-33.4622L89.3365-29.9262L85.8015-29.9262L85.8015-33.4622L82.2655-33.4622L82.2655-36.9982L85.8015-36.9982L85.8015-40.5332L89.3365-40.5332L89.3365-36.9982L92.8725-36.9982L92.8725-33.4622ZM79.6165-33.4622L76.0805-33.4622L76.0805-29.9262L72.5455-29.9262L72.5455-33.4622L69.0095-33.4622L69.0095-36.9982L72.5455-36.9982L72.5455-40.5332L76.0805-40.5332L76.0805-36.9982L79.6165-36.9982L79.6165-33.4622Z"/>
  </g>
  <g id="Thin-M" transform="matrix(1 0 0 1 808.625 1126)">
   <path class="monochrome-0 SFSymbolsPreview000000" d="M94.3135-62.0822C93.5665-63.3802 92.5325-64.5122 91.3955-65.1702L51.9405-87.9492C49.6625-89.2652 45.9435-89.2652 43.6705-87.9492L4.20653-65.1702C1.93353-63.8592 0.076531-60.6362 0.076531-58.0092L0.076531-12.4502C0.076531-11.1342 0.541531-9.67522 1.28853-8.37822C2.03653-7.08022 3.07053-5.94822 4.20653-5.29022L43.6615 17.4898C45.9345 18.8008 49.6585 18.8008 51.9315 17.4898L91.3865-5.29022C92.5235-5.94822 93.5575-7.08022 94.3045-8.37822C95.0515-9.67522 95.5138-11.1342 95.5138-12.4502L95.5138-58.0092C95.5265-59.3252 95.0655-60.7842 94.3135-62.0822L94.3135-62.0822ZM47.7965-3.41022C30.2535-3.41022 15.9815-17.6862 15.9815-35.2302C15.9815-52.7732 30.2575-67.0502 47.8015-67.0502C59.1595-67.0282 69.6505-60.9732 75.3515-51.1492L61.5855-43.1822C58.7375-48.1032 53.4865-51.1372 47.8015-51.1492C39.0125-51.1412 31.8895-44.0182 31.8825-35.2302C31.8945-26.4462 39.0135-19.3302 47.7965-19.3202C53.4795-19.3322 58.7285-22.3622 61.5805-27.2772L75.3555-19.3112C69.6525-9.48522 59.1575-3.43022 47.7965-3.41022L47.7965-3.41022ZM92.8725-33.4622L89.3365-33.4622L89.3365-29.9262L85.8015-29.9262L85.8015-33.4622L82.2655-33.4622L82.2655-36.9982L85.8015-36.9982L85.8015-40.5332L89.3365-40.5332L89.3365-36.9982L92.8725-36.9982L92.8725-33.4622ZM79.6165-33.4622L76.0805-33.4622L76.0805-29.9262L72.5455-29.9262L72.5455-33.4622L69.0095-33.4622L69.0095-36.9982L72.5455-36.9982L72.5455-40.5332L76.0805-40.5332L76.0805-36.9982L79.6165-36.9982L79.6165-33.4622Z"/>
  </g>
  <g id="Ultralight-M" transform="matrix(1 0 0 1 511.914 1126)">
   <path class="monochrome-0 SFSymbolsPreview000000" d="M94.3135-62.0822C93.5665-63.3802 92.5325-64.5122 91.3955-65.1702L51.9405-87.9492C49.6625-89.2652 45.9435-89.2652 43.6705-87.9492L4.20653-65.1702C1.93353-63.8592 0.076531-60.6362 0.076531-58.0092L0.076531-12.4502C0.076531-11.1342 0.541531-9.67522 1.28853-8.37822C2.03653-7.08022 3.07053-5.94822 4.20653-5.29022L43.6615 17.4898C45.9345 18.8008 49.6585 18.8008 51.9315 17.4898L91.3865-5.29022C92.5235-5.94822 93.5575-7.08022 94.3045-8.37822C95.0515-9.67522 95.5138-11.1342 95.5138-12.4502L95.5138-58.0092C95.5265-59.3252 95.0655-60.7842 94.3135-62.0822L94.3135-62.0822ZM47.7965-3.41022C30.2535-3.41022 15.9815-17.6862 15.9815-35.2302C15.9815-52.7732 30.2575-67.0502 47.8015-67.0502C59.1595-67.0282 69.6505-60.9732 75.3515-51.1492L61.5855-43.1822C58.7375-48.1032 53.4865-51.1372 47.8015-51.1492C39.0125-51.1412 31.8895-44.0182 31.8825-35.2302C31.8945-26.4462 39.0135-19.3302 47.7965-19.3202C53.4795-19.3322 58.7285-22.3622 61.5805-27.2772L75.3555-19.3112C69.6525-9.48522 59.1575-3.43022 47.7965-3.41022L47.7965-3.41022ZM92.8725-33.4622L89.3365-33.4622L89.3365-29.9262L85.8015-29.9262L85.8015-33.4622L82.2655-33.4622L82.2655-36.9982L85.8015-36.9982L85.8015-40.5332L89.3365-40.5332L89.3365-36.9982L92.8725-36.9982L92.8725-33.4622ZM79.6165-33.4622L76.0805-33.4622L76.0805-29.9262L72.5455-29.9262L72.5455-33.4622L69.0095-33.4622L69.0095-36.9982L72.5455-36.9982L72.5455-40.5332L76.0805-40.5332L76.0805-36.9982L79.6165-36.9982L79.6165-33.4622Z"/>
  </g>
  <g id="Black-S" transform="matrix(1 0 0 1 2895.96 696)">
   <path class="monochrome-0 SFSymbolsPreview000000" d="M73.8645-56.2554C73.2795-57.2714 72.4695-58.1584 71.5795-58.6734L40.6865-76.5094C38.9035-77.5394 35.9915-77.5394 34.2115-76.5094L3.31053-58.6734C1.53053-57.6464 0.076531-55.1234 0.076531-53.0664L0.076531-17.3934C0.076531-16.3634 0.441531-15.2214 1.02653-14.2044C1.61153-13.1884 2.42053-12.3024 3.31053-11.7864L34.2045 6.0496C35.9845 7.0766 38.8995 7.0766 40.6795 6.0496L71.5725-11.7864C72.4625-12.3024 73.2725-13.1884 73.8575-14.2044C74.4425-15.2214 74.8038-16.3634 74.8038-17.3934L74.8038-53.0664C74.8145-54.0964 74.4535-55.2394 73.8645-56.2554L73.8645-56.2554ZM37.4415-10.3154C23.7055-10.3154 12.5305-21.4934 12.5305-35.2304C12.5305-48.9664 23.7085-60.1444 37.4455-60.1444C46.3385-60.1284 54.5535-55.3864 59.0175-47.6944L48.2385-41.4574C46.0085-45.3094 41.8975-47.6854 37.4455-47.6944C30.5635-47.6884 24.9865-42.1114 24.9805-35.2304C24.9905-28.3524 30.5645-22.7804 37.4415-22.7724C41.8915-22.7824 46.0015-25.1544 48.2345-29.0034L59.0205-22.7654C54.5545-15.0724 46.3375-10.3314 37.4415-10.3154L37.4415-10.3154ZM72.7365-33.8454L69.9675-33.8454L69.9675-31.0774L67.1995-31.0774L67.1995-33.8454L64.4315-33.8454L64.4315-36.6144L67.1995-36.6144L67.1995-39.3824L69.9675-39.3824L69.9675-36.6144L72.7365-36.6144L72.7365-33.8454ZM62.3565-33.8454L59.5885-33.8454L59.5885-31.0774L56.8205-31.0774L56.8205-33.8454L54.0515-33.8454L54.0515-36.6144L56.8205-36.6144L56.8205-39.3824L59.5885-39.3824L59.5885-36.6144L62.3565-36.6144L62.3565-33.8454Z"/>
  </g>
  <g id="Heavy-S" transform="matrix(1 0 0 1 2599.25 696)">
   <path class="monochrome-0 SFSymbolsPreview000000" d="M73.8645-56.2554C73.2795-57.2714 72.4695-58.1584 71.5795-58.6734L40.6865-76.5094C38.9035-77.5394 35.9915-77.5394 34.2115-76.5094L3.31053-58.6734C1.53053-57.6464 0.076531-55.1234 0.076531-53.0664L0.076531-17.3934C0.076531-16.3634 0.441531-15.2214 1.02653-14.2044C1.61153-13.1884 2.42053-12.3024 3.31053-11.7864L34.2045 6.0496C35.9845 7.0766 38.8995 7.0766 40.6795 6.0496L71.5725-11.7864C72.4625-12.3024 73.2725-13.1884 73.8575-14.2044C74.4425-15.2214 74.8038-16.3634 74.8038-17.3934L74.8038-53.0664C74.8145-54.0964 74.4535-55.2394 73.8645-56.2554L73.8645-56.2554ZM37.4415-10.3154C23.7055-10.3154 12.5305-21.4934 12.5305-35.2304C12.5305-48.9664 23.7085-60.1444 37.4455-60.1444C46.3385-60.1284 54.5535-55.3864 59.0175-47.6944L48.2385-41.4574C46.0085-45.3094 41.8975-47.6854 37.4455-47.6944C30.5635-47.6884 24.9865-42.1114 24.9805-35.2304C24.9905-28.3524 30.5645-22.7804 37.4415-22.7724C41.8915-22.7824 46.0015-25.1544 48.2345-29.0034L59.0205-22.7654C54.5545-15.0724 46.3375-10.3314 37.4415-10.3154L37.4415-10.3154ZM72.7365-33.8454L69.9675-33.8454L69.9675-31.0774L67.1995-31.0774L67.1995-33.8454L64.4315-33.8454L64.4315-36.6144L67.1995-36.6144L67.1995-39.3824L69.9675-39.3824L69.9675-36.6144L72.7365-36.6144L72.7365-33.8454ZM62.3565-33.8454L59.5885-33.8454L59.5885-31.0774L56.8205-31.0774L56.8205-33.8454L54.0515-33.8454L54.0515-36.6144L56.8205-36.6144L56.8205-39.3824L59.5885-39.3824L59.5885-36.6144L62.3565-36.6144L62.3565-33.8454Z"/>
  </g>
  <g id="Bold-S" transform="matrix(1 0 0 1 2302.54 696)">
   <path class="monochrome-0 SFSymbolsPreview000000" d="M73.8645-56.2554C73.2795-57.2714 72.4695-58.1584 71.5795-58.6734L40.6865-76.5094C38.9035-77.5394 35.9915-77.5394 34.2115-76.5094L3.31053-58.6734C1.53053-57.6464 0.076531-55.1234 0.076531-53.0664L0.076531-17.3934C0.076531-16.3634 0.441531-15.2214 1.02653-14.2044C1.61153-13.1884 2.42053-12.3024 3.31053-11.7864L34.2045 6.0496C35.9845 7.0766 38.8995 7.0766 40.6795 6.0496L71.5725-11.7864C72.4625-12.3024 73.2725-13.1884 73.8575-14.2044C74.4425-15.2214 74.8038-16.3634 74.8038-17.3934L74.8038-53.0664C74.8145-54.0964 74.4535-55.2394 73.8645-56.2554L73.8645-56.2554ZM37.4415-10.3154C23.7055-10.3154 12.5305-21.4934 12.5305-35.2304C12.5305-48.9664 23.7085-60.1444 37.4455-60.1444C46.3385-60.1284 54.5535-55.3864 59.0175-47.6944L48.2385-41.4574C46.0085-45.3094 41.8975-47.6854 37.4455-47.6944C30.5635-47.6884 24.9865-42.1114 24.9805-35.2304C24.9905-28.3524 30.5645-22.7804 37.4415-22.7724C41.8915-22.7824 46.0015-25.1544 48.2345-29.0034L59.0205-22.7654C54.5545-15.0724 46.3375-10.3314 37.4415-10.3154L37.4415-10.3154ZM72.7365-33.8454L69.9675-33.8454L69.9675-31.0774L67.1995-31.0774L67.1995-33.8454L64.4315-33.8454L64.4315-36.6144L67.1995-36.6144L67.1995-39.3824L69.9675-39.3824L69.9675-36.6144L72.7365-36.6144L72.7365-33.8454ZM62.3565-33.8454L59.5885-33.8454L59.5885-31.0774L56.8205-31.0774L56.8205-33.8454L54.0515-33.8454L54.0515-36.6144L56.8205-36.6144L56.8205-39.3824L59.5885-39.3824L59.5885-36.6144L62.3565-36.6144L62.3565-33.8454Z"/>
  </g>
  <g id="Semibold-S" transform="matrix(1 0 0 1 2005.82 696)">
   <path class="monochrome-0 SFSymbolsPreview000000" d="M73.8645-56.2554C73.2795-57.2714 72.4695-58.1584 71.5795-58.6734L40.6865-76.5094C38.9035-77.5394 35.9915-77.5394 34.2115-76.5094L3.31053-58.6734C1.53053-57.6464 0.076531-55.1234 0.076531-53.0664L0.076531-17.3934C0.076531-16.3634 0.441531-15.2214 1.02653-14.2044C1.61153-13.1884 2.42053-12.3024 3.31053-11.7864L34.2045 6.0496C35.9845 7.0766 38.8995 7.0766 40.6795 6.0496L71.5725-11.7864C72.4625-12.3024 73.2725-13.1884 73.8575-14.2044C74.4425-15.2214 74.8038-16.3634 74.8038-17.3934L74.8038-53.0664C74.8145-54.0964 74.4535-55.2394 73.8645-56.2554L73.8645-56.2554ZM37.4415-10.3154C23.7055-10.3154 12.5305-21.4934 12.5305-35.2304C12.5305-48.9664 23.7085-60.1444 37.4455-60.1444C46.3385-60.1284 54.5535-55.3864 59.0175-47.6944L48.2385-41.4574C46.0085-45.3094 41.8975-47.6854 37.4455-47.6944C30.5635-47.6884 24.9865-42.1114 24.9805-35.2304C24.9905-28.3524 30.5645-22.7804 37.4415-22.7724C41.8915-22.7824 46.0015-25.1544 48.2345-29.0034L59.0205-22.7654C54.5545-15.0724 46.3375-10.3314 37.4415-10.3154L37.4415-10.3154ZM72.7365-33.8454L69.9675-33.8454L69.9675-31.0774L67.1995-31.0774L67.1995-33.8454L64.4315-33.8454L64.4315-36.6144L67.1995-36.6144L67.1995-39.3824L69.9675-39.3824L69.9675-36.6144L72.7365-36.6144L72.7365-33.8454ZM62.3565-33.8454L59.5885-33.8454L59.5885-31.0774L56.8205-31.0774L56.8205-33.8454L54.0515-33.8454L54.0515-36.6144L56.8205-36.6144L56.8205-39.3824L59.5885-39.3824L59.5885-36.6144L62.3565-36.6144L62.3565-33.8454Z"/>
  </g>
  <g id="Medium-S" transform="matrix(1 0 0 1 1709.11 696)">
   <path class="monochrome-0 SFSymbolsPreview000000" d="M73.8645-56.2554C73.2795-57.2714 72.4695-58.1584 71.5795-58.6734L40.6865-76.5094C38.9035-77.5394 35.9915-77.5394 34.2115-76.5094L3.31053-58.6734C1.53053-57.6464 0.076531-55.1234 0.076531-53.0664L0.076531-17.3934C0.076531-16.3634 0.441531-15.2214 1.02653-14.2044C1.61153-13.1884 2.42053-12.3024 3.31053-11.7864L34.2045 6.0496C35.9845 7.0766 38.8995 7.0766 40.6795 6.0496L71.5725-11.7864C72.4625-12.3024 73.2725-13.1884 73.8575-14.2044C74.4425-15.2214 74.8038-16.3634 74.8038-17.3934L74.8038-53.0664C74.8145-54.0964 74.4535-55.2394 73.8645-56.2554L73.8645-56.2554ZM37.4415-10.3154C23.7055-10.3154 12.5305-21.4934 12.5305-35.2304C12.5305-48.9664 23.7085-60.1444 37.4455-60.1444C46.3385-60.1284 54.5535-55.3864 59.0175-47.6944L48.2385-41.4574C46.0085-45.3094 41.8975-47.6854 37.4455-47.6944C30.5635-47.6884 24.9865-42.1114 24.9805-35.2304C24.9905-28.3524 30.5645-22.7804 37.4415-22.7724C41.8915-22.7824 46.0015-25.1544 48.2345-29.0034L59.0205-22.7654C54.5545-15.0724 46.3375-10.3314 37.4415-10.3154L37.4415-10.3154ZM72.7365-33.8454L69.9675-33.8454L69.9675-31.0774L67.1995-31.0774L67.1995-33.8454L64.4315-33.8454L64.4315-36.6144L67.1995-36.6144L67.1995-39.3824L69.9675-39.3824L69.9675-36.6144L72.7365-36.6144L72.7365-33.8454ZM62.3565-33.8454L59.5885-33.8454L59.5885-31.0774L56.8205-31.0774L56.8205-33.8454L54.0515-33.8454L54.0515-36.6144L56.8205-36.6144L56.8205-39.3824L59.5885-39.3824L59.5885-36.6144L62.3565-36.6144L62.3565-33.8454Z"/>
  </g>
  <g id="Regular-S" transform="matrix(1 0 0 1 1412.4 696)">
   <path class="monochrome-0 SFSymbolsPreview000000" d="M73.8645-56.2554C73.2795-57.2714 72.4695-58.1584 71.5795-58.6734L40.6865-76.5094C38.9035-77.5394 35.9915-77.5394 34.2115-76.5094L3.31053-58.6734C1.53053-57.6464 0.076531-55.1234 0.076531-53.0664L0.076531-17.3934C0.076531-16.3634 0.441531-15.2214 1.02653-14.2044C1.61153-13.1884 2.42053-12.3024 3.31053-11.7864L34.2045 6.0496C35.9845 7.0766 38.8995 7.0766 40.6795 6.0496L71.5725-11.7864C72.4625-12.3024 73.2725-13.1884 73.8575-14.2044C74.4425-15.2214 74.8038-16.3634 74.8038-17.3934L74.8038-53.0664C74.8145-54.0964 74.4535-55.2394 73.8645-56.2554L73.8645-56.2554ZM37.4415-10.3154C23.7055-10.3154 12.5305-21.4934 12.5305-35.2304C12.5305-48.9664 23.7085-60.1444 37.4455-60.1444C46.3385-60.1284 54.5535-55.3864 59.0175-47.6944L48.2385-41.4574C46.0085-45.3094 41.8975-47.6854 37.4455-47.6944C30.5635-47.6884 24.9865-42.1114 24.9805-35.2304C24.9905-28.3524 30.5645-22.7804 37.4415-22.7724C41.8915-22.7824 46.0015-25.1544 48.2345-29.0034L59.0205-22.7654C54.5545-15.0724 46.3375-10.3314 37.4415-10.3154L37.4415-10.3154ZM72.7365-33.8454L69.9675-33.8454L69.9675-31.0774L67.1995-31.0774L67.1995-33.8454L64.4315-33.8454L64.4315-36.6144L67.1995-36.6144L67.1995-39.3824L69.9675-39.3824L69.9675-36.6144L72.7365-36.6144L72.7365-33.8454ZM62.3565-33.8454L59.5885-33.8454L59.5885-31.0774L56.8205-31.0774L56.8205-33.8454L54.0515-33.8454L54.0515-36.6144L56.8205-36.6144L56.8205-39.3824L59.5885-39.3824L59.5885-36.6144L62.3565-36.6144L62.3565-33.8454Z"/>
  </g>
  <g id="Light-S" transform="matrix(1 0 0 1 1115.69 696)">
   <path class="monochrome-0 SFSymbolsPreview000000" d="M73.8645-56.2554C73.2795-57.2714 72.4695-58.1584 71.5795-58.6734L40.6865-76.5094C38.9035-77.5394 35.9915-77.5394 34.2115-76.5094L3.31053-58.6734C1.53053-57.6464 0.076531-55.1234 0.076531-53.0664L0.076531-17.3934C0.076531-16.3634 0.441531-15.2214 1.02653-14.2044C1.61153-13.1884 2.42053-12.3024 3.31053-11.7864L34.2045 6.0496C35.9845 7.0766 38.8995 7.0766 40.6795 6.0496L71.5725-11.7864C72.4625-12.3024 73.2725-13.1884 73.8575-14.2044C74.4425-15.2214 74.8038-16.3634 74.8038-17.3934L74.8038-53.0664C74.8145-54.0964 74.4535-55.2394 73.8645-56.2554L73.8645-56.2554ZM37.4415-10.3154C23.7055-10.3154 12.5305-21.4934 12.5305-35.2304C12.5305-48.9664 23.7085-60.1444 37.4455-60.1444C46.3385-60.1284 54.5535-55.3864 59.0175-47.6944L48.2385-41.4574C46.0085-45.3094 41.8975-47.6854 37.4455-47.6944C30.5635-47.6884 24.9865-42.1114 24.9805-35.2304C24.9905-28.3524 30.5645-22.7804 37.4415-22.7724C41.8915-22.7824 46.0015-25.1544 48.2345-29.0034L59.0205-22.7654C54.5545-15.0724 46.3375-10.3314 37.4415-10.3154L37.4415-10.3154ZM72.7365-33.8454L69.9675-33.8454L69.9675-31.0774L67.1995-31.0774L67.1995-33.8454L64.4315-33.8454L64.4315-36.6144L67.1995-36.6144L67.1995-39.3824L69.9675-39.3824L69.9675-36.6144L72.7365-36.6144L72.7365-33.8454ZM62.3565-33.8454L59.5885-33.8454L59.5885-31.0774L56.8205-31.0774L56.8205-33.8454L54.0515-33.8454L54.0515-36.6144L56.8205-36.6144L56.8205-39.3824L59.5885-39.3824L59.5885-36.6144L62.3565-36.6144L62.3565-33.8454Z"/>
  </g>
  <g id="Thin-S" transform="matrix(1 0 0 1 818.98 696)">
   <path class="monochrome-0 SFSymbolsPreview000000" d="M73.8645-56.2554C73.2795-57.2714 72.4695-58.1584 71.5795-58.6734L40.6865-76.5094C38.9035-77.5394 35.9915-77.5394 34.2115-76.5094L3.31053-58.6734C1.53053-57.6464 0.076531-55.1234 0.076531-53.0664L0.076531-17.3934C0.076531-16.3634 0.441531-15.2214 1.02653-14.2044C1.61153-13.1884 2.42053-12.3024 3.31053-11.7864L34.2045 6.0496C35.9845 7.0766 38.8995 7.0766 40.6795 6.0496L71.5725-11.7864C72.4625-12.3024 73.2725-13.1884 73.8575-14.2044C74.4425-15.2214 74.8038-16.3634 74.8038-17.3934L74.8038-53.0664C74.8145-54.0964 74.4535-55.2394 73.8645-56.2554L73.8645-56.2554ZM37.4415-10.3154C23.7055-10.3154 12.5305-21.4934 12.5305-35.2304C12.5305-48.9664 23.7085-60.1444 37.4455-60.1444C46.3385-60.1284 54.5535-55.3864 59.0175-47.6944L48.2385-41.4574C46.0085-45.3094 41.8975-47.6854 37.4455-47.6944C30.5635-47.6884 24.9865-42.1114 24.9805-35.2304C24.9905-28.3524 30.5645-22.7804 37.4415-22.7724C41.8915-22.7824 46.0015-25.1544 48.2345-29.0034L59.0205-22.7654C54.5545-15.0724 46.3375-10.3314 37.4415-10.3154L37.4415-10.3154ZM72.7365-33.8454L69.9675-33.8454L69.9675-31.0774L67.1995-31.0774L67.1995-33.8454L64.4315-33.8454L64.4315-36.6144L67.1995-36.6144L67.1995-39.3824L69.9675-39.3824L69.9675-36.6144L72.7365-36.6144L72.7365-33.8454ZM62.3565-33.8454L59.5885-33.8454L59.5885-31.0774L56.8205-31.0774L56.8205-33.8454L54.0515-33.8454L54.0515-36.6144L56.8205-36.6144L56.8205-39.3824L59.5885-39.3824L59.5885-36.6144L62.3565-36.6144L62.3565-33.8454Z"/>
  </g>
  <g id="Ultralight-S" transform="matrix(1 0 0 1 522.269 696)">
   <path class="monochrome-0 SFSymbolsPreview000000" d="M73.8645-56.2554C73.2795-57.2714 72.4695-58.1584 71.5795-58.6734L40.6865-76.5094C38.9035-77.5394 35.9915-77.5394 34.2115-76.5094L3.31053-58.6734C1.53053-57.6464 0.076531-55.1234 0.076531-53.0664L0.076531-17.3934C0.076531-16.3634 0.441531-15.2214 1.02653-14.2044C1.61153-13.1884 2.42053-12.3024 3.31053-11.7864L34.2045 6.0496C35.9845 7.0766 38.8995 7.0766 40.6795 6.0496L71.5725-11.7864C72.4625-12.3024 73.2725-13.1884 73.8575-14.2044C74.4425-15.2214 74.8038-16.3634 74.8038-17.3934L74.8038-53.0664C74.8145-54.0964 74.4535-55.2394 73.8645-56.2554L73.8645-56.2554ZM37.4415-10.3154C23.7055-10.3154 12.5305-21.4934 12.5305-35.2304C12.5305-48.9664 23.7085-60.1444 37.4455-60.1444C46.3385-60.1284 54.5535-55.3864 59.0175-47.6944L48.2385-41.4574C46.0085-45.3094 41.8975-47.6854 37.4455-47.6944C30.5635-47.6884 24.9865-42.1114 24.9805-35.2304C24.9905-28.3524 30.5645-22.7804 37.4415-22.7724C41.8915-22.7824 46.0015-25.1544 48.2345-29.0034L59.0205-22.7654C54.5545-15.0724 46.3375-10.3314 37.4415-10.3154L37.4415-10.3154ZM72.7365-33.8454L69.9675-33.8454L69.9675-31.0774L67.1995-31.0774L67.1995-33.8454L64.4315-33.8454L64.4315-36.6144L67.1995-36.6144L67.1995-39.3824L69.9675-39.3824L69.9675-36.6144L72.7365-36.6144L72.7365-33.8454ZM62.3565-33.8454L59.5885-33.8454L59.5885-31.0774L56.8205-31.0774L56.8205-33.8454L54.0515-33.8454L54.0515-36.6144L56.8205-36.6144L56.8205-39.3824L59.5885-39.3824L59.5885-36.6144L62.3565-36.6144L62.3565-33.8454Z"/>
  </g>
 </g>
</svg>
