<?xml version="1.0" encoding="UTF-8"?>
<!--Generator: CustomSymbols by @serious_bret-->
<!DOCTYPE svg
        PUBLIC "-//W3C//DTD SVG 1.1//EN"
        "http://www.w3.org/Graphics/SVG/1.1/DTD/svg11.dtd">
<svg version="1.1" xmlns="http://www.w3.org/2000/svg" xmlns:xlink="http://www.w3.org/1999/xlink" width="2900" height="1500">
    <g transform="translate(-200 -200)">
    <!--template writer version: "8"-->
    <g id="Notes">
        <rect height="2200" id="artboard" style="fill:white;opacity:1" width="3300" x="0" y="0"/>
        <line id="" style="fill:none;stroke:black;opacity:1;stroke-width:0.5;" x1="263" x2="3036" y1="292" y2="292"/>
        <text id="reftext1" style="stroke:none;fill:black;font-family:-apple-system,&quot;SF Pro Display&quot;,&quot;SF Pro Text&quot;,Helvetica,sans-serif;font-weight:bold;" transform="matrix(1 0 0 1 263 322)">Weight/Scale Variations</text>
        <text id="reftext2" style="stroke:none;fill:black;font-family:-apple-system,&quot;SF Pro Display&quot;,&quot;SF Pro Text&quot;,Helvetica,sans-serif;text-anchor:middle;" transform="matrix(1 0 0 1 559.711 322)">Ultralight</text>
        <text style="stroke:none;fill:black;font-family:-apple-system,&quot;SF Pro Display&quot;,&quot;SF Pro Text&quot;,Helvetica,sans-serif;text-anchor:middle;" transform="matrix(1 0 0 1 856.422 322)">Thin</text>
        <text style="stroke:none;fill:black;font-family:-apple-system,&quot;SF Pro Display&quot;,&quot;SF Pro Text&quot;,Helvetica,sans-serif;text-anchor:middle;" transform="matrix(1 0 0 1 1153.13 322)">Light</text>
        <text style="stroke:none;fill:black;font-family:-apple-system,&quot;SF Pro Display&quot;,&quot;SF Pro Text&quot;,Helvetica,sans-serif;text-anchor:middle;" transform="matrix(1 0 0 1 1449.84 322)">Regular</text>
        <text style="stroke:none;fill:black;font-family:-apple-system,&quot;SF Pro Display&quot;,&quot;SF Pro Text&quot;,Helvetica,sans-serif;text-anchor:middle;" transform="matrix(1 0 0 1 1746.56 322)">Medium</text>
        <text style="stroke:none;fill:black;font-family:-apple-system,&quot;SF Pro Display&quot;,&quot;SF Pro Text&quot;,Helvetica,sans-serif;text-anchor:middle;" transform="matrix(1 0 0 1 2043.27 322)">Semibold</text>
        <text style="stroke:none;fill:black;font-family:-apple-system,&quot;SF Pro Display&quot;,&quot;SF Pro Text&quot;,Helvetica,sans-serif;text-anchor:middle;" transform="matrix(1 0 0 1 2339.98 322)">Bold</text>
        <text style="stroke:none;fill:black;font-family:-apple-system,&quot;SF Pro Display&quot;,&quot;SF Pro Text&quot;,Helvetica,sans-serif;text-anchor:middle;" transform="matrix(1 0 0 1 2636.69 322)">Heavy</text>
        <text style="stroke:none;fill:black;font-family:-apple-system,&quot;SF Pro Display&quot;,&quot;SF Pro Text&quot;,Helvetica,sans-serif;text-anchor:middle;" transform="matrix(1 0 0 1 2933.4 322)">Black</text>

        <text style="stroke:none;fill:black;font-family:-apple-system,&quot;SF Pro Display&quot;,&quot;SF Pro Text&quot;,Helvetica,sans-serif;" transform="matrix(1 0 0 1 263 726)">Small</text>
        <text style="stroke:none;fill:black;font-family:-apple-system,&quot;SF Pro Display&quot;,&quot;SF Pro Text&quot;,Helvetica,sans-serif;" transform="matrix(1 0 0 1 263 1156)">Medium</text>
        <text style="stroke:none;fill:black;font-family:-apple-system,&quot;SF Pro Display&quot;,&quot;SF Pro Text&quot;,Helvetica,sans-serif;" transform="matrix(1 0 0 1 263 1586)">Large</text>
    </g>
    <g id="Guides">
        <g id="H-reference" style="fill:#27AAE1;stroke:none;" transform="matrix(1 0 0 1 339 696)">
            <path d="M0.976562 0L3.66211 0L12.9883-24.4629L45.752-24.4629L55.127 0L57.7637 0L30.6152-70.459L28.125-70.459ZM29.3457-67.1387L29.4434-67.1387L44.873-26.709L13.8672-26.709Z"/>
        </g>
        <line id="Baseline-S" style="fill:none;stroke:#27AAE1;opacity:1;stroke-width:0.5;" x1="263" x2="3036" y1="696" y2="696"/>
        <line id="Capline-S" style="fill:none;stroke:#27AAE1;opacity:1;stroke-width:0.5;" x1="263" x2="3036" y1="625.541" y2="625.541"/>
        <g id="H-reference" style="fill:#27AAE1;stroke:none;" transform="matrix(1 0 0 1 339 1126)">
            <path d="M0.976562 0L3.66211 0L12.9883-24.4629L45.752-24.4629L55.127 0L57.7637 0L30.6152-70.459L28.125-70.459ZM29.3457-67.1387L29.4434-67.1387L44.873-26.709L13.8672-26.709Z"/>
        </g>
        <line id="Baseline-M" style="fill:none;stroke:#27AAE1;opacity:1;stroke-width:0.5;" x1="263" x2="3036" y1="1126" y2="1126"/>
        <line id="Capline-M" style="fill:none;stroke:#27AAE1;opacity:1;stroke-width:0.5;" x1="263" x2="3036" y1="1055.54" y2="1055.54"/>
        <g id="H-reference" style="fill:#27AAE1;stroke:none;" transform="matrix(1 0 0 1 339 1556)">
            <path d="M0.976562 0L3.66211 0L12.9883-24.4629L45.752-24.4629L55.127 0L57.7637 0L30.6152-70.459L28.125-70.459ZM29.3457-67.1387L29.4434-67.1387L44.873-26.709L13.8672-26.709Z"/>
        </g>
        <line id="Baseline-L" style="fill:none;stroke:#27AAE1;opacity:1;stroke-width:0.5;" x1="263" x2="3036" y1="1556" y2="1556"/>
        <line id="Capline-L" style="fill:none;stroke:#27AAE1;opacity:1;stroke-width:0.5;" x1="263" x2="3036" y1="1485.54" y2="1485.54"/>
        <line id="left-margin" x1="1417.3214020285482" x2="1417.3214020285482" y1="1030.79" y2="1150.12" style="fill:none;stroke:#00AEEF;stroke-width:0.5;opacity:1.0;"/>
        <line id="right-margin" x1="1484.9385979714516" x2="1484.9385979714516" y1="1030.79" y2="1150.12" style="fill:none;stroke:#00AEEF;stroke-width:0.5;opacity:1.0;"/>
    </g>
    <g id="Symbols">
        <g id="Black-L" transform="matrix(1.0,0.0,0.0,1.0,2869.1948778030437,1455.2848973342939)">  <path stroke-opacity="1" fill-rule="nonzero" stroke-linejoin="miter" stroke-linecap="butt" stroke-dasharray="none" fill="#000000" stroke="none" stroke-miterlimit="4" fill-opacity="1" stroke-width="1px" role="img" d="M25.043,130.97C49.801,130.97,100.405,122.697,105.922,114.599L105.922,83.335C100.7,91.019,49.801,99.226,25.043,99.226L25.043,130.97ZM25.043,89.305C49.801,89.305,100.405,81.032,105.922,72.934L105.922,41.67C100.7,49.354,49.801,57.561,25.043,57.561L25.043,89.305ZM25.043,47.635C49.801,47.635,100.405,39.362,105.922,31.264L105.922,0C100.7,7.684,49.801,15.891,25.043,15.891L25.043,47.635ZM25.043,47.635"/>
</g>
        <g id="Heavy-L" transform="matrix(1.0,0.0,0.0,1.0,2572.4848778030437,1455.2848973342939)">  <path fill-rule="nonzero" stroke="none" fill="#000000" stroke-linecap="butt" stroke-opacity="1" stroke-dasharray="none" fill-opacity="1" role="img" stroke-linejoin="miter" stroke-width="1px" stroke-miterlimit="4" d="M25.043,130.97C49.801,130.97,100.405,122.697,105.922,114.599L105.922,83.335C100.7,91.019,49.801,99.226,25.043,99.226L25.043,130.97ZM25.043,89.305C49.801,89.305,100.405,81.032,105.922,72.934L105.922,41.67C100.7,49.354,49.801,57.561,25.043,57.561L25.043,89.305ZM25.043,47.635C49.801,47.635,100.405,39.362,105.922,31.264L105.922,0C100.7,7.684,49.801,15.891,25.043,15.891L25.043,47.635ZM25.043,47.635"/>
</g>
        <g id="Bold-L" transform="matrix(1.0,0.0,0.0,1.0,2275.7748778030436,1455.2848973342939)">  <path role="img" stroke-linecap="butt" stroke="none" stroke-linejoin="miter" fill-opacity="1" stroke-opacity="1" stroke-miterlimit="4" fill-rule="nonzero" fill="#000000" stroke-dasharray="none" stroke-width="1px" d="M25.043,130.97C49.801,130.97,100.405,122.697,105.922,114.599L105.922,83.335C100.7,91.019,49.801,99.226,25.043,99.226L25.043,130.97ZM25.043,89.305C49.801,89.305,100.405,81.032,105.922,72.934L105.922,41.67C100.7,49.354,49.801,57.561,25.043,57.561L25.043,89.305ZM25.043,47.635C49.801,47.635,100.405,39.362,105.922,31.264L105.922,0C100.7,7.684,49.801,15.891,25.043,15.891L25.043,47.635ZM25.043,47.635"/>
</g>
        <g id="Semibold-L" transform="matrix(1.0,0.0,0.0,1.0,1979.0648778030438,1455.2848973342939)">  <path stroke-opacity="1" stroke="none" fill="#000000" stroke-dasharray="none" role="img" fill-rule="nonzero" stroke-linecap="butt" stroke-width="1px" fill-opacity="1" stroke-miterlimit="4" stroke-linejoin="miter" d="M25.043,130.97C49.801,130.97,100.405,122.697,105.922,114.599L105.922,83.335C100.7,91.019,49.801,99.226,25.043,99.226L25.043,130.97ZM25.043,89.305C49.801,89.305,100.405,81.032,105.922,72.934L105.922,41.67C100.7,49.354,49.801,57.561,25.043,57.561L25.043,89.305ZM25.043,47.635C49.801,47.635,100.405,39.362,105.922,31.264L105.922,0C100.7,7.684,49.801,15.891,25.043,15.891L25.043,47.635ZM25.043,47.635"/>
</g>
        <g id="Medium-L" transform="matrix(1.0,0.0,0.0,1.0,1682.3548778030438,1455.2848973342939)">  <path stroke-linecap="butt" stroke="none" stroke-miterlimit="4" fill="#000000" fill-rule="nonzero" stroke-dasharray="none" role="img" stroke-opacity="1" stroke-width="1px" stroke-linejoin="miter" fill-opacity="1" d="M25.043,130.97C49.801,130.97,100.405,122.697,105.922,114.599L105.922,83.335C100.7,91.019,49.801,99.226,25.043,99.226L25.043,130.97ZM25.043,89.305C49.801,89.305,100.405,81.032,105.922,72.934L105.922,41.67C100.7,49.354,49.801,57.561,25.043,57.561L25.043,89.305ZM25.043,47.635C49.801,47.635,100.405,39.362,105.922,31.264L105.922,0C100.7,7.684,49.801,15.891,25.043,15.891L25.043,47.635ZM25.043,47.635"/>
</g>
        <g id="Regular-L" transform="matrix(1.0,0.0,0.0,1.0,1385.6448778030438,1455.2848973342939)">  <path stroke="none" stroke-linejoin="miter" stroke-miterlimit="4" fill-opacity="1" stroke-linecap="butt" role="img" fill-rule="nonzero" stroke-width="1px" fill="#000000" stroke-dasharray="none" stroke-opacity="1" d="M25.043,130.97C49.801,130.97,100.405,122.697,105.922,114.599L105.922,83.335C100.7,91.019,49.801,99.226,25.043,99.226L25.043,130.97ZM25.043,89.305C49.801,89.305,100.405,81.032,105.922,72.934L105.922,41.67C100.7,49.354,49.801,57.561,25.043,57.561L25.043,89.305ZM25.043,47.635C49.801,47.635,100.405,39.362,105.922,31.264L105.922,0C100.7,7.684,49.801,15.891,25.043,15.891L25.043,47.635ZM25.043,47.635"/>
</g>
        <g id="Light-L" transform="matrix(1.0,0.0,0.0,1.0,1088.934877803044,1455.2848973342939)">  <path stroke-linecap="butt" stroke-opacity="1" stroke="none" stroke-miterlimit="4" fill-rule="nonzero" stroke-linejoin="miter" fill="#000000" fill-opacity="1" stroke-width="1px" role="img" stroke-dasharray="none" d="M25.043,130.97C49.801,130.97,100.405,122.697,105.922,114.599L105.922,83.335C100.7,91.019,49.801,99.226,25.043,99.226L25.043,130.97ZM25.043,89.305C49.801,89.305,100.405,81.032,105.922,72.934L105.922,41.67C100.7,49.354,49.801,57.561,25.043,57.561L25.043,89.305ZM25.043,47.635C49.801,47.635,100.405,39.362,105.922,31.264L105.922,0C100.7,7.684,49.801,15.891,25.043,15.891L25.043,47.635ZM25.043,47.635"/>
</g>
        <g id="Thin-L" transform="matrix(1.0,0.0,0.0,1.0,792.224877803044,1455.2848973342939)">  <path fill-rule="nonzero" role="img" stroke-miterlimit="4" fill-opacity="1" stroke-linecap="butt" stroke="none" fill="#000000" stroke-dasharray="none" stroke-width="1px" stroke-opacity="1" stroke-linejoin="miter" d="M25.043,130.97C49.801,130.97,100.405,122.697,105.922,114.599L105.922,83.335C100.7,91.019,49.801,99.226,25.043,99.226L25.043,130.97ZM25.043,89.305C49.801,89.305,100.405,81.032,105.922,72.934L105.922,41.67C100.7,49.354,49.801,57.561,25.043,57.561L25.043,89.305ZM25.043,47.635C49.801,47.635,100.405,39.362,105.922,31.264L105.922,0C100.7,7.684,49.801,15.891,25.043,15.891L25.043,47.635ZM25.043,47.635"/>
</g>
        <g id="Ultralight-L" transform="matrix(1.0,0.0,0.0,1.0,495.51487780304393,1455.2848973342939)">  <path stroke-opacity="1" fill-rule="nonzero" stroke-linejoin="miter" stroke="none" stroke-linecap="butt" fill-opacity="1" fill="#000000" role="img" stroke-width="1px" stroke-miterlimit="4" stroke-dasharray="none" d="M25.043,130.97C49.801,130.97,100.405,122.697,105.922,114.599L105.922,83.335C100.7,91.019,49.801,99.226,25.043,99.226L25.043,130.97ZM25.043,89.305C49.801,89.305,100.405,81.032,105.922,72.934L105.922,41.67C100.7,49.354,49.801,57.561,25.043,57.561L25.043,89.305ZM25.043,47.635C49.801,47.635,100.405,39.362,105.922,31.264L105.922,0C100.7,7.684,49.801,15.891,25.043,15.891L25.043,47.635ZM25.043,47.635"/>
</g>
        <g id="Black-M" transform="matrix(1.0,0.0,0.0,1.0,2883.9163393822046,1040.0063589134545)">  <path stroke-opacity="1" fill-rule="nonzero" stroke-linejoin="miter" stroke-linecap="butt" stroke-dasharray="none" fill="#000000" stroke="none" stroke-miterlimit="4" fill-opacity="1" stroke-width="1px" role="img" d="M19.413,101.527C38.606,101.527,77.833,95.114,82.11,88.836L82.11,64.601C78.062,70.557,38.606,76.92,19.413,76.92L19.413,101.527ZM19.413,69.229C38.606,69.229,77.833,62.816,82.11,56.538L82.11,32.303C78.062,38.259,38.606,44.621,19.413,44.621L19.413,69.229ZM19.413,36.926C38.606,36.926,77.833,30.513,82.11,24.235L82.11,0C78.062,5.956,38.606,12.319,19.413,12.319L19.413,36.926ZM19.413,36.926"/>
</g>
        <g id="Heavy-M" transform="matrix(1.0,0.0,0.0,1.0,2587.2063393822045,1040.0063589134545)">  <path fill-rule="nonzero" stroke="none" fill="#000000" stroke-linecap="butt" stroke-opacity="1" stroke-dasharray="none" fill-opacity="1" role="img" stroke-linejoin="miter" stroke-width="1px" stroke-miterlimit="4" d="M19.413,101.527C38.606,101.527,77.833,95.114,82.11,88.836L82.11,64.601C78.062,70.557,38.606,76.92,19.413,76.92L19.413,101.527ZM19.413,69.229C38.606,69.229,77.833,62.816,82.11,56.538L82.11,32.303C78.062,38.259,38.606,44.621,19.413,44.621L19.413,69.229ZM19.413,36.926C38.606,36.926,77.833,30.513,82.11,24.235L82.11,0C78.062,5.956,38.606,12.319,19.413,12.319L19.413,36.926ZM19.413,36.926"/>
</g>
        <g id="Bold-M" transform="matrix(1.0,0.0,0.0,1.0,2290.4963393822045,1040.0063589134545)">  <path role="img" stroke-linecap="butt" stroke="none" stroke-linejoin="miter" fill-opacity="1" stroke-opacity="1" stroke-miterlimit="4" fill-rule="nonzero" fill="#000000" stroke-dasharray="none" stroke-width="1px" d="M19.413,101.527C38.606,101.527,77.833,95.114,82.11,88.836L82.11,64.601C78.062,70.557,38.606,76.92,19.413,76.92L19.413,101.527ZM19.413,69.229C38.606,69.229,77.833,62.816,82.11,56.538L82.11,32.303C78.062,38.259,38.606,44.621,19.413,44.621L19.413,69.229ZM19.413,36.926C38.606,36.926,77.833,30.513,82.11,24.235L82.11,0C78.062,5.956,38.606,12.319,19.413,12.319L19.413,36.926ZM19.413,36.926"/>
</g>
        <g id="Semibold-M" transform="matrix(1.0,0.0,0.0,1.0,1993.7863393822045,1040.0063589134545)">  <path stroke-opacity="1" stroke="none" fill="#000000" stroke-dasharray="none" role="img" fill-rule="nonzero" stroke-linecap="butt" stroke-width="1px" fill-opacity="1" stroke-miterlimit="4" stroke-linejoin="miter" d="M19.413,101.527C38.606,101.527,77.833,95.114,82.11,88.836L82.11,64.601C78.062,70.557,38.606,76.92,19.413,76.92L19.413,101.527ZM19.413,69.229C38.606,69.229,77.833,62.816,82.11,56.538L82.11,32.303C78.062,38.259,38.606,44.621,19.413,44.621L19.413,69.229ZM19.413,36.926C38.606,36.926,77.833,30.513,82.11,24.235L82.11,0C78.062,5.956,38.606,12.319,19.413,12.319L19.413,36.926ZM19.413,36.926"/>
</g>
        <g id="Medium-M" transform="matrix(1.0,0.0,0.0,1.0,1697.0763393822044,1040.0063589134545)">  <path stroke-linecap="butt" stroke="none" stroke-miterlimit="4" fill="#000000" fill-rule="nonzero" stroke-dasharray="none" role="img" stroke-opacity="1" stroke-width="1px" stroke-linejoin="miter" fill-opacity="1" d="M19.413,101.527C38.606,101.527,77.833,95.114,82.11,88.836L82.11,64.601C78.062,70.557,38.606,76.92,19.413,76.92L19.413,101.527ZM19.413,69.229C38.606,69.229,77.833,62.816,82.11,56.538L82.11,32.303C78.062,38.259,38.606,44.621,19.413,44.621L19.413,69.229ZM19.413,36.926C38.606,36.926,77.833,30.513,82.11,24.235L82.11,0C78.062,5.956,38.606,12.319,19.413,12.319L19.413,36.926ZM19.413,36.926"/>
</g>
        <g id="Regular-M" transform="matrix(1.0,0.0,0.0,1.0,1400.3663393822044,1040.0063589134545)">  <path stroke="none" stroke-linejoin="miter" stroke-miterlimit="4" fill-opacity="1" stroke-linecap="butt" role="img" fill-rule="nonzero" stroke-width="1px" fill="#000000" stroke-dasharray="none" stroke-opacity="1" d="M19.413,101.527C38.606,101.527,77.833,95.114,82.11,88.836L82.11,64.601C78.062,70.557,38.606,76.92,19.413,76.92L19.413,101.527ZM19.413,69.229C38.606,69.229,77.833,62.816,82.11,56.538L82.11,32.303C78.062,38.259,38.606,44.621,19.413,44.621L19.413,69.229ZM19.413,36.926C38.606,36.926,77.833,30.513,82.11,24.235L82.11,0C78.062,5.956,38.606,12.319,19.413,12.319L19.413,36.926ZM19.413,36.926"/>
</g>
        <g id="Light-M" transform="matrix(1.0,0.0,0.0,1.0,1103.6563393822046,1040.0063589134545)">  <path stroke-linecap="butt" stroke-opacity="1" stroke="none" stroke-miterlimit="4" fill-rule="nonzero" stroke-linejoin="miter" fill="#000000" fill-opacity="1" stroke-width="1px" role="img" stroke-dasharray="none" d="M19.413,101.527C38.606,101.527,77.833,95.114,82.11,88.836L82.11,64.601C78.062,70.557,38.606,76.92,19.413,76.92L19.413,101.527ZM19.413,69.229C38.606,69.229,77.833,62.816,82.11,56.538L82.11,32.303C78.062,38.259,38.606,44.621,19.413,44.621L19.413,69.229ZM19.413,36.926C38.606,36.926,77.833,30.513,82.11,24.235L82.11,0C78.062,5.956,38.606,12.319,19.413,12.319L19.413,36.926ZM19.413,36.926"/>
</g>
        <g id="Thin-M" transform="matrix(1.0,0.0,0.0,1.0,806.9463393822047,1040.0063589134545)">  <path fill-rule="nonzero" role="img" stroke-miterlimit="4" fill-opacity="1" stroke-linecap="butt" stroke="none" fill="#000000" stroke-dasharray="none" stroke-width="1px" stroke-opacity="1" stroke-linejoin="miter" d="M19.413,101.527C38.606,101.527,77.833,95.114,82.11,88.836L82.11,64.601C78.062,70.557,38.606,76.92,19.413,76.92L19.413,101.527ZM19.413,69.229C38.606,69.229,77.833,62.816,82.11,56.538L82.11,32.303C78.062,38.259,38.606,44.621,19.413,44.621L19.413,69.229ZM19.413,36.926C38.606,36.926,77.833,30.513,82.11,24.235L82.11,0C78.062,5.956,38.606,12.319,19.413,12.319L19.413,36.926ZM19.413,36.926"/>
</g>
        <g id="Ultralight-M" transform="matrix(1.0,0.0,0.0,1.0,510.2363393822046,1040.0063589134545)">  <path stroke-opacity="1" fill-rule="nonzero" stroke-linejoin="miter" stroke="none" stroke-linecap="butt" fill-opacity="1" fill="#000000" role="img" stroke-width="1px" stroke-miterlimit="4" stroke-dasharray="none" d="M19.413,101.527C38.606,101.527,77.833,95.114,82.11,88.836L82.11,64.601C78.062,70.557,38.606,76.92,19.413,76.92L19.413,101.527ZM19.413,69.229C38.606,69.229,77.833,62.816,82.11,56.538L82.11,32.303C78.062,38.259,38.606,44.621,19.413,44.621L19.413,69.229ZM19.413,36.926C38.606,36.926,77.833,30.513,82.11,24.235L82.11,0C78.062,5.956,38.606,12.319,19.413,12.319L19.413,36.926ZM19.413,36.926"/>
</g>
        <g id="Black-S" transform="matrix(1.0,0.0,0.0,1.0,2894.932053736266,621.0220732675162)">  <path stroke-opacity="1" fill-rule="nonzero" stroke-linejoin="miter" stroke-linecap="butt" stroke-dasharray="none" fill="#000000" stroke="none" stroke-miterlimit="4" fill-opacity="1" stroke-width="1px" role="img" d="M15.2,79.496C30.228,79.496,60.944,74.474,64.292,69.559L64.292,50.583C61.122,55.246,30.228,60.228,15.2,60.228L15.2,79.496ZM15.2,54.206C30.228,54.206,60.944,49.185,64.292,44.269L64.292,25.293C61.122,29.957,30.228,34.938,15.2,34.938L15.2,54.206ZM15.2,28.913C30.228,28.913,60.944,23.892,64.292,18.976L64.292,0C61.122,4.664,30.228,9.646,15.2,9.646L15.2,28.913ZM15.2,28.913"/>
</g>
        <g id="Heavy-S" transform="matrix(1.0,0.0,0.0,1.0,2598.222053736266,621.0220732675162)">  <path fill-rule="nonzero" stroke="none" fill="#000000" stroke-linecap="butt" stroke-opacity="1" stroke-dasharray="none" fill-opacity="1" role="img" stroke-linejoin="miter" stroke-width="1px" stroke-miterlimit="4" d="M15.2,79.496C30.228,79.496,60.944,74.474,64.292,69.559L64.292,50.583C61.122,55.246,30.228,60.228,15.2,60.228L15.2,79.496ZM15.2,54.206C30.228,54.206,60.944,49.185,64.292,44.269L64.292,25.293C61.122,29.957,30.228,34.938,15.2,34.938L15.2,54.206ZM15.2,28.913C30.228,28.913,60.944,23.892,64.292,18.976L64.292,0C61.122,4.664,30.228,9.646,15.2,9.646L15.2,28.913ZM15.2,28.913"/>
</g>
        <g id="Bold-S" transform="matrix(1.0,0.0,0.0,1.0,2301.512053736266,621.0220732675162)">  <path role="img" stroke-linecap="butt" stroke="none" stroke-linejoin="miter" fill-opacity="1" stroke-opacity="1" stroke-miterlimit="4" fill-rule="nonzero" fill="#000000" stroke-dasharray="none" stroke-width="1px" d="M15.2,79.496C30.228,79.496,60.944,74.474,64.292,69.559L64.292,50.583C61.122,55.246,30.228,60.228,15.2,60.228L15.2,79.496ZM15.2,54.206C30.228,54.206,60.944,49.185,64.292,44.269L64.292,25.293C61.122,29.957,30.228,34.938,15.2,34.938L15.2,54.206ZM15.2,28.913C30.228,28.913,60.944,23.892,64.292,18.976L64.292,0C61.122,4.664,30.228,9.646,15.2,9.646L15.2,28.913ZM15.2,28.913"/>
</g>
        <g id="Semibold-S" transform="matrix(1.0,0.0,0.0,1.0,2004.802053736266,621.0220732675162)">  <path stroke-opacity="1" stroke="none" fill="#000000" stroke-dasharray="none" role="img" fill-rule="nonzero" stroke-linecap="butt" stroke-width="1px" fill-opacity="1" stroke-miterlimit="4" stroke-linejoin="miter" d="M15.2,79.496C30.228,79.496,60.944,74.474,64.292,69.559L64.292,50.583C61.122,55.246,30.228,60.228,15.2,60.228L15.2,79.496ZM15.2,54.206C30.228,54.206,60.944,49.185,64.292,44.269L64.292,25.293C61.122,29.957,30.228,34.938,15.2,34.938L15.2,54.206ZM15.2,28.913C30.228,28.913,60.944,23.892,64.292,18.976L64.292,0C61.122,4.664,30.228,9.646,15.2,9.646L15.2,28.913ZM15.2,28.913"/>
</g>
        <g id="Medium-S" transform="matrix(1.0,0.0,0.0,1.0,1708.092053736266,621.0220732675162)">  <path stroke-linecap="butt" stroke="none" stroke-miterlimit="4" fill="#000000" fill-rule="nonzero" stroke-dasharray="none" role="img" stroke-opacity="1" stroke-width="1px" stroke-linejoin="miter" fill-opacity="1" d="M15.2,79.496C30.228,79.496,60.944,74.474,64.292,69.559L64.292,50.583C61.122,55.246,30.228,60.228,15.2,60.228L15.2,79.496ZM15.2,54.206C30.228,54.206,60.944,49.185,64.292,44.269L64.292,25.293C61.122,29.957,30.228,34.938,15.2,34.938L15.2,54.206ZM15.2,28.913C30.228,28.913,60.944,23.892,64.292,18.976L64.292,0C61.122,4.664,30.228,9.646,15.2,9.646L15.2,28.913ZM15.2,28.913"/>
</g>
        <g id="Regular-S" transform="matrix(1.0,0.0,0.0,1.0,1411.382053736266,621.0220732675162)">  <path stroke="none" stroke-linejoin="miter" stroke-miterlimit="4" fill-opacity="1" stroke-linecap="butt" role="img" fill-rule="nonzero" stroke-width="1px" fill="#000000" stroke-dasharray="none" stroke-opacity="1" d="M15.2,79.496C30.228,79.496,60.944,74.474,64.292,69.559L64.292,50.583C61.122,55.246,30.228,60.228,15.2,60.228L15.2,79.496ZM15.2,54.206C30.228,54.206,60.944,49.185,64.292,44.269L64.292,25.293C61.122,29.957,30.228,34.938,15.2,34.938L15.2,54.206ZM15.2,28.913C30.228,28.913,60.944,23.892,64.292,18.976L64.292,0C61.122,4.664,30.228,9.646,15.2,9.646L15.2,28.913ZM15.2,28.913"/>
</g>
        <g id="Light-S" transform="matrix(1.0,0.0,0.0,1.0,1114.6720537362662,621.0220732675162)">  <path stroke-linecap="butt" stroke-opacity="1" stroke="none" stroke-miterlimit="4" fill-rule="nonzero" stroke-linejoin="miter" fill="#000000" fill-opacity="1" stroke-width="1px" role="img" stroke-dasharray="none" d="M15.2,79.496C30.228,79.496,60.944,74.474,64.292,69.559L64.292,50.583C61.122,55.246,30.228,60.228,15.2,60.228L15.2,79.496ZM15.2,54.206C30.228,54.206,60.944,49.185,64.292,44.269L64.292,25.293C61.122,29.957,30.228,34.938,15.2,34.938L15.2,54.206ZM15.2,28.913C30.228,28.913,60.944,23.892,64.292,18.976L64.292,0C61.122,4.664,30.228,9.646,15.2,9.646L15.2,28.913ZM15.2,28.913"/>
</g>
        <g id="Thin-S" transform="matrix(1.0,0.0,0.0,1.0,817.9620537362663,621.0220732675162)">  <path fill-rule="nonzero" role="img" stroke-miterlimit="4" fill-opacity="1" stroke-linecap="butt" stroke="none" fill="#000000" stroke-dasharray="none" stroke-width="1px" stroke-opacity="1" stroke-linejoin="miter" d="M15.2,79.496C30.228,79.496,60.944,74.474,64.292,69.559L64.292,50.583C61.122,55.246,30.228,60.228,15.2,60.228L15.2,79.496ZM15.2,54.206C30.228,54.206,60.944,49.185,64.292,44.269L64.292,25.293C61.122,29.957,30.228,34.938,15.2,34.938L15.2,54.206ZM15.2,28.913C30.228,28.913,60.944,23.892,64.292,18.976L64.292,0C61.122,4.664,30.228,9.646,15.2,9.646L15.2,28.913ZM15.2,28.913"/>
</g>
        <g id="Ultralight-S" transform="matrix(1.0,0.0,0.0,1.0,521.2520537362662,621.0220732675162)">  <path stroke-opacity="1" fill-rule="nonzero" stroke-linejoin="miter" stroke="none" stroke-linecap="butt" fill-opacity="1" fill="#000000" role="img" stroke-width="1px" stroke-miterlimit="4" stroke-dasharray="none" d="M15.2,79.496C30.228,79.496,60.944,74.474,64.292,69.559L64.292,50.583C61.122,55.246,30.228,60.228,15.2,60.228L15.2,79.496ZM15.2,54.206C30.228,54.206,60.944,49.185,64.292,44.269L64.292,25.293C61.122,29.957,30.228,34.938,15.2,34.938L15.2,54.206ZM15.2,28.913C30.228,28.913,60.944,23.892,64.292,18.976L64.292,0C61.122,4.664,30.228,9.646,15.2,9.646L15.2,28.913ZM15.2,28.913"/>
</g>
    </g>
    </g>
</svg>
